<?xml version="1.0" encoding="UTF-8"?>
<svg xmlns="http://www.w3.org/2000/svg" xmlns:xlink="http://www.w3.org/1999/xlink" version="1.2" >
<font id="Artegra Slab Thin Italic">
<font-face  font-family="Artegra Slab" units-per-em="2048" ascent="1516" descent="-532" font-style="italic" font-weight="100" font-stretch="normal" cap-height="1434" x-height="982" underline-position="-154" underline-thickness="102" />
<missing-glyph  horiz-adv-x="922" d="" />
<glyph glyph-name="NULL" d="" />
<glyph glyph-name="CR" unicode="&#xd;" horiz-adv-x="922" d="" />
<glyph glyph-name="space" unicode="&#x20;" horiz-adv-x="573" d="" />
<glyph glyph-name="exclam" unicode="&#x21;" horiz-adv-x="546" d="M313 307 L365 307 L568 1434 L506 1434 L313 307 Z M236 47 C230 16 252 -10 283 -10 C322 -10 344 16 350 47 C355 78 334 104 303 104 C268 104 241 78 236 47 L236 47 Z " />
<glyph glyph-name="quotedbl" unicode="&#x22;" horiz-adv-x="590" d="M324 1065 L377 1065 L456 1434 L374 1434 L324 1065 Z M569 1065 L623 1065 L702 1434 L620 1434 L569 1065 Z " />
<glyph glyph-name="numbersign" unicode="&#x23;" horiz-adv-x="1277" d="M940 504 L1082 930 L1337 930 L1347 983 L1100 983 L1252 1434 L1191 1434 L1039 983 L670 983 L822 1434 L761 1434 L609 983 L360 983 L350 930 L591 930 L448 504 L191 504 L182 451 L430 451 L279 0 L341 0 L492 451 L860 451 L709 0 L771 0 L922 451 L1169 451 L1178 504 L940 504 Z M652 930 L1021 930 L878 504 L510 504 L652 930 Z " />
<glyph glyph-name="dollar" unicode="&#x24;" horiz-adv-x="1285" d="M923 1453 L959 1658 L901 1658 L865 1454 C541 1450 401 1275 373 1090 C349 932 415 789 767 713 C1111 639 1151 524 1124 369 C1089 172 934 38 671 38 C488 38 354 78 248 152 L278 321 L216 321 L181 121 C279 39 422 -10 605 -18 L569 -224 L627 -224 L663 -20 L665 -20 C952 -20 1148 115 1190 369 C1225 578 1135 704 785 778 C472 844 417 965 439 1090 C473 1286 633 1396 870 1396 C1102 1396 1230 1317 1230 1317 L1207 1186 L1269 1186 L1297 1347 C1297 1347 1181 1442 923 1453 L923 1453 Z " />
<glyph glyph-name="ampersand" unicode="&#x26;" horiz-adv-x="1466" d="M1393 630 L1403 688 L1145 688 C1113 520 1040 366 964 260 C829 391 691 550 595 722 L791 859 C1109 1083 1098 1454 788 1454 C609 1454 472 1323 436 1118 C414 997 449 872 516 743 C310 598 194 457 173 302 C116 -117 726 -104 967 164 C1101 42 1176 0 1315 0 L1346 0 L1356 58 L1328 58 C1208 58 1135 102 1010 217 C1080 317 1149 442 1196 630 L1393 630 Z M237 302 C263 451 377 567 540 685 C643 505 791 338 922 209 C724 -19 174 -55 237 302 L237 302 Z M756 907 C686 858 620 814 567 778 C508 895 478 1010 497 1118 C536 1341 706 1396 784 1396 C1045 1396 1010 1085 756 907 L756 907 Z " />
<glyph glyph-name="quotesingle" unicode="&#x27;" horiz-adv-x="344" d="M324 1065 L377 1065 L456 1434 L374 1434 L324 1065 Z " />
<glyph glyph-name="parenleft" unicode="&#x28;" horiz-adv-x="827" d="M614 -256 C614 -256 193 -170 333 594 C475 1370 914 1442 914 1442 L900 1495 C900 1495 414 1425 269 594 C126 -227 582 -307 582 -307 L614 -256 Z " />
<glyph glyph-name="parenright" unicode="&#x29;" horiz-adv-x="825" d="M130 -307 C130 -307 616 -257 761 594 C901 1415 448 1495 448 1495 L416 1444 C416 1444 835 1378 697 594 C559 -190 116 -252 116 -252 L130 -307 Z " />
<glyph glyph-name="asterisk" unicode="&#x2a;" horiz-adv-x="926" d="M736 786 L787 819 L646 1066 L964 1160 L954 1221 L639 1122 L698 1434 L636 1434 L585 1122 L306 1221 L278 1164 L558 1071 L327 821 L377 782 L602 1040 L736 786 Z " />
<glyph glyph-name="plus" unicode="&#x2b;" horiz-adv-x="1154" d="M1164 747 L732 747 L809 1180 L747 1180 L670 747 L238 747 L228 689 L660 689 L583 255 L645 255 L722 689 L1154 689 L1164 747 Z " />
<glyph glyph-name="comma" unicode="&#x2c;" horiz-adv-x="452" d="M70 -221 L126 -221 L358 147 L274 147 L70 -221 Z " />
<glyph glyph-name="hyphen" unicode="&#x2d;" horiz-adv-x="838" d="M216 517 L814 517 L824 575 L226 575 L216 517 Z " />
<glyph glyph-name="period" unicode="&#x2e;" horiz-adv-x="388" d="M170 47 C164 16 186 -10 217 -10 C256 -10 278 16 284 47 C289 78 268 104 237 104 C202 104 175 78 170 47 L170 47 Z " />
<glyph glyph-name="slash" unicode="&#x2f;" horiz-adv-x="1011" d="M140 0 L212 0 L1123 1434 L1052 1434 L140 0 Z " />
<glyph glyph-name="zero" unicode="0" horiz-adv-x="1291" d="M896 1454 C517 1454 316 1135 247 717 C180 314 265 -20 648 -20 C1027 -20 1228 299 1297 717 C1364 1120 1279 1454 896 1454 L896 1454 Z M651 33 C309 33 246 340 312 717 C379 1094 551 1401 893 1401 C1235 1401 1298 1094 1232 717 C1165 340 993 33 651 33 L651 33 Z " />
<glyph glyph-name="one" unicode="1" horiz-adv-x="751" d="M615 1342 L389 58 L199 58 L189 0 L631 0 L641 58 L451 58 L693 1434 L639 1434 L271 1141 L306 1096 L615 1342 Z " />
<glyph glyph-name="two" unicode="2" horiz-adv-x="1161" d="M140 0 L1021 0 L1056 200 L994 200 L969 58 L240 58 C240 58 881 643 941 698 C1093 842 1170 939 1196 1104 C1231 1327 1100 1454 839 1454 C540 1454 397 1246 362 1177 L422 1157 C461 1225 579 1397 835 1397 C1072 1397 1167 1292 1134 1104 C1113 985 1056 889 906 748 C832 678 150 58 150 58 L140 0 Z " />
<glyph glyph-name="three" unicode="3" horiz-adv-x="1136" d="M155 193 C153 193 194 -20 555 -20 C795 -20 1036 104 1083 381 C1140 719 784 739 776 740 C792 742 1120 798 1172 1094 C1215 1338 1024 1454 803 1454 C494 1454 377 1241 379 1240 L355 1103 L417 1103 L438 1221 C438 1221 547 1396 799 1396 C1030 1396 1139 1276 1108 1098 C1053 785 640 765 601 765 L591 707 C760 707 1073 690 1019 385 C979 157 777 38 559 38 C258 38 219 209 219 209 L241 330 L179 330 L155 193 Z " />
<glyph glyph-name="four" unicode="4" horiz-adv-x="1294" d="M958 406 L897 58 L707 58 L697 0 L1139 0 L1149 58 L959 58 L1020 406 L1245 406 L1255 463 L1030 463 L1201 1434 L1119 1434 L223 471 L211 406 L958 406 Z M291 463 L1126 1356 L968 463 L291 463 Z " />
<glyph glyph-name="five" unicode="5" horiz-adv-x="1162" d="M1194 1434 L454 1434 L280 680 C280 680 450 833 719 833 C1048 833 1061 588 1034 434 C1007 283 908 38 579 38 C310 38 231 166 231 166 L258 319 L196 319 L165 145 C165 145 244 -20 575 -20 C970 -20 1073 274 1098 434 C1121 579 1119 891 724 891 C502 891 372 799 372 799 L505 1376 L1184 1376 L1194 1434 Z " />
<glyph glyph-name="six" unicode="6" horiz-adv-x="1216" d="M1193 1426 C771 1541 313 1304 227 457 C212 310 212 -20 614 -20 C985 -20 1121 250 1156 457 C1189 653 1139 934 770 934 C561 934 395 831 310 629 C421 1209 742 1463 1123 1381 L1098 1239 L1160 1239 L1193 1426 Z M1092 457 C1061 281 936 33 617 33 C297 33 260 281 291 457 C322 632 447 881 767 881 C1086 881 1123 632 1092 457 L1092 457 Z " />
<glyph glyph-name="seven" unicode="7" horiz-adv-x="1157" d="M255 58 L245 0 L677 0 L687 58 L494 58 L1259 1376 L1269 1434 L392 1434 L349 1186 L411 1186 L444 1376 L1189 1376 L424 58 L255 58 Z " />
<glyph glyph-name="eight" unicode="8" horiz-adv-x="1202" d="M851 1454 C605 1454 394 1327 352 1091 C319 903 422 787 569 752 C402 719 224 598 186 383 C137 104 348 -20 603 -20 C858 -20 1099 96 1148 375 C1186 590 1052 711 895 744 C1056 779 1199 895 1232 1083 C1274 1319 1097 1454 851 1454 L851 1454 Z M1084 379 C1043 143 842 38 607 38 C372 38 209 143 250 379 C291 608 492 718 727 718 C962 718 1125 608 1084 379 L1084 379 Z M847 1396 C1052 1396 1206 1303 1168 1087 C1130 870 943 777 738 777 C533 777 378 870 416 1087 C454 1303 642 1396 847 1396 L847 1396 Z " />
<glyph glyph-name="nine" unicode="9" horiz-adv-x="1216" d="M275 8 C697 -107 1155 130 1241 977 C1256 1124 1256 1454 854 1454 C483 1454 347 1184 312 977 C279 781 329 500 698 500 C907 500 1073 603 1158 805 C1047 225 726 -29 345 53 L370 195 L308 195 L275 8 Z M376 977 C407 1153 532 1401 851 1401 C1171 1401 1208 1153 1177 977 C1146 802 1021 553 701 553 C382 553 345 802 376 977 L376 977 Z " />
<glyph glyph-name="colon" unicode="&#x3a;" horiz-adv-x="427" d="M170 47 C164 16 186 -10 217 -10 C256 -10 278 16 284 47 C289 78 268 104 237 104 C202 104 175 78 170 47 L170 47 Z M326 935 C320 904 342 878 373 878 C412 878 434 904 440 935 C445 966 424 992 393 992 C358 992 331 966 326 935 L326 935 Z " />
<glyph glyph-name="semicolon" unicode="&#x3b;" horiz-adv-x="427" d="M-9 -221 L47 -221 L279 147 L195 147 L-9 -221 Z M320 935 C314 904 336 878 367 878 C406 878 428 904 434 935 C439 966 418 992 387 992 C352 992 325 966 320 935 L320 935 Z " />
<glyph glyph-name="less" unicode="&#x3c;" horiz-adv-x="1165" d="M250 643 L240 586 L1059 123 L1070 184 L315 610 L1222 1036 L1233 1106 L250 643 Z " />
<glyph glyph-name="equal" unicode="&#x3d;" horiz-adv-x="960" d="M187 543 L949 543 L959 599 L197 599 L187 543 Z M239 835 L1001 835 L1011 891 L249 891 L239 835 Z " />
<glyph glyph-name="greater" unicode="&#x3e;" horiz-adv-x="1165" d="M347 1106 L336 1044 L1092 618 L184 192 L173 123 L1156 586 L1166 643 L347 1106 Z " />
<glyph glyph-name="question" unicode="&#x3f;" horiz-adv-x="1109" d="M383 1178 C430 1250 552 1396 783 1396 C1029 1396 1141 1276 1107 1080 C1060 811 847 714 594 709 L523 307 L585 307 L645 652 C1053 682 1144 928 1171 1080 C1200 1247 1123 1454 793 1454 C509 1454 372 1280 328 1208 L383 1178 Z M450 47 C444 16 466 -10 497 -10 C536 -10 558 16 564 47 C569 78 548 104 517 104 C482 104 455 78 450 47 L450 47 Z " />
<glyph glyph-name="at" unicode="&#x40;" horiz-adv-x="1694" d="M1409 69 C1241 -95 1052 -162 821 -162 C479 -162 226 99 300 517 C374 935 719 1196 1061 1196 C1423 1196 1656 935 1582 517 C1554 357 1465 265 1353 265 C1142 265 1236 527 1309 838 C1252 863 1184 898 1055 898 C942 898 664 837 571 521 C480 216 661 128 795 128 C1054 128 1159 383 1181 448 C1181 448 1137 210 1344 210 C1520 210 1616 337 1648 517 C1726 961 1450 1254 1071 1254 C682 1254 312 961 234 517 C155 72 432 -220 811 -220 C1063 -220 1257 -168 1451 28 L1409 69 Z M1045 840 C1117 840 1216 824 1241 799 C1241 799 1206 660 1176 560 C1101 306 950 185 807 185 C654 185 566 285 633 513 C707 763 916 840 1045 840 L1045 840 Z " />
<glyph glyph-name="A" unicode="A" horiz-adv-x="1737" d="M1225 0 L1657 0 L1667 58 L1492 58 L1154 1434 L874 1434 L864 1376 L1054 1376 L265 58 L90 58 L80 0 L512 0 L522 58 L336 58 L596 495 L1321 495 L1427 58 L1235 58 L1225 0 Z M1111 1360 L1307 553 L631 553 L1111 1360 Z " />
<glyph glyph-name="B" unicode="B" horiz-adv-x="1475" d="M572 1376 L340 58 L150 58 L140 0 L850 0 C1233 0 1392 190 1423 387 C1455 591 1350 720 1206 753 C1350 790 1457 922 1484 1075 C1514 1249 1452 1434 1082 1434 L392 1434 L382 1376 L572 1376 Z M519 725 L1067 725 C1306 725 1389 569 1357 391 C1326 213 1189 58 860 58 L402 58 L519 725 Z M530 783 L634 1376 L1072 1376 C1398 1376 1445 1235 1418 1079 C1388 913 1264 783 1078 783 L530 783 Z " />
<glyph glyph-name="C" unicode="C" horiz-adv-x="1369" d="M1076 1454 C617 1454 316 1125 246 717 C177 314 366 -20 828 -20 C1060 -20 1183 42 1242 79 L1210 130 C1137 92 1024 38 832 38 C410 38 245 340 312 717 C378 1094 650 1396 1072 1396 C1270 1396 1401 1329 1401 1329 L1375 1185 L1437 1185 L1469 1364 C1469 1364 1342 1454 1076 1454 L1076 1454 Z " />
<glyph glyph-name="D" unicode="D" horiz-adv-x="1506" d="M572 1376 L340 58 L150 58 L140 0 L724 0 C1183 0 1465 300 1532 717 C1597 1122 1431 1434 976 1434 L392 1434 L382 1376 L572 1376 Z M634 1376 L966 1376 C1388 1376 1532 1094 1466 717 C1399 340 1156 58 734 58 L402 58 L634 1376 Z " />
<glyph glyph-name="E" unicode="E" horiz-adv-x="1390" d="M1387 1186 L1449 1186 L1492 1434 L392 1434 L382 1376 L572 1376 L340 58 L150 58 L140 0 L1250 0 L1285 200 L1223 200 L1198 58 L402 58 L516 705 L1224 705 L1234 763 L526 763 L634 1376 L1420 1376 L1387 1186 Z " />
<glyph glyph-name="F" unicode="F" horiz-adv-x="1380" d="M340 58 L150 58 L140 0 L582 0 L592 58 L402 58 L516 705 L1224 705 L1234 763 L526 763 L634 1376 L1420 1376 L1387 1186 L1449 1186 L1492 1434 L392 1434 L382 1376 L572 1376 L340 58 Z " />
<glyph glyph-name="G" unicode="G" horiz-adv-x="1460" d="M1072 1396 C1332 1396 1469 1312 1469 1312 L1446 1185 L1508 1185 L1536 1345 C1536 1345 1360 1454 1076 1454 C617 1454 316 1125 246 717 C177 313 367 -20 826 -20 C1020 -20 1195 33 1344 139 L1452 754 L995 754 L985 696 L1380 696 L1289 176 C1159 88 1010 38 832 38 C410 38 245 340 312 717 C378 1094 650 1396 1072 1396 L1072 1396 Z " />
<glyph glyph-name="H" unicode="H" horiz-adv-x="1675" d="M634 1376 L824 1376 L834 1434 L392 1434 L382 1376 L572 1376 L340 58 L150 58 L140 0 L582 0 L592 58 L402 58 L516 705 L1407 705 L1293 58 L1103 58 L1093 0 L1535 0 L1545 58 L1355 58 L1587 1376 L1777 1376 L1787 1434 L1345 1434 L1335 1376 L1525 1376 L1417 763 L526 763 L634 1376 Z " />
<glyph glyph-name="I" unicode="I" horiz-adv-x="722" d="M340 58 L150 58 L140 0 L582 0 L592 58 L402 58 L634 1376 L824 1376 L834 1434 L392 1434 L382 1376 L572 1376 L340 58 Z " />
<glyph glyph-name="J" unicode="J" horiz-adv-x="1158" d="M133 175 C167 75 261 -20 446 -20 C713 -20 851 131 902 422 L1070 1376 L1260 1376 L1270 1434 L828 1434 L818 1376 L1008 1376 L840 422 C798 182 690 38 450 38 C305 38 226 112 191 198 L133 175 Z " />
<glyph glyph-name="K" unicode="K" horiz-adv-x="1557" d="M1219 0 L1417 0 L1427 58 L1257 58 L814 822 L1487 1376 L1649 1376 L1659 1434 L1227 1434 L1217 1376 L1395 1376 L505 642 L634 1376 L824 1376 L834 1434 L392 1434 L382 1376 L572 1376 L340 58 L150 58 L140 0 L582 0 L592 58 L402 58 L489 554 L766 782 L1219 0 Z " />
<glyph glyph-name="L" unicode="L" horiz-adv-x="1290" d="M340 58 L150 58 L140 0 L1150 0 L1193 248 L1131 248 L1098 58 L402 58 L634 1376 L824 1376 L834 1434 L392 1434 L382 1376 L572 1376 L340 58 Z " />
<glyph glyph-name="M" unicode="M" horiz-adv-x="1996" d="M1676 58 L1908 1376 L2098 1376 L2108 1434 L1823 1434 L1008 84 L669 1434 L392 1434 L382 1376 L572 1376 L340 58 L150 58 L140 0 L582 0 L592 58 L402 58 L630 1350 L969 0 L1027 0 L1842 1350 L1614 58 L1424 58 L1414 0 L1856 0 L1866 58 L1676 58 Z " />
<glyph glyph-name="N" unicode="N" horiz-adv-x="1691" d="M572 1376 L340 58 L150 58 L140 0 L582 0 L592 58 L402 58 L631 1360 L1281 0 L1361 0 L1603 1376 L1793 1376 L1803 1434 L1361 1434 L1351 1376 L1541 1376 L1312 74 L662 1434 L392 1434 L382 1376 L572 1376 Z " />
<glyph glyph-name="O" unicode="O" horiz-adv-x="1652" d="M828 -20 C1287 -20 1588 309 1658 717 C1727 1120 1538 1454 1076 1454 C617 1454 316 1125 246 717 C177 314 366 -20 828 -20 L828 -20 Z M312 717 C378 1094 650 1396 1072 1396 C1494 1396 1659 1094 1592 717 C1526 340 1254 38 832 38 C410 38 245 340 312 717 L312 717 Z " />
<glyph glyph-name="P" unicode="P" horiz-adv-x="1454" d="M340 58 L150 58 L140 0 L582 0 L592 58 L402 58 L499 610 L1015 610 C1246 610 1472 746 1514 1022 C1554 1284 1389 1434 1160 1434 L392 1434 L382 1376 L572 1376 L340 58 Z M1150 1376 C1347 1376 1491 1254 1450 1022 C1409 790 1222 668 1025 668 L509 668 L634 1376 L1150 1376 Z " />
<glyph glyph-name="Q" unicode="Q" horiz-adv-x="1652" d="M828 -20 C966 -20 1089 10 1197 62 L1286 -70 L1364 -70 L1251 91 C1470 221 1612 453 1658 717 C1727 1120 1538 1454 1076 1454 C617 1454 316 1125 246 717 C177 314 366 -20 828 -20 L828 -20 Z M312 717 C378 1094 650 1396 1072 1396 C1494 1396 1659 1094 1592 717 C1549 472 1419 259 1218 140 L1106 301 L1037 301 L1164 111 C1067 64 956 38 832 38 C410 38 245 340 312 717 L312 717 Z " />
<glyph glyph-name="R" unicode="R" horiz-adv-x="1469" d="M1136 0 L1349 0 L1359 58 L1183 58 L1023 653 C1335 656 1464 838 1497 1043 C1529 1243 1451 1434 1180 1434 L392 1434 L382 1376 L572 1376 L340 58 L150 58 L140 0 L582 0 L592 58 L402 58 L507 653 L960 653 L1136 0 Z M1170 1376 C1411 1376 1463 1213 1433 1043 C1404 875 1294 711 1053 711 L517 711 L634 1376 L1170 1376 Z " />
<glyph glyph-name="S" unicode="S" horiz-adv-x="1285" d="M876 1454 C544 1454 402 1277 373 1090 C349 932 415 789 767 713 C1111 639 1151 524 1124 369 C1089 172 934 38 671 38 C488 38 354 78 248 152 L278 321 L216 321 L181 121 C290 30 453 -20 665 -20 C952 -20 1148 115 1190 369 C1225 578 1135 704 785 778 C472 844 417 965 439 1090 C473 1286 633 1396 870 1396 C1102 1396 1230 1317 1230 1317 L1207 1186 L1269 1186 L1297 1347 C1297 1347 1168 1454 876 1454 L876 1454 Z " />
<glyph glyph-name="T" unicode="T" horiz-adv-x="1428" d="M349 1186 L411 1186 L444 1376 L925 1376 L693 58 L503 58 L493 0 L935 0 L945 58 L755 58 L987 1376 L1468 1376 L1435 1186 L1497 1186 L1540 1434 L392 1434 L349 1186 Z " />
<glyph glyph-name="U" unicode="U" horiz-adv-x="1708" d="M1481 585 L1620 1376 L1810 1376 L1820 1434 L1378 1434 L1368 1376 L1558 1376 L1419 585 C1355 223 1142 37 860 37 C578 37 431 223 495 585 L634 1376 L824 1376 L834 1434 L392 1434 L382 1376 L572 1376 L433 585 C359 170 556 -20 856 -20 C1164 -20 1407 170 1481 585 L1481 585 Z " />
<glyph glyph-name="V" unicode="V" horiz-adv-x="1660" d="M1822 1376 L1832 1434 L1400 1434 L1390 1376 L1575 1376 L839 74 L560 1376 L754 1376 L764 1434 L332 1434 L322 1376 L497 1376 L797 0 L863 0 L1647 1376 L1822 1376 Z " />
<glyph glyph-name="W" unicode="W" horiz-adv-x="2295" d="M754 1376 L764 1434 L332 1434 L322 1376 L501 1376 L692 0 L761 0 L1389 1370 L1534 0 L1603 0 L2278 1376 L2457 1376 L2467 1434 L2035 1434 L2025 1376 L2216 1376 L1582 78 L1439 1434 L1358 1434 L737 78 L561 1376 L754 1376 Z " />
<glyph glyph-name="X" unicode="X" horiz-adv-x="1618" d="M583 1434 L385 1434 L375 1376 L546 1376 L904 752 L261 58 L90 58 L80 0 L512 0 L522 58 L338 58 L938 709 L1341 0 L1538 0 L1548 58 L1376 58 L978 752 L1555 1376 L1727 1376 L1737 1434 L1305 1434 L1295 1376 L1478 1376 L945 796 L583 1434 Z " />
<glyph glyph-name="Y" unicode="Y" horiz-adv-x="1600" d="M873 594 L779 58 L589 58 L579 0 L1021 0 L1031 58 L841 58 L935 594 L1588 1376 L1762 1376 L1772 1434 L1340 1434 L1330 1376 L1515 1376 L910 652 L560 1376 L754 1376 L764 1434 L332 1434 L322 1376 L496 1376 L873 594 Z " />
<glyph glyph-name="Z" unicode="Z" horiz-adv-x="1324" d="M399 1186 L461 1186 L494 1376 L1331 1376 L146 37 L140 0 L1184 0 L1227 248 L1165 248 L1132 58 L245 58 L1430 1397 L1436 1434 L442 1434 L399 1186 Z " />
<glyph glyph-name="bracketleft" unicode="&#x5b;" horiz-adv-x="708" d="M473 1376 L800 1376 L810 1434 L421 1434 L114 -307 L503 -307 L514 -249 L187 -249 L473 1376 Z " />
<glyph glyph-name="backslash" unicode="&#x5c;" horiz-adv-x="1021" d="M464 1434 L402 1434 L810 0 L871 0 L464 1434 Z " />
<glyph glyph-name="bracketright" unicode="&#x5d;" horiz-adv-x="708" d="M412 -249 L85 -249 L74 -307 L463 -307 L770 1434 L381 1434 L371 1376 L698 1376 L412 -249 Z " />
<glyph glyph-name="asciicircum" unicode="&#x5e;" horiz-adv-x="977" d="M753 1434 L696 1434 L282 901 L346 901 L715 1362 L923 901 L979 901 L753 1434 Z " />
<glyph glyph-name="underscore" unicode="&#x5f;" horiz-adv-x="1148" d="M102 -210 L970 -210 L980 -156 L112 -156 L102 -210 Z " />
<glyph glyph-name="grave" unicode="&#x60;" horiz-adv-x="553" d="M456 1434 L372 1434 L576 1167 L631 1167 L456 1434 Z " />
<glyph glyph-name="a" unicode="a" horiz-adv-x="1328" d="M1141 982 L1091 700 C1074 847 968 1002 741 1002 C443 1002 236 772 186 491 C137 210 273 -20 561 -20 C806 -20 942 123 1015 270 L968 0 L1208 0 L1217 54 L1035 54 L1189 928 L1371 928 L1381 982 L1141 982 Z M1054 491 C1012 254 840 34 570 34 C300 34 206 254 248 491 C290 728 462 948 732 948 C1002 948 1096 728 1054 491 L1054 491 Z " />
<glyph glyph-name="b" unicode="b" horiz-adv-x="1328" d="M627 1516 L387 1516 L377 1462 L559 1462 L302 0 L360 0 L409 282 C426 135 524 -20 759 -20 C1087 -20 1265 210 1314 491 C1363 772 1227 1002 939 1002 C694 1002 553 853 484 706 L627 1516 Z M446 491 C488 728 660 948 930 948 C1200 948 1294 728 1252 491 C1210 254 1048 34 768 34 C498 34 404 254 446 491 L446 491 Z " />
<glyph glyph-name="c" unicode="c" horiz-adv-x="1050" d="M595 34 C325 34 200 218 248 491 C296 763 487 948 757 948 C950 948 1026 873 1026 873 L1005 755 L1063 755 L1088 898 C1088 898 992 1002 766 1002 C453 1002 239 792 186 491 C133 189 283 -20 586 -20 C713 -20 840 -2 942 73 L915 125 C820 57 706 34 595 34 L595 34 Z " />
<glyph glyph-name="d" unicode="d" horiz-adv-x="1328" d="M968 0 L1208 0 L1217 54 L1035 54 L1293 1516 L1053 1516 L1043 1462 L1225 1462 L1091 700 C1074 847 968 1002 741 1002 C443 1002 236 772 186 491 C137 210 273 -20 561 -20 C806 -20 942 123 1015 270 L968 0 Z M1054 491 C1012 254 840 34 570 34 C300 34 206 254 248 491 C290 728 462 948 732 948 C1002 948 1096 728 1054 491 L1054 491 Z " />
<glyph glyph-name="e" unicode="e" horiz-adv-x="1097" d="M554 34 C317 34 211 204 243 464 L1078 464 C1144 835 976 1002 725 1002 C453 1002 239 792 186 491 C133 189 273 -20 545 -20 C754 -20 879 40 945 84 L914 131 C854 94 738 34 554 34 L554 34 Z M253 518 C312 776 487 948 716 948 C975 948 1058 776 1026 518 L253 518 Z " />
<glyph glyph-name="f" unicode="f" horiz-adv-x="815" d="M554 982 L570 1077 C602 1266 630 1482 869 1482 C912 1482 970 1478 1003 1466 L1031 1513 C991 1527 925 1536 878 1536 C616 1536 564 1370 512 1077 L496 982 L273 982 L263 928 L486 928 L332 54 L150 54 L141 0 L563 0 L572 54 L390 54 L544 928 L866 928 L876 982 L554 982 Z " />
<glyph glyph-name="g" unicode="g" horiz-adv-x="1328" d="M1141 982 L1091 700 C1074 847 968 1002 741 1002 C443 1002 236 772 186 491 C137 210 273 -20 561 -20 C806 -20 942 123 1015 270 L968 0 C907 -341 754 -478 480 -478 C354 -478 245 -438 168 -378 L135 -427 C218 -494 341 -532 471 -532 C737 -532 949 -435 1026 0 L1189 928 L1371 928 L1381 982 L1141 982 Z M1054 491 C1012 254 840 34 570 34 C300 34 206 254 248 491 C290 728 462 948 732 948 C1002 948 1096 728 1054 491 L1054 491 Z " />
<glyph glyph-name="h" unicode="h" horiz-adv-x="1408" d="M311 54 L129 54 L120 0 L542 0 L551 54 L369 54 L451 520 C495 771 615 948 871 948 C1127 948 1183 771 1139 520 L1048 0 L1288 0 L1297 54 L1115 54 L1197 520 C1249 812 1156 1002 880 1002 C652 1002 544 862 494 765 L627 1516 L387 1516 L377 1462 L559 1462 L311 54 Z " />
<glyph glyph-name="i" unicode="i" horiz-adv-x="662" d="M465 928 L311 54 L129 54 L120 0 L542 0 L551 54 L369 54 L533 982 L293 982 L283 928 L465 928 Z M503 1288 C497 1258 515 1233 548 1233 C586 1233 607 1258 613 1288 C618 1318 601 1343 567 1343 C532 1343 508 1318 503 1288 L503 1288 Z " />
<glyph glyph-name="j" unicode="j" horiz-adv-x="462" d="M-190 -514 C-157 -526 -108 -532 -61 -532 C170 -532 233 -367 284 -74 L471 982 L231 982 L221 928 L403 928 L226 -74 C187 -299 145 -479 -52 -479 C-98 -479 -138 -471 -165 -463 L-190 -514 Z M439 1288 C433 1258 451 1233 484 1233 C522 1233 543 1258 549 1288 C554 1318 537 1343 503 1343 C468 1343 444 1318 439 1288 L439 1288 Z " />
<glyph glyph-name="k" unicode="k" horiz-adv-x="1311" d="M1191 0 L1200 54 L1044 54 L708 588 L1155 928 L1315 928 L1325 982 L903 982 L893 928 L1066 928 L439 452 L627 1516 L387 1516 L377 1462 L559 1462 L311 54 L129 54 L120 0 L542 0 L551 54 L369 54 L426 375 L663 555 L1012 0 L1191 0 Z " />
<glyph glyph-name="l" unicode="l" horiz-adv-x="662" d="M559 1462 L311 54 L129 54 L120 0 L542 0 L551 54 L369 54 L627 1516 L387 1516 L377 1462 L559 1462 Z " />
<glyph glyph-name="m" unicode="m" horiz-adv-x="2018" d="M533 982 L293 982 L283 928 L465 928 L311 54 L129 54 L120 0 L542 0 L551 54 L369 54 L451 520 C493 757 584 948 836 948 C1087 948 1115 770 1071 520 L980 0 L1220 0 L1229 54 L1047 54 L1129 520 C1170 753 1260 948 1514 948 C1770 948 1791 763 1749 520 L1658 0 L1898 0 L1907 54 L1725 54 L1807 520 C1860 823 1789 1002 1523 1002 C1239 1002 1171 801 1144 738 C1135 832 1100 1002 845 1002 C561 1002 500 793 497 780 L533 982 Z " />
<glyph glyph-name="n" unicode="n" horiz-adv-x="1408" d="M533 982 L293 982 L283 928 L465 928 L311 54 L129 54 L120 0 L542 0 L551 54 L369 54 L451 520 C495 771 615 948 871 948 C1127 948 1183 771 1139 520 L1048 0 L1288 0 L1297 54 L1115 54 L1197 520 C1249 812 1156 1002 880 1002 C652 1002 544 862 494 765 L533 982 Z " />
<glyph glyph-name="o" unicode="o" horiz-adv-x="1180" d="M186 491 C133 189 283 -20 586 -20 C908 -20 1113 190 1166 491 C1219 793 1068 1002 766 1002 C453 1002 239 792 186 491 L186 491 Z M248 491 C296 763 487 948 757 948 C1036 948 1152 763 1104 491 C1056 218 864 34 595 34 C325 34 200 218 248 491 L248 491 Z " />
<glyph glyph-name="p" unicode="p" horiz-adv-x="1328" d="M217 -478 L35 -478 L26 -532 L448 -532 L457 -478 L275 -478 L409 282 C426 135 524 -20 759 -20 C1087 -20 1265 210 1314 491 C1363 772 1227 1002 939 1002 C694 1002 553 853 484 706 L533 982 L293 982 L283 928 L465 928 L217 -478 Z M446 491 C488 728 660 948 930 948 C1200 948 1294 728 1252 491 C1210 254 1048 34 768 34 C498 34 404 254 446 491 L446 491 Z " />
<glyph glyph-name="q" unicode="q" horiz-adv-x="1328" d="M883 -478 L701 -478 L692 -532 L1114 -532 L1123 -478 L941 -478 L1189 928 L1371 928 L1381 982 L1141 982 L1090 694 C1073 841 972 1002 737 1002 C449 1002 234 786 186 491 C140 210 277 -20 565 -20 C800 -20 947 129 1016 276 L883 -478 Z M1054 491 C1012 254 840 34 570 34 C300 34 206 254 248 491 C290 728 462 948 732 948 C1002 948 1096 728 1054 491 L1054 491 Z " />
<glyph glyph-name="r" unicode="r" horiz-adv-x="937" d="M311 54 L129 54 L120 0 L542 0 L551 54 L369 54 L451 520 C495 771 615 948 871 948 C931 948 979 939 1018 921 L1057 967 C1010 990 951 1002 880 1002 C652 1002 544 862 494 765 L533 982 L293 982 L283 928 L465 928 L311 54 Z " />
<glyph glyph-name="s" unicode="s" horiz-adv-x="976" d="M891 755 L949 755 L978 918 C978 918 852 1002 653 1002 C403 1002 288 894 265 758 C244 631 304 533 571 482 C817 435 856 353 838 251 C811 95 680 34 510 34 C403 34 289 60 196 117 L220 255 L162 255 L133 86 C248 8 373 -20 501 -20 C709 -20 862 55 898 251 C924 392 833 491 589 538 C338 586 307 656 325 758 C348 887 478 948 644 948 C752 948 845 922 914 888 L891 755 Z " />
<glyph glyph-name="t" unicode="t" horiz-adv-x="791" d="M243 928 L466 928 L371 379 C325 111 355 -20 585 -20 C632 -20 674 -15 716 -2 L703 49 C667 38 637 33 594 33 C365 33 394 186 438 438 L524 928 L846 928 L856 982 L534 982 L587 1282 L529 1282 L476 982 L253 982 L243 928 Z " />
<glyph glyph-name="u" unicode="u" horiz-adv-x="1408" d="M1279 982 L1038 982 L1029 928 L1211 928 L1129 462 C1085 211 965 34 709 34 C453 34 397 211 441 462 L532 982 L292 982 L283 928 L465 928 L383 462 C331 170 424 -20 706 -20 C934 -20 1036 120 1086 217 L1047 0 L1287 0 L1297 54 L1115 54 L1279 982 Z " />
<glyph glyph-name="v" unicode="v" horiz-adv-x="1410" d="M673 0 L737 0 L1275 928 L1453 928 L1463 982 L1041 982 L1031 928 L1206 928 L713 68 L523 928 L705 928 L715 982 L293 982 L283 928 L461 928 L673 0 Z " />
<glyph glyph-name="w" unicode="w" horiz-adv-x="1920" d="M1783 928 L1963 928 L1973 982 L1551 982 L1541 928 L1720 928 L1292 78 L1160 982 L1104 982 L652 78 L523 928 L705 928 L715 982 L293 982 L283 928 L463 928 L609 0 L670 0 L1118 892 L1252 0 L1311 0 L1783 928 Z " />
<glyph glyph-name="x" unicode="x" horiz-adv-x="1398" d="M1278 0 L1287 54 L1117 54 L824 509 L1241 928 L1405 928 L1415 982 L993 982 L983 928 L1164 928 L791 553 L516 982 L329 982 L319 928 L483 928 L752 509 L299 54 L129 54 L120 0 L542 0 L551 54 L375 54 L785 465 L1086 0 L1278 0 Z " />
<glyph glyph-name="y" unicode="y" horiz-adv-x="1410" d="M705 928 L715 982 L293 982 L283 928 L458 928 L675 0 L510 -276 C452 -368 374 -478 260 -478 L175 -478 L166 -532 L258 -532 C400 -532 483 -426 562 -294 L1278 928 L1453 928 L1463 982 L1041 982 L1031 928 L1208 928 L715 70 L523 928 L705 928 Z " />
<glyph glyph-name="z" unicode="z" horiz-adv-x="1012" d="M332 982 L292 755 L350 755 L380 928 L963 928 L125 33 L120 0 L892 0 L932 227 L874 227 L843 54 L221 54 L1059 949 L1065 982 L332 982 Z " />
<glyph glyph-name="braceleft" unicode="&#x7b;" horiz-adv-x="812" d="M202 575 C370 544 471 474 416 159 C367 -118 457 -267 633 -267 L643 -214 C510 -214 434 -87 479 165 C546 548 375 578 281 601 C383 624 566 658 633 1041 C677 1293 796 1415 929 1415 L940 1474 C764 1474 621 1324 572 1048 C517 732 391 663 212 632 L202 575 Z " />
<glyph glyph-name="bar" unicode="&#x7c;" horiz-adv-x="379" d="M66 -512 L128 -512 L471 1434 L409 1434 L66 -512 Z " />
<glyph glyph-name="braceright" unicode="&#x7d;" horiz-adv-x="812" d="M795 632 C626 663 526 732 581 1048 C630 1324 539 1474 363 1474 L354 1420 C487 1420 563 1293 519 1041 C452 658 622 626 716 603 C614 580 432 548 365 165 C320 -87 199 -214 66 -214 L56 -267 C232 -267 376 -118 425 159 C480 474 605 544 785 575 L795 632 Z " />
<glyph glyph-name="asciitilde" unicode="&#x7e;" horiz-adv-x="1021" d="M631 725 C652 696 699 623 807 623 C996 623 1042 815 1042 815 L980 815 C980 815 952 676 817 676 C715 676 670 760 644 799 C622 827 576 901 467 901 C279 901 233 709 233 709 L295 709 C295 709 323 848 458 848 C560 848 605 764 631 725 L631 725 Z " />
<glyph glyph-name="uni00A0" unicode="&#xa0;" horiz-adv-x="573" d="" />
<glyph glyph-name="exclamdown" unicode="&#xa1;" horiz-adv-x="437" d="M321 595 L269 595 L66 -532 L128 -532 L321 595 Z M398 855 C404 886 382 912 351 912 C312 912 290 886 284 855 C279 824 300 798 331 798 C366 798 393 824 398 855 L398 855 Z " />
<glyph glyph-name="cent" unicode="&#xa2;" horiz-adv-x="1010" d="M551 -19 L520 -193 L577 -193 L608 -20 C727 -18 846 2 942 73 L915 125 C820 57 706 34 595 34 C325 34 200 218 248 491 C296 763 487 948 757 948 C950 948 1026 873 1026 873 L1005 755 L1063 755 L1088 898 C1088 898 998 995 788 1002 L819 1175 L762 1175 L731 1001 C437 986 237 781 186 491 C135 201 271 -3 551 -19 L551 -19 Z " />
<glyph glyph-name="sterling" unicode="&#xa3;" horiz-adv-x="1276" d="M264 705 L408 705 L407 451 C404 205 210 58 210 58 L200 0 L1113 0 L1123 58 L282 58 C282 58 467 208 470 456 L472 705 L975 705 L985 763 L473 763 C473 763 469 868 490 987 C532 1225 685 1396 962 1396 C1223 1396 1288 1215 1288 1215 L1268 1103 L1330 1103 L1352 1226 C1352 1226 1287 1454 966 1454 C604 1454 463 1202 426 987 C406 878 409 763 409 763 L274 763 L264 705 Z " />
<glyph glyph-name="currency" unicode="&#xa4;" horiz-adv-x="986" d="M910 1308 C846 1362 763 1395 673 1395 C583 1395 500 1362 435 1308 L308 1434 L265 1391 L391 1264 C337 1200 304 1116 304 1026 C304 936 336 853 390 789 L263 662 L308 618 L433 745 C498 690 582 657 673 657 C763 657 847 690 911 744 L1038 618 L1081 662 L955 788 C1009 853 1042 936 1042 1026 C1042 1116 1009 1200 954 1264 L1081 1391 L1035 1434 L910 1308 Z M360 1026 C360 1198 501 1339 673 1339 C845 1339 986 1198 986 1026 C986 854 845 713 673 713 C501 713 360 854 360 1026 L360 1026 Z " />
<glyph glyph-name="yen" unicode="&#xa5;" horiz-adv-x="1680" d="M563 594 L553 537 L903 537 L876 388 L527 388 L517 330 L866 330 L819 58 L629 58 L619 0 L1061 0 L1071 58 L881 58 L928 330 L1279 330 L1289 388 L938 388 L965 537 L1315 537 L1325 594 L975 594 L1628 1376 L1802 1376 L1812 1434 L1380 1434 L1370 1376 L1555 1376 L950 652 L600 1376 L794 1376 L804 1434 L372 1434 L362 1376 L536 1376 L913 594 L563 594 Z " />
<glyph glyph-name="brokenbar" unicode="&#xa6;" horiz-adv-x="382" d="M279 676 L341 676 L474 1434 L412 1434 L279 676 Z M66 -532 L128 -532 L261 226 L199 226 L66 -532 Z " />
<glyph glyph-name="section" unicode="&#xa7;" horiz-adv-x="1285" d="M1190 369 C1225 578 1135 704 785 778 C472 844 417 965 439 1090 C473 1286 633 1396 870 1396 C1102 1396 1230 1317 1230 1317 L1207 1186 L1269 1186 L1297 1347 C1297 1347 1168 1454 876 1454 C544 1454 402 1277 373 1090 C360 1004 373 923 444 854 C344 789 279 688 257 553 C222 344 312 218 662 144 C975 78 1030 -43 1008 -168 C974 -364 814 -474 577 -474 C345 -474 217 -395 217 -395 L240 -264 L178 -264 L150 -425 C150 -425 279 -532 571 -532 C903 -532 1045 -355 1074 -168 C1087 -82 1073 0 1002 68 C1101 133 1167 234 1190 369 L1190 369 Z M767 713 C1111 639 1151 524 1124 369 C1104 257 1045 166 951 108 C889 148 802 182 680 209 C336 283 296 398 323 553 C342 664 401 755 495 814 C557 773 645 739 767 713 L767 713 Z " />
<glyph glyph-name="dieresis" unicode="&#xa8;" horiz-adv-x="725" d="M374 1288 C368 1258 386 1233 419 1233 C457 1233 478 1258 484 1288 C489 1318 472 1343 438 1343 C403 1343 379 1318 374 1288 L374 1288 Z M714 1288 C708 1258 726 1233 759 1233 C797 1233 818 1258 824 1288 C829 1318 812 1343 778 1343 C743 1343 719 1318 714 1288 L714 1288 Z " />
<glyph glyph-name="copyright" unicode="&#xa9;" horiz-adv-x="1726" d="M625 717 C625 934 782 1100 979 1100 C1079 1100 1135 1090 1219 1030 L1245 1069 C1163 1130 1085 1149 979 1149 C754 1149 567 956 567 717 C567 475 754 284 979 284 C1085 284 1163 301 1245 362 L1219 401 C1135 342 1079 332 979 332 C782 332 625 500 625 717 L625 717 Z M250 717 C250 309 580 -20 987 -20 C1395 -20 1724 309 1724 717 C1724 1124 1395 1454 987 1454 C580 1454 250 1124 250 717 L250 717 Z M312 717 C312 1094 610 1396 987 1396 C1364 1396 1662 1094 1662 717 C1662 340 1364 38 987 38 C610 38 312 340 312 717 L312 717 Z " />
<glyph glyph-name="ordfeminine" unicode="&#xaa;" horiz-adv-x="761" d="M662 714 L826 714 L835 763 L724 763 L791 1143 C823 1325 791 1444 596 1444 C471 1444 374 1394 374 1394 L390 1350 C390 1350 491 1395 591 1395 C753 1395 767 1309 741 1162 C464 1191 259 1132 223 928 C195 771 291 704 427 704 C558 704 644 771 687 856 L662 714 Z M276 928 C306 1099 500 1140 733 1117 L714 1006 C688 862 590 753 431 753 C323 753 254 805 276 928 L276 928 Z " />
<glyph glyph-name="guillemotleft" unicode="&#xab;" horiz-adv-x="1301" d="M254 643 L244 586 L756 123 L770 201 L321 608 L916 1018 L930 1106 L254 643 Z M707 643 L697 586 L1209 123 L1223 201 L774 608 L1369 1018 L1383 1106 L707 643 Z " />
<glyph glyph-name="logicalnot" unicode="&#xac;" horiz-adv-x="1169" d="M229 720 L1113 720 L1040 303 L1102 303 L1186 778 L240 778 L229 720 Z " />
<glyph glyph-name="uni00AD" unicode="&#xad;" horiz-adv-x="977" d="M233 614 L975 614 L984 668 L242 668 L233 614 Z " />
<glyph glyph-name="registered" unicode="&#xae;" horiz-adv-x="1059" d="M565 754 L607 992 L725 992 L828 754 L872 754 L769 992 C858 1000 909 1057 922 1131 C935 1205 895 1270 810 1270 L615 1270 L524 754 L565 754 Z M804 1231 C865 1231 889 1190 879 1131 C869 1072 829 1031 768 1031 L614 1031 L650 1231 L804 1231 Z M275 1012 C275 768 473 570 717 570 C961 570 1159 768 1159 1012 C1159 1256 961 1454 717 1454 C473 1454 275 1256 275 1012 L275 1012 Z M319 1012 C319 1232 497 1410 717 1410 C937 1410 1115 1232 1115 1012 C1115 792 937 614 717 614 C497 614 319 792 319 1012 L319 1012 Z " />
<glyph glyph-name="macron" unicode="&#xaf;" horiz-adv-x="860" d="M343 1380 L1003 1380 L1012 1434 L352 1434 L343 1380 Z " />
<glyph glyph-name="degree" unicode="&#xb0;" horiz-adv-x="550" d="M274 1227 C254 1113 328 1020 442 1020 C571 1020 666 1113 686 1227 C706 1341 630 1434 515 1434 C387 1434 294 1341 274 1227 L274 1227 Z M319 1227 C335 1319 406 1393 508 1393 C610 1393 655 1319 639 1227 C623 1135 552 1061 450 1061 C348 1061 303 1135 319 1227 L319 1227 Z " />
<glyph glyph-name="plusminus" unicode="&#xb1;" horiz-adv-x="1134" d="M1192 887 L760 887 L836 1320 L774 1320 L698 887 L266 887 L256 829 L688 829 L611 395 L673 395 L750 829 L1182 829 L1192 887 Z M1076 229 L150 229 L140 171 L1066 171 L1076 229 Z " />
<glyph glyph-name="twosuperior" unicode="&#xb2;" horiz-adv-x="557" d="M185 714 L622 714 L649 867 L596 867 L578 763 L274 763 C274 763 528 1012 555 1038 C626 1107 686 1177 703 1271 C723 1384 654 1444 542 1444 C372 1444 308 1292 308 1292 L354 1273 C354 1273 412 1395 537 1395 C631 1395 662 1348 649 1271 C635 1194 574 1129 517 1072 C500 1055 193 755 193 755 L185 714 Z " />
<glyph glyph-name="threesuperior" unicode="&#xb3;" horiz-adv-x="548" d="M306 1353 L287 1245 L340 1245 L355 1328 C382 1353 440 1395 514 1395 C622 1395 651 1336 639 1269 C620 1159 511 1118 415 1118 L406 1069 C503 1069 619 1047 594 907 C576 801 495 753 401 753 C315 753 272 800 258 824 L269 888 L216 888 L202 810 C202 810 246 704 397 704 C513 704 622 758 647 905 C669 1028 585 1084 522 1094 C574 1100 673 1158 692 1267 C711 1373 649 1444 519 1444 C403 1444 331 1380 306 1353 L306 1353 Z " />
<glyph glyph-name="acute" unicode="&#xb4;" horiz-adv-x="539" d="M318 1167 L374 1167 L671 1434 L587 1434 L318 1167 Z " />
<glyph glyph-name="mu" unicode="&#xb5;" horiz-adv-x="1408" d="M533 982 L293 982 L283 928 L465 928 L217 -478 L35 -478 L26 -532 L448 -532 L457 -478 L275 -478 L398 219 C414 122 472 -20 700 -20 C928 -20 1036 122 1086 219 L1048 0 L1288 0 L1297 54 L1115 54 L1279 982 L1039 982 L1029 928 L1211 928 L1129 462 C1085 211 955 34 709 34 C463 34 397 211 441 462 L533 982 Z " />
<glyph glyph-name="paragraph" unicode="&#xb6;" horiz-adv-x="1129" d="M733 1434 C512 1434 336 1259 301 1051 C267 851 367 668 598 668 L786 668 L669 0 L731 0 L973 1376 L1075 1376 L833 0 L895 0 L1137 1376 L1231 1376 L1241 1434 L733 1434 Z M911 1376 L797 726 L609 726 C409 726 335 881 365 1051 C395 1221 533 1376 723 1376 L911 1376 Z " />
<glyph glyph-name="periodcentered" unicode="&#xb7;" horiz-adv-x="388" d="M270 671 C264 640 286 614 317 614 C356 614 378 640 384 671 C389 702 368 728 337 728 C302 728 275 702 270 671 L270 671 Z " />
<glyph glyph-name="cedilla" unicode="&#xb8;" horiz-adv-x="566" d="M21 -399 C128 -452 342 -462 386 -279 C415 -160 294 -123 210 -131 L283 20 L226 20 L125 -185 C230 -168 356 -172 327 -279 C291 -412 124 -391 52 -354 L21 -399 Z " />
<glyph glyph-name="onesuperior" unicode="&#xb9;" horiz-adv-x="442" d="M455 1347 L352 763 L241 763 L232 714 L507 714 L516 763 L405 763 L523 1434 L482 1434 L284 1274 L315 1234 L455 1347 Z " />
<glyph glyph-name="ordmasculine" unicode="&#xba;" horiz-adv-x="738" d="M497 704 C699 704 829 858 867 1074 C905 1290 821 1444 619 1444 C417 1444 287 1290 249 1074 C211 858 295 704 497 704 L497 704 Z M501 753 C335 753 269 879 304 1074 C338 1269 448 1395 614 1395 C780 1395 846 1269 812 1074 C777 879 667 753 501 753 L501 753 Z " />
<glyph glyph-name="guillemotright" unicode="&#xbb;" horiz-adv-x="1301" d="M789 1106 L775 1028 L1225 620 L629 213 L615 123 L1291 586 L1301 643 L789 1106 Z M336 1106 L322 1028 L772 620 L176 213 L162 123 L838 586 L848 643 L336 1106 Z " />
<glyph glyph-name="onequarter" unicode="&#xbc;" horiz-adv-x="1319" d="M904 0 L1179 0 L1187 49 L1076 49 L1103 200 L1214 200 L1222 249 L1111 249 L1194 720 L1135 720 L705 247 L697 200 L1050 200 L1023 49 L912 49 L904 0 Z M178 0 L239 0 L1315 1434 L1254 1434 L178 0 Z M535 1347 L432 763 L321 763 L312 714 L587 714 L596 763 L485 763 L603 1434 L562 1434 L364 1274 L395 1234 L535 1347 Z M771 249 L1127 636 L1058 249 L771 249 Z " />
<glyph glyph-name="onehalf" unicode="&#xbd;" horiz-adv-x="1380" d="M176 0 L241 0 L1317 1434 L1252 1434 L176 0 Z M395 1234 L535 1347 L432 763 L321 763 L312 714 L587 714 L596 763 L485 763 L603 1434 L562 1434 L364 1274 L395 1234 Z M802 0 L1239 0 L1266 153 L1213 153 L1195 49 L891 49 C891 49 1145 298 1172 324 C1243 393 1303 463 1320 557 C1340 670 1271 730 1159 730 C989 730 925 578 925 578 L971 559 C971 559 1029 681 1154 681 C1248 681 1279 634 1266 557 C1252 480 1191 415 1134 358 C1117 341 810 41 810 41 L802 0 Z " />
<glyph glyph-name="threequarters" unicode="&#xbe;" horiz-adv-x="1462" d="M305 0 L370 0 L1446 1434 L1381 1434 L305 0 Z M1047 0 L1322 0 L1330 49 L1219 49 L1246 201 L1357 201 L1366 250 L1255 250 L1337 720 L1278 720 L848 248 L840 201 L1193 201 L1166 49 L1055 49 L1047 0 Z M915 250 L1270 636 L1202 250 L915 250 Z M386 1353 L367 1245 L420 1245 L435 1328 C462 1353 520 1395 594 1395 C702 1395 731 1336 719 1269 C700 1159 591 1118 495 1118 L486 1069 C583 1069 699 1047 674 907 C656 801 575 753 481 753 C395 753 352 800 338 824 L349 888 L296 888 L282 810 C282 810 326 704 477 704 C593 704 702 758 727 905 C749 1028 665 1084 602 1094 C654 1100 753 1158 772 1267 C791 1373 729 1444 599 1444 C483 1444 411 1380 386 1353 L386 1353 Z " />
<glyph glyph-name="questiondown" unicode="&#xbf;" horiz-adv-x="950" d="M805 -276 C758 -348 636 -494 405 -494 C159 -494 47 -374 81 -178 C128 91 341 188 594 193 L665 595 L603 595 L543 250 C135 220 44 -26 17 -178 C-12 -345 65 -552 395 -552 C679 -552 816 -378 860 -306 L805 -276 Z M738 855 C744 886 722 912 691 912 C652 912 630 886 624 855 C619 824 640 798 671 798 C706 798 733 824 738 855 L738 855 Z " />
<glyph glyph-name="Agrave" unicode="&#xc0;" horiz-adv-x="1737" d="M970 1803 L886 1803 L1090 1536 L1145 1536 L970 1803 Z M1225 0 L1657 0 L1667 58 L1492 58 L1154 1434 L874 1434 L864 1376 L1054 1376 L265 58 L90 58 L80 0 L512 0 L522 58 L336 58 L596 495 L1321 495 L1427 58 L1235 58 L1225 0 Z M1111 1360 L1307 553 L631 553 L1111 1360 Z " />
<glyph glyph-name="Aacute" unicode="&#xc1;" horiz-adv-x="1737" d="M1113 1536 L1169 1536 L1466 1803 L1382 1803 L1113 1536 Z M1225 0 L1657 0 L1667 58 L1492 58 L1154 1434 L874 1434 L864 1376 L1054 1376 L265 58 L90 58 L80 0 L512 0 L522 58 L336 58 L596 495 L1321 495 L1427 58 L1235 58 L1225 0 Z M1111 1360 L1307 553 L631 553 L1111 1360 Z " />
<glyph glyph-name="Acircumflex" unicode="&#xc2;" horiz-adv-x="1737" d="M1225 0 L1657 0 L1667 58 L1492 58 L1154 1434 L874 1434 L864 1376 L1054 1376 L265 58 L90 58 L80 0 L512 0 L522 58 L336 58 L596 495 L1321 495 L1427 58 L1235 58 L1225 0 Z M1111 1360 L1307 553 L631 553 L1111 1360 Z M1219 1803 L1151 1803 L893 1536 L960 1536 L1182 1745 L1328 1536 L1385 1536 L1219 1803 Z " />
<glyph glyph-name="Atilde" unicode="&#xc3;" horiz-adv-x="1737" d="M1225 0 L1657 0 L1667 58 L1492 58 L1154 1434 L874 1434 L864 1376 L1054 1376 L265 58 L90 58 L80 0 L512 0 L522 58 L336 58 L596 495 L1321 495 L1427 58 L1235 58 L1225 0 Z M1111 1360 L1307 553 L631 553 L1111 1360 Z M1139 1612 C1165 1579 1200 1536 1265 1536 C1400 1536 1425 1675 1425 1675 L1371 1675 C1371 1675 1354 1585 1274 1585 C1221 1585 1194 1630 1174 1655 C1149 1688 1113 1731 1048 1731 C913 1731 888 1591 888 1591 L942 1591 C942 1591 960 1681 1040 1681 C1093 1681 1120 1636 1139 1612 L1139 1612 Z " />
<glyph glyph-name="Adieresis" unicode="&#xc4;" horiz-adv-x="1737" d="M1225 0 L1657 0 L1667 58 L1492 58 L1154 1434 L874 1434 L864 1376 L1054 1376 L265 58 L90 58 L80 0 L512 0 L522 58 L336 58 L596 495 L1321 495 L1427 58 L1235 58 L1225 0 Z M1111 1360 L1307 553 L631 553 L1111 1360 Z M928 1611 C922 1581 940 1556 973 1556 C1011 1556 1032 1581 1038 1611 C1043 1641 1026 1666 992 1666 C957 1666 933 1641 928 1611 L928 1611 Z M1268 1611 C1262 1581 1280 1556 1313 1556 C1351 1556 1372 1581 1378 1611 C1383 1641 1366 1666 1332 1666 C1297 1666 1273 1641 1268 1611 L1268 1611 Z " />
<glyph glyph-name="Aring" unicode="&#xc5;" horiz-adv-x="1737" d="M1225 0 L1657 0 L1667 58 L1492 58 L1154 1434 L874 1434 L864 1376 L1054 1376 L265 58 L90 58 L80 0 L512 0 L522 58 L336 58 L596 495 L1321 495 L1427 58 L1235 58 L1225 0 Z M1111 1360 L1307 553 L631 553 L1111 1360 Z M1012 1690 C997 1606 1051 1536 1139 1536 C1239 1536 1303 1600 1320 1690 C1336 1774 1277 1844 1193 1844 C1093 1844 1027 1774 1012 1690 L1012 1690 Z M1053 1690 C1064 1753 1113 1805 1186 1805 C1259 1805 1290 1753 1279 1690 C1268 1627 1219 1577 1146 1577 C1073 1577 1042 1627 1053 1690 L1053 1690 Z " />
<glyph glyph-name="AE" unicode="&#xc6;" horiz-adv-x="2318" d="M2420 1434 L1260 1434 L1250 1376 L1436 1376 L319 58 L150 58 L140 0 L572 0 L582 58 L397 58 L806 541 L1353 541 L1258 0 L2178 0 L2213 200 L2151 200 L2126 58 L1330 58 L1444 705 L2152 705 L2162 763 L1454 763 L1562 1376 L2348 1376 L2315 1186 L2377 1186 L2420 1434 Z M1497 1356 L1363 599 L856 599 L1497 1356 Z " />
<glyph glyph-name="Ccedilla" unicode="&#xc7;" horiz-adv-x="1369" d="M1076 1454 C617 1454 316 1125 246 717 C180 335 346 16 756 -17 L674 -185 C779 -168 905 -172 876 -279 C840 -412 673 -391 601 -354 L570 -399 C677 -452 891 -462 935 -279 C964 -160 843 -123 759 -131 L813 -20 L828 -20 C1060 -20 1183 42 1242 79 L1210 130 C1137 92 1024 38 832 38 C410 38 245 340 312 717 C378 1094 650 1396 1072 1396 C1270 1396 1401 1329 1401 1329 L1375 1185 L1437 1185 L1469 1364 C1469 1364 1342 1454 1076 1454 L1076 1454 Z " />
<glyph glyph-name="Egrave" unicode="&#xc8;" horiz-adv-x="1390" d="M838 1803 L754 1803 L958 1536 L1013 1536 L838 1803 Z M1387 1186 L1449 1186 L1492 1434 L392 1434 L382 1376 L572 1376 L340 58 L150 58 L140 0 L1250 0 L1285 200 L1223 200 L1198 58 L402 58 L516 705 L1224 705 L1234 763 L526 763 L634 1376 L1420 1376 L1387 1186 Z " />
<glyph glyph-name="Eacute" unicode="&#xc9;" horiz-adv-x="1390" d="M917 1536 L973 1536 L1270 1803 L1186 1803 L917 1536 Z M1387 1186 L1449 1186 L1492 1434 L392 1434 L382 1376 L572 1376 L340 58 L150 58 L140 0 L1250 0 L1285 200 L1223 200 L1198 58 L402 58 L516 705 L1224 705 L1234 763 L526 763 L634 1376 L1420 1376 L1387 1186 Z " />
<glyph glyph-name="Ecircumflex" unicode="&#xca;" horiz-adv-x="1390" d="M1387 1186 L1449 1186 L1492 1434 L392 1434 L382 1376 L572 1376 L340 58 L150 58 L140 0 L1250 0 L1285 200 L1223 200 L1198 58 L402 58 L516 705 L1224 705 L1234 763 L526 763 L634 1376 L1420 1376 L1387 1186 Z M1076 1803 L1008 1803 L750 1536 L817 1536 L1039 1745 L1185 1536 L1242 1536 L1076 1803 Z " />
<glyph glyph-name="Edieresis" unicode="&#xcb;" horiz-adv-x="1390" d="M1387 1186 L1449 1186 L1492 1434 L392 1434 L382 1376 L572 1376 L340 58 L150 58 L140 0 L1250 0 L1285 200 L1223 200 L1198 58 L402 58 L516 705 L1224 705 L1234 763 L526 763 L634 1376 L1420 1376 L1387 1186 Z M779 1611 C773 1581 791 1556 824 1556 C862 1556 883 1581 889 1611 C894 1641 877 1666 843 1666 C808 1666 784 1641 779 1611 L779 1611 Z M1119 1611 C1113 1581 1131 1556 1164 1556 C1202 1556 1223 1581 1229 1611 C1234 1641 1217 1666 1183 1666 C1148 1666 1124 1641 1119 1611 L1119 1611 Z " />
<glyph glyph-name="Igrave" unicode="&#xcc;" horiz-adv-x="699" d="M501 1803 L417 1803 L621 1536 L676 1536 L501 1803 Z M357 58 L167 58 L157 0 L599 0 L609 58 L419 58 L651 1376 L841 1376 L851 1434 L409 1434 L399 1376 L589 1376 L357 58 Z " />
<glyph glyph-name="Iacute" unicode="&#xcd;" horiz-adv-x="730" d="M594 1536 L650 1536 L947 1803 L863 1803 L594 1536 Z M340 58 L150 58 L140 0 L582 0 L592 58 L402 58 L634 1376 L824 1376 L834 1434 L392 1434 L382 1376 L572 1376 L340 58 Z " />
<glyph glyph-name="Icircumflex" unicode="&#xce;" horiz-adv-x="692" d="M325 58 L135 58 L125 0 L567 0 L577 58 L387 58 L619 1376 L809 1376 L819 1434 L377 1434 L367 1376 L557 1376 L325 58 Z M697 1803 L629 1803 L371 1536 L438 1536 L660 1745 L806 1536 L863 1536 L697 1803 Z " />
<glyph glyph-name="Idieresis" unicode="&#xcf;" horiz-adv-x="650" d="M304 58 L114 58 L104 0 L546 0 L556 58 L366 58 L598 1376 L788 1376 L798 1434 L356 1434 L346 1376 L536 1376 L304 58 Z M384 1611 C378 1581 396 1556 429 1556 C467 1556 488 1581 494 1611 C499 1641 482 1666 448 1666 C413 1666 389 1641 384 1611 L384 1611 Z M724 1611 C718 1581 736 1556 769 1556 C807 1556 828 1581 834 1611 C839 1641 822 1666 788 1666 C753 1666 729 1641 724 1611 L724 1611 Z " />
<glyph glyph-name="Eth" unicode="&#xd0;" horiz-adv-x="1516" d="M582 1376 L471 745 L271 745 L261 688 L461 688 L350 58 L160 58 L150 0 L734 0 C1193 0 1475 300 1542 717 C1607 1122 1441 1434 986 1434 L402 1434 L392 1376 L582 1376 Z M644 1376 L976 1376 C1398 1376 1542 1094 1476 717 C1409 340 1166 58 744 58 L412 58 L523 688 L900 688 L910 745 L533 745 L644 1376 Z " />
<glyph glyph-name="Ntilde" unicode="&#xd1;" horiz-adv-x="1691" d="M572 1376 L340 58 L150 58 L140 0 L582 0 L592 58 L402 58 L631 1360 L1281 0 L1361 0 L1603 1376 L1793 1376 L1803 1434 L1361 1434 L1351 1376 L1541 1376 L1312 74 L662 1434 L392 1434 L382 1376 L572 1376 Z M1115 1612 C1141 1579 1176 1536 1241 1536 C1376 1536 1401 1675 1401 1675 L1347 1675 C1347 1675 1330 1585 1250 1585 C1197 1585 1170 1630 1150 1655 C1125 1688 1089 1731 1024 1731 C889 1731 864 1591 864 1591 L918 1591 C918 1591 936 1681 1016 1681 C1069 1681 1096 1636 1115 1612 L1115 1612 Z " />
<glyph glyph-name="Ograve" unicode="&#xd2;" horiz-adv-x="1652" d="M951 1803 L867 1803 L1071 1536 L1126 1536 L951 1803 Z M828 -20 C1287 -20 1588 309 1658 717 C1727 1120 1538 1454 1076 1454 C617 1454 316 1125 246 717 C177 314 366 -20 828 -20 L828 -20 Z M312 717 C378 1094 650 1396 1072 1396 C1494 1396 1659 1094 1592 717 C1526 340 1254 38 832 38 C410 38 245 340 312 717 L312 717 Z " />
<glyph glyph-name="Oacute" unicode="&#xd3;" horiz-adv-x="1652" d="M1060 1536 L1116 1536 L1413 1803 L1329 1803 L1060 1536 Z M828 -20 C1287 -20 1588 309 1658 717 C1727 1120 1538 1454 1076 1454 C617 1454 316 1125 246 717 C177 314 366 -20 828 -20 L828 -20 Z M312 717 C378 1094 650 1396 1072 1396 C1494 1396 1659 1094 1592 717 C1526 340 1254 38 832 38 C410 38 245 340 312 717 L312 717 Z " />
<glyph glyph-name="Ocircumflex" unicode="&#xd4;" horiz-adv-x="1652" d="M828 -20 C1287 -20 1588 309 1658 717 C1727 1120 1538 1454 1076 1454 C617 1454 316 1125 246 717 C177 314 366 -20 828 -20 L828 -20 Z M312 717 C378 1094 650 1396 1072 1396 C1494 1396 1659 1094 1592 717 C1526 340 1254 38 832 38 C410 38 245 340 312 717 L312 717 Z M1179 1803 L1111 1803 L853 1536 L920 1536 L1142 1745 L1288 1536 L1345 1536 L1179 1803 Z " />
<glyph glyph-name="Otilde" unicode="&#xd5;" horiz-adv-x="1652" d="M828 -20 C1287 -20 1588 309 1658 717 C1727 1120 1538 1454 1076 1454 C617 1454 316 1125 246 717 C177 314 366 -20 828 -20 L828 -20 Z M312 717 C378 1094 650 1396 1072 1396 C1494 1396 1659 1094 1592 717 C1526 340 1254 38 832 38 C410 38 245 340 312 717 L312 717 Z M1099 1612 C1125 1579 1160 1536 1225 1536 C1360 1536 1385 1675 1385 1675 L1331 1675 C1331 1675 1314 1585 1234 1585 C1181 1585 1154 1630 1134 1655 C1109 1688 1073 1731 1008 1731 C873 1731 848 1591 848 1591 L902 1591 C902 1591 920 1681 1000 1681 C1053 1681 1080 1636 1099 1612 L1099 1612 Z " />
<glyph glyph-name="Odieresis" unicode="&#xd6;" horiz-adv-x="1652" d="M828 -20 C1287 -20 1588 309 1658 717 C1727 1120 1538 1454 1076 1454 C617 1454 316 1125 246 717 C177 314 366 -20 828 -20 L828 -20 Z M312 717 C378 1094 650 1396 1072 1396 C1494 1396 1659 1094 1592 717 C1526 340 1254 38 832 38 C410 38 245 340 312 717 L312 717 Z M885 1611 C879 1581 897 1556 930 1556 C968 1556 989 1581 995 1611 C1000 1641 983 1666 949 1666 C914 1666 890 1641 885 1611 L885 1611 Z M1225 1611 C1219 1581 1237 1556 1270 1556 C1308 1556 1329 1581 1335 1611 C1340 1641 1323 1666 1289 1666 C1254 1666 1230 1641 1225 1611 L1225 1611 Z " />
<glyph glyph-name="multiply" unicode="&#xd7;" horiz-adv-x="1098" d="M665 630 L956 279 L1004 319 L713 670 L1129 1022 L1086 1069 L673 719 L381 1073 L332 1032 L625 678 L207 325 L251 279 L665 630 Z " />
<glyph glyph-name="Oslash" unicode="&#xd8;" horiz-adv-x="1652" d="M828 -20 C1287 -20 1588 309 1658 717 C1706 998 1628 1245 1420 1369 L1504 1495 L1435 1495 L1369 1396 C1288 1433 1190 1454 1076 1454 C617 1454 316 1125 246 717 C198 436 275 188 482 64 L399 -61 L469 -61 L534 37 C615 0 713 -20 828 -20 L828 -20 Z M1592 717 C1526 340 1254 38 832 38 C729 38 641 56 568 89 L1386 1318 C1573 1205 1638 979 1592 717 L1592 717 Z M312 717 C378 1094 650 1396 1072 1396 C1175 1396 1262 1378 1335 1345 L517 116 C331 229 265 455 312 717 L312 717 Z " />
<glyph glyph-name="Ugrave" unicode="&#xd9;" horiz-adv-x="1708" d="M982 1803 L898 1803 L1102 1536 L1157 1536 L982 1803 Z M1481 585 L1620 1376 L1810 1376 L1820 1434 L1378 1434 L1368 1376 L1558 1376 L1419 585 C1355 223 1142 37 860 37 C578 37 431 223 495 585 L634 1376 L824 1376 L834 1434 L392 1434 L382 1376 L572 1376 L433 585 C359 170 556 -20 856 -20 C1164 -20 1407 170 1481 585 L1481 585 Z " />
<glyph glyph-name="Uacute" unicode="&#xda;" horiz-adv-x="1708" d="M1078 1536 L1134 1536 L1431 1803 L1347 1803 L1078 1536 Z M1481 585 L1620 1376 L1810 1376 L1820 1434 L1378 1434 L1368 1376 L1558 1376 L1419 585 C1355 223 1142 37 860 37 C578 37 431 223 495 585 L634 1376 L824 1376 L834 1434 L392 1434 L382 1376 L572 1376 L433 585 C359 170 556 -20 856 -20 C1164 -20 1407 170 1481 585 L1481 585 Z " />
<glyph glyph-name="Ucircumflex" unicode="&#xdb;" horiz-adv-x="1708" d="M1481 585 L1620 1376 L1810 1376 L1820 1434 L1378 1434 L1368 1376 L1558 1376 L1419 585 C1355 223 1142 37 860 37 C578 37 431 223 495 585 L634 1376 L824 1376 L834 1434 L392 1434 L382 1376 L572 1376 L433 585 C359 170 556 -20 856 -20 C1164 -20 1407 170 1481 585 L1481 585 Z M1199 1803 L1131 1803 L873 1536 L940 1536 L1162 1745 L1308 1536 L1365 1536 L1199 1803 Z " />
<glyph glyph-name="Udieresis" unicode="&#xdc;" horiz-adv-x="1708" d="M1481 585 L1620 1376 L1810 1376 L1820 1434 L1378 1434 L1368 1376 L1558 1376 L1419 585 C1355 223 1142 37 860 37 C578 37 431 223 495 585 L634 1376 L824 1376 L834 1434 L392 1434 L382 1376 L572 1376 L433 585 C359 170 556 -20 856 -20 C1164 -20 1407 170 1481 585 L1481 585 Z M913 1611 C907 1581 925 1556 958 1556 C996 1556 1017 1581 1023 1611 C1028 1641 1011 1666 977 1666 C942 1666 918 1641 913 1611 L913 1611 Z M1253 1611 C1247 1581 1265 1556 1298 1556 C1336 1556 1357 1581 1363 1611 C1368 1641 1351 1666 1317 1666 C1282 1666 1258 1641 1253 1611 L1253 1611 Z " />
<glyph glyph-name="Yacute" unicode="&#xdd;" horiz-adv-x="1600" d="M1017 1536 L1073 1536 L1370 1803 L1286 1803 L1017 1536 Z M873 594 L779 58 L589 58 L579 0 L1021 0 L1031 58 L841 58 L935 594 L1588 1376 L1762 1376 L1772 1434 L1340 1434 L1330 1376 L1515 1376 L910 652 L560 1376 L754 1376 L764 1434 L332 1434 L322 1376 L496 1376 L873 594 Z " />
<glyph glyph-name="Thorn" unicode="&#xde;" horiz-adv-x="1148" d="M130 58 L120 0 L562 0 L572 58 L382 58 L432 342 L743 342 C994 342 1140 522 1175 721 C1210 922 1078 1102 877 1102 L566 1102 L614 1376 L804 1376 L814 1434 L372 1434 L362 1376 L552 1376 L320 58 L130 58 Z M867 1049 C1051 1049 1143 891 1113 721 C1083 553 956 395 752 395 L441 395 L556 1049 L867 1049 Z " />
<glyph glyph-name="germandbls" unicode="&#xdf;" horiz-adv-x="1382" d="M590 32 C654 -6 740 -20 847 -20 C1120 -20 1292 152 1329 377 C1361 571 1273 721 1092 752 C1209 776 1357 884 1391 1077 C1430 1300 1283 1454 1014 1454 C865 1454 580 1419 491 917 L340 58 L150 58 L140 0 L392 0 L553 917 C630 1353 865 1396 1010 1396 C1223 1396 1367 1294 1329 1081 C1300 915 1169 791 976 784 L817 784 L806 723 L965 723 C1221 723 1298 559 1267 381 C1233 190 1090 38 853 38 C766 38 681 54 602 98 L590 32 Z " />
<glyph glyph-name="agrave" unicode="&#xe0;" horiz-adv-x="1328" d="M606 1434 L522 1434 L726 1167 L781 1167 L606 1434 Z M1141 982 L1091 700 C1074 847 968 1002 741 1002 C443 1002 236 772 186 491 C137 210 273 -20 561 -20 C806 -20 942 123 1015 270 L968 0 L1208 0 L1217 54 L1035 54 L1189 928 L1371 928 L1381 982 L1141 982 Z M1054 491 C1012 254 840 34 570 34 C300 34 206 254 248 491 C290 728 462 948 732 948 C1002 948 1096 728 1054 491 L1054 491 Z " />
<glyph glyph-name="aacute" unicode="&#xe1;" horiz-adv-x="1328" d="M745 1167 L800 1167 L1098 1434 L1014 1434 L745 1167 Z M1141 982 L1091 700 C1074 847 968 1002 741 1002 C443 1002 236 772 186 491 C137 210 273 -20 561 -20 C806 -20 942 123 1015 270 L968 0 L1208 0 L1217 54 L1035 54 L1189 928 L1371 928 L1381 982 L1141 982 Z M1054 491 C1012 254 840 34 570 34 C300 34 206 254 248 491 C290 728 462 948 732 948 C1002 948 1096 728 1054 491 L1054 491 Z " />
<glyph glyph-name="acircumflex" unicode="&#xe2;" horiz-adv-x="1328" d="M869 1434 L801 1434 L543 1167 L610 1167 L832 1376 L978 1167 L1035 1167 L869 1434 Z M1141 982 L1091 700 C1074 847 968 1002 741 1002 C443 1002 236 772 186 491 C137 210 273 -20 561 -20 C806 -20 942 123 1015 270 L968 0 L1208 0 L1217 54 L1035 54 L1189 928 L1371 928 L1381 982 L1141 982 Z M1054 491 C1012 254 840 34 570 34 C300 34 206 254 248 491 C290 728 462 948 732 948 C1002 948 1096 728 1054 491 L1054 491 Z " />
<glyph glyph-name="atilde" unicode="&#xe3;" horiz-adv-x="1328" d="M790 1315 C816 1282 851 1239 916 1239 C1051 1239 1076 1378 1076 1378 L1022 1378 C1022 1378 1005 1288 925 1288 C872 1288 845 1333 825 1358 C800 1391 764 1434 699 1434 C564 1434 539 1294 539 1294 L593 1294 C593 1294 611 1384 691 1384 C744 1384 771 1339 790 1315 L790 1315 Z M1141 982 L1091 700 C1074 847 968 1002 741 1002 C443 1002 236 772 186 491 C137 210 273 -20 561 -20 C806 -20 942 123 1015 270 L968 0 L1208 0 L1217 54 L1035 54 L1189 928 L1371 928 L1381 982 L1141 982 Z M1054 491 C1012 254 840 34 570 34 C300 34 206 254 248 491 C290 728 462 948 732 948 C1002 948 1096 728 1054 491 L1054 491 Z " />
<glyph glyph-name="adieresis" unicode="&#xe4;" horiz-adv-x="1328" d="M572 1288 C566 1258 584 1233 617 1233 C655 1233 676 1258 682 1288 C687 1318 670 1343 636 1343 C601 1343 577 1318 572 1288 L572 1288 Z M912 1288 C906 1258 924 1233 957 1233 C995 1233 1016 1258 1022 1288 C1027 1318 1010 1343 976 1343 C941 1343 917 1318 912 1288 L912 1288 Z M1141 982 L1091 700 C1074 847 968 1002 741 1002 C443 1002 236 772 186 491 C137 210 273 -20 561 -20 C806 -20 942 123 1015 270 L968 0 L1208 0 L1217 54 L1035 54 L1189 928 L1371 928 L1381 982 L1141 982 Z M1054 491 C1012 254 840 34 570 34 C300 34 206 254 248 491 C290 728 462 948 732 948 C1002 948 1096 728 1054 491 L1054 491 Z " />
<glyph glyph-name="aring" unicode="&#xe5;" horiz-adv-x="1328" d="M645 1280 C630 1196 684 1126 772 1126 C872 1126 936 1190 953 1280 C969 1364 910 1434 826 1434 C726 1434 660 1364 645 1280 L645 1280 Z M686 1280 C697 1343 746 1395 819 1395 C892 1395 923 1343 912 1280 C901 1217 852 1167 779 1167 C706 1167 675 1217 686 1280 L686 1280 Z M1141 982 L1091 700 C1074 847 968 1002 741 1002 C443 1002 236 772 186 491 C137 210 273 -20 561 -20 C806 -20 942 123 1015 270 L968 0 L1208 0 L1217 54 L1035 54 L1189 928 L1371 928 L1381 982 L1141 982 Z M1054 491 C1012 254 840 34 570 34 C300 34 206 254 248 491 C290 728 462 948 732 948 C1002 948 1096 728 1054 491 L1054 491 Z " />
<glyph glyph-name="ae" unicode="&#xe6;" horiz-adv-x="1829" d="M1280 -20 C1493 -20 1588 30 1659 80 L1635 134 C1580 91 1483 34 1289 34 C1077 34 967 225 1012 490 L1788 490 C1846 821 1694 1002 1460 1002 C1278 1002 1126 893 1035 721 C1028 864 959 1002 722 1002 C581 1002 475 969 383 920 L403 863 C485 909 605 948 713 948 C898 948 1015 851 962 551 C722 634 236 627 175 279 C138 72 297 -20 477 -20 C675 -20 844 84 947 297 C976 104 1095 -20 1280 -20 L1280 -20 Z M239 279 C292 580 757 565 952 495 L946 462 C914 288 757 34 486 34 C308 34 213 133 239 279 L239 279 Z M1025 548 C1091 782 1254 948 1451 948 C1682 948 1754 766 1735 548 L1025 548 Z " />
<glyph glyph-name="ccedilla" unicode="&#xe7;" horiz-adv-x="1070" d="M595 34 C325 34 200 218 248 491 C296 763 487 948 757 948 C950 948 1026 873 1026 873 L1005 755 L1063 755 L1088 898 C1088 898 992 1002 766 1002 C453 1002 239 792 186 491 C135 204 268 1 541 -18 L459 -185 C564 -168 690 -172 661 -279 C625 -412 458 -391 386 -354 L355 -399 C462 -452 676 -462 720 -279 C749 -160 628 -123 544 -131 L597 -20 C720 -19 843 0 942 73 L915 125 C820 57 706 34 595 34 L595 34 Z " />
<glyph glyph-name="egrave" unicode="&#xe8;" horiz-adv-x="1097" d="M554 34 C317 34 211 204 243 464 L1078 464 C1144 835 976 1002 725 1002 C453 1002 239 792 186 491 C133 189 273 -20 545 -20 C754 -20 879 40 945 84 L914 131 C854 94 738 34 554 34 L554 34 Z M253 518 C312 776 487 948 716 948 C975 948 1058 776 1026 518 L253 518 Z M601 1434 L517 1434 L721 1167 L776 1167 L601 1434 Z " />
<glyph glyph-name="eacute" unicode="&#xe9;" horiz-adv-x="1097" d="M554 34 C317 34 211 204 243 464 L1078 464 C1144 835 976 1002 725 1002 C453 1002 239 792 186 491 C133 189 273 -20 545 -20 C754 -20 879 40 945 84 L914 131 C854 94 738 34 554 34 L554 34 Z M253 518 C312 776 487 948 716 948 C975 948 1058 776 1026 518 L253 518 Z M728 1167 L784 1167 L1081 1434 L997 1434 L728 1167 Z " />
<glyph glyph-name="ecircumflex" unicode="&#xea;" horiz-adv-x="1097" d="M554 34 C317 34 211 204 243 464 L1078 464 C1144 835 976 1002 725 1002 C453 1002 239 792 186 491 C133 189 273 -20 545 -20 C754 -20 879 40 945 84 L914 131 C854 94 738 34 554 34 L554 34 Z M253 518 C312 776 487 948 716 948 C975 948 1058 776 1026 518 L253 518 Z M833 1434 L765 1434 L507 1167 L574 1167 L796 1376 L942 1167 L999 1167 L833 1434 Z " />
<glyph glyph-name="edieresis" unicode="&#xeb;" horiz-adv-x="1097" d="M554 34 C317 34 211 204 243 464 L1078 464 C1144 835 976 1002 725 1002 C453 1002 239 792 186 491 C133 189 273 -20 545 -20 C754 -20 879 40 945 84 L914 131 C854 94 738 34 554 34 L554 34 Z M253 518 C312 776 487 948 716 948 C975 948 1058 776 1026 518 L253 518 Z M550 1288 C544 1258 562 1233 595 1233 C633 1233 654 1258 660 1288 C665 1318 648 1343 614 1343 C579 1343 555 1318 550 1288 L550 1288 Z M890 1288 C884 1258 902 1233 935 1233 C973 1233 994 1258 1000 1288 C1005 1318 988 1343 954 1343 C919 1343 895 1318 890 1288 L890 1288 Z " />
<glyph glyph-name="igrave" unicode="&#xec;" horiz-adv-x="680" d="M416 1434 L332 1434 L536 1167 L591 1167 L416 1434 Z M483 928 L329 54 L147 54 L138 0 L560 0 L569 54 L387 54 L551 982 L311 982 L301 928 L483 928 Z " />
<glyph glyph-name="iacute" unicode="&#xed;" horiz-adv-x="670" d="M489 1167 L545 1167 L842 1434 L758 1434 L489 1167 Z M465 928 L311 54 L129 54 L120 0 L542 0 L551 54 L369 54 L533 982 L293 982 L283 928 L465 928 Z " />
<glyph glyph-name="icircumflex" unicode="&#xee;" horiz-adv-x="652" d="M461 928 L307 54 L125 54 L116 0 L538 0 L547 54 L365 54 L529 982 L289 982 L279 928 L461 928 Z M605 1434 L537 1434 L279 1167 L346 1167 L568 1376 L714 1167 L771 1167 L605 1434 Z " />
<glyph glyph-name="idieresis" unicode="&#xef;" horiz-adv-x="610" d="M440 928 L286 54 L104 54 L95 0 L517 0 L526 54 L344 54 L508 982 L268 982 L258 928 L440 928 Z M307 1288 C301 1258 319 1233 352 1233 C390 1233 411 1258 417 1288 C422 1318 405 1343 371 1343 C336 1343 312 1318 307 1288 L307 1288 Z M647 1288 C641 1258 659 1233 692 1233 C730 1233 751 1258 757 1288 C762 1318 745 1343 711 1343 C676 1343 652 1318 647 1288 L647 1288 Z " />
<glyph glyph-name="eth" unicode="&#xf0;" horiz-adv-x="1154" d="M714 1507 C834 1488 933 1430 980 1355 L808 1245 L837 1200 L1009 1310 C1117 1152 1143 921 1094 665 C1085 855 966 1002 739 1002 C441 1002 236 772 186 491 C137 210 271 -20 559 -20 C954 -20 1085 374 1114 491 C1218 922 1182 1129 1062 1343 L1234 1454 L1205 1499 L1035 1390 C963 1488 866 1541 738 1565 L714 1507 Z M248 491 C290 728 460 948 730 948 C1002 948 1096 729 1054 491 C1012 253 840 34 568 34 C298 34 206 253 248 491 L248 491 Z " />
<glyph glyph-name="ntilde" unicode="&#xf1;" horiz-adv-x="1408" d="M533 982 L293 982 L283 928 L465 928 L311 54 L129 54 L120 0 L542 0 L551 54 L369 54 L451 520 C495 771 615 948 871 948 C1127 948 1183 771 1139 520 L1048 0 L1288 0 L1297 54 L1115 54 L1197 520 C1249 812 1156 1002 880 1002 C652 1002 544 862 494 765 L533 982 Z M922 1315 C948 1282 983 1239 1048 1239 C1183 1239 1208 1378 1208 1378 L1154 1378 C1154 1378 1137 1288 1057 1288 C1004 1288 977 1333 957 1358 C932 1391 896 1434 831 1434 C696 1434 671 1294 671 1294 L725 1294 C725 1294 743 1384 823 1384 C876 1384 903 1339 922 1315 L922 1315 Z " />
<glyph glyph-name="ograve" unicode="&#xf2;" horiz-adv-x="1180" d="M186 491 C133 189 283 -20 586 -20 C908 -20 1113 190 1166 491 C1219 793 1068 1002 766 1002 C453 1002 239 792 186 491 L186 491 Z M248 491 C296 763 487 948 757 948 C1036 948 1152 763 1104 491 C1056 218 864 34 595 34 C325 34 200 218 248 491 L248 491 Z M646 1434 L562 1434 L766 1167 L821 1167 L646 1434 Z " />
<glyph glyph-name="oacute" unicode="&#xf3;" horiz-adv-x="1180" d="M186 491 C133 189 283 -20 586 -20 C908 -20 1113 190 1166 491 C1219 793 1068 1002 766 1002 C453 1002 239 792 186 491 L186 491 Z M248 491 C296 763 487 948 757 948 C1036 948 1152 763 1104 491 C1056 218 864 34 595 34 C325 34 200 218 248 491 L248 491 Z M764 1167 L820 1167 L1117 1434 L1033 1434 L764 1167 Z " />
<glyph glyph-name="ocircumflex" unicode="&#xf4;" horiz-adv-x="1180" d="M186 491 C133 189 283 -20 586 -20 C908 -20 1113 190 1166 491 C1219 793 1068 1002 766 1002 C453 1002 239 792 186 491 L186 491 Z M248 491 C296 763 487 948 757 948 C1036 948 1152 763 1104 491 C1056 218 864 34 595 34 C325 34 200 218 248 491 L248 491 Z M875 1434 L807 1434 L549 1167 L616 1167 L838 1376 L984 1167 L1041 1167 L875 1434 Z " />
<glyph glyph-name="otilde" unicode="&#xf5;" horiz-adv-x="1180" d="M186 491 C133 189 283 -20 586 -20 C908 -20 1113 190 1166 491 C1219 793 1068 1002 766 1002 C453 1002 239 792 186 491 L186 491 Z M248 491 C296 763 487 948 757 948 C1036 948 1152 763 1104 491 C1056 218 864 34 595 34 C325 34 200 218 248 491 L248 491 Z M808 1315 C834 1282 869 1239 934 1239 C1069 1239 1094 1378 1094 1378 L1040 1378 C1040 1378 1023 1288 943 1288 C890 1288 863 1333 843 1358 C818 1391 782 1434 717 1434 C582 1434 557 1294 557 1294 L611 1294 C611 1294 629 1384 709 1384 C762 1384 789 1339 808 1315 L808 1315 Z " />
<glyph glyph-name="odieresis" unicode="&#xf6;" horiz-adv-x="1180" d="M186 491 C133 189 283 -20 586 -20 C908 -20 1113 190 1166 491 C1219 793 1068 1002 766 1002 C453 1002 239 792 186 491 L186 491 Z M248 491 C296 763 487 948 757 948 C1036 948 1152 763 1104 491 C1056 218 864 34 595 34 C325 34 200 218 248 491 L248 491 Z M587 1268 C581 1238 599 1213 632 1213 C670 1213 691 1238 697 1268 C702 1298 685 1323 651 1323 C616 1323 592 1298 587 1268 L587 1268 Z M927 1268 C921 1238 939 1213 972 1213 C1010 1213 1031 1238 1037 1268 C1042 1298 1025 1323 991 1323 C956 1323 932 1298 927 1268 L927 1268 Z " />
<glyph glyph-name="divide" unicode="&#xf7;" horiz-adv-x="917" d="M228 646 L916 646 L927 704 L239 704 L228 646 Z M477 449 C471 415 493 388 527 388 C565 388 593 415 599 449 C605 483 582 510 548 510 C511 510 483 483 477 449 L477 449 Z M556 901 C550 867 573 840 607 840 C645 840 672 867 678 901 C684 935 662 962 628 962 C591 962 562 935 556 901 L556 901 Z " />
<glyph glyph-name="oslash" unicode="&#xf8;" horiz-adv-x="1220" d="M206 491 C171 290 225 130 355 46 L296 -41 L371 -41 L410 16 C465 -7 531 -20 606 -20 C928 -20 1133 190 1186 491 C1221 692 1166 853 1035 937 L1094 1024 L1018 1024 L979 966 C924 989 859 1002 786 1002 C473 1002 259 792 206 491 L206 491 Z M615 34 C549 34 491 45 443 65 L1002 889 C1115 814 1156 672 1124 491 C1076 218 884 34 615 34 L615 34 Z M268 491 C316 763 507 948 777 948 C842 948 899 937 946 918 L388 95 C279 171 236 312 268 491 L268 491 Z " />
<glyph glyph-name="ugrave" unicode="&#xf9;" horiz-adv-x="1408" d="M736 1434 L652 1434 L856 1167 L911 1167 L736 1434 Z M1279 982 L1038 982 L1029 928 L1211 928 L1129 462 C1085 211 965 34 709 34 C453 34 397 211 441 462 L532 982 L292 982 L283 928 L465 928 L383 462 C331 170 424 -20 706 -20 C934 -20 1036 120 1086 217 L1047 0 L1287 0 L1297 54 L1115 54 L1279 982 Z " />
<glyph glyph-name="uacute" unicode="&#xfa;" horiz-adv-x="1408" d="M855 1167 L911 1167 L1208 1434 L1124 1434 L855 1167 Z M1279 982 L1038 982 L1029 928 L1211 928 L1129 462 C1085 211 965 34 709 34 C453 34 397 211 441 462 L532 982 L292 982 L283 928 L465 928 L383 462 C331 170 424 -20 706 -20 C934 -20 1036 120 1086 217 L1047 0 L1287 0 L1297 54 L1115 54 L1279 982 Z " />
<glyph glyph-name="ucircumflex" unicode="&#xfb;" horiz-adv-x="1408" d="M1279 982 L1038 982 L1029 928 L1211 928 L1129 462 C1085 211 965 34 709 34 C453 34 397 211 441 462 L532 982 L292 982 L283 928 L465 928 L383 462 C331 170 424 -20 706 -20 C934 -20 1036 120 1086 217 L1047 0 L1287 0 L1297 54 L1115 54 L1279 982 Z M988 1434 L920 1434 L662 1167 L729 1167 L951 1376 L1097 1167 L1154 1167 L988 1434 Z " />
<glyph glyph-name="udieresis" unicode="&#xfc;" horiz-adv-x="1408" d="M1279 982 L1038 982 L1029 928 L1211 928 L1129 462 C1085 211 965 34 709 34 C453 34 397 211 441 462 L532 982 L292 982 L283 928 L465 928 L383 462 C331 170 424 -20 706 -20 C934 -20 1036 120 1086 217 L1047 0 L1287 0 L1297 54 L1115 54 L1279 982 Z M705 1288 C699 1258 717 1233 750 1233 C788 1233 809 1258 815 1288 C820 1318 803 1343 769 1343 C734 1343 710 1318 705 1288 L705 1288 Z M1045 1288 C1039 1258 1057 1233 1090 1233 C1128 1233 1149 1258 1155 1288 C1160 1318 1143 1343 1109 1343 C1074 1343 1050 1318 1045 1288 L1045 1288 Z " />
<glyph glyph-name="yacute" unicode="&#xfd;" horiz-adv-x="1410" d="M868 1167 L924 1167 L1221 1434 L1137 1434 L868 1167 Z M705 928 L715 982 L293 982 L283 928 L458 928 L675 0 L510 -276 C452 -368 374 -478 260 -478 L175 -478 L166 -532 L258 -532 C400 -532 483 -426 562 -294 L1278 928 L1453 928 L1463 982 L1041 982 L1031 928 L1208 928 L715 70 L523 928 L705 928 Z " />
<glyph glyph-name="thorn" unicode="&#xfe;" horiz-adv-x="1328" d="M409 282 C426 135 524 -20 759 -20 C1087 -20 1265 210 1314 491 C1363 772 1227 1002 939 1002 C694 1002 553 853 484 706 L627 1516 L387 1516 L377 1462 L559 1462 L217 -478 L35 -478 L26 -532 L448 -532 L457 -478 L275 -478 L409 282 Z M446 491 C488 728 660 948 930 948 C1200 948 1294 728 1252 491 C1210 254 1048 34 768 34 C498 34 404 254 446 491 L446 491 Z " />
<glyph glyph-name="ydieresis" unicode="&#xff;" horiz-adv-x="1410" d="M705 928 L715 982 L293 982 L283 928 L458 928 L675 0 L510 -276 C452 -368 374 -478 260 -478 L175 -478 L166 -532 L258 -532 C400 -532 483 -426 562 -294 L1278 928 L1453 928 L1463 982 L1041 982 L1031 928 L1208 928 L715 70 L523 928 L705 928 Z M707 1288 C701 1258 719 1233 752 1233 C790 1233 811 1258 817 1288 C822 1318 805 1343 771 1343 C736 1343 712 1318 707 1288 L707 1288 Z M1047 1288 C1041 1258 1059 1233 1092 1233 C1130 1233 1151 1258 1157 1288 C1162 1318 1145 1343 1111 1343 C1076 1343 1052 1318 1047 1288 L1047 1288 Z " />
<glyph glyph-name="Amacron" unicode="&#x100;" horiz-adv-x="1737" d="M813 1555 L1473 1555 L1482 1609 L822 1609 L813 1555 Z M1225 0 L1657 0 L1667 58 L1492 58 L1154 1434 L874 1434 L864 1376 L1054 1376 L265 58 L90 58 L80 0 L512 0 L522 58 L336 58 L596 495 L1321 495 L1427 58 L1235 58 L1225 0 Z M1111 1360 L1307 553 L631 553 L1111 1360 Z " />
<glyph glyph-name="amacron" unicode="&#x101;" horiz-adv-x="1328" d="M493 1380 L1153 1380 L1162 1434 L502 1434 L493 1380 Z M1141 982 L1091 700 C1074 847 968 1002 741 1002 C443 1002 236 772 186 491 C137 210 273 -20 561 -20 C806 -20 942 123 1015 270 L968 0 L1208 0 L1217 54 L1035 54 L1189 928 L1371 928 L1381 982 L1141 982 Z M1054 491 C1012 254 840 34 570 34 C300 34 206 254 248 491 C290 728 462 948 732 948 C1002 948 1096 728 1054 491 L1054 491 Z " />
<glyph glyph-name="Abreve" unicode="&#x102;" horiz-adv-x="1737" d="M1225 0 L1657 0 L1667 58 L1492 58 L1154 1434 L874 1434 L864 1376 L1054 1376 L265 58 L90 58 L80 0 L512 0 L522 58 L336 58 L596 495 L1321 495 L1427 58 L1235 58 L1225 0 Z M1111 1360 L1307 553 L631 553 L1111 1360 Z M1136 1536 C1381 1536 1466 1740 1466 1740 L1407 1740 C1333 1625 1240 1590 1146 1590 C1050 1590 970 1625 934 1740 L878 1740 C878 1740 907 1536 1136 1536 L1136 1536 Z " />
<glyph glyph-name="abreve" unicode="&#x103;" horiz-adv-x="1328" d="M800 1230 C1045 1230 1130 1434 1130 1434 L1071 1434 C997 1319 904 1284 810 1284 C714 1284 634 1319 598 1434 L542 1434 C542 1434 571 1230 800 1230 L800 1230 Z M1141 982 L1091 700 C1074 847 968 1002 741 1002 C443 1002 236 772 186 491 C137 210 273 -20 561 -20 C806 -20 942 123 1015 270 L968 0 L1208 0 L1217 54 L1035 54 L1189 928 L1371 928 L1381 982 L1141 982 Z M1054 491 C1012 254 840 34 570 34 C300 34 206 254 248 491 C290 728 462 948 732 948 C1002 948 1096 728 1054 491 L1054 491 Z " />
<glyph glyph-name="Aogonek" unicode="&#x104;" horiz-adv-x="1737" d="M1657 0 L1667 58 L1492 58 L1154 1434 L874 1434 L864 1376 L1054 1376 L265 58 L90 58 L80 0 L512 0 L522 58 L336 58 L596 495 L1321 495 L1427 58 L1235 58 L1225 0 L1598 0 C1581 -3 1407 -38 1374 -205 C1343 -360 1501 -393 1559 -393 L1570 -334 C1570 -334 1409 -340 1428 -205 C1452 -32 1657 0 1657 0 L1657 0 Z M1111 1360 L1307 553 L631 553 L1111 1360 Z " />
<glyph glyph-name="aogonek" unicode="&#x105;" horiz-adv-x="1328" d="M1141 982 L1091 700 C1074 847 968 1002 741 1002 C443 1002 236 772 186 491 C137 210 273 -20 561 -20 C806 -20 942 123 1015 270 L968 0 L1149 0 C1132 -3 958 -38 925 -205 C894 -360 1052 -393 1110 -393 L1121 -334 C1121 -334 960 -340 979 -205 C1002 -36 1197 -1 1208 0 L1217 54 L1035 54 L1189 928 L1371 928 L1381 982 L1141 982 Z M1054 491 C1012 254 840 34 570 34 C300 34 206 254 248 491 C290 728 462 948 732 948 C1002 948 1096 728 1054 491 L1054 491 Z " />
<glyph glyph-name="Cacute" unicode="&#x106;" horiz-adv-x="1369" d="M1064 1536 L1120 1536 L1417 1803 L1333 1803 L1064 1536 Z M1076 1454 C617 1454 316 1125 246 717 C177 314 366 -20 828 -20 C1060 -20 1183 42 1242 79 L1210 130 C1137 92 1024 38 832 38 C410 38 245 340 312 717 C378 1094 650 1396 1072 1396 C1270 1396 1401 1329 1401 1329 L1375 1185 L1437 1185 L1469 1364 C1469 1364 1342 1454 1076 1454 L1076 1454 Z " />
<glyph glyph-name="cacute" unicode="&#x107;" horiz-adv-x="1070" d="M768 1167 L824 1167 L1121 1434 L1037 1434 L768 1167 Z M595 34 C325 34 200 218 248 491 C296 763 487 948 757 948 C950 948 1026 873 1026 873 L1005 755 L1063 755 L1088 898 C1088 898 992 1002 766 1002 C453 1002 239 792 186 491 C133 189 283 -20 586 -20 C713 -20 840 -2 942 73 L915 125 C820 57 706 34 595 34 L595 34 Z " />
<glyph glyph-name="Ccircumflex" unicode="&#x108;" horiz-adv-x="1369" d="M1176 1803 L1108 1803 L850 1536 L917 1536 L1139 1745 L1285 1536 L1342 1536 L1176 1803 Z M1076 1454 C617 1454 316 1125 246 717 C177 314 366 -20 828 -20 C1060 -20 1183 42 1242 79 L1210 130 C1137 92 1024 38 832 38 C410 38 245 340 312 717 C378 1094 650 1396 1072 1396 C1270 1396 1401 1329 1401 1329 L1375 1185 L1437 1185 L1469 1364 C1469 1364 1342 1454 1076 1454 L1076 1454 Z " />
<glyph glyph-name="ccircumflex" unicode="&#x109;" horiz-adv-x="1070" d="M875 1434 L807 1434 L549 1167 L616 1167 L838 1376 L984 1167 L1041 1167 L875 1434 Z M595 34 C325 34 200 218 248 491 C296 763 487 948 757 948 C950 948 1026 873 1026 873 L1005 755 L1063 755 L1088 898 C1088 898 992 1002 766 1002 C453 1002 239 792 186 491 C133 189 283 -20 586 -20 C713 -20 840 -2 942 73 L915 125 C820 57 706 34 595 34 L595 34 Z " />
<glyph glyph-name="Cdotaccent" unicode="&#x10a;" horiz-adv-x="1369" d="M1055 1611 C1049 1581 1067 1556 1100 1556 C1138 1556 1159 1581 1165 1611 C1170 1641 1153 1666 1119 1666 C1084 1666 1060 1641 1055 1611 L1055 1611 Z M1076 1454 C617 1454 316 1125 246 717 C177 314 366 -20 828 -20 C1060 -20 1183 42 1242 79 L1210 130 C1137 92 1024 38 832 38 C410 38 245 340 312 717 C378 1094 650 1396 1072 1396 C1270 1396 1401 1329 1401 1329 L1375 1185 L1437 1185 L1469 1364 C1469 1364 1342 1454 1076 1454 L1076 1454 Z " />
<glyph glyph-name="cdotaccent" unicode="&#x10b;" horiz-adv-x="1070" d="M762 1288 C756 1258 774 1233 807 1233 C845 1233 866 1258 872 1288 C877 1318 860 1343 826 1343 C791 1343 767 1318 762 1288 L762 1288 Z M595 34 C325 34 200 218 248 491 C296 763 487 948 757 948 C950 948 1026 873 1026 873 L1005 755 L1063 755 L1088 898 C1088 898 992 1002 766 1002 C453 1002 239 792 186 491 C133 189 283 -20 586 -20 C713 -20 840 -2 942 73 L915 125 C820 57 706 34 595 34 L595 34 Z " />
<glyph glyph-name="Ccaron" unicode="&#x10c;" horiz-adv-x="1369" d="M1054 1536 L1122 1536 L1380 1803 L1313 1803 L1091 1594 L945 1803 L888 1803 L1054 1536 Z M1076 1454 C617 1454 316 1125 246 717 C177 314 366 -20 828 -20 C1060 -20 1183 42 1242 79 L1210 130 C1137 92 1024 38 832 38 C410 38 245 340 312 717 C378 1094 650 1396 1072 1396 C1270 1396 1401 1329 1401 1329 L1375 1185 L1437 1185 L1469 1364 C1469 1364 1342 1454 1076 1454 L1076 1454 Z " />
<glyph glyph-name="ccaron" unicode="&#x10d;" horiz-adv-x="1070" d="M752 1167 L820 1167 L1078 1434 L1011 1434 L789 1225 L643 1434 L586 1434 L752 1167 Z M595 34 C325 34 200 218 248 491 C296 763 487 948 757 948 C950 948 1026 873 1026 873 L1005 755 L1063 755 L1088 898 C1088 898 992 1002 766 1002 C453 1002 239 792 186 491 C133 189 283 -20 586 -20 C713 -20 840 -2 942 73 L915 125 C820 57 706 34 595 34 L595 34 Z " />
<glyph glyph-name="Dcaron" unicode="&#x10e;" horiz-adv-x="1506" d="M952 1536 L1020 1536 L1278 1803 L1211 1803 L989 1594 L843 1803 L786 1803 L952 1536 Z M572 1376 L340 58 L150 58 L140 0 L724 0 C1183 0 1465 300 1532 717 C1597 1122 1431 1434 976 1434 L392 1434 L382 1376 L572 1376 Z M634 1376 L966 1376 C1388 1376 1532 1094 1466 717 C1399 340 1156 58 734 58 L402 58 L634 1376 Z " />
<glyph glyph-name="dcaron" unicode="&#x10f;" horiz-adv-x="1167" d="M1208 0 L1217 54 L1035 54 L1293 1516 L1053 1516 L1043 1462 L1225 1462 L1091 700 C1074 847 968 1002 741 1002 C443 1002 236 772 186 491 C137 210 273 -20 561 -20 C806 -20 942 123 1015 270 L968 0 L1208 0 Z M1054 491 C1012 254 840 34 570 34 C300 34 206 254 248 491 C290 728 462 948 732 948 C1002 948 1096 728 1054 491 L1054 491 Z M1286 1147 L1342 1147 L1515 1516 L1431 1516 L1286 1147 Z " />
<glyph glyph-name="Dcroat" unicode="&#x110;" horiz-adv-x="1516" d="M582 1376 L471 745 L271 745 L261 688 L461 688 L350 58 L160 58 L150 0 L734 0 C1193 0 1475 300 1542 717 C1607 1122 1441 1434 986 1434 L402 1434 L392 1376 L582 1376 Z M644 1376 L976 1376 C1398 1376 1542 1094 1476 717 C1409 340 1166 58 744 58 L412 58 L523 688 L900 688 L910 745 L533 745 L644 1376 Z " />
<glyph glyph-name="dcroat" unicode="&#x111;" horiz-adv-x="1324" d="M968 0 L1208 0 L1217 54 L1035 54 L1239 1209 L1457 1209 L1466 1262 L1248 1262 L1293 1516 L1053 1516 L1043 1462 L1225 1462 L1190 1262 L879 1262 L870 1209 L1180 1209 L1091 700 C1074 847 968 1002 741 1002 C443 1002 236 772 186 491 C137 210 273 -20 561 -20 C806 -20 942 123 1015 270 L968 0 Z M1054 491 C1012 254 840 34 570 34 C300 34 206 254 248 491 C290 728 462 948 732 948 C1002 948 1096 728 1054 491 L1054 491 Z " />
<glyph glyph-name="Emacron" unicode="&#x112;" horiz-adv-x="1390" d="M664 1555 L1324 1555 L1333 1609 L673 1609 L664 1555 Z M1387 1186 L1449 1186 L1492 1434 L392 1434 L382 1376 L572 1376 L340 58 L150 58 L140 0 L1250 0 L1285 200 L1223 200 L1198 58 L402 58 L516 705 L1224 705 L1234 763 L526 763 L634 1376 L1420 1376 L1387 1186 Z " />
<glyph glyph-name="emacron" unicode="&#x113;" horiz-adv-x="1097" d="M554 34 C317 34 211 204 243 464 L1078 464 C1144 835 976 1002 725 1002 C453 1002 239 792 186 491 C133 189 273 -20 545 -20 C754 -20 879 40 945 84 L914 131 C854 94 738 34 554 34 L554 34 Z M253 518 C312 776 487 948 716 948 C975 948 1058 776 1026 518 L253 518 Z M462 1380 L1122 1380 L1131 1434 L471 1434 L462 1380 Z " />
<glyph glyph-name="Ebreve" unicode="&#x114;" horiz-adv-x="1390" d="M1387 1186 L1449 1186 L1492 1434 L392 1434 L382 1376 L572 1376 L340 58 L150 58 L140 0 L1250 0 L1285 200 L1223 200 L1198 58 L402 58 L516 705 L1224 705 L1234 763 L526 763 L634 1376 L1420 1376 L1387 1186 Z M982 1536 C1227 1536 1312 1740 1312 1740 L1253 1740 C1179 1625 1086 1590 992 1590 C896 1590 816 1625 780 1740 L724 1740 C724 1740 753 1536 982 1536 L982 1536 Z " />
<glyph glyph-name="ebreve" unicode="&#x115;" horiz-adv-x="1097" d="M554 34 C317 34 211 204 243 464 L1078 464 C1144 835 976 1002 725 1002 C453 1002 239 792 186 491 C133 189 273 -20 545 -20 C754 -20 879 40 945 84 L914 131 C854 94 738 34 554 34 L554 34 Z M253 518 C312 776 487 948 716 948 C975 948 1058 776 1026 518 L253 518 Z M764 1230 C1009 1230 1094 1434 1094 1434 L1035 1434 C961 1319 868 1284 774 1284 C678 1284 598 1319 562 1434 L506 1434 C506 1434 535 1230 764 1230 L764 1230 Z " />
<glyph glyph-name="Edotaccent" unicode="&#x116;" horiz-adv-x="1390" d="M1387 1186 L1449 1186 L1492 1434 L392 1434 L382 1376 L572 1376 L340 58 L150 58 L140 0 L1250 0 L1285 200 L1223 200 L1198 58 L402 58 L516 705 L1224 705 L1234 763 L526 763 L634 1376 L1420 1376 L1387 1186 Z M949 1611 C943 1581 961 1556 994 1556 C1032 1556 1053 1581 1059 1611 C1064 1641 1047 1666 1013 1666 C978 1666 954 1641 949 1611 L949 1611 Z " />
<glyph glyph-name="edotaccent" unicode="&#x117;" horiz-adv-x="1097" d="M554 34 C317 34 211 204 243 464 L1078 464 C1144 835 976 1002 725 1002 C453 1002 239 792 186 491 C133 189 273 -20 545 -20 C754 -20 879 40 945 84 L914 131 C854 94 738 34 554 34 L554 34 Z M253 518 C312 776 487 948 716 948 C975 948 1058 776 1026 518 L253 518 Z M720 1288 C714 1258 732 1233 765 1233 C803 1233 824 1258 830 1288 C835 1318 818 1343 784 1343 C749 1343 725 1318 720 1288 L720 1288 Z " />
<glyph glyph-name="Eogonek" unicode="&#x118;" horiz-adv-x="1390" d="M1387 1186 L1449 1186 L1492 1434 L392 1434 L382 1376 L572 1376 L340 58 L150 58 L140 0 L1191 0 C1174 -3 1000 -38 967 -205 C936 -360 1094 -393 1152 -393 L1163 -334 C1163 -334 1002 -340 1021 -205 C1045 -32 1250 0 1250 0 L1285 200 L1223 200 L1198 58 L402 58 L516 705 L1224 705 L1234 763 L526 763 L634 1376 L1420 1376 L1387 1186 Z " />
<glyph glyph-name="eogonek" unicode="&#x119;" horiz-adv-x="1097" d="M554 34 C317 34 211 204 243 464 L1078 464 C1144 835 976 1002 725 1002 C453 1002 239 792 186 491 C133 189 273 -20 545 -20 C572 -20 598 -19 622 -17 C563 -40 478 -93 456 -205 C425 -360 583 -393 641 -393 L652 -334 C652 -334 491 -340 510 -205 C529 -68 660 -19 715 -5 C825 15 899 53 945 84 L914 131 C854 94 738 34 554 34 L554 34 Z M253 518 C312 776 487 948 716 948 C975 948 1058 776 1026 518 L253 518 Z " />
<glyph glyph-name="Ecaron" unicode="&#x11a;" horiz-adv-x="1390" d="M1387 1186 L1449 1186 L1492 1434 L392 1434 L382 1376 L572 1376 L340 58 L150 58 L140 0 L1250 0 L1285 200 L1223 200 L1198 58 L402 58 L516 705 L1224 705 L1234 763 L526 763 L634 1376 L1420 1376 L1387 1186 Z M966 1536 L1034 1536 L1292 1803 L1225 1803 L1003 1594 L857 1803 L800 1803 L966 1536 Z " />
<glyph glyph-name="ecaron" unicode="&#x11b;" horiz-adv-x="1097" d="M554 34 C317 34 211 204 243 464 L1078 464 C1144 835 976 1002 725 1002 C453 1002 239 792 186 491 C133 189 273 -20 545 -20 C754 -20 879 40 945 84 L914 131 C854 94 738 34 554 34 L554 34 Z M253 518 C312 776 487 948 716 948 C975 948 1058 776 1026 518 L253 518 Z M1055 1434 L988 1434 L763 1225 L611 1434 L553 1434 L725 1167 L793 1167 L1055 1434 Z " />
<glyph glyph-name="Gcircumflex" unicode="&#x11c;" horiz-adv-x="1460" d="M1176 1803 L1108 1803 L850 1536 L917 1536 L1139 1745 L1285 1536 L1342 1536 L1176 1803 Z M1072 1396 C1332 1396 1469 1312 1469 1312 L1446 1185 L1508 1185 L1536 1345 C1536 1345 1360 1454 1076 1454 C617 1454 316 1125 246 717 C177 313 367 -20 826 -20 C1020 -20 1195 33 1344 139 L1452 754 L995 754 L985 696 L1380 696 L1289 176 C1159 88 1010 38 832 38 C410 38 245 340 312 717 C378 1094 650 1396 1072 1396 L1072 1396 Z " />
<glyph glyph-name="gcircumflex" unicode="&#x11d;" horiz-adv-x="1308" d="M1121 982 L1071 700 C1054 847 948 1002 721 1002 C423 1002 216 772 166 491 C117 210 253 -20 541 -20 C786 -20 922 123 995 270 L948 0 C887 -341 734 -478 460 -478 C334 -478 225 -438 148 -378 L115 -427 C198 -494 321 -532 451 -532 C717 -532 929 -435 1006 0 L1169 928 L1351 928 L1361 982 L1121 982 Z M1034 491 C992 254 820 34 550 34 C280 34 186 254 228 491 C270 728 442 948 712 948 C982 948 1076 728 1034 491 L1034 491 Z M827 1434 L759 1434 L501 1167 L568 1167 L790 1376 L936 1167 L993 1167 L827 1434 Z " />
<glyph glyph-name="Gbreve" unicode="&#x11e;" horiz-adv-x="1460" d="M1092 1536 C1337 1536 1422 1740 1422 1740 L1363 1740 C1289 1625 1196 1590 1102 1590 C1006 1590 926 1625 890 1740 L834 1740 C834 1740 863 1536 1092 1536 L1092 1536 Z M1072 1396 C1332 1396 1469 1312 1469 1312 L1446 1185 L1508 1185 L1536 1345 C1536 1345 1360 1454 1076 1454 C617 1454 316 1125 246 717 C177 313 367 -20 826 -20 C1020 -20 1195 33 1344 139 L1452 754 L995 754 L985 696 L1380 696 L1289 176 C1159 88 1010 38 832 38 C410 38 245 340 312 717 C378 1094 650 1396 1072 1396 L1072 1396 Z " />
<glyph glyph-name="gbreve" unicode="&#x11f;" horiz-adv-x="1328" d="M1141 982 L1091 700 C1074 847 968 1002 741 1002 C443 1002 236 772 186 491 C137 210 273 -20 561 -20 C806 -20 942 123 1015 270 L968 0 C907 -341 754 -478 480 -478 C354 -478 245 -438 168 -378 L135 -427 C218 -494 341 -532 471 -532 C737 -532 949 -435 1026 0 L1189 928 L1371 928 L1381 982 L1141 982 Z M1054 491 C1012 254 840 34 570 34 C300 34 206 254 248 491 C290 728 462 948 732 948 C1002 948 1096 728 1054 491 L1054 491 Z M780 1230 C1025 1230 1110 1434 1110 1434 L1051 1434 C977 1319 884 1284 790 1284 C694 1284 614 1319 578 1434 L522 1434 C522 1434 551 1230 780 1230 L780 1230 Z " />
<glyph glyph-name="Gdotaccent" unicode="&#x120;" horiz-adv-x="1460" d="M1055 1611 C1049 1581 1067 1556 1100 1556 C1138 1556 1159 1581 1165 1611 C1170 1641 1153 1666 1119 1666 C1084 1666 1060 1641 1055 1611 L1055 1611 Z M1072 1396 C1332 1396 1469 1312 1469 1312 L1446 1185 L1508 1185 L1536 1345 C1536 1345 1360 1454 1076 1454 C617 1454 316 1125 246 717 C177 313 367 -20 826 -20 C1020 -20 1195 33 1344 139 L1452 754 L995 754 L985 696 L1380 696 L1289 176 C1159 88 1010 38 832 38 C410 38 245 340 312 717 C378 1094 650 1396 1072 1396 L1072 1396 Z " />
<glyph glyph-name="gdotaccent" unicode="&#x121;" horiz-adv-x="1328" d="M1141 982 L1091 700 C1074 847 968 1002 741 1002 C443 1002 236 772 186 491 C137 210 273 -20 561 -20 C806 -20 942 123 1015 270 L968 0 C907 -341 754 -478 480 -478 C354 -478 245 -438 168 -378 L135 -427 C218 -494 341 -532 471 -532 C737 -532 949 -435 1026 0 L1189 928 L1371 928 L1381 982 L1141 982 Z M1054 491 C1012 254 840 34 570 34 C300 34 206 254 248 491 C290 728 462 948 732 948 C1002 948 1096 728 1054 491 L1054 491 Z M735 1288 C729 1258 747 1233 780 1233 C818 1233 839 1258 845 1288 C850 1318 833 1343 799 1343 C764 1343 740 1318 735 1288 L735 1288 Z " />
<glyph glyph-name="Gcommaaccent" unicode="&#x122;" horiz-adv-x="1460" d="M535 -532 L591 -532 L824 -163 L740 -163 L535 -532 Z M1072 1396 C1332 1396 1469 1312 1469 1312 L1446 1185 L1508 1185 L1536 1345 C1536 1345 1360 1454 1076 1454 C617 1454 316 1125 246 717 C177 313 367 -20 826 -20 C1020 -20 1195 33 1344 139 L1452 754 L995 754 L985 696 L1380 696 L1289 176 C1159 88 1010 38 832 38 C410 38 245 340 312 717 C378 1094 650 1396 1072 1396 L1072 1396 Z " />
<glyph glyph-name="gcommaaccent" unicode="&#x123;" horiz-adv-x="1328" d="M1023 1516 L967 1516 L734 1147 L818 1147 L1023 1516 Z M1141 982 L1091 700 C1074 847 968 1002 741 1002 C443 1002 236 772 186 491 C137 210 273 -20 561 -20 C806 -20 942 123 1015 270 L968 0 C907 -341 754 -478 480 -478 C354 -478 245 -438 168 -378 L135 -427 C218 -494 341 -532 471 -532 C737 -532 949 -435 1026 0 L1189 928 L1371 928 L1381 982 L1141 982 Z M1054 491 C1012 254 840 34 570 34 C300 34 206 254 248 491 C290 728 462 948 732 948 C1002 948 1096 728 1054 491 L1054 491 Z " />
<glyph glyph-name="Hcircumflex" unicode="&#x124;" horiz-adv-x="1675" d="M634 1376 L824 1376 L834 1434 L392 1434 L382 1376 L572 1376 L340 58 L150 58 L140 0 L582 0 L592 58 L402 58 L516 705 L1407 705 L1293 58 L1103 58 L1093 0 L1535 0 L1545 58 L1355 58 L1587 1376 L1777 1376 L1787 1434 L1345 1434 L1335 1376 L1525 1376 L1417 763 L526 763 L634 1376 Z M1186 1803 L1118 1803 L860 1536 L927 1536 L1149 1745 L1295 1536 L1352 1536 L1186 1803 Z " />
<glyph glyph-name="hcircumflex" unicode="&#x125;" horiz-adv-x="1408" d="M311 54 L129 54 L120 0 L542 0 L551 54 L369 54 L451 520 C495 771 615 948 871 948 C1127 948 1183 771 1139 520 L1048 0 L1288 0 L1297 54 L1115 54 L1197 520 C1249 812 1156 1002 880 1002 C652 1002 544 862 494 765 L627 1516 L387 1516 L377 1462 L559 1462 L311 54 Z M703 1536 L770 1536 L995 1745 L1147 1536 L1205 1536 L1033 1803 L965 1803 L703 1536 Z " />
<glyph glyph-name="Hbar" unicode="&#x126;" horiz-adv-x="1675" d="M634 1376 L824 1376 L834 1434 L392 1434 L382 1376 L572 1376 L529 1130 L344 1130 L334 1072 L519 1072 L340 58 L150 58 L140 0 L582 0 L592 58 L402 58 L516 705 L1407 705 L1293 58 L1103 58 L1093 0 L1535 0 L1545 58 L1355 58 L1534 1072 L1719 1072 L1729 1130 L1544 1130 L1587 1376 L1777 1376 L1787 1434 L1345 1434 L1335 1376 L1525 1376 L1482 1130 L591 1130 L634 1376 Z M1472 1072 L1417 763 L526 763 L581 1072 L1472 1072 Z " />
<glyph glyph-name="hbar" unicode="&#x127;" horiz-adv-x="1424" d="M327 54 L145 54 L136 0 L558 0 L567 54 L385 54 L467 520 C511 771 631 948 887 948 C1143 948 1199 771 1155 520 L1064 0 L1304 0 L1313 54 L1131 54 L1213 520 C1265 812 1172 1002 896 1002 C668 1002 560 862 510 765 L588 1209 L884 1209 L893 1262 L598 1262 L643 1516 L403 1516 L393 1462 L575 1462 L540 1262 L342 1262 L333 1209 L530 1209 L327 54 Z " />
<glyph glyph-name="Itilde" unicode="&#x128;" horiz-adv-x="723" d="M340 58 L150 58 L140 0 L582 0 L592 58 L402 58 L634 1376 L824 1376 L834 1434 L392 1434 L382 1376 L572 1376 L340 58 Z M631 1612 C657 1579 692 1536 757 1536 C892 1536 917 1675 917 1675 L863 1675 C863 1675 846 1585 766 1585 C713 1585 686 1630 666 1655 C641 1688 605 1731 540 1731 C405 1731 380 1591 380 1591 L434 1591 C434 1591 452 1681 532 1681 C585 1681 612 1636 631 1612 L631 1612 Z " />
<glyph glyph-name="itilde" unicode="&#x129;" horiz-adv-x="683" d="M475 928 L321 54 L139 54 L130 0 L552 0 L561 54 L379 54 L543 982 L303 982 L293 928 L475 928 Z M559 1315 C585 1282 620 1239 685 1239 C820 1239 845 1378 845 1378 L791 1378 C791 1378 774 1288 694 1288 C641 1288 614 1333 594 1358 C569 1391 533 1434 468 1434 C333 1434 308 1294 308 1294 L362 1294 C362 1294 380 1384 460 1384 C513 1384 540 1339 559 1315 L559 1315 Z " />
<glyph glyph-name="uni012A" unicode="&#x12a;" horiz-adv-x="860" d="M374 1556 L1034 1556 L1043 1610 L383 1610 L374 1556 Z M409 58 L219 58 L209 0 L651 0 L661 58 L471 58 L703 1376 L893 1376 L903 1434 L461 1434 L451 1376 L641 1376 L409 58 Z " />
<glyph glyph-name="imacron" unicode="&#x12b;" horiz-adv-x="760" d="M293 1380 L953 1380 L962 1434 L302 1434 L293 1380 Z M515 928 L361 54 L179 54 L170 0 L592 0 L601 54 L419 54 L583 982 L343 982 L333 928 L515 928 Z " />
<glyph glyph-name="Ibreve" unicode="&#x12c;" horiz-adv-x="792" d="M375 58 L185 58 L175 0 L617 0 L627 58 L437 58 L669 1376 L859 1376 L869 1434 L427 1434 L417 1376 L607 1376 L375 58 Z M666 1536 C911 1536 996 1740 996 1740 L937 1740 C863 1625 770 1590 676 1590 C580 1590 500 1625 464 1740 L408 1740 C408 1740 437 1536 666 1536 L666 1536 Z " />
<glyph glyph-name="uni012D" unicode="&#x12d;" horiz-adv-x="692" d="M481 928 L327 54 L145 54 L136 0 L558 0 L567 54 L385 54 L549 982 L309 982 L299 928 L481 928 Z M562 1230 C807 1230 892 1434 892 1434 L833 1434 C759 1319 666 1284 572 1284 C476 1284 396 1319 360 1434 L304 1434 C304 1434 333 1230 562 1230 L562 1230 Z " />
<glyph glyph-name="Iogonek" unicode="&#x12e;" horiz-adv-x="642" d="M542 0 L552 58 L362 58 L594 1376 L784 1376 L794 1434 L352 1434 L342 1376 L532 1376 L300 58 L110 58 L100 0 L483 0 C466 -3 292 -38 259 -205 C228 -360 386 -393 444 -393 L455 -334 C455 -334 294 -340 313 -205 C337 -32 542 0 542 0 L542 0 Z " />
<glyph glyph-name="iogonek" unicode="&#x12f;" horiz-adv-x="622" d="M465 928 L311 54 L129 54 L120 0 L483 0 C466 -3 292 -38 259 -205 C228 -360 386 -393 444 -393 L455 -334 C455 -334 294 -340 313 -205 C335 -40 521 -2 542 0 L551 54 L369 54 L533 982 L293 982 L283 928 L465 928 Z M503 1288 C497 1258 515 1233 548 1233 C586 1233 607 1258 613 1288 C618 1318 601 1343 567 1343 C532 1343 508 1318 503 1288 L503 1288 Z " />
<glyph glyph-name="Idotaccent" unicode="&#x130;" horiz-adv-x="722" d="M340 58 L150 58 L140 0 L582 0 L592 58 L402 58 L634 1376 L824 1376 L834 1434 L392 1434 L382 1376 L572 1376 L340 58 Z M590 1611 C584 1581 602 1556 635 1556 C673 1556 694 1581 700 1611 C705 1641 688 1666 654 1666 C619 1666 595 1641 590 1611 L590 1611 Z " />
<glyph glyph-name="dotlessi" unicode="&#x131;" horiz-adv-x="662" d="M465 928 L311 54 L129 54 L120 0 L542 0 L551 54 L369 54 L533 982 L293 982 L283 928 L465 928 Z " />
<glyph glyph-name="IJ" unicode="&#x132;" horiz-adv-x="1761" d="M340 58 L150 58 L140 0 L582 0 L592 58 L402 58 L634 1376 L824 1376 L834 1434 L392 1434 L382 1376 L572 1376 L340 58 Z M736 175 C770 75 864 -20 1049 -20 C1316 -20 1454 131 1505 422 L1673 1376 L1863 1376 L1873 1434 L1431 1434 L1421 1376 L1611 1376 L1443 422 C1401 182 1293 38 1053 38 C908 38 829 112 794 198 L736 175 Z " />
<glyph glyph-name="ij" unicode="&#x133;" horiz-adv-x="957" d="M465 928 L311 54 L129 54 L120 0 L542 0 L551 54 L369 54 L533 982 L293 982 L283 928 L465 928 Z M503 1288 C497 1258 515 1233 548 1233 C586 1233 607 1258 613 1288 C618 1318 601 1343 567 1343 C532 1343 508 1318 503 1288 L503 1288 Z M305 -514 C338 -526 387 -532 434 -532 C665 -532 728 -367 779 -74 L966 982 L726 982 L716 928 L898 928 L721 -74 C682 -299 640 -479 443 -479 C397 -479 357 -471 330 -463 L305 -514 Z M934 1288 C928 1258 946 1233 979 1233 C1017 1233 1038 1258 1044 1288 C1049 1318 1032 1343 998 1343 C963 1343 939 1318 934 1288 L934 1288 Z " />
<glyph glyph-name="Jcircumflex" unicode="&#x134;" horiz-adv-x="1184" d="M133 175 C167 75 261 -20 446 -20 C713 -20 851 131 902 422 L1070 1376 L1260 1376 L1270 1434 L828 1434 L818 1376 L1008 1376 L840 422 C798 182 690 38 450 38 C305 38 226 112 191 198 L133 175 Z M1148 1803 L1080 1803 L822 1536 L889 1536 L1111 1745 L1257 1536 L1314 1536 L1148 1803 Z " />
<glyph glyph-name="jcircumflex" unicode="&#x135;" horiz-adv-x="525" d="M-190 -514 C-157 -526 -108 -532 -61 -532 C170 -532 233 -367 284 -74 L471 982 L231 982 L221 928 L403 928 L226 -74 C187 -299 145 -479 -52 -479 C-98 -479 -138 -471 -165 -463 L-190 -514 Z M554 1434 L486 1434 L228 1167 L295 1167 L517 1376 L663 1167 L720 1167 L554 1434 Z " />
<glyph glyph-name="Kcommaaccent" unicode="&#x136;" horiz-adv-x="1557" d="M488 -532 L544 -532 L777 -163 L693 -163 L488 -532 Z M1219 0 L1417 0 L1427 58 L1257 58 L814 822 L1487 1376 L1649 1376 L1659 1434 L1227 1434 L1217 1376 L1395 1376 L505 642 L634 1376 L824 1376 L834 1434 L392 1434 L382 1376 L572 1376 L340 58 L150 58 L140 0 L582 0 L592 58 L402 58 L489 554 L766 782 L1219 0 Z " />
<glyph glyph-name="kcommaaccent" unicode="&#x137;" horiz-adv-x="1311" d="M365 -532 L421 -532 L654 -163 L570 -163 L365 -532 Z M1191 0 L1200 54 L1044 54 L708 588 L1155 928 L1315 928 L1325 982 L903 982 L893 928 L1066 928 L439 452 L627 1516 L387 1516 L377 1462 L559 1462 L311 54 L129 54 L120 0 L542 0 L551 54 L369 54 L426 375 L663 555 L1012 0 L1191 0 Z " />
<glyph glyph-name="kgreenlandic" unicode="&#x138;" horiz-adv-x="1402" d="M1157 0 L1363 0 L1373 58 L1209 58 C1101 476 889 718 720 808 C1079 1091 1258 1376 1494 1376 L1504 1434 C1192 1436 1046 1112 519 722 L634 1376 L824 1376 L834 1434 L392 1434 L382 1376 L572 1376 L340 58 L150 58 L140 0 L582 0 L592 58 L402 58 L505 643 L675 770 C828 695 1040 466 1157 0 L1157 0 Z " />
<glyph glyph-name="Lacute" unicode="&#x139;" horiz-adv-x="1290" d="M614 1536 L670 1536 L967 1803 L883 1803 L614 1536 Z M340 58 L150 58 L140 0 L1150 0 L1193 248 L1131 248 L1098 58 L402 58 L634 1376 L824 1376 L834 1434 L392 1434 L382 1376 L572 1376 L340 58 Z " />
<glyph glyph-name="lacute" unicode="&#x13a;" horiz-adv-x="649" d="M540 1576 L596 1576 L893 1843 L809 1843 L540 1576 Z M519 1462 L271 54 L89 54 L80 0 L502 0 L511 54 L329 54 L587 1516 L347 1516 L337 1462 L519 1462 Z " />
<glyph glyph-name="Lcommaaccent" unicode="&#x13b;" horiz-adv-x="1290" d="M469 -532 L525 -532 L758 -163 L674 -163 L469 -532 Z M340 58 L150 58 L140 0 L1150 0 L1193 248 L1131 248 L1098 58 L402 58 L634 1376 L824 1376 L834 1434 L392 1434 L382 1376 L572 1376 L340 58 Z " />
<glyph glyph-name="lcommaaccent" unicode="&#x13c;" horiz-adv-x="582" d="M19 -532 L75 -532 L308 -163 L224 -163 L19 -532 Z M519 1462 L271 54 L89 54 L80 0 L502 0 L511 54 L329 54 L587 1516 L347 1516 L337 1462 L519 1462 Z " />
<glyph glyph-name="Lcaron" unicode="&#x13d;" horiz-adv-x="1290" d="M340 58 L150 58 L140 0 L1150 0 L1193 248 L1131 248 L1098 58 L402 58 L634 1376 L824 1376 L834 1434 L392 1434 L382 1376 L572 1376 L340 58 Z M792 1065 L848 1065 L1021 1434 L937 1434 L792 1065 Z " />
<glyph glyph-name="lcaron" unicode="&#x13e;" horiz-adv-x="630" d="M519 1462 L271 54 L89 54 L80 0 L502 0 L511 54 L329 54 L587 1516 L347 1516 L337 1462 L519 1462 Z M580 1147 L636 1147 L809 1516 L725 1516 L580 1147 Z " />
<glyph glyph-name="Ldot" unicode="&#x13f;" horiz-adv-x="1290" d="M340 58 L150 58 L140 0 L1150 0 L1193 248 L1131 248 L1098 58 L402 58 L634 1376 L824 1376 L834 1434 L392 1434 L382 1376 L572 1376 L340 58 Z M1075 741 C1069 710 1091 684 1122 684 C1161 684 1183 710 1189 741 C1194 772 1173 798 1142 798 C1107 798 1080 772 1075 741 L1075 741 Z " />
<glyph glyph-name="ldot" unicode="&#x140;" horiz-adv-x="643" d="M559 1462 L311 54 L129 54 L120 0 L542 0 L551 54 L369 54 L627 1516 L387 1516 L377 1462 L559 1462 Z M718 793 C712 762 734 736 765 736 C804 736 826 762 832 793 C837 824 816 850 785 850 C750 850 723 824 718 793 L718 793 Z " />
<glyph glyph-name="Lslash" unicode="&#x141;" horiz-adv-x="1322" d="M372 58 L182 58 L172 0 L1182 0 L1225 248 L1163 248 L1130 58 L434 58 L548 707 L799 868 L811 941 L561 780 L666 1376 L856 1376 L866 1434 L424 1434 L414 1376 L604 1376 L491 735 L241 575 L228 502 L478 662 L372 58 Z " />
<glyph glyph-name="lslash" unicode="&#x142;" horiz-adv-x="668" d="M563 1462 L446 798 L235 657 L224 590 L434 731 L315 54 L133 54 L124 0 L546 0 L555 54 L373 54 L500 775 L709 916 L721 983 L512 842 L631 1516 L391 1516 L381 1462 L563 1462 Z " />
<glyph glyph-name="Nacute" unicode="&#x143;" horiz-adv-x="1691" d="M1079 1536 L1135 1536 L1432 1803 L1348 1803 L1079 1536 Z M572 1376 L340 58 L150 58 L140 0 L582 0 L592 58 L402 58 L631 1360 L1281 0 L1361 0 L1603 1376 L1793 1376 L1803 1434 L1361 1434 L1351 1376 L1541 1376 L1312 74 L662 1434 L392 1434 L382 1376 L572 1376 Z " />
<glyph glyph-name="nacute" unicode="&#x144;" horiz-adv-x="1408" d="M869 1167 L925 1167 L1222 1434 L1138 1434 L869 1167 Z M533 982 L293 982 L283 928 L465 928 L311 54 L129 54 L120 0 L542 0 L551 54 L369 54 L451 520 C495 771 615 948 871 948 C1127 948 1183 771 1139 520 L1048 0 L1288 0 L1297 54 L1115 54 L1197 520 C1249 812 1156 1002 880 1002 C652 1002 544 862 494 765 L533 982 Z " />
<glyph glyph-name="Ncommaaccent" unicode="&#x145;" horiz-adv-x="1691" d="M574 -532 L630 -532 L863 -163 L779 -163 L574 -532 Z M572 1376 L340 58 L150 58 L140 0 L582 0 L592 58 L402 58 L631 1360 L1281 0 L1361 0 L1603 1376 L1793 1376 L1803 1434 L1361 1434 L1351 1376 L1541 1376 L1312 74 L662 1434 L392 1434 L382 1376 L572 1376 Z " />
<glyph glyph-name="ncommaaccent" unicode="&#x146;" horiz-adv-x="1408" d="M428 -532 L484 -532 L717 -163 L633 -163 L428 -532 Z M533 982 L293 982 L283 928 L465 928 L311 54 L129 54 L120 0 L542 0 L551 54 L369 54 L451 520 C495 771 615 948 871 948 C1127 948 1183 771 1139 520 L1048 0 L1288 0 L1297 54 L1115 54 L1197 520 C1249 812 1156 1002 880 1002 C652 1002 544 862 494 765 L533 982 Z " />
<glyph glyph-name="Ncaron" unicode="&#x147;" horiz-adv-x="1691" d="M572 1376 L340 58 L150 58 L140 0 L582 0 L592 58 L402 58 L631 1360 L1281 0 L1361 0 L1603 1376 L1793 1376 L1803 1434 L1361 1434 L1351 1376 L1541 1376 L1312 74 L662 1434 L392 1434 L382 1376 L572 1376 Z M1081 1536 L1149 1536 L1407 1803 L1340 1803 L1118 1594 L972 1803 L915 1803 L1081 1536 Z " />
<glyph glyph-name="ncaron" unicode="&#x148;" horiz-adv-x="1408" d="M1202 1434 L1145 1434 L920 1225 L768 1434 L710 1434 L880 1167 L938 1167 L1202 1434 Z M533 982 L293 982 L283 928 L465 928 L311 54 L129 54 L120 0 L542 0 L551 54 L369 54 L451 520 C495 771 615 948 871 948 C1127 948 1183 771 1139 520 L1048 0 L1288 0 L1297 54 L1115 54 L1197 520 C1249 812 1156 1002 880 1002 C652 1002 544 862 494 765 L533 982 Z " />
<glyph glyph-name="napostrophe" unicode="&#x149;" horiz-adv-x="1411" d="M207 1065 L263 1065 L496 1434 L412 1434 L207 1065 Z M536 982 L296 982 L286 928 L468 928 L314 54 L132 54 L123 0 L545 0 L554 54 L372 54 L454 520 C498 771 618 948 874 948 C1130 948 1186 771 1142 520 L1051 0 L1291 0 L1300 54 L1118 54 L1200 520 C1252 812 1159 1002 883 1002 C655 1002 547 862 497 765 L536 982 Z " />
<glyph glyph-name="Eng" unicode="&#x14a;" horiz-adv-x="1691" d="M572 1376 L340 58 L150 58 L140 0 L582 0 L592 58 L402 58 L631 1360 L1281 0 L1299 0 L1283 -90 C1240 -330 1133 -474 913 -474 C808 -474 739 -424 693 -346 L640 -381 C688 -480 792 -532 909 -532 C1159 -532 1293 -383 1345 -90 L1603 1376 L1793 1376 L1803 1434 L1361 1434 L1351 1376 L1541 1376 L1312 74 L662 1434 L392 1434 L382 1376 L572 1376 Z " />
<glyph glyph-name="eng" unicode="&#x14b;" horiz-adv-x="1246" d="M1034 -74 C995 -299 953 -479 756 -479 C710 -479 670 -471 643 -463 L618 -514 C651 -526 700 -532 747 -532 C978 -532 1041 -367 1092 -74 L1197 520 C1249 812 1156 1002 880 1002 C652 1002 544 862 494 765 L533 982 L293 982 L283 928 L465 928 L311 54 L129 54 L120 0 L542 0 L551 54 L369 54 L451 520 C495 771 615 948 871 948 C1127 948 1183 771 1139 520 L1034 -74 Z " />
<glyph glyph-name="Omacron" unicode="&#x14c;" horiz-adv-x="1652" d="M770 1556 L1430 1556 L1439 1610 L779 1610 L770 1556 Z M828 -20 C1287 -20 1588 309 1658 717 C1727 1120 1538 1454 1076 1454 C617 1454 316 1125 246 717 C177 314 366 -20 828 -20 L828 -20 Z M312 717 C378 1094 650 1396 1072 1396 C1494 1396 1659 1094 1592 717 C1526 340 1254 38 832 38 C410 38 245 340 312 717 L312 717 Z " />
<glyph glyph-name="omacron" unicode="&#x14d;" horiz-adv-x="1180" d="M186 491 C133 189 283 -20 586 -20 C908 -20 1113 190 1166 491 C1219 793 1068 1002 766 1002 C453 1002 239 792 186 491 L186 491 Z M248 491 C296 763 487 948 757 948 C1036 948 1152 763 1104 491 C1056 218 864 34 595 34 C325 34 200 218 248 491 L248 491 Z M503 1380 L1163 1380 L1172 1434 L512 1434 L503 1380 Z " />
<glyph glyph-name="Obreve" unicode="&#x14e;" horiz-adv-x="1652" d="M828 -20 C1287 -20 1588 309 1658 717 C1727 1120 1538 1454 1076 1454 C617 1454 316 1125 246 717 C177 314 366 -20 828 -20 L828 -20 Z M312 717 C378 1094 650 1396 1072 1396 C1494 1396 1659 1094 1592 717 C1526 340 1254 38 832 38 C410 38 245 340 312 717 L312 717 Z M1094 1536 C1339 1536 1424 1740 1424 1740 L1365 1740 C1291 1625 1198 1590 1104 1590 C1008 1590 928 1625 892 1740 L836 1740 C836 1740 865 1536 1094 1536 L1094 1536 Z " />
<glyph glyph-name="obreve" unicode="&#x14f;" horiz-adv-x="1180" d="M186 491 C133 189 283 -20 586 -20 C908 -20 1113 190 1166 491 C1219 793 1068 1002 766 1002 C453 1002 239 792 186 491 L186 491 Z M248 491 C296 763 487 948 757 948 C1036 948 1152 763 1104 491 C1056 218 864 34 595 34 C325 34 200 218 248 491 L248 491 Z M806 1230 C1051 1230 1136 1434 1136 1434 L1077 1434 C1003 1319 910 1284 816 1284 C720 1284 640 1319 604 1434 L548 1434 C548 1434 577 1230 806 1230 L806 1230 Z " />
<glyph glyph-name="Ohungarumlaut" unicode="&#x150;" horiz-adv-x="1652" d="M1181 1536 L1236 1536 L1469 1905 L1385 1905 L1181 1536 Z M953 1536 L1009 1536 L1242 1905 L1158 1905 L953 1536 Z M828 -20 C1287 -20 1588 309 1658 717 C1727 1120 1538 1454 1076 1454 C617 1454 316 1125 246 717 C177 314 366 -20 828 -20 L828 -20 Z M312 717 C378 1094 650 1396 1072 1396 C1494 1396 1659 1094 1592 717 C1526 340 1254 38 832 38 C410 38 245 340 312 717 L312 717 Z " />
<glyph glyph-name="ohungarumlaut" unicode="&#x151;" horiz-adv-x="1180" d="M186 491 C133 189 283 -20 586 -20 C908 -20 1113 190 1166 491 C1219 793 1068 1002 766 1002 C453 1002 239 792 186 491 L186 491 Z M248 491 C296 763 487 948 757 948 C1036 948 1152 763 1104 491 C1056 218 864 34 595 34 C325 34 200 218 248 491 L248 491 Z M864 1147 L919 1147 L1152 1516 L1068 1516 L864 1147 Z M636 1147 L692 1147 L925 1516 L841 1516 L636 1147 Z " />
<glyph glyph-name="OE" unicode="&#x152;" horiz-adv-x="2207" d="M1167 0 L2087 0 L2122 200 L2060 200 L2035 58 L1239 58 L1353 705 L2061 705 L2071 763 L1363 763 L1471 1376 L2257 1376 L2224 1186 L2286 1186 L2329 1434 L1419 1434 L1407 1365 C1316 1422 1198 1454 1055 1454 C596 1454 295 1125 225 717 C156 314 345 -20 807 -20 C946 -20 1070 10 1178 64 L1167 0 Z M811 38 C389 38 224 340 291 717 C357 1094 629 1396 1051 1396 C1196 1396 1309 1360 1395 1298 L1190 136 C1083 74 956 38 811 38 L811 38 Z " />
<glyph glyph-name="oe" unicode="&#x153;" horiz-adv-x="2015" d="M1472 34 C1235 34 1129 204 1161 464 L1996 464 C2062 835 1894 1002 1643 1002 C1437 1002 1264 881 1169 692 C1137 882 995 1002 766 1002 C453 1002 239 792 186 491 C133 189 283 -20 586 -20 C828 -20 1004 98 1099 285 C1129 98 1258 -20 1463 -20 C1672 -20 1797 40 1863 84 L1832 131 C1772 94 1656 34 1472 34 L1472 34 Z M248 491 C296 763 487 948 757 948 C1036 948 1152 763 1104 491 C1056 218 864 34 595 34 C325 34 200 218 248 491 L248 491 Z M1171 518 C1230 776 1405 948 1634 948 C1893 948 1976 776 1944 518 L1171 518 Z " />
<glyph glyph-name="Racute" unicode="&#x154;" horiz-adv-x="1469" d="M916 1536 L972 1536 L1269 1803 L1185 1803 L916 1536 Z M1136 0 L1349 0 L1359 58 L1183 58 L1023 653 C1335 656 1464 838 1497 1043 C1529 1243 1451 1434 1180 1434 L392 1434 L382 1376 L572 1376 L340 58 L150 58 L140 0 L582 0 L592 58 L402 58 L507 653 L960 653 L1136 0 Z M1170 1376 C1411 1376 1463 1213 1433 1043 C1404 875 1294 711 1053 711 L517 711 L634 1376 L1170 1376 Z " />
<glyph glyph-name="racute" unicode="&#x155;" horiz-adv-x="937" d="M686 1167 L742 1167 L1039 1434 L955 1434 L686 1167 Z M311 54 L129 54 L120 0 L542 0 L551 54 L369 54 L451 520 C495 771 615 948 871 948 C931 948 979 939 1018 921 L1057 967 C1010 990 951 1002 880 1002 C652 1002 544 862 494 765 L533 982 L293 982 L283 928 L465 928 L311 54 Z " />
<glyph glyph-name="Rcommaaccent" unicode="&#x156;" horiz-adv-x="1469" d="M478 -532 L534 -532 L767 -163 L683 -163 L478 -532 Z M1136 0 L1349 0 L1359 58 L1183 58 L1023 653 C1335 656 1464 838 1497 1043 C1529 1243 1451 1434 1180 1434 L392 1434 L382 1376 L572 1376 L340 58 L150 58 L140 0 L582 0 L592 58 L402 58 L507 653 L960 653 L1136 0 Z M1170 1376 C1411 1376 1463 1213 1433 1043 C1404 875 1294 711 1053 711 L517 711 L634 1376 L1170 1376 Z " />
<glyph glyph-name="rcommaaccent" unicode="&#x157;" horiz-adv-x="937" d="M54 -532 L110 -532 L343 -163 L259 -163 L54 -532 Z M311 54 L129 54 L120 0 L542 0 L551 54 L369 54 L451 520 C495 771 615 948 871 948 C931 948 979 939 1018 921 L1057 967 C1010 990 951 1002 880 1002 C652 1002 544 862 494 765 L533 982 L293 982 L283 928 L465 928 L311 54 Z " />
<glyph glyph-name="Rcaron" unicode="&#x158;" horiz-adv-x="1469" d="M919 1536 L987 1536 L1245 1803 L1178 1803 L956 1594 L810 1803 L753 1803 L919 1536 Z M1136 0 L1349 0 L1359 58 L1183 58 L1023 653 C1335 656 1464 838 1497 1043 C1529 1243 1451 1434 1180 1434 L392 1434 L382 1376 L572 1376 L340 58 L150 58 L140 0 L582 0 L592 58 L402 58 L507 653 L960 653 L1136 0 Z M1170 1376 C1411 1376 1463 1213 1433 1043 C1404 875 1294 711 1053 711 L517 711 L634 1376 L1170 1376 Z " />
<glyph glyph-name="rcaron" unicode="&#x159;" horiz-adv-x="937" d="M311 54 L129 54 L120 0 L542 0 L551 54 L369 54 L451 520 C495 771 615 948 871 948 C931 948 979 939 1018 921 L1057 967 C1010 990 951 1002 880 1002 C652 1002 544 862 494 765 L533 982 L293 982 L283 928 L465 928 L311 54 Z M1030 1434 L963 1434 L738 1225 L586 1434 L528 1434 L700 1167 L768 1167 L1030 1434 Z " />
<glyph glyph-name="Sacute" unicode="&#x15a;" horiz-adv-x="1285" d="M865 1536 L921 1536 L1218 1803 L1134 1803 L865 1536 Z M876 1454 C544 1454 402 1277 373 1090 C349 932 415 789 767 713 C1111 639 1151 524 1124 369 C1089 172 934 38 671 38 C488 38 354 78 248 152 L278 321 L216 321 L181 121 C290 30 453 -20 665 -20 C952 -20 1148 115 1190 369 C1225 578 1135 704 785 778 C472 844 417 965 439 1090 C473 1286 633 1396 870 1396 C1102 1396 1230 1317 1230 1317 L1207 1186 L1269 1186 L1297 1347 C1297 1347 1168 1454 876 1454 L876 1454 Z " />
<glyph glyph-name="sacute" unicode="&#x15b;" horiz-adv-x="976" d="M657 1167 L713 1167 L1010 1434 L926 1434 L657 1167 Z M891 755 L949 755 L978 918 C978 918 852 1002 653 1002 C403 1002 288 894 265 758 C244 631 304 533 571 482 C817 435 856 353 838 251 C811 95 680 34 510 34 C403 34 289 60 196 117 L220 255 L162 255 L133 86 C248 8 373 -20 501 -20 C709 -20 862 55 898 251 C924 392 833 491 589 538 C338 586 307 656 325 758 C348 887 478 948 644 948 C752 948 845 922 914 888 L891 755 Z " />
<glyph glyph-name="Scircumflex" unicode="&#x15c;" horiz-adv-x="1285" d="M979 1803 L911 1803 L653 1536 L720 1536 L942 1745 L1088 1536 L1145 1536 L979 1803 Z M876 1454 C544 1454 402 1277 373 1090 C349 932 415 789 767 713 C1111 639 1151 524 1124 369 C1089 172 934 38 671 38 C488 38 354 78 248 152 L278 321 L216 321 L181 121 C290 30 453 -20 665 -20 C952 -20 1148 115 1190 369 C1225 578 1135 704 785 778 C472 844 417 965 439 1090 C473 1286 633 1396 870 1396 C1102 1396 1230 1317 1230 1317 L1207 1186 L1269 1186 L1297 1347 C1297 1347 1168 1454 876 1454 L876 1454 Z " />
<glyph glyph-name="scircumflex" unicode="&#x15d;" horiz-adv-x="976" d="M773 1434 L705 1434 L447 1167 L514 1167 L736 1376 L882 1167 L939 1167 L773 1434 Z M891 755 L949 755 L978 918 C978 918 852 1002 653 1002 C403 1002 288 894 265 758 C244 631 304 533 571 482 C817 435 856 353 838 251 C811 95 680 34 510 34 C403 34 289 60 196 117 L220 255 L162 255 L133 86 C248 8 373 -20 501 -20 C709 -20 862 55 898 251 C924 392 833 491 589 538 C338 586 307 656 325 758 C348 887 478 948 644 948 C752 948 845 922 914 888 L891 755 Z " />
<glyph glyph-name="Scedilla" unicode="&#x15e;" horiz-adv-x="1285" d="M876 1454 C544 1454 402 1277 373 1090 C349 932 415 789 767 713 C1111 639 1151 524 1124 369 C1089 172 934 38 671 38 C488 38 354 78 248 152 L278 321 L216 321 L181 121 C281 37 427 -11 615 -19 L533 -185 C638 -168 764 -172 735 -279 C699 -412 532 -391 460 -354 L429 -399 C536 -452 750 -462 794 -279 C823 -160 702 -123 618 -131 L671 -20 C955 -18 1148 117 1190 369 C1225 578 1135 704 785 778 C472 844 417 965 439 1090 C473 1286 633 1396 870 1396 C1102 1396 1230 1317 1230 1317 L1207 1186 L1269 1186 L1297 1347 C1297 1347 1168 1454 876 1454 L876 1454 Z " />
<glyph glyph-name="scedilla" unicode="&#x15f;" horiz-adv-x="976" d="M891 755 L949 755 L978 918 C978 918 852 1002 653 1002 C403 1002 288 894 265 758 C244 631 304 533 571 482 C817 435 856 353 838 251 C811 95 680 34 510 34 C403 34 289 60 196 117 L220 255 L162 255 L133 86 C235 16 345 -13 459 -19 L377 -185 C482 -168 608 -172 579 -279 C543 -412 376 -391 304 -354 L273 -399 C380 -452 594 -462 638 -279 C667 -160 546 -123 462 -131 L515 -20 C716 -16 863 59 898 251 C924 392 833 491 589 538 C338 586 307 656 325 758 C348 887 478 948 644 948 C752 948 845 922 914 888 L891 755 Z " />
<glyph glyph-name="Scaron" unicode="&#x160;" horiz-adv-x="1285" d="M861 1536 L929 1536 L1187 1803 L1120 1803 L898 1594 L752 1803 L695 1803 L861 1536 Z M876 1454 C544 1454 402 1277 373 1090 C349 932 415 789 767 713 C1111 639 1151 524 1124 369 C1089 172 934 38 671 38 C488 38 354 78 248 152 L278 321 L216 321 L181 121 C290 30 453 -20 665 -20 C952 -20 1148 115 1190 369 C1225 578 1135 704 785 778 C472 844 417 965 439 1090 C473 1286 633 1396 870 1396 C1102 1396 1230 1317 1230 1317 L1207 1186 L1269 1186 L1297 1347 C1297 1347 1168 1454 876 1454 L876 1454 Z " />
<glyph glyph-name="scaron" unicode="&#x161;" horiz-adv-x="976" d="M659 1167 L727 1167 L985 1434 L918 1434 L696 1225 L550 1434 L493 1434 L659 1167 Z M891 755 L949 755 L978 918 C978 918 852 1002 653 1002 C403 1002 288 894 265 758 C244 631 304 533 571 482 C817 435 856 353 838 251 C811 95 680 34 510 34 C403 34 289 60 196 117 L220 255 L162 255 L133 86 C248 8 373 -20 501 -20 C709 -20 862 55 898 251 C924 392 833 491 589 538 C338 586 307 656 325 758 C348 887 478 948 644 948 C752 948 845 922 914 888 L891 755 Z " />
<glyph glyph-name="Tcommaaccent" unicode="&#x162;" horiz-adv-x="1428" d="M435 -532 L491 -532 L724 -163 L640 -163 L435 -532 Z M349 1186 L411 1186 L444 1376 L925 1376 L693 58 L503 58 L493 0 L935 0 L945 58 L755 58 L987 1376 L1468 1376 L1435 1186 L1497 1186 L1540 1434 L392 1434 L349 1186 Z " />
<glyph glyph-name="tcommaaccent" unicode="&#x163;" horiz-adv-x="791" d="M229 -532 L285 -532 L518 -163 L434 -163 L229 -532 Z M243 928 L466 928 L371 379 C325 111 355 -20 585 -20 C632 -20 674 -15 716 -2 L703 49 C667 38 637 33 594 33 C365 33 394 186 438 438 L524 928 L846 928 L856 982 L534 982 L587 1282 L529 1282 L476 982 L253 982 L243 928 Z " />
<glyph glyph-name="Tcaron" unicode="&#x164;" horiz-adv-x="1428" d="M349 1186 L411 1186 L444 1376 L925 1376 L693 58 L503 58 L493 0 L935 0 L945 58 L755 58 L987 1376 L1468 1376 L1435 1186 L1497 1186 L1540 1434 L392 1434 L349 1186 Z M940 1536 L1008 1536 L1266 1803 L1199 1803 L977 1594 L831 1803 L774 1803 L940 1536 Z " />
<glyph glyph-name="tcaron" unicode="&#x165;" horiz-adv-x="999" d="M885 1147 L941 1147 L1114 1516 L1030 1516 L885 1147 Z M243 928 L466 928 L371 379 C325 111 355 -20 585 -20 C632 -20 674 -15 716 -2 L703 49 C667 38 637 33 594 33 C365 33 394 186 438 438 L524 928 L846 928 L856 982 L534 982 L587 1282 L529 1282 L476 982 L253 982 L243 928 Z " />
<glyph glyph-name="Tbar" unicode="&#x166;" horiz-adv-x="1428" d="M349 1186 L411 1186 L444 1376 L925 1376 L846 926 L548 926 L538 868 L836 868 L693 58 L503 58 L493 0 L935 0 L945 58 L755 58 L898 868 L1196 868 L1206 926 L908 926 L987 1376 L1468 1376 L1435 1186 L1497 1186 L1540 1434 L392 1434 L349 1186 Z " />
<glyph glyph-name="tbar" unicode="&#x167;" horiz-adv-x="791" d="M243 928 L466 928 L415 635 L191 635 L182 582 L406 582 L371 379 C325 111 355 -20 585 -20 C632 -20 674 -15 716 -2 L703 49 C667 38 637 33 594 33 C365 33 394 186 438 438 L463 582 L785 582 L794 635 L473 635 L524 928 L846 928 L856 982 L534 982 L587 1282 L529 1282 L476 982 L253 982 L243 928 Z " />
<glyph glyph-name="Utilde" unicode="&#x168;" horiz-adv-x="1708" d="M1481 585 L1620 1376 L1810 1376 L1820 1434 L1378 1434 L1368 1376 L1558 1376 L1419 585 C1355 223 1142 37 860 37 C578 37 431 223 495 585 L634 1376 L824 1376 L834 1434 L392 1434 L382 1376 L572 1376 L433 585 C359 170 556 -20 856 -20 C1164 -20 1407 170 1481 585 L1481 585 Z M1121 1612 C1147 1579 1182 1536 1247 1536 C1382 1536 1407 1675 1407 1675 L1353 1675 C1353 1675 1336 1585 1256 1585 C1203 1585 1176 1630 1156 1655 C1131 1688 1095 1731 1030 1731 C895 1731 870 1591 870 1591 L924 1591 C924 1591 942 1681 1022 1681 C1075 1681 1102 1636 1121 1612 L1121 1612 Z " />
<glyph glyph-name="utilde" unicode="&#x169;" horiz-adv-x="1408" d="M1279 982 L1038 982 L1029 928 L1211 928 L1129 462 C1085 211 965 34 709 34 C453 34 397 211 441 462 L532 982 L292 982 L283 928 L465 928 L383 462 C331 170 424 -20 706 -20 C934 -20 1036 120 1086 217 L1047 0 L1287 0 L1297 54 L1115 54 L1279 982 Z M922 1315 C948 1282 983 1239 1048 1239 C1183 1239 1208 1378 1208 1378 L1154 1378 C1154 1378 1137 1288 1057 1288 C1004 1288 977 1333 957 1358 C932 1391 896 1434 831 1434 C696 1434 671 1294 671 1294 L725 1294 C725 1294 743 1384 823 1384 C876 1384 903 1339 922 1315 L922 1315 Z " />
<glyph glyph-name="Umacron" unicode="&#x16a;" horiz-adv-x="1708" d="M798 1556 L1458 1556 L1467 1610 L807 1610 L798 1556 Z M1481 585 L1620 1376 L1810 1376 L1820 1434 L1378 1434 L1368 1376 L1558 1376 L1419 585 C1355 223 1142 37 860 37 C578 37 431 223 495 585 L634 1376 L824 1376 L834 1434 L392 1434 L382 1376 L572 1376 L433 585 C359 170 556 -20 856 -20 C1164 -20 1407 170 1481 585 L1481 585 Z " />
<glyph glyph-name="umacron" unicode="&#x16b;" horiz-adv-x="1408" d="M617 1380 L1277 1380 L1286 1434 L626 1434 L617 1380 Z M1279 982 L1038 982 L1029 928 L1211 928 L1129 462 C1085 211 965 34 709 34 C453 34 397 211 441 462 L532 982 L292 982 L283 928 L465 928 L383 462 C331 170 424 -20 706 -20 C934 -20 1036 120 1086 217 L1047 0 L1287 0 L1297 54 L1115 54 L1279 982 Z " />
<glyph glyph-name="Ubreve" unicode="&#x16c;" horiz-adv-x="1708" d="M1481 585 L1620 1376 L1810 1376 L1820 1434 L1378 1434 L1368 1376 L1558 1376 L1419 585 C1355 223 1142 37 860 37 C578 37 431 223 495 585 L634 1376 L824 1376 L834 1434 L392 1434 L382 1376 L572 1376 L433 585 C359 170 556 -20 856 -20 C1164 -20 1407 170 1481 585 L1481 585 Z M1116 1536 C1361 1536 1446 1740 1446 1740 L1387 1740 C1313 1625 1220 1590 1126 1590 C1030 1590 950 1625 914 1740 L858 1740 C858 1740 887 1536 1116 1536 L1116 1536 Z " />
<glyph glyph-name="ubreve" unicode="&#x16d;" horiz-adv-x="1408" d="M1279 982 L1038 982 L1029 928 L1211 928 L1129 462 C1085 211 965 34 709 34 C453 34 397 211 441 462 L532 982 L292 982 L283 928 L465 928 L383 462 C331 170 424 -20 706 -20 C934 -20 1036 120 1086 217 L1047 0 L1287 0 L1297 54 L1115 54 L1279 982 Z M920 1230 C1165 1230 1250 1434 1250 1434 L1191 1434 C1117 1319 1024 1284 930 1284 C834 1284 754 1319 718 1434 L662 1434 C662 1434 691 1230 920 1230 L920 1230 Z " />
<glyph glyph-name="Uring" unicode="&#x16e;" horiz-adv-x="1708" d="M1481 585 L1620 1376 L1810 1376 L1820 1434 L1378 1434 L1368 1376 L1558 1376 L1419 585 C1355 223 1142 37 860 37 C578 37 431 223 495 585 L634 1376 L824 1376 L834 1434 L392 1434 L382 1376 L572 1376 L433 585 C359 170 556 -20 856 -20 C1164 -20 1407 170 1481 585 L1481 585 Z M993 1690 C978 1606 1032 1536 1120 1536 C1220 1536 1284 1600 1301 1690 C1317 1774 1258 1844 1174 1844 C1074 1844 1008 1774 993 1690 L993 1690 Z M1034 1690 C1045 1753 1094 1805 1167 1805 C1240 1805 1271 1753 1260 1690 C1249 1627 1200 1577 1127 1577 C1054 1577 1023 1627 1034 1690 L1034 1690 Z " />
<glyph glyph-name="uring" unicode="&#x16f;" horiz-adv-x="1408" d="M1279 982 L1038 982 L1029 928 L1211 928 L1129 462 C1085 211 965 34 709 34 C453 34 397 211 441 462 L532 982 L292 982 L283 928 L465 928 L383 462 C331 170 424 -20 706 -20 C934 -20 1036 120 1086 217 L1047 0 L1287 0 L1297 54 L1115 54 L1279 982 Z M775 1280 C760 1196 814 1126 902 1126 C1002 1126 1066 1190 1083 1280 C1099 1364 1040 1434 956 1434 C856 1434 790 1364 775 1280 L775 1280 Z M816 1280 C827 1343 876 1395 949 1395 C1022 1395 1053 1343 1042 1280 C1031 1217 982 1167 909 1167 C836 1167 805 1217 816 1280 L816 1280 Z " />
<glyph glyph-name="Uhungarumlaut" unicode="&#x170;" horiz-adv-x="1708" d="M1198 1536 L1253 1536 L1486 1905 L1402 1905 L1198 1536 Z M970 1536 L1026 1536 L1259 1905 L1175 1905 L970 1536 Z M1481 585 L1620 1376 L1810 1376 L1820 1434 L1378 1434 L1368 1376 L1558 1376 L1419 585 C1355 223 1142 37 860 37 C578 37 431 223 495 585 L634 1376 L824 1376 L834 1434 L392 1434 L382 1376 L572 1376 L433 585 C359 170 556 -20 856 -20 C1164 -20 1407 170 1481 585 L1481 585 Z " />
<glyph glyph-name="uhungarumlaut" unicode="&#x171;" horiz-adv-x="1408" d="M986 1147 L1041 1147 L1274 1516 L1190 1516 L986 1147 Z M758 1147 L814 1147 L1047 1516 L963 1516 L758 1147 Z M1279 982 L1038 982 L1029 928 L1211 928 L1129 462 C1085 211 965 34 709 34 C453 34 397 211 441 462 L532 982 L292 982 L283 928 L465 928 L383 462 C331 170 424 -20 706 -20 C934 -20 1036 120 1086 217 L1047 0 L1287 0 L1297 54 L1115 54 L1279 982 Z " />
<glyph glyph-name="Uogonek" unicode="&#x172;" horiz-adv-x="1708" d="M1481 585 L1620 1376 L1810 1376 L1820 1434 L1378 1434 L1368 1376 L1558 1376 L1419 585 C1355 223 1142 37 860 37 C578 37 431 223 495 585 L634 1376 L824 1376 L834 1434 L392 1434 L382 1376 L572 1376 L433 585 C359 170 556 -20 856 -20 C870 -20 885 -19 899 -18 C840 -42 758 -95 736 -205 C705 -360 863 -393 921 -393 L932 -334 C932 -334 771 -340 790 -205 C808 -76 926 -25 985 -8 C1231 39 1417 230 1481 585 L1481 585 Z " />
<glyph glyph-name="uogonek" unicode="&#x173;" horiz-adv-x="1408" d="M1279 982 L1038 982 L1029 928 L1211 928 L1129 462 C1085 211 965 34 709 34 C453 34 397 211 441 462 L532 982 L292 982 L283 928 L465 928 L383 462 C331 170 424 -20 706 -20 C934 -20 1036 120 1086 217 L1047 0 L1228 0 C1211 -3 1037 -38 1004 -205 C973 -360 1131 -393 1189 -393 L1200 -334 C1200 -334 1039 -340 1058 -205 C1080 -40 1266 -2 1287 0 L1297 54 L1115 54 L1279 982 Z " />
<glyph glyph-name="Wcircumflex" unicode="&#x174;" horiz-adv-x="2295" d="M1488 1803 L1420 1803 L1162 1536 L1229 1536 L1451 1745 L1597 1536 L1654 1536 L1488 1803 Z M754 1376 L764 1434 L332 1434 L322 1376 L501 1376 L692 0 L761 0 L1389 1370 L1534 0 L1603 0 L2278 1376 L2457 1376 L2467 1434 L2035 1434 L2025 1376 L2216 1376 L1582 78 L1439 1434 L1358 1434 L737 78 L561 1376 L754 1376 Z " />
<glyph glyph-name="wcircumflex" unicode="&#x175;" horiz-adv-x="1920" d="M1783 928 L1963 928 L1973 982 L1551 982 L1541 928 L1720 928 L1292 78 L1160 982 L1104 982 L652 78 L523 928 L705 928 L715 982 L293 982 L283 928 L463 928 L609 0 L670 0 L1118 892 L1252 0 L1311 0 L1783 928 Z M1239 1434 L1171 1434 L913 1167 L980 1167 L1202 1376 L1348 1167 L1405 1167 L1239 1434 Z " />
<glyph glyph-name="Ycircumflex" unicode="&#x176;" horiz-adv-x="1600" d="M873 594 L779 58 L589 58 L579 0 L1021 0 L1031 58 L841 58 L935 594 L1588 1376 L1762 1376 L1772 1434 L1340 1434 L1330 1376 L1515 1376 L910 652 L560 1376 L754 1376 L764 1434 L332 1434 L322 1376 L496 1376 L873 594 Z M1145 1803 L1077 1803 L819 1536 L886 1536 L1108 1745 L1254 1536 L1311 1536 L1145 1803 Z " />
<glyph glyph-name="ycircumflex" unicode="&#x177;" horiz-adv-x="1410" d="M705 928 L715 982 L293 982 L283 928 L458 928 L675 0 L510 -276 C452 -368 374 -478 260 -478 L175 -478 L166 -532 L258 -532 C400 -532 483 -426 562 -294 L1278 928 L1453 928 L1463 982 L1041 982 L1031 928 L1208 928 L715 70 L523 928 L705 928 Z M978 1434 L910 1434 L652 1167 L719 1167 L941 1376 L1087 1167 L1144 1167 L978 1434 Z " />
<glyph glyph-name="Ydieresis" unicode="&#x178;" horiz-adv-x="1600" d="M873 594 L779 58 L589 58 L579 0 L1021 0 L1031 58 L841 58 L935 594 L1588 1376 L1762 1376 L1772 1434 L1340 1434 L1330 1376 L1515 1376 L910 652 L560 1376 L754 1376 L764 1434 L332 1434 L322 1376 L496 1376 L873 594 Z M854 1611 C848 1581 866 1556 899 1556 C937 1556 958 1581 964 1611 C969 1641 952 1666 918 1666 C883 1666 859 1641 854 1611 L854 1611 Z M1194 1611 C1188 1581 1206 1556 1239 1556 C1277 1556 1298 1581 1304 1611 C1309 1641 1292 1666 1258 1666 C1223 1666 1199 1641 1194 1611 L1194 1611 Z " />
<glyph glyph-name="Zacute" unicode="&#x179;" horiz-adv-x="1324" d="M886 1536 L942 1536 L1239 1803 L1155 1803 L886 1536 Z M399 1186 L461 1186 L494 1376 L1331 1376 L146 37 L140 0 L1184 0 L1227 248 L1165 248 L1132 58 L245 58 L1430 1397 L1436 1434 L442 1434 L399 1186 Z " />
<glyph glyph-name="zacute" unicode="&#x17a;" horiz-adv-x="1012" d="M678 1167 L734 1167 L1031 1434 L947 1434 L678 1167 Z M332 982 L292 755 L350 755 L380 928 L963 928 L125 33 L120 0 L892 0 L932 227 L874 227 L843 54 L221 54 L1059 949 L1065 982 L332 982 Z " />
<glyph glyph-name="Zdotaccent" unicode="&#x17b;" horiz-adv-x="1324" d="M399 1186 L461 1186 L494 1376 L1331 1376 L146 37 L140 0 L1184 0 L1227 248 L1165 248 L1132 58 L245 58 L1430 1397 L1436 1434 L442 1434 L399 1186 Z M891 1611 C885 1581 903 1556 936 1556 C974 1556 995 1581 1001 1611 C1006 1641 989 1666 955 1666 C920 1666 896 1641 891 1611 L891 1611 Z " />
<glyph glyph-name="zdotaccent" unicode="&#x17c;" horiz-adv-x="1012" d="M332 982 L292 755 L350 755 L380 928 L963 928 L125 33 L120 0 L892 0 L932 227 L874 227 L843 54 L221 54 L1059 949 L1065 982 L332 982 Z M678 1288 C672 1258 690 1233 723 1233 C761 1233 782 1258 788 1288 C793 1318 776 1343 742 1343 C707 1343 683 1318 678 1288 L678 1288 Z " />
<glyph glyph-name="Zcaron" unicode="&#x17d;" horiz-adv-x="1324" d="M399 1186 L461 1186 L494 1376 L1331 1376 L146 37 L140 0 L1184 0 L1227 248 L1165 248 L1132 58 L245 58 L1430 1397 L1436 1434 L442 1434 L399 1186 Z M899 1536 L967 1536 L1225 1803 L1158 1803 L936 1594 L790 1803 L733 1803 L899 1536 Z " />
<glyph glyph-name="zcaron" unicode="&#x17e;" horiz-adv-x="1012" d="M332 982 L292 755 L350 755 L380 928 L963 928 L125 33 L120 0 L892 0 L932 227 L874 227 L843 54 L221 54 L1059 949 L1065 982 L332 982 Z M1010 1434 L943 1434 L718 1225 L566 1434 L508 1434 L680 1167 L748 1167 L1010 1434 Z " />
<glyph glyph-name="longs" unicode="&#x17f;" horiz-adv-x="815" d="M570 1077 C603 1266 630 1482 869 1482 C912 1482 970 1478 1003 1466 L1031 1513 C991 1527 925 1536 878 1536 C616 1536 564 1370 512 1077 L332 54 L150 54 L141 0 L563 0 L572 54 L390 54 L570 1077 Z " />
<glyph glyph-name="florin" unicode="&#x192;" horiz-adv-x="1121" d="M408 930 L703 930 L292 -241 C273 -289 215 -479 -16 -479 L-124 -479 L-143 -532 L-35 -532 C257 -532 325 -319 353 -241 L765 930 L1068 930 L1088 983 L785 983 L842 1143 C875 1227 919 1380 1150 1380 L1261 1380 L1280 1434 L1169 1434 C868 1434 820 1248 780 1143 L724 983 L429 983 L408 930 Z " />
<glyph glyph-name="Ohorn" unicode="&#x1a0;" horiz-adv-x="1652" d="M828 -20 C1287 -20 1588 309 1658 717 C1702 976 1640 1206 1467 1338 C1553 1359 1673 1416 1701 1573 L1640 1573 C1613 1419 1461 1387 1401 1380 C1314 1427 1206 1454 1076 1454 C617 1454 316 1125 246 717 C177 314 366 -20 828 -20 L828 -20 Z M312 717 C378 1094 650 1396 1072 1396 C1494 1396 1659 1094 1592 717 C1526 340 1254 38 832 38 C410 38 245 340 312 717 L312 717 Z " />
<glyph glyph-name="ohorn" unicode="&#x1a1;" horiz-adv-x="1226" d="M186 491 C133 189 283 -20 586 -20 C908 -20 1113 190 1166 491 C1192 642 1167 771 1098 861 C1193 875 1332 925 1364 1102 L1310 1102 C1280 933 1103 907 1058 903 C989 966 890 1002 766 1002 C453 1002 239 792 186 491 L186 491 Z M248 491 C296 763 487 948 757 948 C1036 948 1152 763 1104 491 C1056 218 864 34 595 34 C325 34 200 218 248 491 L248 491 Z " />
<glyph glyph-name="Uhorn" unicode="&#x1af;" horiz-adv-x="1801" d="M1481 585 L1620 1376 C1620 1376 1902 1368 1947 1626 L1885 1626 C1851 1430 1630 1434 1630 1434 L1378 1434 L1368 1376 L1558 1376 L1419 585 C1355 223 1142 37 860 37 C578 37 431 223 495 585 L634 1376 L824 1376 L834 1434 L392 1434 L382 1376 L572 1376 L433 585 C359 170 556 -20 856 -20 C1164 -20 1407 170 1481 585 L1481 585 Z " />
<glyph glyph-name="uhorn" unicode="&#x1b0;" horiz-adv-x="1509" d="M1279 982 L1038 982 L1029 928 L1211 928 L1129 462 C1085 211 965 34 709 34 C453 34 397 211 441 462 L532 982 L292 982 L283 928 L465 928 L383 462 C331 170 424 -20 706 -20 C934 -20 1036 120 1086 217 L1047 0 L1287 0 L1297 54 L1115 54 L1269 925 C1269 925 1551 919 1595 1170 L1541 1170 C1507 978 1279 982 1279 982 L1279 982 Z " />
<glyph glyph-name="uni01CD" unicode="&#x1cd;" horiz-adv-x="1737" d="M1225 0 L1657 0 L1667 58 L1492 58 L1154 1434 L874 1434 L864 1376 L1054 1376 L265 58 L90 58 L80 0 L512 0 L522 58 L336 58 L596 495 L1321 495 L1427 58 L1235 58 L1225 0 Z M1111 1360 L1307 553 L631 553 L1111 1360 Z M1099 1536 L1167 1536 L1425 1803 L1358 1803 L1136 1594 L990 1803 L933 1803 L1099 1536 Z " />
<glyph glyph-name="uni01CE" unicode="&#x1ce;" horiz-adv-x="1328" d="M729 1167 L797 1167 L1055 1434 L988 1434 L766 1225 L620 1434 L563 1434 L729 1167 Z M1141 982 L1091 700 C1074 847 968 1002 741 1002 C443 1002 236 772 186 491 C137 210 273 -20 561 -20 C806 -20 942 123 1015 270 L968 0 L1208 0 L1217 54 L1035 54 L1189 928 L1371 928 L1381 982 L1141 982 Z M1054 491 C1012 254 840 34 570 34 C300 34 206 254 248 491 C290 728 462 948 732 948 C1002 948 1096 728 1054 491 L1054 491 Z " />
<glyph glyph-name="uni01CF" unicode="&#x1cf;" horiz-adv-x="692" d="M325 58 L135 58 L125 0 L567 0 L577 58 L387 58 L619 1376 L809 1376 L819 1434 L377 1434 L367 1376 L557 1376 L325 58 Z M573 1536 L641 1536 L899 1803 L832 1803 L610 1594 L464 1803 L407 1803 L573 1536 Z " />
<glyph glyph-name="uni01D0" unicode="&#x1d0;" horiz-adv-x="652" d="M461 928 L307 54 L125 54 L116 0 L538 0 L547 54 L365 54 L529 982 L289 982 L279 928 L461 928 Z M492 1167 L560 1167 L818 1434 L751 1434 L529 1225 L383 1434 L326 1434 L492 1167 Z " />
<glyph glyph-name="uni01D1" unicode="&#x1d1;" horiz-adv-x="1652" d="M828 -20 C1287 -20 1588 309 1658 717 C1727 1120 1538 1454 1076 1454 C617 1454 316 1125 246 717 C177 314 366 -20 828 -20 L828 -20 Z M312 717 C378 1094 650 1396 1072 1396 C1494 1396 1659 1094 1592 717 C1526 340 1254 38 832 38 C410 38 245 340 312 717 L312 717 Z M1059 1536 L1127 1536 L1385 1803 L1318 1803 L1096 1594 L950 1803 L893 1803 L1059 1536 Z " />
<glyph glyph-name="uni01D2" unicode="&#x1d2;" horiz-adv-x="1180" d="M186 491 C133 189 283 -20 586 -20 C908 -20 1113 190 1166 491 C1219 793 1068 1002 766 1002 C453 1002 239 792 186 491 L186 491 Z M248 491 C296 763 487 948 757 948 C1036 948 1152 763 1104 491 C1056 218 864 34 595 34 C325 34 200 218 248 491 L248 491 Z M1098 1434 L1031 1434 L806 1225 L654 1434 L596 1434 L768 1167 L836 1167 L1098 1434 Z " />
<glyph glyph-name="uni01D3" unicode="&#x1d3;" horiz-adv-x="1708" d="M1481 585 L1620 1376 L1810 1376 L1820 1434 L1378 1434 L1368 1376 L1558 1376 L1419 585 C1355 223 1142 37 860 37 C578 37 431 223 495 585 L634 1376 L824 1376 L834 1434 L392 1434 L382 1376 L572 1376 L433 585 C359 170 556 -20 856 -20 C1164 -20 1407 170 1481 585 L1481 585 Z M1079 1536 L1147 1536 L1405 1803 L1338 1803 L1116 1594 L970 1803 L913 1803 L1079 1536 Z " />
<glyph glyph-name="uni01D4" unicode="&#x1d4;" horiz-adv-x="1408" d="M1279 982 L1038 982 L1029 928 L1211 928 L1129 462 C1085 211 965 34 709 34 C453 34 397 211 441 462 L532 982 L292 982 L283 928 L465 928 L383 462 C331 170 424 -20 706 -20 C934 -20 1036 120 1086 217 L1047 0 L1287 0 L1297 54 L1115 54 L1279 982 Z M858 1167 L926 1167 L1184 1434 L1117 1434 L895 1225 L749 1434 L692 1434 L858 1167 Z " />
<glyph glyph-name="uni01D5" unicode="&#x1d5;" horiz-adv-x="1708" d="M831 1745 L1491 1745 L1501 1799 L841 1799 L831 1745 Z M1481 585 L1620 1376 L1810 1376 L1820 1434 L1378 1434 L1368 1376 L1558 1376 L1419 585 C1355 223 1142 37 860 37 C578 37 431 223 495 585 L634 1376 L824 1376 L834 1434 L392 1434 L382 1376 L572 1376 L433 585 C359 170 556 -20 856 -20 C1164 -20 1407 170 1481 585 L1481 585 Z M913 1611 C907 1581 925 1556 958 1556 C996 1556 1017 1581 1023 1611 C1028 1641 1011 1666 977 1666 C942 1666 918 1641 913 1611 L913 1611 Z M1253 1611 C1247 1581 1265 1556 1298 1556 C1336 1556 1357 1581 1363 1611 C1368 1641 1351 1666 1317 1666 C1282 1666 1258 1641 1253 1611 L1253 1611 Z " />
<glyph glyph-name="uni01D6" unicode="&#x1d6;" horiz-adv-x="1408" d="M624 1422 L1284 1422 L1294 1476 L634 1476 L624 1422 Z M1279 982 L1038 982 L1029 928 L1211 928 L1129 462 C1085 211 965 34 709 34 C453 34 397 211 441 462 L532 982 L292 982 L283 928 L465 928 L383 462 C331 170 424 -20 706 -20 C934 -20 1036 120 1086 217 L1047 0 L1287 0 L1297 54 L1115 54 L1279 982 Z M705 1288 C699 1258 717 1233 750 1233 C788 1233 809 1258 815 1288 C820 1318 803 1343 769 1343 C734 1343 710 1318 705 1288 L705 1288 Z M1045 1288 C1039 1258 1057 1233 1090 1233 C1128 1233 1149 1258 1155 1288 C1160 1318 1143 1343 1109 1343 C1074 1343 1050 1318 1045 1288 L1045 1288 Z " />
<glyph glyph-name="uni01D7" unicode="&#x1d7;" horiz-adv-x="1708" d="M1132 1766 L1188 1766 L1485 2033 L1401 2033 L1132 1766 Z M1481 585 L1620 1376 L1810 1376 L1820 1434 L1378 1434 L1368 1376 L1558 1376 L1419 585 C1355 223 1142 37 860 37 C578 37 431 223 495 585 L634 1376 L824 1376 L834 1434 L392 1434 L382 1376 L572 1376 L433 585 C359 170 556 -20 856 -20 C1164 -20 1407 170 1481 585 L1481 585 Z M913 1611 C907 1581 925 1556 958 1556 C996 1556 1017 1581 1023 1611 C1028 1641 1011 1666 977 1666 C942 1666 918 1641 913 1611 L913 1611 Z M1253 1611 C1247 1581 1265 1556 1298 1556 C1336 1556 1357 1581 1363 1611 C1368 1641 1351 1666 1317 1666 C1282 1666 1258 1641 1253 1611 L1253 1611 Z " />
<glyph glyph-name="uni01D8" unicode="&#x1d8;" horiz-adv-x="1408" d="M925 1443 L981 1443 L1278 1710 L1194 1710 L925 1443 Z M1279 982 L1038 982 L1029 928 L1211 928 L1129 462 C1085 211 965 34 709 34 C453 34 397 211 441 462 L532 982 L292 982 L283 928 L465 928 L383 462 C331 170 424 -20 706 -20 C934 -20 1036 120 1086 217 L1047 0 L1287 0 L1297 54 L1115 54 L1279 982 Z M705 1288 C699 1258 717 1233 750 1233 C788 1233 809 1258 815 1288 C820 1318 803 1343 769 1343 C734 1343 710 1318 705 1288 L705 1288 Z M1045 1288 C1039 1258 1057 1233 1090 1233 C1128 1233 1149 1258 1155 1288 C1160 1318 1143 1343 1109 1343 C1074 1343 1050 1318 1045 1288 L1045 1288 Z " />
<glyph glyph-name="uni01D9" unicode="&#x1d9;" horiz-adv-x="1708" d="M1481 585 L1620 1376 L1810 1376 L1820 1434 L1378 1434 L1368 1376 L1558 1376 L1419 585 C1355 223 1142 37 860 37 C578 37 431 223 495 585 L634 1376 L824 1376 L834 1434 L392 1434 L382 1376 L572 1376 L433 585 C359 170 556 -20 856 -20 C1164 -20 1407 170 1481 585 L1481 585 Z M913 1611 C907 1581 925 1556 958 1556 C996 1556 1017 1581 1023 1611 C1028 1641 1011 1666 977 1666 C942 1666 918 1641 913 1611 L913 1611 Z M1253 1611 C1247 1581 1265 1556 1298 1556 C1336 1556 1357 1581 1363 1611 C1368 1641 1351 1666 1317 1666 C1282 1666 1258 1641 1253 1611 L1253 1611 Z " />
<glyph glyph-name="uni01DA" unicode="&#x1da;" horiz-adv-x="1408" d="M1279 982 L1038 982 L1029 928 L1211 928 L1129 462 C1085 211 965 34 709 34 C453 34 397 211 441 462 L532 982 L292 982 L283 928 L465 928 L383 462 C331 170 424 -20 706 -20 C934 -20 1036 120 1086 217 L1047 0 L1287 0 L1297 54 L1115 54 L1279 982 Z M705 1288 C699 1258 717 1233 750 1233 C788 1233 809 1258 815 1288 C820 1318 803 1343 769 1343 C734 1343 710 1318 705 1288 L705 1288 Z M1045 1288 C1039 1258 1057 1233 1090 1233 C1128 1233 1149 1258 1155 1288 C1160 1318 1143 1343 1109 1343 C1074 1343 1050 1318 1045 1288 L1045 1288 Z " />
<glyph glyph-name="uni01DB" unicode="&#x1db;" horiz-adv-x="1708" d="M1003 2033 L919 2033 L1123 1766 L1178 1766 L1003 2033 Z M1481 585 L1620 1376 L1810 1376 L1820 1434 L1378 1434 L1368 1376 L1558 1376 L1419 585 C1355 223 1142 37 860 37 C578 37 431 223 495 585 L634 1376 L824 1376 L834 1434 L392 1434 L382 1376 L572 1376 L433 585 C359 170 556 -20 856 -20 C1164 -20 1407 170 1481 585 L1481 585 Z M913 1611 C907 1581 925 1556 958 1556 C996 1556 1017 1581 1023 1611 C1028 1641 1011 1666 977 1666 C942 1666 918 1641 913 1611 L913 1611 Z M1253 1611 C1247 1581 1265 1556 1298 1556 C1336 1556 1357 1581 1363 1611 C1368 1641 1351 1666 1317 1666 C1282 1666 1258 1641 1253 1611 L1253 1611 Z " />
<glyph glyph-name="uni01DC" unicode="&#x1dc;" horiz-adv-x="1408" d="M796 1710 L712 1710 L916 1443 L971 1443 L796 1710 Z M1279 982 L1038 982 L1029 928 L1211 928 L1129 462 C1085 211 965 34 709 34 C453 34 397 211 441 462 L532 982 L292 982 L283 928 L465 928 L383 462 C331 170 424 -20 706 -20 C934 -20 1036 120 1086 217 L1047 0 L1287 0 L1297 54 L1115 54 L1279 982 Z M705 1288 C699 1258 717 1233 750 1233 C788 1233 809 1258 815 1288 C820 1318 803 1343 769 1343 C734 1343 710 1318 705 1288 L705 1288 Z M1045 1288 C1039 1258 1057 1233 1090 1233 C1128 1233 1149 1258 1155 1288 C1160 1318 1143 1343 1109 1343 C1074 1343 1050 1318 1045 1288 L1045 1288 Z " />
<glyph glyph-name="uni01DE" unicode="&#x1de;" horiz-adv-x="1737" d="M846 1745 L1506 1745 L1516 1799 L856 1799 L846 1745 Z M1225 0 L1657 0 L1667 58 L1492 58 L1154 1434 L874 1434 L864 1376 L1054 1376 L265 58 L90 58 L80 0 L512 0 L522 58 L336 58 L596 495 L1321 495 L1427 58 L1235 58 L1225 0 Z M1111 1360 L1307 553 L631 553 L1111 1360 Z M928 1611 C922 1581 940 1556 973 1556 C1011 1556 1032 1581 1038 1611 C1043 1641 1026 1666 992 1666 C957 1666 933 1641 928 1611 L928 1611 Z M1268 1611 C1262 1581 1280 1556 1313 1556 C1351 1556 1372 1581 1378 1611 C1383 1641 1366 1666 1332 1666 C1297 1666 1273 1641 1268 1611 L1268 1611 Z " />
<glyph glyph-name="uni01DF" unicode="&#x1df;" horiz-adv-x="1328" d="M490 1422 L1150 1422 L1160 1476 L500 1476 L490 1422 Z M572 1288 C566 1258 584 1233 617 1233 C655 1233 676 1258 682 1288 C687 1318 670 1343 636 1343 C601 1343 577 1318 572 1288 L572 1288 Z M912 1288 C906 1258 924 1233 957 1233 C995 1233 1016 1258 1022 1288 C1027 1318 1010 1343 976 1343 C941 1343 917 1318 912 1288 L912 1288 Z M1141 982 L1091 700 C1074 847 968 1002 741 1002 C443 1002 236 772 186 491 C137 210 273 -20 561 -20 C806 -20 942 123 1015 270 L968 0 L1208 0 L1217 54 L1035 54 L1189 928 L1371 928 L1381 982 L1141 982 Z M1054 491 C1012 254 840 34 570 34 C300 34 206 254 248 491 C290 728 462 948 732 948 C1002 948 1096 728 1054 491 L1054 491 Z " />
<glyph glyph-name="uni01E0" unicode="&#x1e0;" horiz-adv-x="1737" d="M846 1745 L1506 1745 L1516 1799 L856 1799 L846 1745 Z M1225 0 L1657 0 L1667 58 L1492 58 L1154 1434 L874 1434 L864 1376 L1054 1376 L265 58 L90 58 L80 0 L512 0 L522 58 L336 58 L596 495 L1321 495 L1427 58 L1235 58 L1225 0 Z M1111 1360 L1307 553 L631 553 L1111 1360 Z M1098 1611 C1092 1581 1110 1556 1143 1556 C1181 1556 1202 1581 1208 1611 C1213 1641 1196 1666 1162 1666 C1127 1666 1103 1641 1098 1611 L1098 1611 Z " />
<glyph glyph-name="uni01E1" unicode="&#x1e1;" horiz-adv-x="1328" d="M490 1422 L1150 1422 L1160 1476 L500 1476 L490 1422 Z M742 1288 C736 1258 754 1233 787 1233 C825 1233 846 1258 852 1288 C857 1318 840 1343 806 1343 C771 1343 747 1318 742 1288 L742 1288 Z M1141 982 L1091 700 C1074 847 968 1002 741 1002 C443 1002 236 772 186 491 C137 210 273 -20 561 -20 C806 -20 942 123 1015 270 L968 0 L1208 0 L1217 54 L1035 54 L1189 928 L1371 928 L1381 982 L1141 982 Z M1054 491 C1012 254 840 34 570 34 C300 34 206 254 248 491 C290 728 462 948 732 948 C1002 948 1096 728 1054 491 L1054 491 Z " />
<glyph glyph-name="uni01E2" unicode="&#x1e2;" horiz-adv-x="2318" d="M1515 1556 L2175 1556 L2184 1610 L1524 1610 L1515 1556 Z M2420 1434 L1260 1434 L1250 1376 L1436 1376 L319 58 L150 58 L140 0 L572 0 L582 58 L397 58 L806 541 L1353 541 L1258 0 L2178 0 L2213 200 L2151 200 L2126 58 L1330 58 L1444 705 L2152 705 L2162 763 L1454 763 L1562 1376 L2348 1376 L2315 1186 L2377 1186 L2420 1434 Z M1497 1356 L1363 599 L856 599 L1497 1356 Z " />
<glyph glyph-name="uni01E3" unicode="&#x1e3;" horiz-adv-x="1836" d="M697 948 C972 948 976 824 943 592 C715 625 210 627 149 279 C112 72 251 -20 451 -20 C639 -20 813 82 920 283 C951 97 1080 -20 1284 -20 C1505 -20 1628 58 1687 105 L1651 144 C1594 100 1491 34 1293 34 C1061 34 947 177 982 464 L1817 464 C1883 835 1715 1002 1464 1002 C1275 1002 1114 901 1016 738 C1018 898 949 1002 706 1002 C565 1002 448 970 356 922 L374 872 C459 916 589 948 697 948 L697 948 Z M211 279 C264 580 752 571 934 541 L915 432 C886 268 732 34 460 34 C278 34 183 122 211 279 L211 279 Z M992 518 C1051 776 1226 948 1455 948 C1694 948 1797 776 1765 518 L992 518 Z M829 1380 L1489 1380 L1498 1434 L838 1434 L829 1380 Z " />
<glyph glyph-name="uni01E4" unicode="&#x1e4;" horiz-adv-x="1592" d="M1072 1396 C1332 1396 1469 1312 1469 1312 L1446 1185 L1508 1185 L1536 1345 C1536 1345 1360 1454 1076 1454 C617 1454 316 1125 246 717 C177 313 367 -20 826 -20 C1020 -20 1195 33 1344 139 L1394 424 L1566 424 L1576 482 L1404 482 L1452 754 L995 754 L985 696 L1380 696 L1342 482 L947 482 L937 424 L1332 424 L1289 176 C1159 88 1010 38 832 38 C410 38 245 340 312 717 C378 1094 650 1396 1072 1396 L1072 1396 Z " />
<glyph glyph-name="uni01E5" unicode="&#x1e5;" horiz-adv-x="1328" d="M1141 982 L1091 700 C1074 847 968 1002 741 1002 C443 1002 236 772 186 491 C137 210 273 -20 561 -20 C806 -20 942 123 1015 270 L968 0 C954 -79 935 -147 910 -205 L605 -205 L596 -259 L884 -259 C801 -412 669 -478 480 -478 C354 -478 245 -438 168 -378 L135 -427 C218 -494 341 -532 471 -532 C673 -532 843 -476 947 -259 L1133 -259 L1142 -205 L971 -205 C993 -147 1012 -79 1026 0 L1189 928 L1371 928 L1381 982 L1141 982 Z M1054 491 C1012 254 840 34 570 34 C300 34 206 254 248 491 C290 728 462 948 732 948 C1002 948 1096 728 1054 491 L1054 491 Z " />
<glyph glyph-name="Gcaron" unicode="&#x1e6;" horiz-adv-x="1460" d="M1054 1536 L1122 1536 L1380 1803 L1313 1803 L1091 1594 L945 1803 L888 1803 L1054 1536 Z M1072 1396 C1332 1396 1469 1312 1469 1312 L1446 1185 L1508 1185 L1536 1345 C1536 1345 1360 1454 1076 1454 C617 1454 316 1125 246 717 C177 313 367 -20 826 -20 C1020 -20 1195 33 1344 139 L1452 754 L995 754 L985 696 L1380 696 L1289 176 C1159 88 1010 38 832 38 C410 38 245 340 312 717 C378 1094 650 1396 1072 1396 L1072 1396 Z " />
<glyph glyph-name="gcaron" unicode="&#x1e7;" horiz-adv-x="1328" d="M1141 982 L1091 700 C1074 847 968 1002 741 1002 C443 1002 236 772 186 491 C137 210 273 -20 561 -20 C806 -20 942 123 1015 270 L968 0 C907 -341 754 -478 480 -478 C354 -478 245 -438 168 -378 L135 -427 C218 -494 341 -532 471 -532 C737 -532 949 -435 1026 0 L1189 928 L1371 928 L1381 982 L1141 982 Z M1054 491 C1012 254 840 34 570 34 C300 34 206 254 248 491 C290 728 462 948 732 948 C1002 948 1096 728 1054 491 L1054 491 Z M1071 1434 L1004 1434 L779 1225 L627 1434 L569 1434 L741 1167 L809 1167 L1071 1434 Z " />
<glyph glyph-name="uni01E8" unicode="&#x1e8;" horiz-adv-x="1557" d="M988 1536 L1056 1536 L1314 1803 L1247 1803 L1025 1594 L879 1803 L822 1803 L988 1536 Z M1219 0 L1417 0 L1427 58 L1257 58 L814 822 L1487 1376 L1649 1376 L1659 1434 L1227 1434 L1217 1376 L1395 1376 L505 642 L634 1376 L824 1376 L834 1434 L392 1434 L382 1376 L572 1376 L340 58 L150 58 L140 0 L582 0 L592 58 L402 58 L489 554 L766 782 L1219 0 Z " />
<glyph glyph-name="uni01E9" unicode="&#x1e9;" horiz-adv-x="1311" d="M1191 0 L1200 54 L1044 54 L708 588 L1155 928 L1315 928 L1325 982 L903 982 L893 928 L1066 928 L439 452 L627 1516 L387 1516 L377 1462 L559 1462 L311 54 L129 54 L120 0 L542 0 L551 54 L369 54 L426 375 L663 555 L1012 0 L1191 0 Z M860 1536 L928 1536 L1186 1803 L1119 1803 L897 1594 L751 1803 L694 1803 L860 1536 Z " />
<glyph glyph-name="uni01EA" unicode="&#x1ea;" horiz-adv-x="1652" d="M828 -20 C852 -20 876 -19 899 -17 C840 -40 755 -93 733 -205 C702 -360 860 -393 918 -393 L929 -334 C929 -334 768 -340 787 -205 C806 -68 939 -19 993 -5 C1359 63 1597 360 1658 717 C1727 1120 1538 1454 1076 1454 C617 1454 316 1125 246 717 C177 314 366 -20 828 -20 L828 -20 Z M312 717 C378 1094 650 1396 1072 1396 C1494 1396 1659 1094 1592 717 C1526 340 1254 38 832 38 C410 38 245 340 312 717 L312 717 Z " />
<glyph glyph-name="uni01EB" unicode="&#x1eb;" horiz-adv-x="1180" d="M186 491 C133 189 283 -20 586 -20 C600 -20 615 -19 629 -18 C570 -42 488 -95 466 -205 C435 -360 593 -393 651 -393 L662 -334 C662 -334 501 -340 520 -205 C538 -73 661 -23 719 -7 C964 43 1120 234 1166 491 C1219 793 1068 1002 766 1002 C453 1002 239 792 186 491 L186 491 Z M248 491 C296 763 487 948 757 948 C1036 948 1152 763 1104 491 C1056 218 864 34 595 34 C325 34 200 218 248 491 L248 491 Z " />
<glyph glyph-name="uni01EC" unicode="&#x1ec;" horiz-adv-x="1652" d="M770 1556 L1430 1556 L1439 1610 L779 1610 L770 1556 Z M828 -20 C852 -20 876 -19 899 -17 C840 -40 755 -93 733 -205 C702 -360 860 -393 918 -393 L929 -334 C929 -334 768 -340 787 -205 C806 -68 939 -19 993 -5 C1359 63 1597 360 1658 717 C1727 1120 1538 1454 1076 1454 C617 1454 316 1125 246 717 C177 314 366 -20 828 -20 L828 -20 Z M312 717 C378 1094 650 1396 1072 1396 C1494 1396 1659 1094 1592 717 C1526 340 1254 38 832 38 C410 38 245 340 312 717 L312 717 Z " />
<glyph glyph-name="uni01ED" unicode="&#x1ed;" horiz-adv-x="1180" d="M503 1380 L1163 1380 L1172 1434 L512 1434 L503 1380 Z M186 491 C133 189 283 -20 586 -20 C600 -20 615 -19 629 -18 C570 -42 488 -95 466 -205 C435 -360 593 -393 651 -393 L662 -334 C662 -334 501 -340 520 -205 C538 -73 661 -23 719 -7 C964 43 1120 234 1166 491 C1219 793 1068 1002 766 1002 C453 1002 239 792 186 491 L186 491 Z M248 491 C296 763 487 948 757 948 C1036 948 1152 763 1104 491 C1056 218 864 34 595 34 C325 34 200 218 248 491 L248 491 Z " />
<glyph glyph-name="uni01F0" unicode="&#x1f0;" horiz-adv-x="534" d="M-190 -514 C-157 -526 -108 -532 -61 -532 C170 -532 233 -367 284 -74 L471 982 L231 982 L221 928 L403 928 L226 -74 C187 -299 145 -479 -52 -479 C-98 -479 -138 -471 -165 -463 L-190 -514 Z M776 1434 L709 1434 L484 1225 L332 1434 L274 1434 L446 1167 L514 1167 L776 1434 Z " />
<glyph glyph-name="uni01F4" unicode="&#x1f4;" horiz-adv-x="1460" d="M1050 1536 L1106 1536 L1403 1803 L1319 1803 L1050 1536 Z M1072 1396 C1332 1396 1469 1312 1469 1312 L1446 1185 L1508 1185 L1536 1345 C1536 1345 1360 1454 1076 1454 C617 1454 316 1125 246 717 C177 313 367 -20 826 -20 C1020 -20 1195 33 1344 139 L1452 754 L995 754 L985 696 L1380 696 L1289 176 C1159 88 1010 38 832 38 C410 38 245 340 312 717 C378 1094 650 1396 1072 1396 L1072 1396 Z " />
<glyph glyph-name="uni01F5" unicode="&#x1f5;" horiz-adv-x="1328" d="M729 1167 L785 1167 L1082 1434 L998 1434 L729 1167 Z M1141 982 L1091 700 C1074 847 968 1002 741 1002 C443 1002 236 772 186 491 C137 210 273 -20 561 -20 C806 -20 942 123 1015 270 L968 0 C907 -341 754 -478 480 -478 C354 -478 245 -438 168 -378 L135 -427 C218 -494 341 -532 471 -532 C737 -532 949 -435 1026 0 L1189 928 L1371 928 L1381 982 L1141 982 Z M1054 491 C1012 254 840 34 570 34 C300 34 206 254 248 491 C290 728 462 948 732 948 C1002 948 1096 728 1054 491 L1054 491 Z " />
<glyph glyph-name="uni01F8" unicode="&#x1f8;" horiz-adv-x="1691" d="M970 1803 L886 1803 L1090 1536 L1145 1536 L970 1803 Z M572 1376 L340 58 L150 58 L140 0 L582 0 L592 58 L402 58 L631 1360 L1281 0 L1361 0 L1603 1376 L1793 1376 L1803 1434 L1361 1434 L1351 1376 L1541 1376 L1312 74 L662 1434 L392 1434 L382 1376 L572 1376 Z " />
<glyph glyph-name="uni01F9" unicode="&#x1f9;" horiz-adv-x="1408" d="M731 1434 L647 1434 L851 1167 L906 1167 L731 1434 Z M533 982 L293 982 L283 928 L465 928 L311 54 L129 54 L120 0 L542 0 L551 54 L369 54 L451 520 C495 771 615 948 871 948 C1127 948 1183 771 1139 520 L1048 0 L1288 0 L1297 54 L1115 54 L1197 520 C1249 812 1156 1002 880 1002 C652 1002 544 862 494 765 L533 982 Z " />
<glyph glyph-name="Aringacute" unicode="&#x1fa;" horiz-adv-x="1737" d="M1225 0 L1657 0 L1667 58 L1492 58 L1154 1434 L874 1434 L864 1376 L1054 1376 L265 58 L90 58 L80 0 L512 0 L522 58 L336 58 L596 495 L1321 495 L1427 58 L1235 58 L1225 0 Z M1111 1360 L1307 553 L631 553 L1111 1360 Z M1012 1690 C997 1606 1051 1536 1139 1536 C1239 1536 1303 1600 1320 1690 C1336 1774 1277 1844 1193 1844 C1188 1844 1183 1844 1178 1843 L1409 2051 L1325 2051 L1070 1798 C1039 1770 1019 1732 1012 1690 L1012 1690 Z M1053 1690 C1064 1753 1113 1805 1186 1805 C1259 1805 1290 1753 1279 1690 C1268 1627 1219 1577 1146 1577 C1073 1577 1042 1627 1053 1690 L1053 1690 Z " />
<glyph glyph-name="aringacute" unicode="&#x1fb;" horiz-adv-x="1328" d="M645 1280 C630 1196 684 1126 772 1126 C872 1126 936 1190 953 1280 C969 1364 910 1434 826 1434 C821 1434 816 1434 811 1433 L1042 1641 L958 1641 L703 1388 C672 1360 652 1322 645 1280 L645 1280 Z M686 1280 C697 1343 746 1395 819 1395 C892 1395 923 1343 912 1280 C901 1217 852 1167 779 1167 C706 1167 675 1217 686 1280 L686 1280 Z M1141 982 L1091 700 C1074 847 968 1002 741 1002 C443 1002 236 772 186 491 C137 210 273 -20 561 -20 C806 -20 942 123 1015 270 L968 0 L1208 0 L1217 54 L1035 54 L1189 928 L1371 928 L1381 982 L1141 982 Z M1054 491 C1012 254 840 34 570 34 C300 34 206 254 248 491 C290 728 462 948 732 948 C1002 948 1096 728 1054 491 L1054 491 Z " />
<glyph glyph-name="AEacute" unicode="&#x1fc;" horiz-adv-x="2318" d="M1542 1536 L1598 1536 L1895 1803 L1811 1803 L1542 1536 Z M2420 1434 L1260 1434 L1250 1376 L1436 1376 L319 58 L150 58 L140 0 L572 0 L582 58 L397 58 L806 541 L1353 541 L1258 0 L2178 0 L2213 200 L2151 200 L2126 58 L1330 58 L1444 705 L2152 705 L2162 763 L1454 763 L1562 1376 L2348 1376 L2315 1186 L2377 1186 L2420 1434 Z M1497 1356 L1363 599 L856 599 L1497 1356 Z " />
<glyph glyph-name="aeacute" unicode="&#x1fd;" horiz-adv-x="1836" d="M697 948 C972 948 976 824 943 592 C715 625 210 627 149 279 C112 72 251 -20 451 -20 C639 -20 813 82 920 283 C951 97 1080 -20 1284 -20 C1505 -20 1628 58 1687 105 L1651 144 C1594 100 1491 34 1293 34 C1061 34 947 177 982 464 L1817 464 C1883 835 1715 1002 1464 1002 C1275 1002 1114 901 1016 738 C1018 898 949 1002 706 1002 C565 1002 448 970 356 922 L374 872 C459 916 589 948 697 948 L697 948 Z M211 279 C264 580 752 571 934 541 L915 432 C886 268 732 34 460 34 C278 34 183 122 211 279 L211 279 Z M992 518 C1051 776 1226 948 1455 948 C1694 948 1797 776 1765 518 L992 518 Z M1086 1167 L1142 1167 L1439 1434 L1355 1434 L1086 1167 Z " />
<glyph glyph-name="Oslashacute" unicode="&#x1fe;" horiz-adv-x="1652" d="M1048 1536 L1104 1536 L1401 1803 L1317 1803 L1048 1536 Z M828 -20 C1287 -20 1588 309 1658 717 C1706 998 1628 1245 1420 1369 L1504 1495 L1435 1495 L1369 1396 C1288 1433 1190 1454 1076 1454 C617 1454 316 1125 246 717 C198 436 275 188 482 64 L399 -61 L469 -61 L534 37 C615 0 713 -20 828 -20 L828 -20 Z M1592 717 C1526 340 1254 38 832 38 C729 38 641 56 568 89 L1386 1318 C1573 1205 1638 979 1592 717 L1592 717 Z M312 717 C378 1094 650 1396 1072 1396 C1175 1396 1262 1378 1335 1345 L517 116 C331 229 265 455 312 717 L312 717 Z " />
<glyph glyph-name="oslashacute" unicode="&#x1ff;" horiz-adv-x="1220" d="M783 1167 L839 1167 L1136 1434 L1052 1434 L783 1167 Z M206 491 C171 290 225 130 355 46 L296 -41 L371 -41 L410 16 C465 -7 531 -20 606 -20 C928 -20 1133 190 1186 491 C1221 692 1166 853 1035 937 L1094 1024 L1018 1024 L979 966 C924 989 859 1002 786 1002 C473 1002 259 792 206 491 L206 491 Z M615 34 C549 34 491 45 443 65 L1002 889 C1115 814 1156 672 1124 491 C1076 218 884 34 615 34 L615 34 Z M268 491 C316 763 507 948 777 948 C842 948 899 937 946 918 L388 95 C279 171 236 312 268 491 L268 491 Z " />
<glyph glyph-name="uni0200" unicode="&#x200;" horiz-adv-x="1737" d="M870 1803 L786 1803 L990 1536 L1045 1536 L870 1803 Z M1090 1803 L1006 1803 L1210 1536 L1265 1536 L1090 1803 Z M1225 0 L1657 0 L1667 58 L1492 58 L1154 1434 L874 1434 L864 1376 L1054 1376 L265 58 L90 58 L80 0 L512 0 L522 58 L336 58 L596 495 L1321 495 L1427 58 L1235 58 L1225 0 Z M1111 1360 L1307 553 L631 553 L1111 1360 Z " />
<glyph glyph-name="uni0201" unicode="&#x201;" horiz-adv-x="1328" d="M518 1434 L434 1434 L638 1167 L693 1167 L518 1434 Z M738 1434 L654 1434 L858 1167 L913 1167 L738 1434 Z M1141 982 L1091 700 C1074 847 968 1002 741 1002 C443 1002 236 772 186 491 C137 210 273 -20 561 -20 C806 -20 942 123 1015 270 L968 0 L1208 0 L1217 54 L1035 54 L1189 928 L1371 928 L1381 982 L1141 982 Z M1054 491 C1012 254 840 34 570 34 C300 34 206 254 248 491 C290 728 462 948 732 948 C1002 948 1096 728 1054 491 L1054 491 Z " />
<glyph glyph-name="uni0202" unicode="&#x202;" horiz-adv-x="1737" d="M1225 0 L1657 0 L1667 58 L1492 58 L1154 1434 L874 1434 L864 1376 L1054 1376 L265 58 L90 58 L80 0 L512 0 L522 58 L336 58 L596 495 L1321 495 L1427 58 L1235 58 L1225 0 Z M1111 1360 L1307 553 L631 553 L1111 1360 Z M1174 1740 C929 1740 844 1536 844 1536 L903 1536 C977 1651 1070 1686 1164 1686 C1260 1686 1340 1651 1376 1536 L1432 1536 C1432 1536 1403 1740 1174 1740 L1174 1740 Z " />
<glyph glyph-name="uni0203" unicode="&#x203;" horiz-adv-x="1328" d="M844 1434 C599 1434 514 1230 514 1230 L573 1230 C647 1345 740 1380 834 1380 C930 1380 1010 1345 1046 1230 L1102 1230 C1102 1230 1073 1434 844 1434 L844 1434 Z M1141 982 L1091 700 C1074 847 968 1002 741 1002 C443 1002 236 772 186 491 C137 210 273 -20 561 -20 C806 -20 942 123 1015 270 L968 0 L1208 0 L1217 54 L1035 54 L1189 928 L1371 928 L1381 982 L1141 982 Z M1054 491 C1012 254 840 34 570 34 C300 34 206 254 248 491 C290 728 462 948 732 948 C1002 948 1096 728 1054 491 L1054 491 Z " />
<glyph glyph-name="uni0204" unicode="&#x204;" horiz-adv-x="1390" d="M1387 1186 L1449 1186 L1492 1434 L392 1434 L382 1376 L572 1376 L340 58 L150 58 L140 0 L1250 0 L1285 200 L1223 200 L1198 58 L402 58 L516 705 L1224 705 L1234 763 L526 763 L634 1376 L1420 1376 L1387 1186 Z M730 1803 L646 1803 L850 1536 L905 1536 L730 1803 Z M950 1803 L866 1803 L1070 1536 L1125 1536 L950 1803 Z " />
<glyph glyph-name="uni0205" unicode="&#x205;" horiz-adv-x="1097" d="M554 34 C317 34 211 204 243 464 L1078 464 C1144 835 976 1002 725 1002 C453 1002 239 792 186 491 C133 189 273 -20 545 -20 C754 -20 879 40 945 84 L914 131 C854 94 738 34 554 34 L554 34 Z M253 518 C312 776 487 948 716 948 C975 948 1058 776 1026 518 L253 518 Z M519 1434 L435 1434 L639 1167 L694 1167 L519 1434 Z M739 1434 L655 1434 L859 1167 L914 1167 L739 1434 Z " />
<glyph glyph-name="uni0206" unicode="&#x206;" horiz-adv-x="1390" d="M1387 1186 L1449 1186 L1492 1434 L392 1434 L382 1376 L572 1376 L340 58 L150 58 L140 0 L1250 0 L1285 200 L1223 200 L1198 58 L402 58 L516 705 L1224 705 L1234 763 L526 763 L634 1376 L1420 1376 L1387 1186 Z M1034 1740 C789 1740 704 1536 704 1536 L763 1536 C837 1651 930 1686 1024 1686 C1120 1686 1200 1651 1236 1536 L1292 1536 C1292 1536 1263 1740 1034 1740 L1034 1740 Z " />
<glyph glyph-name="uni0207" unicode="&#x207;" horiz-adv-x="1097" d="M554 34 C317 34 211 204 243 464 L1078 464 C1144 835 976 1002 725 1002 C453 1002 239 792 186 491 C133 189 273 -20 545 -20 C754 -20 879 40 945 84 L914 131 C854 94 738 34 554 34 L554 34 Z M253 518 C312 776 487 948 716 948 C975 948 1058 776 1026 518 L253 518 Z M806 1434 C561 1434 476 1230 476 1230 L535 1230 C609 1345 702 1380 796 1380 C892 1380 972 1345 1008 1230 L1064 1230 C1064 1230 1035 1434 806 1434 L806 1434 Z " />
<glyph glyph-name="uni0208" unicode="&#x208;" horiz-adv-x="726" d="M300 58 L110 58 L100 0 L542 0 L552 58 L362 58 L594 1376 L784 1376 L794 1434 L352 1434 L342 1376 L532 1376 L300 58 Z M330 1803 L246 1803 L450 1536 L505 1536 L330 1803 Z M550 1803 L466 1803 L670 1536 L725 1536 L550 1803 Z " />
<glyph glyph-name="uni0209" unicode="&#x209;" horiz-adv-x="600" d="M223 1434 L139 1434 L343 1167 L398 1167 L223 1434 Z M443 1434 L359 1434 L563 1167 L618 1167 L443 1434 Z M425 928 L271 54 L89 54 L80 0 L502 0 L511 54 L329 54 L493 982 L253 982 L243 928 L425 928 Z " />
<glyph glyph-name="uni020A" unicode="&#x20a;" horiz-adv-x="792" d="M374 58 L184 58 L174 0 L616 0 L626 58 L436 58 L668 1376 L858 1376 L868 1434 L426 1434 L416 1376 L606 1376 L374 58 Z M698 1740 C453 1740 368 1536 368 1536 L427 1536 C501 1651 594 1686 688 1686 C784 1686 864 1651 900 1536 L956 1536 C956 1536 927 1740 698 1740 L698 1740 Z " />
<glyph glyph-name="uni020B" unicode="&#x20b;" horiz-adv-x="752" d="M510 928 L356 54 L174 54 L165 0 L587 0 L596 54 L414 54 L578 982 L338 982 L328 928 L510 928 Z M629 1434 C384 1434 299 1230 299 1230 L358 1230 C432 1345 525 1380 619 1380 C715 1380 795 1345 831 1230 L887 1230 C887 1230 858 1434 629 1434 L629 1434 Z " />
<glyph glyph-name="uni020C" unicode="&#x20c;" horiz-adv-x="1652" d="M851 1803 L767 1803 L971 1536 L1026 1536 L851 1803 Z M1071 1803 L987 1803 L1191 1536 L1246 1536 L1071 1803 Z M828 -20 C1287 -20 1588 309 1658 717 C1727 1120 1538 1454 1076 1454 C617 1454 316 1125 246 717 C177 314 366 -20 828 -20 L828 -20 Z M312 717 C378 1094 650 1396 1072 1396 C1494 1396 1659 1094 1592 717 C1526 340 1254 38 832 38 C410 38 245 340 312 717 L312 717 Z " />
<glyph glyph-name="uni020D" unicode="&#x20d;" horiz-adv-x="1180" d="M186 491 C133 189 283 -20 586 -20 C908 -20 1113 190 1166 491 C1219 793 1068 1002 766 1002 C453 1002 239 792 186 491 L186 491 Z M248 491 C296 763 487 948 757 948 C1036 948 1152 763 1104 491 C1056 218 864 34 595 34 C325 34 200 218 248 491 L248 491 Z M540 1434 L456 1434 L660 1167 L715 1167 L540 1434 Z M760 1434 L676 1434 L880 1167 L935 1167 L760 1434 Z " />
<glyph glyph-name="uni020E" unicode="&#x20e;" horiz-adv-x="1652" d="M828 -20 C1287 -20 1588 309 1658 717 C1727 1120 1538 1454 1076 1454 C617 1454 316 1125 246 717 C177 314 366 -20 828 -20 L828 -20 Z M312 717 C378 1094 650 1396 1072 1396 C1494 1396 1659 1094 1592 717 C1526 340 1254 38 832 38 C410 38 245 340 312 717 L312 717 Z M1130 1740 C885 1740 800 1536 800 1536 L859 1536 C933 1651 1026 1686 1120 1686 C1216 1686 1296 1651 1332 1536 L1388 1536 C1388 1536 1359 1740 1130 1740 L1130 1740 Z " />
<glyph glyph-name="uni020F" unicode="&#x20f;" horiz-adv-x="1180" d="M186 491 C133 189 283 -20 586 -20 C908 -20 1113 190 1166 491 C1219 793 1068 1002 766 1002 C453 1002 239 792 186 491 L186 491 Z M248 491 C296 763 487 948 757 948 C1036 948 1152 763 1104 491 C1056 218 864 34 595 34 C325 34 200 218 248 491 L248 491 Z M843 1434 C598 1434 513 1230 513 1230 L572 1230 C646 1345 739 1380 833 1380 C929 1380 1009 1345 1045 1230 L1101 1230 C1101 1230 1072 1434 843 1434 L843 1434 Z " />
<glyph glyph-name="uni0210" unicode="&#x210;" horiz-adv-x="1469" d="M741 1803 L657 1803 L861 1536 L916 1536 L741 1803 Z M961 1803 L877 1803 L1081 1536 L1136 1536 L961 1803 Z M1136 0 L1349 0 L1359 58 L1183 58 L1023 653 C1335 656 1464 838 1497 1043 C1529 1243 1451 1434 1180 1434 L392 1434 L382 1376 L572 1376 L340 58 L150 58 L140 0 L582 0 L592 58 L402 58 L507 653 L960 653 L1136 0 Z M1170 1376 C1411 1376 1463 1213 1433 1043 C1404 875 1294 711 1053 711 L517 711 L634 1376 L1170 1376 Z " />
<glyph glyph-name="uni0211" unicode="&#x211;" horiz-adv-x="937" d="M478 1434 L394 1434 L598 1167 L653 1167 L478 1434 Z M698 1434 L614 1434 L818 1167 L873 1167 L698 1434 Z M311 54 L129 54 L120 0 L542 0 L551 54 L369 54 L451 520 C495 771 615 948 871 948 C931 948 979 939 1018 921 L1057 967 C1010 990 951 1002 880 1002 C652 1002 544 862 494 765 L533 982 L293 982 L283 928 L465 928 L311 54 Z " />
<glyph glyph-name="uni0212" unicode="&#x212;" horiz-adv-x="1469" d="M1010 1740 C765 1740 680 1536 680 1536 L739 1536 C813 1651 906 1686 1000 1686 C1096 1686 1176 1651 1212 1536 L1268 1536 C1268 1536 1239 1740 1010 1740 L1010 1740 Z M1136 0 L1349 0 L1359 58 L1183 58 L1023 653 C1335 656 1464 838 1497 1043 C1529 1243 1451 1434 1180 1434 L392 1434 L382 1376 L572 1376 L340 58 L150 58 L140 0 L582 0 L592 58 L402 58 L507 653 L960 653 L1136 0 Z M1170 1376 C1411 1376 1463 1213 1433 1043 C1404 875 1294 711 1053 711 L517 711 L634 1376 L1170 1376 Z " />
<glyph glyph-name="uni0213" unicode="&#x213;" horiz-adv-x="937" d="M311 54 L129 54 L120 0 L542 0 L551 54 L369 54 L451 520 C495 771 615 948 871 948 C931 948 979 939 1018 921 L1057 967 C1010 990 951 1002 880 1002 C652 1002 544 862 494 765 L533 982 L293 982 L283 928 L465 928 L311 54 Z M778 1434 C533 1434 448 1230 448 1230 L507 1230 C581 1345 674 1380 768 1380 C864 1380 944 1345 980 1230 L1036 1230 C1036 1230 1007 1434 778 1434 L778 1434 Z " />
<glyph glyph-name="uni0214" unicode="&#x214;" horiz-adv-x="1708" d="M859 1803 L775 1803 L979 1536 L1034 1536 L859 1803 Z M1079 1803 L995 1803 L1199 1536 L1254 1536 L1079 1803 Z M1481 585 L1620 1376 L1810 1376 L1820 1434 L1378 1434 L1368 1376 L1558 1376 L1419 585 C1355 223 1142 37 860 37 C578 37 431 223 495 585 L634 1376 L824 1376 L834 1434 L392 1434 L382 1376 L572 1376 L433 585 C359 170 556 -20 856 -20 C1164 -20 1407 170 1481 585 L1481 585 Z " />
<glyph glyph-name="uni0215" unicode="&#x215;" horiz-adv-x="1408" d="M533 982 L293 982 L283 928 L465 928 L383 462 C331 170 418 -20 700 -20 C928 -20 1036 120 1086 217 L1048 0 L1288 0 L1297 54 L1115 54 L1279 982 L1039 982 L1029 928 L1211 928 L1129 462 C1085 211 965 34 709 34 C453 34 397 211 441 462 L533 982 Z M638 1434 L554 1434 L758 1167 L813 1167 L638 1434 Z M858 1434 L774 1434 L978 1167 L1033 1167 L858 1434 Z " />
<glyph glyph-name="uni0216" unicode="&#x216;" horiz-adv-x="1708" d="M1481 585 L1620 1376 L1810 1376 L1820 1434 L1378 1434 L1368 1376 L1558 1376 L1419 585 C1355 223 1142 37 860 37 C578 37 431 223 495 585 L634 1376 L824 1376 L834 1434 L392 1434 L382 1376 L572 1376 L433 585 C359 170 556 -20 856 -20 C1164 -20 1407 170 1481 585 L1481 585 Z M1150 1740 C905 1740 820 1536 820 1536 L879 1536 C953 1651 1046 1686 1140 1686 C1236 1686 1316 1651 1352 1536 L1408 1536 C1408 1536 1379 1740 1150 1740 L1150 1740 Z " />
<glyph glyph-name="uni0217" unicode="&#x217;" horiz-adv-x="1408" d="M533 982 L293 982 L283 928 L465 928 L383 462 C331 170 418 -20 700 -20 C928 -20 1036 120 1086 217 L1048 0 L1288 0 L1297 54 L1115 54 L1279 982 L1039 982 L1029 928 L1211 928 L1129 462 C1085 211 965 34 709 34 C453 34 397 211 441 462 L533 982 Z M956 1434 C711 1434 626 1230 626 1230 L685 1230 C759 1345 852 1380 946 1380 C1042 1380 1122 1345 1158 1230 L1214 1230 C1214 1230 1185 1434 956 1434 L956 1434 Z " />
<glyph glyph-name="Scommaaccent" unicode="&#x218;" horiz-adv-x="1285" d="M389 -532 L445 -532 L678 -163 L594 -163 L389 -532 Z M876 1454 C544 1454 402 1277 373 1090 C349 932 415 789 767 713 C1111 639 1151 524 1124 369 C1089 172 934 38 671 38 C488 38 354 78 248 152 L278 321 L216 321 L181 121 C290 30 453 -20 665 -20 C952 -20 1148 115 1190 369 C1225 578 1135 704 785 778 C472 844 417 965 439 1090 C473 1286 633 1396 870 1396 C1102 1396 1230 1317 1230 1317 L1207 1186 L1269 1186 L1297 1347 C1297 1347 1168 1454 876 1454 L876 1454 Z " />
<glyph glyph-name="scommaaccent" unicode="&#x219;" horiz-adv-x="976" d="M222 -532 L278 -532 L511 -163 L427 -163 L222 -532 Z M891 755 L949 755 L978 918 C978 918 852 1002 653 1002 C403 1002 288 894 265 758 C244 631 304 533 571 482 C817 435 856 353 838 251 C811 95 680 34 510 34 C403 34 289 60 196 117 L220 255 L162 255 L133 86 C248 8 373 -20 501 -20 C709 -20 862 55 898 251 C924 392 833 491 589 538 C338 586 307 656 325 758 C348 887 478 948 644 948 C752 948 845 922 914 888 L891 755 Z " />
<glyph glyph-name="uni021A" unicode="&#x21a;" horiz-adv-x="1428" d="M433 -532 L489 -532 L722 -163 L638 -163 L433 -532 Z M349 1186 L411 1186 L444 1376 L925 1376 L693 58 L503 58 L493 0 L935 0 L945 58 L755 58 L987 1376 L1468 1376 L1435 1186 L1497 1186 L1540 1434 L392 1434 L349 1186 Z " />
<glyph glyph-name="uni021B" unicode="&#x21b;" horiz-adv-x="791" d="M220 -532 L276 -532 L509 -163 L425 -163 L220 -532 Z M243 928 L466 928 L371 379 C325 111 355 -20 585 -20 C632 -20 674 -15 716 -2 L703 49 C667 38 637 33 594 33 C365 33 394 186 438 438 L524 928 L846 928 L856 982 L534 982 L587 1282 L529 1282 L476 982 L253 982 L243 928 Z " />
<glyph glyph-name="uni021E" unicode="&#x21e;" horiz-adv-x="1675" d="M634 1376 L824 1376 L834 1434 L392 1434 L382 1376 L572 1376 L340 58 L150 58 L140 0 L582 0 L592 58 L402 58 L516 705 L1407 705 L1293 58 L1103 58 L1093 0 L1535 0 L1545 58 L1355 58 L1587 1376 L1777 1376 L1787 1434 L1345 1434 L1335 1376 L1525 1376 L1417 763 L526 763 L634 1376 Z M1074 1536 L1142 1536 L1400 1803 L1333 1803 L1111 1594 L965 1803 L908 1803 L1074 1536 Z " />
<glyph glyph-name="uni021F" unicode="&#x21f;" horiz-adv-x="1408" d="M311 54 L129 54 L120 0 L542 0 L551 54 L369 54 L451 520 C495 771 615 948 871 948 C1127 948 1183 771 1139 520 L1048 0 L1288 0 L1297 54 L1115 54 L1197 520 C1249 812 1156 1002 880 1002 C652 1002 544 862 494 765 L627 1516 L387 1516 L377 1462 L559 1462 L311 54 Z M1265 1803 L1198 1803 L973 1594 L821 1803 L763 1803 L935 1536 L1003 1536 L1265 1803 Z " />
<glyph glyph-name="uni0224" unicode="&#x224;" horiz-adv-x="1324" d="M399 1186 L461 1186 L494 1376 L1331 1376 L146 37 L140 0 L1125 0 C1108 -3 934 -38 901 -205 C870 -360 1028 -393 1086 -393 L1097 -334 C1097 -334 936 -340 955 -205 C979 -32 1184 0 1184 0 L1227 248 L1165 248 L1132 58 L245 58 L1430 1397 L1436 1434 L442 1434 L399 1186 Z " />
<glyph glyph-name="uni0225" unicode="&#x225;" horiz-adv-x="1012" d="M833 0 C816 -3 642 -38 609 -205 C578 -360 736 -393 794 -393 L805 -334 C805 -334 644 -340 663 -205 C686 -36 881 -1 892 0 L932 227 L874 227 L843 54 L221 54 L1059 949 L1065 982 L332 982 L292 755 L350 755 L380 928 L963 928 L125 33 L120 0 L833 0 Z " />
<glyph glyph-name="uni0226" unicode="&#x226;" horiz-adv-x="1737" d="M1225 0 L1657 0 L1667 58 L1492 58 L1154 1434 L874 1434 L864 1376 L1054 1376 L265 58 L90 58 L80 0 L512 0 L522 58 L336 58 L596 495 L1321 495 L1427 58 L1235 58 L1225 0 Z M1111 1360 L1307 553 L631 553 L1111 1360 Z M1098 1611 C1092 1581 1110 1556 1143 1556 C1181 1556 1202 1581 1208 1611 C1213 1641 1196 1666 1162 1666 C1127 1666 1103 1641 1098 1611 L1098 1611 Z " />
<glyph glyph-name="uni0227" unicode="&#x227;" horiz-adv-x="1328" d="M742 1288 C736 1258 754 1233 787 1233 C825 1233 846 1258 852 1288 C857 1318 840 1343 806 1343 C771 1343 747 1318 742 1288 L742 1288 Z M1141 982 L1091 700 C1074 847 968 1002 741 1002 C443 1002 236 772 186 491 C137 210 273 -20 561 -20 C806 -20 942 123 1015 270 L968 0 L1208 0 L1217 54 L1035 54 L1189 928 L1371 928 L1381 982 L1141 982 Z M1054 491 C1012 254 840 34 570 34 C300 34 206 254 248 491 C290 728 462 948 732 948 C1002 948 1096 728 1054 491 L1054 491 Z " />
<glyph glyph-name="uni0228" unicode="&#x228;" horiz-adv-x="1390" d="M477 -399 C584 -452 798 -462 842 -279 C871 -160 750 -123 666 -131 L729 0 L1250 0 L1285 200 L1223 200 L1198 58 L402 58 L516 705 L1224 705 L1234 763 L526 763 L634 1376 L1420 1376 L1387 1186 L1449 1186 L1492 1434 L392 1434 L382 1376 L572 1376 L340 58 L150 58 L140 0 L672 0 L581 -185 C686 -168 812 -172 783 -279 C747 -412 580 -391 508 -354 L477 -399 Z " />
<glyph glyph-name="uni0229" unicode="&#x229;" horiz-adv-x="1097" d="M330 -399 C437 -452 651 -462 695 -279 C724 -160 603 -123 519 -131 L573 -19 C765 -14 882 42 945 84 L914 131 C854 94 738 34 554 34 C317 34 211 204 243 464 L1078 464 C1144 835 976 1002 725 1002 C453 1002 239 792 186 491 C135 200 263 -4 516 -19 L434 -185 C539 -168 665 -172 636 -279 C600 -412 433 -391 361 -354 L330 -399 Z M253 518 C312 776 487 948 716 948 C975 948 1058 776 1026 518 L253 518 Z " />
<glyph glyph-name="uni022A" unicode="&#x22a;" horiz-adv-x="1652" d="M803 1745 L1463 1745 L1473 1799 L813 1799 L803 1745 Z M828 -20 C1287 -20 1588 309 1658 717 C1727 1120 1538 1454 1076 1454 C617 1454 316 1125 246 717 C177 314 366 -20 828 -20 L828 -20 Z M312 717 C378 1094 650 1396 1072 1396 C1494 1396 1659 1094 1592 717 C1526 340 1254 38 832 38 C410 38 245 340 312 717 L312 717 Z M885 1611 C879 1581 897 1556 930 1556 C968 1556 989 1581 995 1611 C1000 1641 983 1666 949 1666 C914 1666 890 1641 885 1611 L885 1611 Z M1225 1611 C1219 1581 1237 1556 1270 1556 C1308 1556 1329 1581 1335 1611 C1340 1641 1323 1666 1289 1666 C1254 1666 1230 1641 1225 1611 L1225 1611 Z " />
<glyph glyph-name="uni022B" unicode="&#x22b;" horiz-adv-x="1180" d="M186 491 C133 189 283 -20 586 -20 C908 -20 1113 190 1166 491 C1219 793 1068 1002 766 1002 C453 1002 239 792 186 491 L186 491 Z M248 491 C296 763 487 948 757 948 C1036 948 1152 763 1104 491 C1056 218 864 34 595 34 C325 34 200 218 248 491 L248 491 Z M510 1422 L1170 1422 L1179 1476 L519 1476 L510 1422 Z M592 1288 C586 1258 604 1233 637 1233 C675 1233 696 1258 702 1288 C707 1318 690 1343 656 1343 C621 1343 597 1318 592 1288 L592 1288 Z M932 1288 C926 1258 944 1233 977 1233 C1015 1233 1036 1258 1042 1288 C1047 1318 1030 1343 996 1343 C961 1343 937 1318 932 1288 L932 1288 Z " />
<glyph glyph-name="uni022C" unicode="&#x22c;" horiz-adv-x="1652" d="M817 1809 L1477 1809 L1487 1863 L827 1863 L817 1809 Z M828 -20 C1287 -20 1588 309 1658 717 C1727 1120 1538 1454 1076 1454 C617 1454 316 1125 246 717 C177 314 366 -20 828 -20 L828 -20 Z M312 717 C378 1094 650 1396 1072 1396 C1494 1396 1659 1094 1592 717 C1526 340 1254 38 832 38 C410 38 245 340 312 717 L312 717 Z M1099 1612 C1125 1579 1160 1536 1225 1536 C1360 1536 1385 1675 1385 1675 L1331 1675 C1331 1675 1314 1585 1234 1585 C1181 1585 1154 1630 1134 1655 C1109 1688 1073 1731 1008 1731 C873 1731 848 1591 848 1591 L902 1591 C902 1591 920 1681 1000 1681 C1053 1681 1080 1636 1099 1612 L1099 1612 Z " />
<glyph glyph-name="uni022D" unicode="&#x22d;" horiz-adv-x="1180" d="M186 491 C133 189 283 -20 586 -20 C908 -20 1113 190 1166 491 C1219 793 1068 1002 766 1002 C453 1002 239 792 186 491 L186 491 Z M248 491 C296 763 487 948 757 948 C1036 948 1152 763 1104 491 C1056 218 864 34 595 34 C325 34 200 218 248 491 L248 491 Z M792 1225 C818 1192 853 1149 918 1149 C1053 1149 1078 1288 1078 1288 L1024 1288 C1024 1288 1007 1198 927 1198 C874 1198 847 1243 827 1268 C802 1301 766 1344 701 1344 C566 1344 541 1204 541 1204 L595 1204 C595 1204 613 1294 693 1294 C746 1294 773 1249 792 1225 L792 1225 Z M510 1422 L1170 1422 L1179 1476 L519 1476 L510 1422 Z " />
<glyph glyph-name="uni022E" unicode="&#x22e;" horiz-adv-x="1652" d="M828 -20 C1287 -20 1588 309 1658 717 C1727 1120 1538 1454 1076 1454 C617 1454 316 1125 246 717 C177 314 366 -20 828 -20 L828 -20 Z M312 717 C378 1094 650 1396 1072 1396 C1494 1396 1659 1094 1592 717 C1526 340 1254 38 832 38 C410 38 245 340 312 717 L312 717 Z M1055 1611 C1049 1581 1067 1556 1100 1556 C1138 1556 1159 1581 1165 1611 C1170 1641 1153 1666 1119 1666 C1084 1666 1060 1641 1055 1611 L1055 1611 Z " />
<glyph glyph-name="uni022F" unicode="&#x22f;" horiz-adv-x="1180" d="M186 491 C133 189 283 -20 586 -20 C908 -20 1113 190 1166 491 C1219 793 1068 1002 766 1002 C453 1002 239 792 186 491 L186 491 Z M248 491 C296 763 487 948 757 948 C1036 948 1152 763 1104 491 C1056 218 864 34 595 34 C325 34 200 218 248 491 L248 491 Z M762 1288 C756 1258 774 1233 807 1233 C845 1233 866 1258 872 1288 C877 1318 860 1343 826 1343 C791 1343 767 1318 762 1288 L762 1288 Z " />
<glyph glyph-name="uni0230" unicode="&#x230;" horiz-adv-x="1652" d="M803 1745 L1463 1745 L1473 1799 L813 1799 L803 1745 Z M828 -20 C1287 -20 1588 309 1658 717 C1727 1120 1538 1454 1076 1454 C617 1454 316 1125 246 717 C177 314 366 -20 828 -20 L828 -20 Z M312 717 C378 1094 650 1396 1072 1396 C1494 1396 1659 1094 1592 717 C1526 340 1254 38 832 38 C410 38 245 340 312 717 L312 717 Z M1055 1611 C1049 1581 1067 1556 1100 1556 C1138 1556 1159 1581 1165 1611 C1170 1641 1153 1666 1119 1666 C1084 1666 1060 1641 1055 1611 L1055 1611 Z " />
<glyph glyph-name="uni0231" unicode="&#x231;" horiz-adv-x="1180" d="M510 1422 L1170 1422 L1180 1476 L520 1476 L510 1422 Z M186 491 C133 189 283 -20 586 -20 C908 -20 1113 190 1166 491 C1219 793 1068 1002 766 1002 C453 1002 239 792 186 491 L186 491 Z M248 491 C296 763 487 948 757 948 C1036 948 1152 763 1104 491 C1056 218 864 34 595 34 C325 34 200 218 248 491 L248 491 Z M762 1288 C756 1258 774 1233 807 1233 C845 1233 866 1258 872 1288 C877 1318 860 1343 826 1343 C791 1343 767 1318 762 1288 L762 1288 Z " />
<glyph glyph-name="uni0232" unicode="&#x232;" horiz-adv-x="1600" d="M740 1536 L1400 1536 L1410 1590 L750 1590 L740 1536 Z M873 594 L779 58 L589 58 L579 0 L1021 0 L1031 58 L841 58 L935 594 L1588 1376 L1762 1376 L1772 1434 L1340 1434 L1330 1376 L1515 1376 L910 652 L560 1376 L754 1376 L764 1434 L332 1434 L322 1376 L496 1376 L873 594 Z " />
<glyph glyph-name="uni0233" unicode="&#x233;" horiz-adv-x="1410" d="M618 1380 L1278 1380 L1287 1434 L627 1434 L618 1380 Z M705 928 L715 982 L293 982 L283 928 L458 928 L675 0 L510 -276 C452 -368 374 -478 260 -478 L175 -478 L166 -532 L258 -532 C400 -532 483 -426 562 -294 L1278 928 L1453 928 L1463 982 L1041 982 L1031 928 L1208 928 L715 70 L523 928 L705 928 Z " />
<glyph glyph-name="uni0238" unicode="&#x238;" horiz-adv-x="1994" d="M1026 0 L1075 282 C1092 135 1190 -20 1425 -20 C1753 -20 1931 210 1980 491 C2029 772 1893 1002 1605 1002 C1360 1002 1219 853 1150 706 L1283 1462 L1465 1462 L1475 1516 L1053 1516 L1043 1462 L1225 1462 L1091 700 C1074 847 968 1002 741 1002 C443 1002 236 772 186 491 C137 210 273 -20 561 -20 C806 -20 942 123 1015 270 L968 0 L1026 0 Z M1112 491 C1154 728 1326 948 1596 948 C1866 948 1960 728 1918 491 C1876 254 1714 34 1434 34 C1164 34 1070 254 1112 491 L1112 491 Z M1054 491 C1012 254 840 34 570 34 C300 34 206 254 248 491 C290 728 462 948 732 948 C1002 948 1096 728 1054 491 L1054 491 Z " />
<glyph glyph-name="uni0239" unicode="&#x239;" horiz-adv-x="1994" d="M1141 982 L1091 700 C1074 847 968 1002 741 1002 C443 1002 236 772 186 491 C137 210 273 -20 561 -20 C806 -20 942 123 1015 270 L883 -478 L701 -478 L692 -532 L1114 -532 L1123 -478 L941 -478 L1075 282 C1092 135 1190 -20 1425 -20 C1753 -20 1931 210 1980 491 C2029 772 1893 1002 1605 1002 C1360 1002 1219 853 1150 706 L1199 982 L1141 982 Z M1112 491 C1154 728 1326 948 1596 948 C1866 948 1960 728 1918 491 C1876 254 1714 34 1434 34 C1164 34 1070 254 1112 491 L1112 491 Z M1054 491 C1012 254 840 34 570 34 C300 34 206 254 248 491 C290 728 462 948 732 948 C1002 948 1096 728 1054 491 L1054 491 Z " />
<glyph glyph-name="uni024C" unicode="&#x24c;" horiz-adv-x="1524" d="M1191 0 L1404 0 L1414 58 L1238 58 L1078 653 C1390 656 1519 838 1552 1043 C1584 1243 1506 1434 1235 1434 L447 1434 L437 1376 L627 1376 L509 711 L265 711 L255 653 L499 653 L395 58 L205 58 L195 0 L637 0 L647 58 L457 58 L562 653 L1015 653 L1191 0 Z M1225 1376 C1466 1376 1518 1213 1488 1043 C1459 875 1349 711 1108 711 L572 711 L689 1376 L1225 1376 Z " />
<glyph glyph-name="uni024D" unicode="&#x24d;" horiz-adv-x="981" d="M355 54 L173 54 L164 0 L586 0 L595 54 L413 54 L475 410 L702 410 L711 463 L485 463 L495 520 C539 771 659 948 915 948 C975 948 1023 939 1062 921 L1101 967 C1054 990 995 1002 924 1002 C696 1002 588 862 538 765 L577 982 L337 982 L327 928 L509 928 L427 463 L201 463 L192 410 L417 410 L355 54 Z " />
<glyph glyph-name="uni024E" unicode="&#x24e;" horiz-adv-x="1600" d="M873 594 L779 58 L589 58 L579 0 L1021 0 L1031 58 L841 58 L935 594 L1276 1002 L1501 1002 L1511 1059 L1323 1059 L1588 1376 L1762 1376 L1772 1434 L1340 1434 L1330 1376 L1515 1376 L1250 1059 L713 1059 L560 1376 L754 1376 L764 1434 L332 1434 L322 1376 L496 1376 L649 1059 L462 1059 L452 1002 L676 1002 L873 594 Z M741 1002 L1202 1002 L910 652 L741 1002 Z " />
<glyph glyph-name="uni024F" unicode="&#x24f;" horiz-adv-x="1410" d="M705 928 L715 982 L293 982 L283 928 L458 928 L541 573 L265 573 L255 520 L553 520 L675 0 L510 -276 C452 -368 374 -478 260 -478 L175 -478 L166 -532 L258 -532 C400 -532 483 -426 562 -294 L1039 520 L1337 520 L1347 573 L1070 573 L1278 928 L1453 928 L1463 982 L1041 982 L1031 928 L1208 928 L1004 573 L602 573 L523 928 L705 928 Z M614 520 L973 520 L715 70 L614 520 Z " />
<glyph glyph-name="circumflex" unicode="&#x2c6;" horiz-adv-x="732" d="M647 1434 L579 1434 L321 1167 L388 1167 L610 1376 L756 1167 L813 1167 L647 1434 Z " />
<glyph glyph-name="caron" unicode="&#x2c7;" horiz-adv-x="742" d="M874 1434 L807 1434 L582 1225 L430 1434 L372 1434 L544 1167 L612 1167 L874 1434 Z " />
<glyph glyph-name="uni02C8" unicode="&#x2c8;" horiz-adv-x="270" d="M283 1106 L345 1106 L402 1434 L340 1434 L283 1106 Z " />
<glyph glyph-name="uni02C9" unicode="&#x2c9;" horiz-adv-x="896" d="M339 1380 L999 1380 L1008 1434 L348 1434 L339 1380 Z " />
<glyph glyph-name="uni02CA" unicode="&#x2ca;" horiz-adv-x="559" d="M318 1167 L374 1167 L691 1434 L607 1434 L318 1167 Z " />
<glyph glyph-name="uni02CB" unicode="&#x2cb;" horiz-adv-x="573" d="M456 1434 L372 1434 L596 1167 L651 1167 L456 1434 Z " />
<glyph glyph-name="uni02CC" unicode="&#x2cc;" horiz-adv-x="272" d="M27 -532 L89 -532 L147 -204 L85 -204 L27 -532 Z " />
<glyph glyph-name="uni02CD" unicode="&#x2cd;" horiz-adv-x="918" d="M27 -532 L748 -532 L757 -478 L36 -478 L27 -532 Z " />
<glyph glyph-name="uni02CE" unicode="&#x2ce;" horiz-adv-x="573" d="M164 -266 L80 -266 L304 -532 L359 -532 L164 -266 Z " />
<glyph glyph-name="uni02CF" unicode="&#x2cf;" horiz-adv-x="560" d="M27 -532 L83 -532 L400 -266 L316 -266 L27 -532 Z " />
<glyph glyph-name="uni02D0" unicode="&#x2d0;" horiz-adv-x="438" d="M293 982 L364 798 L502 982 L293 982 Z M329 0 L256 184 L120 0 L329 0 Z " />
<glyph glyph-name="uni02D1" unicode="&#x2d1;" horiz-adv-x="449" d="M304 982 L375 798 L513 982 L304 982 Z " />
<glyph glyph-name="uni02D2" unicode="&#x2d2;" horiz-adv-x="411" d="M409 595 C409 595 419 648 419 648 C321 648 289 722 300 787 C312 855 360 929 468 929 C468 929 478 982 478 982 C345 982 261 904 242 787 C225 681 288 595 409 595 L409 595 Z " />
<glyph glyph-name="uni02D3" unicode="&#x2d3;" horiz-adv-x="410" d="M253 982 C253 982 243 929 243 929 C341 929 373 855 362 790 C350 722 302 648 194 648 C194 648 184 595 184 595 C317 595 401 673 420 790 C437 896 374 982 253 982 L253 982 Z " />
<glyph glyph-name="uni02D4" unicode="&#x2d4;" horiz-adv-x="823" d="M210 613 L833 613 L843 671 L562 671 L617 982 L556 982 L501 671 L220 671 L210 613 Z " />
<glyph glyph-name="uni02D5" unicode="&#x2d5;" horiz-adv-x="824" d="M163 311 L444 311 L390 0 L451 0 L505 311 L786 311 L797 369 L174 369 L163 311 Z " />
<glyph glyph-name="uni02D6" unicode="&#x2d6;" horiz-adv-x="958" d="M277 613 L558 613 L503 302 L564 302 L619 613 L900 613 L910 671 L629 671 L684 982 L623 982 L568 671 L287 671 L277 613 Z " />
<glyph glyph-name="uni02D7" unicode="&#x2d7;" horiz-adv-x="818" d="M207 613 L830 613 L840 671 L217 671 L207 613 Z " />
<glyph glyph-name="breve" unicode="&#x2d8;" horiz-adv-x="828" d="M630 1230 C875 1230 960 1434 960 1434 L901 1434 C827 1319 734 1284 640 1284 C544 1284 464 1319 428 1434 L372 1434 C372 1434 401 1230 630 1230 L630 1230 Z " />
<glyph glyph-name="dotaccent" unicode="&#x2d9;" horiz-adv-x="385" d="M374 1288 C368 1258 386 1233 419 1233 C457 1233 478 1258 484 1288 C489 1318 472 1343 438 1343 C403 1343 379 1318 374 1288 L374 1288 Z " />
<glyph glyph-name="ring" unicode="&#x2da;" horiz-adv-x="544" d="M362 1280 C347 1196 401 1126 489 1126 C589 1126 653 1190 670 1280 C686 1364 627 1434 543 1434 C443 1434 377 1364 362 1280 L362 1280 Z M403 1280 C414 1343 463 1395 536 1395 C609 1395 640 1343 629 1280 C618 1217 569 1167 496 1167 C423 1167 392 1217 403 1280 L403 1280 Z " />
<glyph glyph-name="ogonek" unicode="&#x2db;" horiz-adv-x="516" d="M292 0 C292 0 101 -29 66 -205 C35 -360 193 -393 251 -393 L262 -334 C262 -334 101 -340 120 -205 C144 -32 349 0 349 0 L292 0 Z " />
<glyph glyph-name="tilde" unicode="&#x2dc;" horiz-adv-x="719" d="M579 1315 C605 1282 640 1239 705 1239 C840 1239 865 1378 865 1378 L811 1378 C811 1378 794 1288 714 1288 C661 1288 634 1333 614 1358 C589 1391 553 1434 488 1434 C353 1434 328 1294 328 1294 L382 1294 C382 1294 400 1384 480 1384 C533 1384 560 1339 579 1315 L579 1315 Z " />
<glyph glyph-name="hungarumlaut" unicode="&#x2dd;" horiz-adv-x="736" d="M575 1065 L630 1065 L863 1434 L779 1434 L575 1065 Z M347 1065 L403 1065 L636 1434 L552 1434 L347 1065 Z " />
<glyph glyph-name="gravecomb" unicode="&#x300;" horiz-adv-x="593" d="M476 1434 L392 1434 L596 1167 L651 1167 L476 1434 Z " />
<glyph glyph-name="acutecomb" unicode="&#x301;" horiz-adv-x="579" d="M338 1167 L394 1167 L691 1434 L607 1434 L338 1167 Z " />
<glyph glyph-name="uni0302" unicode="&#x302;" horiz-adv-x="732" d="M647 1434 L579 1434 L321 1167 L388 1167 L610 1376 L756 1167 L813 1167 L647 1434 Z " />
<glyph glyph-name="tildecomb" unicode="&#x303;" horiz-adv-x="759" d="M599 1315 C625 1282 660 1239 725 1239 C860 1239 885 1378 885 1378 L831 1378 C831 1378 814 1288 734 1288 C681 1288 654 1333 634 1358 C609 1391 573 1434 508 1434 C373 1434 348 1294 348 1294 L402 1294 C402 1294 420 1384 500 1384 C553 1384 580 1339 599 1315 L599 1315 Z " />
<glyph glyph-name="uni0304" unicode="&#x304;" horiz-adv-x="856" d="M319 1380 L979 1380 L988 1434 L328 1434 L319 1380 Z " />
<glyph glyph-name="uni0305" unicode="&#x305;" horiz-adv-x="1061" d="M319 1380 L1184 1380 L1193 1434 L328 1434 L319 1380 Z " />
<glyph glyph-name="uni0306" unicode="&#x306;" horiz-adv-x="828" d="M630 1230 C875 1230 960 1434 960 1434 L901 1434 C827 1319 734 1284 640 1284 C544 1284 464 1319 428 1434 L372 1434 C372 1434 401 1230 630 1230 L630 1230 Z " />
<glyph glyph-name="uni0307" unicode="&#x307;" horiz-adv-x="345" d="M354 1288 C348 1258 366 1233 399 1233 C437 1233 458 1258 464 1288 C469 1318 452 1343 418 1343 C383 1343 359 1318 354 1288 L354 1288 Z " />
<glyph glyph-name="uni0308" unicode="&#x308;" horiz-adv-x="685" d="M354 1288 C348 1258 366 1233 399 1233 C437 1233 458 1258 464 1288 C469 1318 452 1343 418 1343 C383 1343 359 1318 354 1288 L354 1288 Z M694 1288 C688 1258 706 1233 739 1233 C777 1233 798 1258 804 1288 C809 1318 792 1343 758 1343 C723 1343 699 1318 694 1288 L694 1288 Z " />
<glyph glyph-name="hookabovecomb" unicode="&#x309;" horiz-adv-x="519" d="M305 1188 C305 1188 587 1172 631 1434 L570 1434 C536 1241 316 1249 316 1249 L305 1188 Z " />
<glyph glyph-name="uni030A" unicode="&#x30a;" horiz-adv-x="544" d="M362 1280 C347 1196 401 1126 489 1126 C589 1126 653 1190 670 1280 C686 1364 627 1434 543 1434 C443 1434 377 1364 362 1280 L362 1280 Z M403 1280 C414 1343 463 1395 536 1395 C609 1395 640 1343 629 1280 C618 1217 569 1167 496 1167 C423 1167 392 1217 403 1280 L403 1280 Z " />
<glyph glyph-name="uni030B" unicode="&#x30b;" horiz-adv-x="661" d="M505 1065 L560 1065 L793 1434 L709 1434 L505 1065 Z M277 1065 L333 1065 L566 1434 L482 1434 L277 1065 Z " />
<glyph glyph-name="uni030C" unicode="&#x30c;" horiz-adv-x="742" d="M874 1434 L807 1434 L582 1225 L430 1434 L372 1434 L544 1167 L612 1167 L874 1434 Z " />
<glyph glyph-name="uni030D" unicode="&#x30d;" horiz-adv-x="270" d="M283 1106 L345 1106 L402 1434 L340 1434 L283 1106 Z " />
<glyph glyph-name="uni030E" unicode="&#x30e;" horiz-adv-x="475" d="M283 1106 L345 1106 L402 1434 L340 1434 L283 1106 Z M488 1106 L550 1106 L607 1434 L545 1434 L488 1106 Z " />
<glyph glyph-name="uni030F" unicode="&#x30f;" horiz-adv-x="721" d="M456 1434 L372 1434 L475 1065 L531 1065 L456 1434 Z M684 1434 L600 1434 L703 1065 L758 1065 L684 1434 Z " />
<glyph glyph-name="uni0310" unicode="&#x310;" horiz-adv-x="828" d="M630 1230 C875 1230 960 1434 960 1434 L901 1434 C827 1319 734 1284 640 1284 C544 1284 464 1319 428 1434 L372 1434 C372 1434 401 1230 630 1230 L630 1230 Z M621 1489 C615 1459 633 1434 666 1434 C704 1434 725 1459 731 1489 C736 1519 719 1544 685 1544 C650 1544 626 1519 621 1489 L621 1489 Z " />
<glyph glyph-name="uni0311" unicode="&#x311;" horiz-adv-x="828" d="M652 1434 C407 1434 322 1230 322 1230 L381 1230 C455 1345 548 1380 642 1380 C738 1380 818 1345 854 1230 L910 1230 C910 1230 881 1434 652 1434 L652 1434 Z " />
<glyph glyph-name="uni0312" unicode="&#x312;" horiz-adv-x="434" d="M566 1434 L510 1434 L277 1065 L361 1065 L566 1434 Z " />
<glyph glyph-name="uni0313" unicode="&#x313;" horiz-adv-x="434" d="M277 1065 L333 1065 L566 1434 L482 1434 L277 1065 Z " />
<glyph glyph-name="uni0314" unicode="&#x314;" horiz-adv-x="494" d="M456 1434 L372 1434 L475 1065 L531 1065 L456 1434 Z " />
<glyph glyph-name="uni0315" unicode="&#x315;" horiz-adv-x="434" d="M277 1065 L333 1065 L566 1434 L482 1434 L277 1065 Z " />
<glyph glyph-name="uni0316" unicode="&#x316;" horiz-adv-x="573" d="M164 -266 L80 -266 L304 -532 L359 -532 L164 -266 Z " />
<glyph glyph-name="uni0317" unicode="&#x317;" horiz-adv-x="560" d="M27 -532 L83 -532 L400 -266 L316 -266 L27 -532 Z " />
<glyph glyph-name="uni0318" unicode="&#x318;" horiz-adv-x="407" d="M232 -262 L213 -370 L57 -370 L48 -423 L204 -423 L185 -532 L238 -532 L285 -262 L232 -262 Z " />
<glyph glyph-name="uni0319" unicode="&#x319;" horiz-adv-x="412" d="M74 -262 L27 -532 L81 -532 L100 -423 L255 -423 L264 -370 L109 -370 L128 -262 L74 -262 Z " />
<glyph glyph-name="uni031A" unicode="&#x31a;" horiz-adv-x="477" d="M338 1434 L329 1380 L546 1380 L512 1190 L566 1190 L609 1434 L338 1434 Z " />
<glyph glyph-name="uni031B" unicode="&#x31b;" horiz-adv-x="458" d="M529 1434 C529 1434 498 1212 305 1212 L294 1151 C546 1151 590 1434 590 1434 L529 1434 Z " />
<glyph glyph-name="uni031C" unicode="&#x31c;" horiz-adv-x="409" d="M281 -532 C281 -532 291 -479 291 -479 C193 -479 161 -405 172 -340 C184 -272 232 -198 340 -198 C340 -198 350 -145 350 -145 C217 -145 133 -223 114 -340 C97 -446 160 -532 281 -532 L281 -532 Z " />
<glyph glyph-name="uni031D" unicode="&#x31d;" horiz-adv-x="560" d="M389 -479 L239 -479 L267 -323 L214 -323 L186 -479 L36 -479 L27 -532 L380 -532 L389 -479 Z " />
<glyph glyph-name="uni031E" unicode="&#x31e;" horiz-adv-x="560" d="M415 -323 L62 -323 L52 -376 L202 -376 L175 -532 L228 -532 L255 -376 L405 -376 L415 -323 Z " />
<glyph glyph-name="uni031F" unicode="&#x31f;" horiz-adv-x="568" d="M464 18 L306 18 L335 182 L298 182 L269 18 L111 18 L104 -18 L262 -18 L233 -182 L270 -182 L299 -18 L457 -18 L464 18 Z " />
<glyph glyph-name="uni0320" unicode="&#x320;" horiz-adv-x="506" d="M104 -18 L395 -18 L402 18 L111 18 L104 -18 Z " />
<glyph glyph-name="uni0321" unicode="&#x321;" horiz-adv-x="585" d="M444 0 C396 -272 307 -377 57 -377 L48 -430 C331 -430 447 -301 501 0 L444 0 Z " />
<glyph glyph-name="uni0322" unicode="&#x322;" horiz-adv-x="610" d="M152 0 C98 -301 171 -430 453 -430 L462 -377 C212 -377 162 -272 210 0 L152 0 Z " />
<glyph glyph-name="dotbelowcomb" unicode="&#x323;" horiz-adv-x="385" d="M78 -309 C72 -339 90 -364 123 -364 C161 -364 182 -339 188 -309 C193 -279 176 -254 142 -254 C107 -254 83 -279 78 -309 L78 -309 Z " />
<glyph glyph-name="uni0324" unicode="&#x324;" horiz-adv-x="685" d="M58 -317 C52 -347 70 -372 103 -372 C141 -372 162 -347 168 -317 C173 -287 156 -262 122 -262 C87 -262 63 -287 58 -317 L58 -317 Z M398 -317 C392 -347 410 -372 443 -372 C481 -372 502 -347 508 -317 C513 -287 496 -262 462 -262 C427 -262 403 -287 398 -317 L398 -317 Z " />
<glyph glyph-name="uni0325" unicode="&#x325;" horiz-adv-x="546" d="M56 -378 C41 -462 95 -532 183 -532 C283 -532 347 -468 364 -378 C380 -294 321 -224 237 -224 C137 -224 71 -294 56 -378 L56 -378 Z M97 -378 C108 -315 157 -263 230 -263 C303 -263 334 -315 323 -378 C312 -441 263 -491 190 -491 C117 -491 86 -441 97 -378 L97 -378 Z " />
<glyph glyph-name="commaaccent" unicode="&#x326;" horiz-adv-x="495" d="M46 -532 L102 -532 L335 -163 L251 -163 L46 -532 Z " />
<glyph glyph-name="uni0327" unicode="&#x327;" horiz-adv-x="566" d="M21 -399 C128 -452 342 -462 386 -279 C415 -160 294 -123 210 -131 L283 20 L226 20 L125 -185 C230 -168 356 -172 327 -279 C291 -412 124 -391 52 -354 L21 -399 Z " />
<glyph glyph-name="uni0328" unicode="&#x328;" horiz-adv-x="526" d="M302 0 C302 0 111 -29 76 -205 C45 -360 203 -393 261 -393 L272 -334 C272 -334 111 -340 130 -205 C154 -32 359 0 359 0 L302 0 Z " />
<glyph glyph-name="uni0329" unicode="&#x329;" horiz-adv-x="272" d="M27 -532 L89 -532 L147 -204 L85 -204 L27 -532 Z " />
<glyph glyph-name="uni032A" unicode="&#x32a;" horiz-adv-x="811" d="M27 -532 L85 -532 L106 -409 L589 -409 L568 -532 L625 -532 L656 -356 L58 -356 L27 -532 Z " />
<glyph glyph-name="uni032B" unicode="&#x32b;" horiz-adv-x="658" d="M59 -399 C47 -469 62 -532 150 -532 C205 -532 239 -495 267 -428 C271 -495 299 -532 344 -532 C433 -532 469 -469 481 -399 L507 -253 L462 -253 L436 -399 C427 -450 397 -485 352 -485 C289 -485 294 -391 305 -325 L261 -325 C250 -391 221 -485 158 -485 C103 -485 95 -450 104 -399 L130 -253 L85 -253 L59 -399 Z " />
<glyph glyph-name="uni032C" unicode="&#x32c;" horiz-adv-x="742" d="M579 -265 L512 -265 L287 -474 L135 -265 L77 -265 L249 -532 L317 -532 L579 -265 Z " />
<glyph glyph-name="uni032D" unicode="&#x32d;" horiz-adv-x="733" d="M353 -265 L285 -265 L27 -532 L94 -532 L316 -323 L462 -532 L519 -532 L353 -265 Z " />
<glyph glyph-name="uni032E" unicode="&#x32e;" horiz-adv-x="828" d="M334 -532 C579 -532 664 -328 664 -328 L605 -328 C531 -443 438 -478 344 -478 C248 -478 168 -443 132 -328 L76 -328 C76 -328 105 -532 334 -532 L334 -532 Z " />
<glyph glyph-name="uni032F" unicode="&#x32f;" horiz-adv-x="829" d="M357 -328 C112 -328 27 -532 27 -532 L86 -532 C160 -417 253 -382 347 -382 C443 -382 523 -417 559 -532 L615 -532 C615 -532 586 -328 357 -328 L357 -328 Z " />
<glyph glyph-name="uni0330" unicode="&#x330;" horiz-adv-x="721" d="M282 -298 C308 -331 343 -374 408 -374 C543 -374 568 -235 568 -235 L514 -235 C514 -235 497 -325 417 -325 C364 -325 337 -280 317 -255 C292 -222 256 -179 191 -179 C56 -179 31 -319 31 -319 L85 -319 C85 -319 103 -229 183 -229 C236 -229 263 -274 282 -298 L282 -298 Z " />
<glyph glyph-name="uni0331" unicode="&#x331;" horiz-adv-x="857" d="M27 -532 L687 -532 L696 -478 L36 -478 L27 -532 Z " />
<glyph glyph-name="uni0332" unicode="&#x332;" horiz-adv-x="1148" d="M102 -210 L970 -210 L980 -156 L112 -156 L102 -210 Z " />
<glyph glyph-name="uni0333" unicode="&#x333;" horiz-adv-x="1148" d="M75 -367 L943 -367 L952 -313 L84 -313 L75 -367 Z M102 -210 L970 -210 L980 -156 L112 -156 L102 -210 Z " />
<glyph glyph-name="uni0334" unicode="&#x334;" horiz-adv-x="719" d="M469 690 C495 657 530 614 595 614 C730 614 755 753 755 753 L701 753 C701 753 684 663 604 663 C551 663 524 708 504 733 C479 766 443 809 378 809 C243 809 218 669 218 669 L272 669 C272 669 290 759 370 759 C423 759 450 714 469 690 L469 690 Z " />
<glyph glyph-name="uni0335" unicode="&#x335;" horiz-adv-x="696" d="M196 707 L692 707 L702 760 L206 760 L196 707 Z " />
<glyph glyph-name="uni0336" unicode="&#x336;" horiz-adv-x="942" d="M196 707 L938 707 L948 760 L206 760 L196 707 Z " />
<glyph glyph-name="uni0337" unicode="&#x337;" horiz-adv-x="913" d="M920 982 L154 241 L228 241 L994 982 L920 982 Z " />
<glyph glyph-name="uni0338" unicode="&#x338;" horiz-adv-x="1215" d="M120 0 L190 0 L1347 1434 L1278 1434 L120 0 Z " />
<glyph glyph-name="uni0339" unicode="&#x339;" horiz-adv-x="409" d="M127 -145 C127 -145 117 -198 117 -198 C215 -198 247 -272 236 -337 C224 -405 176 -479 68 -479 C68 -479 58 -532 58 -532 C191 -532 275 -454 294 -337 C311 -231 248 -145 127 -145 L127 -145 Z " />
<glyph glyph-name="uni033A" unicode="&#x33a;" horiz-adv-x="811" d="M27 -532 L625 -532 L656 -356 L599 -356 L577 -479 L94 -479 L116 -356 L58 -356 L27 -532 Z " />
<glyph glyph-name="uni033B" unicode="&#x33b;" horiz-adv-x="473" d="M20 -532 L287 -532 L334 -266 L67 -266 L20 -532 Z M106 -313 L277 -313 L247 -485 L76 -485 L106 -313 Z " />
<glyph glyph-name="uni033C" unicode="&#x33c;" horiz-adv-x="649" d="M80 -520 C89 -469 117 -434 162 -434 C216 -434 226 -487 218 -532 L266 -532 C274 -487 302 -434 356 -434 C401 -434 417 -469 408 -520 L455 -520 C467 -450 443 -387 364 -387 C319 -387 279 -413 250 -480 C245 -413 215 -387 170 -387 C91 -387 45 -450 33 -520 L80 -520 Z " />
<glyph glyph-name="uni033D" unicode="&#x33d;" horiz-adv-x="604" d="M517 1312 L398 1434 L347 1434 L486 1288 L280 1128 L341 1128 L512 1260 L632 1128 L684 1128 L541 1283 L736 1434 L675 1434 L517 1312 Z " />
<glyph glyph-name="uni033E" unicode="&#x33e;" horiz-adv-x="425" d="M467 1449 C505 1480 556 1523 568 1588 C590 1713 452 1724 452 1724 L443 1670 C443 1670 533 1668 519 1588 C509 1535 458 1500 429 1476 C390 1445 340 1402 328 1337 C306 1212 444 1201 444 1201 L454 1255 C454 1255 364 1257 378 1337 C388 1390 439 1425 467 1449 L467 1449 Z " />
<glyph glyph-name="uni033F" unicode="&#x33f;" horiz-adv-x="1148" d="M407 1516 L1275 1516 L1284 1570 L416 1570 L407 1516 Z M434 1673 L1302 1673 L1312 1727 L444 1727 L434 1673 Z " />
<glyph glyph-name="uni0340" unicode="&#x340;" horiz-adv-x="553" d="M456 1434 L372 1434 L576 1167 L631 1167 L456 1434 Z " />
<glyph glyph-name="uni0341" unicode="&#x341;" horiz-adv-x="539" d="M318 1167 L374 1167 L671 1434 L587 1434 L318 1167 Z " />
<glyph glyph-name="uni0342" unicode="&#x342;" horiz-adv-x="719" d="M579 1315 C605 1282 640 1239 705 1239 C840 1239 865 1378 865 1378 L811 1378 C811 1378 794 1288 714 1288 C661 1288 634 1333 614 1358 C589 1391 553 1434 488 1434 C353 1434 328 1294 328 1294 L382 1294 C382 1294 400 1384 480 1384 C533 1384 560 1339 579 1315 L579 1315 Z " />
<glyph glyph-name="uni0343" unicode="&#x343;" horiz-adv-x="434" d="M277 1065 L333 1065 L566 1434 L482 1434 L277 1065 Z " />
<glyph glyph-name="uni0344" unicode="&#x344;" horiz-adv-x="685" d="M566 1423 L621 1423 L799 1730 L715 1730 L566 1423 Z M354 1288 C348 1258 366 1233 399 1233 C437 1233 458 1258 464 1288 C469 1318 452 1343 418 1343 C383 1343 359 1318 354 1288 L354 1288 Z M694 1288 C688 1258 706 1233 739 1233 C777 1233 798 1258 804 1288 C809 1318 792 1343 758 1343 C723 1343 699 1318 694 1288 L694 1288 Z " />
<glyph glyph-name="uni0345" unicode="&#x345;" horiz-adv-x="608" d="M401 -240 C329 -285 118 -350 156 -135 C180 0 180 0 180 0 L122 0 C122 0 122 0 98 -135 C50 -406 329 -360 424 -289 L401 -240 Z " />
<glyph glyph-name="uni0346" unicode="&#x346;" horiz-adv-x="810" d="M313 1258 L371 1258 L392 1381 L875 1381 L854 1258 L911 1258 L942 1434 L344 1434 L313 1258 Z " />
<glyph glyph-name="uni0347" unicode="&#x347;" horiz-adv-x="493" d="M84 -92 L375 -92 L382 -55 L91 -55 L84 -92 Z M110 55 L401 55 L408 92 L117 92 L110 55 Z " />
<glyph glyph-name="uni0348" unicode="&#x348;" horiz-adv-x="477" d="M27 -532 L89 -532 L147 -204 L85 -204 L27 -532 Z M232 -532 L294 -532 L352 -204 L290 -204 L232 -532 Z " />
<glyph glyph-name="uni0349" unicode="&#x349;" horiz-adv-x="476" d="M57 -288 L48 -342 L265 -342 L231 -532 L285 -532 L328 -288 L57 -288 Z " />
<glyph glyph-name="uni034A" unicode="&#x34a;" horiz-adv-x="719" d="M707 1495 L602 1374 C577 1403 543 1434 488 1434 C353 1434 328 1294 328 1294 L382 1294 C382 1294 400 1384 480 1384 C522 1384 547 1356 566 1332 L430 1176 L492 1176 L595 1295 C620 1267 652 1239 705 1239 C840 1239 865 1378 865 1378 L811 1378 C811 1378 794 1288 714 1288 C674 1288 649 1313 631 1336 L769 1495 L707 1495 Z " />
<glyph glyph-name="uni034B" unicode="&#x34b;" horiz-adv-x="719" d="M579 1315 C605 1282 640 1239 705 1239 C840 1239 865 1378 865 1378 L811 1378 C811 1378 794 1288 714 1288 C661 1288 634 1333 614 1358 C589 1391 553 1434 488 1434 C353 1434 328 1294 328 1294 L382 1294 C382 1294 400 1384 480 1384 C533 1384 560 1339 579 1315 L579 1315 Z M671 1485 C665 1455 683 1430 716 1430 C754 1430 775 1455 781 1485 C786 1515 769 1540 735 1540 C700 1540 676 1515 671 1485 L671 1485 Z M413 1192 C407 1162 425 1137 458 1137 C496 1137 517 1162 523 1192 C528 1222 511 1247 477 1247 C442 1247 418 1222 413 1192 L413 1192 Z " />
<glyph glyph-name="uni034C" unicode="&#x34c;" horiz-adv-x="828" d="M601 1310 C642 1275 684 1242 751 1242 C841 1242 904 1281 946 1334 L960 1414 C889 1316 825 1295 761 1295 C691 1295 657 1328 611 1367 C571 1402 529 1434 462 1434 C368 1434 310 1396 267 1342 L253 1262 C324 1361 389 1381 453 1381 C522 1381 557 1348 601 1310 L601 1310 Z M562 1088 C603 1054 645 1021 712 1021 C802 1021 865 1060 907 1113 L921 1193 C850 1094 786 1074 722 1074 C652 1074 618 1107 572 1146 C531 1180 490 1213 423 1213 C329 1213 270 1174 228 1121 L214 1041 C285 1140 350 1160 414 1160 C483 1160 518 1127 562 1088 L562 1088 Z " />
<glyph glyph-name="uni034D" unicode="&#x34d;" horiz-adv-x="1858" d="M1396 -94 L1576 -250 L206 -250 L433 -104 L445 -25 L72 -278 L355 -532 L368 -463 L186 -307 L1556 -307 L1331 -453 L1318 -532 L1690 -278 L1408 -25 L1396 -94 Z " />
<glyph glyph-name="uni034E" unicode="&#x34e;" horiz-adv-x="748" d="M310 -532 L375 -159 L495 -368 L564 -368 L361 -40 L56 -368 L130 -368 L318 -159 L253 -532 L310 -532 Z " />
<glyph glyph-name="tonos" unicode="&#x384;" horiz-adv-x="407" d="M306 1126 L362 1126 L539 1434 L455 1434 L306 1126 Z " />
<glyph glyph-name="dieresistonos" unicode="&#x385;" horiz-adv-x="725" d="M586 1423 L641 1423 L819 1730 L735 1730 L586 1423 Z M374 1288 C368 1258 386 1233 419 1233 C457 1233 478 1258 484 1288 C489 1318 472 1343 438 1343 C403 1343 379 1318 374 1288 L374 1288 Z M714 1288 C708 1258 726 1233 759 1233 C797 1233 818 1258 824 1288 C829 1318 812 1343 778 1343 C743 1343 719 1318 714 1288 L714 1288 Z " />
<glyph glyph-name="Alphatonos" unicode="&#x386;" horiz-adv-x="1737" d="M582 1126 L638 1126 L815 1434 L731 1434 L582 1126 Z M1225 0 L1657 0 L1667 58 L1492 58 L1154 1434 L874 1434 L864 1376 L1054 1376 L265 58 L90 58 L80 0 L512 0 L522 58 L336 58 L596 495 L1321 495 L1427 58 L1235 58 L1225 0 Z M1111 1360 L1307 553 L631 553 L1111 1360 Z " />
<glyph glyph-name="Epsilontonos" unicode="&#x388;" horiz-adv-x="1622" d="M338 1126 L394 1126 L571 1434 L487 1434 L338 1126 Z M1619 1186 L1681 1186 L1724 1434 L624 1434 L614 1376 L804 1376 L572 58 L382 58 L372 0 L1482 0 L1517 200 L1455 200 L1430 58 L634 58 L748 705 L1456 705 L1466 763 L758 763 L866 1376 L1652 1376 L1619 1186 Z " />
<glyph glyph-name="Etatonos" unicode="&#x389;" horiz-adv-x="1832" d="M268 1126 L324 1126 L501 1434 L417 1434 L268 1126 Z M791 1376 L981 1376 L991 1434 L549 1434 L539 1376 L729 1376 L497 58 L307 58 L297 0 L739 0 L749 58 L559 58 L673 705 L1564 705 L1450 58 L1260 58 L1250 0 L1692 0 L1702 58 L1512 58 L1744 1376 L1934 1376 L1944 1434 L1502 1434 L1492 1376 L1682 1376 L1574 763 L683 763 L791 1376 Z " />
<glyph glyph-name="Iotatonos" unicode="&#x38a;" horiz-adv-x="870" d="M268 1126 L324 1126 L501 1434 L417 1434 L268 1126 Z M488 58 L298 58 L288 0 L730 0 L740 58 L550 58 L782 1376 L972 1376 L982 1434 L540 1434 L530 1376 L720 1376 L488 58 Z " />
<glyph glyph-name="Omicrontonos" unicode="&#x38c;" horiz-adv-x="1695" d="M318 1126 L374 1126 L551 1434 L467 1434 L318 1126 Z M871 -20 C1330 -20 1631 309 1701 717 C1770 1120 1581 1454 1119 1454 C660 1454 359 1125 289 717 C220 314 409 -20 871 -20 L871 -20 Z M355 717 C421 1094 693 1396 1115 1396 C1537 1396 1702 1094 1635 717 C1569 340 1297 38 875 38 C453 38 288 340 355 717 L355 717 Z " />
<glyph glyph-name="Upsilontonos" unicode="&#x38e;" horiz-adv-x="1840" d="M278 1126 L334 1126 L511 1434 L427 1434 L278 1126 Z M1113 594 L1019 58 L829 58 L819 0 L1261 0 L1271 58 L1081 58 L1175 594 L1828 1376 L2002 1376 L2012 1434 L1580 1434 L1570 1376 L1755 1376 L1150 652 L800 1376 L994 1376 L1004 1434 L572 1434 L562 1376 L736 1376 L1113 594 Z " />
<glyph glyph-name="Omegatonos" unicode="&#x38f;" horiz-adv-x="1648" d="M318 1126 L374 1126 L551 1434 L467 1434 L318 1126 Z M680 58 L260 58 L293 248 L231 248 L188 0 L751 0 L761 58 C659 110 306 318 387 782 C450 1139 721 1396 1103 1396 C1485 1396 1662 1139 1599 782 C1518 318 1093 110 974 58 L964 0 L1524 0 L1567 248 L1505 248 L1472 58 L1066 58 C1134 79 1586 304 1665 782 C1728 1165 1526 1454 1107 1454 C682 1454 389 1165 321 782 C239 312 618 79 680 58 L680 58 Z " />
<glyph glyph-name="iotadieresistonos" unicode="&#x390;" horiz-adv-x="610" d="M520 1423 L575 1423 L752 1730 L668 1730 L520 1423 Z M366 176 L508 982 L268 982 L258 928 L440 928 L308 176 C298 123 277 0 421 0 L441 0 L450 53 L430 53 C344 53 358 131 366 176 L366 176 Z M307 1288 C301 1258 319 1233 352 1233 C390 1233 411 1258 417 1288 C422 1318 405 1343 371 1343 C336 1343 312 1318 307 1288 L307 1288 Z M647 1288 C641 1258 659 1233 692 1233 C730 1233 751 1258 757 1288 C762 1318 745 1343 711 1343 C676 1343 652 1318 647 1288 L647 1288 Z " />
<glyph glyph-name="Alpha" unicode="&#x391;" horiz-adv-x="1737" d="M1225 0 L1657 0 L1667 58 L1492 58 L1154 1434 L874 1434 L864 1376 L1054 1376 L265 58 L90 58 L80 0 L512 0 L522 58 L336 58 L596 495 L1321 495 L1427 58 L1235 58 L1225 0 Z M1111 1360 L1307 553 L631 553 L1111 1360 Z " />
<glyph glyph-name="Beta" unicode="&#x392;" horiz-adv-x="1475" d="M572 1376 L340 58 L150 58 L140 0 L850 0 C1233 0 1392 190 1423 387 C1455 591 1350 720 1206 753 C1350 790 1457 922 1484 1075 C1514 1249 1452 1434 1082 1434 L392 1434 L382 1376 L572 1376 Z M519 725 L1067 725 C1306 725 1389 569 1357 391 C1326 213 1189 58 860 58 L402 58 L519 725 Z M530 783 L634 1376 L1072 1376 C1398 1376 1445 1235 1418 1079 C1388 913 1264 783 1078 783 L530 783 Z " />
<glyph glyph-name="Gamma" unicode="&#x393;" horiz-adv-x="1365" d="M572 1376 L340 58 L150 58 L140 0 L582 0 L592 58 L402 58 L634 1376 L1405 1376 L1372 1186 L1434 1186 L1477 1434 L392 1434 L382 1376 L572 1376 Z " />
<glyph glyph-name="uni0394" unicode="&#x394;" horiz-adv-x="1737" d="M1657 0 L1667 58 L1492 58 L1154 1434 L874 1434 L864 1376 L1054 1376 L265 58 L90 58 L80 0 L1657 0 Z M1111 1360 L1427 58 L336 58 L1111 1360 Z " />
<glyph glyph-name="Epsilon" unicode="&#x395;" horiz-adv-x="1390" d="M1387 1186 L1449 1186 L1492 1434 L392 1434 L382 1376 L572 1376 L340 58 L150 58 L140 0 L1250 0 L1285 200 L1223 200 L1198 58 L402 58 L516 705 L1224 705 L1234 763 L526 763 L634 1376 L1420 1376 L1387 1186 Z " />
<glyph glyph-name="Zeta" unicode="&#x396;" horiz-adv-x="1324" d="M399 1186 L461 1186 L494 1376 L1331 1376 L146 37 L140 0 L1184 0 L1227 248 L1165 248 L1132 58 L245 58 L1430 1397 L1436 1434 L442 1434 L399 1186 Z " />
<glyph glyph-name="Eta" unicode="&#x397;" horiz-adv-x="1675" d="M634 1376 L824 1376 L834 1434 L392 1434 L382 1376 L572 1376 L340 58 L150 58 L140 0 L582 0 L592 58 L402 58 L516 705 L1407 705 L1293 58 L1103 58 L1093 0 L1535 0 L1545 58 L1355 58 L1587 1376 L1777 1376 L1787 1434 L1345 1434 L1335 1376 L1525 1376 L1417 763 L526 763 L634 1376 Z " />
<glyph glyph-name="Theta" unicode="&#x398;" horiz-adv-x="1652" d="M628 689 L1267 689 L1277 747 L638 747 L628 689 Z M828 -20 C1287 -20 1588 309 1658 717 C1727 1120 1538 1454 1076 1454 C617 1454 316 1125 246 717 C177 314 366 -20 828 -20 L828 -20 Z M312 717 C378 1094 650 1396 1072 1396 C1494 1396 1659 1094 1592 717 C1526 340 1254 38 832 38 C410 38 245 340 312 717 L312 717 Z " />
<glyph glyph-name="Iota" unicode="&#x399;" horiz-adv-x="722" d="M340 58 L150 58 L140 0 L582 0 L592 58 L402 58 L634 1376 L824 1376 L834 1434 L392 1434 L382 1376 L572 1376 L340 58 Z " />
<glyph glyph-name="Kappa" unicode="&#x39a;" horiz-adv-x="1557" d="M1219 0 L1417 0 L1427 58 L1257 58 L814 822 L1487 1376 L1649 1376 L1659 1434 L1227 1434 L1217 1376 L1395 1376 L505 642 L634 1376 L824 1376 L834 1434 L392 1434 L382 1376 L572 1376 L340 58 L150 58 L140 0 L582 0 L592 58 L402 58 L489 554 L766 782 L1219 0 Z " />
<glyph glyph-name="Lambda" unicode="&#x39b;" horiz-adv-x="1737" d="M1111 1360 L1427 58 L1235 58 L1225 0 L1657 0 L1667 58 L1492 58 L1154 1434 L874 1434 L864 1376 L1054 1376 L265 58 L90 58 L80 0 L512 0 L522 58 L336 58 L1111 1360 Z " />
<glyph glyph-name="Mu" unicode="&#x39c;" horiz-adv-x="1996" d="M1676 58 L1908 1376 L2098 1376 L2108 1434 L1823 1434 L1008 84 L669 1434 L392 1434 L382 1376 L572 1376 L340 58 L150 58 L140 0 L582 0 L592 58 L402 58 L630 1350 L969 0 L1027 0 L1842 1350 L1614 58 L1424 58 L1414 0 L1856 0 L1866 58 L1676 58 Z " />
<glyph glyph-name="Nu" unicode="&#x39d;" horiz-adv-x="1691" d="M572 1376 L340 58 L150 58 L140 0 L582 0 L592 58 L402 58 L631 1360 L1281 0 L1361 0 L1603 1376 L1793 1376 L1803 1434 L1361 1434 L1351 1376 L1541 1376 L1312 74 L662 1434 L392 1434 L382 1376 L572 1376 Z " />
<glyph glyph-name="Xi" unicode="&#x39e;" horiz-adv-x="1187" d="M362 1376 L1309 1376 L1319 1434 L372 1434 L362 1376 Z M120 0 L1067 0 L1077 58 L130 58 L120 0 Z M367 705 L1068 705 L1078 763 L377 763 L367 705 Z " />
<glyph glyph-name="Omicron" unicode="&#x39f;" horiz-adv-x="1652" d="M828 -20 C1287 -20 1588 309 1658 717 C1727 1120 1538 1454 1076 1454 C617 1454 316 1125 246 717 C177 314 366 -20 828 -20 L828 -20 Z M312 717 C378 1094 650 1396 1072 1396 C1494 1396 1659 1094 1592 717 C1526 340 1254 38 832 38 C410 38 245 340 312 717 L312 717 Z " />
<glyph glyph-name="Pi" unicode="&#x3a0;" horiz-adv-x="1684" d="M1534 1376 L1302 58 L1112 58 L1102 0 L1544 0 L1554 58 L1364 58 L1596 1376 L1786 1376 L1796 1434 L392 1434 L382 1376 L572 1376 L340 58 L150 58 L140 0 L582 0 L592 58 L402 58 L634 1376 L1534 1376 Z " />
<glyph glyph-name="Rho" unicode="&#x3a1;" horiz-adv-x="1454" d="M340 58 L150 58 L140 0 L582 0 L592 58 L402 58 L499 610 L1015 610 C1246 610 1472 746 1514 1022 C1554 1284 1389 1434 1160 1434 L392 1434 L382 1376 L572 1376 L340 58 Z M1150 1376 C1347 1376 1491 1254 1450 1022 C1409 790 1222 668 1025 668 L509 668 L634 1376 L1150 1376 Z " />
<glyph glyph-name="Sigma" unicode="&#x3a3;" horiz-adv-x="1263" d="M140 0 L1123 0 L1158 200 L1096 200 L1071 58 L257 58 L871 712 L488 1376 L1303 1376 L1270 1186 L1332 1186 L1375 1434 L402 1434 L397 1401 L793 721 L145 33 L140 0 Z " />
<glyph glyph-name="Tau" unicode="&#x3a4;" horiz-adv-x="1428" d="M349 1186 L411 1186 L444 1376 L925 1376 L693 58 L503 58 L493 0 L935 0 L945 58 L755 58 L987 1376 L1468 1376 L1435 1186 L1497 1186 L1540 1434 L392 1434 L349 1186 Z " />
<glyph glyph-name="Upsilon" unicode="&#x3a5;" horiz-adv-x="1600" d="M873 594 L779 58 L589 58 L579 0 L1021 0 L1031 58 L841 58 L935 594 L1588 1376 L1762 1376 L1772 1434 L1340 1434 L1330 1376 L1515 1376 L910 652 L560 1376 L754 1376 L764 1434 L332 1434 L322 1376 L496 1376 L873 594 Z " />
<glyph glyph-name="Phi" unicode="&#x3a6;" horiz-adv-x="1530" d="M744 58 L554 58 L544 0 L986 0 L996 58 L806 58 L828 183 C1186 183 1479 350 1536 717 C1590 1066 1364 1251 1016 1251 L1038 1376 L1228 1376 L1238 1434 L796 1434 L786 1376 L976 1376 L954 1251 C596 1251 303 1084 246 717 C192 368 418 183 766 183 L744 58 Z M776 241 C453 253 255 392 312 717 C370 1043 617 1181 944 1193 L776 241 Z M838 241 L1006 1193 C1329 1181 1527 1042 1470 717 C1412 391 1165 253 838 241 L838 241 Z " />
<glyph glyph-name="Chi" unicode="&#x3a7;" horiz-adv-x="1618" d="M583 1434 L385 1434 L375 1376 L546 1376 L904 752 L261 58 L90 58 L80 0 L512 0 L522 58 L338 58 L938 709 L1341 0 L1538 0 L1548 58 L1376 58 L978 752 L1555 1376 L1727 1376 L1737 1434 L1305 1434 L1295 1376 L1478 1376 L945 796 L583 1434 Z " />
<glyph glyph-name="Psi" unicode="&#x3a8;" horiz-adv-x="1770" d="M864 58 L674 58 L664 0 L1106 0 L1116 58 L926 58 L1009 532 C1347 532 1613 724 1741 1376 L1932 1376 L1942 1434 L1690 1434 C1593 881 1400 586 1019 586 L1158 1376 L1348 1376 L1358 1434 L916 1434 L906 1376 L1096 1376 L957 586 C572 586 487 881 584 1434 L332 1434 L322 1376 L512 1376 C411 724 628 532 947 532 L864 58 Z " />
<glyph glyph-name="uni03A9" unicode="&#x3a9;" horiz-adv-x="1584" d="M616 58 L196 58 L229 248 L167 248 L124 0 L687 0 L697 58 C595 110 242 318 323 782 C386 1139 657 1396 1039 1396 C1421 1396 1598 1139 1535 782 C1454 318 1029 110 910 58 L900 0 L1460 0 L1503 248 L1441 248 L1408 58 L1002 58 C1070 79 1522 304 1601 782 C1664 1165 1462 1454 1043 1454 C618 1454 325 1165 257 782 C175 312 554 79 616 58 L616 58 Z " />
<glyph glyph-name="Iotadieresis" unicode="&#x3aa;" horiz-adv-x="650" d="M304 58 L114 58 L104 0 L546 0 L556 58 L366 58 L598 1376 L788 1376 L798 1434 L356 1434 L346 1376 L536 1376 L304 58 Z M384 1611 C378 1581 396 1556 429 1556 C467 1556 488 1581 494 1611 C499 1641 482 1666 448 1666 C413 1666 389 1641 384 1611 L384 1611 Z M724 1611 C718 1581 736 1556 769 1556 C807 1556 828 1581 834 1611 C839 1641 822 1666 788 1666 C753 1666 729 1641 724 1611 L724 1611 Z " />
</font>
</svg>
