<?xml version="1.0" encoding="UTF-8"?>
<svg xmlns="http://www.w3.org/2000/svg" xmlns:xlink="http://www.w3.org/1999/xlink" version="1.2" >
<font id="Artegra Slab ExtraBold It">
<font-face  font-family="Artegra Slab" units-per-em="2048" ascent="1516" descent="-532" font-style="italic" font-weight="800" font-stretch="normal" cap-height="1434" x-height="1038" underline-position="-154" underline-thickness="102" />
<missing-glyph  horiz-adv-x="922" d="" />
<glyph glyph-name="NULL" d="" />
<glyph glyph-name="CR" unicode="&#xd;" horiz-adv-x="922" d="" />
<glyph glyph-name="space" unicode="&#x20;" horiz-adv-x="573" d="" />
<glyph glyph-name="exclam" unicode="&#x21;" horiz-adv-x="643" d="M234 452 L567 452 L770 1434 L377 1434 L234 452 Z M156 175 C137 67 209 -20 317 -20 C443 -20 528 67 547 175 C566 283 494 371 386 371 C260 371 175 283 156 175 L156 175 Z " />
<glyph glyph-name="quotedbl" unicode="&#x22;" horiz-adv-x="808" d="M199 927 L511 927 L620 1434 L267 1434 L199 927 Z M624 927 L936 927 L1045 1434 L692 1434 L624 927 Z " />
<glyph glyph-name="numbersign" unicode="&#x23;" horiz-adv-x="1631" d="M1182 1151 L994 1151 L1089 1434 L711 1434 L616 1151 L353 1151 L296 826 L506 826 L433 608 L172 608 L114 283 L324 283 L229 0 L607 0 L702 283 L890 283 L795 0 L1172 0 L1267 283 L1528 283 L1586 608 L1376 608 L1449 826 L1711 826 L1768 1151 L1559 1151 L1654 1434 L1277 1434 L1182 1151 Z M884 826 L1072 826 L999 608 L811 608 L884 826 Z " />
<glyph glyph-name="dollar" unicode="&#x24;" horiz-adv-x="1456" d="M1487 970 L1555 1361 C1555 1361 1383 1438 1135 1465 L1174 1674 L906 1674 L870 1470 C541 1443 347 1273 320 1021 C295 793 438 644 785 564 C948 530 1043 514 1026 419 C1007 307 863 285 737 285 C666 285 599 293 537 308 L566 473 L188 473 L127 127 C242 33 420 -22 604 -36 L568 -240 L836 -240 L874 -29 C1141 4 1367 125 1404 419 C1436 681 1264 799 913 879 C761 914 682 934 699 1031 C714 1116 821 1149 929 1149 C986 1149 1057 1144 1136 1125 L1109 970 L1487 970 Z " />
<glyph glyph-name="ampersand" unicode="&#x26;" horiz-adv-x="1616" d="M970 1474 C694 1474 455 1323 414 1052 C392 907 432 797 459 753 C282 661 135 540 121 350 C100 68 296 -40 564 -40 C762 -40 909 -6 1024 67 L1026 68 C1058 48 1154 0 1329 0 L1551 0 L1608 325 L1386 325 C1350 325 1327 329 1313 333 C1336 362 1361 395 1388 435 L1558 435 L1616 760 L1223 760 C1187 696 1113 591 1055 533 C1030 559 992 601 967 634 C1128 724 1330 843 1367 1092 C1399 1310 1233 1474 970 1474 L970 1474 Z M984 1064 C973 1001 902 958 807 908 C796 924 778 974 788 1032 C806 1132 867 1149 913 1149 C964 1149 994 1120 984 1064 L984 1064 Z M502 366 C511 417 559 434 629 476 C658 435 725 359 760 323 C733 298 662 285 619 285 C533 285 493 314 502 366 L502 366 Z " />
<glyph glyph-name="quotesingle" unicode="&#x27;" horiz-adv-x="383" d="M199 927 L511 927 L620 1434 L267 1434 L199 927 Z " />
<glyph glyph-name="parenleft" unicode="&#x28;" horiz-adv-x="862" d="M559 580 C650 1092 1028 1179 1028 1179 L949 1517 C949 1517 294 1366 181 580 C72 -178 619 -357 619 -357 L810 -59 C810 -59 468 68 559 580 L559 580 Z " />
<glyph glyph-name="parenright" unicode="&#x29;" horiz-adv-x="862" d="M507 580 C416 68 38 -19 38 -19 L117 -357 C117 -357 772 -206 885 580 C994 1338 447 1517 447 1517 L256 1219 C256 1219 598 1092 507 580 L507 580 Z " />
<glyph glyph-name="asterisk" unicode="&#x2a;" horiz-adv-x="1118" d="M592 1434 L600 1175 L371 1272 L206 918 L453 868 L246 678 L513 455 L683 669 L779 455 L1100 678 L960 868 L1234 898 L1185 1272 L921 1175 L990 1434 L592 1434 Z " />
<glyph glyph-name="plus" unicode="&#x2b;" horiz-adv-x="1180" d="M1263 841 L910 841 L970 1183 L625 1183 L565 841 L213 841 L155 516 L507 516 L447 173 L792 173 L852 516 L1205 516 L1263 841 Z " />
<glyph glyph-name="comma" unicode="&#x2c;" horiz-adv-x="700" d="M-4 -278 L336 -278 L681 264 L302 264 L-4 -278 Z " />
<glyph glyph-name="hyphen" unicode="&#x2d;" horiz-adv-x="926" d="M142 441 L939 441 L987 715 L190 715 L142 441 Z " />
<glyph glyph-name="period" unicode="&#x2e;" horiz-adv-x="521" d="M95 175 C76 67 148 -20 256 -20 C382 -20 467 67 486 175 C505 283 433 371 325 371 C199 371 114 283 95 175 L95 175 Z " />
<glyph glyph-name="slash" unicode="&#x2f;" horiz-adv-x="1223" d="M85 0 L479 0 L1390 1434 L997 1434 L85 0 Z " />
<glyph glyph-name="zero" unicode="0" horiz-adv-x="1464" d="M724 -40 C1198 -40 1448 217 1529 717 C1604 1177 1385 1474 991 1474 C517 1474 268 1217 187 717 C112 257 330 -40 724 -40 L724 -40 Z M782 285 C571 285 514 431 565 717 C615 1003 723 1149 934 1149 C1145 1149 1201 1003 1151 717 C1100 431 993 285 782 285 L782 285 Z " />
<glyph glyph-name="one" unicode="1" horiz-adv-x="994" d="M554 919 L449 325 L290 325 L233 0 L929 0 L986 325 L827 325 L1022 1434 L712 1434 L198 1041 L387 793 L554 919 Z " />
<glyph glyph-name="two" unicode="2" horiz-adv-x="1299" d="M590 962 C645 1047 725 1149 855 1149 C984 1149 1015 1084 1000 1000 C988 934 941 871 838 792 L135 262 L89 0 L1215 0 L1288 424 L950 424 L933 325 L746 325 L1078 575 C1245 704 1345 816 1378 1000 C1432 1303 1192 1474 892 1474 C546 1474 358 1263 263 1080 L590 962 Z " />
<glyph glyph-name="three" unicode="3" horiz-adv-x="1325" d="M108 221 C153 102 321 -40 676 -40 C1041 -40 1280 91 1332 388 C1365 577 1255 685 1143 721 C1259 773 1377 872 1405 1029 C1459 1337 1183 1474 913 1474 C538 1474 367 1298 300 1194 L264 990 L642 990 L658 1082 C699 1114 766 1149 866 1149 C1006 1149 1034 1093 1024 1033 C1002 911 846 894 629 894 L572 569 C838 569 979 552 958 432 C943 346 877 285 714 285 C611 285 550 305 508 339 L526 448 L148 448 L108 221 Z " />
<glyph glyph-name="four" unicode="4" horiz-adv-x="1398" d="M1316 0 L1368 295 L1209 295 L1222 373 L1398 373 L1453 681 L1277 681 L1409 1434 L1066 1434 L198 645 L150 373 L844 373 L831 295 L672 295 L620 0 L1316 0 Z M670 681 L942 929 L899 681 L670 681 Z " />
<glyph glyph-name="five" unicode="5" horiz-adv-x="1328" d="M1390 1434 L403 1434 L189 525 C189 525 481 629 748 629 C916 629 967 581 945 457 C920 316 816 285 668 285 C608 285 559 291 518 301 L537 407 L159 407 L111 136 C197 48 348 -40 630 -40 C1056 -40 1279 132 1323 457 C1368 788 1189 937 803 937 C746 937 695 931 657 923 L700 1109 L1333 1109 L1390 1434 Z " />
<glyph glyph-name="six" unicode="6" horiz-adv-x="1390" d="M1419 1395 C960 1569 208 1417 174 492 C158 194 314 -40 710 -40 C1077 -40 1337 125 1388 473 C1430 761 1268 986 871 986 C778 986 697 960 666 935 C706 1071 844 1141 998 1149 L982 1060 L1360 1060 L1419 1395 Z M1010 473 C989 357 895 285 748 285 C600 285 531 357 552 473 C572 589 667 661 814 661 C961 661 1030 589 1010 473 L1010 473 Z " />
<glyph glyph-name="seven" unicode="7" horiz-adv-x="1287" d="M1454 1434 L337 1434 L256 970 L634 970 L658 1109 L944 1109 L466 325 L329 325 L272 0 L968 0 L1025 325 L879 325 L1414 1203 L1454 1434 Z " />
<glyph glyph-name="eight" unicode="8" horiz-adv-x="1328" d="M655 -40 C1044 -40 1286 92 1337 403 C1364 569 1298 688 1194 735 C1308 778 1394 911 1414 1027 C1459 1283 1277 1474 922 1474 C507 1474 321 1303 276 1047 C256 931 298 810 396 767 C282 710 157 599 133 423 C90 109 346 -40 655 -40 L655 -40 Z M713 285 C560 285 498 339 515 433 C531 527 612 581 765 581 C918 581 979 527 963 433 C946 339 866 285 713 285 L713 285 Z M651 1017 C665 1099 734 1149 865 1149 C996 1149 1047 1099 1033 1017 C1018 935 950 885 819 885 C688 885 636 935 651 1017 L651 1017 Z " />
<glyph glyph-name="nine" unicode="9" horiz-adv-x="1389" d="M222 39 C681 -135 1433 17 1467 942 C1483 1240 1327 1474 931 1474 C564 1474 304 1309 253 961 C211 673 373 448 770 448 C863 448 944 474 975 499 C935 363 797 293 643 285 L659 374 L281 374 L222 39 Z M631 961 C652 1077 746 1149 893 1149 C1041 1149 1110 1077 1089 961 C1069 845 974 773 827 773 C680 773 611 845 631 961 L631 961 Z " />
<glyph glyph-name="colon" unicode="&#x3a;" horiz-adv-x="521" d="M95 175 C76 67 148 -20 256 -20 C382 -20 467 67 486 175 C505 283 433 371 325 371 C199 371 114 283 95 175 L95 175 Z M216 862 C197 754 269 667 377 667 C503 667 588 754 607 862 C626 970 554 1058 446 1058 C320 1058 235 970 216 862 L216 862 Z " />
<glyph glyph-name="semicolon" unicode="&#x3b;" horiz-adv-x="624" d="M-84 -278 L256 -278 L601 264 L222 264 L-84 -278 Z M319 862 C300 754 372 667 480 667 C606 667 691 754 710 862 C729 970 657 1058 549 1058 C423 1058 338 970 319 862 L319 862 Z " />
<glyph glyph-name="less" unicode="&#x3c;" horiz-adv-x="1090" d="M203 785 L163 557 L1018 75 L1086 462 L671 661 L1160 860 L1228 1267 L203 785 Z " />
<glyph glyph-name="equal" unicode="&#x3d;" horiz-adv-x="1039" d="M1161 1066 L252 1066 L195 741 L1104 741 L1161 1066 Z M1082 615 L173 615 L116 290 L1025 290 L1082 615 Z " />
<glyph glyph-name="greater" unicode="&#x3e;" horiz-adv-x="1090" d="M308 1267 L240 880 L655 681 L166 482 L98 75 L1123 557 L1163 785 L308 1267 Z " />
<glyph glyph-name="question" unicode="&#x3f;" horiz-adv-x="1244" d="M447 175 C428 67 500 -20 608 -20 C734 -20 819 67 838 175 C857 283 785 371 677 371 C551 371 466 283 447 175 L447 175 Z M543 1022 C615 1095 712 1149 831 1149 C961 1149 1012 1088 998 1008 C977 888 841 828 578 824 L512 452 L870 452 L903 639 C1231 694 1349 853 1380 1028 C1422 1268 1269 1474 868 1474 C520 1474 337 1307 253 1200 L543 1022 Z " />
<glyph glyph-name="at" unicode="&#x40;" horiz-adv-x="1683" d="M1312 185 C1553 185 1681 321 1716 517 C1795 963 1473 1264 1068 1264 C583 1264 225 1003 156 517 C92 70 379 -230 804 -230 C1083 -230 1252 -190 1413 -96 L1315 89 C1191 24 1037 -24 841 -24 C542 -24 333 168 395 517 C456 866 732 1058 1031 1058 C1339 1058 1538 866 1477 517 C1459 413 1396 371 1315 371 C1235 371 1220 436 1238 527 C1256 619 1283 727 1312 839 C1228 885 1137 908 1025 908 C909 908 628 844 545 527 C472 220 662 127 800 127 C932 127 1069 226 1112 329 C1119 256 1204 185 1312 185 L1312 185 Z M749 516 C804 707 986 749 1102 708 C1102 708 1079 629 1053 542 C1007 384 935 313 845 313 C750 313 709 379 749 516 L749 516 Z " />
<glyph glyph-name="A" unicode="A" horiz-adv-x="1700" d="M1189 325 L1046 325 L989 0 L1675 0 L1732 325 L1580 325 L1301 1434 L611 1434 L554 1109 L713 1109 L234 325 L82 325 L25 0 L731 0 L788 325 L644 325 L695 412 L1167 412 L1189 325 Z M1031 974 L1093 719 L878 719 L1031 974 Z " />
<glyph glyph-name="B" unicode="B" horiz-adv-x="1612" d="M972 0 C1430 0 1599 196 1626 414 C1646 578 1575 689 1419 734 C1572 772 1670 888 1690 1020 C1717 1196 1645 1434 1199 1434 L337 1434 L280 1109 L439 1109 L301 325 L142 325 L85 0 L972 0 Z M679 325 L725 587 L1047 587 C1201 587 1259 555 1242 456 C1224 357 1155 325 1000 325 L679 325 Z M775 869 L817 1109 L1130 1109 C1271 1109 1306 1065 1293 989 C1279 913 1229 869 1087 869 L775 869 Z " />
<glyph glyph-name="C" unicode="C" horiz-adv-x="1534" d="M891 285 C622 285 533 490 573 717 C613 944 774 1149 1043 1149 C1123 1149 1198 1141 1267 1121 L1242 970 L1620 970 L1686 1349 C1686 1349 1444 1474 1080 1474 C571 1474 247 1167 185 717 C128 306 354 -40 853 -40 C1147 -40 1340 32 1457 103 L1302 384 C1208 336 1058 285 891 285 L891 285 Z " />
<glyph glyph-name="D" unicode="D" horiz-adv-x="1630" d="M1716 717 C1775 1151 1580 1434 1117 1434 L337 1434 L280 1109 L439 1109 L301 325 L142 325 L85 0 L865 0 C1328 0 1649 223 1716 717 L1716 717 Z M922 325 L679 325 L817 1109 L1060 1109 C1300 1109 1366 933 1328 717 C1290 501 1162 325 922 325 L922 325 Z " />
<glyph glyph-name="E" unicode="E" horiz-adv-x="1540" d="M85 0 L1455 0 L1536 464 L1158 464 L1134 325 L679 325 L722 569 L1161 569 L1215 877 L776 877 L817 1109 L1256 1109 L1232 970 L1610 970 L1691 1434 L337 1434 L280 1109 L439 1109 L301 325 L142 325 L85 0 Z " />
<glyph glyph-name="F" unicode="F" horiz-adv-x="1524" d="M781 0 L838 325 L679 325 L716 538 L1155 538 L1210 846 L771 846 L817 1109 L1256 1109 L1232 970 L1610 970 L1691 1434 L337 1434 L280 1109 L439 1109 L301 325 L142 325 L85 0 L781 0 Z " />
<glyph glyph-name="G" unicode="G" horiz-adv-x="1564" d="M1080 1474 C571 1474 247 1167 185 717 C128 306 354 -40 853 -40 C1252 -40 1492 77 1492 77 L1629 855 L991 855 L939 557 L1199 557 L1157 320 C1157 320 1057 285 891 285 C622 285 533 490 573 717 C613 944 774 1149 1043 1149 C1201 1149 1299 1125 1299 1125 L1272 970 L1650 970 L1719 1363 C1719 1363 1466 1474 1080 1474 L1080 1474 Z " />
<glyph glyph-name="H" unicode="H" horiz-adv-x="1823" d="M439 1109 L301 325 L142 325 L85 0 L781 0 L838 325 L679 325 L722 569 L1301 569 L1258 325 L1099 325 L1042 0 L1738 0 L1795 325 L1636 325 L1774 1109 L1933 1109 L1990 1434 L1294 1434 L1237 1109 L1396 1109 L1358 894 L779 894 L817 1109 L976 1109 L1033 1434 L337 1434 L280 1109 L439 1109 Z " />
<glyph glyph-name="I" unicode="I" horiz-adv-x="866" d="M439 1109 L301 325 L142 325 L85 0 L781 0 L838 325 L679 325 L817 1109 L976 1109 L1033 1434 L337 1434 L280 1109 L439 1109 Z " />
<glyph glyph-name="J" unicode="J" horiz-adv-x="1376" d="M103 331 C136 138 262 -40 612 -40 C965 -40 1152 115 1218 490 L1327 1109 L1486 1109 L1543 1434 L847 1434 L790 1109 L949 1109 L840 490 C817 362 768 285 620 285 C514 285 470 352 447 425 L103 331 Z " />
<glyph glyph-name="K" unicode="K" horiz-adv-x="1652" d="M1602 1109 L1762 1109 L1819 1434 L1133 1434 L1076 1109 L1133 1109 L772 855 L817 1109 L976 1109 L1033 1434 L337 1434 L280 1109 L439 1109 L301 325 L142 325 L85 0 L781 0 L838 325 L679 325 L706 478 L863 589 L1132 0 L1567 0 L1624 325 L1465 325 L1214 836 L1602 1109 Z " />
<glyph glyph-name="L" unicode="L" horiz-adv-x="1428" d="M85 0 L1343 0 L1424 464 L1046 464 L1022 325 L679 325 L817 1109 L976 1109 L1033 1434 L337 1434 L280 1109 L439 1109 L301 325 L142 325 L85 0 Z " />
<glyph glyph-name="M" unicode="M" horiz-adv-x="2194" d="M976 1434 L337 1434 L280 1109 L439 1109 L301 325 L142 325 L85 0 L781 0 L838 325 L679 325 L767 824 L957 0 L1237 0 L1717 824 L1629 325 L1470 325 L1413 0 L2109 0 L2166 325 L2007 325 L2145 1109 L2304 1109 L2361 1434 L1682 1434 L1176 563 L976 1434 Z " />
<glyph glyph-name="N" unicode="N" horiz-adv-x="1842" d="M301 325 L142 325 L85 0 L781 0 L838 325 L679 325 L775 872 L1176 0 L1598 0 L1793 1109 L1952 1109 L2009 1434 L1313 1434 L1256 1109 L1415 1109 L1319 562 L918 1434 L337 1434 L280 1109 L439 1109 L301 325 Z " />
<glyph glyph-name="O" unicode="O" horiz-adv-x="1682" d="M853 -40 C1362 -40 1687 267 1749 717 C1806 1128 1579 1474 1080 1474 C571 1474 247 1167 185 717 C128 306 354 -40 853 -40 L853 -40 Z M891 285 C622 285 533 490 573 717 C613 944 774 1149 1043 1149 C1312 1149 1401 944 1361 717 C1321 490 1160 285 891 285 L891 285 Z " />
<glyph glyph-name="P" unicode="P" horiz-adv-x="1550" d="M439 1109 L301 325 L142 325 L85 0 L781 0 L838 325 L679 325 L704 470 L963 470 C1350 470 1604 586 1655 952 C1701 1281 1520 1434 1133 1434 L337 1434 L280 1109 L439 1109 Z M1076 1109 C1221 1109 1291 1084 1267 952 C1244 820 1166 795 1021 795 L762 795 L817 1109 L1076 1109 Z " />
<glyph glyph-name="Q" unicode="Q" horiz-adv-x="1682" d="M853 -40 C962 -40 1062 -25 1154 1 L1216 -88 L1586 -88 L1422 132 C1601 266 1715 470 1749 717 C1806 1128 1579 1474 1080 1474 C571 1474 247 1167 185 717 C128 306 354 -40 853 -40 L853 -40 Z M891 285 C622 285 533 490 573 717 C613 944 774 1149 1043 1149 C1312 1149 1401 944 1361 717 C1341 603 1291 495 1212 416 L1149 501 L807 501 L954 289 C933 286 913 285 891 285 L891 285 Z " />
<glyph glyph-name="R" unicode="R" horiz-adv-x="1564" d="M439 1109 L301 325 L142 325 L85 0 L781 0 L838 325 L679 325 L714 522 L876 522 L1077 0 L1499 0 L1556 325 L1397 325 L1286 581 C1424 618 1615 724 1657 962 C1718 1309 1500 1434 1123 1434 L337 1434 L280 1109 L439 1109 Z M1066 1109 C1221 1109 1291 1084 1269 962 C1248 840 1169 815 1014 815 L765 815 L817 1109 L1066 1109 Z " />
<glyph glyph-name="S" unicode="S" horiz-adv-x="1456" d="M1487 970 L1555 1361 C1555 1361 1302 1474 966 1474 C579 1474 350 1297 320 1021 C295 793 438 644 785 564 C948 530 1043 514 1026 419 C1007 307 863 285 737 285 C666 285 599 293 537 308 L566 473 L188 473 L127 127 C262 17 483 -40 699 -40 C1035 -40 1360 63 1404 419 C1436 681 1264 799 913 879 C761 914 682 934 699 1031 C714 1116 821 1149 929 1149 C986 1149 1057 1144 1136 1125 L1109 970 L1487 970 Z " />
<glyph glyph-name="T" unicode="T" horiz-adv-x="1612" d="M812 1109 L674 325 L515 325 L458 0 L1154 0 L1211 325 L1052 325 L1190 1109 L1344 1109 L1320 970 L1698 970 L1779 1434 L337 1434 L256 970 L634 970 L658 1109 L812 1109 Z " />
<glyph glyph-name="U" unicode="U" horiz-adv-x="1809" d="M1760 1109 L1919 1109 L1976 1434 L1280 1434 L1223 1109 L1382 1109 L1302 656 C1258 405 1160 285 955 285 C749 285 693 405 737 656 L817 1109 L976 1109 L1033 1434 L337 1434 L280 1109 L439 1109 L359 656 C285 234 476 -40 907 -40 C1446 -40 1606 234 1680 656 L1760 1109 Z " />
<glyph glyph-name="V" unicode="V" horiz-adv-x="1664" d="M633 0 L1031 0 L1684 1109 L1834 1109 L1891 1434 L1177 1434 L1120 1109 L1272 1109 L899 460 L754 1109 L898 1109 L955 1434 L277 1434 L220 1109 L369 1109 L633 0 Z " />
<glyph glyph-name="W" unicode="W" horiz-adv-x="2194" d="M1337 0 L1677 0 L2213 1109 L2364 1109 L2421 1434 L1715 1434 L1658 1109 L1807 1109 L1584 622 L1480 1434 L1198 1434 L808 622 L756 1109 L906 1109 L963 1434 L277 1434 L220 1109 L371 1109 L517 0 L857 0 L1236 789 L1337 0 Z " />
<glyph glyph-name="X" unicode="X" horiz-adv-x="1446" d="M684 1434 L316 1434 L259 1109 L418 1109 L627 744 L240 325 L82 325 L25 0 L681 0 L738 325 L680 325 L803 463 L1054 0 L1421 0 L1478 325 L1319 325 L1080 745 L1416 1109 L1576 1109 L1633 1434 L977 1434 L920 1109 L976 1109 L904 1028 L684 1434 Z " />
<glyph glyph-name="Y" unicode="Y" horiz-adv-x="1584" d="M688 483 L660 325 L501 325 L444 0 L1140 0 L1197 325 L1038 325 L1066 483 L1611 1109 L1754 1109 L1811 1434 L1125 1434 L1068 1109 L1167 1109 L921 824 L775 1109 L866 1109 L923 1434 L277 1434 L220 1109 L363 1109 L688 483 Z " />
<glyph glyph-name="Z" unicode="Z" horiz-adv-x="1423" d="M1590 1434 L357 1434 L276 970 L654 970 L678 1109 L963 1109 L115 172 L85 0 L1338 0 L1419 464 L1041 464 L1017 325 L711 325 L1560 1262 L1590 1434 Z " />
<glyph glyph-name="bracketleft" unicode="&#x5b;" horiz-adv-x="818" d="M688 1109 L938 1109 L995 1434 L367 1434 L45 -394 L673 -394 L730 -69 L480 -69 L688 1109 Z " />
<glyph glyph-name="backslash" unicode="&#x5c;" horiz-adv-x="1186" d="M730 1434 L337 1434 L707 0 L1101 0 L730 1434 Z " />
<glyph glyph-name="bracketright" unicode="&#x5d;" horiz-adv-x="818" d="M312 -69 L62 -69 L5 -394 L633 -394 L955 1434 L327 1434 L270 1109 L520 1109 L312 -69 Z " />
<glyph glyph-name="asciicircum" unicode="&#x5e;" horiz-adv-x="1212" d="M969 1434 L747 1434 L209 820 L540 820 L814 1090 L992 820 L1291 820 L969 1434 Z " />
<glyph glyph-name="underscore" unicode="&#x5f;" horiz-adv-x="1219" d="M17 -382 L1066 -382 L1114 -109 L65 -109 L17 -382 Z " />
<glyph glyph-name="grave" unicode="&#x60;" horiz-adv-x="714" d="M670 1434 L297 1434 L557 1124 L867 1124 L670 1434 Z " />
<glyph glyph-name="a" unicode="a" horiz-adv-x="1457" d="M1047 1038 L1023 904 C980 1010 851 1068 734 1068 C448 1068 161 920 101 519 C50 178 254 -30 540 -30 C657 -30 801 8 886 124 L864 0 L1392 0 L1440 273 L1281 273 L1368 765 L1527 765 L1575 1038 L1047 1038 Z M663 243 C494 243 442 367 469 519 C496 671 592 795 761 795 C930 795 982 671 955 519 C928 367 832 243 663 243 L663 243 Z " />
<glyph glyph-name="b" unicode="b" horiz-adv-x="1489" d="M224 0 L593 0 L619 148 C662 32 778 -30 905 -30 C1191 -30 1478 128 1538 519 C1590 860 1385 1068 1099 1068 C982 1068 837 1023 752 907 L860 1516 L332 1516 L284 1243 L443 1243 L224 0 Z M878 243 C709 243 657 367 684 519 C711 671 807 795 976 795 C1145 795 1197 671 1170 519 C1143 367 1047 243 878 243 L878 243 Z " />
<glyph glyph-name="c" unicode="c" horiz-adv-x="1205" d="M716 243 C552 243 473 357 502 519 C531 681 650 795 814 795 C848 795 879 791 909 784 L884 642 L1253 642 L1309 961 C1309 961 1120 1068 842 1068 C457 1068 190 871 133 519 C81 198 303 -30 688 -30 C861 -30 1028 6 1164 114 L1016 344 C944 296 833 243 716 243 L716 243 Z " />
<glyph glyph-name="d" unicode="d" horiz-adv-x="1488" d="M895 0 L1423 0 L1471 273 L1312 273 L1531 1516 L1003 1516 L955 1243 L1114 1243 L1054 904 C1011 1010 882 1068 765 1068 C479 1068 192 920 132 519 C81 178 285 -30 571 -30 C688 -30 832 8 917 124 L895 0 Z M694 243 C525 243 473 367 500 519 C527 671 623 795 792 795 C961 795 1013 671 986 519 C959 367 863 243 694 243 L694 243 Z " />
<glyph glyph-name="e" unicode="e" horiz-adv-x="1223" d="M1011 312 C926 272 826 243 715 243 C522 243 477 312 488 375 L1246 375 C1344 769 1205 1068 791 1068 C379 1068 186 830 135 519 C87 228 215 -30 637 -30 C893 -30 1049 30 1156 96 L1011 312 Z M528 620 C538 676 595 795 763 795 C930 795 945 676 935 620 L528 620 Z " />
<glyph glyph-name="f" unicode="f" horiz-adv-x="949" d="M967 1273 C1011 1273 1056 1265 1085 1258 L1219 1505 C1152 1530 1062 1546 957 1546 C591 1546 471 1342 417 1038 L228 1038 L179 765 L368 765 L282 273 L123 273 L75 0 L762 0 L810 273 L651 273 L737 765 L1018 765 L1067 1038 L786 1038 C818 1221 854 1273 967 1273 L967 1273 Z " />
<glyph glyph-name="g" unicode="g" horiz-adv-x="1488" d="M1078 1038 L1054 904 C1011 1010 882 1068 765 1068 C479 1068 192 920 132 519 C81 178 285 -30 571 -30 C688 -30 832 8 917 124 L895 0 C862 -183 744 -259 548 -259 C404 -259 289 -226 209 -179 L44 -406 C185 -502 359 -532 540 -532 C907 -532 1185 -408 1264 0 L1399 765 L1557 765 L1606 1038 L1078 1038 Z M694 243 C525 243 473 367 500 519 C527 671 623 795 792 795 C961 795 1013 671 986 519 C959 367 863 243 694 243 L694 243 Z " />
<glyph glyph-name="h" unicode="h" horiz-adv-x="1560" d="M272 273 L113 273 L65 0 L752 0 L800 273 L641 273 L699 602 C721 728 796 795 920 795 C1044 795 1095 728 1073 602 L967 0 L1495 0 L1543 273 L1384 273 L1442 602 C1494 900 1343 1068 1070 1068 C959 1068 841 1031 756 926 L860 1516 L332 1516 L284 1243 L443 1243 L272 273 Z " />
<glyph glyph-name="i" unicode="i" horiz-adv-x="817" d="M776 1038 L248 1038 L199 765 L358 765 L272 273 L113 273 L65 0 L752 0 L800 273 L641 273 L776 1038 Z M462 1344 C445 1243 511 1162 612 1162 C723 1162 810 1243 827 1344 C845 1445 778 1527 677 1527 C566 1527 480 1445 462 1344 L462 1344 Z " />
<glyph glyph-name="j" unicode="j" horiz-adv-x="624" d="M-240 -483 C-176 -515 -80 -532 -1 -532 C346 -532 473 -368 534 -26 L722 1038 L194 1038 L145 765 L304 765 L165 -26 C143 -148 108 -259 4 -259 C-43 -259 -78 -248 -108 -238 L-240 -483 Z M408 1344 C391 1243 457 1162 558 1162 C669 1162 756 1243 773 1344 C791 1445 724 1527 623 1527 C512 1527 426 1445 408 1344 L408 1344 Z " />
<glyph glyph-name="k" unicode="k" horiz-adv-x="1426" d="M941 0 L1361 0 L1409 273 L1248 273 L1085 617 L1323 765 L1486 765 L1535 1038 L908 1038 L859 765 L911 765 L704 635 L860 1516 L332 1516 L284 1243 L443 1243 L272 273 L113 273 L65 0 L712 0 L760 273 L641 273 L654 348 L772 421 L941 0 Z " />
<glyph glyph-name="l" unicode="l" horiz-adv-x="817" d="M860 1516 L332 1516 L284 1243 L443 1243 L272 273 L113 273 L65 0 L752 0 L800 273 L641 273 L860 1516 Z " />
<glyph glyph-name="m" unicode="m" horiz-adv-x="2167" d="M1574 0 L2102 0 L2150 273 L1991 273 L2050 610 C2101 898 1968 1068 1704 1068 C1584 1068 1451 1018 1356 886 C1304 1002 1188 1068 1029 1068 C934 1068 820 1023 758 939 L776 1038 L248 1038 L199 765 L358 765 L272 273 L113 273 L65 0 L752 0 L800 273 L641 273 L700 610 C718 714 773 795 886 795 C999 795 1024 714 1006 610 L899 0 L1427 0 L1475 273 L1316 273 L1375 610 C1393 714 1448 795 1561 795 C1674 795 1699 714 1681 610 L1574 0 Z " />
<glyph glyph-name="n" unicode="n" horiz-adv-x="1560" d="M967 0 L1495 0 L1543 273 L1384 273 L1442 602 C1494 900 1343 1068 1070 1068 C959 1068 841 1031 756 926 L776 1038 L248 1038 L199 765 L358 765 L272 273 L113 273 L65 0 L752 0 L800 273 L641 273 L699 602 C721 728 796 795 920 795 C1044 795 1095 728 1073 602 L967 0 Z " />
<glyph glyph-name="o" unicode="o" horiz-adv-x="1348" d="M688 -30 C1074 -30 1340 168 1397 519 C1449 841 1228 1068 842 1068 C457 1068 190 871 133 519 C81 198 303 -30 688 -30 L688 -30 Z M716 243 C552 243 473 357 502 519 C531 681 650 795 814 795 C979 795 1057 681 1028 519 C999 357 881 243 716 243 L716 243 Z " />
<glyph glyph-name="p" unicode="p" horiz-adv-x="1489" d="M776 1038 L248 1038 L199 765 L358 765 L176 -259 L19 -259 L-28 -532 L658 -532 L706 -259 L547 -259 L619 148 C662 32 778 -30 905 -30 C1191 -30 1478 128 1538 519 C1590 860 1385 1068 1099 1068 C982 1068 837 1023 752 907 L776 1038 Z M878 243 C709 243 657 367 684 519 C711 671 807 795 976 795 C1145 795 1197 671 1170 519 C1143 367 1047 243 878 243 L878 243 Z " />
<glyph glyph-name="q" unicode="q" horiz-adv-x="1488" d="M1078 1038 L1054 904 C1011 1010 882 1068 765 1068 C479 1068 192 920 132 519 C81 178 285 -30 571 -30 C688 -30 832 8 917 124 L849 -259 L690 -259 L642 -532 L1329 -532 L1377 -259 L1218 -259 L1399 765 L1557 765 L1606 1038 L1078 1038 Z M694 243 C525 243 473 367 500 519 C527 671 623 795 792 795 C961 795 1013 671 986 519 C959 367 863 243 694 243 L694 243 Z " />
<glyph glyph-name="r" unicode="r" horiz-adv-x="1118" d="M1301 1013 C1239 1049 1162 1068 1070 1068 C959 1068 841 1031 756 926 L776 1038 L248 1038 L199 765 L358 765 L272 273 L113 273 L65 0 L752 0 L800 273 L641 273 L699 602 C721 728 796 795 920 795 C988 795 1056 775 1093 748 L1301 1013 Z " />
<glyph glyph-name="s" unicode="s" horiz-adv-x="1142" d="M712 1068 C405 1068 224 956 195 742 C167 536 317 450 603 401 C696 385 774 378 764 322 C753 260 714 243 566 243 C535 243 495 248 478 253 L493 336 L124 336 L81 93 C192 -10 401 -30 548 -30 C804 -30 1088 8 1130 302 C1164 541 983 593 700 655 C632 670 553 680 563 732 C571 779 625 795 714 795 C746 795 772 793 798 789 L783 706 L1152 706 L1202 987 C1202 987 1008 1068 712 1068 L712 1068 Z " />
<glyph glyph-name="t" unicode="t" horiz-adv-x="931" d="M159 765 L346 765 L289 436 C235 133 310 -30 639 -30 C750 -30 844 -14 912 13 L878 264 C835 251 785 243 740 243 C641 243 636 314 664 471 L715 765 L994 765 L1043 1038 L764 1038 L816 1337 L447 1337 L395 1038 L208 1038 L159 765 Z " />
<glyph glyph-name="u" unicode="u" horiz-adv-x="1560" d="M1519 1038 L991 1038 L942 765 L1101 765 L1043 436 C1021 310 946 243 822 243 C698 243 647 310 669 436 L776 1038 L248 1038 L199 765 L358 765 L300 436 C248 138 399 -30 672 -30 C783 -30 901 7 986 112 L967 0 L1495 0 L1543 273 L1384 273 L1519 1038 Z " />
<glyph glyph-name="v" unicode="v" horiz-adv-x="1426" d="M1336 765 L1495 765 L1544 1038 L929 1038 L880 765 L951 765 L772 415 L714 765 L778 765 L827 1038 L248 1038 L199 765 L358 765 L533 0 L893 0 L1336 765 Z " />
<glyph glyph-name="w" unicode="w" horiz-adv-x="1974" d="M1874 765 L2043 765 L2092 1038 L1474 1038 L1425 765 L1514 765 L1364 440 L1277 1038 L1041 1038 L742 440 L705 765 L795 765 L844 1038 L248 1038 L199 765 L367 765 L502 0 L825 0 L1074 499 L1149 0 L1472 0 L1874 765 Z " />
<glyph glyph-name="x" unicode="x" horiz-adv-x="1337" d="M65 0 L554 0 L579 142 L720 304 L884 0 L1272 0 L1320 273 L1151 273 L996 543 L1202 765 L1369 765 L1418 1038 L929 1038 L903 896 L804 782 L670 1038 L280 1038 L231 765 L400 765 L529 543 L280 273 L113 273 L65 0 Z " />
<glyph glyph-name="y" unicode="y" horiz-adv-x="1424" d="M1332 765 L1493 765 L1542 1038 L929 1038 L880 765 L956 765 L774 425 L711 765 L780 765 L829 1038 L248 1038 L199 765 L360 765 L542 0 L456 -145 C409 -222 375 -259 258 -259 L126 -259 L78 -532 L252 -532 C532 -532 626 -427 713 -285 L882 0 L1332 765 Z " />
<glyph glyph-name="z" unicode="z" horiz-adv-x="1152" d="M65 0 L1087 0 L1153 376 L804 376 L786 273 L624 273 L1242 881 L1270 1038 L266 1038 L199 662 L548 662 L566 765 L710 765 L92 156 L65 0 Z " />
<glyph glyph-name="braceleft" unicode="&#x7b;" horiz-adv-x="871" d="M542 535 C698 599 763 729 796 917 C837 1151 906 1159 1013 1159 L1071 1504 C765 1504 505 1411 423 943 C388 748 291 708 188 698 L134 392 C234 382 317 342 282 147 C200 -321 467 -414 733 -414 L790 -89 C683 -89 624 -61 665 173 C698 361 639 481 542 535 L542 535 Z " />
<glyph glyph-name="bar" unicode="&#x7c;" horiz-adv-x="549" d="M-8 -532 L370 -532 L716 1434 L338 1434 L-8 -532 Z " />
<glyph glyph-name="braceright" unicode="&#x7d;" horiz-adv-x="872" d="M522 555 C366 491 301 361 268 173 C227 -61 158 -69 51 -69 L-7 -414 C299 -414 559 -321 641 147 C676 342 773 382 876 392 L930 698 C830 708 747 748 782 943 C864 1411 597 1504 331 1504 L274 1179 C381 1179 440 1151 399 917 C366 729 425 609 522 555 L522 555 Z " />
<glyph glyph-name="asciitilde" unicode="&#x7e;" horiz-adv-x="1380" d="M915 872 C864 931 787 1000 633 1000 C315 1000 196 748 161 550 L490 550 C497 589 534 661 593 661 C645 661 681 622 719 575 C770 516 847 447 1001 447 C1319 447 1438 699 1473 897 L1144 897 C1137 858 1100 786 1041 786 C989 786 953 825 915 872 L915 872 Z " />
<glyph glyph-name="uni00A0" unicode="&#xa0;" horiz-adv-x="573" d="" />
<glyph glyph-name="exclamdown" unicode="&#xa1;" horiz-adv-x="564" d="M528 450 L195 450 L-8 -532 L385 -532 L528 450 Z M606 727 C625 835 553 922 445 922 C319 922 234 835 215 727 C196 619 268 531 376 531 C502 531 587 619 606 727 L606 727 Z " />
<glyph glyph-name="cent" unicode="&#xa2;" horiz-adv-x="1165" d="M490 -7 L444 -270 L751 -270 L793 -25 C928 -12 1055 28 1164 114 L1016 344 C944 296 833 243 716 243 C552 243 473 357 502 519 C531 681 650 795 814 795 C848 795 879 791 909 784 L884 642 L1253 642 L1309 961 C1309 961 1182 1032 985 1058 L1029 1308 L722 1308 L677 1055 C381 1005 181 818 133 519 C90 258 229 58 490 -7 L490 -7 Z " />
<glyph glyph-name="sterling" unicode="&#xa3;" horiz-adv-x="1497" d="M182 555 L424 555 L421 536 C395 389 246 273 246 273 L198 0 L1355 0 L1412 326 L664 326 C664 326 774 394 798 530 L802 555 L1089 555 L1147 881 L781 881 C782 892 784 903 786 916 C811 1058 896 1149 1066 1149 C1203 1149 1271 1099 1319 986 L1614 1148 C1566 1334 1407 1474 1103 1474 C671 1474 468 1259 408 916 C406 904 404 892 403 881 L240 881 L182 555 Z " />
<glyph glyph-name="currency" unicode="&#xa4;" horiz-adv-x="1116" d="M328 1194 C273 1075 273 935 329 816 L182 669 L399 453 L546 600 C666 545 804 545 923 600 L1071 453 L1286 668 L1139 815 C1196 935 1196 1074 1140 1194 L1287 1341 L1071 1557 L925 1411 C805 1468 665 1468 544 1411 L399 1557 L182 1341 L328 1194 Z M626 1114 C686 1172 783 1172 844 1114 C902 1054 902 957 843 897 C783 838 687 838 626 897 C568 957 567 1054 626 1114 L626 1114 Z " />
<glyph glyph-name="yen" unicode="&#xa5;" horiz-adv-x="1664" d="M403 300 L362 63 L654 63 L643 0 L1021 0 L1032 63 L1324 63 L1365 300 L1073 300 L1080 336 L1372 336 L1414 573 L1184 573 L1651 1109 L1794 1109 L1851 1434 L1165 1434 L1108 1109 L1207 1109 L961 824 L815 1109 L906 1109 L963 1434 L317 1434 L260 1109 L403 1109 L681 573 L452 573 L410 336 L702 336 L695 300 L403 300 Z " />
<glyph glyph-name="brokenbar" unicode="&#xa6;" horiz-adv-x="549" d="M716 1434 L338 1434 L185 565 L563 565 L716 1434 Z M523 337 L145 337 L-8 -532 L370 -532 L523 337 Z " />
<glyph glyph-name="section" unicode="&#xa7;" horiz-adv-x="1464" d="M1422 419 C1454 681 1282 799 931 879 C779 914 700 934 717 1031 C732 1116 839 1149 947 1149 C1004 1149 1075 1144 1154 1125 L1127 970 L1505 970 L1573 1361 C1573 1361 1320 1474 984 1474 C597 1474 368 1297 338 1021 C327 924 347 842 399 773 C289 702 211 592 191 431 C159 169 331 51 682 -29 C834 -64 913 -84 896 -181 C881 -266 774 -299 666 -299 C609 -299 538 -294 459 -275 L486 -120 L108 -120 L40 -511 C40 -511 293 -624 629 -624 C1016 -624 1245 -447 1275 -171 C1285 -74 1266 7 1214 76 C1324 148 1402 257 1422 419 L1422 419 Z M1044 419 C1027 322 919 293 808 286 C646 320 552 336 569 431 C585 527 694 557 804 563 C966 529 1061 513 1044 419 L1044 419 Z " />
<glyph glyph-name="dieresis" unicode="&#xa8;" horiz-adv-x="956" d="M762 1344 C745 1243 811 1162 912 1162 C1023 1162 1110 1243 1127 1344 C1145 1445 1078 1527 977 1527 C866 1527 780 1445 762 1344 L762 1344 Z M301 1344 C284 1243 350 1162 451 1162 C562 1162 649 1243 666 1344 C684 1445 617 1527 516 1527 C405 1527 319 1445 301 1344 L301 1344 Z " />
<glyph glyph-name="copyright" unicode="&#xa9;" horiz-adv-x="1620" d="M765 717 C765 837 840 909 941 909 C1020 909 1071 895 1130 845 L1245 997 C1167 1074 1060 1116 941 1116 C708 1116 536 951 536 717 C536 483 708 318 941 318 C1060 318 1167 360 1245 437 L1130 589 C1071 539 1020 525 941 525 C840 525 765 597 765 717 L765 717 Z M179 717 C179 299 518 -40 936 -40 C1354 -40 1693 299 1693 717 C1693 1135 1354 1474 936 1474 C518 1474 179 1135 179 717 L179 717 Z M420 717 C420 1002 651 1233 936 1233 C1221 1233 1452 1002 1452 717 C1452 432 1221 201 936 201 C651 201 420 432 420 717 L420 717 Z " />
<glyph glyph-name="ordfeminine" unicode="&#xaa;" horiz-adv-x="900" d="M622 1270 C747 1270 775 1246 764 1183 C507 1200 237 1164 211 933 C193 774 310 704 487 704 C618 704 674 756 697 790 L683 714 L975 714 L1006 888 L910 888 L954 1138 C994 1365 880 1444 643 1444 C478 1444 353 1393 353 1393 L409 1236 C409 1236 510 1270 622 1270 L622 1270 Z M411 953 C423 1026 544 1050 741 1041 C720 924 648 878 527 878 C437 878 402 906 411 953 L411 953 Z " />
<glyph glyph-name="guillemotleft" unicode="&#xab;" horiz-adv-x="1600" d="M208 811 L174 619 L801 66 L877 498 L603 705 L954 912 L1030 1364 L208 811 Z M933 811 L899 619 L1526 66 L1602 498 L1328 705 L1679 912 L1755 1364 L933 811 Z " />
<glyph glyph-name="logicalnot" unicode="&#xac;" horiz-adv-x="1102" d="M158 528 L752 528 L696 213 L1074 213 L1187 853 L215 853 L158 528 Z " />
<glyph glyph-name="uni00AD" unicode="&#xad;" horiz-adv-x="927" d="M160 541 L957 541 L1005 815 L208 815 L160 541 Z " />
<glyph glyph-name="registered" unicode="&#xae;" horiz-adv-x="1064" d="M209 979 C209 706 431 484 704 484 C977 484 1199 706 1199 979 C1199 1252 977 1474 704 1474 C431 1474 209 1252 209 979 L209 979 Z M358 979 C358 1170 513 1325 704 1325 C895 1325 1050 1170 1050 979 C1050 788 895 633 704 633 C513 633 358 788 358 979 L358 979 Z M615 763 L640 902 L696 902 L748 763 L870 763 L811 917 C856 933 909 969 923 1045 C940 1143 881 1197 788 1197 L574 1197 L497 763 L615 763 Z M768 1084 C797 1084 808 1066 805 1045 C801 1023 783 1006 754 1006 L658 1006 L672 1084 L768 1084 Z " />
<glyph glyph-name="macron" unicode="&#xaf;" horiz-adv-x="1020" d="M269 1161 L1159 1161 L1207 1434 L317 1434 L269 1161 Z " />
<glyph glyph-name="degree" unicode="&#xb0;" horiz-adv-x="582" d="M406 1177 C415 1228 453 1269 514 1269 C565 1269 599 1228 590 1177 C581 1126 543 1085 482 1085 C431 1085 397 1126 406 1177 L406 1177 Z M201 1177 C175 1013 282 880 446 880 C630 880 766 993 795 1177 C821 1341 714 1474 550 1474 C366 1474 230 1361 201 1177 L201 1177 Z " />
<glyph glyph-name="plusminus" unicode="&#xb1;" horiz-adv-x="1180" d="M1302 1064 L949 1064 L1009 1406 L664 1406 L604 1064 L252 1064 L195 739 L547 739 L486 396 L831 396 L892 739 L1245 739 L1302 1064 Z M1172 325 L122 325 L65 0 L1115 0 L1172 325 Z " />
<glyph glyph-name="twosuperior" unicode="&#xb2;" horiz-adv-x="670" d="M433 1174 C451 1208 491 1270 564 1270 C624 1270 639 1240 634 1209 C628 1174 592 1144 538 1103 L217 860 L191 714 L747 714 L788 942 L642 942 L634 898 L555 898 L675 989 C749 1045 822 1120 831 1215 C845 1362 752 1444 585 1444 C387 1444 301 1324 263 1245 L433 1174 Z " />
<glyph glyph-name="threesuperior" unicode="&#xb3;" horiz-adv-x="696" d="M295 1334 L271 1202 L467 1202 L476 1249 C498 1260 526 1270 563 1270 C626 1270 655 1254 649 1220 C640 1173 576 1160 431 1160 L400 986 C548 986 625 988 616 938 C610 902 571 878 494 878 C453 878 424 886 401 898 L410 952 L214 952 L194 832 C212 790 288 704 478 704 C689 704 787 789 810 922 C826 1008 787 1053 718 1075 C786 1102 834 1150 849 1236 C870 1357 772 1444 580 1444 C425 1444 336 1376 295 1334 L295 1334 Z " />
<glyph glyph-name="acute" unicode="&#xb4;" horiz-adv-x="734" d="M243 1124 L573 1124 L941 1434 L548 1434 L243 1124 Z " />
<glyph glyph-name="mu" unicode="&#xb5;" horiz-adv-x="1640" d="M691 556 L776 1038 L248 1038 L199 765 L358 765 L178 -259 L19 -259 L-28 -532 L658 -532 L706 -259 L547 -259 L607 82 C651 7 733 -30 824 -30 C915 -30 989 -5 1059 70 L1047 0 L1575 0 L1623 273 L1464 273 L1599 1038 L1071 1038 L1022 765 L1181 765 L1145 556 C1117 400 1056 243 862 243 C668 243 663 400 691 556 L691 556 Z " />
<glyph glyph-name="paragraph" unicode="&#xb6;" horiz-adv-x="1695" d="M1882 1434 L861 1434 C464 1434 267 1208 226 933 C191 699 310 448 687 448 L736 448 L658 0 L1036 0 L1231 1109 L1297 1109 L1102 0 L1480 0 L1675 1109 L1825 1109 L1882 1434 Z M853 1109 L791 757 L742 757 C630 757 586 830 604 933 C622 1036 692 1109 804 1109 L853 1109 Z " />
<glyph glyph-name="periodcentered" unicode="&#xb7;" horiz-adv-x="493" d="M199 769 C182 668 248 587 349 587 C460 587 547 668 564 769 C582 870 515 952 414 952 C303 952 217 870 199 769 L199 769 Z " />
<glyph glyph-name="cedilla" unicode="&#xb8;" horiz-adv-x="674" d="M-47 -517 C182 -605 530 -594 572 -331 C594 -196 499 -118 353 -117 L448 73 L215 73 L51 -278 C169 -266 372 -234 351 -324 C325 -434 89 -381 22 -358 L-47 -517 Z " />
<glyph glyph-name="onesuperior" unicode="&#xb9;" horiz-adv-x="579" d="M266 714 L654 714 L685 888 L589 888 L685 1434 L507 1434 L234 1215 L349 1066 L437 1135 L393 888 L297 888 L266 714 Z " />
<glyph glyph-name="ordmasculine" unicode="&#xba;" horiz-adv-x="845" d="M560 704 C776 704 950 823 986 1074 C1020 1311 878 1444 662 1444 C446 1444 271 1325 236 1074 C203 838 344 704 560 704 L560 704 Z M576 878 C460 878 410 949 432 1074 C454 1199 529 1270 645 1270 C761 1270 812 1199 790 1074 C768 949 692 878 576 878 L576 878 Z " />
<glyph glyph-name="guillemotright" unicode="&#xbb;" horiz-adv-x="1600" d="M1050 1364 L974 932 L1249 725 L897 518 L821 66 L1644 619 L1678 811 L1050 1364 Z M325 1364 L249 932 L524 725 L172 518 L96 66 L919 619 L953 811 L325 1364 Z " />
<glyph glyph-name="onequarter" unicode="&#xbc;" horiz-adv-x="1631" d="M304 0 L563 0 L1638 1434 L1379 1434 L304 0 Z M366 714 L754 714 L785 888 L689 888 L785 1434 L607 1434 L334 1215 L449 1066 L537 1135 L493 888 L397 888 L366 714 Z M1246 191 L1236 134 L1140 134 L1117 0 L1505 0 L1528 134 L1432 134 L1442 191 L1544 191 L1568 325 L1466 325 L1535 720 L1346 720 L922 293 L904 191 L1246 191 Z M1156 325 L1294 464 L1270 325 L1156 325 Z " />
<glyph glyph-name="onehalf" unicode="&#xbd;" horiz-adv-x="1695" d="M304 0 L563 0 L1638 1434 L1379 1434 L304 0 Z M366 714 L754 714 L785 888 L689 888 L785 1434 L607 1434 L334 1215 L449 1066 L537 1135 L493 888 L397 888 L366 714 Z M1262 460 C1280 494 1320 556 1393 556 C1453 556 1468 526 1463 495 C1457 460 1421 430 1367 389 L1046 146 L1020 0 L1576 0 L1617 228 L1471 228 L1463 184 L1384 184 L1504 275 C1578 331 1651 406 1660 501 C1674 648 1581 730 1414 730 C1216 730 1130 610 1092 531 L1262 460 Z " />
<glyph glyph-name="threequarters" unicode="&#xbe;" horiz-adv-x="1655" d="M328 0 L587 0 L1662 1434 L1403 1434 L328 0 Z M1270 191 L1260 134 L1164 134 L1141 0 L1529 0 L1552 134 L1456 134 L1466 191 L1568 191 L1592 325 L1490 325 L1559 720 L1370 720 L946 293 L928 191 L1270 191 Z M1180 325 L1318 464 L1294 325 L1180 325 Z M365 1334 L341 1202 L537 1202 L546 1249 C568 1260 596 1270 633 1270 C696 1270 725 1254 719 1220 C710 1173 646 1160 501 1160 L470 986 C618 986 695 988 686 938 C680 902 641 878 564 878 C523 878 494 886 471 898 L480 952 L284 952 L264 832 C282 790 358 704 548 704 C759 704 857 789 880 922 C896 1008 857 1053 788 1075 C856 1102 904 1150 919 1236 C940 1357 842 1444 650 1444 C495 1444 406 1376 365 1334 L365 1334 Z " />
<glyph glyph-name="questiondown" unicode="&#xbf;" horiz-adv-x="1085" d="M876 727 C895 835 823 922 715 922 C589 922 504 835 485 727 C466 619 538 531 646 531 C772 531 857 619 876 727 L876 727 Z M780 -120 C708 -193 611 -247 492 -247 C362 -247 311 -186 325 -106 C346 14 482 74 745 78 L811 450 L453 450 L420 263 C92 208 -26 49 -57 -126 C-99 -366 54 -572 455 -572 C803 -572 986 -405 1070 -298 L780 -120 Z " />
<glyph glyph-name="Agrave" unicode="&#xc0;" horiz-adv-x="1700" d="M1086 1846 L693 1846 L952 1536 L1282 1536 L1086 1846 Z M1189 325 L1046 325 L989 0 L1675 0 L1732 325 L1580 325 L1301 1434 L611 1434 L554 1109 L713 1109 L234 325 L82 325 L25 0 L731 0 L788 325 L644 325 L695 412 L1167 412 L1189 325 Z M1031 974 L1093 719 L878 719 L1031 974 Z " />
<glyph glyph-name="Aacute" unicode="&#xc1;" horiz-adv-x="1700" d="M957 1536 L1287 1536 L1656 1846 L1263 1846 L957 1536 Z M1189 325 L1046 325 L989 0 L1675 0 L1732 325 L1580 325 L1301 1434 L611 1434 L554 1109 L713 1109 L234 325 L82 325 L25 0 L731 0 L788 325 L644 325 L695 412 L1167 412 L1189 325 Z M1031 974 L1093 719 L878 719 L1031 974 Z " />
<glyph glyph-name="Acircumflex" unicode="&#xc2;" horiz-adv-x="1700" d="M1189 325 L1046 325 L989 0 L1675 0 L1732 325 L1580 325 L1301 1434 L611 1434 L554 1109 L713 1109 L234 325 L82 325 L25 0 L731 0 L788 325 L644 325 L695 412 L1167 412 L1189 325 Z M1031 974 L1093 719 L878 719 L1031 974 Z M1266 1827 L1020 1827 L658 1536 L956 1536 L1131 1645 L1268 1536 L1526 1536 L1266 1827 Z " />
<glyph glyph-name="Atilde" unicode="&#xc3;" horiz-adv-x="1700" d="M1189 325 L1046 325 L989 0 L1675 0 L1732 325 L1580 325 L1301 1434 L611 1434 L554 1109 L713 1109 L234 325 L82 325 L25 0 L731 0 L788 325 L644 325 L695 412 L1167 412 L1189 325 Z M1031 974 L1093 719 L878 719 L1031 974 Z M1083 1590 C1112 1561 1148 1536 1229 1536 C1533 1536 1578 1845 1578 1845 L1353 1845 C1353 1845 1331 1767 1264 1767 C1217 1767 1203 1790 1179 1813 C1151 1842 1115 1867 1034 1867 C730 1867 684 1558 684 1558 L909 1558 C909 1558 931 1636 998 1636 C1045 1636 1059 1613 1083 1590 L1083 1590 Z " />
<glyph glyph-name="Adieresis" unicode="&#xc4;" horiz-adv-x="1700" d="M1189 325 L1046 325 L989 0 L1675 0 L1732 325 L1580 325 L1301 1434 L611 1434 L554 1109 L713 1109 L234 325 L82 325 L25 0 L731 0 L788 325 L644 325 L695 412 L1167 412 L1189 325 Z M1031 974 L1093 719 L878 719 L1031 974 Z M1181 1728 C1164 1627 1230 1546 1331 1546 C1442 1546 1529 1627 1546 1728 C1564 1829 1497 1911 1396 1911 C1285 1911 1199 1829 1181 1728 L1181 1728 Z M720 1728 C703 1627 769 1546 870 1546 C981 1546 1068 1627 1085 1728 C1103 1829 1036 1911 935 1911 C824 1911 738 1829 720 1728 L720 1728 Z " />
<glyph glyph-name="Aring" unicode="&#xc5;" horiz-adv-x="1700" d="M1189 325 L1046 325 L989 0 L1675 0 L1732 325 L1580 325 L1301 1434 L611 1434 L554 1109 L713 1109 L234 325 L82 325 L25 0 L731 0 L788 325 L644 325 L695 412 L1167 412 L1189 325 Z M1031 974 L1093 719 L878 719 L1031 974 Z M891 1789 C867 1649 960 1536 1100 1536 C1260 1536 1374 1649 1398 1789 C1423 1929 1329 2043 1189 2043 C1029 2043 916 1929 891 1789 L891 1789 Z M1073 1789 C1080 1828 1112 1860 1157 1860 C1196 1860 1222 1828 1215 1789 C1208 1750 1177 1718 1132 1718 C1093 1718 1066 1750 1073 1789 L1073 1789 Z " />
<glyph glyph-name="AE" unicode="&#xc6;" horiz-adv-x="2373" d="M2288 0 L2369 464 L1991 464 L1967 325 L1512 325 L1555 569 L1994 569 L2048 877 L1609 877 L1650 1109 L2089 1109 L2065 970 L2443 970 L2524 1434 L835 1434 L778 1109 L930 1109 L273 325 L142 325 L85 0 L781 0 L838 325 L708 325 L784 416 L1150 416 L1077 0 L2288 0 Z M1248 972 L1204 723 L1040 723 L1248 972 Z " />
<glyph glyph-name="Ccedilla" unicode="&#xc7;" horiz-adv-x="1534" d="M891 285 C622 285 533 490 573 717 C613 944 774 1149 1043 1149 C1123 1149 1198 1141 1267 1121 L1242 970 L1620 970 L1686 1349 C1686 1349 1444 1474 1080 1474 C571 1474 247 1167 185 717 C133 343 315 24 723 -31 L608 -278 C726 -266 929 -234 908 -324 C882 -434 646 -381 579 -358 L510 -517 C739 -605 1087 -594 1129 -331 C1151 -196 1056 -118 910 -117 L950 -37 C1190 -23 1353 40 1457 103 L1302 384 C1208 336 1058 285 891 285 L891 285 Z " />
<glyph glyph-name="Egrave" unicode="&#xc8;" horiz-adv-x="1540" d="M1041 1846 L648 1846 L907 1536 L1237 1536 L1041 1846 Z M85 0 L1455 0 L1536 464 L1158 464 L1134 325 L679 325 L722 569 L1161 569 L1215 877 L776 877 L817 1109 L1256 1109 L1232 970 L1610 970 L1691 1434 L337 1434 L280 1109 L439 1109 L301 325 L142 325 L85 0 Z " />
<glyph glyph-name="Eacute" unicode="&#xc9;" horiz-adv-x="1540" d="M869 1536 L1199 1536 L1568 1846 L1175 1846 L869 1536 Z M85 0 L1455 0 L1536 464 L1158 464 L1134 325 L679 325 L722 569 L1161 569 L1215 877 L776 877 L817 1109 L1256 1109 L1232 970 L1610 970 L1691 1434 L337 1434 L280 1109 L439 1109 L301 325 L142 325 L85 0 Z " />
<glyph glyph-name="Ecircumflex" unicode="&#xca;" horiz-adv-x="1540" d="M614 1536 L912 1536 L1087 1645 L1224 1536 L1482 1536 L1222 1827 L976 1827 L614 1536 Z M85 0 L1455 0 L1536 464 L1158 464 L1134 325 L679 325 L722 569 L1161 569 L1215 877 L776 877 L817 1109 L1256 1109 L1232 970 L1610 970 L1691 1434 L337 1434 L280 1109 L439 1109 L301 325 L142 325 L85 0 Z " />
<glyph glyph-name="Edieresis" unicode="&#xcb;" horiz-adv-x="1540" d="M1131 1728 C1114 1627 1180 1546 1281 1546 C1392 1546 1479 1627 1496 1728 C1514 1829 1447 1911 1346 1911 C1235 1911 1149 1829 1131 1728 L1131 1728 Z M670 1728 C653 1627 719 1546 820 1546 C931 1546 1018 1627 1035 1728 C1053 1829 986 1911 885 1911 C774 1911 688 1829 670 1728 L670 1728 Z M85 0 L1455 0 L1536 464 L1158 464 L1134 325 L679 325 L722 569 L1161 569 L1215 877 L776 877 L817 1109 L1256 1109 L1232 970 L1610 970 L1691 1434 L337 1434 L280 1109 L439 1109 L301 325 L142 325 L85 0 Z " />
<glyph glyph-name="Igrave" unicode="&#xcc;" horiz-adv-x="917" d="M763 1846 L370 1846 L629 1536 L959 1536 L763 1846 Z M530 1109 L392 325 L233 325 L176 0 L872 0 L929 325 L770 325 L908 1109 L1067 1109 L1124 1434 L428 1434 L371 1109 L530 1109 Z " />
<glyph glyph-name="Iacute" unicode="&#xcd;" horiz-adv-x="952" d="M533 1536 L863 1536 L1232 1846 L839 1846 L533 1536 Z M439 1109 L301 325 L142 325 L85 0 L781 0 L838 325 L679 325 L817 1109 L976 1109 L1033 1434 L337 1434 L280 1109 L439 1109 Z " />
<glyph glyph-name="Icircumflex" unicode="&#xce;" horiz-adv-x="951" d="M485 1109 L347 325 L188 325 L131 0 L827 0 L884 325 L725 325 L863 1109 L1022 1109 L1079 1434 L383 1434 L326 1109 L485 1109 Z M916 1827 L670 1827 L308 1536 L606 1536 L781 1645 L918 1536 L1176 1536 L916 1827 Z " />
<glyph glyph-name="Idieresis" unicode="&#xcf;" horiz-adv-x="916" d="M464 1109 L326 325 L167 325 L110 0 L806 0 L863 325 L704 325 L842 1109 L1001 1109 L1058 1434 L362 1434 L305 1109 L464 1109 Z M810 1728 C793 1627 859 1546 960 1546 C1071 1546 1158 1627 1175 1728 C1193 1829 1126 1911 1025 1911 C914 1911 828 1829 810 1728 L810 1728 Z M349 1728 C332 1627 398 1546 499 1546 C610 1546 697 1627 714 1728 C732 1829 665 1911 564 1911 C453 1911 367 1829 349 1728 L349 1728 Z " />
<glyph glyph-name="Eth" unicode="&#xd0;" horiz-adv-x="1685" d="M1771 717 C1830 1151 1635 1434 1172 1434 L392 1434 L335 1109 L494 1109 L453 880 L240 880 L182 555 L396 555 L356 325 L197 325 L140 0 L920 0 C1383 0 1704 223 1771 717 L1771 717 Z M977 325 L734 325 L774 555 L1049 555 L1107 880 L831 880 L872 1109 L1115 1109 C1355 1109 1421 933 1383 717 C1345 501 1217 325 977 325 L977 325 Z " />
<glyph glyph-name="Ntilde" unicode="&#xd1;" horiz-adv-x="1842" d="M1173 1590 C1202 1561 1237 1536 1318 1536 C1602 1536 1668 1845 1668 1845 L1443 1845 C1443 1845 1421 1767 1354 1767 C1307 1767 1293 1790 1269 1813 C1240 1842 1205 1867 1124 1867 C840 1867 774 1558 774 1558 L999 1558 C999 1558 1021 1636 1088 1636 C1135 1636 1149 1613 1173 1590 L1173 1590 Z M301 325 L142 325 L85 0 L781 0 L838 325 L679 325 L775 872 L1176 0 L1598 0 L1793 1109 L1952 1109 L2009 1434 L1313 1434 L1256 1109 L1415 1109 L1319 562 L918 1434 L337 1434 L280 1109 L439 1109 L301 325 Z " />
<glyph glyph-name="Ograve" unicode="&#xd2;" horiz-adv-x="1682" d="M853 -40 C1362 -40 1687 267 1749 717 C1806 1128 1579 1474 1080 1474 C571 1474 247 1167 185 717 C128 306 354 -40 853 -40 L853 -40 Z M891 285 C622 285 533 490 573 717 C613 944 774 1149 1043 1149 C1312 1149 1401 944 1361 717 C1321 490 1160 285 891 285 L891 285 Z M1080 1846 L707 1846 L967 1536 L1277 1536 L1080 1846 Z " />
<glyph glyph-name="Oacute" unicode="&#xd3;" horiz-adv-x="1682" d="M853 -40 C1362 -40 1687 267 1749 717 C1806 1128 1579 1474 1080 1474 C571 1474 247 1167 185 717 C128 306 354 -40 853 -40 L853 -40 Z M891 285 C622 285 533 490 573 717 C613 944 774 1149 1043 1149 C1312 1149 1401 944 1361 717 C1321 490 1160 285 891 285 L891 285 Z M953 1536 L1283 1536 L1651 1846 L1258 1846 L953 1536 Z " />
<glyph glyph-name="Ocircumflex" unicode="&#xd4;" horiz-adv-x="1682" d="M853 -40 C1362 -40 1687 267 1749 717 C1806 1128 1579 1474 1080 1474 C571 1474 247 1167 185 717 C128 306 354 -40 853 -40 L853 -40 Z M891 285 C622 285 533 490 573 717 C613 944 774 1149 1043 1149 C1312 1149 1401 944 1361 717 C1321 490 1160 285 891 285 L891 285 Z M1285 1827 L1039 1827 L677 1536 L975 1536 L1150 1645 L1287 1536 L1545 1536 L1285 1827 Z " />
<glyph glyph-name="Otilde" unicode="&#xd5;" horiz-adv-x="1682" d="M853 -40 C1362 -40 1687 267 1749 717 C1806 1128 1579 1474 1080 1474 C571 1474 247 1167 185 717 C128 306 354 -40 853 -40 L853 -40 Z M891 285 C622 285 533 490 573 717 C613 944 774 1149 1043 1149 C1312 1149 1401 944 1361 717 C1321 490 1160 285 891 285 L891 285 Z M1092 1590 C1121 1561 1157 1536 1238 1536 C1542 1536 1587 1845 1587 1845 L1362 1845 C1362 1845 1340 1767 1273 1767 C1226 1767 1212 1790 1188 1813 C1160 1842 1124 1867 1043 1867 C739 1867 693 1558 693 1558 L918 1558 C918 1558 940 1636 1007 1636 C1054 1636 1068 1613 1092 1590 L1092 1590 Z " />
<glyph glyph-name="Odieresis" unicode="&#xd6;" horiz-adv-x="1682" d="M853 -40 C1362 -40 1687 267 1749 717 C1806 1128 1579 1474 1080 1474 C571 1474 247 1167 185 717 C128 306 354 -40 853 -40 L853 -40 Z M891 285 C622 285 533 490 573 717 C613 944 774 1149 1043 1149 C1312 1149 1401 944 1361 717 C1321 490 1160 285 891 285 L891 285 Z M1202 1728 C1185 1627 1251 1546 1352 1546 C1463 1546 1550 1627 1567 1728 C1585 1829 1518 1911 1417 1911 C1306 1911 1220 1829 1202 1728 L1202 1728 Z M741 1728 C724 1627 790 1546 891 1546 C1002 1546 1089 1627 1106 1728 C1124 1829 1057 1911 956 1911 C845 1911 759 1829 741 1728 L741 1728 Z " />
<glyph glyph-name="multiply" unicode="&#xd7;" horiz-adv-x="1172" d="M250 968 L479 690 L133 396 L336 152 L681 445 L909 169 L1158 379 L929 656 L1275 951 L1073 1195 L727 901 L500 1178 L250 968 Z " />
<glyph glyph-name="Oslash" unicode="&#xd8;" horiz-adv-x="1682" d="M853 -40 C1362 -40 1687 267 1749 717 C1786 982 1704 1220 1507 1356 L1600 1495 L1370 1495 L1332 1439 C1258 1461 1174 1474 1080 1474 C571 1474 247 1167 185 717 C148 451 229 213 426 77 L334 -61 L564 -61 L601 -5 C675 -27 759 -40 853 -40 L853 -40 Z M573 717 C613 944 774 1149 1043 1149 C1076 1149 1106 1146 1133 1140 L634 390 C568 471 551 591 573 717 L573 717 Z M891 285 C858 285 828 288 800 294 L1299 1043 C1365 962 1383 843 1361 717 C1321 490 1160 285 891 285 L891 285 Z " />
<glyph glyph-name="Ugrave" unicode="&#xd9;" horiz-adv-x="1809" d="M1137 1846 L744 1846 L1003 1536 L1333 1536 L1137 1846 Z M1760 1109 L1919 1109 L1976 1434 L1280 1434 L1223 1109 L1382 1109 L1302 656 C1258 405 1160 285 955 285 C749 285 693 405 737 656 L817 1109 L976 1109 L1033 1434 L337 1434 L280 1109 L439 1109 L359 656 C285 234 476 -40 907 -40 C1446 -40 1606 234 1680 656 L1760 1109 Z " />
<glyph glyph-name="Uacute" unicode="&#xda;" horiz-adv-x="1809" d="M1014 1536 L1344 1536 L1713 1846 L1320 1846 L1014 1536 Z M1760 1109 L1919 1109 L1976 1434 L1280 1434 L1223 1109 L1382 1109 L1302 656 C1258 405 1160 285 955 285 C749 285 693 405 737 656 L817 1109 L976 1109 L1033 1434 L337 1434 L280 1109 L439 1109 L359 656 C285 234 476 -40 907 -40 C1446 -40 1606 234 1680 656 L1760 1109 Z " />
<glyph glyph-name="Ucircumflex" unicode="&#xdb;" horiz-adv-x="1809" d="M1760 1109 L1919 1109 L1976 1434 L1280 1434 L1223 1109 L1382 1109 L1302 656 C1258 405 1160 285 955 285 C749 285 693 405 737 656 L817 1109 L976 1109 L1033 1434 L337 1434 L280 1109 L439 1109 L359 656 C285 234 476 -40 907 -40 C1446 -40 1606 234 1680 656 L1760 1109 Z M741 1536 L1039 1536 L1214 1645 L1351 1536 L1609 1536 L1349 1827 L1103 1827 L741 1536 Z " />
<glyph glyph-name="Udieresis" unicode="&#xdc;" horiz-adv-x="1809" d="M1760 1109 L1919 1109 L1976 1434 L1280 1434 L1223 1109 L1382 1109 L1302 656 C1258 405 1160 285 955 285 C749 285 693 405 737 656 L817 1109 L976 1109 L1033 1434 L337 1434 L280 1109 L439 1109 L359 656 C285 234 476 -40 907 -40 C1446 -40 1606 234 1680 656 L1760 1109 Z M1256 1728 C1239 1627 1305 1546 1406 1546 C1517 1546 1604 1627 1621 1728 C1639 1829 1572 1911 1471 1911 C1360 1911 1274 1829 1256 1728 L1256 1728 Z M795 1728 C778 1627 844 1546 945 1546 C1056 1546 1143 1627 1160 1728 C1178 1829 1111 1911 1010 1911 C899 1911 813 1829 795 1728 L795 1728 Z " />
<glyph glyph-name="Yacute" unicode="&#xdd;" horiz-adv-x="1584" d="M887 1536 L1217 1536 L1586 1846 L1193 1846 L887 1536 Z M688 483 L660 325 L501 325 L444 0 L1140 0 L1197 325 L1038 325 L1066 483 L1611 1109 L1754 1109 L1811 1434 L1125 1434 L1068 1109 L1167 1109 L921 824 L775 1109 L866 1109 L923 1434 L277 1434 L220 1109 L363 1109 L688 483 Z " />
<glyph glyph-name="Thorn" unicode="&#xde;" horiz-adv-x="1362" d="M65 0 L761 0 L804 245 L645 245 L653 291 L861 291 C1180 291 1406 420 1446 717 C1483 991 1330 1143 1011 1143 L803 1143 L811 1189 L970 1189 L1013 1434 L317 1434 L274 1189 L433 1189 L267 245 L108 245 L65 0 Z M954 818 C1034 818 1082 796 1068 717 C1054 638 998 616 918 616 L710 616 L746 818 L954 818 Z " />
<glyph glyph-name="germandbls" unicode="&#xdf;" horiz-adv-x="1583" d="M764 861 C811 1123 937 1191 1079 1191 C1250 1191 1297 1119 1283 1031 C1268 936 1218 878 1079 875 L918 875 L870 602 L1035 602 C1162 602 1242 558 1222 419 C1208 323 1150 243 994 243 C906 243 819 258 751 289 L704 18 C759 -8 866 -30 966 -30 C1271 -30 1549 34 1590 399 C1610 574 1518 689 1384 729 C1504 766 1626 881 1652 1031 C1702 1314 1438 1464 1127 1464 C884 1464 495 1424 395 861 L301 325 L142 325 L85 0 L613 0 L764 861 Z " />
<glyph glyph-name="agrave" unicode="&#xe0;" horiz-adv-x="1457" d="M770 1434 L377 1434 L637 1124 L967 1124 L770 1434 Z M1047 1038 L1023 904 C980 1010 851 1068 734 1068 C448 1068 161 920 101 519 C50 178 254 -30 540 -30 C657 -30 801 8 886 124 L864 0 L1392 0 L1440 273 L1281 273 L1368 765 L1527 765 L1575 1038 L1047 1038 Z M663 243 C494 243 442 367 469 519 C496 671 592 795 761 795 C930 795 982 671 955 519 C928 367 832 243 663 243 L663 243 Z " />
<glyph glyph-name="aacute" unicode="&#xe1;" horiz-adv-x="1457" d="M675 1124 L1005 1124 L1373 1434 L980 1434 L675 1124 Z M1047 1038 L1023 904 C980 1010 851 1068 734 1068 C448 1068 161 920 101 519 C50 178 254 -30 540 -30 C657 -30 801 8 886 124 L864 0 L1392 0 L1440 273 L1281 273 L1368 765 L1527 765 L1575 1038 L1047 1038 Z M663 243 C494 243 442 367 469 519 C496 671 592 795 761 795 C930 795 982 671 955 519 C928 367 832 243 663 243 L663 243 Z " />
<glyph glyph-name="acircumflex" unicode="&#xe2;" horiz-adv-x="1457" d="M1047 1038 L1023 904 C980 1010 851 1068 734 1068 C448 1068 161 920 101 519 C50 178 254 -30 540 -30 C657 -30 801 8 886 124 L864 0 L1392 0 L1440 273 L1281 273 L1368 765 L1527 765 L1575 1038 L1047 1038 Z M663 243 C494 243 442 367 469 519 C496 671 592 795 761 795 C930 795 982 671 955 519 C928 367 832 243 663 243 L663 243 Z M1043 1434 L797 1434 L435 1143 L733 1143 L908 1252 L1045 1143 L1303 1143 L1043 1434 Z " />
<glyph glyph-name="atilde" unicode="&#xe3;" horiz-adv-x="1457" d="M1047 1038 L1023 904 C980 1010 851 1068 734 1068 C448 1068 161 920 101 519 C50 178 254 -30 540 -30 C657 -30 801 8 886 124 L864 0 L1392 0 L1440 273 L1281 273 L1368 765 L1527 765 L1575 1038 L1047 1038 Z M663 243 C494 243 442 367 469 519 C496 671 592 795 761 795 C930 795 982 671 955 519 C928 367 832 243 663 243 L663 243 Z M886 1217 C915 1188 951 1163 1032 1163 C1336 1163 1381 1472 1381 1472 L1156 1472 C1156 1472 1134 1394 1067 1394 C1020 1394 1006 1417 982 1440 C954 1469 918 1494 837 1494 C533 1494 487 1185 487 1185 L712 1185 C712 1185 734 1263 801 1263 C848 1263 862 1240 886 1217 L886 1217 Z " />
<glyph glyph-name="adieresis" unicode="&#xe4;" horiz-adv-x="1457" d="M1047 1038 L1023 904 C980 1010 851 1068 734 1068 C448 1068 161 920 101 519 C50 178 254 -30 540 -30 C657 -30 801 8 886 124 L864 0 L1392 0 L1440 273 L1281 273 L1368 765 L1527 765 L1575 1038 L1047 1038 Z M663 243 C494 243 442 367 469 519 C496 671 592 795 761 795 C930 795 982 671 955 519 C928 367 832 243 663 243 L663 243 Z M969 1344 C952 1243 1018 1162 1119 1162 C1230 1162 1317 1243 1334 1344 C1352 1445 1285 1527 1184 1527 C1073 1527 987 1445 969 1344 L969 1344 Z M508 1344 C491 1243 557 1162 658 1162 C769 1162 856 1243 873 1344 C891 1445 824 1527 723 1527 C612 1527 526 1445 508 1344 L508 1344 Z " />
<glyph glyph-name="aring" unicode="&#xe5;" horiz-adv-x="1457" d="M1047 1038 L1023 904 C980 1010 851 1068 734 1068 C448 1068 161 920 101 519 C50 178 254 -30 540 -30 C657 -30 801 8 886 124 L864 0 L1392 0 L1440 273 L1281 273 L1368 765 L1527 765 L1575 1038 L1047 1038 Z M663 243 C494 243 442 367 469 519 C496 671 592 795 761 795 C930 795 982 671 955 519 C928 367 832 243 663 243 L663 243 Z M654 1377 C630 1237 723 1124 863 1124 C1023 1124 1137 1237 1161 1377 C1186 1517 1092 1631 952 1631 C792 1631 679 1517 654 1377 L654 1377 Z M836 1377 C843 1416 875 1448 920 1448 C959 1448 985 1416 978 1377 C971 1338 940 1306 895 1306 C856 1306 829 1338 836 1377 L836 1377 Z " />
<glyph glyph-name="ae" unicode="&#xe6;" horiz-adv-x="1924" d="M1712 312 C1627 272 1527 243 1416 243 C1223 243 1178 312 1189 375 L1947 375 C2045 769 1906 1068 1492 1068 C1344 1068 1224 1037 1129 983 C1050 1042 929 1068 773 1068 C596 1068 416 1040 295 988 L373 762 C478 796 600 815 699 815 C843 815 882 781 863 672 C527 703 136 620 97 312 C69 102 209 -24 490 -24 C616 -24 767 -14 965 79 C1047 11 1169 -30 1338 -30 C1594 -30 1750 30 1857 96 L1712 312 Z M470 339 C495 480 745 473 830 471 L818 406 C801 308 715 239 572 239 C496 239 458 272 470 339 L470 339 Z M1229 620 C1239 676 1296 795 1464 795 C1631 795 1646 676 1636 620 L1229 620 Z " />
<glyph glyph-name="ccedilla" unicode="&#xe7;" horiz-adv-x="1225" d="M716 243 C552 243 473 357 502 519 C531 681 650 795 814 795 C848 795 879 791 909 784 L884 642 L1253 642 L1309 961 C1309 961 1120 1068 842 1068 C457 1068 190 871 133 519 C87 238 252 28 551 -19 L431 -278 C549 -266 752 -234 731 -324 C705 -434 469 -381 402 -358 L333 -517 C562 -605 910 -594 952 -331 C974 -196 879 -118 733 -117 L777 -26 C918 -15 1051 24 1164 114 L1016 344 C944 296 833 243 716 243 L716 243 Z " />
<glyph glyph-name="egrave" unicode="&#xe8;" horiz-adv-x="1223" d="M1011 312 C926 272 826 243 715 243 C522 243 477 312 488 375 L1246 375 C1344 769 1205 1068 791 1068 C379 1068 186 830 135 519 C87 228 215 -30 637 -30 C893 -30 1049 30 1156 96 L1011 312 Z M528 620 C538 676 595 795 763 795 C930 795 945 676 935 620 L528 620 Z M791 1434 L418 1434 L678 1124 L988 1124 L791 1434 Z " />
<glyph glyph-name="eacute" unicode="&#xe9;" horiz-adv-x="1230" d="M1011 312 C926 272 826 243 715 243 C522 243 477 312 488 375 L1246 375 C1344 769 1205 1068 791 1068 C379 1068 186 830 135 519 C87 228 215 -30 637 -30 C893 -30 1049 30 1156 96 L1011 312 Z M528 620 C538 676 595 795 763 795 C930 795 945 676 935 620 L528 620 Z M651 1124 L981 1124 L1349 1434 L956 1434 L651 1124 Z " />
<glyph glyph-name="ecircumflex" unicode="&#xea;" horiz-adv-x="1223" d="M1011 312 C926 272 826 243 715 243 C522 243 477 312 488 375 L1246 375 C1344 769 1205 1068 791 1068 C379 1068 186 830 135 519 C87 228 215 -30 637 -30 C893 -30 1049 30 1156 96 L1011 312 Z M528 620 C538 676 595 795 763 795 C930 795 945 676 935 620 L528 620 Z M1011 1434 L765 1434 L403 1143 L701 1143 L876 1252 L1013 1143 L1271 1143 L1011 1434 Z " />
<glyph glyph-name="edieresis" unicode="&#xeb;" horiz-adv-x="1240" d="M1011 312 C926 272 826 243 715 243 C522 243 477 312 488 375 L1246 375 C1344 769 1205 1068 791 1068 C379 1068 186 830 135 519 C87 228 215 -30 637 -30 C893 -30 1049 30 1156 96 L1011 312 Z M528 620 C538 676 595 795 763 795 C930 795 945 676 935 620 L528 620 Z M930 1344 C913 1243 979 1162 1080 1162 C1191 1162 1278 1243 1295 1344 C1313 1445 1246 1527 1145 1527 C1034 1527 948 1445 930 1344 L930 1344 Z M469 1344 C452 1243 518 1162 619 1162 C730 1162 817 1243 834 1344 C852 1445 785 1527 684 1527 C573 1527 487 1445 469 1344 L469 1344 Z " />
<glyph glyph-name="igrave" unicode="&#xec;" horiz-adv-x="915" d="M670 1434 L277 1434 L537 1124 L867 1124 L670 1434 Z M874 1038 L346 1038 L297 765 L456 765 L370 273 L211 273 L163 0 L850 0 L898 273 L739 273 L874 1038 Z " />
<glyph glyph-name="iacute" unicode="&#xed;" horiz-adv-x="910" d="M439 1124 L769 1124 L1137 1434 L744 1434 L439 1124 Z M776 1038 L248 1038 L199 765 L358 765 L272 273 L113 273 L65 0 L752 0 L800 273 L641 273 L776 1038 Z " />
<glyph glyph-name="icircumflex" unicode="&#xee;" horiz-adv-x="918" d="M827 1038 L299 1038 L250 765 L409 765 L323 273 L164 273 L116 0 L803 0 L851 273 L692 273 L827 1038 Z M834 1434 L588 1434 L226 1143 L524 1143 L699 1252 L836 1143 L1094 1143 L834 1434 Z " />
<glyph glyph-name="idieresis" unicode="&#xef;" horiz-adv-x="876" d="M806 1038 L278 1038 L229 765 L388 765 L302 273 L143 273 L95 0 L782 0 L830 273 L671 273 L806 1038 Z M722 1344 C705 1243 771 1162 872 1162 C983 1162 1070 1243 1087 1344 C1105 1445 1038 1527 937 1527 C826 1527 740 1445 722 1344 L722 1344 Z M261 1344 C244 1243 310 1162 411 1162 C522 1162 609 1243 626 1344 C644 1445 577 1527 476 1527 C365 1527 279 1445 261 1344 L261 1344 Z " />
<glyph glyph-name="eth" unicode="&#xf0;" horiz-adv-x="1325" d="M800 1087 L922 1203 C1017 1130 1049 1014 1054 905 C1017 995 902 1068 765 1068 C479 1068 192 920 132 519 C81 178 295 -30 641 -30 C1066 -30 1310 200 1383 679 C1440 1055 1340 1297 1157 1446 L1246 1535 L1065 1707 L932 1573 C851 1604 765 1625 680 1638 L547 1341 C589 1334 642 1324 675 1314 L620 1260 L800 1087 Z M694 243 C525 243 473 367 500 519 C527 671 623 795 792 795 C961 795 1013 671 986 519 C959 367 863 243 694 243 L694 243 Z " />
<glyph glyph-name="ntilde" unicode="&#xf1;" horiz-adv-x="1560" d="M967 0 L1495 0 L1543 273 L1384 273 L1442 602 C1494 900 1343 1068 1070 1068 C959 1068 841 1031 756 926 L776 1038 L248 1038 L199 765 L358 765 L272 273 L113 273 L65 0 L752 0 L800 273 L641 273 L699 602 C721 728 796 795 920 795 C1044 795 1095 728 1073 602 L967 0 Z M967 1217 C996 1188 1032 1163 1113 1163 C1417 1163 1462 1472 1462 1472 L1237 1472 C1237 1472 1215 1394 1148 1394 C1101 1394 1087 1417 1063 1440 C1035 1469 999 1494 918 1494 C614 1494 568 1185 568 1185 L793 1185 C793 1185 815 1263 882 1263 C929 1263 943 1240 967 1217 L967 1217 Z " />
<glyph glyph-name="ograve" unicode="&#xf2;" horiz-adv-x="1348" d="M688 -30 C1074 -30 1340 168 1397 519 C1449 841 1228 1068 842 1068 C457 1068 190 871 133 519 C81 198 303 -30 688 -30 L688 -30 Z M716 243 C552 243 473 357 502 519 C531 681 650 795 814 795 C979 795 1057 681 1028 519 C999 357 881 243 716 243 L716 243 Z M834 1434 L461 1434 L721 1124 L1031 1124 L834 1434 Z " />
<glyph glyph-name="oacute" unicode="&#xf3;" horiz-adv-x="1349" d="M688 -30 C1074 -30 1340 168 1397 519 C1449 841 1228 1068 842 1068 C457 1068 190 871 133 519 C81 198 303 -30 688 -30 L688 -30 Z M716 243 C552 243 473 357 502 519 C531 681 650 795 814 795 C979 795 1057 681 1028 519 C999 357 881 243 716 243 L716 243 Z M708 1124 L1038 1124 L1406 1434 L1013 1434 L708 1124 Z " />
<glyph glyph-name="ocircumflex" unicode="&#xf4;" horiz-adv-x="1348" d="M688 -30 C1074 -30 1340 168 1397 519 C1449 841 1228 1068 842 1068 C457 1068 190 871 133 519 C81 198 303 -30 688 -30 L688 -30 Z M716 243 C552 243 473 357 502 519 C531 681 650 795 814 795 C979 795 1057 681 1028 519 C999 357 881 243 716 243 L716 243 Z M1049 1434 L803 1434 L441 1143 L739 1143 L914 1252 L1051 1143 L1309 1143 L1049 1434 Z " />
<glyph glyph-name="otilde" unicode="&#xf5;" horiz-adv-x="1348" d="M688 -30 C1074 -30 1340 168 1397 519 C1449 841 1228 1068 842 1068 C457 1068 190 871 133 519 C81 198 303 -30 688 -30 L688 -30 Z M716 243 C552 243 473 357 502 519 C531 681 650 795 814 795 C979 795 1057 681 1028 519 C999 357 881 243 716 243 L716 243 Z M860 1217 C889 1188 925 1163 1006 1163 C1310 1163 1355 1472 1355 1472 L1130 1472 C1130 1472 1108 1394 1041 1394 C994 1394 980 1417 956 1440 C928 1469 892 1494 811 1494 C507 1494 461 1185 461 1185 L686 1185 C686 1185 708 1263 775 1263 C822 1263 836 1240 860 1217 L860 1217 Z " />
<glyph glyph-name="odieresis" unicode="&#xf6;" horiz-adv-x="1348" d="M688 -30 C1074 -30 1340 168 1397 519 C1449 841 1228 1068 842 1068 C457 1068 190 871 133 519 C81 198 303 -30 688 -30 L688 -30 Z M716 243 C552 243 473 357 502 519 C531 681 650 795 814 795 C979 795 1057 681 1028 519 C999 357 881 243 716 243 L716 243 Z M964 1324 C947 1223 1013 1142 1114 1142 C1225 1142 1312 1223 1329 1324 C1347 1425 1280 1507 1179 1507 C1068 1507 982 1425 964 1324 L964 1324 Z M503 1324 C486 1223 552 1142 653 1142 C764 1142 851 1223 868 1324 C886 1425 819 1507 718 1507 C607 1507 521 1425 503 1324 L503 1324 Z " />
<glyph glyph-name="divide" unicode="&#xf7;" horiz-adv-x="1060" d="M155 516 L1085 516 L1143 841 L213 841 L155 516 Z M531 1097 C512 991 583 905 689 905 C805 905 896 991 915 1097 C934 1203 863 1289 757 1289 C641 1289 550 1203 531 1097 L531 1097 Z M383 260 C365 154 435 68 541 68 C657 68 749 154 767 260 C786 366 715 452 609 452 C493 452 402 366 383 260 L383 260 Z " />
<glyph glyph-name="oslash" unicode="&#xf8;" horiz-adv-x="1390" d="M709 -30 C1095 -30 1361 168 1418 519 C1452 730 1369 900 1198 992 L1270 1099 L1078 1099 L1044 1049 C989 1061 928 1068 863 1068 C478 1068 211 871 154 519 C120 308 203 138 373 46 L302 -61 L494 -61 L527 -11 C583 -23 643 -30 709 -30 L709 -30 Z M737 243 C724 243 711 244 699 245 L1015 718 C1051 669 1063 600 1049 519 C1020 357 902 243 737 243 L737 243 Z M523 519 C552 681 671 795 835 795 C848 795 861 794 873 792 L557 321 C521 369 508 438 523 519 L523 519 Z " />
<glyph glyph-name="ugrave" unicode="&#xf9;" horiz-adv-x="1560" d="M950 1434 L557 1434 L817 1124 L1147 1124 L950 1434 Z M1519 1038 L991 1038 L942 765 L1101 765 L1043 436 C1021 310 946 243 822 243 C698 243 647 310 669 436 L776 1038 L248 1038 L199 765 L358 765 L300 436 C248 138 399 -30 672 -30 C783 -30 901 7 986 112 L967 0 L1495 0 L1543 273 L1384 273 L1519 1038 Z " />
<glyph glyph-name="uacute" unicode="&#xfa;" horiz-adv-x="1560" d="M810 1124 L1140 1124 L1508 1434 L1115 1434 L810 1124 Z M1519 1038 L991 1038 L942 765 L1101 765 L1043 436 C1021 310 946 243 822 243 C698 243 647 310 669 436 L776 1038 L248 1038 L199 765 L358 765 L300 436 C248 138 399 -30 672 -30 C783 -30 901 7 986 112 L967 0 L1495 0 L1543 273 L1384 273 L1519 1038 Z " />
<glyph glyph-name="ucircumflex" unicode="&#xfb;" horiz-adv-x="1560" d="M1519 1038 L991 1038 L942 765 L1101 765 L1043 436 C1021 310 946 243 822 243 C698 243 647 310 669 436 L776 1038 L248 1038 L199 765 L358 765 L300 436 C248 138 399 -30 672 -30 C783 -30 901 7 986 112 L967 0 L1495 0 L1543 273 L1384 273 L1519 1038 Z M546 1143 L844 1143 L1019 1252 L1156 1143 L1414 1143 L1154 1434 L908 1434 L546 1143 Z " />
<glyph glyph-name="udieresis" unicode="&#xfc;" horiz-adv-x="1560" d="M1519 1038 L991 1038 L942 765 L1101 765 L1043 436 C1021 310 946 243 822 243 C698 243 647 310 669 436 L776 1038 L248 1038 L199 765 L358 765 L300 436 C248 138 399 -30 672 -30 C783 -30 901 7 986 112 L967 0 L1495 0 L1543 273 L1384 273 L1519 1038 Z M1065 1344 C1048 1243 1114 1162 1215 1162 C1326 1162 1413 1243 1430 1344 C1448 1445 1381 1527 1280 1527 C1169 1527 1083 1445 1065 1344 L1065 1344 Z M604 1344 C587 1243 653 1162 754 1162 C865 1162 952 1243 969 1344 C987 1445 920 1527 819 1527 C708 1527 622 1445 604 1344 L604 1344 Z " />
<glyph glyph-name="yacute" unicode="&#xfd;" horiz-adv-x="1424" d="M743 1124 L1073 1124 L1441 1434 L1048 1434 L743 1124 Z M1332 765 L1493 765 L1542 1038 L929 1038 L880 765 L956 765 L774 425 L711 765 L780 765 L829 1038 L248 1038 L199 765 L360 765 L542 0 L456 -145 C409 -222 375 -259 258 -259 L126 -259 L78 -532 L252 -532 C532 -532 626 -427 713 -285 L882 0 L1332 765 Z " />
<glyph glyph-name="thorn" unicode="&#xfe;" horiz-adv-x="1489" d="M178 -259 L19 -259 L-28 -532 L658 -532 L706 -259 L547 -259 L619 148 C662 32 778 -30 905 -30 C1191 -30 1478 128 1538 519 C1590 860 1385 1068 1099 1068 C982 1068 837 1023 752 907 L860 1516 L332 1516 L284 1243 L443 1243 L178 -259 Z M878 243 C709 243 657 367 684 519 C711 671 807 795 976 795 C1145 795 1197 671 1170 519 C1143 367 1047 243 878 243 L878 243 Z " />
<glyph glyph-name="ydieresis" unicode="&#xff;" horiz-adv-x="1424" d="M1332 765 L1493 765 L1542 1038 L929 1038 L880 765 L956 765 L774 425 L711 765 L780 765 L829 1038 L248 1038 L199 765 L360 765 L542 0 L456 -145 C409 -222 375 -259 258 -259 L126 -259 L78 -532 L252 -532 C532 -532 626 -427 713 -285 L882 0 L1332 765 Z M996 1344 C979 1243 1045 1162 1146 1162 C1257 1162 1344 1243 1361 1344 C1379 1445 1312 1527 1211 1527 C1100 1527 1014 1445 996 1344 L996 1344 Z M535 1344 C518 1243 584 1162 685 1162 C796 1162 883 1243 900 1344 C918 1445 851 1527 750 1527 C639 1527 553 1445 535 1344 L535 1344 Z " />
<glyph glyph-name="Amacron" unicode="&#x100;" horiz-adv-x="1700" d="M654 1536 L1544 1536 L1592 1809 L702 1809 L654 1536 Z M1189 325 L1046 325 L989 0 L1675 0 L1732 325 L1580 325 L1301 1434 L611 1434 L554 1109 L713 1109 L234 325 L82 325 L25 0 L731 0 L788 325 L644 325 L695 412 L1167 412 L1189 325 Z M1031 974 L1093 719 L878 719 L1031 974 Z " />
<glyph glyph-name="amacron" unicode="&#x101;" horiz-adv-x="1457" d="M448 1161 L1338 1161 L1386 1434 L496 1434 L448 1161 Z M1047 1038 L1023 904 C980 1010 851 1068 734 1068 C448 1068 161 920 101 519 C50 178 254 -30 540 -30 C657 -30 801 8 886 124 L864 0 L1392 0 L1440 273 L1281 273 L1368 765 L1527 765 L1575 1038 L1047 1038 Z M663 243 C494 243 442 367 469 519 C496 671 592 795 761 795 C930 795 982 671 955 519 C928 367 832 243 663 243 L663 243 Z " />
<glyph glyph-name="Abreve" unicode="&#x102;" horiz-adv-x="1700" d="M1189 325 L1046 325 L989 0 L1675 0 L1732 325 L1580 325 L1301 1434 L611 1434 L554 1109 L713 1109 L234 325 L82 325 L25 0 L731 0 L788 325 L644 325 L695 412 L1167 412 L1189 325 Z M1031 974 L1093 719 L878 719 L1031 974 Z M1112 1536 C1410 1536 1518 1729 1556 1822 L1324 1822 C1278 1753 1219 1724 1145 1724 C1061 1724 1010 1753 980 1822 L768 1822 C774 1719 854 1536 1112 1536 L1112 1536 Z " />
<glyph glyph-name="abreve" unicode="&#x103;" horiz-adv-x="1457" d="M1047 1038 L1023 904 C980 1010 851 1068 734 1068 C448 1068 161 920 101 519 C50 178 254 -30 540 -30 C657 -30 801 8 886 124 L864 0 L1392 0 L1440 273 L1281 273 L1368 765 L1527 765 L1575 1038 L1047 1038 Z M663 243 C494 243 442 367 469 519 C496 671 592 795 761 795 C930 795 982 671 955 519 C928 367 832 243 663 243 L663 243 Z M867 1148 C1165 1148 1273 1341 1311 1434 L1079 1434 C1033 1365 974 1336 900 1336 C816 1336 765 1365 735 1434 L523 1434 C529 1331 609 1148 867 1148 L867 1148 Z " />
<glyph glyph-name="Aogonek" unicode="&#x104;" horiz-adv-x="1751" d="M1189 325 L1046 325 L989 0 L1431 0 C1424 -2 1277 -48 1249 -207 C1209 -438 1424 -518 1635 -518 L1682 -251 C1682 -251 1500 -251 1520 -141 C1539 -34 1675 0 1675 0 L1732 325 L1580 325 L1301 1434 L611 1434 L554 1109 L713 1109 L234 325 L82 325 L25 0 L731 0 L788 325 L644 325 L695 412 L1167 412 L1189 325 Z M1031 974 L1093 719 L878 719 L1031 974 Z " />
<glyph glyph-name="aogonek" unicode="&#x105;" horiz-adv-x="1457" d="M1047 1038 L1023 904 C980 1010 851 1068 734 1068 C448 1068 161 920 101 519 C50 178 254 -30 540 -30 C657 -30 801 8 886 124 L864 0 L1147 0 C1133 -4 993 -52 966 -207 C926 -438 1141 -518 1352 -518 L1399 -251 C1399 -251 1217 -251 1237 -141 C1255 -36 1385 -1 1392 0 L1440 273 L1281 273 L1368 765 L1527 765 L1575 1038 L1047 1038 Z M663 243 C494 243 442 367 469 519 C496 671 592 795 761 795 C930 795 982 671 955 519 C928 367 832 243 663 243 L663 243 Z " />
<glyph glyph-name="Cacute" unicode="&#x106;" horiz-adv-x="1534" d="M948 1536 L1278 1536 L1647 1846 L1254 1846 L948 1536 Z M891 285 C622 285 533 490 573 717 C613 944 774 1149 1043 1149 C1123 1149 1198 1141 1267 1121 L1242 970 L1620 970 L1686 1349 C1686 1349 1444 1474 1080 1474 C571 1474 247 1167 185 717 C128 306 354 -40 853 -40 C1147 -40 1340 32 1457 103 L1302 384 C1208 336 1058 285 891 285 L891 285 Z " />
<glyph glyph-name="cacute" unicode="&#x107;" horiz-adv-x="1225" d="M692 1124 L1022 1124 L1390 1434 L997 1434 L692 1124 Z M716 243 C552 243 473 357 502 519 C531 681 650 795 814 795 C848 795 879 791 909 784 L884 642 L1253 642 L1309 961 C1309 961 1120 1068 842 1068 C457 1068 190 871 133 519 C81 198 303 -30 688 -30 C861 -30 1028 6 1164 114 L1016 344 C944 296 833 243 716 243 L716 243 Z " />
<glyph glyph-name="Ccircumflex" unicode="&#x108;" horiz-adv-x="1534" d="M1266 1827 L1020 1827 L658 1536 L956 1536 L1131 1645 L1268 1536 L1526 1536 L1266 1827 Z M891 285 C622 285 533 490 573 717 C613 944 774 1149 1043 1149 C1123 1149 1198 1141 1267 1121 L1242 970 L1620 970 L1686 1349 C1686 1349 1444 1474 1080 1474 C571 1474 247 1167 185 717 C128 306 354 -40 853 -40 C1147 -40 1340 32 1457 103 L1302 384 C1208 336 1058 285 891 285 L891 285 Z " />
<glyph glyph-name="ccircumflex" unicode="&#x109;" horiz-adv-x="1225" d="M1025 1434 L779 1434 L417 1143 L715 1143 L890 1252 L1027 1143 L1285 1143 L1025 1434 Z M716 243 C552 243 473 357 502 519 C531 681 650 795 814 795 C848 795 879 791 909 784 L884 642 L1253 642 L1309 961 C1309 961 1120 1068 842 1068 C457 1068 190 871 133 519 C81 198 303 -30 688 -30 C861 -30 1028 6 1164 114 L1016 344 C944 296 833 243 716 243 L716 243 Z " />
<glyph glyph-name="Cdotaccent" unicode="&#x10a;" horiz-adv-x="1534" d="M946 1728 C929 1627 995 1546 1096 1546 C1207 1546 1294 1627 1311 1728 C1329 1829 1262 1911 1161 1911 C1050 1911 964 1829 946 1728 L946 1728 Z M891 285 C622 285 533 490 573 717 C613 944 774 1149 1043 1149 C1123 1149 1198 1141 1267 1121 L1242 970 L1620 970 L1686 1349 C1686 1349 1444 1474 1080 1474 C571 1474 247 1167 185 717 C128 306 354 -40 853 -40 C1147 -40 1340 32 1457 103 L1302 384 C1208 336 1058 285 891 285 L891 285 Z " />
<glyph glyph-name="cdotaccent" unicode="&#x10b;" horiz-adv-x="1225" d="M712 1344 C695 1243 761 1162 862 1162 C973 1162 1060 1243 1077 1344 C1095 1445 1028 1527 927 1527 C816 1527 730 1445 712 1344 L712 1344 Z M716 243 C552 243 473 357 502 519 C531 681 650 795 814 795 C848 795 879 791 909 784 L884 642 L1253 642 L1309 961 C1309 961 1120 1068 842 1068 C457 1068 190 871 133 519 C81 198 303 -30 688 -30 C861 -30 1028 6 1164 114 L1016 344 C944 296 833 243 716 243 L716 243 Z " />
<glyph glyph-name="Ccaron" unicode="&#x10c;" horiz-adv-x="1534" d="M988 1536 L1234 1536 L1596 1827 L1298 1827 L1123 1718 L986 1827 L728 1827 L988 1536 Z M891 285 C622 285 533 490 573 717 C613 944 774 1149 1043 1149 C1123 1149 1198 1141 1267 1121 L1242 970 L1620 970 L1686 1349 C1686 1349 1444 1474 1080 1474 C571 1474 247 1167 185 717 C128 306 354 -40 853 -40 C1147 -40 1340 32 1457 103 L1302 384 C1208 336 1058 285 891 285 L891 285 Z " />
<glyph glyph-name="ccaron" unicode="&#x10d;" horiz-adv-x="1213" d="M727 1143 L973 1143 L1335 1434 L1037 1434 L862 1325 L725 1434 L467 1434 L727 1143 Z M716 243 C552 243 473 357 502 519 C531 681 650 795 814 795 C848 795 879 791 909 784 L884 642 L1253 642 L1309 961 C1309 961 1120 1068 842 1068 C457 1068 190 871 133 519 C81 198 303 -30 688 -30 C861 -30 1028 6 1164 114 L1016 344 C944 296 833 243 716 243 L716 243 Z " />
<glyph glyph-name="Dcaron" unicode="&#x10e;" horiz-adv-x="1630" d="M1716 717 C1775 1151 1580 1434 1117 1434 L337 1434 L280 1109 L439 1109 L301 325 L142 325 L85 0 L865 0 C1328 0 1649 223 1716 717 L1716 717 Z M922 325 L679 325 L817 1109 L1060 1109 C1300 1109 1366 933 1328 717 C1290 501 1162 325 922 325 L922 325 Z M914 1536 L1160 1536 L1522 1827 L1224 1827 L1049 1718 L912 1827 L654 1827 L914 1536 Z " />
<glyph glyph-name="dcaron" unicode="&#x10f;" horiz-adv-x="1571" d="M1519 1094 L1810 1094 L1974 1516 L1645 1516 L1519 1094 Z M895 0 L1423 0 L1471 273 L1312 273 L1531 1516 L1003 1516 L955 1243 L1114 1243 L1054 904 C1011 1010 882 1068 765 1068 C479 1068 192 920 132 519 C81 178 285 -30 571 -30 C688 -30 832 8 917 124 L895 0 Z M694 243 C525 243 473 367 500 519 C527 671 623 795 792 795 C961 795 1013 671 986 519 C959 367 863 243 694 243 L694 243 Z " />
<glyph glyph-name="Dcroat" unicode="&#x110;" horiz-adv-x="1685" d="M1771 717 C1830 1151 1635 1434 1172 1434 L392 1434 L335 1109 L494 1109 L453 880 L240 880 L182 555 L396 555 L356 325 L197 325 L140 0 L920 0 C1383 0 1704 223 1771 717 L1771 717 Z M977 325 L734 325 L774 555 L1049 555 L1107 880 L831 880 L872 1109 L1115 1109 C1355 1109 1421 933 1383 717 C1345 501 1217 325 977 325 L977 325 Z " />
<glyph glyph-name="dcroat" unicode="&#x111;" horiz-adv-x="1485" d="M895 0 L1423 0 L1471 273 L1312 273 L1454 1082 L1650 1082 L1676 1225 L1480 1225 L1531 1516 L1003 1516 L955 1243 L1114 1243 L1111 1225 L820 1225 L794 1082 L1085 1082 L1054 904 C1011 1010 882 1068 765 1068 C479 1068 192 920 132 519 C81 178 285 -30 571 -30 C688 -30 832 8 917 124 L895 0 Z M694 243 C525 243 473 367 500 519 C527 671 623 795 792 795 C961 795 1013 671 986 519 C959 367 863 243 694 243 L694 243 Z " />
<glyph glyph-name="Emacron" unicode="&#x112;" horiz-adv-x="1540" d="M594 1536 L1484 1536 L1532 1809 L642 1809 L594 1536 Z M85 0 L1455 0 L1536 464 L1158 464 L1134 325 L679 325 L722 569 L1161 569 L1215 877 L776 877 L817 1109 L1256 1109 L1232 970 L1610 970 L1691 1434 L337 1434 L280 1109 L439 1109 L301 325 L142 325 L85 0 Z " />
<glyph glyph-name="emacron" unicode="&#x113;" horiz-adv-x="1250" d="M1011 312 C926 272 826 243 715 243 C522 243 477 312 488 375 L1246 375 C1344 769 1205 1068 791 1068 C379 1068 186 830 135 519 C87 228 215 -30 637 -30 C893 -30 1049 30 1156 96 L1011 312 Z M528 620 C538 676 595 795 763 795 C930 795 945 676 935 620 L528 620 Z M395 1161 L1285 1161 L1333 1434 L443 1434 L395 1161 Z " />
<glyph glyph-name="Ebreve" unicode="&#x114;" horiz-adv-x="1540" d="M1040 1536 C1338 1536 1446 1729 1484 1822 L1252 1822 C1206 1753 1147 1724 1073 1724 C989 1724 938 1753 908 1822 L696 1822 C702 1719 782 1536 1040 1536 L1040 1536 Z M85 0 L1455 0 L1536 464 L1158 464 L1134 325 L679 325 L722 569 L1161 569 L1215 877 L776 877 L817 1109 L1256 1109 L1232 970 L1610 970 L1691 1434 L337 1434 L280 1109 L439 1109 L301 325 L142 325 L85 0 Z " />
<glyph glyph-name="ebreve" unicode="&#x115;" horiz-adv-x="1228" d="M1011 312 C926 272 826 243 715 243 C522 243 477 312 488 375 L1246 375 C1344 769 1205 1068 791 1068 C379 1068 186 830 135 519 C87 228 215 -30 637 -30 C893 -30 1049 30 1156 96 L1011 312 Z M528 620 C538 676 595 795 763 795 C930 795 945 676 935 620 L528 620 Z M838 1148 C1136 1148 1244 1341 1282 1434 L1050 1434 C1004 1365 945 1336 871 1336 C787 1336 736 1365 706 1434 L494 1434 C500 1331 580 1148 838 1148 L838 1148 Z " />
<glyph glyph-name="Edotaccent" unicode="&#x116;" horiz-adv-x="1540" d="M901 1728 C884 1627 950 1546 1051 1546 C1162 1546 1249 1627 1266 1728 C1284 1829 1217 1911 1116 1911 C1005 1911 919 1829 901 1728 L901 1728 Z M85 0 L1455 0 L1536 464 L1158 464 L1134 325 L679 325 L722 569 L1161 569 L1215 877 L776 877 L817 1109 L1256 1109 L1232 970 L1610 970 L1691 1434 L337 1434 L280 1109 L439 1109 L301 325 L142 325 L85 0 Z " />
<glyph glyph-name="edotaccent" unicode="&#x117;" horiz-adv-x="1223" d="M1011 312 C926 272 826 243 715 243 C522 243 477 312 488 375 L1246 375 C1344 769 1205 1068 791 1068 C379 1068 186 830 135 519 C87 228 215 -30 637 -30 C893 -30 1049 30 1156 96 L1011 312 Z M528 620 C538 676 595 795 763 795 C930 795 945 676 935 620 L528 620 Z M690 1344 C673 1243 739 1162 840 1162 C951 1162 1038 1243 1055 1344 C1073 1445 1006 1527 905 1527 C794 1527 708 1445 690 1344 L690 1344 Z " />
<glyph glyph-name="Eogonek" unicode="&#x118;" horiz-adv-x="1592" d="M85 0 L1211 0 C1204 -2 1057 -48 1029 -207 C989 -438 1204 -518 1415 -518 L1462 -251 C1462 -251 1280 -251 1300 -141 C1319 -34 1455 0 1455 0 L1536 464 L1158 464 L1134 325 L679 325 L722 569 L1161 569 L1215 877 L776 877 L817 1109 L1256 1109 L1232 970 L1610 970 L1691 1434 L337 1434 L280 1109 L439 1109 L301 325 L142 325 L85 0 Z " />
<glyph glyph-name="eogonek" unicode="&#x119;" horiz-adv-x="1223" d="M1011 312 C926 272 826 243 715 243 C522 243 477 312 488 375 L1246 375 C1344 769 1205 1068 791 1068 C379 1068 186 830 135 519 C88 233 210 -20 615 -29 C568 -59 510 -113 494 -207 C454 -438 669 -518 880 -518 L927 -251 C927 -251 745 -251 765 -141 C783 -36 913 -1 919 0 C1020 23 1096 59 1156 96 L1011 312 Z M528 620 C538 676 595 795 763 795 C930 795 945 676 935 620 L528 620 Z " />
<glyph glyph-name="Ecaron" unicode="&#x11a;" horiz-adv-x="1540" d="M85 0 L1455 0 L1536 464 L1158 464 L1134 325 L679 325 L722 569 L1161 569 L1215 877 L776 877 L817 1109 L1256 1109 L1232 970 L1610 970 L1691 1434 L337 1434 L280 1109 L439 1109 L301 325 L142 325 L85 0 Z M1522 1827 L1224 1827 L1049 1718 L912 1827 L654 1827 L914 1536 L1160 1536 L1522 1827 Z " />
<glyph glyph-name="ecaron" unicode="&#x11b;" horiz-adv-x="1230" d="M1011 312 C926 272 826 243 715 243 C522 243 477 312 488 375 L1246 375 C1344 769 1205 1068 791 1068 C379 1068 186 830 135 519 C87 228 215 -30 637 -30 C893 -30 1049 30 1156 96 L1011 312 Z M528 620 C538 676 595 795 763 795 C930 795 945 676 935 620 L528 620 Z M1322 1434 L1024 1434 L849 1325 L712 1434 L454 1434 L714 1143 L960 1143 L1322 1434 Z " />
<glyph glyph-name="Gcircumflex" unicode="&#x11c;" horiz-adv-x="1564" d="M651 1536 L949 1536 L1124 1645 L1261 1536 L1519 1536 L1259 1827 L1013 1827 L651 1536 Z M1080 1474 C571 1474 247 1167 185 717 C128 306 354 -40 853 -40 C1252 -40 1492 77 1492 77 L1629 855 L991 855 L939 557 L1199 557 L1157 320 C1157 320 1057 285 891 285 C622 285 533 490 573 717 C613 944 774 1149 1043 1149 C1201 1149 1299 1125 1299 1125 L1272 970 L1650 970 L1719 1363 C1719 1363 1466 1474 1080 1474 L1080 1474 Z " />
<glyph glyph-name="gcircumflex" unicode="&#x11d;" horiz-adv-x="1468" d="M1058 1038 L1034 904 C991 1010 862 1068 745 1068 C459 1068 172 920 112 519 C61 178 265 -30 551 -30 C668 -30 812 8 897 124 L875 0 C842 -183 724 -259 528 -259 C384 -259 269 -226 189 -179 L24 -406 C165 -502 339 -532 520 -532 C887 -532 1165 -408 1244 0 L1379 765 L1537 765 L1586 1038 L1058 1038 Z M674 243 C505 243 453 367 480 519 C507 671 603 795 772 795 C941 795 993 671 966 519 C939 367 843 243 674 243 L674 243 Z M1006 1434 L760 1434 L398 1143 L696 1143 L871 1252 L1008 1143 L1266 1143 L1006 1434 Z " />
<glyph glyph-name="Gbreve" unicode="&#x11e;" horiz-adv-x="1564" d="M1104 1536 C1402 1536 1510 1729 1548 1822 L1316 1822 C1270 1753 1211 1724 1137 1724 C1053 1724 1002 1753 972 1822 L760 1822 C766 1719 846 1536 1104 1536 L1104 1536 Z M1080 1474 C571 1474 247 1167 185 717 C128 306 354 -40 853 -40 C1252 -40 1492 77 1492 77 L1629 855 L991 855 L939 557 L1199 557 L1157 320 C1157 320 1057 285 891 285 C622 285 533 490 573 717 C613 944 774 1149 1043 1149 C1201 1149 1299 1125 1299 1125 L1272 970 L1650 970 L1719 1363 C1719 1363 1466 1474 1080 1474 L1080 1474 Z " />
<glyph glyph-name="gbreve" unicode="&#x11f;" horiz-adv-x="1488" d="M1078 1038 L1054 904 C1011 1010 882 1068 765 1068 C479 1068 192 920 132 519 C81 178 285 -30 571 -30 C688 -30 832 8 917 124 L895 0 C862 -183 744 -259 548 -259 C404 -259 289 -226 209 -179 L44 -406 C185 -502 359 -532 540 -532 C907 -532 1185 -408 1264 0 L1399 765 L1557 765 L1606 1038 L1078 1038 Z M694 243 C525 243 473 367 500 519 C527 671 623 795 792 795 C961 795 1013 671 986 519 C959 367 863 243 694 243 L694 243 Z M852 1148 C1150 1148 1258 1341 1296 1434 L1064 1434 C1018 1365 959 1336 885 1336 C801 1336 750 1365 720 1434 L508 1434 C514 1331 594 1148 852 1148 L852 1148 Z " />
<glyph glyph-name="Gdotaccent" unicode="&#x120;" horiz-adv-x="1564" d="M1080 1474 C571 1474 247 1167 185 717 C128 306 354 -40 853 -40 C1252 -40 1492 77 1492 77 L1629 855 L991 855 L939 557 L1199 557 L1157 320 C1157 320 1057 285 891 285 C622 285 533 490 573 717 C613 944 774 1149 1043 1149 C1201 1149 1299 1125 1299 1125 L1272 970 L1650 970 L1731 1434 L1467 1434 C1467 1434 1293 1474 1080 1474 L1080 1474 Z M953 1728 C936 1627 1002 1546 1103 1546 C1214 1546 1301 1627 1318 1728 C1336 1829 1269 1911 1168 1911 C1057 1911 971 1829 953 1728 L953 1728 Z " />
<glyph glyph-name="gdotaccent" unicode="&#x121;" horiz-adv-x="1488" d="M1078 1038 L1054 904 C1011 1010 882 1068 765 1068 C479 1068 192 920 132 519 C81 178 285 -30 571 -30 C688 -30 832 8 917 124 L895 0 C862 -183 744 -259 548 -259 C404 -259 289 -226 209 -179 L44 -406 C185 -502 359 -532 540 -532 C907 -532 1185 -408 1264 0 L1399 765 L1557 765 L1606 1038 L1078 1038 Z M694 243 C525 243 473 367 500 519 C527 671 623 795 792 795 C961 795 1013 671 986 519 C959 367 863 243 694 243 L694 243 Z M705 1344 C688 1243 754 1162 855 1162 C966 1162 1053 1243 1070 1344 C1088 1445 1021 1527 920 1527 C809 1527 723 1445 705 1344 L705 1344 Z " />
<glyph glyph-name="Gcommaaccent" unicode="&#x122;" horiz-adv-x="1564" d="M408 -532 L709 -532 L974 -108 L635 -108 L408 -532 Z M1080 1474 C571 1474 247 1167 185 717 C128 306 354 -40 853 -40 C1252 -40 1492 77 1492 77 L1629 855 L991 855 L939 557 L1199 557 L1157 320 C1157 320 1057 285 891 285 C622 285 533 490 573 717 C613 944 774 1149 1043 1149 C1201 1149 1299 1125 1299 1125 L1272 970 L1650 970 L1719 1363 C1719 1363 1466 1474 1080 1474 L1080 1474 Z " />
<glyph glyph-name="gcommaaccent" unicode="&#x123;" horiz-adv-x="1488" d="M1260 1556 L959 1556 L693 1132 L1032 1132 L1260 1556 Z M1078 1038 L1054 904 C1011 1010 882 1068 765 1068 C479 1068 192 920 132 519 C81 178 285 -30 571 -30 C688 -30 832 8 917 124 L895 0 C862 -183 744 -259 548 -259 C404 -259 289 -226 209 -179 L44 -406 C185 -502 359 -532 540 -532 C907 -532 1185 -408 1264 0 L1399 765 L1557 765 L1606 1038 L1078 1038 Z M694 243 C525 243 473 367 500 519 C527 671 623 795 792 795 C961 795 1013 671 986 519 C959 367 863 243 694 243 L694 243 Z " />
<glyph glyph-name="Hcircumflex" unicode="&#x124;" horiz-adv-x="1823" d="M1396 1109 L1358 894 L779 894 L817 1109 L976 1109 L1033 1434 L337 1434 L280 1109 L439 1109 L301 325 L142 325 L85 0 L781 0 L838 325 L679 325 L722 569 L1301 569 L1258 325 L1099 325 L1042 0 L1738 0 L1795 325 L1636 325 L1774 1109 L1933 1109 L1990 1434 L1294 1434 L1237 1109 L1396 1109 Z M747 1536 L1045 1536 L1220 1645 L1357 1536 L1615 1536 L1355 1827 L1109 1827 L747 1536 Z " />
<glyph glyph-name="hcircumflex" unicode="&#x125;" horiz-adv-x="1560" d="M967 0 L1495 0 L1543 273 L1384 273 L1442 602 C1494 900 1343 1068 1070 1068 C959 1068 841 1031 756 926 L860 1516 L332 1516 L284 1243 L443 1243 L272 273 L113 273 L65 0 L752 0 L800 273 L641 273 L699 602 C721 728 796 795 920 795 C1044 795 1095 728 1073 602 L967 0 Z M1225 1827 L979 1827 L617 1536 L915 1536 L1090 1645 L1227 1536 L1485 1536 L1225 1827 Z " />
<glyph glyph-name="Hbar" unicode="&#x126;" horiz-adv-x="1869" d="M1419 1109 L1412 1071 L833 1071 L840 1109 L999 1109 L1056 1434 L360 1434 L303 1109 L462 1109 L455 1071 L273 1071 L249 934 L431 934 L324 325 L165 325 L108 0 L804 0 L861 325 L702 325 L745 569 L1324 569 L1281 325 L1122 325 L1065 0 L1761 0 L1818 325 L1659 325 L1766 934 L1948 934 L1972 1071 L1790 1071 L1797 1109 L1956 1109 L2013 1434 L1317 1434 L1260 1109 L1419 1109 Z M802 894 L809 934 L1388 934 L1381 894 L802 894 Z " />
<glyph glyph-name="hbar" unicode="&#x127;" horiz-adv-x="1597" d="M1479 602 C1531 900 1380 1068 1107 1068 C996 1068 878 1031 793 926 L820 1082 L1111 1082 L1137 1225 L846 1225 L897 1516 L369 1516 L321 1243 L480 1243 L477 1225 L281 1225 L255 1082 L451 1082 L309 273 L150 273 L102 0 L789 0 L837 273 L678 273 L736 602 C758 728 833 795 957 795 C1081 795 1132 728 1110 602 L1004 0 L1532 0 L1580 273 L1421 273 L1479 602 Z " />
<glyph glyph-name="Itilde" unicode="&#x128;" horiz-adv-x="933" d="M472 1109 L334 325 L175 325 L118 0 L814 0 L871 325 L712 325 L850 1109 L1009 1109 L1066 1434 L370 1434 L313 1109 L472 1109 Z M718 1590 C747 1561 783 1536 864 1536 C1168 1536 1213 1845 1213 1845 L988 1845 C988 1845 966 1767 899 1767 C852 1767 838 1790 814 1813 C786 1842 750 1867 669 1867 C365 1867 319 1558 319 1558 L544 1558 C544 1558 566 1636 633 1636 C680 1636 694 1613 718 1590 L718 1590 Z " />
<glyph glyph-name="itilde" unicode="&#x129;" horiz-adv-x="893" d="M814 1038 L286 1038 L237 765 L396 765 L310 273 L151 273 L103 0 L790 0 L838 273 L679 273 L814 1038 Z M632 1217 C661 1188 697 1163 778 1163 C1082 1163 1127 1472 1127 1472 L902 1472 C902 1472 880 1394 813 1394 C766 1394 752 1417 728 1440 C700 1469 664 1494 583 1494 C279 1494 233 1185 233 1185 L458 1185 C458 1185 480 1263 547 1263 C594 1263 608 1240 632 1217 L632 1217 Z " />
<glyph glyph-name="uni012A" unicode="&#x12a;" horiz-adv-x="980" d="M315 1536 L1205 1536 L1253 1809 L363 1809 L315 1536 Z M496 1109 L358 325 L199 325 L142 0 L838 0 L895 325 L736 325 L874 1109 L1033 1109 L1090 1434 L394 1434 L337 1109 L496 1109 Z " />
<glyph glyph-name="imacron" unicode="&#x12b;" horiz-adv-x="880" d="M199 1161 L1089 1161 L1137 1434 L247 1434 L199 1161 Z M808 1038 L280 1038 L231 765 L390 765 L304 273 L145 273 L97 0 L784 0 L832 273 L673 273 L808 1038 Z " />
<glyph glyph-name="Ibreve" unicode="&#x12c;" horiz-adv-x="877" d="M445 1109 L307 325 L148 325 L91 0 L787 0 L844 325 L685 325 L823 1109 L982 1109 L1039 1434 L343 1434 L286 1109 L445 1109 Z M709 1536 C1007 1536 1115 1729 1153 1822 L921 1822 C875 1753 816 1724 742 1724 C658 1724 607 1753 577 1822 L365 1822 C371 1719 451 1536 709 1536 L709 1536 Z " />
<glyph glyph-name="uni012D" unicode="&#x12d;" horiz-adv-x="778" d="M757 1038 L229 1038 L180 765 L339 765 L253 273 L94 273 L46 0 L733 0 L781 273 L622 273 L757 1038 Z M591 1148 C889 1148 997 1341 1035 1434 L803 1434 C757 1365 698 1336 624 1336 C540 1336 489 1365 459 1434 L247 1434 C253 1331 333 1148 591 1148 L591 1148 Z " />
<glyph glyph-name="Iogonek" unicode="&#x12e;" horiz-adv-x="838" d="M399 1109 L261 325 L102 325 L45 0 L497 0 C490 -2 343 -48 315 -207 C275 -438 490 -518 701 -518 L748 -251 C748 -251 566 -251 586 -141 C604 -36 734 -1 741 0 L798 325 L639 325 L777 1109 L936 1109 L993 1434 L297 1434 L240 1109 L399 1109 Z " />
<glyph glyph-name="iogonek" unicode="&#x12f;" horiz-adv-x="829" d="M776 1038 L248 1038 L199 765 L358 765 L272 273 L113 273 L65 0 L508 0 C501 -2 354 -48 326 -207 C286 -438 501 -518 712 -518 L759 -251 C759 -251 577 -251 597 -141 C615 -36 745 -1 752 0 L800 273 L641 273 L776 1038 Z M462 1344 C445 1243 511 1162 612 1162 C723 1162 810 1243 827 1344 C845 1445 778 1527 677 1527 C566 1527 480 1445 462 1344 L462 1344 Z " />
<glyph glyph-name="Idotaccent" unicode="&#x130;" horiz-adv-x="866" d="M439 1109 L301 325 L142 325 L85 0 L781 0 L838 325 L679 325 L817 1109 L976 1109 L1033 1434 L337 1434 L280 1109 L439 1109 Z M555 1728 C538 1627 604 1546 705 1546 C816 1546 903 1627 920 1728 C938 1829 871 1911 770 1911 C659 1911 573 1829 555 1728 L555 1728 Z " />
<glyph glyph-name="dotlessi" unicode="&#x131;" horiz-adv-x="817" d="M776 1038 L248 1038 L199 765 L358 765 L272 273 L113 273 L65 0 L752 0 L800 273 L641 273 L776 1038 Z " />
<glyph glyph-name="IJ" unicode="&#x132;" horiz-adv-x="2227" d="M954 331 C987 138 1113 -40 1463 -40 C1816 -40 2003 115 2069 490 L2178 1109 L2337 1109 L2394 1434 L1698 1434 L1641 1109 L1800 1109 L1691 490 C1668 362 1619 285 1471 285 C1365 285 1321 352 1298 425 L954 331 Z M439 1109 L301 325 L142 325 L85 0 L781 0 L838 325 L679 325 L817 1109 L976 1109 L1033 1434 L337 1434 L280 1109 L439 1109 Z " />
<glyph glyph-name="ij" unicode="&#x133;" horiz-adv-x="1463" d="M776 1038 L248 1038 L199 765 L358 765 L272 273 L113 273 L65 0 L752 0 L800 273 L641 273 L776 1038 Z M462 1344 C445 1243 511 1162 612 1162 C723 1162 810 1243 827 1344 C845 1445 778 1527 677 1527 C566 1527 480 1445 462 1344 L462 1344 Z M599 -483 C663 -515 759 -532 838 -532 C1185 -532 1312 -368 1373 -26 L1561 1038 L1033 1038 L984 765 L1143 765 L1004 -26 C982 -148 947 -259 843 -259 C796 -259 761 -248 731 -238 L599 -483 Z M1247 1344 C1230 1243 1296 1162 1397 1162 C1508 1162 1595 1243 1612 1344 C1630 1445 1563 1527 1462 1527 C1351 1527 1265 1445 1247 1344 L1247 1344 Z " />
<glyph glyph-name="Jcircumflex" unicode="&#x134;" horiz-adv-x="1458" d="M103 331 C136 138 262 -40 612 -40 C965 -40 1152 115 1218 490 L1327 1109 L1486 1109 L1543 1434 L847 1434 L790 1109 L949 1109 L840 490 C817 362 768 285 620 285 C514 285 470 352 447 425 L103 331 Z M1383 1827 L1137 1827 L775 1536 L1073 1536 L1248 1645 L1385 1536 L1643 1536 L1383 1827 Z " />
<glyph glyph-name="jcircumflex" unicode="&#x135;" horiz-adv-x="751" d="M-240 -483 C-176 -515 -80 -532 -1 -532 C346 -532 473 -368 534 -26 L722 1038 L194 1038 L145 765 L304 765 L165 -26 C143 -148 108 -259 4 -259 C-43 -259 -78 -248 -108 -238 L-240 -483 Z M737 1434 L491 1434 L129 1143 L427 1143 L602 1252 L739 1143 L997 1143 L737 1434 Z " />
<glyph glyph-name="Kcommaaccent" unicode="&#x136;" horiz-adv-x="1652" d="M432 -532 L733 -532 L998 -108 L659 -108 L432 -532 Z M1602 1109 L1762 1109 L1819 1434 L1133 1434 L1076 1109 L1133 1109 L772 855 L817 1109 L976 1109 L1033 1434 L337 1434 L280 1109 L439 1109 L301 325 L142 325 L85 0 L781 0 L838 325 L679 325 L706 478 L863 589 L1132 0 L1567 0 L1624 325 L1465 325 L1214 836 L1602 1109 Z " />
<glyph glyph-name="kcommaaccent" unicode="&#x137;" horiz-adv-x="1426" d="M319 -532 L620 -532 L885 -108 L546 -108 L319 -532 Z M941 0 L1361 0 L1409 273 L1248 273 L1085 617 L1323 765 L1486 765 L1535 1038 L908 1038 L859 765 L911 765 L704 635 L860 1516 L332 1516 L284 1243 L443 1243 L272 273 L113 273 L65 0 L712 0 L760 273 L641 273 L654 348 L772 421 L941 0 Z " />
<glyph glyph-name="kgreenlandic" unicode="&#x138;" horiz-adv-x="1521" d="M817 1109 L976 1109 L1033 1434 L337 1434 L280 1109 L439 1109 L301 325 L142 325 L85 0 L781 0 L838 325 L679 325 L707 483 L825 573 C912 505 1022 348 1018 0 L1539 0 L1596 325 L1433 325 C1372 575 1229 732 1102 806 C1329 989 1445 1089 1628 1089 L1688 1434 C1376 1434 1238 1307 784 923 L817 1109 Z " />
<glyph glyph-name="Lacute" unicode="&#x139;" horiz-adv-x="1428" d="M535 1536 L865 1536 L1234 1846 L841 1846 L535 1536 Z M85 0 L1343 0 L1424 464 L1046 464 L1022 325 L679 325 L817 1109 L976 1109 L1033 1434 L337 1434 L280 1109 L439 1109 L301 325 L142 325 L85 0 Z " />
<glyph glyph-name="lacute" unicode="&#x13a;" horiz-adv-x="871" d="M483 1596 L813 1596 L1182 1906 L789 1906 L483 1596 Z M820 1516 L292 1516 L244 1243 L403 1243 L232 273 L73 273 L25 0 L712 0 L760 273 L601 273 L820 1516 Z " />
<glyph glyph-name="Lcommaaccent" unicode="&#x13b;" horiz-adv-x="1428" d="M310 -532 L611 -532 L876 -108 L537 -108 L310 -532 Z M85 0 L1343 0 L1424 464 L1046 464 L1022 325 L679 325 L817 1109 L976 1109 L1033 1434 L337 1434 L280 1109 L439 1109 L301 325 L142 325 L85 0 Z " />
<glyph glyph-name="lcommaaccent" unicode="&#x13c;" horiz-adv-x="737" d="M-46 -532 L254 -532 L519 -108 L180 -108 L-46 -532 Z M820 1516 L292 1516 L244 1243 L403 1243 L232 273 L73 273 L25 0 L712 0 L760 273 L601 273 L820 1516 Z " />
<glyph glyph-name="Lcaron" unicode="&#x13d;" horiz-adv-x="1428" d="M85 0 L1343 0 L1424 464 L1046 464 L1022 325 L679 325 L817 1109 L976 1109 L1033 1434 L337 1434 L280 1109 L439 1109 L301 325 L142 325 L85 0 Z M1007 1012 L1298 1012 L1461 1434 L1132 1434 L1007 1012 Z " />
<glyph glyph-name="lcaron" unicode="&#x13e;" horiz-adv-x="1029" d="M820 1516 L292 1516 L244 1243 L403 1243 L232 273 L73 273 L25 0 L712 0 L760 273 L601 273 L820 1516 Z M808 1094 L1099 1094 L1263 1516 L934 1516 L808 1094 Z " />
<glyph glyph-name="Ldot" unicode="&#x13f;" horiz-adv-x="1414" d="M85 0 L1343 0 L1424 464 L1046 464 L1022 325 L679 325 L817 1109 L976 1109 L1033 1434 L337 1434 L280 1109 L439 1109 L301 325 L142 325 L85 0 Z M1084 769 C1067 668 1133 587 1234 587 C1345 587 1432 668 1449 769 C1467 870 1400 952 1299 952 C1188 952 1102 870 1084 769 L1084 769 Z " />
<glyph glyph-name="ldot" unicode="&#x140;" horiz-adv-x="1009" d="M860 1516 L332 1516 L284 1243 L443 1243 L272 273 L113 273 L65 0 L752 0 L800 273 L641 273 L860 1516 Z M871 815 C854 714 920 633 1021 633 C1132 633 1219 714 1236 815 C1254 916 1187 998 1086 998 C975 998 889 916 871 815 L871 815 Z " />
<glyph glyph-name="Lslash" unicode="&#x141;" horiz-adv-x="1504" d="M161 0 L1419 0 L1500 464 L1122 464 L1098 325 L755 325 L811 641 L1069 772 L1133 1135 L875 1004 L893 1109 L1052 1109 L1109 1434 L413 1434 L356 1109 L515 1109 L460 794 L201 663 L137 299 L395 430 L377 325 L218 325 L161 0 Z " />
<glyph glyph-name="lslash" unicode="&#x142;" horiz-adv-x="913" d="M905 1516 L377 1516 L329 1243 L488 1243 L424 884 L201 772 L143 448 L367 561 L317 273 L158 273 L110 0 L797 0 L845 273 L686 273 L772 765 L1003 881 L1060 1204 L829 1088 L905 1516 Z " />
<glyph glyph-name="Nacute" unicode="&#x143;" horiz-adv-x="1842" d="M976 1536 L1306 1536 L1675 1846 L1282 1846 L976 1536 Z M301 325 L142 325 L85 0 L781 0 L838 325 L679 325 L775 872 L1176 0 L1598 0 L1793 1109 L1952 1109 L2009 1434 L1313 1434 L1256 1109 L1415 1109 L1319 562 L918 1434 L337 1434 L280 1109 L439 1109 L301 325 Z " />
<glyph glyph-name="nacute" unicode="&#x144;" horiz-adv-x="1560" d="M786 1124 L1116 1124 L1484 1434 L1091 1434 L786 1124 Z M967 0 L1495 0 L1543 273 L1384 273 L1442 602 C1494 900 1343 1068 1070 1068 C959 1068 841 1031 756 926 L776 1038 L248 1038 L199 765 L358 765 L272 273 L113 273 L65 0 L752 0 L800 273 L641 273 L699 602 C721 728 796 795 920 795 C1044 795 1095 728 1073 602 L967 0 Z " />
<glyph glyph-name="Ncommaaccent" unicode="&#x145;" horiz-adv-x="1842" d="M525 -532 L826 -532 L1091 -108 L752 -108 L525 -532 Z M301 325 L142 325 L85 0 L781 0 L838 325 L679 325 L775 872 L1176 0 L1598 0 L1793 1109 L1952 1109 L2009 1434 L1313 1434 L1256 1109 L1415 1109 L1319 562 L918 1434 L337 1434 L280 1109 L439 1109 L301 325 Z " />
<glyph glyph-name="ncommaaccent" unicode="&#x146;" horiz-adv-x="1560" d="M374 -532 L675 -532 L940 -108 L601 -108 L374 -532 Z M967 0 L1495 0 L1543 273 L1384 273 L1442 602 C1494 900 1343 1068 1070 1068 C959 1068 841 1031 756 926 L776 1038 L248 1038 L199 765 L358 765 L272 273 L113 273 L65 0 L752 0 L800 273 L641 273 L699 602 C721 728 796 795 920 795 C1044 795 1095 728 1073 602 L967 0 Z " />
<glyph glyph-name="Ncaron" unicode="&#x147;" horiz-adv-x="1842" d="M1677 1827 L1399 1827 L1223 1718 L1087 1827 L809 1827 L1068 1536 L1314 1536 L1677 1827 Z M301 325 L142 325 L85 0 L781 0 L838 325 L679 325 L775 872 L1176 0 L1598 0 L1793 1109 L1952 1109 L2009 1434 L1313 1434 L1256 1109 L1415 1109 L1319 562 L918 1434 L337 1434 L280 1109 L439 1109 L301 325 Z " />
<glyph glyph-name="ncaron" unicode="&#x148;" horiz-adv-x="1560" d="M967 0 L1495 0 L1543 273 L1384 273 L1442 602 C1494 900 1343 1068 1070 1068 C959 1068 841 1031 756 926 L776 1038 L248 1038 L199 765 L358 765 L272 273 L113 273 L65 0 L752 0 L800 273 L641 273 L699 602 C721 728 796 795 920 795 C1044 795 1095 728 1073 602 L967 0 Z M1467 1434 L1169 1434 L994 1325 L857 1434 L599 1434 L859 1143 L1105 1143 L1467 1434 Z " />
<glyph glyph-name="napostrophe" unicode="&#x149;" horiz-adv-x="1800" d="M143 1010 L444 1010 L709 1434 L370 1434 L143 1010 Z M1207 0 L1735 0 L1783 273 L1624 273 L1682 602 C1734 900 1583 1068 1310 1068 C1199 1068 1081 1031 996 926 L1016 1038 L488 1038 L439 765 L598 765 L512 273 L353 273 L305 0 L992 0 L1040 273 L881 273 L939 602 C961 728 1036 795 1160 795 C1284 795 1335 728 1313 602 L1207 0 Z " />
<glyph glyph-name="Eng" unicode="&#x14a;" horiz-adv-x="1842" d="M483 -160 C516 -353 642 -531 992 -531 C1345 -531 1532 -376 1598 -1 L1598 0 L1793 1109 L1952 1109 L2009 1434 L1313 1434 L1256 1109 L1415 1109 L1319 562 L918 1434 L337 1434 L280 1109 L439 1109 L301 325 L142 325 L85 0 L781 0 L838 325 L679 325 L775 872 L1176 0 L1220 0 L1220 -1 C1197 -129 1148 -206 1000 -206 C894 -206 850 -139 827 -66 L483 -160 Z " />
<glyph glyph-name="eng" unicode="&#x14b;" horiz-adv-x="1421" d="M962 -26 C940 -148 905 -259 801 -259 C754 -259 719 -248 689 -238 L557 -483 C621 -515 717 -532 796 -532 C1143 -532 1270 -368 1331 -26 L1442 602 C1494 900 1343 1068 1070 1068 C959 1068 841 1031 756 926 L776 1038 L248 1038 L199 765 L358 765 L272 273 L113 273 L65 0 L752 0 L800 273 L641 273 L699 602 C721 728 796 795 920 795 C1044 795 1095 728 1073 602 L962 -26 Z " />
<glyph glyph-name="Omacron" unicode="&#x14c;" horiz-adv-x="1682" d="M853 -40 C1362 -40 1687 267 1749 717 C1806 1128 1579 1474 1080 1474 C571 1474 247 1167 185 717 C128 306 354 -40 853 -40 L853 -40 Z M891 285 C622 285 533 490 573 717 C613 944 774 1149 1043 1149 C1312 1149 1401 944 1361 717 C1321 490 1160 285 891 285 L891 285 Z M666 1536 L1556 1536 L1604 1809 L714 1809 L666 1536 Z " />
<glyph glyph-name="omacron" unicode="&#x14d;" horiz-adv-x="1348" d="M688 -30 C1074 -30 1340 168 1397 519 C1449 841 1228 1068 842 1068 C457 1068 190 871 133 519 C81 198 303 -30 688 -30 L688 -30 Z M716 243 C552 243 473 357 502 519 C531 681 650 795 814 795 C979 795 1057 681 1028 519 C999 357 881 243 716 243 L716 243 Z M433 1161 L1323 1161 L1371 1434 L481 1434 L433 1161 Z " />
<glyph glyph-name="Obreve" unicode="&#x14e;" horiz-adv-x="1682" d="M853 -40 C1362 -40 1687 267 1749 717 C1806 1128 1579 1474 1080 1474 C571 1474 247 1167 185 717 C128 306 354 -40 853 -40 L853 -40 Z M891 285 C622 285 533 490 573 717 C613 944 774 1149 1043 1149 C1312 1149 1401 944 1361 717 C1321 490 1160 285 891 285 L891 285 Z M1111 1536 C1409 1536 1517 1729 1555 1822 L1323 1822 C1277 1753 1218 1724 1144 1724 C1060 1724 1009 1753 979 1822 L767 1822 C773 1719 853 1536 1111 1536 L1111 1536 Z " />
<glyph glyph-name="obreve" unicode="&#x14f;" horiz-adv-x="1348" d="M688 -30 C1074 -30 1340 168 1397 519 C1449 841 1228 1068 842 1068 C457 1068 190 871 133 519 C81 198 303 -30 688 -30 L688 -30 Z M716 243 C552 243 473 357 502 519 C531 681 650 795 814 795 C979 795 1057 681 1028 519 C999 357 881 243 716 243 L716 243 Z M876 1148 C1174 1148 1282 1341 1320 1434 L1088 1434 C1042 1365 983 1336 909 1336 C825 1336 774 1365 744 1434 L532 1434 C538 1331 618 1148 876 1148 L876 1148 Z " />
<glyph glyph-name="Ohungarumlaut" unicode="&#x150;" horiz-adv-x="1682" d="M853 -40 C1362 -40 1687 267 1749 717 C1806 1128 1579 1474 1080 1474 C571 1474 247 1167 185 717 C128 306 354 -40 853 -40 L853 -40 Z M891 285 C622 285 533 490 573 717 C613 944 774 1149 1043 1149 C1312 1149 1401 944 1361 717 C1321 490 1160 285 891 285 L891 285 Z M789 1536 L1040 1536 L1249 1878 L940 1878 L789 1536 Z M1173 1536 L1424 1536 L1633 1878 L1324 1878 L1173 1536 Z " />
<glyph glyph-name="ohungarumlaut" unicode="&#x151;" horiz-adv-x="1351" d="M688 -30 C1074 -30 1340 168 1397 519 C1449 841 1228 1068 842 1068 C457 1068 190 871 133 519 C81 198 303 -30 688 -30 L688 -30 Z M716 243 C552 243 473 357 502 519 C531 681 650 795 814 795 C979 795 1057 681 1028 519 C999 357 881 243 716 243 L716 243 Z M566 1174 L817 1174 L1026 1516 L717 1516 L566 1174 Z M950 1174 L1201 1174 L1410 1516 L1101 1516 L950 1174 Z " />
<glyph glyph-name="OE" unicode="&#x152;" horiz-adv-x="2370" d="M2305 0 L2386 464 L2008 464 L1984 325 L1529 325 L1572 569 L2011 569 L2065 877 L1626 877 L1667 1109 L2106 1109 L2082 970 L2460 970 L2541 1434 L1346 1434 C1264 1456 1169 1474 1062 1474 C553 1474 229 1167 167 717 C110 306 336 -40 835 -40 C943 -40 1043 -26 1133 0 L2305 0 Z M873 285 C604 285 515 490 555 717 C595 944 756 1149 1025 1149 C1142 1149 1225 1110 1278 1047 L1162 386 C1087 324 990 285 873 285 L873 285 Z " />
<glyph glyph-name="oe" unicode="&#x153;" horiz-adv-x="2116" d="M1904 312 C1819 272 1719 243 1608 243 C1415 243 1370 312 1381 375 L2139 375 C2237 769 2098 1068 1684 1068 C1499 1068 1359 1020 1255 939 C1158 1021 1017 1068 842 1068 C457 1068 190 871 133 519 C81 198 303 -30 688 -30 C868 -30 1022 12 1140 94 C1222 17 1349 -30 1530 -30 C1786 -30 1942 30 2049 96 L1904 312 Z M716 243 C552 243 473 357 502 519 C531 681 650 795 814 795 C979 795 1057 681 1028 519 C999 357 881 243 716 243 L716 243 Z M1421 620 C1431 676 1488 795 1656 795 C1823 795 1838 676 1828 620 L1421 620 Z " />
<glyph glyph-name="Racute" unicode="&#x154;" horiz-adv-x="1564" d="M875 1536 L1205 1536 L1574 1846 L1181 1846 L875 1536 Z M439 1109 L301 325 L142 325 L85 0 L781 0 L838 325 L679 325 L714 522 L876 522 L1077 0 L1499 0 L1556 325 L1397 325 L1286 581 C1424 618 1615 724 1657 962 C1718 1309 1500 1434 1123 1434 L337 1434 L280 1109 L439 1109 Z M1066 1109 C1221 1109 1291 1084 1269 962 C1248 840 1169 815 1014 815 L765 815 L817 1109 L1066 1109 Z " />
<glyph glyph-name="racute" unicode="&#x155;" horiz-adv-x="1118" d="M644 1124 L974 1124 L1342 1434 L949 1434 L644 1124 Z M1301 1013 C1239 1049 1162 1068 1070 1068 C959 1068 841 1031 756 926 L776 1038 L248 1038 L199 765 L358 765 L272 273 L113 273 L65 0 L752 0 L800 273 L641 273 L699 602 C721 728 796 795 920 795 C988 795 1056 775 1093 748 L1301 1013 Z " />
<glyph glyph-name="Rcommaaccent" unicode="&#x156;" horiz-adv-x="1564" d="M412 -532 L713 -532 L978 -108 L639 -108 L412 -532 Z M439 1109 L301 325 L142 325 L85 0 L781 0 L838 325 L679 325 L714 522 L876 522 L1077 0 L1499 0 L1556 325 L1397 325 L1286 581 C1424 618 1615 724 1657 962 C1718 1309 1500 1434 1123 1434 L337 1434 L280 1109 L439 1109 Z M1066 1109 C1221 1109 1291 1084 1269 962 C1248 840 1169 815 1014 815 L765 815 L817 1109 L1066 1109 Z " />
<glyph glyph-name="rcommaaccent" unicode="&#x157;" horiz-adv-x="1118" d="M-9 -532 L291 -532 L556 -108 L217 -108 L-9 -532 Z M1301 1013 C1239 1049 1162 1068 1070 1068 C959 1068 841 1031 756 926 L776 1038 L248 1038 L199 765 L358 765 L272 273 L113 273 L65 0 L752 0 L800 273 L641 273 L699 602 C721 728 796 795 920 795 C988 795 1056 775 1093 748 L1301 1013 Z " />
<glyph glyph-name="Rcaron" unicode="&#x158;" horiz-adv-x="1564" d="M1519 1827 L1221 1827 L1046 1718 L909 1827 L651 1827 L911 1536 L1157 1536 L1519 1827 Z M439 1109 L301 325 L142 325 L85 0 L781 0 L838 325 L679 325 L714 522 L876 522 L1077 0 L1499 0 L1556 325 L1397 325 L1286 581 C1424 618 1615 724 1657 962 C1718 1309 1500 1434 1123 1434 L337 1434 L280 1109 L439 1109 Z M1066 1109 C1221 1109 1291 1084 1269 962 C1248 840 1169 815 1014 815 L765 815 L817 1109 L1066 1109 Z " />
<glyph glyph-name="rcaron" unicode="&#x159;" horiz-adv-x="1069" d="M1301 1013 C1239 1049 1162 1068 1070 1068 C959 1068 841 1031 756 926 L776 1038 L248 1038 L199 765 L358 765 L272 273 L113 273 L65 0 L752 0 L800 273 L641 273 L699 602 C721 728 796 795 920 795 C988 795 1056 775 1093 748 L1301 1013 Z M1310 1434 L1012 1434 L837 1325 L700 1434 L442 1434 L702 1143 L948 1143 L1310 1434 Z " />
<glyph glyph-name="Sacute" unicode="&#x15a;" horiz-adv-x="1456" d="M831 1536 L1161 1536 L1530 1846 L1137 1846 L831 1536 Z M1487 970 L1555 1361 C1555 1361 1302 1474 966 1474 C579 1474 350 1297 320 1021 C295 793 438 644 785 564 C948 530 1043 514 1026 419 C1007 307 863 285 737 285 C666 285 599 293 537 308 L566 473 L188 473 L127 127 C262 17 483 -40 699 -40 C1035 -40 1360 63 1404 419 C1436 681 1264 799 913 879 C761 914 682 934 699 1031 C714 1116 821 1149 929 1149 C986 1149 1057 1144 1136 1125 L1109 970 L1487 970 Z " />
<glyph glyph-name="sacute" unicode="&#x15b;" horiz-adv-x="1142" d="M584 1124 L914 1124 L1282 1434 L889 1434 L584 1124 Z M712 1068 C405 1068 224 956 195 742 C167 536 317 450 603 401 C696 385 774 378 764 322 C753 260 714 243 566 243 C535 243 495 248 478 253 L493 336 L124 336 L81 93 C192 -10 401 -30 548 -30 C804 -30 1088 8 1130 302 C1164 541 983 593 700 655 C632 670 553 680 563 732 C571 779 625 795 714 795 C746 795 772 793 798 789 L783 706 L1152 706 L1202 987 C1202 987 1008 1068 712 1068 L712 1068 Z " />
<glyph glyph-name="Scircumflex" unicode="&#x15c;" horiz-adv-x="1456" d="M566 1536 L864 1536 L1039 1645 L1176 1536 L1434 1536 L1174 1827 L928 1827 L566 1536 Z M1487 970 L1555 1361 C1555 1361 1302 1474 966 1474 C579 1474 350 1297 320 1021 C295 793 438 644 785 564 C948 530 1043 514 1026 419 C1007 307 863 285 737 285 C666 285 599 293 537 308 L566 473 L188 473 L127 127 C262 17 483 -40 699 -40 C1035 -40 1360 63 1404 419 C1436 681 1264 799 913 879 C761 914 682 934 699 1031 C714 1116 821 1149 929 1149 C986 1149 1057 1144 1136 1125 L1109 970 L1487 970 Z " />
<glyph glyph-name="scircumflex" unicode="&#x15d;" horiz-adv-x="1142" d="M312 1143 L610 1143 L785 1252 L922 1143 L1180 1143 L920 1434 L674 1434 L312 1143 Z M712 1068 C405 1068 224 956 195 742 C167 536 317 450 603 401 C696 385 774 378 764 322 C753 260 714 243 566 243 C535 243 495 248 478 253 L493 336 L124 336 L81 93 C192 -10 401 -30 548 -30 C804 -30 1088 8 1130 302 C1164 541 983 593 700 655 C632 670 553 680 563 732 C571 779 625 795 714 795 C746 795 772 793 798 789 L783 706 L1152 706 L1202 987 C1202 987 1008 1068 712 1068 L712 1068 Z " />
<glyph glyph-name="Scedilla" unicode="&#x15e;" horiz-adv-x="1456" d="M1487 970 L1555 1361 C1555 1361 1302 1474 966 1474 C579 1474 350 1297 320 1021 C295 793 438 644 785 564 C948 530 1043 514 1026 419 C1007 307 863 285 737 285 C666 285 599 293 537 308 L566 473 L188 473 L127 127 C237 37 405 -17 581 -34 L469 -278 C587 -266 790 -234 769 -324 C743 -434 507 -381 440 -358 L371 -517 C600 -605 948 -594 990 -331 C1012 -196 917 -118 771 -117 L811 -36 C1104 -14 1365 103 1404 419 C1436 681 1264 799 913 879 C761 914 682 934 699 1031 C714 1116 821 1149 929 1149 C986 1149 1057 1144 1136 1125 L1109 970 L1487 970 Z " />
<glyph glyph-name="scedilla" unicode="&#x15f;" horiz-adv-x="1142" d="M712 1068 C405 1068 224 956 195 742 C167 536 317 450 603 401 C696 385 774 378 764 322 C753 260 714 243 566 243 C535 243 495 248 478 253 L493 336 L124 336 L81 93 C165 15 304 -15 431 -25 L314 -278 C432 -266 635 -234 614 -324 C588 -434 352 -381 285 -358 L216 -517 C445 -605 793 -594 835 -331 C857 -196 762 -118 616 -117 L661 -27 L660 -27 C881 -13 1094 50 1130 302 C1164 541 983 593 700 655 C632 670 553 680 563 732 C571 779 625 795 714 795 C746 795 772 793 798 789 L783 706 L1152 706 L1202 987 C1202 987 1008 1068 712 1068 L712 1068 Z " />
<glyph glyph-name="Scaron" unicode="&#x160;" horiz-adv-x="1456" d="M1464 1827 L1166 1827 L991 1718 L854 1827 L596 1827 L856 1536 L1102 1536 L1464 1827 Z M1487 970 L1555 1361 C1555 1361 1302 1474 966 1474 C579 1474 350 1297 320 1021 C295 793 438 644 785 564 C948 530 1043 514 1026 419 C1007 307 863 285 737 285 C666 285 599 293 537 308 L566 473 L188 473 L127 127 C262 17 483 -40 699 -40 C1035 -40 1360 63 1404 419 C1436 681 1264 799 913 879 C761 914 682 934 699 1031 C714 1116 821 1149 929 1149 C986 1149 1057 1144 1136 1125 L1109 970 L1487 970 Z " />
<glyph glyph-name="scaron" unicode="&#x161;" horiz-adv-x="1138" d="M1240 1434 L942 1434 L767 1325 L630 1434 L372 1434 L632 1143 L878 1143 L1240 1434 Z M712 1068 C405 1068 224 956 195 742 C167 536 317 450 603 401 C696 385 774 378 764 322 C753 260 714 243 566 243 C535 243 495 248 478 253 L493 336 L124 336 L81 93 C192 -10 401 -30 548 -30 C804 -30 1088 8 1130 302 C1164 541 983 593 700 655 C632 670 553 680 563 732 C571 779 625 795 714 795 C746 795 772 793 798 789 L783 706 L1152 706 L1202 987 C1202 987 1008 1068 712 1068 L712 1068 Z " />
<glyph glyph-name="Tcommaaccent" unicode="&#x162;" horiz-adv-x="1612" d="M391 -532 L692 -532 L957 -108 L618 -108 L391 -532 Z M812 1109 L674 325 L515 325 L458 0 L1154 0 L1211 325 L1052 325 L1190 1109 L1344 1109 L1320 970 L1698 970 L1779 1434 L337 1434 L256 970 L634 970 L658 1109 L812 1109 Z " />
<glyph glyph-name="tcommaaccent" unicode="&#x163;" horiz-adv-x="931" d="M182 -532 L483 -532 L748 -108 L409 -108 L182 -532 Z M159 765 L346 765 L289 436 C235 133 310 -30 639 -30 C750 -30 844 -14 912 13 L878 264 C835 251 785 243 740 243 C641 243 636 314 664 471 L715 765 L994 765 L1043 1038 L764 1038 L816 1337 L447 1337 L395 1038 L208 1038 L159 765 Z " />
<glyph glyph-name="Tcaron" unicode="&#x164;" horiz-adv-x="1612" d="M812 1109 L674 325 L515 325 L458 0 L1154 0 L1211 325 L1052 325 L1190 1109 L1344 1109 L1320 970 L1698 970 L1779 1434 L337 1434 L256 970 L634 970 L658 1109 L812 1109 Z M1549 1827 L1251 1827 L1076 1718 L939 1827 L681 1827 L941 1536 L1187 1536 L1549 1827 Z " />
<glyph glyph-name="tcaron" unicode="&#x165;" horiz-adv-x="1338" d="M1053 1094 L1344 1094 L1508 1516 L1179 1516 L1053 1094 Z M159 765 L346 765 L289 436 C235 133 310 -30 639 -30 C750 -30 844 -14 912 13 L878 264 C835 251 785 243 740 243 C641 243 636 314 664 471 L715 765 L994 765 L1043 1038 L764 1038 L816 1337 L447 1337 L395 1038 L208 1038 L159 765 Z " />
<glyph glyph-name="Tbar" unicode="&#x166;" horiz-adv-x="1612" d="M460 574 L718 574 L674 325 L515 325 L458 0 L1154 0 L1211 325 L1052 325 L1096 574 L1354 574 L1404 859 L1146 859 L1190 1109 L1344 1109 L1320 970 L1698 970 L1779 1434 L337 1434 L256 970 L634 970 L658 1109 L812 1109 L768 859 L510 859 L460 574 Z " />
<glyph glyph-name="tbar" unicode="&#x167;" horiz-adv-x="930" d="M158 765 L345 765 L331 688 L146 688 L98 415 L284 415 C237 125 316 -30 638 -30 C749 -30 843 -14 911 13 L877 264 C834 251 784 243 739 243 C652 243 638 297 654 415 L933 415 L981 688 L700 688 L714 765 L993 765 L1042 1038 L763 1038 L815 1337 L446 1337 L394 1038 L207 1038 L158 765 Z " />
<glyph glyph-name="Utilde" unicode="&#x168;" horiz-adv-x="1809" d="M1760 1109 L1919 1109 L1976 1434 L1280 1434 L1223 1109 L1382 1109 L1302 656 C1258 405 1160 285 955 285 C749 285 693 405 737 656 L817 1109 L976 1109 L1033 1434 L337 1434 L280 1109 L439 1109 L359 656 C285 234 476 -40 907 -40 C1446 -40 1606 234 1680 656 L1760 1109 Z M1157 1590 C1186 1561 1222 1536 1303 1536 C1607 1536 1652 1845 1652 1845 L1427 1845 C1427 1845 1405 1767 1338 1767 C1291 1767 1277 1790 1253 1813 C1225 1842 1189 1867 1108 1867 C804 1867 758 1558 758 1558 L983 1558 C983 1558 1005 1636 1072 1636 C1119 1636 1133 1613 1157 1590 L1157 1590 Z " />
<glyph glyph-name="utilde" unicode="&#x169;" horiz-adv-x="1560" d="M1519 1038 L991 1038 L942 765 L1101 765 L1043 436 C1021 310 946 243 822 243 C698 243 647 310 669 436 L776 1038 L248 1038 L199 765 L358 765 L300 436 C248 138 399 -30 672 -30 C783 -30 901 7 986 112 L967 0 L1495 0 L1543 273 L1384 273 L1519 1038 Z M961 1217 C990 1188 1026 1163 1107 1163 C1411 1163 1456 1472 1456 1472 L1231 1472 C1231 1472 1209 1394 1142 1394 C1095 1394 1081 1417 1057 1440 C1029 1469 993 1494 912 1494 C608 1494 562 1185 562 1185 L787 1185 C787 1185 809 1263 876 1263 C923 1263 937 1240 961 1217 L961 1217 Z " />
<glyph glyph-name="Umacron" unicode="&#x16a;" horiz-adv-x="1809" d="M729 1536 L1619 1536 L1667 1809 L777 1809 L729 1536 Z M1760 1109 L1919 1109 L1976 1434 L1280 1434 L1223 1109 L1382 1109 L1302 656 C1258 405 1160 285 955 285 C749 285 693 405 737 656 L817 1109 L976 1109 L1033 1434 L337 1434 L280 1109 L439 1109 L359 656 C285 234 476 -40 907 -40 C1446 -40 1606 234 1680 656 L1760 1109 Z " />
<glyph glyph-name="umacron" unicode="&#x16b;" horiz-adv-x="1560" d="M539 1161 L1429 1161 L1477 1434 L587 1434 L539 1161 Z M1519 1038 L991 1038 L942 765 L1101 765 L1043 436 C1021 310 946 243 822 243 C698 243 647 310 669 436 L776 1038 L248 1038 L199 765 L358 765 L300 436 C248 138 399 -30 672 -30 C783 -30 901 7 986 112 L967 0 L1495 0 L1543 273 L1384 273 L1519 1038 Z " />
<glyph glyph-name="Ubreve" unicode="&#x16c;" horiz-adv-x="1809" d="M1760 1109 L1919 1109 L1976 1434 L1280 1434 L1223 1109 L1382 1109 L1302 656 C1258 405 1160 285 955 285 C749 285 693 405 737 656 L817 1109 L976 1109 L1033 1434 L337 1434 L280 1109 L439 1109 L359 656 C285 234 476 -40 907 -40 C1446 -40 1606 234 1680 656 L1760 1109 Z M1175 1536 C1473 1536 1581 1729 1619 1822 L1387 1822 C1341 1753 1282 1724 1208 1724 C1124 1724 1073 1753 1043 1822 L831 1822 C837 1719 917 1536 1175 1536 L1175 1536 Z " />
<glyph glyph-name="ubreve" unicode="&#x16d;" horiz-adv-x="1560" d="M1519 1038 L991 1038 L942 765 L1101 765 L1043 436 C1021 310 946 243 822 243 C698 243 647 310 669 436 L776 1038 L248 1038 L199 765 L358 765 L300 436 C248 138 399 -30 672 -30 C783 -30 901 7 986 112 L967 0 L1495 0 L1543 273 L1384 273 L1519 1038 Z M977 1148 C1275 1148 1383 1341 1421 1434 L1189 1434 C1143 1365 1084 1336 1010 1336 C926 1336 875 1365 845 1434 L633 1434 C639 1331 719 1148 977 1148 L977 1148 Z " />
<glyph glyph-name="Uring" unicode="&#x16e;" horiz-adv-x="1809" d="M1760 1109 L1919 1109 L1976 1434 L1280 1434 L1223 1109 L1382 1109 L1302 656 C1258 405 1160 285 955 285 C749 285 693 405 737 656 L817 1109 L976 1109 L1033 1434 L337 1434 L280 1109 L439 1109 L359 656 C285 234 476 -40 907 -40 C1446 -40 1606 234 1680 656 L1760 1109 Z M966 1789 C942 1649 1035 1536 1175 1536 C1335 1536 1449 1649 1473 1789 C1498 1929 1404 2043 1264 2043 C1104 2043 991 1929 966 1789 L966 1789 Z M1148 1789 C1155 1828 1187 1860 1232 1860 C1271 1860 1297 1828 1290 1789 C1283 1750 1252 1718 1207 1718 C1168 1718 1141 1750 1148 1789 L1148 1789 Z " />
<glyph glyph-name="uring" unicode="&#x16f;" horiz-adv-x="1560" d="M769 1377 C745 1237 838 1124 978 1124 C1118 1124 1251 1237 1275 1377 C1300 1517 1207 1631 1067 1631 C927 1631 794 1517 769 1377 L769 1377 Z M951 1377 C958 1416 996 1448 1035 1448 C1074 1448 1100 1416 1093 1377 C1086 1338 1049 1306 1010 1306 C971 1306 944 1338 951 1377 L951 1377 Z M1519 1038 L991 1038 L942 765 L1101 765 L1043 436 C1021 310 946 243 822 243 C698 243 647 310 669 436 L776 1038 L248 1038 L199 765 L358 765 L300 436 C248 138 399 -30 672 -30 C783 -30 901 7 986 112 L967 0 L1495 0 L1543 273 L1384 273 L1519 1038 Z " />
<glyph glyph-name="Uhungarumlaut" unicode="&#x170;" horiz-adv-x="1809" d="M860 1536 L1111 1536 L1321 1878 L1012 1878 L860 1536 Z M1244 1536 L1495 1536 L1705 1878 L1396 1878 L1244 1536 Z M1760 1109 L1919 1109 L1976 1434 L1280 1434 L1223 1109 L1382 1109 L1302 656 C1258 405 1160 285 955 285 C749 285 693 405 737 656 L817 1109 L976 1109 L1033 1434 L337 1434 L280 1109 L439 1109 L359 656 C285 234 476 -40 907 -40 C1446 -40 1606 234 1680 656 L1760 1109 Z " />
<glyph glyph-name="uhungarumlaut" unicode="&#x171;" horiz-adv-x="1560" d="M674 1174 L925 1174 L1134 1516 L825 1516 L674 1174 Z M1058 1174 L1309 1174 L1518 1516 L1209 1516 L1058 1174 Z M1519 1038 L991 1038 L942 765 L1101 765 L1043 436 C1021 310 946 243 822 243 C698 243 647 310 669 436 L776 1038 L248 1038 L199 765 L358 765 L300 436 C248 138 399 -30 672 -30 C783 -30 901 7 986 112 L967 0 L1495 0 L1543 273 L1384 273 L1519 1038 Z " />
<glyph glyph-name="Uogonek" unicode="&#x172;" horiz-adv-x="1809" d="M1760 1109 L1919 1109 L1976 1434 L1280 1434 L1223 1109 L1382 1109 L1302 656 C1258 405 1160 285 955 285 C749 285 693 405 737 656 L817 1109 L976 1109 L1033 1434 L337 1434 L280 1109 L439 1109 L359 656 C286 238 472 -34 894 -40 C851 -71 803 -123 788 -207 C748 -438 963 -518 1174 -518 L1221 -251 C1221 -251 1039 -251 1059 -141 C1073 -59 1156 -20 1194 -6 C1508 79 1621 321 1680 656 L1760 1109 Z " />
<glyph glyph-name="uogonek" unicode="&#x173;" horiz-adv-x="1612" d="M1519 1038 L991 1038 L942 765 L1101 765 L1043 436 C1021 310 946 243 822 243 C698 243 647 310 669 436 L776 1038 L248 1038 L199 765 L358 765 L300 436 C248 138 399 -30 672 -30 C783 -30 901 7 986 112 L967 0 L1252 0 C993 -150 974 -543 1457 -508 L1504 -241 C1233 -241 1349 -46 1495 0 L1543 273 L1384 273 L1519 1038 Z " />
<glyph glyph-name="Wcircumflex" unicode="&#x174;" horiz-adv-x="2194" d="M1337 0 L1677 0 L2213 1109 L2364 1109 L2421 1434 L1715 1434 L1658 1109 L1807 1109 L1584 622 L1480 1434 L1198 1434 L808 622 L756 1109 L906 1109 L963 1434 L277 1434 L220 1109 L371 1109 L517 0 L857 0 L1236 789 L1337 0 Z M1522 1827 L1276 1827 L914 1536 L1212 1536 L1387 1645 L1524 1536 L1782 1536 L1522 1827 Z " />
<glyph glyph-name="wcircumflex" unicode="&#x175;" horiz-adv-x="1974" d="M1874 765 L2043 765 L2092 1038 L1474 1038 L1425 765 L1514 765 L1364 440 L1277 1038 L1041 1038 L742 440 L705 765 L795 765 L844 1038 L248 1038 L199 765 L367 765 L502 0 L825 0 L1074 499 L1149 0 L1472 0 L1874 765 Z M1342 1434 L1096 1434 L734 1143 L1032 1143 L1207 1252 L1344 1143 L1602 1143 L1342 1434 Z " />
<glyph glyph-name="Ycircumflex" unicode="&#x176;" horiz-adv-x="1584" d="M688 483 L660 325 L501 325 L444 0 L1140 0 L1197 325 L1038 325 L1066 483 L1611 1109 L1754 1109 L1811 1434 L1125 1434 L1068 1109 L1167 1109 L921 824 L775 1109 L866 1109 L923 1434 L277 1434 L220 1109 L363 1109 L688 483 Z M1204 1827 L958 1827 L596 1536 L894 1536 L1069 1645 L1206 1536 L1464 1536 L1204 1827 Z " />
<glyph glyph-name="ycircumflex" unicode="&#x177;" horiz-adv-x="1424" d="M1086 1434 L840 1434 L478 1143 L776 1143 L951 1252 L1088 1143 L1346 1143 L1086 1434 Z M1332 765 L1493 765 L1542 1038 L929 1038 L880 765 L956 765 L774 425 L711 765 L780 765 L829 1038 L248 1038 L199 765 L360 765 L542 0 L456 -145 C409 -222 375 -259 258 -259 L126 -259 L78 -532 L252 -532 C532 -532 626 -427 713 -285 L882 0 L1332 765 Z " />
<glyph glyph-name="Ydieresis" unicode="&#x178;" horiz-adv-x="1584" d="M688 483 L660 325 L501 325 L444 0 L1140 0 L1197 325 L1038 325 L1066 483 L1611 1109 L1754 1109 L1811 1434 L1125 1434 L1068 1109 L1167 1109 L921 824 L775 1109 L866 1109 L923 1434 L277 1434 L220 1109 L363 1109 L688 483 Z M1134 1728 C1117 1627 1183 1546 1284 1546 C1395 1546 1482 1627 1499 1728 C1517 1829 1450 1911 1349 1911 C1238 1911 1152 1829 1134 1728 L1134 1728 Z M673 1728 C656 1627 722 1546 823 1546 C934 1546 1021 1627 1038 1728 C1056 1829 989 1911 888 1911 C777 1911 691 1829 673 1728 L673 1728 Z " />
<glyph glyph-name="Zacute" unicode="&#x179;" horiz-adv-x="1423" d="M794 1536 L1124 1536 L1493 1846 L1100 1846 L794 1536 Z M1590 1434 L357 1434 L276 970 L654 970 L678 1109 L963 1109 L115 172 L85 0 L1338 0 L1419 464 L1041 464 L1017 325 L711 325 L1560 1262 L1590 1434 Z " />
<glyph glyph-name="zacute" unicode="&#x17a;" horiz-adv-x="1152" d="M593 1124 L923 1124 L1291 1434 L898 1434 L593 1124 Z M65 0 L1087 0 L1153 376 L804 376 L786 273 L624 273 L1242 881 L1270 1038 L266 1038 L199 662 L548 662 L566 765 L710 765 L92 156 L65 0 Z " />
<glyph glyph-name="Zdotaccent" unicode="&#x17b;" horiz-adv-x="1423" d="M1590 1434 L357 1434 L276 970 L654 970 L678 1109 L963 1109 L115 172 L85 0 L1338 0 L1419 464 L1041 464 L1017 325 L711 325 L1560 1262 L1590 1434 Z M832 1728 C815 1627 881 1546 982 1546 C1093 1546 1180 1627 1197 1728 C1215 1829 1148 1911 1047 1911 C936 1911 850 1829 832 1728 L832 1728 Z " />
<glyph glyph-name="zdotaccent" unicode="&#x17c;" horiz-adv-x="1152" d="M65 0 L1087 0 L1153 376 L804 376 L786 273 L624 273 L1242 881 L1270 1038 L266 1038 L199 662 L548 662 L566 765 L710 765 L92 156 L65 0 Z M628 1344 C611 1243 677 1162 778 1162 C889 1162 976 1243 993 1344 C1011 1445 944 1527 843 1527 C732 1527 646 1445 628 1344 L628 1344 Z " />
<glyph glyph-name="Zcaron" unicode="&#x17d;" horiz-adv-x="1423" d="M1590 1434 L357 1434 L276 970 L654 970 L678 1109 L963 1109 L115 172 L85 0 L1338 0 L1419 464 L1041 464 L1017 325 L711 325 L1560 1262 L1590 1434 Z M858 1536 L1104 1536 L1466 1827 L1168 1827 L993 1718 L856 1827 L598 1827 L858 1536 Z " />
<glyph glyph-name="zcaron" unicode="&#x17e;" horiz-adv-x="1152" d="M65 0 L1087 0 L1153 376 L804 376 L786 273 L624 273 L1242 881 L1270 1038 L266 1038 L199 662 L548 662 L566 765 L710 765 L92 156 L65 0 Z M650 1143 L896 1143 L1258 1434 L960 1434 L785 1325 L648 1434 L390 1434 L650 1143 Z " />
<glyph glyph-name="longs" unicode="&#x17f;" horiz-adv-x="960" d="M978 1273 C1022 1273 1067 1265 1096 1258 L1230 1505 C1163 1530 1073 1546 968 1546 C602 1546 482 1342 428 1038 L293 273 L134 273 L86 0 L773 0 L821 273 L662 273 L797 1038 C829 1221 865 1273 978 1273 L978 1273 Z " />
<glyph glyph-name="florin" unicode="&#x192;" horiz-adv-x="1201" d="M881 713 L1147 713 L1257 1038 L982 1038 L995 1076 C1013 1126 1050 1180 1134 1180 L1320 1180 L1431 1506 L1197 1506 C827 1506 679 1296 614 1104 L591 1038 L334 1038 L224 713 L488 713 L217 -102 C198 -155 164 -206 78 -206 L-107 -206 L-218 -532 L75 -532 C445 -532 559 -232 598 -130 L881 713 Z " />
<glyph glyph-name="Ohorn" unicode="&#x1a0;" horiz-adv-x="1788" d="M853 -40 C1362 -40 1687 267 1749 717 C1770 872 1751 1018 1692 1140 C1825 1193 1953 1309 1998 1563 L1629 1563 C1607 1440 1522 1398 1453 1389 C1353 1443 1228 1474 1080 1474 C571 1474 247 1167 185 717 C128 306 354 -40 853 -40 L853 -40 Z M891 285 C622 285 533 490 573 717 C613 944 774 1149 1043 1149 C1312 1149 1401 944 1361 717 C1321 490 1160 285 891 285 L891 285 Z " />
<glyph glyph-name="ohorn" unicode="&#x1a1;" horiz-adv-x="1458" d="M688 -30 C1074 -30 1340 168 1397 519 C1413 618 1403 709 1370 786 C1497 837 1629 946 1671 1180 L1322 1180 C1305 1083 1243 1017 1189 986 C1098 1038 980 1068 842 1068 C457 1068 190 871 133 519 C81 198 303 -30 688 -30 L688 -30 Z M716 243 C552 243 473 357 502 519 C531 681 650 795 814 795 C979 795 1057 681 1028 519 C999 357 881 243 716 243 L716 243 Z " />
<glyph glyph-name="Uhorn" unicode="&#x1af;" horiz-adv-x="2110" d="M955 285 C749 285 693 405 737 656 L817 1109 L976 1109 L1033 1434 L337 1434 L280 1109 L439 1109 L359 656 C285 234 476 -40 907 -40 C1446 -40 1606 234 1680 656 L1760 1109 C2041 1127 2252 1290 2306 1596 L1928 1596 C1908 1484 1854 1436 1759 1434 L1280 1434 L1223 1109 L1382 1109 L1302 656 C1258 405 1160 285 955 285 L955 285 Z " />
<glyph glyph-name="uhorn" unicode="&#x1b0;" horiz-adv-x="1786" d="M1384 273 L1471 766 C1644 772 1865 820 1927 1171 L1612 1171 C1592 1060 1536 1038 1459 1038 L991 1038 L942 765 L1101 765 L1043 436 C1021 310 946 243 822 243 C698 243 647 310 669 436 L776 1038 L248 1038 L199 765 L358 765 L300 436 C248 138 399 -30 672 -30 C783 -30 901 7 986 112 L967 0 L1495 0 L1543 273 L1384 273 Z " />
<glyph glyph-name="uni01CD" unicode="&#x1cd;" horiz-adv-x="1700" d="M1189 325 L1046 325 L989 0 L1675 0 L1732 325 L1580 325 L1301 1434 L611 1434 L554 1109 L713 1109 L234 325 L82 325 L25 0 L731 0 L788 325 L644 325 L695 412 L1167 412 L1189 325 Z M1031 974 L1093 719 L878 719 L1031 974 Z M988 1536 L1234 1536 L1596 1827 L1298 1827 L1123 1718 L986 1827 L728 1827 L988 1536 Z " />
<glyph glyph-name="uni01CE" unicode="&#x1ce;" horiz-adv-x="1457" d="M1047 1038 L1023 904 C980 1010 851 1068 734 1068 C448 1068 161 920 101 519 C50 178 254 -30 540 -30 C657 -30 801 8 886 124 L864 0 L1392 0 L1440 273 L1281 273 L1368 765 L1527 765 L1575 1038 L1047 1038 Z M663 243 C494 243 442 367 469 519 C496 671 592 795 761 795 C930 795 982 671 955 519 C928 367 832 243 663 243 L663 243 Z M727 1143 L973 1143 L1335 1434 L1037 1434 L862 1325 L725 1434 L467 1434 L727 1143 Z " />
<glyph glyph-name="uni01CF" unicode="&#x1cf;" horiz-adv-x="955" d="M485 1109 L347 325 L188 325 L131 0 L827 0 L884 325 L725 325 L863 1109 L1022 1109 L1079 1434 L383 1434 L326 1109 L485 1109 Z M624 1536 L870 1536 L1232 1827 L934 1827 L759 1718 L622 1827 L364 1827 L624 1536 Z " />
<glyph glyph-name="uni01D0" unicode="&#x1d0;" horiz-adv-x="918" d="M827 1038 L299 1038 L250 765 L409 765 L323 273 L164 273 L116 0 L803 0 L851 273 L692 273 L827 1038 Z M537 1143 L783 1143 L1145 1434 L847 1434 L672 1325 L535 1434 L277 1434 L537 1143 Z " />
<glyph glyph-name="uni01D1" unicode="&#x1d1;" horiz-adv-x="1682" d="M853 -40 C1362 -40 1687 267 1749 717 C1806 1128 1579 1474 1080 1474 C571 1474 247 1167 185 717 C128 306 354 -40 853 -40 L853 -40 Z M891 285 C622 285 533 490 573 717 C613 944 774 1149 1043 1149 C1312 1149 1401 944 1361 717 C1321 490 1160 285 891 285 L891 285 Z M1596 1827 L1298 1827 L1123 1718 L986 1827 L728 1827 L988 1536 L1234 1536 L1596 1827 Z " />
<glyph glyph-name="uni01D2" unicode="&#x1d2;" horiz-adv-x="1348" d="M688 -30 C1074 -30 1340 168 1397 519 C1449 841 1228 1068 842 1068 C457 1068 190 871 133 519 C81 198 303 -30 688 -30 L688 -30 Z M716 243 C552 243 473 357 502 519 C531 681 650 795 814 795 C979 795 1057 681 1028 519 C999 357 881 243 716 243 L716 243 Z M1360 1434 L1062 1434 L887 1325 L750 1434 L492 1434 L752 1143 L998 1143 L1360 1434 Z " />
<glyph glyph-name="uni01D3" unicode="&#x1d3;" horiz-adv-x="1809" d="M1760 1109 L1919 1109 L1976 1434 L1280 1434 L1223 1109 L1382 1109 L1302 656 C1258 405 1160 285 955 285 C749 285 693 405 737 656 L817 1109 L976 1109 L1033 1434 L337 1434 L280 1109 L439 1109 L359 656 C285 234 476 -40 907 -40 C1446 -40 1606 234 1680 656 L1760 1109 Z M1659 1827 L1361 1827 L1186 1718 L1049 1827 L791 1827 L1051 1536 L1297 1536 L1659 1827 Z " />
<glyph glyph-name="uni01D4" unicode="&#x1d4;" horiz-adv-x="1560" d="M1519 1038 L991 1038 L942 765 L1101 765 L1043 436 C1021 310 946 243 822 243 C698 243 647 310 669 436 L776 1038 L248 1038 L199 765 L358 765 L300 436 C248 138 399 -30 672 -30 C783 -30 901 7 986 112 L967 0 L1495 0 L1543 273 L1384 273 L1519 1038 Z M1464 1434 L1166 1434 L991 1325 L854 1434 L596 1434 L856 1143 L1102 1143 L1464 1434 Z " />
<glyph glyph-name="uni01D5" unicode="&#x1d5;" horiz-adv-x="1809" d="M806 1970 L1696 1970 L1744 2243 L854 2243 L806 1970 Z M1760 1109 L1919 1109 L1976 1434 L1280 1434 L1223 1109 L1382 1109 L1302 656 C1258 405 1160 285 955 285 C749 285 693 405 737 656 L817 1109 L976 1109 L1033 1434 L337 1434 L280 1109 L439 1109 L359 656 C285 234 476 -40 907 -40 C1446 -40 1606 234 1680 656 L1760 1109 Z M1256 1728 C1239 1627 1305 1546 1406 1546 C1517 1546 1604 1627 1621 1728 C1639 1829 1572 1911 1471 1911 C1360 1911 1274 1829 1256 1728 L1256 1728 Z M795 1728 C778 1627 844 1546 945 1546 C1056 1546 1143 1627 1160 1728 C1178 1829 1111 1911 1010 1911 C899 1911 813 1829 795 1728 L795 1728 Z " />
<glyph glyph-name="uni01D6" unicode="&#x1d6;" horiz-adv-x="1560" d="M616 1586 L1506 1586 L1554 1859 L664 1859 L616 1586 Z M1519 1038 L991 1038 L942 765 L1101 765 L1043 436 C1021 310 946 243 822 243 C698 243 647 310 669 436 L776 1038 L248 1038 L199 765 L358 765 L300 436 C248 138 399 -30 672 -30 C783 -30 901 7 986 112 L967 0 L1495 0 L1543 273 L1384 273 L1519 1038 Z M1065 1344 C1048 1243 1114 1162 1215 1162 C1326 1162 1413 1243 1430 1344 C1448 1445 1381 1527 1280 1527 C1169 1527 1083 1445 1065 1344 L1065 1344 Z M604 1344 C587 1243 653 1162 754 1162 C865 1162 952 1243 969 1344 C987 1445 920 1527 819 1527 C708 1527 622 1445 604 1344 L604 1344 Z " />
<glyph glyph-name="uni01D7" unicode="&#x1d7;" horiz-adv-x="1809" d="M1078 1970 L1408 1970 L1777 2280 L1384 2280 L1078 1970 Z M1760 1109 L1919 1109 L1976 1434 L1280 1434 L1223 1109 L1382 1109 L1302 656 C1258 405 1160 285 955 285 C749 285 693 405 737 656 L817 1109 L976 1109 L1033 1434 L337 1434 L280 1109 L439 1109 L359 656 C285 234 476 -40 907 -40 C1446 -40 1606 234 1680 656 L1760 1109 Z M1256 1728 C1239 1627 1305 1546 1406 1546 C1517 1546 1604 1627 1621 1728 C1639 1829 1572 1911 1471 1911 C1360 1911 1274 1829 1256 1728 L1256 1728 Z M795 1728 C778 1627 844 1546 945 1546 C1056 1546 1143 1627 1160 1728 C1178 1829 1111 1911 1010 1911 C899 1911 813 1829 795 1728 L795 1728 Z " />
<glyph glyph-name="uni01D8" unicode="&#x1d8;" horiz-adv-x="1560" d="M886 1586 L1216 1586 L1585 1896 L1192 1896 L886 1586 Z M1519 1038 L991 1038 L942 765 L1101 765 L1043 436 C1021 310 946 243 822 243 C698 243 647 310 669 436 L776 1038 L248 1038 L199 765 L358 765 L300 436 C248 138 399 -30 672 -30 C783 -30 901 7 986 112 L967 0 L1495 0 L1543 273 L1384 273 L1519 1038 Z M1065 1344 C1048 1243 1114 1162 1215 1162 C1326 1162 1413 1243 1430 1344 C1448 1445 1381 1527 1280 1527 C1169 1527 1083 1445 1065 1344 L1065 1344 Z M604 1344 C587 1243 653 1162 754 1162 C865 1162 952 1243 969 1344 C987 1445 920 1527 819 1527 C708 1527 622 1445 604 1344 L604 1344 Z " />
<glyph glyph-name="uni01D9" unicode="&#x1d9;" horiz-adv-x="1809" d="M1760 1109 L1919 1109 L1976 1434 L1280 1434 L1223 1109 L1382 1109 L1302 656 C1258 405 1160 285 955 285 C749 285 693 405 737 656 L817 1109 L976 1109 L1033 1434 L337 1434 L280 1109 L439 1109 L359 656 C285 234 476 -40 907 -40 C1446 -40 1606 234 1680 656 L1760 1109 Z M1256 1728 C1239 1627 1305 1546 1406 1546 C1517 1546 1604 1627 1621 1728 C1639 1829 1572 1911 1471 1911 C1360 1911 1274 1829 1256 1728 L1256 1728 Z M795 1728 C778 1627 844 1546 945 1546 C1056 1546 1143 1627 1160 1728 C1178 1829 1111 1911 1010 1911 C899 1911 813 1829 795 1728 L795 1728 Z " />
<glyph glyph-name="uni01DA" unicode="&#x1da;" horiz-adv-x="1560" d="M1519 1038 L991 1038 L942 765 L1101 765 L1043 436 C1021 310 946 243 822 243 C698 243 647 310 669 436 L776 1038 L248 1038 L199 765 L358 765 L300 436 C248 138 399 -30 672 -30 C783 -30 901 7 986 112 L967 0 L1495 0 L1543 273 L1384 273 L1519 1038 Z M1065 1344 C1048 1243 1114 1162 1215 1162 C1326 1162 1413 1243 1430 1344 C1448 1445 1381 1527 1280 1527 C1169 1527 1083 1445 1065 1344 L1065 1344 Z M604 1344 C587 1243 653 1162 754 1162 C865 1162 952 1243 969 1344 C987 1445 920 1527 819 1527 C708 1527 622 1445 604 1344 L604 1344 Z " />
<glyph glyph-name="uni01DB" unicode="&#x1db;" horiz-adv-x="1809" d="M1237 2280 L844 2280 L1103 1970 L1433 1970 L1237 2280 Z M1760 1109 L1919 1109 L1976 1434 L1280 1434 L1223 1109 L1382 1109 L1302 656 C1258 405 1160 285 955 285 C749 285 693 405 737 656 L817 1109 L976 1109 L1033 1434 L337 1434 L280 1109 L439 1109 L359 656 C285 234 476 -40 907 -40 C1446 -40 1606 234 1680 656 L1760 1109 Z M1256 1728 C1239 1627 1305 1546 1406 1546 C1517 1546 1604 1627 1621 1728 C1639 1829 1572 1911 1471 1911 C1360 1911 1274 1829 1256 1728 L1256 1728 Z M795 1728 C778 1627 844 1546 945 1546 C1056 1546 1143 1627 1160 1728 C1178 1829 1111 1911 1010 1911 C899 1911 813 1829 795 1728 L795 1728 Z " />
<glyph glyph-name="uni01DC" unicode="&#x1dc;" horiz-adv-x="1560" d="M1025 1896 L632 1896 L891 1586 L1221 1586 L1025 1896 Z M1519 1038 L991 1038 L942 765 L1101 765 L1043 436 C1021 310 946 243 822 243 C698 243 647 310 669 436 L776 1038 L248 1038 L199 765 L358 765 L300 436 C248 138 399 -30 672 -30 C783 -30 901 7 986 112 L967 0 L1495 0 L1543 273 L1384 273 L1519 1038 Z M1065 1344 C1048 1243 1114 1162 1215 1162 C1326 1162 1413 1243 1430 1344 C1448 1445 1381 1527 1280 1527 C1169 1527 1083 1445 1065 1344 L1065 1344 Z M604 1344 C587 1243 653 1162 754 1162 C865 1162 952 1243 969 1344 C987 1445 920 1527 819 1527 C708 1527 622 1445 604 1344 L604 1344 Z " />
<glyph glyph-name="uni01DE" unicode="&#x1de;" horiz-adv-x="1700" d="M731 1970 L1621 1970 L1669 2243 L779 2243 L731 1970 Z M1189 325 L1046 325 L989 0 L1675 0 L1732 325 L1580 325 L1301 1434 L611 1434 L554 1109 L713 1109 L234 325 L82 325 L25 0 L731 0 L788 325 L644 325 L695 412 L1167 412 L1189 325 Z M1031 974 L1093 719 L878 719 L1031 974 Z M1181 1728 C1164 1627 1230 1546 1331 1546 C1442 1546 1529 1627 1546 1728 C1564 1829 1497 1911 1396 1911 C1285 1911 1199 1829 1181 1728 L1181 1728 Z M720 1728 C703 1627 769 1546 870 1546 C981 1546 1068 1627 1085 1728 C1103 1829 1036 1911 935 1911 C824 1911 738 1829 720 1728 L720 1728 Z " />
<glyph glyph-name="uni01DF" unicode="&#x1df;" horiz-adv-x="1457" d="M519 1586 L1409 1586 L1457 1859 L567 1859 L519 1586 Z M1047 1038 L1023 904 C980 1010 851 1068 734 1068 C448 1068 161 920 101 519 C50 178 254 -30 540 -30 C657 -30 801 8 886 124 L864 0 L1392 0 L1440 273 L1281 273 L1368 765 L1527 765 L1575 1038 L1047 1038 Z M663 243 C494 243 442 367 469 519 C496 671 592 795 761 795 C930 795 982 671 955 519 C928 367 832 243 663 243 L663 243 Z M969 1344 C952 1243 1018 1162 1119 1162 C1230 1162 1317 1243 1334 1344 C1352 1445 1285 1527 1184 1527 C1073 1527 987 1445 969 1344 L969 1344 Z M508 1344 C491 1243 557 1162 658 1162 C769 1162 856 1243 873 1344 C891 1445 824 1527 723 1527 C612 1527 526 1445 508 1344 L508 1344 Z " />
<glyph glyph-name="uni01E0" unicode="&#x1e0;" horiz-adv-x="1700" d="M731 1970 L1621 1970 L1669 2243 L779 2243 L731 1970 Z M1189 325 L1046 325 L989 0 L1675 0 L1732 325 L1580 325 L1301 1434 L611 1434 L554 1109 L713 1109 L234 325 L82 325 L25 0 L731 0 L788 325 L644 325 L695 412 L1167 412 L1189 325 Z M1031 974 L1093 719 L878 719 L1031 974 Z M951 1728 C934 1627 1000 1546 1101 1546 C1212 1546 1299 1627 1316 1728 C1334 1829 1267 1911 1166 1911 C1055 1911 969 1829 951 1728 L951 1728 Z " />
<glyph glyph-name="uni01E1" unicode="&#x1e1;" horiz-adv-x="1457" d="M519 1586 L1409 1586 L1457 1859 L567 1859 L519 1586 Z M1047 1038 L1023 904 C980 1010 851 1068 734 1068 C448 1068 161 920 101 519 C50 178 254 -30 540 -30 C657 -30 801 8 886 124 L864 0 L1392 0 L1440 273 L1281 273 L1368 765 L1527 765 L1575 1038 L1047 1038 Z M663 243 C494 243 442 367 469 519 C496 671 592 795 761 795 C930 795 982 671 955 519 C928 367 832 243 663 243 L663 243 Z M749 1344 C732 1243 798 1162 899 1162 C1010 1162 1097 1243 1114 1344 C1132 1445 1065 1527 964 1527 C853 1527 767 1445 749 1344 L749 1344 Z " />
<glyph glyph-name="uni01E2" unicode="&#x1e2;" horiz-adv-x="2373" d="M1221 1536 L2111 1536 L2159 1809 L1269 1809 L1221 1536 Z M2288 0 L2369 464 L1991 464 L1967 325 L1512 325 L1555 569 L1994 569 L2048 877 L1609 877 L1650 1109 L2089 1109 L2065 970 L2443 970 L2524 1434 L835 1434 L778 1109 L930 1109 L273 325 L142 325 L85 0 L781 0 L838 325 L708 325 L784 416 L1150 416 L1077 0 L2288 0 Z M1248 972 L1204 723 L1040 723 L1248 972 Z " />
<glyph glyph-name="uni01E3" unicode="&#x1e3;" horiz-adv-x="1936" d="M1715 316 C1626 269 1534 243 1421 243 C1228 243 1183 312 1194 375 L1952 375 C2060 779 1941 1068 1517 1068 C1374 1068 1253 1035 1155 980 C1083 1042 965 1068 796 1068 C629 1068 444 1042 303 977 L381 753 C487 794 603 815 702 815 C846 815 885 781 866 672 C530 703 154 620 100 312 C62 102 192 -24 463 -24 C640 -24 782 -3 948 94 C1028 17 1151 -30 1323 -30 C1579 -30 1734 28 1856 115 L1715 316 Z M473 339 C498 481 753 473 833 471 L821 406 C804 308 718 239 575 239 C499 239 461 272 473 339 L473 339 Z M1234 620 C1244 676 1301 795 1469 795 C1636 795 1651 676 1641 620 L1234 620 Z M725 1161 L1615 1161 L1663 1434 L773 1434 L725 1161 Z " />
<glyph glyph-name="uni01E4" unicode="&#x1e4;" horiz-adv-x="1635" d="M1080 1474 C571 1474 247 1167 185 717 C128 306 354 -40 853 -40 C1252 -40 1492 77 1492 77 L1535 320 L1646 320 L1683 528 L1572 528 L1629 855 L991 855 L939 557 L1199 557 L1194 528 L934 528 L897 320 L1157 320 C1157 320 1057 285 891 285 C622 285 533 490 573 717 C613 944 774 1149 1043 1149 C1201 1149 1299 1125 1299 1125 L1272 970 L1650 970 L1719 1363 C1719 1363 1466 1474 1080 1474 L1080 1474 Z " />
<glyph glyph-name="uni01E5" unicode="&#x1e5;" horiz-adv-x="1488" d="M1078 1038 L1054 904 C1011 1010 882 1068 765 1068 C479 1068 192 920 132 519 C81 178 285 -30 571 -30 C688 -30 832 8 917 124 L895 0 C890 -25 884 -48 876 -69 L675 -69 L643 -252 C613 -257 582 -259 548 -259 C404 -259 289 -226 209 -179 L44 -406 C185 -502 359 -532 540 -532 C772 -532 969 -482 1102 -342 L1326 -342 L1374 -69 L1248 -69 C1254 -47 1259 -24 1264 0 L1399 765 L1557 765 L1606 1038 L1078 1038 Z M694 243 C525 243 473 367 500 519 C527 671 623 795 792 795 C961 795 1013 671 986 519 C959 367 863 243 694 243 L694 243 Z " />
<glyph glyph-name="Gcaron" unicode="&#x1e6;" horiz-adv-x="1564" d="M1589 1827 L1291 1827 L1116 1718 L979 1827 L721 1827 L981 1536 L1227 1536 L1589 1827 Z M1080 1474 C571 1474 247 1167 185 717 C128 306 354 -40 853 -40 C1252 -40 1492 77 1492 77 L1629 855 L991 855 L939 557 L1199 557 L1157 320 C1157 320 1057 285 891 285 C622 285 533 490 573 717 C613 944 774 1149 1043 1149 C1201 1149 1299 1125 1299 1125 L1272 970 L1650 970 L1719 1363 C1719 1363 1466 1474 1080 1474 L1080 1474 Z " />
<glyph glyph-name="gcaron" unicode="&#x1e7;" horiz-adv-x="1488" d="M1078 1038 L1054 904 C1011 1010 882 1068 765 1068 C479 1068 192 920 132 519 C81 178 285 -30 571 -30 C688 -30 832 8 917 124 L895 0 C862 -183 744 -259 548 -259 C404 -259 289 -226 209 -179 L44 -406 C185 -502 359 -532 540 -532 C907 -532 1185 -408 1264 0 L1399 765 L1557 765 L1606 1038 L1078 1038 Z M694 243 C525 243 473 367 500 519 C527 671 623 795 792 795 C961 795 1013 671 986 519 C959 367 863 243 694 243 L694 243 Z M728 1143 L974 1143 L1336 1434 L1038 1434 L863 1325 L726 1434 L468 1434 L728 1143 Z " />
<glyph glyph-name="uni01E8" unicode="&#x1e8;" horiz-adv-x="1652" d="M977 1536 L1223 1536 L1585 1827 L1287 1827 L1112 1718 L975 1827 L717 1827 L977 1536 Z M1602 1109 L1762 1109 L1819 1434 L1133 1434 L1076 1109 L1133 1109 L772 855 L817 1109 L976 1109 L1033 1434 L337 1434 L280 1109 L439 1109 L301 325 L142 325 L85 0 L781 0 L838 325 L679 325 L706 478 L863 589 L1132 0 L1567 0 L1624 325 L1465 325 L1214 836 L1602 1109 Z " />
<glyph glyph-name="uni01E9" unicode="&#x1e9;" horiz-adv-x="1426" d="M889 1536 L1135 1536 L1497 1827 L1199 1827 L1024 1718 L887 1827 L629 1827 L889 1536 Z M941 0 L1361 0 L1409 273 L1248 273 L1085 617 L1323 765 L1486 765 L1535 1038 L908 1038 L859 765 L911 765 L704 635 L860 1516 L332 1516 L284 1243 L443 1243 L272 273 L113 273 L65 0 L712 0 L760 273 L641 273 L654 348 L772 421 L941 0 Z " />
<glyph glyph-name="uni01EA" unicode="&#x1ea;" horiz-adv-x="1682" d="M185 717 C129 312 347 -29 831 -39 C788 -70 740 -123 725 -207 C685 -438 900 -518 1111 -518 L1158 -251 C1158 -251 976 -251 996 -141 C1012 -51 1109 -13 1140 -3 C1483 91 1699 359 1749 717 C1806 1128 1579 1474 1080 1474 C571 1474 247 1167 185 717 L185 717 Z M891 285 C622 285 533 490 573 717 C613 944 774 1149 1043 1149 C1312 1149 1401 944 1361 717 C1321 490 1160 285 891 285 L891 285 Z " />
<glyph glyph-name="uni01EB" unicode="&#x1eb;" horiz-adv-x="1349" d="M134 519 C85 215 281 -5 629 -28 C582 -57 523 -112 506 -207 C466 -438 681 -518 892 -518 L939 -251 C939 -251 757 -251 777 -141 C793 -48 897 -10 925 -2 C1182 64 1353 245 1398 519 C1450 841 1229 1068 843 1068 C458 1068 191 871 134 519 L134 519 Z M717 243 C553 243 474 357 503 519 C532 681 651 795 815 795 C980 795 1058 681 1029 519 C1000 357 882 243 717 243 L717 243 Z " />
<glyph glyph-name="uni01EC" unicode="&#x1ec;" horiz-adv-x="1682" d="M1150 0 C1487 96 1700 362 1749 717 C1806 1128 1579 1474 1080 1474 C571 1474 247 1167 185 717 C129 312 347 -29 831 -39 C788 -70 740 -123 725 -207 C685 -438 900 -518 1111 -518 L1158 -251 C1158 -251 976 -251 996 -141 C1012 -51 1109 -13 1140 -3 L1151 0 L1150 0 Z M891 285 C622 285 533 490 573 717 C613 944 774 1149 1043 1149 C1312 1149 1401 944 1361 717 C1321 490 1160 285 891 285 L891 285 Z M666 1536 L1556 1536 L1604 1809 L714 1809 L666 1536 Z " />
<glyph glyph-name="uni01ED" unicode="&#x1ed;" horiz-adv-x="1349" d="M134 519 C85 215 281 -5 629 -28 C582 -57 523 -112 506 -207 C466 -438 681 -518 892 -518 L939 -251 C939 -251 757 -251 777 -141 C793 -48 897 -10 925 -2 C1182 64 1353 245 1398 519 C1450 841 1229 1068 843 1068 C458 1068 191 871 134 519 L134 519 Z M434 1161 L1324 1161 L1372 1434 L482 1434 L434 1161 Z M717 243 C553 243 474 357 503 519 C532 681 651 795 815 795 C980 795 1058 681 1029 519 C1000 357 882 243 717 243 L717 243 Z " />
<glyph glyph-name="uni01F0" unicode="&#x1f0;" horiz-adv-x="753" d="M-240 -483 C-176 -515 -80 -532 -1 -532 C346 -532 473 -368 534 -26 L722 1038 L194 1038 L145 765 L304 765 L165 -26 C143 -148 108 -259 4 -259 C-43 -259 -78 -248 -108 -238 L-240 -483 Z M432 1143 L678 1143 L1040 1434 L742 1434 L567 1325 L430 1434 L172 1434 L432 1143 Z " />
<glyph glyph-name="uni01F4" unicode="&#x1f4;" horiz-adv-x="1564" d="M940 1536 L1270 1536 L1639 1846 L1246 1846 L940 1536 Z M1080 1474 C571 1474 247 1167 185 717 C128 306 354 -40 853 -40 C1252 -40 1492 77 1492 77 L1629 855 L991 855 L939 557 L1199 557 L1157 320 C1157 320 1057 285 891 285 C622 285 533 490 573 717 C613 944 774 1149 1043 1149 C1201 1149 1299 1125 1299 1125 L1272 970 L1650 970 L1719 1363 C1719 1363 1466 1474 1080 1474 L1080 1474 Z " />
<glyph glyph-name="uni01F5" unicode="&#x1f5;" horiz-adv-x="1488" d="M670 1124 L1000 1124 L1368 1434 L975 1434 L670 1124 Z M1078 1038 L1054 904 C1011 1010 882 1068 765 1068 C479 1068 192 920 132 519 C81 178 285 -30 571 -30 C688 -30 832 8 917 124 L895 0 C862 -183 744 -259 548 -259 C404 -259 289 -226 209 -179 L44 -406 C185 -502 359 -532 540 -532 C907 -532 1185 -408 1264 0 L1399 765 L1557 765 L1606 1038 L1078 1038 Z M694 243 C525 243 473 367 500 519 C527 671 623 795 792 795 C961 795 1013 671 986 519 C959 367 863 243 694 243 L694 243 Z " />
<glyph glyph-name="uni01F8" unicode="&#x1f8;" horiz-adv-x="1842" d="M1165 1846 L772 1846 L1031 1536 L1361 1536 L1165 1846 Z M301 325 L142 325 L85 0 L781 0 L838 325 L679 325 L775 872 L1176 0 L1598 0 L1793 1109 L1952 1109 L2009 1434 L1313 1434 L1256 1109 L1415 1109 L1319 562 L918 1434 L337 1434 L280 1109 L439 1109 L301 325 Z " />
<glyph glyph-name="uni01F9" unicode="&#x1f9;" horiz-adv-x="1560" d="M953 1434 L560 1434 L820 1124 L1150 1124 L953 1434 Z M967 0 L1495 0 L1543 273 L1384 273 L1442 602 C1494 900 1343 1068 1070 1068 C959 1068 841 1031 756 926 L776 1038 L248 1038 L199 765 L358 765 L272 273 L113 273 L65 0 L752 0 L800 273 L641 273 L699 602 C721 728 796 795 920 795 C1044 795 1095 728 1073 602 L967 0 Z " />
<glyph glyph-name="Aringacute" unicode="&#x1fa;" horiz-adv-x="1700" d="M1189 325 L1046 325 L989 0 L1675 0 L1732 325 L1580 325 L1301 1434 L611 1434 L554 1109 L713 1109 L234 325 L82 325 L25 0 L731 0 L788 325 L644 325 L695 412 L1167 412 L1189 325 Z M1031 974 L1093 719 L878 719 L1031 974 Z M891 1789 C866 1649 959 1536 1099 1536 C1269 1536 1373 1649 1398 1789 C1411 1862 1391 1928 1350 1975 L1614 2197 L1221 2197 L975 1948 C932 1904 902 1849 891 1789 L891 1789 Z M1073 1789 C1080 1828 1111 1860 1156 1860 C1205 1860 1222 1828 1215 1789 C1208 1750 1176 1718 1131 1718 C1082 1718 1066 1750 1073 1789 L1073 1789 Z " />
<glyph glyph-name="aringacute" unicode="&#x1fb;" horiz-adv-x="1457" d="M1047 1038 L1023 904 C980 1010 851 1068 734 1068 C448 1068 161 920 101 519 C50 178 254 -30 540 -30 C657 -30 801 8 886 124 L864 0 L1392 0 L1440 273 L1281 273 L1368 765 L1527 765 L1575 1038 L1047 1038 Z M663 243 C494 243 442 367 469 519 C496 671 592 795 761 795 C930 795 982 671 955 519 C928 367 832 243 663 243 L663 243 Z M643 1377 C618 1237 711 1124 851 1124 C1021 1124 1125 1237 1150 1377 C1163 1450 1143 1516 1102 1563 L1366 1785 L973 1785 L727 1536 C684 1492 654 1437 643 1377 L643 1377 Z M825 1377 C832 1416 863 1448 908 1448 C957 1448 974 1416 967 1377 C960 1338 928 1306 883 1306 C834 1306 818 1338 825 1377 L825 1377 Z " />
<glyph glyph-name="AEacute" unicode="&#x1fc;" horiz-adv-x="2373" d="M1281 1536 L1611 1536 L1980 1846 L1587 1846 L1281 1536 Z M2288 0 L2369 464 L1991 464 L1967 325 L1512 325 L1555 569 L1994 569 L2048 877 L1609 877 L1650 1109 L2089 1109 L2065 970 L2443 970 L2524 1434 L835 1434 L778 1109 L930 1109 L273 325 L142 325 L85 0 L781 0 L838 325 L708 325 L784 416 L1150 416 L1077 0 L2288 0 Z M1248 972 L1204 723 L1040 723 L1248 972 Z " />
<glyph glyph-name="aeacute" unicode="&#x1fd;" horiz-adv-x="1936" d="M1715 316 C1626 269 1534 243 1421 243 C1228 243 1183 312 1194 375 L1952 375 C2060 779 1941 1068 1517 1068 C1374 1068 1253 1035 1155 980 C1083 1042 965 1068 796 1068 C629 1068 444 1042 303 977 L381 753 C487 794 603 815 702 815 C846 815 885 781 866 672 C530 703 154 620 100 312 C62 102 192 -24 463 -24 C640 -24 782 -3 948 94 C1028 17 1151 -30 1323 -30 C1579 -30 1734 28 1856 115 L1715 316 Z M473 339 C498 481 753 473 833 471 L821 406 C804 308 718 239 575 239 C499 239 461 272 473 339 L473 339 Z M1234 620 C1244 676 1301 795 1469 795 C1636 795 1651 676 1641 620 L1234 620 Z M998 1124 L1328 1124 L1696 1434 L1303 1434 L998 1124 Z " />
<glyph glyph-name="Oslashacute" unicode="&#x1fe;" horiz-adv-x="1682" d="M945 1536 L1275 1536 L1643 1846 L1250 1846 L945 1536 Z M853 -40 C1362 -40 1687 267 1749 717 C1786 982 1704 1220 1507 1356 L1600 1495 L1370 1495 L1332 1439 C1258 1461 1174 1474 1080 1474 C571 1474 247 1167 185 717 C148 451 229 213 426 77 L334 -61 L564 -61 L601 -5 C675 -27 759 -40 853 -40 L853 -40 Z M573 717 C613 944 774 1149 1043 1149 C1076 1149 1106 1146 1133 1140 L634 390 C568 471 551 591 573 717 L573 717 Z M891 285 C858 285 828 288 800 294 L1299 1043 C1365 962 1383 843 1361 717 C1321 490 1160 285 891 285 L891 285 Z " />
<glyph glyph-name="oslashacute" unicode="&#x1ff;" horiz-adv-x="1344" d="M742 1124 L1072 1124 L1440 1434 L1047 1434 L742 1124 Z M709 -30 C1095 -30 1361 168 1418 519 C1452 730 1369 900 1198 992 L1270 1099 L1078 1099 L1044 1049 C989 1061 928 1068 863 1068 C478 1068 211 871 154 519 C120 308 203 138 373 46 L302 -61 L494 -61 L527 -11 C583 -23 643 -30 709 -30 L709 -30 Z M737 243 C724 243 711 244 699 245 L1015 718 C1051 669 1063 600 1049 519 C1020 357 902 243 737 243 L737 243 Z M523 519 C552 681 671 795 835 795 C848 795 861 794 873 792 L557 321 C521 369 508 438 523 519 L523 519 Z " />
<glyph glyph-name="uni0200" unicode="&#x200;" horiz-adv-x="1700" d="M829 1846 L436 1846 L695 1536 L1025 1536 L829 1846 Z M1283 1846 L890 1846 L1149 1536 L1479 1536 L1283 1846 Z M1189 325 L1046 325 L989 0 L1675 0 L1732 325 L1580 325 L1301 1434 L611 1434 L554 1109 L713 1109 L234 325 L82 325 L25 0 L731 0 L788 325 L644 325 L695 412 L1167 412 L1189 325 Z M1031 974 L1093 719 L878 719 L1031 974 Z " />
<glyph glyph-name="uni0201" unicode="&#x201;" horiz-adv-x="1457" d="M648 1434 L255 1434 L515 1124 L845 1124 L648 1434 Z M1102 1434 L709 1434 L969 1124 L1299 1124 L1102 1434 Z M1047 1038 L1023 904 C980 1010 851 1068 734 1068 C448 1068 161 920 101 519 C50 178 254 -30 540 -30 C657 -30 801 8 886 124 L864 0 L1392 0 L1440 273 L1281 273 L1368 765 L1527 765 L1575 1038 L1047 1038 Z M663 243 C494 243 442 367 469 519 C496 671 592 795 761 795 C930 795 982 671 955 519 C928 367 832 243 663 243 L663 243 Z " />
<glyph glyph-name="uni0202" unicode="&#x202;" horiz-adv-x="1700" d="M1189 325 L1046 325 L989 0 L1675 0 L1732 325 L1580 325 L1301 1434 L611 1434 L554 1109 L713 1109 L234 325 L82 325 L25 0 L731 0 L788 325 L644 325 L695 412 L1167 412 L1189 325 Z M1031 974 L1093 719 L878 719 L1031 974 Z M1132 1822 C834 1822 726 1629 688 1536 L920 1536 C966 1605 1025 1634 1099 1634 C1183 1634 1234 1605 1264 1536 L1476 1536 C1470 1639 1390 1822 1132 1822 L1132 1822 Z " />
<glyph glyph-name="uni0203" unicode="&#x203;" horiz-adv-x="1457" d="M1047 1038 L1023 904 C980 1010 851 1068 734 1068 C448 1068 161 920 101 519 C50 178 254 -30 540 -30 C657 -30 801 8 886 124 L864 0 L1392 0 L1440 273 L1281 273 L1368 765 L1527 765 L1575 1038 L1047 1038 Z M663 243 C494 243 442 367 469 519 C496 671 592 795 761 795 C930 795 982 671 955 519 C928 367 832 243 663 243 L663 243 Z M907 1434 C609 1434 501 1241 463 1148 L695 1148 C741 1217 800 1246 874 1246 C958 1246 1009 1217 1039 1148 L1251 1148 C1245 1251 1165 1434 907 1434 L907 1434 Z " />
<glyph glyph-name="uni0204" unicode="&#x204;" horiz-adv-x="1554" d="M99 0 L1469 0 L1550 464 L1172 464 L1148 325 L693 325 L736 569 L1175 569 L1229 877 L790 877 L831 1109 L1270 1109 L1246 970 L1624 970 L1705 1434 L351 1434 L294 1109 L453 1109 L315 325 L156 325 L99 0 Z M803 1846 L410 1846 L669 1536 L999 1536 L803 1846 Z M1257 1846 L864 1846 L1123 1536 L1453 1536 L1257 1846 Z " />
<glyph glyph-name="uni0205" unicode="&#x205;" horiz-adv-x="1346" d="M1134 312 C1049 272 949 243 838 243 C645 243 600 312 611 375 L1369 375 C1467 769 1328 1068 914 1068 C502 1068 309 830 258 519 C210 228 338 -30 760 -30 C1016 -30 1172 30 1279 96 L1134 312 Z M651 620 C661 676 718 795 886 795 C1053 795 1068 676 1058 620 L651 620 Z M661 1434 L288 1434 L548 1124 L858 1124 L661 1434 Z M1079 1434 L706 1434 L966 1124 L1276 1124 L1079 1434 Z " />
<glyph glyph-name="uni0206" unicode="&#x206;" horiz-adv-x="1540" d="M85 0 L1455 0 L1536 464 L1158 464 L1134 325 L679 325 L722 569 L1161 569 L1215 877 L776 877 L817 1109 L1256 1109 L1232 970 L1610 970 L1691 1434 L337 1434 L280 1109 L439 1109 L301 325 L142 325 L85 0 Z M1090 1822 C792 1822 684 1629 646 1536 L878 1536 C924 1605 983 1634 1057 1634 C1141 1634 1192 1605 1222 1536 L1434 1536 C1428 1639 1348 1822 1090 1822 L1090 1822 Z " />
<glyph glyph-name="uni0207" unicode="&#x207;" horiz-adv-x="1223" d="M1011 312 C926 272 826 243 715 243 C522 243 477 312 488 375 L1246 375 C1344 769 1205 1068 791 1068 C379 1068 186 830 135 519 C87 228 215 -30 637 -30 C893 -30 1049 30 1156 96 L1011 312 Z M528 620 C538 676 595 795 763 795 C930 795 945 676 935 620 L528 620 Z M848 1434 C550 1434 442 1241 404 1148 L636 1148 C682 1217 741 1246 815 1246 C899 1246 950 1217 980 1148 L1192 1148 C1186 1251 1106 1434 848 1434 L848 1434 Z " />
<glyph glyph-name="uni0208" unicode="&#x208;" horiz-adv-x="1101" d="M592 1109 L454 325 L295 325 L238 0 L934 0 L991 325 L832 325 L970 1109 L1129 1109 L1186 1434 L490 1434 L433 1109 L592 1109 Z M592 1846 L199 1846 L458 1536 L788 1536 L592 1846 Z M1046 1846 L653 1846 L912 1536 L1242 1536 L1046 1846 Z " />
<glyph glyph-name="uni0209" unicode="&#x209;" horiz-adv-x="973" d="M926 1038 L398 1038 L349 765 L508 765 L422 273 L263 273 L215 0 L902 0 L950 273 L791 273 L926 1038 Z M477 1434 L84 1434 L344 1124 L674 1124 L477 1434 Z M931 1434 L538 1434 L798 1124 L1128 1124 L931 1434 Z " />
<glyph glyph-name="uni020A" unicode="&#x20a;" horiz-adv-x="875" d="M445 1109 L307 325 L148 325 L91 0 L787 0 L844 325 L685 325 L823 1109 L982 1109 L1039 1434 L343 1434 L286 1109 L445 1109 Z M757 1822 C459 1822 351 1629 313 1536 L545 1536 C591 1605 650 1634 724 1634 C808 1634 859 1605 889 1536 L1101 1536 C1095 1639 1015 1822 757 1822 L757 1822 Z " />
<glyph glyph-name="uni020B" unicode="&#x20b;" horiz-adv-x="828" d="M787 1038 L259 1038 L210 765 L369 765 L283 273 L124 273 L76 0 L763 0 L811 273 L652 273 L787 1038 Z M661 1434 C363 1434 255 1241 217 1148 L449 1148 C495 1217 554 1246 628 1246 C712 1246 763 1217 793 1148 L1005 1148 C999 1251 919 1434 661 1434 L661 1434 Z " />
<glyph glyph-name="uni020C" unicode="&#x20c;" horiz-adv-x="1682" d="M853 -40 C1362 -40 1687 267 1749 717 C1806 1128 1579 1474 1080 1474 C571 1474 247 1167 185 717 C128 306 354 -40 853 -40 L853 -40 Z M891 285 C622 285 533 490 573 717 C613 944 774 1149 1043 1149 C1312 1149 1401 944 1361 717 C1321 490 1160 285 891 285 L891 285 Z M858 1846 L485 1846 L745 1536 L1055 1536 L858 1846 Z M1276 1846 L903 1846 L1163 1536 L1473 1536 L1276 1846 Z " />
<glyph glyph-name="uni020D" unicode="&#x20d;" horiz-adv-x="1420" d="M760 -30 C1146 -30 1412 168 1469 519 C1521 841 1300 1068 914 1068 C529 1068 262 871 205 519 C153 198 375 -30 760 -30 L760 -30 Z M788 243 C624 243 545 357 574 519 C603 681 722 795 886 795 C1051 795 1129 681 1100 519 C1071 357 953 243 788 243 L788 243 Z M660 1434 L287 1434 L547 1124 L857 1124 L660 1434 Z M1078 1434 L705 1434 L965 1124 L1275 1124 L1078 1434 Z " />
<glyph glyph-name="uni020E" unicode="&#x20e;" horiz-adv-x="1682" d="M853 -40 C1362 -40 1687 267 1749 717 C1806 1128 1579 1474 1080 1474 C571 1474 247 1167 185 717 C128 306 354 -40 853 -40 L853 -40 Z M891 285 C622 285 533 490 573 717 C613 944 774 1149 1043 1149 C1312 1149 1401 944 1361 717 C1321 490 1160 285 891 285 L891 285 Z M1163 1821 C865 1821 757 1628 719 1535 L951 1535 C997 1604 1056 1633 1130 1633 C1214 1633 1265 1604 1295 1535 L1507 1535 C1501 1638 1421 1821 1163 1821 L1163 1821 Z " />
<glyph glyph-name="uni020F" unicode="&#x20f;" horiz-adv-x="1348" d="M688 -30 C1074 -30 1340 168 1397 519 C1449 841 1228 1068 842 1068 C457 1068 190 871 133 519 C81 198 303 -30 688 -30 L688 -30 Z M716 243 C552 243 473 357 502 519 C531 681 650 795 814 795 C979 795 1057 681 1028 519 C999 357 881 243 716 243 L716 243 Z M928 1435 C630 1435 522 1242 484 1149 L716 1149 C762 1218 821 1247 895 1247 C979 1247 1030 1218 1060 1149 L1272 1149 C1266 1252 1186 1435 928 1435 L928 1435 Z " />
<glyph glyph-name="uni0210" unicode="&#x210;" horiz-adv-x="1598" d="M797 1846 L404 1846 L663 1536 L993 1536 L797 1846 Z M1251 1846 L858 1846 L1117 1536 L1447 1536 L1251 1846 Z M473 1109 L335 325 L176 325 L119 0 L815 0 L872 325 L713 325 L748 522 L910 522 L1111 0 L1533 0 L1590 325 L1431 325 L1320 581 C1458 618 1649 724 1691 962 C1752 1309 1534 1434 1157 1434 L371 1434 L314 1109 L473 1109 Z M1100 1109 C1255 1109 1325 1084 1303 962 C1282 840 1203 815 1048 815 L799 815 L851 1109 L1100 1109 Z " />
<glyph glyph-name="uni0211" unicode="&#x211;" horiz-adv-x="1293" d="M1476 1013 C1414 1049 1337 1068 1245 1068 C1134 1068 1016 1031 931 926 L951 1038 L423 1038 L374 765 L533 765 L447 273 L288 273 L240 0 L927 0 L975 273 L816 273 L874 602 C896 728 971 795 1095 795 C1163 795 1231 775 1268 748 L1476 1013 Z M710 1434 L317 1434 L577 1124 L907 1124 L710 1434 Z M1164 1434 L771 1434 L1031 1124 L1361 1124 L1164 1434 Z " />
<glyph glyph-name="uni0212" unicode="&#x212;" horiz-adv-x="1564" d="M1087 1822 C789 1822 681 1629 643 1536 L875 1536 C921 1605 980 1634 1054 1634 C1138 1634 1189 1605 1219 1536 L1431 1536 C1425 1639 1345 1822 1087 1822 L1087 1822 Z M439 1109 L301 325 L142 325 L85 0 L781 0 L838 325 L679 325 L714 522 L876 522 L1077 0 L1499 0 L1556 325 L1397 325 L1286 581 C1424 618 1615 724 1657 962 C1718 1309 1500 1434 1123 1434 L337 1434 L280 1109 L439 1109 Z M1066 1109 C1221 1109 1291 1084 1269 962 C1248 840 1169 815 1014 815 L765 815 L817 1109 L1066 1109 Z " />
<glyph glyph-name="uni0213" unicode="&#x213;" horiz-adv-x="1118" d="M1301 1013 C1239 1049 1162 1068 1070 1068 C959 1068 841 1031 756 926 L776 1038 L248 1038 L199 765 L358 765 L272 273 L113 273 L65 0 L752 0 L800 273 L641 273 L699 602 C721 728 796 795 920 795 C988 795 1056 775 1093 748 L1301 1013 Z M852 1434 C554 1434 446 1241 408 1148 L640 1148 C686 1217 745 1246 819 1246 C903 1246 954 1217 984 1148 L1196 1148 C1190 1251 1110 1434 852 1434 L852 1434 Z " />
<glyph glyph-name="uni0214" unicode="&#x214;" horiz-adv-x="1809" d="M915 1846 L522 1846 L781 1536 L1111 1536 L915 1846 Z M1369 1846 L976 1846 L1235 1536 L1565 1536 L1369 1846 Z M1760 1109 L1919 1109 L1976 1434 L1280 1434 L1223 1109 L1382 1109 L1302 656 C1258 405 1160 285 955 285 C749 285 693 405 737 656 L817 1109 L976 1109 L1033 1434 L337 1434 L280 1109 L439 1109 L359 656 C285 234 476 -40 907 -40 C1446 -40 1606 234 1680 656 L1760 1109 Z " />
<glyph glyph-name="uni0215" unicode="&#x215;" horiz-adv-x="1597" d="M1556 1038 L1028 1038 L979 765 L1138 765 L1080 436 C1058 310 983 243 859 243 C735 243 684 310 706 436 L813 1038 L285 1038 L236 765 L395 765 L337 436 C285 138 436 -30 709 -30 C820 -30 938 7 1023 112 L1004 0 L1532 0 L1580 273 L1421 273 L1556 1038 Z M710 1434 L317 1434 L577 1124 L907 1124 L710 1434 Z M1164 1434 L771 1434 L1031 1124 L1361 1124 L1164 1434 Z " />
<glyph glyph-name="uni0216" unicode="&#x216;" horiz-adv-x="1809" d="M1760 1109 L1919 1109 L1976 1434 L1280 1434 L1223 1109 L1382 1109 L1302 656 C1258 405 1160 285 955 285 C749 285 693 405 737 656 L817 1109 L976 1109 L1033 1434 L337 1434 L280 1109 L439 1109 L359 656 C285 234 476 -40 907 -40 C1446 -40 1606 234 1680 656 L1760 1109 Z M1211 1822 C913 1822 805 1629 767 1536 L999 1536 C1045 1605 1104 1634 1178 1634 C1262 1634 1313 1605 1343 1536 L1555 1536 C1549 1639 1469 1822 1211 1822 L1211 1822 Z " />
<glyph glyph-name="uni0217" unicode="&#x217;" horiz-adv-x="1560" d="M1519 1038 L991 1038 L942 765 L1101 765 L1043 436 C1021 310 946 243 822 243 C698 243 647 310 669 436 L776 1038 L248 1038 L199 765 L358 765 L300 436 C248 138 399 -30 672 -30 C783 -30 901 7 986 112 L967 0 L1495 0 L1543 273 L1384 273 L1519 1038 Z M1027 1434 C729 1434 621 1241 583 1148 L815 1148 C861 1217 920 1246 994 1246 C1078 1246 1129 1217 1159 1148 L1371 1148 C1365 1251 1285 1434 1027 1434 L1027 1434 Z " />
<glyph glyph-name="Scommaaccent" unicode="&#x218;" horiz-adv-x="1456" d="M298 -532 L599 -532 L864 -108 L525 -108 L298 -532 Z M1487 970 L1555 1361 C1555 1361 1302 1474 966 1474 C579 1474 350 1297 320 1021 C295 793 438 644 785 564 C948 530 1043 514 1026 419 C1007 307 863 285 737 285 C666 285 599 293 537 308 L566 473 L188 473 L127 127 C262 17 483 -40 699 -40 C1035 -40 1360 63 1404 419 C1436 681 1264 799 913 879 C761 914 682 934 699 1031 C714 1116 821 1149 929 1149 C986 1149 1057 1144 1136 1125 L1109 970 L1487 970 Z " />
<glyph glyph-name="scommaaccent" unicode="&#x219;" horiz-adv-x="1142" d="M146 -532 L447 -532 L712 -108 L373 -108 L146 -532 Z M712 1068 C405 1068 224 956 195 742 C167 536 317 450 603 401 C696 385 774 378 764 322 C753 260 714 243 566 243 C535 243 495 248 478 253 L493 336 L124 336 L81 93 C192 -10 401 -30 548 -30 C804 -30 1088 8 1130 302 C1164 541 983 593 700 655 C632 670 553 680 563 732 C571 779 625 795 714 795 C746 795 772 793 798 789 L783 706 L1152 706 L1202 987 C1202 987 1008 1068 712 1068 L712 1068 Z " />
<glyph glyph-name="uni021A" unicode="&#x21a;" horiz-adv-x="1612" d="M387 -532 L688 -532 L953 -108 L614 -108 L387 -532 Z M812 1109 L674 325 L515 325 L458 0 L1154 0 L1211 325 L1052 325 L1190 1109 L1344 1109 L1320 970 L1698 970 L1779 1434 L337 1434 L256 970 L634 970 L658 1109 L812 1109 Z " />
<glyph glyph-name="uni021B" unicode="&#x21b;" horiz-adv-x="931" d="M182 -532 L483 -532 L748 -108 L409 -108 L182 -532 Z M159 765 L346 765 L289 436 C235 133 310 -30 639 -30 C750 -30 844 -14 912 13 L878 264 C835 251 785 243 740 243 C641 243 636 314 664 471 L715 765 L994 765 L1043 1038 L764 1038 L816 1337 L447 1337 L395 1038 L208 1038 L159 765 Z " />
<glyph glyph-name="uni021E" unicode="&#x21e;" horiz-adv-x="1823" d="M1358 894 L779 894 L817 1109 L976 1109 L1033 1434 L337 1434 L280 1109 L439 1109 L301 325 L142 325 L85 0 L781 0 L838 325 L679 325 L722 569 L1301 569 L1258 325 L1099 325 L1042 0 L1738 0 L1795 325 L1636 325 L1774 1109 L1933 1109 L1990 1434 L1294 1434 L1237 1109 L1396 1109 L1358 894 Z M1665 1827 L1367 1827 L1192 1718 L1055 1827 L797 1827 L1057 1536 L1303 1536 L1665 1827 Z " />
<glyph glyph-name="uni021F" unicode="&#x21f;" horiz-adv-x="1560" d="M967 0 L1495 0 L1543 273 L1384 273 L1442 602 C1494 900 1343 1068 1070 1068 C959 1068 841 1031 756 926 L860 1516 L332 1516 L284 1243 L443 1243 L272 273 L113 273 L65 0 L752 0 L800 273 L641 273 L699 602 C721 728 796 795 920 795 C1044 795 1095 728 1073 602 L967 0 Z M927 1536 L1173 1536 L1535 1827 L1237 1827 L1062 1718 L925 1827 L667 1827 L927 1536 Z " />
<glyph glyph-name="uni0224" unicode="&#x224;" horiz-adv-x="1475" d="M1590 1434 L357 1434 L276 970 L654 970 L678 1109 L963 1109 L115 172 L85 0 L1094 0 C1087 -2 940 -48 912 -207 C872 -438 1087 -518 1298 -518 L1345 -251 C1345 -251 1163 -251 1183 -141 C1201 -36 1331 -1 1338 0 L1419 464 L1041 464 L1017 325 L711 325 L1560 1262 L1590 1434 Z " />
<glyph glyph-name="uni0225" unicode="&#x225;" horiz-adv-x="1204" d="M65 0 L843 0 C836 -2 689 -48 661 -207 C621 -438 836 -518 1047 -518 L1094 -251 C1094 -251 912 -251 932 -141 C950 -36 1080 -1 1087 0 L1153 376 L804 376 L786 273 L624 273 L1242 881 L1270 1038 L266 1038 L199 662 L548 662 L566 765 L710 765 L92 156 L65 0 Z " />
<glyph glyph-name="uni0226" unicode="&#x226;" horiz-adv-x="1700" d="M1189 325 L1046 325 L989 0 L1675 0 L1732 325 L1580 325 L1301 1434 L611 1434 L554 1109 L713 1109 L234 325 L82 325 L25 0 L731 0 L788 325 L644 325 L695 412 L1167 412 L1189 325 Z M1031 974 L1093 719 L878 719 L1031 974 Z M951 1728 C934 1627 1000 1546 1101 1546 C1212 1546 1299 1627 1316 1728 C1334 1829 1267 1911 1166 1911 C1055 1911 969 1829 951 1728 L951 1728 Z " />
<glyph glyph-name="uni0227" unicode="&#x227;" horiz-adv-x="1457" d="M1047 1038 L1023 904 C980 1010 851 1068 734 1068 C448 1068 161 920 101 519 C50 178 254 -30 540 -30 C657 -30 801 8 886 124 L864 0 L1392 0 L1440 273 L1281 273 L1368 765 L1527 765 L1575 1038 L1047 1038 Z M663 243 C494 243 442 367 469 519 C496 671 592 795 761 795 C930 795 982 671 955 519 C928 367 832 243 663 243 L663 243 Z M749 1344 C732 1243 798 1162 899 1162 C1010 1162 1097 1243 1114 1344 C1132 1445 1065 1527 964 1527 C853 1527 767 1445 749 1344 L749 1344 Z " />
<glyph glyph-name="uni0228" unicode="&#x228;" horiz-adv-x="1540" d="M85 0 L654 0 L524 -278 C642 -266 845 -234 824 -324 C798 -434 562 -381 495 -358 L426 -517 C655 -605 1003 -594 1045 -331 C1067 -196 972 -118 826 -117 L884 0 L1455 0 L1536 464 L1158 464 L1134 325 L679 325 L722 569 L1161 569 L1215 877 L776 877 L817 1109 L1256 1109 L1232 970 L1610 970 L1691 1434 L337 1434 L280 1109 L439 1109 L301 325 L142 325 L85 0 Z " />
<glyph glyph-name="uni0229" unicode="&#x229;" horiz-adv-x="1223" d="M1011 312 C926 272 826 243 715 243 C522 243 477 312 488 375 L1246 375 C1344 769 1205 1068 791 1068 C379 1068 186 830 135 519 C91 256 191 21 521 -22 L402 -278 C520 -266 723 -234 702 -324 C676 -434 440 -381 373 -358 L304 -517 C533 -605 881 -594 923 -331 C945 -196 850 -118 704 -117 L749 -26 C940 -11 1065 40 1156 96 L1011 312 Z M528 620 C538 676 595 795 763 795 C930 795 945 676 935 620 L528 620 Z " />
<glyph glyph-name="uni022A" unicode="&#x22a;" horiz-adv-x="1682" d="M853 -40 C1362 -40 1687 267 1749 717 C1806 1128 1579 1474 1080 1474 C571 1474 247 1167 185 717 C128 306 354 -40 853 -40 L853 -40 Z M891 285 C622 285 533 490 573 717 C613 944 774 1149 1043 1149 C1312 1149 1401 944 1361 717 C1321 490 1160 285 891 285 L891 285 Z M1201 1728 C1184 1627 1250 1546 1351 1546 C1462 1546 1549 1627 1566 1728 C1584 1829 1517 1911 1416 1911 C1305 1911 1219 1829 1201 1728 L1201 1728 Z M740 1728 C723 1627 789 1546 890 1546 C1001 1546 1088 1627 1105 1728 C1123 1829 1056 1911 955 1911 C844 1911 758 1829 740 1728 L740 1728 Z M742 1970 L1632 1970 L1680 2243 L790 2243 L742 1970 Z " />
<glyph glyph-name="uni022B" unicode="&#x22b;" horiz-adv-x="1350" d="M688 -30 C1074 -30 1340 168 1397 519 C1449 841 1228 1068 842 1068 C457 1068 190 871 133 519 C81 198 303 -30 688 -30 L688 -30 Z M716 243 C552 243 473 357 502 519 C531 681 650 795 814 795 C979 795 1057 681 1028 519 C999 357 881 243 716 243 L716 243 Z M968 1344 C951 1243 1017 1162 1118 1162 C1229 1162 1316 1243 1333 1344 C1351 1445 1284 1527 1183 1527 C1072 1527 986 1445 968 1344 L968 1344 Z M507 1344 C490 1243 556 1162 657 1162 C768 1162 855 1243 872 1344 C890 1445 823 1527 722 1527 C611 1527 525 1445 507 1344 L507 1344 Z M508 1586 L1398 1586 L1446 1859 L556 1859 L508 1586 Z " />
<glyph glyph-name="uni022C" unicode="&#x22c;" horiz-adv-x="1682" d="M853 -40 C1362 -40 1687 267 1749 717 C1806 1128 1579 1474 1080 1474 C571 1474 247 1167 185 717 C128 306 354 -40 853 -40 L853 -40 Z M891 285 C622 285 533 490 573 717 C613 944 774 1149 1043 1149 C1312 1149 1401 944 1361 717 C1321 490 1160 285 891 285 L891 285 Z M1092 1590 C1121 1561 1157 1536 1238 1536 C1542 1536 1587 1845 1587 1845 L1362 1845 C1362 1845 1340 1767 1273 1767 C1226 1767 1212 1790 1188 1813 C1160 1842 1124 1867 1043 1867 C739 1867 693 1558 693 1558 L918 1558 C918 1558 940 1636 1007 1636 C1054 1636 1068 1613 1092 1590 L1092 1590 Z M733 1917 L1623 1917 L1671 2190 L781 2190 L733 1917 Z " />
<glyph glyph-name="uni022D" unicode="&#x22d;" horiz-adv-x="1357" d="M688 -30 C1074 -30 1340 168 1397 519 C1449 841 1228 1068 842 1068 C457 1068 190 871 133 519 C81 198 303 -30 688 -30 L688 -30 Z M716 243 C552 243 473 357 502 519 C531 681 650 795 814 795 C979 795 1057 681 1028 519 C999 357 881 243 716 243 L716 243 Z M860 1217 C889 1188 925 1163 1006 1163 C1310 1163 1355 1472 1355 1472 L1130 1472 C1130 1472 1108 1394 1041 1394 C994 1394 980 1417 956 1440 C928 1469 892 1494 811 1494 C507 1494 461 1185 461 1185 L686 1185 C686 1185 708 1263 775 1263 C822 1263 836 1240 860 1217 L860 1217 Z M507 1586 L1397 1586 L1445 1859 L555 1859 L507 1586 Z " />
<glyph glyph-name="uni022E" unicode="&#x22e;" horiz-adv-x="1682" d="M853 -40 C1362 -40 1687 267 1749 717 C1806 1128 1579 1474 1080 1474 C571 1474 247 1167 185 717 C128 306 354 -40 853 -40 L853 -40 Z M891 285 C622 285 533 490 573 717 C613 944 774 1149 1043 1149 C1312 1149 1401 944 1361 717 C1321 490 1160 285 891 285 L891 285 Z M962 1728 C945 1627 1011 1546 1112 1546 C1223 1546 1310 1627 1327 1728 C1345 1829 1278 1911 1177 1911 C1066 1911 980 1829 962 1728 L962 1728 Z " />
<glyph glyph-name="uni022F" unicode="&#x22f;" horiz-adv-x="1348" d="M688 -30 C1074 -30 1340 168 1397 519 C1449 841 1228 1068 842 1068 C457 1068 190 871 133 519 C81 198 303 -30 688 -30 L688 -30 Z M716 243 C552 243 473 357 502 519 C531 681 650 795 814 795 C979 795 1057 681 1028 519 C999 357 881 243 716 243 L716 243 Z M728 1344 C711 1243 777 1162 878 1162 C989 1162 1076 1243 1093 1344 C1111 1445 1044 1527 943 1527 C832 1527 746 1445 728 1344 L728 1344 Z " />
<glyph glyph-name="uni0230" unicode="&#x230;" horiz-adv-x="1682" d="M853 -40 C1362 -40 1687 267 1749 717 C1806 1128 1579 1474 1080 1474 C571 1474 247 1167 185 717 C128 306 354 -40 853 -40 L853 -40 Z M891 285 C622 285 533 490 573 717 C613 944 774 1149 1043 1149 C1312 1149 1401 944 1361 717 C1321 490 1160 285 891 285 L891 285 Z M962 1728 C945 1627 1011 1546 1112 1546 C1223 1546 1310 1627 1327 1728 C1345 1829 1278 1911 1177 1911 C1066 1911 980 1829 962 1728 L962 1728 Z M742 1970 L1632 1970 L1680 2243 L790 2243 L742 1970 Z " />
<glyph glyph-name="uni0231" unicode="&#x231;" horiz-adv-x="1350" d="M688 -30 C1074 -30 1340 168 1397 519 C1449 841 1228 1068 842 1068 C457 1068 190 871 133 519 C81 198 303 -30 688 -30 L688 -30 Z M716 243 C552 243 473 357 502 519 C531 681 650 795 814 795 C979 795 1057 681 1028 519 C999 357 881 243 716 243 L716 243 Z M728 1344 C711 1243 777 1162 878 1162 C989 1162 1076 1243 1093 1344 C1111 1445 1044 1527 943 1527 C832 1527 746 1445 728 1344 L728 1344 Z M507 1586 L1397 1586 L1445 1859 L555 1859 L507 1586 Z " />
<glyph glyph-name="uni0232" unicode="&#x232;" horiz-adv-x="1584" d="M607 1536 L1497 1536 L1545 1809 L655 1809 L607 1536 Z M688 483 L660 325 L501 325 L444 0 L1140 0 L1197 325 L1038 325 L1066 483 L1611 1109 L1754 1109 L1811 1434 L1125 1434 L1068 1109 L1167 1109 L921 824 L775 1109 L866 1109 L923 1434 L277 1434 L220 1109 L363 1109 L688 483 Z " />
<glyph glyph-name="uni0233" unicode="&#x233;" horiz-adv-x="1424" d="M461 1161 L1351 1161 L1399 1434 L509 1434 L461 1161 Z M1332 765 L1493 765 L1542 1038 L929 1038 L880 765 L956 765 L774 425 L711 765 L780 765 L829 1038 L248 1038 L199 765 L360 765 L542 0 L456 -145 C409 -222 375 -259 258 -259 L126 -259 L78 -532 L252 -532 C532 -532 626 -427 713 -285 L882 0 L1332 765 Z " />
<glyph glyph-name="uni0238" unicode="&#x238;" horiz-adv-x="2160" d="M1054 904 C1011 1010 882 1068 765 1068 C479 1068 192 920 132 519 C81 178 285 -30 571 -30 C688 -30 832 8 917 124 L895 0 L1264 0 L1290 148 C1333 32 1449 -30 1576 -30 C1862 -30 2149 128 2209 519 C2261 860 2056 1068 1770 1068 C1653 1068 1508 1023 1423 907 L1483 1243 L1642 1243 L1690 1516 L1003 1516 L955 1243 L1114 1243 L1054 904 Z M1549 243 C1380 243 1328 367 1355 519 C1382 671 1478 795 1647 795 C1816 795 1868 671 1841 519 C1814 367 1718 243 1549 243 L1549 243 Z M694 243 C525 243 473 367 500 519 C527 671 623 795 792 795 C961 795 1013 671 986 519 C959 367 863 243 694 243 L694 243 Z " />
<glyph glyph-name="uni0239" unicode="&#x239;" horiz-adv-x="2160" d="M1078 1038 L1054 904 C1011 1010 882 1068 765 1068 C479 1068 192 920 132 519 C81 178 285 -30 571 -30 C688 -30 832 8 917 124 L848 -259 L689 -259 L641 -532 L1328 -532 L1376 -259 L1217 -259 L1290 148 C1333 32 1449 -30 1576 -30 C1862 -30 2149 128 2209 519 C2261 860 2056 1068 1770 1068 C1653 1068 1508 1023 1423 907 L1446 1038 L1078 1038 Z M1549 243 C1380 243 1328 367 1355 519 C1382 671 1478 795 1647 795 C1816 795 1868 671 1841 519 C1814 367 1718 243 1549 243 L1549 243 Z M694 243 C525 243 473 367 500 519 C527 671 623 795 792 795 C961 795 1013 671 986 519 C959 367 863 243 694 243 L694 243 Z " />
<glyph glyph-name="uni024C" unicode="&#x24c;" horiz-adv-x="1653" d="M528 1109 L476 815 L221 815 L169 522 L424 522 L390 325 L231 325 L174 0 L870 0 L927 325 L768 325 L803 522 L965 522 L1166 0 L1588 0 L1645 325 L1486 325 L1375 581 C1513 618 1704 724 1746 962 C1807 1309 1589 1434 1212 1434 L426 1434 L369 1109 L528 1109 Z M1155 1109 C1310 1109 1380 1084 1358 962 C1337 840 1258 815 1103 815 L854 815 L906 1109 L1155 1109 Z " />
<glyph glyph-name="uni024D" unicode="&#x24d;" horiz-adv-x="1189" d="M1372 1013 C1310 1049 1233 1068 1141 1068 C1030 1068 912 1031 827 926 L847 1038 L319 1038 L270 765 L429 765 L400 600 L170 600 L126 347 L356 347 L343 273 L184 273 L136 0 L823 0 L871 273 L712 273 L725 347 L955 347 L999 600 L769 600 L770 602 C792 728 867 795 991 795 C1059 795 1127 775 1164 748 L1372 1013 Z " />
<glyph glyph-name="uni024E" unicode="&#x24e;" horiz-adv-x="1584" d="M248 755 L547 755 L688 483 L660 325 L501 325 L444 0 L1140 0 L1197 325 L1038 325 L1066 483 L1303 755 L1602 755 L1641 980 L1499 980 L1611 1109 L1754 1109 L1811 1434 L1125 1434 L1068 1109 L1167 1109 L1055 980 L841 980 L775 1109 L866 1109 L923 1434 L277 1434 L220 1109 L363 1109 L430 980 L287 980 L248 755 Z " />
<glyph glyph-name="uni024F" unicode="&#x24f;" horiz-adv-x="1424" d="M1332 765 L1493 765 L1542 1038 L929 1038 L880 765 L956 765 L878 620 L738 620 L711 765 L780 765 L829 1038 L248 1038 L199 765 L360 765 L394 620 L200 620 L155 367 L454 367 L542 0 L456 -145 C409 -222 375 -259 258 -259 L126 -259 L78 -532 L252 -532 C532 -532 626 -427 713 -285 L882 0 L1098 367 L1397 367 L1442 620 L1246 620 L1332 765 Z " />
<glyph glyph-name="circumflex" unicode="&#x2c6;" horiz-adv-x="998" d="M874 1434 L628 1434 L266 1143 L564 1143 L739 1252 L876 1143 L1134 1143 L874 1434 Z " />
<glyph glyph-name="caron" unicode="&#x2c7;" horiz-adv-x="958" d="M1165 1434 L867 1434 L692 1325 L555 1434 L297 1434 L557 1143 L803 1143 L1165 1434 Z " />
<glyph glyph-name="uni02C8" unicode="&#x2c8;" horiz-adv-x="499" d="M230 936 L599 936 L686 1434 L317 1434 L230 936 Z " />
<glyph glyph-name="uni02C9" unicode="&#x2c9;" horiz-adv-x="1060" d="M289 1161 L1179 1161 L1227 1434 L337 1434 L289 1161 Z " />
<glyph glyph-name="uni02CA" unicode="&#x2ca;" horiz-adv-x="774" d="M263 1124 L593 1124 L961 1434 L568 1434 L263 1124 Z " />
<glyph glyph-name="uni02CB" unicode="&#x2cb;" horiz-adv-x="754" d="M690 1434 L317 1434 L577 1124 L887 1124 L690 1434 Z " />
<glyph glyph-name="uni02CC" unicode="&#x2cc;" horiz-adv-x="500" d="M-28 -532 L341 -532 L429 -34 L60 -34 L-28 -532 Z " />
<glyph glyph-name="uni02CD" unicode="&#x2cd;" horiz-adv-x="1021" d="M-28 -532 L862 -532 L910 -259 L20 -259 L-28 -532 Z " />
<glyph glyph-name="uni02CE" unicode="&#x2ce;" horiz-adv-x="754" d="M398 -222 L25 -222 L285 -532 L595 -532 L398 -222 Z " />
<glyph glyph-name="uni02CF" unicode="&#x2cf;" horiz-adv-x="775" d="M-28 -532 L302 -532 L670 -222 L277 -222 L-28 -532 Z " />
<glyph glyph-name="uni02D0" unicode="&#x2d0;" horiz-adv-x="628" d="M248 1038 L425 630 L746 1038 L248 1038 Z M563 0 L385 408 L65 0 L563 0 Z " />
<glyph glyph-name="uni02D1" unicode="&#x2d1;" horiz-adv-x="628" d="M248 1038 L425 630 L746 1038 L248 1038 Z " />
<glyph glyph-name="uni02D2" unicode="&#x2d2;" horiz-adv-x="481" d="M418 715 C431 791 480 849 565 849 L600 1044 C352 1044 219 915 189 715 C163 545 236 386 484 386 L518 581 C433 581 404 639 418 715 L418 715 Z " />
<glyph glyph-name="uni02D3" unicode="&#x2d3;" horiz-adv-x="481" d="M315 715 C302 639 253 581 168 581 L133 386 C381 386 514 515 544 715 C570 885 497 1044 249 1044 L215 849 C300 849 329 791 315 715 L315 715 Z " />
<glyph glyph-name="uni02D4" unicode="&#x2d4;" horiz-adv-x="887" d="M157 525 L914 525 L961 790 L737 790 L781 1038 L472 1038 L428 790 L204 790 L157 525 Z " />
<glyph glyph-name="uni02D5" unicode="&#x2d5;" horiz-adv-x="887" d="M108 248 L332 248 L289 0 L598 0 L641 248 L865 248 L912 513 L155 513 L108 248 Z " />
<glyph glyph-name="uni02D6" unicode="&#x2d6;" horiz-adv-x="1093" d="M224 507 L491 507 L444 241 L733 241 L780 507 L1047 507 L1098 796 L831 796 L878 1062 L589 1062 L542 796 L275 796 L224 507 Z " />
<glyph glyph-name="uni02D7" unicode="&#x2d7;" horiz-adv-x="873" d="M154 507 L897 507 L948 796 L205 796 L154 507 Z " />
<glyph glyph-name="breve" unicode="&#x2d8;" horiz-adv-x="878" d="M641 1148 C939 1148 1047 1341 1085 1434 L853 1434 C807 1365 748 1336 674 1336 C590 1336 539 1365 509 1434 L297 1434 C303 1331 383 1148 641 1148 L641 1148 Z " />
<glyph glyph-name="dotaccent" unicode="&#x2d9;" horiz-adv-x="415" d="M261 1344 C244 1243 310 1162 411 1162 C522 1162 609 1243 626 1344 C644 1445 577 1527 476 1527 C365 1527 279 1445 261 1344 L261 1344 Z " />
<glyph glyph-name="ring" unicode="&#x2da;" horiz-adv-x="637" d="M307 1377 C283 1237 376 1124 516 1124 C676 1124 790 1237 814 1377 C839 1517 745 1631 605 1631 C445 1631 332 1517 307 1377 L307 1377 Z M489 1377 C496 1416 528 1448 573 1448 C612 1448 638 1416 631 1377 C624 1338 593 1306 548 1306 C509 1306 482 1338 489 1377 L489 1377 Z " />
<glyph glyph-name="ogonek" unicode="&#x2db;" horiz-adv-x="526" d="M188 0 C188 0 34 -44 5 -207 C-35 -438 180 -518 391 -518 L438 -251 C438 -251 256 -251 276 -141 C295 -34 431 0 431 0 L188 0 Z " />
<glyph glyph-name="tilde" unicode="&#x2dc;" horiz-adv-x="973" d="M672 1217 C701 1188 737 1163 818 1163 C1122 1163 1167 1472 1167 1472 L942 1472 C942 1472 920 1394 853 1394 C806 1394 792 1417 768 1440 C740 1469 704 1494 623 1494 C319 1494 273 1185 273 1185 L498 1185 C498 1185 520 1263 587 1263 C634 1263 648 1240 672 1217 L672 1217 Z " />
<glyph glyph-name="hungarumlaut" unicode="&#x2dd;" horiz-adv-x="914" d="M272 1174 L523 1174 L732 1516 L423 1516 L272 1174 Z M656 1174 L907 1174 L1116 1516 L807 1516 L656 1174 Z " />
<glyph glyph-name="gravecomb" unicode="&#x300;" horiz-adv-x="794" d="M710 1434 L337 1434 L597 1124 L907 1124 L710 1434 Z " />
<glyph glyph-name="acutecomb" unicode="&#x301;" horiz-adv-x="814" d="M283 1124 L613 1124 L981 1434 L588 1434 L283 1124 Z " />
<glyph glyph-name="uni0302" unicode="&#x302;" horiz-adv-x="998" d="M874 1434 L628 1434 L266 1143 L564 1143 L739 1252 L876 1143 L1134 1143 L874 1434 Z " />
<glyph glyph-name="tildecomb" unicode="&#x303;" horiz-adv-x="1013" d="M692 1217 C721 1188 757 1163 838 1163 C1142 1163 1187 1472 1187 1472 L962 1472 C962 1472 940 1394 873 1394 C826 1394 812 1417 788 1440 C760 1469 724 1494 643 1494 C339 1494 293 1185 293 1185 L518 1185 C518 1185 540 1263 607 1263 C654 1263 668 1240 692 1217 L692 1217 Z " />
<glyph glyph-name="uni0304" unicode="&#x304;" horiz-adv-x="1020" d="M269 1161 L1159 1161 L1207 1434 L317 1434 L269 1161 Z " />
<glyph glyph-name="uni0305" unicode="&#x305;" horiz-adv-x="1020" d="M269 1161 L1159 1161 L1207 1434 L317 1434 L269 1161 Z " />
<glyph glyph-name="uni0306" unicode="&#x306;" horiz-adv-x="918" d="M661 1148 C959 1148 1067 1341 1105 1434 L873 1434 C827 1365 768 1336 694 1336 C610 1336 559 1365 529 1434 L317 1434 C323 1331 403 1148 661 1148 L661 1148 Z " />
<glyph glyph-name="uni0307" unicode="&#x307;" horiz-adv-x="495" d="M301 1344 C284 1243 350 1162 451 1162 C562 1162 649 1243 666 1344 C684 1445 617 1527 516 1527 C405 1527 319 1445 301 1344 L301 1344 Z " />
<glyph glyph-name="uni0308" unicode="&#x308;" horiz-adv-x="956" d="M762 1344 C745 1243 811 1162 912 1162 C1023 1162 1110 1243 1127 1344 C1145 1445 1078 1527 977 1527 C866 1527 780 1445 762 1344 L762 1344 Z M301 1344 C284 1243 350 1162 451 1162 C562 1162 649 1243 666 1344 C684 1445 617 1527 516 1527 C405 1527 319 1445 301 1344 L301 1344 Z " />
<glyph glyph-name="hookabovecomb" unicode="&#x309;" horiz-adv-x="676" d="M253 957 C491 957 772 1029 843 1434 L513 1434 C490 1304 401 1240 303 1240 L253 957 Z " />
<glyph glyph-name="uni030A" unicode="&#x30a;" horiz-adv-x="637" d="M307 1377 C283 1237 376 1124 516 1124 C676 1124 790 1237 814 1377 C839 1517 745 1631 605 1631 C445 1631 332 1517 307 1377 L307 1377 Z M489 1377 C496 1416 528 1448 573 1448 C612 1448 638 1416 631 1377 C624 1338 593 1306 548 1306 C509 1306 482 1338 489 1377 L489 1377 Z " />
<glyph glyph-name="uni030B" unicode="&#x30b;" horiz-adv-x="1177" d="M222 892 L563 892 L907 1434 L528 1434 L222 892 Z M679 892 L1020 892 L1364 1434 L985 1434 L679 892 Z " />
<glyph glyph-name="uni030C" unicode="&#x30c;" horiz-adv-x="998" d="M1185 1434 L887 1434 L712 1325 L575 1434 L317 1434 L577 1143 L823 1143 L1185 1434 Z " />
<glyph glyph-name="uni030D" unicode="&#x30d;" horiz-adv-x="499" d="M230 936 L599 936 L686 1434 L317 1434 L230 936 Z " />
<glyph glyph-name="uni030E" unicode="&#x30e;" horiz-adv-x="943" d="M230 936 L599 936 L686 1434 L317 1434 L230 936 Z M674 936 L1043 936 L1130 1434 L761 1434 L674 936 Z " />
<glyph glyph-name="uni030F" unicode="&#x30f;" horiz-adv-x="1177" d="M1153 1434 L774 1434 L928 892 L1269 892 L1153 1434 Z M696 1434 L317 1434 L471 892 L812 892 L696 1434 Z " />
<glyph glyph-name="uni0310" unicode="&#x310;" horiz-adv-x="918" d="M661 1148 C959 1148 1067 1341 1105 1434 L873 1434 C827 1365 768 1336 694 1336 C610 1336 559 1365 529 1434 L317 1434 C323 1331 403 1148 661 1148 L661 1148 Z M592 1576 C580 1502 629 1441 704 1441 C786 1441 851 1502 864 1576 C877 1651 827 1712 752 1712 C670 1712 606 1651 592 1576 L592 1576 Z " />
<glyph glyph-name="uni0311" unicode="&#x311;" horiz-adv-x="918" d="M711 1434 C413 1434 305 1241 267 1148 L499 1148 C545 1217 604 1246 678 1246 C762 1246 813 1217 843 1148 L1055 1148 C1049 1251 969 1434 711 1434 L711 1434 Z " />
<glyph glyph-name="uni0312" unicode="&#x312;" horiz-adv-x="720" d="M907 1434 L566 1434 L222 892 L601 892 L907 1434 Z " />
<glyph glyph-name="uni0313" unicode="&#x313;" horiz-adv-x="720" d="M222 892 L563 892 L907 1434 L528 1434 L222 892 Z " />
<glyph glyph-name="uni0314" unicode="&#x314;" horiz-adv-x="720" d="M696 1434 L317 1434 L471 892 L812 892 L696 1434 Z " />
<glyph glyph-name="uni0315" unicode="&#x315;" horiz-adv-x="720" d="M222 892 L563 892 L907 1434 L528 1434 L222 892 Z " />
<glyph glyph-name="uni0316" unicode="&#x316;" horiz-adv-x="754" d="M398 -222 L25 -222 L285 -532 L595 -532 L398 -222 Z " />
<glyph glyph-name="uni0317" unicode="&#x317;" horiz-adv-x="775" d="M-28 -532 L302 -532 L670 -222 L277 -222 L-28 -532 Z " />
<glyph glyph-name="uni0318" unicode="&#x318;" horiz-adv-x="544" d="M245 -30 L219 -177 L34 -177 L-6 -405 L179 -405 L157 -532 L385 -532 L473 -30 L245 -30 Z " />
<glyph glyph-name="uni0319" unicode="&#x319;" horiz-adv-x="544" d="M60 -30 L-28 -532 L200 -532 L222 -405 L407 -405 L447 -177 L262 -177 L288 -30 L60 -30 Z " />
<glyph glyph-name="uni031A" unicode="&#x31a;" horiz-adv-x="569" d="M317 1434 L281 1226 L492 1226 L456 1022 L684 1022 L756 1434 L317 1434 Z " />
<glyph glyph-name="uni031B" unicode="&#x31b;" horiz-adv-x="571" d="M492 1434 C479 1358 438 1255 286 1255 L243 1011 C673 1011 745 1359 758 1434 L492 1434 Z " />
<glyph glyph-name="uni031C" unicode="&#x31c;" horiz-adv-x="481" d="M292 0 C305 76 354 134 439 134 L474 329 C226 329 93 200 63 0 C37 -170 110 -329 358 -329 L392 -134 C307 -134 278 -76 292 0 L292 0 Z " />
<glyph glyph-name="uni031D" unicode="&#x31d;" horiz-adv-x="669" d="M193 -157 L163 -324 L8 -324 L-28 -532 L510 -532 L546 -324 L391 -324 L421 -157 L193 -157 Z " />
<glyph glyph-name="uni031E" unicode="&#x31e;" horiz-adv-x="668" d="M354 -532 L383 -365 L538 -365 L575 -157 L37 -157 L0 -365 L155 -365 L126 -532 L354 -532 Z " />
<glyph glyph-name="uni031F" unicode="&#x31f;" horiz-adv-x="634" d="M583 85 L420 85 L451 259 L273 259 L242 85 L79 85 L50 -82 L213 -82 L182 -256 L360 -256 L391 -82 L554 -82 L583 85 Z " />
<glyph glyph-name="uni0320" unicode="&#x320;" horiz-adv-x="554" d="M503 85 L79 85 L50 -82 L474 -82 L503 85 Z " />
<glyph glyph-name="uni0321" unicode="&#x321;" horiz-adv-x="679" d="M399 206 C353 -53 269 -157 38 -157 L-2 -385 C400 -385 578 -200 650 206 L399 206 Z " />
<glyph glyph-name="uni0322" unicode="&#x322;" horiz-adv-x="678" d="M101 206 C29 -200 143 -385 545 -385 L585 -157 C354 -157 306 -53 352 206 L101 206 Z " />
<glyph glyph-name="dotbelowcomb" unicode="&#x323;" horiz-adv-x="535" d="M30 -309 C13 -410 79 -491 180 -491 C291 -491 378 -410 395 -309 C413 -208 346 -126 245 -126 C134 -126 48 -208 30 -309 L30 -309 Z " />
<glyph glyph-name="uni0324" unicode="&#x324;" horiz-adv-x="956" d="M470 -312 C453 -413 519 -494 620 -494 C731 -494 818 -413 835 -312 C853 -211 786 -129 685 -129 C574 -129 488 -211 470 -312 L470 -312 Z M9 -312 C-8 -413 58 -494 159 -494 C270 -494 357 -413 374 -312 C392 -211 325 -129 224 -129 C113 -129 27 -211 9 -312 L9 -312 Z " />
<glyph glyph-name="uni0325" unicode="&#x325;" horiz-adv-x="637" d="M1 -359 C-23 -499 70 -612 210 -612 C370 -612 484 -499 508 -359 C533 -219 439 -105 299 -105 C139 -105 26 -219 1 -359 L1 -359 Z M183 -359 C190 -320 222 -288 267 -288 C306 -288 332 -320 325 -359 C318 -398 287 -430 242 -430 C203 -430 176 -398 183 -359 L183 -359 Z " />
<glyph glyph-name="commaaccent" unicode="&#x326;" horiz-adv-x="662" d="M-8 -532 L292 -532 L557 -108 L218 -108 L-8 -532 Z " />
<glyph glyph-name="uni0327" unicode="&#x327;" horiz-adv-x="714" d="M-27 -517 C202 -605 550 -594 592 -331 C614 -196 519 -118 373 -117 L468 73 L235 73 L71 -278 C189 -266 392 -234 371 -324 C345 -434 109 -381 42 -358 L-27 -517 Z " />
<glyph glyph-name="uni0328" unicode="&#x328;" horiz-adv-x="566" d="M208 0 C208 0 54 -44 25 -207 C-15 -438 200 -518 411 -518 L458 -251 C458 -251 276 -251 296 -141 C315 -34 451 0 451 0 L208 0 Z " />
<glyph glyph-name="uni0329" unicode="&#x329;" horiz-adv-x="500" d="M-28 -532 L341 -532 L429 -34 L60 -34 L-28 -532 Z " />
<glyph glyph-name="uni032A" unicode="&#x32a;" horiz-adv-x="937" d="M-28 -532 L224 -532 L245 -414 L547 -414 L526 -532 L778 -532 L835 -205 L29 -205 L-28 -532 Z " />
<glyph glyph-name="uni032B" unicode="&#x32b;" horiz-adv-x="895" d="M375 -498 C390 -554 430 -592 505 -592 C686 -592 748 -460 775 -309 L799 -173 L600 -173 L576 -309 C567 -361 544 -380 516 -380 C477 -380 474 -336 492 -237 L318 -237 C300 -336 281 -380 242 -380 C214 -380 199 -361 208 -309 L232 -173 L33 -173 L9 -309 C-18 -460 30 -592 201 -592 C276 -592 340 -554 375 -498 L375 -498 Z " />
<glyph glyph-name="uni032C" unicode="&#x32c;" horiz-adv-x="998" d="M890 -241 L592 -241 L417 -350 L280 -241 L22 -241 L282 -532 L528 -532 L890 -241 Z " />
<glyph glyph-name="uni032D" unicode="&#x32d;" horiz-adv-x="999" d="M580 -241 L334 -241 L-28 -532 L270 -532 L445 -423 L582 -532 L840 -532 L580 -241 Z " />
<glyph glyph-name="uni032E" unicode="&#x32e;" horiz-adv-x="918" d="M365 -532 C663 -532 771 -339 809 -246 L577 -246 C531 -315 472 -344 398 -344 C314 -344 263 -315 233 -246 L21 -246 C27 -349 107 -532 365 -532 L365 -532 Z " />
<glyph glyph-name="uni032F" unicode="&#x32f;" horiz-adv-x="919" d="M416 -246 C118 -246 10 -439 -28 -532 L204 -532 C250 -463 309 -434 383 -434 C467 -434 518 -463 548 -532 L760 -532 C754 -429 674 -246 416 -246 L416 -246 Z " />
<glyph glyph-name="uni0330" unicode="&#x330;" horiz-adv-x="975" d="M386 -416 C415 -445 451 -470 532 -470 C836 -470 881 -161 881 -161 L656 -161 C656 -161 634 -239 567 -239 C520 -239 506 -216 482 -193 C454 -164 418 -139 337 -139 C33 -139 -13 -448 -13 -448 L212 -448 C212 -448 234 -370 301 -370 C348 -370 362 -393 386 -416 L386 -416 Z " />
<glyph glyph-name="uni0331" unicode="&#x331;" horiz-adv-x="1021" d="M-28 -532 L862 -532 L910 -259 L20 -259 L-28 -532 Z " />
<glyph glyph-name="uni0332" unicode="&#x332;" horiz-adv-x="1219" d="M17 -382 L1066 -382 L1114 -109 L65 -109 L17 -382 Z " />
<glyph glyph-name="uni0333" unicode="&#x333;" horiz-adv-x="1219" d="M-40 -712 L1008 -712 L1056 -439 L8 -439 L-40 -712 Z M17 -382 L1066 -382 L1114 -109 L65 -109 L17 -382 Z " />
<glyph glyph-name="uni0334" unicode="&#x334;" horiz-adv-x="974" d="M568 622 C597 593 633 568 714 568 C1018 568 1063 877 1063 877 L838 877 C838 877 816 799 749 799 C702 799 688 822 664 845 C636 874 600 899 519 899 C215 899 169 590 169 590 L394 590 C394 590 416 668 483 668 C530 668 544 645 568 622 L568 622 Z " />
<glyph glyph-name="uni0335" unicode="&#x335;" horiz-adv-x="1069" d="M153 500 L1092 500 L1140 773 L201 773 L153 500 Z " />
<glyph glyph-name="uni0336" unicode="&#x336;" horiz-adv-x="1624" d="M153 500 L1647 500 L1695 773 L201 773 L153 500 Z " />
<glyph glyph-name="uni0337" unicode="&#x337;" horiz-adv-x="1333" d="M1080 1143 L99 194 L488 194 L1469 1143 L1080 1143 Z " />
<glyph glyph-name="uni0338" unicode="&#x338;" horiz-adv-x="1418" d="M65 0 L448 0 L1605 1434 L1222 1434 L65 0 Z " />
<glyph glyph-name="uni0339" unicode="&#x339;" horiz-adv-x="481" d="M188 0 C175 -76 126 -134 41 -134 L6 -329 C254 -329 387 -200 417 0 C443 170 370 329 122 329 L88 134 C173 134 202 76 188 0 L188 0 Z " />
<glyph glyph-name="uni033A" unicode="&#x33a;" horiz-adv-x="937" d="M-28 -532 L778 -532 L835 -205 L583 -205 L563 -323 L261 -323 L281 -205 L29 -205 L-28 -532 Z " />
<glyph glyph-name="uni033B" unicode="&#x33b;" horiz-adv-x="588" d="M-32 -552 L425 -552 L504 -104 L46 -104 L-32 -552 Z M186 -274 L304 -274 L285 -382 L167 -382 L186 -274 Z " />
<glyph glyph-name="uni033C" unicode="&#x33c;" horiz-adv-x="895" d="M394 -271 C379 -215 328 -177 253 -177 C72 -177 10 -309 -17 -460 L-20 -486 L178 -486 L182 -460 C192 -408 214 -389 242 -389 C281 -389 284 -433 267 -532 L441 -532 C458 -433 477 -389 516 -389 C544 -389 560 -408 550 -460 L546 -486 L745 -486 L749 -460 C776 -309 728 -177 567 -177 C492 -177 429 -215 394 -271 L394 -271 Z " />
<glyph glyph-name="uni033D" unicode="&#x33d;" horiz-adv-x="1119" d="M955 1164 L1306 1434 L903 1434 L785 1343 L700 1434 L337 1434 L575 1182 L225 912 L628 912 L745 1002 L831 912 L1194 912 L955 1164 Z " />
<glyph glyph-name="uni033E" unicode="&#x33e;" horiz-adv-x="461" d="M598 1455 C633 1489 665 1529 679 1610 C729 1894 422 1905 422 1905 L383 1680 C383 1680 458 1662 448 1605 C439 1558 413 1540 385 1512 C350 1478 318 1438 304 1357 C254 1073 561 1062 561 1062 L600 1287 C600 1287 524 1295 536 1362 C544 1409 570 1427 598 1455 L598 1455 Z " />
<glyph glyph-name="uni033F" unicode="&#x33f;" horiz-adv-x="1219" d="M352 1516 L1401 1516 L1449 1789 L400 1789 L352 1516 Z M410 1846 L1459 1846 L1507 2119 L458 2119 L410 1846 Z " />
<glyph glyph-name="uni0340" unicode="&#x340;" horiz-adv-x="754" d="M690 1434 L317 1434 L577 1124 L887 1124 L690 1434 Z " />
<glyph glyph-name="uni0341" unicode="&#x341;" horiz-adv-x="774" d="M263 1124 L593 1124 L961 1434 L568 1434 L263 1124 Z " />
<glyph glyph-name="uni0342" unicode="&#x342;" horiz-adv-x="973" d="M672 1217 C701 1188 737 1163 818 1163 C1122 1163 1167 1472 1167 1472 L942 1472 C942 1472 920 1394 853 1394 C806 1394 792 1417 768 1440 C740 1469 704 1494 623 1494 C319 1494 273 1185 273 1185 L498 1185 C498 1185 520 1263 587 1263 C634 1263 648 1240 672 1217 L672 1217 Z " />
<glyph glyph-name="uni0343" unicode="&#x343;" horiz-adv-x="720" d="M222 892 L563 892 L907 1434 L528 1434 L222 892 Z " />
<glyph glyph-name="uni0344" unicode="&#x344;" horiz-adv-x="956" d="M594 1596 L907 1596 L1103 1974 L745 1974 L594 1596 Z M762 1344 C745 1243 811 1162 912 1162 C1023 1162 1110 1243 1127 1344 C1145 1445 1078 1527 977 1527 C866 1527 780 1445 762 1344 L762 1344 Z M301 1344 C284 1243 350 1162 451 1162 C562 1162 649 1243 666 1344 C684 1445 617 1527 516 1527 C405 1527 319 1445 301 1344 L301 1344 Z " />
<glyph glyph-name="uni0345" unicode="&#x345;" horiz-adv-x="738" d="M507 -145 C475 -166 440 -184 401 -184 C358 -184 349 -154 360 -96 L386 56 L74 56 L51 -76 C10 -310 65 -464 301 -464 C427 -464 529 -428 613 -352 L507 -145 Z " />
<glyph glyph-name="uni0346" unicode="&#x346;" horiz-adv-x="936" d="M260 1107 L512 1107 L533 1225 L835 1225 L814 1107 L1066 1107 L1123 1434 L317 1434 L260 1107 Z " />
<glyph glyph-name="uni0347" unicode="&#x347;" horiz-adv-x="544" d="M473 -30 L59 -30 L30 -197 L444 -197 L473 -30 Z M513 197 L99 197 L70 30 L484 30 L513 197 Z " />
<glyph glyph-name="uni0348" unicode="&#x348;" horiz-adv-x="944" d="M-28 -532 L341 -532 L429 -34 L60 -34 L-28 -532 Z M416 -532 L785 -532 L873 -34 L504 -34 L416 -532 Z " />
<glyph glyph-name="uni0349" unicode="&#x349;" horiz-adv-x="569" d="M43 -120 L7 -328 L218 -328 L182 -532 L410 -532 L482 -120 L43 -120 Z " />
<glyph glyph-name="uni034A" unicode="&#x34a;" horiz-adv-x="973" d="M855 1592 L743 1462 C717 1480 682 1494 623 1494 C319 1494 273 1185 273 1185 L498 1185 C498 1185 516 1249 569 1261 L400 1065 L585 1065 L697 1195 C723 1176 758 1163 818 1163 C1122 1163 1167 1472 1167 1472 L942 1472 C942 1472 923 1408 870 1396 L1040 1592 L855 1592 Z " />
<glyph glyph-name="uni034B" unicode="&#x34b;" horiz-adv-x="973" d="M672 1217 C701 1188 737 1163 818 1163 C1122 1163 1167 1472 1167 1472 L942 1472 C942 1472 920 1394 853 1394 C806 1394 792 1417 768 1440 C740 1469 704 1494 623 1494 C319 1494 273 1185 273 1185 L498 1185 C498 1185 520 1263 587 1263 C634 1263 648 1240 672 1217 L672 1217 Z M719 1636 C706 1560 756 1499 832 1499 C915 1499 980 1560 993 1636 C1006 1712 956 1773 880 1773 C797 1773 733 1712 719 1636 L719 1636 Z M446 1021 C433 945 483 884 559 884 C642 884 707 945 720 1021 C733 1097 683 1158 607 1158 C524 1158 460 1097 446 1021 L446 1021 Z " />
<glyph glyph-name="uni034C" unicode="&#x34c;" horiz-adv-x="933" d="M602 1092 C647 1053 714 1017 800 1017 C908 1017 1002 1050 1067 1125 L1120 1434 C1022 1338 950 1306 871 1306 C828 1306 793 1319 759 1343 C715 1382 647 1418 561 1418 C453 1418 359 1385 294 1310 L241 1001 C339 1097 411 1129 490 1129 C533 1129 568 1116 602 1092 L602 1092 Z M527 665 C571 626 639 590 725 590 C833 590 926 623 992 698 L1044 1007 C946 911 875 879 796 879 C753 879 718 892 683 916 C639 955 572 991 486 991 C378 991 284 958 219 883 L166 574 C264 670 336 702 415 702 C458 702 492 689 527 665 L527 665 Z " />
<glyph glyph-name="uni034D" unicode="&#x34d;" horiz-adv-x="2366" d="M713 11 L765 315 L20 -245 L569 -805 L621 -511 L479 -399 L1737 -399 L1565 -511 L1512 -825 L2256 -265 L1709 305 L1656 1 L1788 -111 L530 -111 L713 11 Z " />
<glyph glyph-name="uni034E" unicode="&#x34e;" horiz-adv-x="1250" d="M675 -532 L742 -151 L835 -313 L1129 -313 L673 333 L9 -313 L313 -313 L454 -151 L387 -532 L675 -532 Z " />
<glyph glyph-name="tonos" unicode="&#x384;" horiz-adv-x="572" d="M251 1056 L564 1056 L759 1434 L401 1434 L251 1056 Z " />
<glyph glyph-name="dieresistonos" unicode="&#x385;" horiz-adv-x="996" d="M614 1596 L927 1596 L1123 1974 L765 1974 L614 1596 Z M782 1344 C765 1243 831 1162 932 1162 C1043 1162 1130 1243 1147 1344 C1165 1445 1098 1527 997 1527 C886 1527 800 1445 782 1344 L782 1344 Z M321 1344 C304 1243 370 1162 471 1162 C582 1162 669 1243 686 1344 C704 1445 637 1527 536 1527 C425 1527 339 1445 321 1344 L321 1344 Z " />
<glyph glyph-name="Alphatonos" unicode="&#x386;" horiz-adv-x="1829" d="M212 1056 L525 1056 L720 1434 L362 1434 L212 1056 Z M1318 325 L1175 325 L1118 0 L1804 0 L1861 325 L1709 325 L1430 1434 L740 1434 L683 1109 L842 1109 L363 325 L211 325 L154 0 L860 0 L917 325 L773 325 L824 412 L1296 412 L1318 325 Z M1160 974 L1222 719 L1007 719 L1160 974 Z " />
<glyph glyph-name="Epsilontonos" unicode="&#x388;" horiz-adv-x="2022" d="M271 1056 L584 1056 L779 1434 L421 1434 L271 1056 Z M567 0 L1937 0 L2018 464 L1640 464 L1616 325 L1161 325 L1204 569 L1643 569 L1697 877 L1258 877 L1299 1109 L1738 1109 L1714 970 L2092 970 L2173 1434 L819 1434 L762 1109 L921 1109 L783 325 L624 325 L567 0 Z " />
<glyph glyph-name="Etatonos" unicode="&#x389;" horiz-adv-x="2235" d="M851 1109 L713 325 L554 325 L497 0 L1193 0 L1250 325 L1091 325 L1134 569 L1713 569 L1670 325 L1511 325 L1454 0 L2150 0 L2207 325 L2048 325 L2186 1109 L2345 1109 L2402 1434 L1706 1434 L1649 1109 L1808 1109 L1770 894 L1191 894 L1229 1109 L1388 1109 L1445 1434 L749 1434 L692 1109 L851 1109 Z M201 1056 L514 1056 L709 1434 L351 1434 L201 1056 Z " />
<glyph glyph-name="Iotatonos" unicode="&#x38a;" horiz-adv-x="1278" d="M201 1056 L514 1056 L709 1434 L351 1434 L201 1056 Z M851 1109 L713 325 L554 325 L497 0 L1193 0 L1250 325 L1091 325 L1229 1109 L1388 1109 L1445 1434 L749 1434 L692 1109 L851 1109 Z " />
<glyph glyph-name="Omicrontonos" unicode="&#x38c;" horiz-adv-x="1999" d="M251 1056 L564 1056 L759 1434 L401 1434 L251 1056 Z M1170 -40 C1679 -40 2004 267 2066 717 C2123 1128 1896 1474 1397 1474 C888 1474 564 1167 502 717 C445 306 671 -40 1170 -40 L1170 -40 Z M1208 285 C939 285 850 490 890 717 C930 944 1091 1149 1360 1149 C1629 1149 1718 944 1678 717 C1638 490 1477 285 1208 285 L1208 285 Z " />
<glyph glyph-name="Upsilontonos" unicode="&#x38e;" horiz-adv-x="2049" d="M211 1056 L524 1056 L719 1434 L361 1434 L211 1056 Z M1153 483 L1125 325 L966 325 L909 0 L1605 0 L1662 325 L1503 325 L1531 483 L2076 1109 L2219 1109 L2276 1434 L1590 1434 L1533 1109 L1632 1109 L1386 824 L1240 1109 L1331 1109 L1388 1434 L742 1434 L685 1109 L828 1109 L1153 483 Z " />
<glyph glyph-name="Omegatonos" unicode="&#x38f;" horiz-adv-x="2068" d="M251 1056 L564 1056 L759 1434 L401 1434 L251 1056 Z M850 325 L496 325 L439 0 L1132 0 L1185 305 C967 429 874 573 913 795 C953 1024 1137 1149 1403 1149 C1669 1149 1809 1024 1769 795 C1730 573 1585 429 1323 305 L1270 0 L1963 0 L2020 325 L1706 325 C1914 392 2118 576 2154 835 C2208 1223 1893 1474 1450 1474 C907 1474 596 1223 542 835 C506 576 666 392 850 325 L850 325 Z " />
<glyph glyph-name="iotadieresistonos" unicode="&#x390;" horiz-adv-x="876" d="M554 1596 L867 1596 L1063 1974 L705 1974 L554 1596 Z M701 446 L806 1038 L278 1038 L229 765 L388 765 L327 417 C303 282 253 0 605 0 L735 0 L783 273 L756 273 C671 273 683 341 701 446 L701 446 Z M722 1344 C705 1243 771 1162 872 1162 C983 1162 1070 1243 1087 1344 C1105 1445 1038 1527 937 1527 C826 1527 740 1445 722 1344 L722 1344 Z M261 1344 C244 1243 310 1162 411 1162 C522 1162 609 1243 626 1344 C644 1445 577 1527 476 1527 C365 1527 279 1445 261 1344 L261 1344 Z " />
<glyph glyph-name="Alpha" unicode="&#x391;" horiz-adv-x="1700" d="M1189 325 L1046 325 L989 0 L1675 0 L1732 325 L1580 325 L1301 1434 L611 1434 L554 1109 L713 1109 L234 325 L82 325 L25 0 L731 0 L788 325 L644 325 L695 412 L1167 412 L1189 325 Z M1031 974 L1093 719 L878 719 L1031 974 Z " />
<glyph glyph-name="Beta" unicode="&#x392;" horiz-adv-x="1612" d="M972 0 C1430 0 1599 196 1626 414 C1646 578 1575 689 1419 734 C1572 772 1670 888 1690 1020 C1717 1196 1645 1434 1199 1434 L337 1434 L280 1109 L439 1109 L301 325 L142 325 L85 0 L972 0 Z M679 325 L725 587 L1047 587 C1201 587 1259 555 1242 456 C1224 357 1155 325 1000 325 L679 325 Z M775 869 L817 1109 L1130 1109 C1271 1109 1306 1065 1293 989 C1279 913 1229 869 1087 869 L775 869 Z " />
<glyph glyph-name="Gamma" unicode="&#x393;" horiz-adv-x="1527" d="M817 1109 L1259 1109 L1235 970 L1613 970 L1694 1434 L337 1434 L280 1109 L439 1109 L301 325 L142 325 L85 0 L781 0 L838 325 L679 325 L817 1109 Z " />
<glyph glyph-name="uni0394" unicode="&#x394;" horiz-adv-x="1700" d="M1675 0 L1732 325 L1580 325 L1301 1434 L611 1434 L554 1109 L713 1109 L234 325 L82 325 L25 0 L1675 0 Z M1031 974 L1189 325 L644 325 L1031 974 Z " />
<glyph glyph-name="Epsilon" unicode="&#x395;" horiz-adv-x="1540" d="M85 0 L1455 0 L1536 464 L1158 464 L1134 325 L679 325 L722 569 L1161 569 L1215 877 L776 877 L817 1109 L1256 1109 L1232 970 L1610 970 L1691 1434 L337 1434 L280 1109 L439 1109 L301 325 L142 325 L85 0 Z " />
<glyph glyph-name="Zeta" unicode="&#x396;" horiz-adv-x="1423" d="M1590 1434 L357 1434 L276 970 L654 970 L678 1109 L963 1109 L115 172 L85 0 L1338 0 L1419 464 L1041 464 L1017 325 L711 325 L1560 1262 L1590 1434 Z " />
<glyph glyph-name="Eta" unicode="&#x397;" horiz-adv-x="1823" d="M439 1109 L301 325 L142 325 L85 0 L781 0 L838 325 L679 325 L722 569 L1301 569 L1258 325 L1099 325 L1042 0 L1738 0 L1795 325 L1636 325 L1774 1109 L1933 1109 L1990 1434 L1294 1434 L1237 1109 L1396 1109 L1358 894 L779 894 L817 1109 L976 1109 L1033 1434 L337 1434 L280 1109 L439 1109 Z " />
<glyph glyph-name="Theta" unicode="&#x398;" horiz-adv-x="1682" d="M664 555 L1212 555 L1270 880 L722 880 L664 555 Z M853 -40 C1362 -40 1687 267 1749 717 C1806 1128 1579 1474 1080 1474 C571 1474 247 1167 185 717 C128 306 354 -40 853 -40 L853 -40 Z M891 285 C622 285 533 490 573 717 C613 944 774 1149 1043 1149 C1312 1149 1401 944 1361 717 C1321 490 1160 285 891 285 L891 285 Z " />
<glyph glyph-name="Iota" unicode="&#x399;" horiz-adv-x="806" d="M409 1109 L271 325 L112 325 L55 0 L751 0 L808 325 L649 325 L787 1109 L946 1109 L1003 1434 L307 1434 L250 1109 L409 1109 Z " />
<glyph glyph-name="Kappa" unicode="&#x39a;" horiz-adv-x="1652" d="M1602 1109 L1762 1109 L1819 1434 L1133 1434 L1076 1109 L1133 1109 L772 855 L817 1109 L976 1109 L1033 1434 L337 1434 L280 1109 L439 1109 L301 325 L142 325 L85 0 L781 0 L838 325 L679 325 L706 478 L863 589 L1132 0 L1567 0 L1624 325 L1465 325 L1214 836 L1602 1109 Z " />
<glyph glyph-name="Lambda" unicode="&#x39b;" horiz-adv-x="1700" d="M1031 974 L1189 325 L1046 325 L989 0 L1675 0 L1732 325 L1580 325 L1301 1434 L611 1434 L554 1109 L713 1109 L234 325 L82 325 L25 0 L731 0 L788 325 L644 325 L1031 974 Z " />
<glyph glyph-name="Mu" unicode="&#x39c;" horiz-adv-x="2194" d="M976 1434 L337 1434 L280 1109 L439 1109 L301 325 L142 325 L85 0 L781 0 L838 325 L679 325 L767 824 L957 0 L1237 0 L1717 824 L1629 325 L1470 325 L1413 0 L2109 0 L2166 325 L2007 325 L2145 1109 L2304 1109 L2361 1434 L1682 1434 L1176 563 L976 1434 Z " />
<glyph glyph-name="Nu" unicode="&#x39d;" horiz-adv-x="1842" d="M301 325 L142 325 L85 0 L781 0 L838 325 L679 325 L775 872 L1176 0 L1598 0 L1793 1109 L1952 1109 L2009 1434 L1313 1434 L1256 1109 L1415 1109 L1319 562 L918 1434 L337 1434 L280 1109 L439 1109 L301 325 Z " />
<glyph glyph-name="Xi" unicode="&#x39e;" horiz-adv-x="1289" d="M260 1109 L1419 1109 L1476 1434 L317 1434 L260 1109 Z M65 0 L1224 0 L1281 325 L122 325 L65 0 Z M259 569 L1230 569 L1284 877 L313 877 L259 569 Z " />
<glyph glyph-name="Omicron" unicode="&#x39f;" horiz-adv-x="1682" d="M853 -40 C1362 -40 1687 267 1749 717 C1806 1128 1579 1474 1080 1474 C571 1474 247 1167 185 717 C128 306 354 -40 853 -40 L853 -40 Z M891 285 C622 285 533 490 573 717 C613 944 774 1149 1043 1149 C1312 1149 1401 944 1361 717 C1321 490 1160 285 891 285 L891 285 Z " />
<glyph glyph-name="Pi" unicode="&#x3a0;" horiz-adv-x="1799" d="M85 0 L781 0 L838 325 L679 325 L817 1109 L1372 1109 L1234 325 L1075 325 L1018 0 L1714 0 L1771 325 L1612 325 L1750 1109 L1909 1109 L1966 1434 L337 1434 L280 1109 L439 1109 L301 325 L142 325 L85 0 Z " />
<glyph glyph-name="Rho" unicode="&#x3a1;" horiz-adv-x="1550" d="M439 1109 L301 325 L142 325 L85 0 L781 0 L838 325 L679 325 L704 470 L963 470 C1350 470 1604 586 1655 952 C1701 1281 1520 1434 1133 1434 L337 1434 L280 1109 L439 1109 Z M1076 1109 C1221 1109 1291 1084 1267 952 C1244 820 1166 795 1021 795 L762 795 L817 1109 L1076 1109 Z " />
<glyph glyph-name="Sigma" unicode="&#x3a3;" horiz-adv-x="1362" d="M337 1434 L296 1202 L597 731 L125 232 L85 0 L1277 0 L1358 464 L980 464 L956 325 L654 325 L1012 713 L759 1109 L1078 1109 L1054 970 L1432 970 L1513 1434 L337 1434 Z " />
<glyph glyph-name="Tau" unicode="&#x3a4;" horiz-adv-x="1612" d="M337 1434 L256 970 L634 970 L658 1109 L812 1109 L674 325 L515 325 L458 0 L1154 0 L1211 325 L1052 325 L1190 1109 L1344 1109 L1320 970 L1698 970 L1779 1434 L337 1434 Z " />
<glyph glyph-name="Upsilon" unicode="&#x3a5;" horiz-adv-x="1584" d="M688 483 L660 325 L501 325 L444 0 L1140 0 L1197 325 L1038 325 L1066 483 L1611 1109 L1754 1109 L1811 1434 L1125 1434 L1068 1109 L1167 1109 L921 824 L775 1109 L866 1109 L923 1434 L277 1434 L220 1109 L363 1109 L688 483 Z " />
<glyph glyph-name="Phi" unicode="&#x3a6;" horiz-adv-x="1698" d="M697 215 L538 215 L501 0 L1197 0 L1234 215 L1075 215 L1081 245 C1411 245 1710 357 1762 717 C1813 1069 1567 1189 1247 1189 L1252 1219 L1411 1219 L1449 1434 L753 1434 L715 1219 L874 1219 L868 1189 C538 1189 240 1077 188 717 C137 365 382 245 702 245 L697 215 Z M1127 510 L1200 924 C1351 924 1409 859 1384 717 C1359 575 1279 510 1127 510 L1127 510 Z M566 717 C591 858 670 923 822 924 L749 510 C599 510 541 575 566 717 L566 717 Z " />
<glyph glyph-name="Chi" unicode="&#x3a7;" horiz-adv-x="1446" d="M684 1434 L316 1434 L259 1109 L418 1109 L627 744 L240 325 L82 325 L25 0 L681 0 L738 325 L680 325 L803 463 L1054 0 L1421 0 L1478 325 L1319 325 L1080 745 L1416 1109 L1576 1109 L1633 1434 L977 1434 L920 1109 L976 1109 L904 1028 L684 1434 Z " />
<glyph glyph-name="Psi" unicode="&#x3a8;" horiz-adv-x="1976" d="M1987 1109 L2146 1109 L2203 1434 L1698 1434 C1631 1050 1502 842 1313 776 L1372 1109 L1531 1109 L1588 1434 L892 1434 L835 1109 L994 1109 L935 776 C770 842 705 1030 782 1434 L277 1434 L220 1109 L383 1109 C388 679 666 498 878 449 L856 325 L697 325 L640 0 L1336 0 L1393 325 L1234 325 L1256 449 C1530 490 1825 669 1987 1109 L1987 1109 Z " />
<glyph glyph-name="uni03A9" unicode="&#x3a9;" horiz-adv-x="1738" d="M520 325 L166 325 L109 0 L802 0 L855 305 C637 429 544 573 583 795 C623 1024 807 1149 1073 1149 C1339 1149 1479 1024 1439 795 C1400 573 1255 429 993 305 L940 0 L1633 0 L1690 325 L1376 325 C1584 392 1788 576 1824 835 C1878 1223 1563 1474 1120 1474 C577 1474 266 1223 212 835 C176 576 336 392 520 325 L520 325 Z " />
</font>
</svg>
