<?xml version="1.0" encoding="UTF-8"?>
<svg xmlns="http://www.w3.org/2000/svg" xmlns:xlink="http://www.w3.org/1999/xlink" version="1.2" >
<font id="Artegra Slab Thin">
<font-face  font-family="Artegra Slab" units-per-em="2048" ascent="1516" descent="-532" font-style="normal" font-weight="100" font-stretch="normal" cap-height="1434" x-height="982" underline-position="-154" underline-thickness="102" />
<missing-glyph  horiz-adv-x="922" d="" />
<glyph glyph-name="NULL" d="" />
<glyph glyph-name="CR" unicode="&#xd;" horiz-adv-x="922" d="" />
<glyph glyph-name="space" unicode="&#x20;" horiz-adv-x="573" d="" />
<glyph glyph-name="exclam" unicode="&#x21;" horiz-adv-x="474" d="M211 307 L263 307 L268 1434 L206 1434 L211 307 Z M180 47 C180 16 206 -10 237 -10 C268 -10 294 16 294 47 C294 78 268 104 237 104 C206 104 180 78 180 47 L180 47 Z " />
<glyph glyph-name="quotedbl" unicode="&#x22;" horiz-adv-x="468" d="M85 1065 L138 1065 L152 1434 L70 1434 L85 1065 Z M330 1065 L384 1065 L398 1434 L316 1434 L330 1065 Z " />
<glyph glyph-name="numbersign" unicode="&#x23;" horiz-adv-x="1311" d="M884 983 L515 983 L587 1434 L526 1434 L454 983 L204 983 L204 930 L445 930 L377 504 L120 504 L120 451 L368 451 L296 0 L358 0 L430 451 L799 451 L727 0 L788 0 L860 451 L1107 451 L1107 504 L868 504 L936 930 L1191 930 L1191 983 L945 983 L1017 1434 L956 1434 L884 983 Z M506 930 L875 930 L807 504 L438 504 L506 930 Z " />
<glyph glyph-name="dollar" unicode="&#x24;" horiz-adv-x="1285" d="M1060 1354 C1060 1354 938 1444 667 1453 L667 1658 L609 1658 L609 1453 C288 1448 181 1271 181 1090 C181 932 276 789 642 713 C999 639 1061 524 1061 369 C1061 172 928 38 645 38 C390 38 222 146 222 146 L222 301 L160 301 L160 111 C160 111 322 -10 609 -19 L609 -224 L667 -224 L667 -19 C956 -13 1125 127 1125 369 C1125 578 1011 704 648 778 C324 844 245 965 245 1090 C245 1286 387 1396 624 1396 C879 1396 998 1320 998 1320 L998 1186 L1060 1186 L1060 1354 Z " />
<glyph glyph-name="ampersand" unicode="&#x26;" horiz-adv-x="1466" d="M1282 630 L1282 688 L1029 688 C1027 520 982 360 925 254 C767 385 593 555 466 727 L638 864 C917 1088 848 1454 538 1454 C359 1454 239 1323 239 1118 C239 997 294 868 384 739 C204 594 120 451 120 302 C120 -116 745 -104 939 164 C1094 42 1176 0 1315 0 L1346 0 L1346 58 L1318 58 C1198 58 1118 102 972 217 C1025 317 1072 442 1085 630 L1282 630 Z M184 302 C184 451 276 572 418 690 C553 510 738 332 892 203 C734 -25 184 -55 184 302 L184 302 Z M595 903 C534 854 476 810 429 774 C349 891 300 1010 300 1118 C300 1341 460 1396 538 1396 C799 1396 818 1081 595 903 L595 903 Z " />
<glyph glyph-name="quotesingle" unicode="&#x27;" horiz-adv-x="222" d="M85 1065 L138 1065 L152 1434 L70 1434 L85 1065 Z " />
<glyph glyph-name="parenleft" unicode="&#x28;" horiz-adv-x="735" d="M635 -256 C635 -256 202 -190 202 594 C202 1378 635 1444 635 1444 L612 1495 C612 1495 140 1415 140 594 C140 -227 612 -307 612 -307 L635 -256 Z " />
<glyph glyph-name="parenright" unicode="&#x29;" horiz-adv-x="735" d="M123 -307 C123 -307 595 -227 595 594 C595 1415 123 1495 123 1495 L100 1444 C100 1444 533 1378 533 594 C533 -190 100 -256 100 -256 L123 -307 Z " />
<glyph glyph-name="asterisk" unicode="&#x2a;" horiz-adv-x="884" d="M625 786 L670 819 L485 1071 L784 1164 L766 1221 L469 1122 L473 1434 L411 1434 L415 1122 L118 1221 L100 1164 L399 1071 L214 819 L259 786 L442 1040 L625 786 Z " />
<glyph glyph-name="plus" unicode="&#x2b;" horiz-adv-x="1166" d="M1046 747 L614 747 L614 1180 L552 1180 L552 747 L120 747 L120 689 L552 689 L552 255 L614 255 L614 689 L1046 689 L1046 747 Z " />
<glyph glyph-name="comma" unicode="&#x2c;" horiz-adv-x="444" d="M100 -221 L156 -221 L324 147 L240 147 L100 -221 Z " />
<glyph glyph-name="hyphen" unicode="&#x2d;" horiz-adv-x="838" d="M120 517 L718 517 L718 575 L120 575 L120 517 Z " />
<glyph glyph-name="period" unicode="&#x2e;" horiz-adv-x="354" d="M120 47 C120 16 146 -10 177 -10 C208 -10 234 16 234 47 C234 78 208 104 177 104 C146 104 120 78 120 47 L120 47 Z " />
<glyph glyph-name="slash" unicode="&#x2f;" horiz-adv-x="1001" d="M140 0 L202 0 L861 1434 L800 1434 L140 0 Z " />
<glyph glyph-name="zero" unicode="0" horiz-adv-x="1291" d="M120 717 C120 313 267 -20 646 -20 C1025 -20 1171 313 1171 717 C1171 1120 1025 1454 646 1454 C267 1454 120 1120 120 717 L120 717 Z M186 717 C186 1094 304 1401 646 1401 C988 1401 1106 1094 1106 717 C1106 340 988 33 646 33 C304 33 186 340 186 717 L186 717 Z " />
<glyph glyph-name="one" unicode="1" horiz-adv-x="751" d="M379 1342 L379 58 L189 58 L189 0 L631 0 L631 58 L441 58 L441 1434 L387 1434 L70 1141 L113 1096 L379 1342 Z " />
<glyph glyph-name="two" unicode="2" horiz-adv-x="1161" d="M140 0 L1021 0 L1021 200 L959 200 L959 58 L224 58 C224 58 762 643 812 698 C939 842 1002 943 1002 1104 C1002 1327 850 1454 589 1454 C290 1454 184 1246 161 1177 L218 1157 C245 1225 333 1397 589 1397 C826 1397 940 1292 940 1104 C940 985 900 889 775 748 C713 678 140 58 140 58 L140 0 Z " />
<glyph glyph-name="three" unicode="3" horiz-adv-x="1136" d="M121 193 C119 193 184 -20 553 -20 C793 -20 1016 113 1016 385 C1016 723 653 743 645 744 C661 746 979 802 979 1098 C979 1342 774 1454 553 1454 C244 1454 159 1241 161 1240 L161 1103 L223 1103 L223 1221 C223 1221 301 1396 553 1396 C784 1396 915 1276 915 1098 C915 785 506 765 467 765 L467 707 C636 707 952 690 952 385 C952 157 771 38 553 38 C252 38 183 209 183 209 L183 330 L121 330 L121 193 Z " />
<glyph glyph-name="four" unicode="4" horiz-adv-x="1294" d="M887 406 L887 58 L697 58 L697 0 L1139 0 L1139 58 L949 58 L949 406 L1174 406 L1174 463 L949 463 L949 1434 L867 1434 L140 471 L140 406 L887 406 Z M210 463 L887 1356 L887 463 L210 463 Z " />
<glyph glyph-name="five" unicode="5" horiz-adv-x="1162" d="M942 1434 L202 1434 L161 680 C161 680 304 833 573 833 C902 833 958 588 958 434 C958 283 902 38 573 38 C304 38 202 166 202 166 L202 319 L140 319 L140 145 C140 145 233 -20 573 -20 C968 -20 1022 292 1022 434 C1022 579 968 891 573 891 C351 891 232 799 232 799 L263 1376 L942 1376 L942 1434 Z " />
<glyph glyph-name="six" unicode="6" horiz-adv-x="1216" d="M942 1426 C500 1541 84 1304 147 457 C158 310 210 -20 612 -20 C985 -20 1076 260 1076 457 C1076 653 985 934 612 934 C403 934 249 831 200 629 C208 1209 485 1463 880 1381 L880 1239 L942 1239 L942 1426 Z M1012 457 C1012 281 931 33 612 33 C292 33 211 281 211 457 C211 632 292 881 612 881 C931 881 1012 632 1012 457 L1012 457 Z " />
<glyph glyph-name="seven" unicode="7" horiz-adv-x="1157" d="M245 58 L245 0 L677 0 L677 58 L484 58 L1017 1376 L1017 1434 L140 1434 L140 1186 L202 1186 L202 1376 L947 1376 L414 58 L245 58 Z " />
<glyph glyph-name="eight" unicode="8" horiz-adv-x="1202" d="M601 1454 C355 1454 161 1323 161 1087 C161 899 284 783 438 748 C276 715 120 594 120 379 C120 100 346 -20 601 -20 C856 -20 1082 100 1082 379 C1082 594 926 715 764 748 C918 783 1041 899 1041 1087 C1041 1323 847 1454 601 1454 L601 1454 Z M1018 379 C1018 143 836 38 601 38 C366 38 184 143 184 379 C184 608 366 718 601 718 C836 718 1018 608 1018 379 L1018 379 Z M601 1396 C806 1396 977 1303 977 1087 C977 870 806 777 601 777 C396 777 225 870 225 1087 C225 1303 396 1396 601 1396 L601 1396 Z " />
<glyph glyph-name="nine" unicode="9" horiz-adv-x="1216" d="M274 8 C716 -107 1132 130 1069 977 C1058 1124 1006 1454 604 1454 C231 1454 140 1174 140 977 C140 781 231 500 604 500 C813 500 967 603 1016 805 C1008 225 731 -29 336 53 L336 195 L274 195 L274 8 Z M204 977 C204 1153 285 1401 604 1401 C924 1401 1005 1153 1005 977 C1005 802 924 553 604 553 C285 553 204 802 204 977 L204 977 Z " />
<glyph glyph-name="colon" unicode="&#x3a;" horiz-adv-x="354" d="M120 47 C120 16 146 -10 177 -10 C208 -10 234 16 234 47 C234 78 208 104 177 104 C146 104 120 78 120 47 L120 47 Z M120 935 C120 904 146 878 177 878 C208 878 234 904 234 935 C234 966 208 992 177 992 C146 992 120 966 120 935 L120 935 Z " />
<glyph glyph-name="semicolon" unicode="&#x3b;" horiz-adv-x="380" d="M20 -221 L76 -221 L244 147 L160 147 L20 -221 Z M146 935 C146 904 172 878 203 878 C234 878 260 904 260 935 C260 966 234 992 203 992 C172 992 146 966 146 935 L146 935 Z " />
<glyph glyph-name="less" unicode="&#x3c;" horiz-adv-x="1161" d="M120 643 L120 586 L1021 123 L1021 194 L190 614 L1021 1034 L1021 1106 L120 643 Z " />
<glyph glyph-name="equal" unicode="&#x3d;" horiz-adv-x="1002" d="M120 543 L882 543 L882 599 L120 599 L120 543 Z M120 835 L882 835 L882 891 L120 891 L120 835 Z " />
<glyph glyph-name="greater" unicode="&#x3e;" horiz-adv-x="1161" d="M140 1106 L140 1034 L972 614 L140 194 L140 123 L1041 586 L1041 643 L140 1106 Z " />
<glyph glyph-name="question" unicode="&#x3f;" horiz-adv-x="1068" d="M153 1178 C191 1251 293 1396 524 1396 C800 1396 904 1256 904 1060 C904 791 709 714 456 709 L456 307 L518 307 L518 658 C910 688 968 898 968 1060 C968 1277 838 1454 524 1454 C250 1454 133 1279 100 1211 L153 1178 Z M430 47 C430 16 456 -10 487 -10 C518 -10 544 16 544 47 C544 78 518 104 487 104 C456 104 430 78 430 47 L430 47 Z " />
<glyph glyph-name="at" unicode="&#x40;" horiz-adv-x="1654" d="M1374 69 C1245 -95 1038 -162 827 -162 C485 -162 186 99 186 517 C186 935 485 1196 827 1196 C1169 1196 1468 935 1468 517 C1468 357 1396 265 1284 265 C1073 265 1120 527 1138 838 C1077 863 1003 898 874 898 C761 898 494 837 456 521 C419 216 616 128 750 128 C989 128 1069 383 1079 448 C1079 448 1067 210 1284 210 C1440 210 1534 337 1534 517 C1534 961 1206 1254 827 1254 C448 1254 120 961 120 517 C120 72 448 -220 827 -220 C1059 -220 1293 -140 1426 36 L1374 69 Z M874 840 C946 840 1048 824 1077 799 C1077 799 1067 660 1054 560 C1024 306 895 185 752 185 C619 185 493 285 520 513 C550 763 745 840 874 840 L874 840 Z " />
<glyph glyph-name="A" unicode="A" horiz-adv-x="1737" d="M1225 0 L1657 0 L1657 58 L1482 58 L902 1434 L622 1434 L622 1376 L812 1376 L255 58 L80 58 L80 0 L512 0 L512 58 L323 58 L506 495 L1231 495 L1414 58 L1225 58 L1225 0 Z M869 1360 L1207 553 L531 553 L869 1360 Z " />
<glyph glyph-name="B" unicode="B" horiz-adv-x="1475" d="M330 1376 L330 58 L140 58 L140 0 L850 0 C1233 0 1355 199 1355 391 C1355 595 1228 724 1071 757 C1208 794 1294 926 1294 1079 C1294 1253 1200 1434 830 1434 L140 1434 L140 1376 L330 1376 Z M392 725 L940 725 C1179 725 1289 569 1289 391 C1289 213 1179 58 850 58 L392 58 L392 725 Z M392 783 L392 1376 L830 1376 C1156 1376 1228 1235 1228 1079 C1228 913 1126 783 940 783 L392 783 Z " />
<glyph glyph-name="C" unicode="C" horiz-adv-x="1369" d="M1229 1370 C1229 1370 1096 1454 826 1454 C367 1454 120 1120 120 717 C120 314 367 -20 826 -20 C1060 -20 1176 42 1229 79 L1192 126 C1126 88 1026 38 826 38 C404 38 186 340 186 717 C186 1094 404 1396 826 1396 C1048 1396 1167 1334 1167 1334 L1167 1185 L1229 1185 L1229 1370 Z " />
<glyph glyph-name="D" unicode="D" horiz-adv-x="1506" d="M330 1376 L330 58 L140 58 L140 0 L724 0 C1183 0 1406 313 1406 717 C1406 1120 1183 1434 724 1434 L140 1434 L140 1376 L330 1376 Z M392 1376 L724 1376 C1146 1376 1340 1094 1340 717 C1340 340 1146 58 724 58 L392 58 L392 1376 Z " />
<glyph glyph-name="E" unicode="E" horiz-adv-x="1390" d="M1178 1186 L1240 1186 L1240 1434 L140 1434 L140 1376 L330 1376 L330 58 L140 58 L140 0 L1250 0 L1250 200 L1188 200 L1188 58 L392 58 L392 705 L1100 705 L1100 763 L392 763 L392 1376 L1178 1376 L1178 1186 Z " />
<glyph glyph-name="F" unicode="F" horiz-adv-x="1380" d="M330 58 L140 58 L140 0 L582 0 L582 58 L392 58 L392 705 L1100 705 L1100 763 L392 763 L392 1376 L1178 1376 L1178 1186 L1240 1186 L1240 1434 L140 1434 L140 1376 L330 1376 L330 58 Z " />
<glyph glyph-name="G" unicode="G" horiz-adv-x="1460" d="M826 1396 C1095 1396 1238 1314 1238 1314 L1238 1185 L1300 1185 L1300 1347 C1300 1347 1150 1454 826 1454 C367 1454 120 1120 120 717 C120 313 367 -20 826 -20 C1020 -20 1182 34 1320 145 L1320 754 L863 754 L863 696 L1258 696 L1258 176 C1144 88 1004 38 826 38 C404 38 186 340 186 717 C186 1094 404 1396 826 1396 L826 1396 Z " />
<glyph glyph-name="H" unicode="H" horiz-adv-x="1675" d="M392 1376 L582 1376 L582 1434 L140 1434 L140 1376 L330 1376 L330 58 L140 58 L140 0 L582 0 L582 58 L392 58 L392 705 L1283 705 L1283 58 L1093 58 L1093 0 L1535 0 L1535 58 L1345 58 L1345 1376 L1535 1376 L1535 1434 L1093 1434 L1093 1376 L1283 1376 L1283 763 L392 763 L392 1376 Z " />
<glyph glyph-name="I" unicode="I" horiz-adv-x="722" d="M330 58 L140 58 L140 0 L582 0 L582 58 L392 58 L392 1376 L582 1376 L582 1434 L140 1434 L140 1376 L330 1376 L330 58 Z " />
<glyph glyph-name="J" unicode="J" horiz-adv-x="1158" d="M100 173 C153 68 259 -20 444 -20 C706 -20 828 131 828 422 L828 1376 L1018 1376 L1018 1434 L576 1434 L576 1376 L766 1376 L766 422 C766 182 684 38 444 38 C299 38 207 112 157 198 L100 173 Z " />
<glyph glyph-name="K" unicode="K" horiz-adv-x="1557" d="M1216 0 L1417 0 L1417 58 L1247 58 L670 822 L1245 1376 L1407 1376 L1407 1434 L975 1434 L975 1376 L1159 1376 L392 636 L392 1376 L582 1376 L582 1434 L140 1434 L140 1376 L330 1376 L330 58 L140 58 L140 0 L582 0 L582 58 L392 58 L392 554 L627 780 L1216 0 Z " />
<glyph glyph-name="L" unicode="L" horiz-adv-x="1290" d="M330 58 L140 58 L140 0 L1150 0 L1150 248 L1088 248 L1088 58 L392 58 L392 1376 L582 1376 L582 1434 L140 1434 L140 1376 L330 1376 L330 58 Z " />
<glyph glyph-name="M" unicode="M" horiz-adv-x="1996" d="M1666 58 L1666 1376 L1856 1376 L1856 1434 L1575 1434 L998 84 L421 1434 L140 1434 L140 1376 L330 1376 L330 58 L140 58 L140 0 L582 0 L582 58 L392 58 L392 1350 L969 0 L1027 0 L1604 1350 L1604 58 L1414 58 L1414 0 L1856 0 L1856 58 L1666 58 Z " />
<glyph glyph-name="N" unicode="N" horiz-adv-x="1691" d="M330 1376 L330 58 L140 58 L140 0 L582 0 L582 58 L392 58 L392 1354 L1279 0 L1361 0 L1361 1376 L1551 1376 L1551 1434 L1109 1434 L1109 1376 L1299 1376 L1299 80 L412 1434 L140 1434 L140 1376 L330 1376 Z " />
<glyph glyph-name="O" unicode="O" horiz-adv-x="1652" d="M120 717 C120 313 367 -20 826 -20 C1285 -20 1532 313 1532 717 C1532 1120 1285 1454 826 1454 C367 1454 120 1120 120 717 L120 717 Z M186 717 C186 1094 404 1396 826 1396 C1248 1396 1466 1094 1466 717 C1466 340 1248 38 826 38 C404 38 186 340 186 717 L186 717 Z " />
<glyph glyph-name="P" unicode="P" horiz-adv-x="1454" d="M330 58 L140 58 L140 0 L582 0 L582 58 L392 58 L392 610 L908 610 C1139 610 1334 760 1334 1022 C1334 1284 1139 1434 908 1434 L140 1434 L140 1376 L330 1376 L330 58 Z M908 1376 C1105 1376 1270 1254 1270 1022 C1270 790 1105 668 908 668 L392 668 L392 1376 L908 1376 Z " />
<glyph glyph-name="Q" unicode="Q" horiz-adv-x="1652" d="M120 717 C120 313 367 -20 826 -20 C965 -20 1084 11 1183 64 L1298 -70 L1378 -70 L1234 95 C1429 226 1532 457 1532 717 C1532 1120 1285 1454 826 1454 C367 1454 120 1120 120 717 L120 717 Z M186 717 C186 1094 404 1396 826 1396 C1248 1396 1466 1094 1466 717 C1466 472 1374 259 1194 140 L1054 301 L983 301 L1144 110 C1056 64 950 38 826 38 C404 38 186 340 186 717 L186 717 Z " />
<glyph glyph-name="R" unicode="R" horiz-adv-x="1469" d="M1136 0 L1349 0 L1349 58 L1173 58 L908 653 C1220 656 1314 844 1314 1043 C1314 1243 1199 1434 928 1434 L140 1434 L140 1376 L330 1376 L330 58 L140 58 L140 0 L582 0 L582 58 L392 58 L392 653 L845 653 L1136 0 Z M928 1376 C1169 1376 1250 1213 1250 1043 C1250 875 1169 711 928 711 L392 711 L392 1376 L928 1376 Z " />
<glyph glyph-name="S" unicode="S" horiz-adv-x="1285" d="M1060 1354 C1060 1354 925 1454 624 1454 C292 1454 181 1274 181 1090 C181 932 276 789 642 713 C999 639 1061 524 1061 369 C1061 172 928 38 645 38 C390 38 222 146 222 146 L222 301 L160 301 L160 111 C160 111 336 -20 645 -20 C948 -20 1125 121 1125 369 C1125 578 1011 704 648 778 C324 844 245 965 245 1090 C245 1286 387 1396 624 1396 C879 1396 998 1320 998 1320 L998 1186 L1060 1186 L1060 1354 Z " />
<glyph glyph-name="T" unicode="T" horiz-adv-x="1428" d="M140 1186 L202 1186 L202 1376 L683 1376 L683 58 L493 58 L493 0 L935 0 L935 58 L745 58 L745 1376 L1226 1376 L1226 1186 L1288 1186 L1288 1434 L140 1434 L140 1186 Z " />
<glyph glyph-name="U" unicode="U" horiz-adv-x="1708" d="M1378 585 L1378 1376 L1568 1376 L1568 1434 L1126 1434 L1126 1376 L1316 1376 L1316 585 C1316 223 1136 37 854 37 C572 37 392 223 392 585 L392 1376 L582 1376 L582 1434 L140 1434 L140 1376 L330 1376 L330 585 C330 170 552 -20 854 -20 C1156 -20 1378 170 1378 585 L1378 585 Z " />
<glyph glyph-name="V" unicode="V" horiz-adv-x="1660" d="M1580 1376 L1580 1434 L1148 1434 L1148 1376 L1337 1376 L830 74 L322 1376 L512 1376 L512 1434 L80 1434 L80 1376 L255 1376 L797 0 L863 0 L1405 1376 L1580 1376 Z " />
<glyph glyph-name="W" unicode="W" horiz-adv-x="2295" d="M512 1376 L512 1434 L80 1434 L80 1376 L259 1376 L692 0 L761 0 L1148 1370 L1534 0 L1603 0 L2036 1376 L2215 1376 L2215 1434 L1783 1434 L1783 1376 L1975 1376 L1570 78 L1188 1434 L1107 1434 L725 78 L320 1376 L512 1376 Z " />
<glyph glyph-name="X" unicode="X" horiz-adv-x="1618" d="M335 1434 L133 1434 L133 1376 L304 1376 L772 752 L251 58 L80 58 L80 0 L512 0 L512 58 L324 58 L809 709 L1337 0 L1538 0 L1538 58 L1366 58 L846 752 L1313 1376 L1485 1376 L1485 1434 L1053 1434 L1053 1376 L1240 1376 L809 796 L335 1434 Z " />
<glyph glyph-name="Y" unicode="Y" horiz-adv-x="1600" d="M769 594 L769 58 L579 58 L579 0 L1021 0 L1021 58 L831 58 L831 594 L1346 1376 L1520 1376 L1520 1434 L1088 1434 L1088 1376 L1277 1376 L800 652 L322 1376 L512 1376 L512 1434 L80 1434 L80 1376 L254 1376 L769 594 Z " />
<glyph glyph-name="Z" unicode="Z" horiz-adv-x="1324" d="M190 1186 L252 1186 L252 1376 L1093 1376 L140 37 L140 0 L1184 0 L1184 248 L1122 248 L1122 58 L231 58 L1184 1397 L1184 1434 L190 1434 L190 1186 Z " />
<glyph glyph-name="bracketleft" unicode="&#x5b;" horiz-adv-x="689" d="M232 1376 L559 1376 L559 1434 L170 1434 L170 -307 L559 -307 L559 -249 L232 -249 L232 1376 Z " />
<glyph glyph-name="backslash" unicode="&#x5c;" horiz-adv-x="1001" d="M202 1434 L140 1434 L800 0 L861 0 L202 1434 Z " />
<glyph glyph-name="bracketright" unicode="&#x5d;" horiz-adv-x="689" d="M457 -249 L130 -249 L130 -307 L519 -307 L519 1434 L130 1434 L130 1376 L457 1376 L457 -249 Z " />
<glyph glyph-name="asciicircum" unicode="&#x5e;" horiz-adv-x="937" d="M497 1434 L440 1434 L120 901 L178 901 L469 1362 L759 901 L817 901 L497 1434 Z " />
<glyph glyph-name="underscore" unicode="&#x5f;" horiz-adv-x="1148" d="M140 -210 L1008 -210 L1008 -156 L140 -156 L140 -210 Z " />
<glyph glyph-name="grave" unicode="&#x60;" horiz-adv-x="506" d="M184 1434 L100 1434 L351 1167 L406 1167 L184 1434 Z " />
<glyph glyph-name="a" unicode="a" horiz-adv-x="1199" d="M1079 54 L897 54 L897 582 C897 828 846 1002 530 1002 C389 1002 277 970 194 922 L221 872 C298 916 422 948 530 948 C805 948 831 824 839 592 C605 625 100 627 100 279 C100 72 255 -20 455 -20 C670 -20 783 102 839 248 L839 0 L1079 0 L1079 54 Z M162 279 C162 580 652 571 839 541 L839 432 C839 268 727 34 455 34 C273 34 162 122 162 279 L162 279 Z " />
<glyph glyph-name="b" unicode="b" horiz-adv-x="1328" d="M360 0 L360 282 C403 135 528 -20 763 -20 C1051 -20 1228 210 1228 491 C1228 772 1051 1002 763 1002 C528 1002 403 847 360 700 L360 1516 L120 1516 L120 1462 L302 1462 L302 0 L360 0 Z M360 491 C360 728 493 948 763 948 C1033 948 1166 728 1166 491 C1166 254 1033 34 763 34 C493 34 360 254 360 491 L360 491 Z " />
<glyph glyph-name="c" unicode="c" horiz-adv-x="1050" d="M872 755 L930 755 L930 922 C930 922 818 1002 590 1002 C287 1002 100 793 100 491 C100 189 287 -20 590 -20 C717 -20 848 4 930 81 L894 123 C810 56 701 34 590 34 C320 34 162 218 162 491 C162 764 320 948 590 948 C775 948 872 889 872 889 L872 755 Z " />
<glyph glyph-name="d" unicode="d" horiz-adv-x="1328" d="M968 282 L968 0 L1208 0 L1208 54 L1026 54 L1026 1516 L786 1516 L786 1462 L968 1462 L968 700 C925 847 800 1002 565 1002 C277 1002 100 772 100 491 C100 210 277 -20 565 -20 C800 -20 925 135 968 282 L968 282 Z M968 491 C968 254 835 34 565 34 C295 34 162 254 162 491 C162 728 295 948 565 948 C835 948 968 728 968 491 L968 491 Z " />
<glyph glyph-name="e" unicode="e" horiz-adv-x="1097" d="M549 34 C318 34 176 204 162 464 L997 464 C997 835 800 1002 549 1002 C277 1002 100 792 100 491 C100 189 277 -20 549 -20 C760 -20 879 60 930 105 L887 146 C838 106 727 34 549 34 L549 34 Z M162 518 C176 776 320 948 549 948 C788 948 922 776 935 518 L162 518 Z " />
<glyph glyph-name="f" unicode="f" horiz-adv-x="815" d="M323 928 L323 54 L141 54 L141 0 L563 0 L563 54 L381 54 L381 928 L703 928 L703 982 L381 982 L381 1077 C381 1278 371 1482 608 1482 C661 1482 712 1472 745 1462 L765 1513 C724 1527 675 1536 608 1536 C356 1536 323 1370 323 1077 L323 982 L100 982 L100 928 L323 928 Z " />
<glyph glyph-name="g" unicode="g" horiz-adv-x="1328" d="M1026 0 L1026 928 L1208 928 L1208 982 L968 982 L968 700 C925 847 800 1002 565 1002 C277 1002 100 772 100 491 C100 210 277 -20 565 -20 C800 -20 925 135 968 282 L968 0 C968 -341 809 -478 565 -478 C439 -478 320 -439 233 -381 L200 -427 C282 -488 415 -532 565 -532 C791 -532 1026 -425 1026 0 L1026 0 Z M968 491 C968 254 835 34 565 34 C295 34 162 254 162 491 C162 728 295 948 565 948 C835 948 968 728 968 491 L968 491 Z " />
<glyph glyph-name="h" unicode="h" horiz-adv-x="1408" d="M1048 520 L1048 0 L1288 0 L1288 54 L1106 54 L1106 520 C1106 812 986 1002 704 1002 C476 1002 393 862 360 765 L360 1516 L120 1516 L120 1462 L302 1462 L302 54 L120 54 L120 0 L542 0 L542 54 L360 54 L360 520 C360 771 448 948 704 948 C960 948 1048 771 1048 520 L1048 520 Z " />
<glyph glyph-name="i" unicode="i" horiz-adv-x="662" d="M302 928 L302 54 L120 54 L120 0 L542 0 L542 54 L360 54 L360 982 L120 982 L120 928 L302 928 Z M276 1288 C276 1258 301 1233 331 1233 C361 1233 386 1258 386 1288 C386 1318 361 1343 331 1343 C301 1343 276 1318 276 1288 L276 1288 Z " />
<glyph glyph-name="j" unicode="j" horiz-adv-x="462" d="M240 -74 C240 -299 230 -479 32 -479 C-8 -479 -55 -471 -84 -463 L-100 -513 C-65 -525 -15 -532 32 -532 C254 -532 298 -367 298 -74 L298 982 L58 982 L58 928 L240 928 L240 -74 Z M212 1288 C212 1258 237 1233 267 1233 C297 1233 322 1258 322 1288 C322 1318 297 1343 267 1343 C237 1343 212 1318 212 1288 L212 1288 Z " />
<glyph glyph-name="k" unicode="k" horiz-adv-x="1282" d="M1162 0 L1162 54 L1008 54 L606 589 L992 928 L1152 928 L1152 982 L730 982 L730 928 L905 928 L360 451 L360 1516 L120 1516 L120 1462 L302 1462 L302 54 L120 54 L120 0 L542 0 L542 54 L360 54 L360 375 L563 552 L977 0 L1162 0 Z " />
<glyph glyph-name="l" unicode="l" horiz-adv-x="662" d="M302 1462 L302 54 L120 54 L120 0 L542 0 L542 54 L360 54 L360 1516 L120 1516 L120 1462 L302 1462 Z " />
<glyph glyph-name="m" unicode="m" horiz-adv-x="2018" d="M980 520 L980 0 L1220 0 L1220 54 L1038 54 L1038 520 C1038 753 1093 948 1347 948 C1603 948 1658 763 1658 520 L1658 0 L1898 0 L1898 54 L1716 54 L1716 520 C1716 833 1603 1002 1347 1002 C1063 1002 1029 797 1013 734 C986 838 924 1002 669 1002 C390 1002 362 800 360 780 L360 982 L120 982 L120 928 L302 928 L302 54 L120 54 L120 0 L542 0 L542 54 L360 54 L360 537 C363 766 423 948 669 948 C925 948 980 763 980 520 L980 520 Z " />
<glyph glyph-name="n" unicode="n" horiz-adv-x="1408" d="M1048 520 L1048 0 L1288 0 L1288 54 L1106 54 L1106 520 C1106 812 986 1002 704 1002 C476 1002 393 862 360 765 L360 982 L120 982 L120 928 L302 928 L302 54 L120 54 L120 0 L542 0 L542 54 L360 54 L360 520 C360 771 448 948 704 948 C960 948 1048 771 1048 520 L1048 520 Z " />
<glyph glyph-name="o" unicode="o" horiz-adv-x="1180" d="M100 491 C100 189 287 -20 590 -20 C892 -20 1080 190 1080 491 C1080 793 892 1002 590 1002 C287 1002 100 792 100 491 L100 491 Z M162 491 C162 763 320 948 590 948 C859 948 1018 763 1018 491 C1018 218 859 34 590 34 C320 34 162 218 162 491 L162 491 Z " />
<glyph glyph-name="p" unicode="p" horiz-adv-x="1328" d="M120 982 L120 928 L302 928 L302 -478 L120 -478 L120 -532 L542 -532 L542 -478 L360 -478 L360 282 C403 135 528 -20 763 -20 C1051 -20 1228 210 1228 491 C1228 772 1051 1002 763 1002 C528 1002 403 847 360 700 L360 982 L120 982 Z M1166 491 C1166 254 1033 34 763 34 C493 34 360 254 360 491 C360 728 493 948 763 948 C1033 948 1166 728 1166 491 L1166 491 Z " />
<glyph glyph-name="q" unicode="q" horiz-adv-x="1328" d="M1026 -478 L1026 928 L1208 928 L1208 982 L968 982 L968 700 C925 847 800 1002 565 1002 C277 1002 100 772 100 491 C100 210 277 -20 565 -20 C800 -20 925 135 968 282 L968 -478 L786 -478 L786 -532 L1208 -532 L1208 -478 L1026 -478 Z M968 491 C968 254 835 34 565 34 C295 34 162 254 162 491 C162 728 295 948 565 948 C835 948 968 728 968 491 L968 491 Z " />
<glyph glyph-name="r" unicode="r" horiz-adv-x="937" d="M887 967 C836 990 775 1002 704 1002 C476 1002 393 862 360 765 L360 982 L120 982 L120 928 L302 928 L302 54 L120 54 L120 0 L542 0 L542 54 L360 54 L360 518 C360 771 448 948 704 948 C760 948 814 937 856 921 L887 967 Z " />
<glyph glyph-name="s" unicode="s" horiz-adv-x="976" d="M758 755 L816 755 L816 937 C816 937 690 1002 479 1002 C229 1002 134 886 134 758 C134 631 212 535 489 482 C733 435 798 353 798 251 C798 100 677 34 497 34 C300 34 178 110 178 110 L178 227 L120 227 L120 76 C120 76 254 -20 497 -20 C701 -20 856 55 856 251 C856 400 749 488 497 538 C257 586 192 654 192 758 C192 887 313 948 479 948 C642 948 758 898 758 898 L758 755 Z " />
<glyph glyph-name="t" unicode="t" horiz-adv-x="791" d="M80 928 L303 928 L303 438 C303 145 317 -20 589 -20 C636 -20 680 -13 711 -3 L695 48 C668 40 630 33 589 33 C351 33 361 197 361 438 L361 928 L683 928 L683 982 L361 982 L361 1282 L303 1282 L303 982 L80 982 L80 928 Z " />
<glyph glyph-name="u" unicode="u" horiz-adv-x="1408" d="M360 982 L120 982 L120 928 L302 928 L302 462 C302 170 422 -20 704 -20 C932 -20 1015 120 1048 217 L1048 0 L1288 0 L1288 54 L1106 54 L1106 982 L866 982 L866 928 L1048 928 L1048 462 C1048 211 960 34 704 34 C448 34 360 211 360 462 L360 982 Z " />
<glyph glyph-name="v" unicode="v" horiz-adv-x="1410" d="M673 0 L737 0 L1112 928 L1290 928 L1290 982 L868 982 L868 928 L1046 928 L705 68 L363 928 L542 928 L542 982 L120 982 L120 928 L298 928 L673 0 Z " />
<glyph glyph-name="w" unicode="w" horiz-adv-x="1920" d="M1620 928 L1800 928 L1800 982 L1378 982 L1378 928 L1558 928 L1280 78 L988 982 L932 982 L640 78 L361 928 L542 928 L542 982 L120 982 L120 928 L300 928 L609 0 L669 0 L960 892 L1251 0 L1311 0 L1620 928 Z " />
<glyph glyph-name="x" unicode="x" horiz-adv-x="1398" d="M1278 0 L1278 54 L1108 54 L735 509 L1078 928 L1242 928 L1242 982 L820 982 L820 928 L1006 928 L699 553 L348 982 L156 982 L156 928 L320 928 L663 509 L290 54 L120 54 L120 0 L542 0 L542 54 L361 54 L699 465 L1081 0 L1278 0 Z " />
<glyph glyph-name="y" unicode="y" horiz-adv-x="1410" d="M542 928 L542 982 L120 982 L120 928 L295 928 L675 0 L559 -276 C517 -368 459 -478 345 -478 L260 -478 L260 -532 L352 -532 C485 -532 559 -426 614 -294 L1115 928 L1290 928 L1290 982 L868 982 L868 928 L1047 928 L705 70 L362 928 L542 928 Z " />
<glyph glyph-name="z" unicode="z" horiz-adv-x="1012" d="M159 982 L159 755 L217 755 L217 928 L804 928 L120 33 L120 0 L892 0 L892 227 L834 227 L834 54 L208 54 L892 949 L892 982 L159 982 Z " />
<glyph glyph-name="braceleft" unicode="&#x7b;" horiz-adv-x="820" d="M120 575 C294 544 407 474 407 159 C407 -118 524 -267 700 -267 L700 -214 C567 -214 469 -87 469 165 C469 548 292 580 194 603 C292 626 469 658 469 1041 C469 1293 567 1420 700 1420 L700 1474 C524 1474 407 1324 407 1048 C407 732 294 663 120 632 L120 575 Z " />
<glyph glyph-name="bar" unicode="&#x7c;" horiz-adv-x="342" d="M140 -532 L202 -532 L202 1434 L140 1434 L140 -532 Z " />
<glyph glyph-name="braceright" unicode="&#x7d;" horiz-adv-x="820" d="M700 632 C526 663 413 732 413 1048 C413 1324 296 1474 120 1474 L120 1420 C253 1420 352 1293 352 1041 C352 658 528 626 626 603 C528 580 352 548 352 165 C352 -87 253 -214 120 -214 L120 -267 C296 -267 413 -118 413 159 C413 474 526 544 700 575 L700 632 Z " />
<glyph glyph-name="asciitilde" unicode="&#x7e;" horiz-adv-x="1030" d="M505 729 C532 693 581 623 709 623 C898 623 910 815 910 815 L848 815 C848 815 844 676 709 676 C597 676 563 745 525 795 C498 831 449 901 321 901 C132 901 120 709 120 709 L182 709 C182 709 186 848 321 848 C433 848 467 779 505 729 L505 729 Z " />
<glyph glyph-name="uni00A0" unicode="&#xa0;" horiz-adv-x="573" d="" />
<glyph glyph-name="exclamdown" unicode="&#xa1;" horiz-adv-x="394" d="M166 -532 L228 -532 L223 595 L171 595 L166 -532 Z M140 855 C140 824 166 798 197 798 C228 798 254 824 254 855 C254 886 228 912 197 912 C166 912 140 886 140 855 L140 855 Z " />
<glyph glyph-name="cent" unicode="&#xa2;" horiz-adv-x="1010" d="M872 755 L930 755 L930 922 C930 922 825 997 612 1002 L612 1175 L555 1175 L555 1001 C272 985 100 781 100 491 C100 201 272 -3 555 -19 L555 -193 L612 -193 L612 -20 C732 -17 852 8 930 81 L894 123 C810 56 701 34 590 34 C320 34 162 218 162 491 C162 764 320 948 590 948 C775 948 872 889 872 889 L872 755 Z " />
<glyph glyph-name="sterling" unicode="&#xa3;" horiz-adv-x="1276" d="M140 705 L284 705 L328 451 C368 205 200 58 200 58 L200 0 L1113 0 L1113 58 L272 58 C272 58 431 208 390 456 L348 705 L851 705 L851 763 L339 763 C339 763 316 868 316 987 C316 1225 439 1396 716 1396 C977 1396 1074 1209 1074 1209 L1074 1103 L1136 1103 L1136 1226 C1136 1226 1043 1454 716 1454 C358 1454 252 1202 252 987 C252 878 275 763 275 763 L140 763 L140 705 Z " />
<glyph glyph-name="currency" unicode="&#xa4;" horiz-adv-x="1058" d="M767 1308 C703 1362 620 1395 530 1395 C440 1395 357 1362 292 1308 L165 1434 L122 1391 L248 1264 C194 1200 161 1116 161 1026 C161 936 193 853 247 789 L120 662 L165 618 L290 745 C355 690 439 657 530 657 C620 657 704 690 768 744 L895 618 L938 662 L812 788 C866 853 899 936 899 1026 C899 1116 866 1200 811 1264 L938 1391 L892 1434 L767 1308 Z M217 1026 C217 1198 358 1339 530 1339 C702 1339 843 1198 843 1026 C843 854 702 713 530 713 C358 713 217 854 217 1026 L217 1026 Z " />
<glyph glyph-name="yen" unicode="&#xa5;" horiz-adv-x="1680" d="M1221 537 L1221 594 L871 594 L1386 1376 L1560 1376 L1560 1434 L1128 1434 L1128 1376 L1317 1376 L840 652 L362 1376 L552 1376 L552 1434 L120 1434 L120 1376 L294 1376 L809 594 L459 594 L459 537 L809 537 L809 388 L459 388 L459 330 L809 330 L809 58 L619 58 L619 0 L1061 0 L1061 58 L871 58 L871 330 L1221 330 L1221 388 L871 388 L871 537 L1221 537 Z " />
<glyph glyph-name="brokenbar" unicode="&#xa6;" horiz-adv-x="342" d="M140 676 L202 676 L202 1434 L140 1434 L140 676 Z M140 -532 L202 -532 L202 226 L140 226 L140 -532 Z " />
<glyph glyph-name="section" unicode="&#xa7;" horiz-adv-x="1285" d="M1125 369 C1125 578 1011 704 648 778 C324 844 245 965 245 1090 C245 1286 387 1396 624 1396 C879 1396 998 1320 998 1320 L998 1186 L1060 1186 L1060 1354 C1060 1354 925 1454 624 1454 C292 1454 181 1274 181 1090 C181 1002 210 919 298 850 C208 783 160 683 160 553 C160 344 274 218 637 144 C961 78 1040 -43 1040 -168 C1040 -364 898 -474 661 -474 C406 -474 287 -398 287 -398 L287 -264 L225 -264 L225 -432 C225 -432 360 -532 661 -532 C993 -532 1104 -352 1104 -168 C1104 -80 1075 2 986 72 C1077 138 1125 239 1125 369 L1125 369 Z M642 713 C999 639 1061 524 1061 369 C1061 258 1018 167 931 109 C862 149 769 183 643 209 C286 283 224 398 224 553 C224 664 266 754 353 813 C422 773 516 739 642 713 L642 713 Z " />
<glyph glyph-name="dieresis" unicode="&#xa8;" horiz-adv-x="690" d="M120 1288 C120 1258 145 1233 175 1233 C205 1233 230 1258 230 1288 C230 1318 205 1343 175 1343 C145 1343 120 1318 120 1288 L120 1288 Z M460 1288 C460 1258 485 1233 515 1233 C545 1233 570 1258 570 1288 C570 1318 545 1343 515 1343 C485 1343 460 1318 460 1288 L460 1288 Z " />
<glyph glyph-name="copyright" unicode="&#xa9;" horiz-adv-x="1714" d="M495 717 C495 934 652 1100 849 1100 C949 1100 1005 1090 1089 1030 L1115 1069 C1033 1130 955 1149 849 1149 C624 1149 437 956 437 717 C437 475 624 284 849 284 C955 284 1033 301 1115 362 L1089 401 C1005 342 949 332 849 332 C652 332 495 500 495 717 L495 717 Z M120 717 C120 309 450 -20 857 -20 C1265 -20 1594 309 1594 717 C1594 1124 1265 1454 857 1454 C450 1454 120 1124 120 717 L120 717 Z M182 717 C182 1094 480 1396 857 1396 C1234 1396 1532 1094 1532 717 C1532 340 1234 38 857 38 C480 38 182 340 182 717 L182 717 Z " />
<glyph glyph-name="ordfeminine" unicode="&#xaa;" horiz-adv-x="761" d="M537 714 L701 714 L701 763 L590 763 L590 1143 C590 1325 541 1444 346 1444 C221 1444 129 1394 129 1394 L152 1350 C152 1350 246 1395 346 1395 C508 1395 537 1309 537 1162 C254 1191 60 1132 60 928 C60 771 163 704 299 704 C430 704 509 771 537 856 L537 714 Z M113 928 C113 1099 299 1140 537 1117 L537 1006 C537 862 458 753 299 753 C191 753 113 805 113 928 L113 928 Z " />
<glyph glyph-name="guillemotleft" unicode="&#xab;" horiz-adv-x="1307" d="M120 643 L120 586 L714 123 L714 201 L192 614 L714 1028 L714 1106 L120 643 Z M573 643 L573 586 L1167 123 L1167 201 L645 614 L1167 1028 L1167 1106 L573 643 Z " />
<glyph glyph-name="logicalnot" unicode="&#xac;" horiz-adv-x="1186" d="M120 720 L1004 720 L1004 303 L1066 303 L1066 778 L120 778 L120 720 Z " />
<glyph glyph-name="uni00AD" unicode="&#xad;" horiz-adv-x="982" d="M120 614 L862 614 L862 668 L120 668 L120 614 Z " />
<glyph glyph-name="registered" unicode="&#xae;" horiz-adv-x="1084" d="M433 754 L433 992 L549 992 L694 754 L740 754 L595 992 C675 999 723 1057 723 1131 C723 1205 682 1270 587 1270 L392 1270 L392 754 L433 754 Z M587 1231 C648 1231 680 1190 680 1131 C680 1072 648 1031 587 1031 L433 1031 L433 1231 L587 1231 Z M100 1012 C100 768 298 570 542 570 C786 570 984 768 984 1012 C984 1256 786 1454 542 1454 C298 1454 100 1256 100 1012 L100 1012 Z M144 1012 C144 1232 322 1410 542 1410 C762 1410 940 1232 940 1012 C940 792 762 614 542 614 C322 614 144 792 144 1012 L144 1012 Z " />
<glyph glyph-name="macron" unicode="&#xaf;" horiz-adv-x="860" d="M100 1380 L760 1380 L760 1434 L100 1434 L100 1380 Z " />
<glyph glyph-name="degree" unicode="&#xb0;" horiz-adv-x="512" d="M50 1227 C50 1113 141 1020 255 1020 C370 1020 462 1113 462 1227 C462 1341 370 1434 255 1434 C141 1434 50 1341 50 1227 L50 1227 Z M89 1227 C89 1319 163 1393 255 1393 C347 1393 421 1319 421 1227 C421 1135 347 1061 255 1061 C163 1061 89 1135 89 1227 L89 1227 Z " />
<glyph glyph-name="plusminus" unicode="&#xb1;" horiz-adv-x="1166" d="M1046 887 L614 887 L614 1320 L552 1320 L552 887 L120 887 L120 829 L552 829 L552 395 L614 395 L614 829 L1046 829 L1046 887 Z M1046 229 L120 229 L120 171 L1046 171 L1046 229 Z " />
<glyph glyph-name="twosuperior" unicode="&#xb2;" horiz-adv-x="557" d="M444 867 L444 763 L137 763 C137 763 347 1012 369 1038 C428 1107 479 1177 479 1271 C479 1384 404 1444 292 1444 C122 1444 81 1292 81 1292 L130 1273 C130 1273 167 1395 292 1395 C386 1395 425 1348 425 1271 C425 1194 375 1129 328 1072 C314 1055 60 755 60 755 L60 714 L497 714 L497 867 L444 867 Z " />
<glyph glyph-name="threesuperior" unicode="&#xb3;" horiz-adv-x="548" d="M68 1337 L68 1245 L121 1245 L121 1324 C135 1348 179 1395 269 1395 C377 1395 416 1336 416 1269 C416 1159 314 1118 218 1118 L218 1069 C315 1069 435 1047 435 907 C435 801 363 753 269 753 C178 753 132 792 113 814 L113 888 L60 888 L60 798 C60 798 107 704 269 704 C385 704 488 760 488 907 C488 1030 394 1086 329 1096 C380 1102 469 1160 469 1269 C469 1375 399 1444 269 1444 C115 1444 68 1337 68 1337 L68 1337 Z " />
<glyph glyph-name="acute" unicode="&#xb4;" horiz-adv-x="506" d="M100 1167 L156 1167 L406 1434 L322 1434 L100 1167 Z " />
<glyph glyph-name="mu" unicode="&#xb5;" horiz-adv-x="1408" d="M302 928 L302 -478 L120 -478 L120 -532 L542 -532 L542 -478 L360 -478 L360 171 C421 50 532 -20 704 -20 C932 -20 1015 120 1048 217 L1048 0 L1288 0 L1288 54 L1106 54 L1106 982 L866 982 L866 928 L1048 928 L1048 462 C1048 211 960 34 704 34 C448 34 360 211 360 462 L360 982 L120 982 L120 928 L302 928 Z " />
<glyph glyph-name="paragraph" unicode="&#xb6;" horiz-adv-x="1113" d="M485 1434 C230 1434 120 1251 120 1051 C120 851 230 668 485 668 L673 668 L673 0 L735 0 L735 1376 L837 1376 L837 0 L899 0 L899 1376 L993 1376 L993 1434 L485 1434 Z M673 1376 L673 726 L485 726 C265 726 184 881 184 1051 C184 1221 265 1376 485 1376 L673 1376 Z " />
<glyph glyph-name="periodcentered" unicode="&#xb7;" horiz-adv-x="355" d="M120 672 C120 641 147 614 178 614 C208 614 235 641 235 672 C235 702 208 729 178 729 C147 729 120 702 120 672 L120 672 Z " />
<glyph glyph-name="cedilla" unicode="&#xb8;" horiz-adv-x="543" d="M100 -399 C225 -461 428 -451 442 -279 C451 -165 352 -124 246 -131 L299 20 L242 20 L170 -185 C272 -168 395 -172 385 -279 C372 -412 208 -392 122 -354 L100 -399 Z " />
<glyph glyph-name="onesuperior" unicode="&#xb9;" horiz-adv-x="442" d="M218 1347 L218 763 L107 763 L107 714 L382 714 L382 763 L271 763 L271 1434 L230 1434 L60 1274 L98 1234 L218 1347 Z " />
<glyph glyph-name="ordmasculine" unicode="&#xba;" horiz-adv-x="738" d="M369 704 C571 704 678 858 678 1074 C678 1290 571 1444 369 1444 C167 1444 60 1290 60 1074 C60 858 167 704 369 704 L369 704 Z M369 753 C203 753 115 879 115 1074 C115 1269 203 1395 369 1395 C535 1395 623 1269 623 1074 C623 879 535 753 369 753 L369 753 Z " />
<glyph glyph-name="guillemotright" unicode="&#xbb;" horiz-adv-x="1307" d="M593 1106 L593 1028 L1116 614 L593 201 L593 123 L1187 586 L1187 643 L593 1106 Z M140 1106 L140 1028 L663 614 L140 201 L140 123 L734 586 L734 643 L140 1106 Z " />
<glyph glyph-name="onequarter" unicode="&#xbc;" horiz-adv-x="1319" d="M904 0 L1179 0 L1179 49 L1068 49 L1068 200 L1179 200 L1179 249 L1068 249 L1068 720 L1009 720 L662 247 L662 200 L1015 200 L1015 49 L904 49 L904 0 Z M178 0 L239 0 L1063 1434 L1002 1434 L178 0 Z M298 1347 L298 763 L187 763 L187 714 L462 714 L462 763 L351 763 L351 1434 L310 1434 L140 1274 L178 1234 L298 1347 Z M728 249 L1015 636 L1015 249 L728 249 Z " />
<glyph glyph-name="onehalf" unicode="&#xbd;" horiz-adv-x="1380" d="M176 0 L241 0 L1065 1434 L1000 1434 L176 0 Z M178 1234 L298 1347 L298 763 L187 763 L187 714 L462 714 L462 763 L351 763 L351 1434 L310 1434 L140 1274 L178 1234 Z M1187 153 L1187 49 L880 49 C880 49 1090 299 1112 325 C1171 394 1222 464 1222 558 C1222 671 1147 730 1035 730 C865 730 824 579 824 579 L873 560 C873 560 910 681 1035 681 C1129 681 1168 635 1168 558 C1168 481 1118 416 1071 359 C1057 342 803 41 803 41 L803 0 L1240 0 L1240 153 L1187 153 Z " />
<glyph glyph-name="threequarters" unicode="&#xbe;" horiz-adv-x="1462" d="M305 0 L370 0 L1194 1434 L1129 1434 L305 0 Z M1047 0 L1322 0 L1322 49 L1211 49 L1211 201 L1322 201 L1322 250 L1211 250 L1211 720 L1152 720 L805 248 L805 201 L1158 201 L1158 49 L1047 49 L1047 0 Z M871 250 L1158 636 L1158 250 L871 250 Z M148 1337 L148 1245 L201 1245 L201 1324 C215 1348 259 1395 349 1395 C457 1395 496 1336 496 1269 C496 1159 394 1118 298 1118 L298 1069 C395 1069 515 1051 515 911 C515 805 453 753 349 753 C258 753 212 792 193 814 L193 888 L140 888 L140 798 C140 798 187 704 349 704 C473 704 568 764 568 911 C568 1034 474 1086 409 1096 C460 1102 549 1160 549 1269 C549 1375 479 1444 349 1444 C195 1444 148 1337 148 1337 L148 1337 Z " />
<glyph glyph-name="questiondown" unicode="&#xbf;" horiz-adv-x="908" d="M835 -276 C797 -349 695 -494 464 -494 C188 -494 84 -354 84 -158 C84 111 279 188 532 193 L532 595 L470 595 L470 244 C78 214 20 4 20 -158 C20 -375 150 -552 464 -552 C738 -552 855 -377 888 -309 L835 -276 Z M558 855 C558 886 532 912 501 912 C470 912 444 886 444 855 C444 824 470 798 501 798 C532 798 558 824 558 855 L558 855 Z " />
<glyph glyph-name="Agrave" unicode="&#xc0;" horiz-adv-x="1737" d="M653 1803 L569 1803 L820 1536 L875 1536 L653 1803 Z M1225 0 L1657 0 L1657 58 L1482 58 L902 1434 L622 1434 L622 1376 L812 1376 L255 58 L80 58 L80 0 L512 0 L512 58 L323 58 L506 495 L1231 495 L1414 58 L1225 58 L1225 0 Z M869 1360 L1207 553 L531 553 L869 1360 Z " />
<glyph glyph-name="Aacute" unicode="&#xc1;" horiz-adv-x="1737" d="M843 1536 L899 1536 L1149 1803 L1065 1803 L843 1536 Z M1225 0 L1657 0 L1657 58 L1482 58 L902 1434 L622 1434 L622 1376 L812 1376 L255 58 L80 58 L80 0 L512 0 L512 58 L323 58 L506 495 L1231 495 L1414 58 L1225 58 L1225 0 Z M869 1360 L1207 553 L531 553 L869 1360 Z " />
<glyph glyph-name="Acircumflex" unicode="&#xc2;" horiz-adv-x="1737" d="M898 1803 L840 1803 L623 1536 L681 1536 L869 1745 L1058 1536 L1115 1536 L898 1803 Z M1225 0 L1657 0 L1657 58 L1482 58 L902 1434 L622 1434 L622 1376 L812 1376 L255 58 L80 58 L80 0 L512 0 L512 58 L323 58 L506 495 L1231 495 L1414 58 L1225 58 L1225 0 Z M869 1360 L1207 553 L531 553 L869 1360 Z " />
<glyph glyph-name="Atilde" unicode="&#xc3;" horiz-adv-x="1737" d="M856 1612 C887 1579 930 1536 995 1536 C1124 1536 1131 1675 1131 1675 L1077 1675 C1077 1675 1075 1585 995 1585 C942 1585 907 1630 883 1655 C852 1688 809 1731 744 1731 C615 1731 608 1591 608 1591 L662 1591 C662 1591 664 1681 744 1681 C797 1681 832 1636 856 1612 L856 1612 Z M1225 0 L1657 0 L1657 58 L1482 58 L902 1434 L622 1434 L622 1376 L812 1376 L255 58 L80 58 L80 0 L512 0 L512 58 L323 58 L506 495 L1231 495 L1414 58 L1225 58 L1225 0 Z M869 1360 L1207 553 L531 553 L869 1360 Z " />
<glyph glyph-name="Adieresis" unicode="&#xc4;" horiz-adv-x="1737" d="M644 1611 C644 1581 669 1556 699 1556 C729 1556 754 1581 754 1611 C754 1641 729 1666 699 1666 C669 1666 644 1641 644 1611 L644 1611 Z M984 1611 C984 1581 1009 1556 1039 1556 C1069 1556 1094 1581 1094 1611 C1094 1641 1069 1666 1039 1666 C1009 1666 984 1641 984 1611 L984 1611 Z M1225 0 L1657 0 L1657 58 L1482 58 L902 1434 L622 1434 L622 1376 L812 1376 L255 58 L80 58 L80 0 L512 0 L512 58 L323 58 L506 495 L1231 495 L1414 58 L1225 58 L1225 0 Z M869 1360 L1207 553 L531 553 L869 1360 Z " />
<glyph glyph-name="Aring" unicode="&#xc5;" horiz-adv-x="1737" d="M715 1690 C715 1606 785 1536 869 1536 C953 1536 1023 1606 1023 1690 C1023 1774 953 1844 869 1844 C785 1844 715 1774 715 1690 L715 1690 Z M756 1690 C756 1753 806 1805 869 1805 C932 1805 982 1753 982 1690 C982 1627 932 1575 869 1575 C806 1575 756 1627 756 1690 L756 1690 Z M1225 0 L1657 0 L1657 58 L1482 58 L902 1434 L622 1434 L622 1376 L812 1376 L255 58 L80 58 L80 0 L512 0 L512 58 L323 58 L506 495 L1231 495 L1414 58 L1225 58 L1225 0 Z M869 1360 L1207 553 L531 553 L869 1360 Z " />
<glyph glyph-name="AE" unicode="&#xc6;" horiz-adv-x="2318" d="M2168 1434 L1008 1434 L1008 1376 L1198 1376 L313 58 L140 58 L140 0 L572 0 L572 58 L387 58 L711 541 L1258 541 L1258 0 L2178 0 L2178 200 L2116 200 L2116 58 L1320 58 L1320 705 L2028 705 L2028 763 L1320 763 L1320 1376 L2106 1376 L2106 1186 L2168 1186 L2168 1434 Z M1258 1356 L1258 599 L751 599 L1258 1356 Z " />
<glyph glyph-name="Ccedilla" unicode="&#xc7;" horiz-adv-x="1369" d="M1229 1370 C1229 1370 1096 1454 826 1454 C367 1454 120 1120 120 717 C120 331 346 8 769 -18 L711 -185 C813 -168 936 -172 926 -279 C913 -412 749 -392 663 -354 L641 -399 C766 -461 969 -451 983 -279 C992 -165 893 -124 787 -131 L826 -20 C1060 -20 1176 42 1229 79 L1192 126 C1126 88 1026 38 826 38 C404 38 186 340 186 717 C186 1094 404 1396 826 1396 C1048 1396 1167 1334 1167 1334 L1167 1185 L1229 1185 L1229 1370 Z " />
<glyph glyph-name="Egrave" unicode="&#xc8;" horiz-adv-x="1390" d="M521 1803 L437 1803 L688 1536 L743 1536 L521 1803 Z M1178 1186 L1240 1186 L1240 1434 L140 1434 L140 1376 L330 1376 L330 58 L140 58 L140 0 L1250 0 L1250 200 L1188 200 L1188 58 L392 58 L392 705 L1100 705 L1100 763 L392 763 L392 1376 L1178 1376 L1178 1186 Z " />
<glyph glyph-name="Eacute" unicode="&#xc9;" horiz-adv-x="1390" d="M647 1536 L703 1536 L953 1803 L869 1803 L647 1536 Z M1178 1186 L1240 1186 L1240 1434 L140 1434 L140 1376 L330 1376 L330 58 L140 58 L140 0 L1250 0 L1250 200 L1188 200 L1188 58 L392 58 L392 705 L1100 705 L1100 763 L392 763 L392 1376 L1178 1376 L1178 1186 Z " />
<glyph glyph-name="Ecircumflex" unicode="&#xca;" horiz-adv-x="1390" d="M758 1803 L700 1803 L483 1536 L541 1536 L729 1745 L918 1536 L975 1536 L758 1803 Z M1178 1186 L1240 1186 L1240 1434 L140 1434 L140 1376 L330 1376 L330 58 L140 58 L140 0 L1250 0 L1250 200 L1188 200 L1188 58 L392 58 L392 705 L1100 705 L1100 763 L392 763 L392 1376 L1178 1376 L1178 1186 Z " />
<glyph glyph-name="Edieresis" unicode="&#xcb;" horiz-adv-x="1390" d="M495 1611 C495 1581 520 1556 550 1556 C580 1556 605 1581 605 1611 C605 1641 580 1666 550 1666 C520 1666 495 1641 495 1611 L495 1611 Z M835 1611 C835 1581 860 1556 890 1556 C920 1556 945 1581 945 1611 C945 1641 920 1666 890 1666 C860 1666 835 1641 835 1611 L835 1611 Z M1178 1186 L1240 1186 L1240 1434 L140 1434 L140 1376 L330 1376 L330 58 L140 58 L140 0 L1250 0 L1250 200 L1188 200 L1188 58 L392 58 L392 705 L1100 705 L1100 763 L392 763 L392 1376 L1178 1376 L1178 1186 Z " />
<glyph glyph-name="Igrave" unicode="&#xcc;" horiz-adv-x="699" d="M184 1803 L100 1803 L351 1536 L406 1536 L184 1803 Z M347 58 L157 58 L157 0 L599 0 L599 58 L409 58 L409 1376 L599 1376 L599 1434 L157 1434 L157 1376 L347 1376 L347 58 Z " />
<glyph glyph-name="Iacute" unicode="&#xcd;" horiz-adv-x="730" d="M324 1536 L380 1536 L630 1803 L546 1803 L324 1536 Z M330 58 L140 58 L140 0 L582 0 L582 58 L392 58 L392 1376 L582 1376 L582 1434 L140 1434 L140 1376 L330 1376 L330 58 Z " />
<glyph glyph-name="Icircumflex" unicode="&#xce;" horiz-adv-x="692" d="M375 1803 L317 1803 L100 1536 L158 1536 L346 1745 L535 1536 L592 1536 L375 1803 Z M315 58 L125 58 L125 0 L567 0 L567 58 L377 58 L377 1376 L567 1376 L567 1434 L125 1434 L125 1376 L315 1376 L315 58 Z " />
<glyph glyph-name="Idieresis" unicode="&#xcf;" horiz-adv-x="650" d="M100 1611 C100 1581 125 1556 155 1556 C185 1556 210 1581 210 1611 C210 1641 185 1666 155 1666 C125 1666 100 1641 100 1611 L100 1611 Z M440 1611 C440 1581 465 1556 495 1556 C525 1556 550 1581 550 1611 C550 1641 525 1666 495 1666 C465 1666 440 1641 440 1611 L440 1611 Z M294 58 L104 58 L104 0 L546 0 L546 58 L356 58 L356 1376 L546 1376 L546 1434 L104 1434 L104 1376 L294 1376 L294 58 Z " />
<glyph glyph-name="Eth" unicode="&#xd0;" horiz-adv-x="1516" d="M340 1376 L340 745 L140 745 L140 688 L340 688 L340 58 L150 58 L150 0 L734 0 C1193 0 1416 313 1416 717 C1416 1120 1193 1434 734 1434 L150 1434 L150 1376 L340 1376 Z M402 1376 L734 1376 C1156 1376 1350 1094 1350 717 C1350 340 1156 58 734 58 L402 58 L402 688 L779 688 L779 745 L402 745 L402 1376 Z " />
<glyph glyph-name="Ntilde" unicode="&#xd1;" horiz-adv-x="1691" d="M832 1612 C863 1579 906 1536 971 1536 C1100 1536 1107 1675 1107 1675 L1053 1675 C1053 1675 1051 1585 971 1585 C918 1585 883 1630 859 1655 C828 1688 785 1731 720 1731 C591 1731 584 1591 584 1591 L638 1591 C638 1591 640 1681 720 1681 C773 1681 808 1636 832 1612 L832 1612 Z M330 1376 L330 58 L140 58 L140 0 L582 0 L582 58 L392 58 L392 1354 L1279 0 L1361 0 L1361 1376 L1551 1376 L1551 1434 L1109 1434 L1109 1376 L1299 1376 L1299 80 L412 1434 L140 1434 L140 1376 L330 1376 Z " />
<glyph glyph-name="Ograve" unicode="&#xd2;" horiz-adv-x="1652" d="M120 717 C120 313 367 -20 826 -20 C1285 -20 1532 313 1532 717 C1532 1120 1285 1454 826 1454 C367 1454 120 1120 120 717 L120 717 Z M186 717 C186 1094 404 1396 826 1396 C1248 1396 1466 1094 1466 717 C1466 340 1248 38 826 38 C404 38 186 340 186 717 L186 717 Z M644 1803 L560 1803 L811 1536 L866 1536 L644 1803 Z " />
<glyph glyph-name="Oacute" unicode="&#xd3;" horiz-adv-x="1652" d="M120 717 C120 313 367 -20 826 -20 C1285 -20 1532 313 1532 717 C1532 1120 1285 1454 826 1454 C367 1454 120 1120 120 717 L120 717 Z M186 717 C186 1094 404 1396 826 1396 C1248 1396 1466 1094 1466 717 C1466 340 1248 38 826 38 C404 38 186 340 186 717 L186 717 Z M760 1536 L816 1536 L1066 1803 L982 1803 L760 1536 Z " />
<glyph glyph-name="Ocircumflex" unicode="&#xd4;" horiz-adv-x="1652" d="M120 717 C120 313 367 -20 826 -20 C1285 -20 1532 313 1532 717 C1532 1120 1285 1454 826 1454 C367 1454 120 1120 120 717 L120 717 Z M186 717 C186 1094 404 1396 826 1396 C1248 1396 1466 1094 1466 717 C1466 340 1248 38 826 38 C404 38 186 340 186 717 L186 717 Z M855 1803 L797 1803 L580 1536 L638 1536 L826 1745 L1015 1536 L1072 1536 L855 1803 Z " />
<glyph glyph-name="Otilde" unicode="&#xd5;" horiz-adv-x="1652" d="M120 717 C120 313 367 -20 826 -20 C1285 -20 1532 313 1532 717 C1532 1120 1285 1454 826 1454 C367 1454 120 1120 120 717 L120 717 Z M186 717 C186 1094 404 1396 826 1396 C1248 1396 1466 1094 1466 717 C1466 340 1248 38 826 38 C404 38 186 340 186 717 L186 717 Z M813 1612 C844 1579 887 1536 952 1536 C1081 1536 1088 1675 1088 1675 L1034 1675 C1034 1675 1032 1585 952 1585 C899 1585 864 1630 840 1655 C809 1688 766 1731 701 1731 C572 1731 565 1591 565 1591 L619 1591 C619 1591 621 1681 701 1681 C754 1681 789 1636 813 1612 L813 1612 Z " />
<glyph glyph-name="Odieresis" unicode="&#xd6;" horiz-adv-x="1652" d="M120 717 C120 313 367 -20 826 -20 C1285 -20 1532 313 1532 717 C1532 1120 1285 1454 826 1454 C367 1454 120 1120 120 717 L120 717 Z M186 717 C186 1094 404 1396 826 1396 C1248 1396 1466 1094 1466 717 C1466 340 1248 38 826 38 C404 38 186 340 186 717 L186 717 Z M601 1611 C601 1581 626 1556 656 1556 C686 1556 711 1581 711 1611 C711 1641 686 1666 656 1666 C626 1666 601 1641 601 1611 L601 1611 Z M941 1611 C941 1581 966 1556 996 1556 C1026 1556 1051 1581 1051 1611 C1051 1641 1026 1666 996 1666 C966 1666 941 1641 941 1611 L941 1611 Z " />
<glyph glyph-name="multiply" unicode="&#xd7;" horiz-adv-x="1037" d="M518 634 L876 279 L917 319 L559 675 L917 1032 L876 1073 L518 716 L161 1073 L120 1032 L477 675 L120 319 L161 279 L518 634 Z " />
<glyph glyph-name="Oslash" unicode="&#xd8;" horiz-adv-x="1652" d="M120 717 C120 433 241 185 472 62 L412 -61 L478 -61 L526 37 C613 0 713 -20 826 -20 C1285 -20 1532 313 1532 717 C1532 1000 1410 1249 1179 1372 L1239 1495 L1174 1495 L1126 1397 C1039 1433 939 1454 826 1454 C367 1454 120 1120 120 717 L120 717 Z M826 38 C722 38 630 56 551 89 L1153 1319 C1360 1206 1466 980 1466 717 C1466 340 1248 38 826 38 L826 38 Z M186 717 C186 1094 404 1396 826 1396 C930 1396 1021 1378 1100 1344 L498 115 C292 228 186 454 186 717 L186 717 Z " />
<glyph glyph-name="Ugrave" unicode="&#xd9;" horiz-adv-x="1708" d="M675 1803 L591 1803 L842 1536 L897 1536 L675 1803 Z M1378 585 L1378 1376 L1568 1376 L1568 1434 L1126 1434 L1126 1376 L1316 1376 L1316 585 C1316 223 1136 37 854 37 C572 37 392 223 392 585 L392 1376 L582 1376 L582 1434 L140 1434 L140 1376 L330 1376 L330 585 C330 170 552 -20 854 -20 C1156 -20 1378 170 1378 585 L1378 585 Z " />
<glyph glyph-name="Uacute" unicode="&#xda;" horiz-adv-x="1708" d="M808 1536 L864 1536 L1114 1803 L1030 1803 L808 1536 Z M1378 585 L1378 1376 L1568 1376 L1568 1434 L1126 1434 L1126 1376 L1316 1376 L1316 585 C1316 223 1136 37 854 37 C572 37 392 223 392 585 L392 1376 L582 1376 L582 1434 L140 1434 L140 1376 L330 1376 L330 585 C330 170 552 -20 854 -20 C1156 -20 1378 170 1378 585 L1378 585 Z " />
<glyph glyph-name="Ucircumflex" unicode="&#xdb;" horiz-adv-x="1708" d="M883 1803 L825 1803 L608 1536 L666 1536 L854 1745 L1043 1536 L1100 1536 L883 1803 Z M1378 585 L1378 1376 L1568 1376 L1568 1434 L1126 1434 L1126 1376 L1316 1376 L1316 585 C1316 223 1136 37 854 37 C572 37 392 223 392 585 L392 1376 L582 1376 L582 1434 L140 1434 L140 1376 L330 1376 L330 585 C330 170 552 -20 854 -20 C1156 -20 1378 170 1378 585 L1378 585 Z " />
<glyph glyph-name="Udieresis" unicode="&#xdc;" horiz-adv-x="1708" d="M629 1611 C629 1581 654 1556 684 1556 C714 1556 739 1581 739 1611 C739 1641 714 1666 684 1666 C654 1666 629 1641 629 1611 L629 1611 Z M969 1611 C969 1581 994 1556 1024 1556 C1054 1556 1079 1581 1079 1611 C1079 1641 1054 1666 1024 1666 C994 1666 969 1641 969 1611 L969 1611 Z M1378 585 L1378 1376 L1568 1376 L1568 1434 L1126 1434 L1126 1376 L1316 1376 L1316 585 C1316 223 1136 37 854 37 C572 37 392 223 392 585 L392 1376 L582 1376 L582 1434 L140 1434 L140 1376 L330 1376 L330 585 C330 170 552 -20 854 -20 C1156 -20 1378 170 1378 585 L1378 585 Z " />
<glyph glyph-name="Yacute" unicode="&#xdd;" horiz-adv-x="1600" d="M767 1536 L823 1536 L1073 1803 L989 1803 L767 1536 Z M769 594 L769 58 L579 58 L579 0 L1021 0 L1021 58 L831 58 L831 594 L1346 1376 L1520 1376 L1520 1434 L1088 1434 L1088 1376 L1277 1376 L800 652 L322 1376 L512 1376 L512 1434 L80 1434 L80 1376 L254 1376 L769 594 Z " />
<glyph glyph-name="Thorn" unicode="&#xde;" horiz-adv-x="1148" d="M310 58 L120 58 L120 0 L562 0 L562 58 L372 58 L372 342 L683 342 C924 342 1048 522 1048 721 C1048 922 924 1102 683 1102 L372 1102 L372 1376 L562 1376 L562 1434 L120 1434 L120 1376 L310 1376 L310 58 Z M683 1049 C893 1049 986 891 986 721 C986 553 893 395 683 395 L372 395 L372 1049 L683 1049 Z " />
<glyph glyph-name="germandbls" unicode="&#xdf;" horiz-adv-x="1382" d="M585 32 C656 -6 740 -20 847 -20 C1120 -20 1262 160 1262 381 C1262 575 1146 725 959 756 C1072 780 1201 888 1201 1081 C1201 1304 1033 1454 764 1454 C617 1454 330 1419 330 917 L330 58 L140 58 L140 0 L392 0 L392 917 C392 1353 619 1396 764 1396 C977 1396 1139 1294 1139 1081 C1139 915 1030 791 838 784 L679 784 L679 723 L838 723 C1094 723 1200 559 1200 381 C1200 190 1084 38 847 38 C760 38 672 54 585 98 L585 32 Z " />
<glyph glyph-name="agrave" unicode="&#xe0;" horiz-adv-x="1199" d="M332 1434 L248 1434 L499 1167 L554 1167 L332 1434 Z M1079 54 L897 54 L897 582 C897 828 846 1002 530 1002 C389 1002 277 970 194 922 L221 872 C298 916 422 948 530 948 C805 948 831 824 839 592 C605 625 100 627 100 279 C100 72 255 -20 455 -20 C670 -20 783 102 839 248 L839 0 L1079 0 L1079 54 Z M162 279 C162 580 652 571 839 541 L839 432 C839 268 727 34 455 34 C273 34 162 122 162 279 L162 279 Z " />
<glyph glyph-name="aacute" unicode="&#xe1;" horiz-adv-x="1199" d="M496 1167 L552 1167 L802 1434 L718 1434 L496 1167 Z M1079 54 L897 54 L897 582 C897 828 846 1002 530 1002 C389 1002 277 970 194 922 L221 872 C298 916 422 948 530 948 C805 948 831 824 839 592 C605 625 100 627 100 279 C100 72 255 -20 455 -20 C670 -20 783 102 839 248 L839 0 L1079 0 L1079 54 Z M162 279 C162 580 652 571 839 541 L839 432 C839 268 727 34 455 34 C273 34 162 122 162 279 L162 279 Z " />
<glyph glyph-name="acircumflex" unicode="&#xe2;" horiz-adv-x="1199" d="M567 1434 L509 1434 L292 1167 L350 1167 L538 1376 L727 1167 L784 1167 L567 1434 Z M1079 54 L897 54 L897 582 C897 828 846 1002 530 1002 C389 1002 277 970 194 922 L221 872 C298 916 422 948 530 948 C805 948 831 824 839 592 C605 625 100 627 100 279 C100 72 255 -20 455 -20 C670 -20 783 102 839 248 L839 0 L1079 0 L1079 54 Z M162 279 C162 580 652 571 839 541 L839 432 C839 268 727 34 455 34 C273 34 162 122 162 279 L162 279 Z " />
<glyph glyph-name="atilde" unicode="&#xe3;" horiz-adv-x="1199" d="M525 1315 C556 1282 599 1239 664 1239 C793 1239 800 1378 800 1378 L746 1378 C746 1378 744 1288 664 1288 C611 1288 576 1333 552 1358 C521 1391 478 1434 413 1434 C284 1434 277 1294 277 1294 L331 1294 C331 1294 333 1384 413 1384 C466 1384 501 1339 525 1315 L525 1315 Z M1079 54 L897 54 L897 582 C897 828 846 1002 530 1002 C389 1002 277 970 194 922 L221 872 C298 916 422 948 530 948 C805 948 831 824 839 592 C605 625 100 627 100 279 C100 72 255 -20 455 -20 C670 -20 783 102 839 248 L839 0 L1079 0 L1079 54 Z M162 279 C162 580 652 571 839 541 L839 432 C839 268 727 34 455 34 C273 34 162 122 162 279 L162 279 Z " />
<glyph glyph-name="adieresis" unicode="&#xe4;" horiz-adv-x="1199" d="M323 1288 C323 1258 348 1233 378 1233 C408 1233 433 1258 433 1288 C433 1318 408 1343 378 1343 C348 1343 323 1318 323 1288 L323 1288 Z M663 1288 C663 1258 688 1233 718 1233 C748 1233 773 1258 773 1288 C773 1318 748 1343 718 1343 C688 1343 663 1318 663 1288 L663 1288 Z M1079 54 L897 54 L897 582 C897 828 846 1002 530 1002 C389 1002 277 970 194 922 L221 872 C298 916 422 948 530 948 C805 948 831 824 839 592 C605 625 100 627 100 279 C100 72 255 -20 455 -20 C670 -20 783 102 839 248 L839 0 L1079 0 L1079 54 Z M162 279 C162 580 652 571 839 541 L839 432 C839 268 727 34 455 34 C273 34 162 122 162 279 L162 279 Z " />
<glyph glyph-name="aring" unicode="&#xe5;" horiz-adv-x="1199" d="M394 1280 C394 1196 464 1126 548 1126 C632 1126 702 1196 702 1280 C702 1364 632 1434 548 1434 C464 1434 394 1364 394 1280 L394 1280 Z M435 1280 C435 1343 485 1395 548 1395 C611 1395 661 1343 661 1280 C661 1217 611 1165 548 1165 C485 1165 435 1217 435 1280 L435 1280 Z M1079 54 L897 54 L897 582 C897 828 846 1002 530 1002 C389 1002 277 970 194 922 L221 872 C298 916 422 948 530 948 C805 948 831 824 839 592 C605 625 100 627 100 279 C100 72 255 -20 455 -20 C670 -20 783 102 839 248 L839 0 L1079 0 L1079 54 Z M162 279 C162 580 652 571 839 541 L839 432 C839 268 727 34 455 34 C273 34 162 122 162 279 L162 279 Z " />
<glyph glyph-name="ae" unicode="&#xe6;" horiz-adv-x="1836" d="M530 948 C805 948 831 824 839 592 C605 625 100 627 100 279 C100 72 255 -20 455 -20 C643 -20 799 82 871 283 C934 97 1084 -20 1288 -20 C1509 -20 1618 58 1669 105 L1626 144 C1577 100 1486 34 1288 34 C1056 34 916 177 901 464 L1736 464 C1736 835 1539 1002 1288 1002 C1099 1002 956 901 886 738 C860 898 773 1002 530 1002 C389 1002 277 970 194 922 L221 872 C298 916 422 948 530 948 L530 948 Z M162 279 C162 580 652 571 839 541 L839 432 C839 268 727 34 455 34 C273 34 162 122 162 279 L162 279 Z M901 518 C915 776 1059 948 1288 948 C1527 948 1661 776 1674 518 L901 518 Z " />
<glyph glyph-name="ccedilla" unicode="&#xe7;" horiz-adv-x="1070" d="M872 755 L930 755 L930 922 C930 922 818 1002 590 1002 C287 1002 100 793 100 491 C100 204 268 1 544 -18 L486 -185 C588 -168 711 -172 701 -279 C688 -412 524 -392 438 -354 L416 -399 C541 -461 744 -451 758 -279 C767 -165 668 -124 562 -131 L601 -20 C724 -18 850 6 930 81 L894 123 C810 56 701 34 590 34 C320 34 162 218 162 491 C162 764 320 948 590 948 C775 948 872 889 872 889 L872 755 Z " />
<glyph glyph-name="egrave" unicode="&#xe8;" horiz-adv-x="1097" d="M549 34 C318 34 176 204 162 464 L997 464 C997 835 800 1002 549 1002 C277 1002 100 792 100 491 C100 189 277 -20 549 -20 C760 -20 879 60 930 105 L887 146 C838 106 727 34 549 34 L549 34 Z M162 518 C176 776 320 948 549 948 C788 948 922 776 935 518 L162 518 Z M359 1434 L275 1434 L526 1167 L581 1167 L359 1434 Z " />
<glyph glyph-name="eacute" unicode="&#xe9;" horiz-adv-x="1097" d="M549 34 C318 34 176 204 162 464 L997 464 C997 835 800 1002 549 1002 C277 1002 100 792 100 491 C100 189 277 -20 549 -20 C760 -20 879 60 930 105 L887 146 C838 106 727 34 549 34 L549 34 Z M162 518 C176 776 320 948 549 948 C788 948 922 776 935 518 L162 518 Z M513 1167 L569 1167 L819 1434 L735 1434 L513 1167 Z " />
<glyph glyph-name="ecircumflex" unicode="&#xea;" horiz-adv-x="1097" d="M549 34 C318 34 176 204 162 464 L997 464 C997 835 800 1002 549 1002 C277 1002 100 792 100 491 C100 189 277 -20 549 -20 C760 -20 879 60 930 105 L887 146 C838 106 727 34 549 34 L549 34 Z M162 518 C176 776 320 948 549 948 C788 948 922 776 935 518 L162 518 Z M577 1434 L519 1434 L302 1167 L360 1167 L548 1376 L737 1167 L794 1167 L577 1434 Z " />
<glyph glyph-name="edieresis" unicode="&#xeb;" horiz-adv-x="1097" d="M549 34 C318 34 176 204 162 464 L997 464 C997 835 800 1002 549 1002 C277 1002 100 792 100 491 C100 189 277 -20 549 -20 C760 -20 879 60 930 105 L887 146 C838 106 727 34 549 34 L549 34 Z M162 518 C176 776 320 948 549 948 C788 948 922 776 935 518 L162 518 Z M323 1288 C323 1258 348 1233 378 1233 C408 1233 433 1258 433 1288 C433 1318 408 1343 378 1343 C348 1343 323 1318 323 1288 L323 1288 Z M663 1288 C663 1258 688 1233 718 1233 C748 1233 773 1258 773 1288 C773 1318 748 1343 718 1343 C688 1343 663 1318 663 1288 L663 1288 Z " />
<glyph glyph-name="igrave" unicode="&#xec;" horiz-adv-x="680" d="M164 1434 L80 1434 L331 1167 L386 1167 L164 1434 Z M320 928 L320 54 L138 54 L138 0 L560 0 L560 54 L378 54 L378 982 L138 982 L138 928 L320 928 Z " />
<glyph glyph-name="iacute" unicode="&#xed;" horiz-adv-x="670" d="M284 1167 L340 1167 L590 1434 L506 1434 L284 1167 Z M302 928 L302 54 L120 54 L120 0 L542 0 L542 54 L360 54 L360 982 L120 982 L120 928 L302 928 Z " />
<glyph glyph-name="icircumflex" unicode="&#xee;" horiz-adv-x="652" d="M355 1434 L297 1434 L80 1167 L138 1167 L326 1376 L515 1167 L572 1167 L355 1434 Z M298 928 L298 54 L116 54 L116 0 L538 0 L538 54 L356 54 L356 982 L116 982 L116 928 L298 928 Z " />
<glyph glyph-name="idieresis" unicode="&#xef;" horiz-adv-x="610" d="M80 1288 C80 1258 105 1233 135 1233 C165 1233 190 1258 190 1288 C190 1318 165 1343 135 1343 C105 1343 80 1318 80 1288 L80 1288 Z M420 1288 C420 1258 445 1233 475 1233 C505 1233 530 1258 530 1288 C530 1318 505 1343 475 1343 C445 1343 420 1318 420 1288 L420 1288 Z M277 928 L277 54 L95 54 L95 0 L517 0 L517 54 L335 54 L335 982 L95 982 L95 928 L277 928 Z " />
<glyph glyph-name="eth" unicode="&#xf0;" horiz-adv-x="1154" d="M441 1507 C564 1488 683 1430 744 1355 L591 1245 L628 1200 L781 1310 C916 1152 983 921 979 665 C937 855 792 1002 565 1002 C277 1002 100 772 100 491 C100 210 277 -20 565 -20 C960 -20 1020 374 1028 491 C1056 922 985 1129 828 1343 L980 1454 L943 1499 L792 1390 C703 1488 597 1541 465 1565 L441 1507 Z M162 491 C162 728 295 948 565 948 C835 948 968 728 968 491 C968 254 835 34 565 34 C295 34 162 253 162 491 L162 491 Z " />
<glyph glyph-name="ntilde" unicode="&#xf1;" horiz-adv-x="1408" d="M691 1315 C722 1282 765 1239 830 1239 C959 1239 966 1378 966 1378 L912 1378 C912 1378 910 1288 830 1288 C777 1288 742 1333 718 1358 C687 1391 644 1434 579 1434 C450 1434 443 1294 443 1294 L497 1294 C497 1294 499 1384 579 1384 C632 1384 667 1339 691 1315 L691 1315 Z M1048 520 L1048 0 L1288 0 L1288 54 L1106 54 L1106 520 C1106 812 986 1002 704 1002 C476 1002 393 862 360 765 L360 982 L120 982 L120 928 L302 928 L302 54 L120 54 L120 0 L542 0 L542 54 L360 54 L360 520 C360 771 448 948 704 948 C960 948 1048 771 1048 520 L1048 520 Z " />
<glyph glyph-name="ograve" unicode="&#xf2;" horiz-adv-x="1180" d="M100 491 C100 189 287 -20 590 -20 C892 -20 1080 190 1080 491 C1080 793 892 1002 590 1002 C287 1002 100 792 100 491 L100 491 Z M162 491 C162 763 320 948 590 948 C859 948 1018 763 1018 491 C1018 218 859 34 590 34 C320 34 162 218 162 491 L162 491 Z M404 1434 L320 1434 L571 1167 L626 1167 L404 1434 Z " />
<glyph glyph-name="oacute" unicode="&#xf3;" horiz-adv-x="1180" d="M100 491 C100 189 287 -20 590 -20 C892 -20 1080 190 1080 491 C1080 793 892 1002 590 1002 C287 1002 100 792 100 491 L100 491 Z M162 491 C162 763 320 948 590 948 C859 948 1018 763 1018 491 C1018 218 859 34 590 34 C320 34 162 218 162 491 L162 491 Z M553 1167 L609 1167 L859 1434 L775 1434 L553 1167 Z " />
<glyph glyph-name="ocircumflex" unicode="&#xf4;" horiz-adv-x="1180" d="M100 491 C100 189 287 -20 590 -20 C892 -20 1080 190 1080 491 C1080 793 892 1002 590 1002 C287 1002 100 792 100 491 L100 491 Z M162 491 C162 763 320 948 590 948 C859 948 1018 763 1018 491 C1018 218 859 34 590 34 C320 34 162 218 162 491 L162 491 Z M619 1434 L561 1434 L344 1167 L402 1167 L590 1376 L779 1167 L836 1167 L619 1434 Z " />
<glyph glyph-name="otilde" unicode="&#xf5;" horiz-adv-x="1180" d="M100 491 C100 189 287 -20 590 -20 C892 -20 1080 190 1080 491 C1080 793 892 1002 590 1002 C287 1002 100 792 100 491 L100 491 Z M162 491 C162 763 320 948 590 948 C859 948 1018 763 1018 491 C1018 218 859 34 590 34 C320 34 162 218 162 491 L162 491 Z M577 1315 C608 1282 651 1239 716 1239 C845 1239 852 1378 852 1378 L798 1378 C798 1378 796 1288 716 1288 C663 1288 628 1333 604 1358 C573 1391 530 1434 465 1434 C336 1434 329 1294 329 1294 L383 1294 C383 1294 385 1384 465 1384 C518 1384 553 1339 577 1315 L577 1315 Z " />
<glyph glyph-name="odieresis" unicode="&#xf6;" horiz-adv-x="1180" d="M100 491 C100 189 287 -20 590 -20 C892 -20 1080 190 1080 491 C1080 793 892 1002 590 1002 C287 1002 100 792 100 491 L100 491 Z M162 491 C162 763 320 948 590 948 C859 948 1018 763 1018 491 C1018 218 859 34 590 34 C320 34 162 218 162 491 L162 491 Z M364 1268 C364 1238 389 1213 419 1213 C449 1213 474 1238 474 1268 C474 1298 449 1323 419 1323 C389 1323 364 1298 364 1268 L364 1268 Z M704 1268 C704 1238 729 1213 759 1213 C789 1213 814 1238 814 1268 C814 1298 789 1323 759 1323 C729 1323 704 1298 704 1268 L704 1268 Z " />
<glyph glyph-name="divide" unicode="&#xf7;" horiz-adv-x="928" d="M120 646 L808 646 L808 704 L120 704 L120 646 Z M403 449 C403 415 430 388 464 388 C498 388 525 415 525 449 C525 483 498 510 464 510 C430 510 403 483 403 449 L403 449 Z M403 901 C403 867 430 840 464 840 C498 840 525 867 525 901 C525 935 498 962 464 962 C430 962 403 935 403 901 L403 901 Z " />
<glyph glyph-name="oslash" unicode="&#xf8;" horiz-adv-x="1220" d="M120 491 C120 288 204 127 351 43 L309 -41 L374 -41 L404 18 C464 -6 533 -20 610 -20 C912 -20 1100 190 1100 491 C1100 694 1015 856 867 939 L909 1024 L843 1024 L813 965 C753 989 685 1002 610 1002 C307 1002 120 792 120 491 L120 491 Z M610 34 C542 34 481 45 428 67 L841 889 C967 814 1038 672 1038 491 C1038 218 879 34 610 34 L610 34 Z M182 491 C182 763 340 948 610 948 C676 948 736 936 788 915 L376 93 C251 168 182 310 182 491 L182 491 Z " />
<glyph glyph-name="ugrave" unicode="&#xf9;" horiz-adv-x="1408" d="M504 1434 L420 1434 L671 1167 L726 1167 L504 1434 Z M360 982 L120 982 L120 928 L302 928 L302 462 C302 170 422 -20 704 -20 C932 -20 1015 120 1048 217 L1048 0 L1288 0 L1288 54 L1106 54 L1106 982 L866 982 L866 928 L1048 928 L1048 462 C1048 211 960 34 704 34 C448 34 360 211 360 462 L360 982 Z " />
<glyph glyph-name="uacute" unicode="&#xfa;" horiz-adv-x="1408" d="M670 1167 L726 1167 L976 1434 L892 1434 L670 1167 Z M360 982 L120 982 L120 928 L302 928 L302 462 C302 170 422 -20 704 -20 C932 -20 1015 120 1048 217 L1048 0 L1288 0 L1288 54 L1106 54 L1106 982 L866 982 L866 928 L1048 928 L1048 462 C1048 211 960 34 704 34 C448 34 360 211 360 462 L360 982 Z " />
<glyph glyph-name="ucircumflex" unicode="&#xfb;" horiz-adv-x="1408" d="M733 1434 L675 1434 L458 1167 L516 1167 L704 1376 L893 1167 L950 1167 L733 1434 Z M360 982 L120 982 L120 928 L302 928 L302 462 C302 170 422 -20 704 -20 C932 -20 1015 120 1048 217 L1048 0 L1288 0 L1288 54 L1106 54 L1106 982 L866 982 L866 928 L1048 928 L1048 462 C1048 211 960 34 704 34 C448 34 360 211 360 462 L360 982 Z " />
<glyph glyph-name="udieresis" unicode="&#xfc;" horiz-adv-x="1408" d="M479 1288 C479 1258 504 1233 534 1233 C564 1233 589 1258 589 1288 C589 1318 564 1343 534 1343 C504 1343 479 1318 479 1288 L479 1288 Z M819 1288 C819 1258 844 1233 874 1233 C904 1233 929 1258 929 1288 C929 1318 904 1343 874 1343 C844 1343 819 1318 819 1288 L819 1288 Z M360 982 L120 982 L120 928 L302 928 L302 462 C302 170 422 -20 704 -20 C932 -20 1015 120 1048 217 L1048 0 L1288 0 L1288 54 L1106 54 L1106 982 L866 982 L866 928 L1048 928 L1048 462 C1048 211 960 34 704 34 C448 34 360 211 360 462 L360 982 Z " />
<glyph glyph-name="yacute" unicode="&#xfd;" horiz-adv-x="1410" d="M663 1167 L719 1167 L969 1434 L885 1434 L663 1167 Z M542 928 L542 982 L120 982 L120 928 L295 928 L675 0 L559 -276 C517 -368 459 -478 345 -478 L260 -478 L260 -532 L352 -532 C485 -532 559 -426 614 -294 L1115 928 L1290 928 L1290 982 L868 982 L868 928 L1047 928 L705 70 L362 928 L542 928 Z " />
<glyph glyph-name="thorn" unicode="&#xfe;" horiz-adv-x="1328" d="M302 1462 L302 -478 L120 -478 L120 -532 L542 -532 L542 -478 L360 -478 L360 282 C403 135 530 -20 765 -20 C1053 -20 1228 210 1228 491 C1228 772 1053 1002 765 1002 C530 1002 403 847 360 700 L360 1516 L120 1516 L120 1462 L302 1462 Z M765 948 C1035 948 1166 728 1166 491 C1166 253 1035 34 765 34 C493 34 360 253 360 491 C360 729 493 948 765 948 L765 948 Z " />
<glyph glyph-name="ydieresis" unicode="&#xff;" horiz-adv-x="1410" d="M480 1288 C480 1258 505 1233 535 1233 C565 1233 590 1258 590 1288 C590 1318 565 1343 535 1343 C505 1343 480 1318 480 1288 L480 1288 Z M820 1288 C820 1258 845 1233 875 1233 C905 1233 930 1258 930 1288 C930 1318 905 1343 875 1343 C845 1343 820 1318 820 1288 L820 1288 Z M542 928 L542 982 L120 982 L120 928 L295 928 L675 0 L559 -276 C517 -368 459 -478 345 -478 L260 -478 L260 -532 L352 -532 C485 -532 559 -426 614 -294 L1115 928 L1290 928 L1290 982 L868 982 L868 928 L1047 928 L705 70 L362 928 L542 928 Z " />
<glyph glyph-name="Amacron" unicode="&#x100;" horiz-adv-x="1737" d="M539 1555 L1199 1555 L1199 1609 L539 1609 L539 1555 Z M1225 0 L1657 0 L1657 58 L1482 58 L902 1434 L622 1434 L622 1376 L812 1376 L255 58 L80 58 L80 0 L512 0 L512 58 L323 58 L506 495 L1231 495 L1414 58 L1225 58 L1225 0 Z M869 1360 L1207 553 L531 553 L869 1360 Z " />
<glyph glyph-name="amacron" unicode="&#x101;" horiz-adv-x="1199" d="M208 1380 L868 1380 L868 1434 L208 1434 L208 1380 Z M1079 54 L897 54 L897 582 C897 828 846 1002 530 1002 C389 1002 277 970 194 922 L221 872 C298 916 422 948 530 948 C805 948 831 824 839 592 C605 625 100 627 100 279 C100 72 255 -20 455 -20 C670 -20 783 102 839 248 L839 0 L1079 0 L1079 54 Z M162 279 C162 580 652 571 839 541 L839 432 C839 268 727 34 455 34 C273 34 162 122 162 279 L162 279 Z " />
<glyph glyph-name="Abreve" unicode="&#x102;" horiz-adv-x="1737" d="M869 1536 C1122 1536 1165 1740 1165 1740 L1112 1740 C1066 1629 977 1590 869 1590 C761 1590 672 1629 626 1740 L573 1740 C573 1740 616 1536 869 1536 L869 1536 Z M1225 0 L1657 0 L1657 58 L1482 58 L902 1434 L622 1434 L622 1376 L812 1376 L255 58 L80 58 L80 0 L512 0 L512 58 L323 58 L506 495 L1231 495 L1414 58 L1225 58 L1225 0 Z M869 1360 L1207 553 L531 553 L869 1360 Z " />
<glyph glyph-name="abreve" unicode="&#x103;" horiz-adv-x="1199" d="M540 1230 C793 1230 836 1434 836 1434 L783 1434 C737 1323 648 1284 540 1284 C432 1284 343 1323 297 1434 L244 1434 C244 1434 287 1230 540 1230 L540 1230 Z M1079 54 L897 54 L897 582 C897 828 846 1002 530 1002 C389 1002 277 970 194 922 L221 872 C298 916 422 948 530 948 C805 948 831 824 839 592 C605 625 100 627 100 279 C100 72 255 -20 455 -20 C670 -20 783 102 839 248 L839 0 L1079 0 L1079 54 Z M162 279 C162 580 652 571 839 541 L839 432 C839 268 727 34 455 34 C273 34 162 122 162 279 L162 279 Z " />
<glyph glyph-name="Aogonek" unicode="&#x104;" horiz-adv-x="1737" d="M1225 0 L1597 0 C1581 -3 1421 -39 1411 -205 C1401 -362 1547 -399 1629 -393 L1629 -334 C1606 -334 1465 -340 1465 -205 C1465 -36 1638 -3 1657 0 L1657 58 L1482 58 L902 1434 L622 1434 L622 1376 L812 1376 L255 58 L80 58 L80 0 L512 0 L512 58 L323 58 L506 495 L1231 495 L1414 58 L1225 58 L1225 0 Z M869 1360 L1207 553 L531 553 L869 1360 Z " />
<glyph glyph-name="aogonek" unicode="&#x105;" horiz-adv-x="1199" d="M1079 54 L897 54 L897 582 C897 828 846 1002 530 1002 C389 1002 277 970 194 922 L221 872 C298 916 422 948 530 948 C805 948 831 824 839 592 C605 625 100 627 100 279 C100 72 255 -20 455 -20 C670 -20 783 102 839 248 L839 0 L1019 0 C1003 -3 843 -39 833 -205 C823 -362 969 -399 1051 -393 L1051 -334 C1028 -334 887 -340 887 -205 C887 -36 1060 -3 1079 0 L1079 54 Z M162 279 C162 580 652 571 839 541 L839 432 C839 268 727 34 455 34 C273 34 162 122 162 279 L162 279 Z " />
<glyph glyph-name="Cacute" unicode="&#x106;" horiz-adv-x="1369" d="M794 1536 L850 1536 L1100 1803 L1016 1803 L794 1536 Z M1229 1370 C1229 1370 1096 1454 826 1454 C367 1454 120 1120 120 717 C120 314 367 -20 826 -20 C1060 -20 1176 42 1229 79 L1192 126 C1126 88 1026 38 826 38 C404 38 186 340 186 717 C186 1094 404 1396 826 1396 C1048 1396 1167 1334 1167 1334 L1167 1185 L1229 1185 L1229 1370 Z " />
<glyph glyph-name="cacute" unicode="&#x107;" horiz-adv-x="1070" d="M563 1167 L619 1167 L869 1434 L785 1434 L563 1167 Z M872 755 L930 755 L930 922 C930 922 818 1002 590 1002 C287 1002 100 793 100 491 C100 189 287 -20 590 -20 C717 -20 848 4 930 81 L894 123 C810 56 701 34 590 34 C320 34 162 218 162 491 C162 764 320 948 590 948 C775 948 872 889 872 889 L872 755 Z " />
<glyph glyph-name="Ccircumflex" unicode="&#x108;" horiz-adv-x="1369" d="M855 1803 L797 1803 L580 1536 L638 1536 L826 1745 L1015 1536 L1072 1536 L855 1803 Z M1229 1370 C1229 1370 1096 1454 826 1454 C367 1454 120 1120 120 717 C120 314 367 -20 826 -20 C1060 -20 1176 42 1229 79 L1192 126 C1126 88 1026 38 826 38 C404 38 186 340 186 717 C186 1094 404 1396 826 1396 C1048 1396 1167 1334 1167 1334 L1167 1185 L1229 1185 L1229 1370 Z " />
<glyph glyph-name="ccircumflex" unicode="&#x109;" horiz-adv-x="1070" d="M619 1434 L561 1434 L344 1167 L402 1167 L590 1376 L779 1167 L836 1167 L619 1434 Z M872 755 L930 755 L930 922 C930 922 818 1002 590 1002 C287 1002 100 793 100 491 C100 189 287 -20 590 -20 C717 -20 848 4 930 81 L894 123 C810 56 701 34 590 34 C320 34 162 218 162 491 C162 764 320 948 590 948 C775 948 872 889 872 889 L872 755 Z " />
<glyph glyph-name="Cdotaccent" unicode="&#x10a;" horiz-adv-x="1369" d="M771 1611 C771 1581 796 1556 826 1556 C856 1556 881 1581 881 1611 C881 1641 856 1666 826 1666 C796 1666 771 1641 771 1611 L771 1611 Z M1229 1370 C1229 1370 1096 1454 826 1454 C367 1454 120 1120 120 717 C120 314 367 -20 826 -20 C1060 -20 1176 42 1229 79 L1192 126 C1126 88 1026 38 826 38 C404 38 186 340 186 717 C186 1094 404 1396 826 1396 C1048 1396 1167 1334 1167 1334 L1167 1185 L1229 1185 L1229 1370 Z " />
<glyph glyph-name="cdotaccent" unicode="&#x10b;" horiz-adv-x="1070" d="M535 1288 C535 1258 560 1233 590 1233 C620 1233 645 1258 645 1288 C645 1318 620 1343 590 1343 C560 1343 535 1318 535 1288 L535 1288 Z M872 755 L930 755 L930 922 C930 922 818 1002 590 1002 C287 1002 100 793 100 491 C100 189 287 -20 590 -20 C717 -20 848 4 930 81 L894 123 C810 56 701 34 590 34 C320 34 162 218 162 491 C162 764 320 948 590 948 C775 948 872 889 872 889 L872 755 Z " />
<glyph glyph-name="Ccaron" unicode="&#x10c;" horiz-adv-x="1369" d="M1063 1803 L1006 1803 L817 1594 L629 1803 L571 1803 L788 1536 L846 1536 L1063 1803 Z M1229 1370 C1229 1370 1096 1454 826 1454 C367 1454 120 1120 120 717 C120 314 367 -20 826 -20 C1060 -20 1176 42 1229 79 L1192 126 C1126 88 1026 38 826 38 C404 38 186 340 186 717 C186 1094 404 1396 826 1396 C1048 1396 1167 1334 1167 1334 L1167 1185 L1229 1185 L1229 1370 Z " />
<glyph glyph-name="ccaron" unicode="&#x10d;" horiz-adv-x="1070" d="M824 1434 L767 1434 L578 1225 L390 1434 L332 1434 L549 1167 L607 1167 L824 1434 Z M872 755 L930 755 L930 922 C930 922 818 1002 590 1002 C287 1002 100 793 100 491 C100 189 287 -20 590 -20 C717 -20 848 4 930 81 L894 123 C810 56 701 34 590 34 C320 34 162 218 162 491 C162 764 320 948 590 948 C775 948 872 889 872 889 L872 755 Z " />
<glyph glyph-name="Dcaron" unicode="&#x10e;" horiz-adv-x="1506" d="M967 1803 L910 1803 L721 1594 L533 1803 L475 1803 L692 1536 L750 1536 L967 1803 Z M330 1376 L330 58 L140 58 L140 0 L724 0 C1183 0 1406 313 1406 717 C1406 1120 1183 1434 724 1434 L140 1434 L140 1376 L330 1376 Z M392 1376 L724 1376 C1146 1376 1340 1094 1340 717 C1340 340 1146 58 724 58 L392 58 L392 1376 Z " />
<glyph glyph-name="dcaron" unicode="&#x10f;" horiz-adv-x="1167" d="M968 282 L968 0 L1208 0 L1208 54 L1026 54 L1026 1516 L786 1516 L786 1462 L968 1462 L968 700 C925 847 800 1002 565 1002 C277 1002 100 772 100 491 C100 210 277 -20 565 -20 C800 -20 925 135 968 282 L968 282 Z M968 491 C968 254 835 34 565 34 C295 34 162 254 162 491 C162 728 295 948 565 948 C835 948 968 728 968 491 L968 491 Z M1084 1147 L1140 1147 L1248 1516 L1164 1516 L1084 1147 Z " />
<glyph glyph-name="Dcroat" unicode="&#x110;" horiz-adv-x="1516" d="M340 1376 L340 746 L140 746 L140 688 L340 688 L340 58 L150 58 L150 0 L734 0 C1193 0 1416 313 1416 717 C1416 1120 1193 1434 734 1434 L150 1434 L150 1376 L340 1376 Z M402 1376 L734 1376 C1156 1376 1350 1094 1350 717 C1350 340 1156 58 734 58 L402 58 L402 688 L779 688 L779 746 L402 746 L402 1376 Z " />
<glyph glyph-name="dcroat" unicode="&#x111;" horiz-adv-x="1324" d="M968 282 L968 0 L1208 0 L1208 54 L1026 54 L1026 1209 L1244 1209 L1244 1262 L1026 1262 L1026 1516 L786 1516 L786 1462 L968 1462 L968 1262 L657 1262 L657 1209 L968 1209 L968 700 C925 847 800 1002 565 1002 C277 1002 100 772 100 491 C100 210 277 -20 565 -20 C800 -20 925 135 968 282 L968 282 Z M968 491 C968 254 835 34 565 34 C295 34 162 254 162 491 C162 728 295 948 565 948 C835 948 968 728 968 491 L968 491 Z " />
<glyph glyph-name="Emacron" unicode="&#x112;" horiz-adv-x="1390" d="M390 1555 L1050 1555 L1050 1609 L390 1609 L390 1555 Z M1178 1186 L1240 1186 L1240 1434 L140 1434 L140 1376 L330 1376 L330 58 L140 58 L140 0 L1250 0 L1250 200 L1188 200 L1188 58 L392 58 L392 705 L1100 705 L1100 763 L392 763 L392 1376 L1178 1376 L1178 1186 Z " />
<glyph glyph-name="emacron" unicode="&#x113;" horiz-adv-x="1097" d="M549 34 C318 34 176 204 162 464 L997 464 C997 835 800 1002 549 1002 C277 1002 100 792 100 491 C100 189 277 -20 549 -20 C760 -20 879 60 930 105 L887 146 C838 106 727 34 549 34 L549 34 Z M162 518 C176 776 320 948 549 948 C788 948 922 776 935 518 L162 518 Z M219 1380 L879 1380 L879 1434 L219 1434 L219 1380 Z " />
<glyph glyph-name="Ebreve" unicode="&#x114;" horiz-adv-x="1390" d="M1178 1186 L1240 1186 L1240 1434 L140 1434 L140 1376 L330 1376 L330 58 L140 58 L140 0 L1250 0 L1250 200 L1188 200 L1188 58 L392 58 L392 705 L1100 705 L1100 763 L392 763 L392 1376 L1178 1376 L1178 1186 Z M719 1536 C972 1536 1015 1740 1015 1740 L962 1740 C916 1629 827 1590 719 1590 C611 1590 522 1629 476 1740 L423 1740 C423 1740 466 1536 719 1536 L719 1536 Z " />
<glyph glyph-name="ebreve" unicode="&#x115;" horiz-adv-x="1097" d="M549 34 C318 34 176 204 162 464 L997 464 C997 835 800 1002 549 1002 C277 1002 100 792 100 491 C100 189 277 -20 549 -20 C760 -20 879 60 930 105 L887 146 C838 106 727 34 549 34 L549 34 Z M162 518 C176 776 320 948 549 948 C788 948 922 776 935 518 L162 518 Z M548 1230 C801 1230 844 1434 844 1434 L791 1434 C745 1323 656 1284 548 1284 C440 1284 351 1323 305 1434 L252 1434 C252 1434 295 1230 548 1230 L548 1230 Z " />
<glyph glyph-name="Edotaccent" unicode="&#x116;" horiz-adv-x="1390" d="M665 1611 C665 1581 690 1556 720 1556 C750 1556 775 1581 775 1611 C775 1641 750 1666 720 1666 C690 1666 665 1641 665 1611 L665 1611 Z M1178 1186 L1240 1186 L1240 1434 L140 1434 L140 1376 L330 1376 L330 58 L140 58 L140 0 L1250 0 L1250 200 L1188 200 L1188 58 L392 58 L392 705 L1100 705 L1100 763 L392 763 L392 1376 L1178 1376 L1178 1186 Z " />
<glyph glyph-name="edotaccent" unicode="&#x117;" horiz-adv-x="1097" d="M549 34 C318 34 176 204 162 464 L997 464 C997 835 800 1002 549 1002 C277 1002 100 792 100 491 C100 189 277 -20 549 -20 C760 -20 879 60 930 105 L887 146 C838 106 727 34 549 34 L549 34 Z M162 518 C176 776 320 948 549 948 C788 948 922 776 935 518 L162 518 Z M493 1288 C493 1258 518 1233 548 1233 C578 1233 603 1258 603 1288 C603 1318 578 1343 548 1343 C518 1343 493 1318 493 1288 L493 1288 Z " />
<glyph glyph-name="Eogonek" unicode="&#x118;" horiz-adv-x="1390" d="M1178 1186 L1240 1186 L1240 1434 L140 1434 L140 1376 L330 1376 L330 58 L140 58 L140 0 L1190 0 C1174 -3 1014 -39 1004 -205 C994 -362 1140 -399 1222 -393 L1222 -334 C1199 -334 1058 -340 1058 -205 C1058 -36 1231 -3 1250 0 L1250 200 L1188 200 L1188 58 L392 58 L392 705 L1100 705 L1100 763 L392 763 L392 1376 L1178 1376 L1178 1186 Z " />
<glyph glyph-name="eogonek" unicode="&#x119;" horiz-adv-x="1097" d="M549 34 C318 34 176 204 162 464 L997 464 C997 835 800 1002 549 1002 C277 1002 100 792 100 491 C100 189 277 -20 549 -20 C570 -20 590 -19 609 -17 C556 -41 482 -94 475 -205 C465 -362 611 -399 693 -393 L693 -334 C670 -334 529 -340 529 -205 C529 -71 638 -22 691 -7 C816 17 892 71 930 105 L887 146 C838 106 727 34 549 34 L549 34 Z M162 518 C176 776 320 948 549 948 C788 948 922 776 935 518 L162 518 Z " />
<glyph glyph-name="Ecaron" unicode="&#x11a;" horiz-adv-x="1390" d="M975 1803 L918 1803 L729 1594 L541 1803 L483 1803 L700 1536 L758 1536 L975 1803 Z M1178 1186 L1240 1186 L1240 1434 L140 1434 L140 1376 L330 1376 L330 58 L140 58 L140 0 L1250 0 L1250 200 L1188 200 L1188 58 L392 58 L392 705 L1100 705 L1100 763 L392 763 L392 1376 L1178 1376 L1178 1186 Z " />
<glyph glyph-name="ecaron" unicode="&#x11b;" horiz-adv-x="1097" d="M549 34 C318 34 176 204 162 464 L997 464 C997 835 800 1002 549 1002 C277 1002 100 792 100 491 C100 189 277 -20 549 -20 C760 -20 879 60 930 105 L887 146 C838 106 727 34 549 34 L549 34 Z M162 518 C176 776 320 948 549 948 C788 948 922 776 935 518 L162 518 Z M793 1434 L736 1434 L547 1225 L359 1434 L301 1434 L518 1167 L576 1167 L793 1434 Z " />
<glyph glyph-name="Gcircumflex" unicode="&#x11c;" horiz-adv-x="1460" d="M855 1803 L797 1803 L580 1536 L638 1536 L826 1745 L1015 1536 L1072 1536 L855 1803 Z M826 1396 C1095 1396 1238 1314 1238 1314 L1238 1185 L1300 1185 L1300 1347 C1300 1347 1150 1454 826 1454 C367 1454 120 1120 120 717 C120 313 367 -20 826 -20 C1020 -20 1182 34 1320 145 L1320 754 L863 754 L863 696 L1258 696 L1258 176 C1144 88 1004 38 826 38 C404 38 186 340 186 717 C186 1094 404 1396 826 1396 L826 1396 Z " />
<glyph glyph-name="gcircumflex" unicode="&#x11d;" horiz-adv-x="1328" d="M592 1434 L534 1434 L317 1167 L375 1167 L563 1376 L752 1167 L809 1167 L592 1434 Z M1026 0 L1026 928 L1208 928 L1208 982 L968 982 L968 700 C925 847 800 1002 565 1002 C277 1002 100 772 100 491 C100 210 277 -20 565 -20 C800 -20 925 135 968 282 L968 0 C968 -341 809 -478 565 -478 C439 -478 320 -439 233 -381 L200 -427 C282 -488 415 -532 565 -532 C791 -532 1026 -425 1026 0 L1026 0 Z M968 491 C968 254 835 34 565 34 C295 34 162 254 162 491 C162 728 295 948 565 948 C835 948 968 728 968 491 L968 491 Z " />
<glyph glyph-name="Gbreve" unicode="&#x11e;" horiz-adv-x="1460" d="M825 1536 C1078 1536 1121 1740 1121 1740 L1068 1740 C1022 1629 933 1590 825 1590 C717 1590 628 1629 582 1740 L529 1740 C529 1740 572 1536 825 1536 L825 1536 Z M826 1396 C1095 1396 1238 1314 1238 1314 L1238 1185 L1300 1185 L1300 1347 C1300 1347 1150 1454 826 1454 C367 1454 120 1120 120 717 C120 313 367 -20 826 -20 C1020 -20 1182 34 1320 145 L1320 754 L863 754 L863 696 L1258 696 L1258 176 C1144 88 1004 38 826 38 C404 38 186 340 186 717 C186 1094 404 1396 826 1396 L826 1396 Z " />
<glyph glyph-name="gbreve" unicode="&#x11f;" horiz-adv-x="1328" d="M564 1230 C817 1230 860 1434 860 1434 L807 1434 C761 1323 672 1284 564 1284 C456 1284 367 1323 321 1434 L268 1434 C268 1434 311 1230 564 1230 L564 1230 Z M1026 0 L1026 928 L1208 928 L1208 982 L968 982 L968 700 C925 847 800 1002 565 1002 C277 1002 100 772 100 491 C100 210 277 -20 565 -20 C800 -20 925 135 968 282 L968 0 C968 -341 809 -478 565 -478 C439 -478 320 -439 233 -381 L200 -427 C282 -488 415 -532 565 -532 C791 -532 1026 -425 1026 0 L1026 0 Z M968 491 C968 254 835 34 565 34 C295 34 162 254 162 491 C162 728 295 948 565 948 C835 948 968 728 968 491 L968 491 Z " />
<glyph glyph-name="Gdotaccent" unicode="&#x120;" horiz-adv-x="1460" d="M771 1611 C771 1581 796 1556 826 1556 C856 1556 881 1581 881 1611 C881 1641 856 1666 826 1666 C796 1666 771 1641 771 1611 L771 1611 Z M826 1396 C1095 1396 1238 1314 1238 1314 L1238 1185 L1300 1185 L1300 1347 C1300 1347 1150 1454 826 1454 C367 1454 120 1120 120 717 C120 313 367 -20 826 -20 C1020 -20 1182 34 1320 145 L1320 754 L863 754 L863 696 L1258 696 L1258 176 C1144 88 1004 38 826 38 C404 38 186 340 186 717 C186 1094 404 1396 826 1396 L826 1396 Z " />
<glyph glyph-name="gdotaccent" unicode="&#x121;" horiz-adv-x="1328" d="M508 1288 C508 1258 533 1233 563 1233 C593 1233 618 1258 618 1288 C618 1318 593 1343 563 1343 C533 1343 508 1318 508 1288 L508 1288 Z M1026 0 L1026 928 L1208 928 L1208 982 L968 982 L968 700 C925 847 800 1002 565 1002 C277 1002 100 772 100 491 C100 210 277 -20 565 -20 C800 -20 925 135 968 282 L968 0 C968 -341 809 -478 565 -478 C439 -478 320 -439 233 -381 L200 -427 C282 -488 415 -532 565 -532 C791 -532 1026 -425 1026 0 L1026 0 Z M968 491 C968 254 835 34 565 34 C295 34 162 254 162 491 C162 728 295 948 565 948 C835 948 968 728 968 491 L968 491 Z " />
<glyph glyph-name="Gcommaaccent" unicode="&#x122;" horiz-adv-x="1460" d="M629 -532 L685 -532 L853 -163 L769 -163 L629 -532 Z M826 1396 C1095 1396 1238 1314 1238 1314 L1238 1185 L1300 1185 L1300 1347 C1300 1347 1150 1454 826 1454 C367 1454 120 1120 120 717 C120 313 367 -20 826 -20 C1020 -20 1182 34 1320 145 L1320 754 L863 754 L863 696 L1258 696 L1258 176 C1144 88 1004 38 826 38 C404 38 186 340 186 717 C186 1094 404 1396 826 1396 L826 1396 Z " />
<glyph glyph-name="gcommaaccent" unicode="&#x123;" horiz-adv-x="1328" d="M756 1516 L700 1516 L532 1147 L616 1147 L756 1516 Z M1026 0 L1026 928 L1208 928 L1208 982 L968 982 L968 700 C925 847 800 1002 565 1002 C277 1002 100 772 100 491 C100 210 277 -20 565 -20 C800 -20 925 135 968 282 L968 0 C968 -341 809 -478 565 -478 C439 -478 320 -439 233 -381 L200 -427 C282 -488 415 -532 565 -532 C791 -532 1026 -425 1026 0 L1026 0 Z M968 491 C968 254 835 34 565 34 C295 34 162 254 162 491 C162 728 295 948 565 948 C835 948 968 728 968 491 L968 491 Z " />
<glyph glyph-name="Hcircumflex" unicode="&#x124;" horiz-adv-x="1675" d="M866 1803 L808 1803 L591 1536 L649 1536 L837 1745 L1026 1536 L1083 1536 L866 1803 Z M392 1376 L582 1376 L582 1434 L140 1434 L140 1376 L330 1376 L330 58 L140 58 L140 0 L582 0 L582 58 L392 58 L392 705 L1283 705 L1283 58 L1093 58 L1093 0 L1535 0 L1535 58 L1345 58 L1345 1376 L1535 1376 L1535 1434 L1093 1434 L1093 1376 L1283 1376 L1283 763 L392 763 L392 1376 Z " />
<glyph glyph-name="hcircumflex" unicode="&#x125;" horiz-adv-x="1408" d="M733 1803 L675 1803 L458 1536 L516 1536 L704 1745 L893 1536 L950 1536 L733 1803 Z M1048 520 L1048 0 L1288 0 L1288 54 L1106 54 L1106 520 C1106 812 986 1002 704 1002 C476 1002 393 862 360 765 L360 1516 L120 1516 L120 1462 L302 1462 L302 54 L120 54 L120 0 L542 0 L542 54 L360 54 L360 520 C360 771 448 948 704 948 C960 948 1048 771 1048 520 L1048 520 Z " />
<glyph glyph-name="Hbar" unicode="&#x126;" horiz-adv-x="1675" d="M392 1376 L582 1376 L582 1434 L140 1434 L140 1376 L330 1376 L330 1130 L145 1130 L145 1072 L330 1072 L330 58 L140 58 L140 0 L582 0 L582 58 L392 58 L392 705 L1283 705 L1283 58 L1093 58 L1093 0 L1535 0 L1535 58 L1345 58 L1345 1072 L1530 1072 L1530 1130 L1345 1130 L1345 1376 L1535 1376 L1535 1434 L1093 1434 L1093 1376 L1283 1376 L1283 1130 L392 1130 L392 1376 Z M1283 1072 L1283 763 L392 763 L392 1072 L1283 1072 Z " />
<glyph glyph-name="hbar" unicode="&#x127;" horiz-adv-x="1424" d="M1064 520 L1064 0 L1304 0 L1304 54 L1122 54 L1122 520 C1122 812 1002 1002 720 1002 C492 1002 409 862 376 765 L376 1209 L671 1209 L671 1262 L376 1262 L376 1516 L136 1516 L136 1462 L318 1462 L318 1262 L120 1262 L120 1209 L318 1209 L318 54 L136 54 L136 0 L558 0 L558 54 L376 54 L376 520 C376 771 464 948 720 948 C976 948 1064 771 1064 520 L1064 520 Z " />
<glyph glyph-name="Itilde" unicode="&#x128;" horiz-adv-x="723" d="M348 1612 C379 1579 422 1536 487 1536 C616 1536 623 1675 623 1675 L569 1675 C569 1675 567 1585 487 1585 C434 1585 399 1630 375 1655 C344 1688 301 1731 236 1731 C107 1731 100 1591 100 1591 L154 1591 C154 1591 156 1681 236 1681 C289 1681 324 1636 348 1612 L348 1612 Z M330 58 L140 58 L140 0 L582 0 L582 58 L392 58 L392 1376 L582 1376 L582 1434 L140 1434 L140 1376 L330 1376 L330 58 Z " />
<glyph glyph-name="itilde" unicode="&#x129;" horiz-adv-x="683" d="M328 1315 C359 1282 402 1239 467 1239 C596 1239 603 1378 603 1378 L549 1378 C549 1378 547 1288 467 1288 C414 1288 379 1333 355 1358 C324 1391 281 1434 216 1434 C87 1434 80 1294 80 1294 L134 1294 C134 1294 136 1384 216 1384 C269 1384 304 1339 328 1315 L328 1315 Z M312 928 L312 54 L130 54 L130 0 L552 0 L552 54 L370 54 L370 982 L130 982 L130 928 L312 928 Z " />
<glyph glyph-name="uni012A" unicode="&#x12a;" horiz-adv-x="860" d="M100 1556 L760 1556 L760 1610 L100 1610 L100 1556 Z M399 58 L209 58 L209 0 L651 0 L651 58 L461 58 L461 1376 L651 1376 L651 1434 L209 1434 L209 1376 L399 1376 L399 58 Z " />
<glyph glyph-name="imacron" unicode="&#x12b;" horiz-adv-x="760" d="M50 1380 L710 1380 L710 1434 L50 1434 L50 1380 Z M352 928 L352 54 L170 54 L170 0 L592 0 L592 54 L410 54 L410 982 L170 982 L170 928 L352 928 Z " />
<glyph glyph-name="Ibreve" unicode="&#x12c;" horiz-adv-x="792" d="M365 58 L175 58 L175 0 L617 0 L617 58 L427 58 L427 1376 L617 1376 L617 1434 L175 1434 L175 1376 L365 1376 L365 58 Z M396 1536 C649 1536 692 1740 692 1740 L639 1740 C593 1629 504 1590 396 1590 C288 1590 199 1629 153 1740 L100 1740 C100 1740 143 1536 396 1536 L396 1536 Z " />
<glyph glyph-name="uni012D" unicode="&#x12d;" horiz-adv-x="692" d="M346 1230 C599 1230 642 1434 642 1434 L589 1434 C543 1323 454 1284 346 1284 C238 1284 149 1323 103 1434 L50 1434 C50 1434 93 1230 346 1230 L346 1230 Z M318 928 L318 54 L136 54 L136 0 L558 0 L558 54 L376 54 L376 982 L136 982 L136 928 L318 928 Z " />
<glyph glyph-name="Iogonek" unicode="&#x12e;" horiz-adv-x="642" d="M290 58 L100 58 L100 0 L482 0 C466 -3 306 -39 296 -205 C286 -362 432 -399 514 -393 L514 -334 C491 -334 350 -340 350 -205 C350 -36 523 -3 542 0 L542 58 L352 58 L352 1376 L542 1376 L542 1434 L100 1434 L100 1376 L290 1376 L290 58 Z " />
<glyph glyph-name="iogonek" unicode="&#x12f;" horiz-adv-x="622" d="M302 928 L302 54 L120 54 L120 0 L482 0 C466 -3 306 -39 296 -205 C286 -362 432 -399 514 -393 L514 -334 C491 -334 350 -340 350 -205 C350 -36 523 -3 542 0 L542 54 L360 54 L360 982 L120 982 L120 928 L302 928 Z M276 1288 C276 1258 301 1233 331 1233 C361 1233 386 1258 386 1288 C386 1318 361 1343 331 1343 C301 1343 276 1318 276 1288 L276 1288 Z " />
<glyph glyph-name="Idotaccent" unicode="&#x130;" horiz-adv-x="722" d="M306 1611 C306 1581 331 1556 361 1556 C391 1556 416 1581 416 1611 C416 1641 391 1666 361 1666 C331 1666 306 1641 306 1611 L306 1611 Z M330 58 L140 58 L140 0 L582 0 L582 58 L392 58 L392 1376 L582 1376 L582 1434 L140 1434 L140 1376 L330 1376 L330 58 Z " />
<glyph glyph-name="dotlessi" unicode="&#x131;" horiz-adv-x="662" d="M302 928 L302 54 L120 54 L120 0 L542 0 L542 54 L360 54 L360 982 L120 982 L120 928 L302 928 Z " />
<glyph glyph-name="IJ" unicode="&#x132;" horiz-adv-x="1761" d="M703 173 C756 68 862 -20 1047 -20 C1309 -20 1431 131 1431 422 L1431 1376 L1621 1376 L1621 1434 L1179 1434 L1179 1376 L1369 1376 L1369 422 C1369 182 1287 38 1047 38 C902 38 810 112 760 198 L703 173 Z M330 58 L140 58 L140 0 L582 0 L582 58 L392 58 L392 1376 L582 1376 L582 1434 L140 1434 L140 1376 L330 1376 L330 58 Z " />
<glyph glyph-name="ij" unicode="&#x133;" horiz-adv-x="957" d="M276 1288 C276 1258 301 1233 331 1233 C361 1233 386 1258 386 1288 C386 1318 361 1343 331 1343 C301 1343 276 1318 276 1288 L276 1288 Z M302 928 L302 54 L120 54 L120 0 L542 0 L542 54 L360 54 L360 982 L120 982 L120 928 L302 928 Z M735 -74 C735 -299 725 -479 527 -479 C487 -479 440 -471 411 -463 L395 -513 C430 -525 480 -532 527 -532 C749 -532 793 -367 793 -74 L793 982 L553 982 L553 928 L735 928 L735 -74 Z M707 1288 C707 1258 732 1233 762 1233 C792 1233 817 1258 817 1288 C817 1318 792 1343 762 1343 C732 1343 707 1318 707 1288 L707 1288 Z " />
<glyph glyph-name="Jcircumflex" unicode="&#x134;" horiz-adv-x="1184" d="M827 1803 L769 1803 L552 1536 L610 1536 L798 1745 L987 1536 L1044 1536 L827 1803 Z M100 173 C153 68 259 -20 444 -20 C706 -20 828 131 828 422 L828 1376 L1018 1376 L1018 1434 L576 1434 L576 1376 L766 1376 L766 422 C766 182 684 38 444 38 C299 38 207 112 157 198 L100 173 Z " />
<glyph glyph-name="jcircumflex" unicode="&#x135;" horiz-adv-x="525" d="M298 1434 L240 1434 L23 1167 L81 1167 L269 1376 L458 1167 L515 1167 L298 1434 Z M240 -74 C240 -299 230 -479 32 -479 C-8 -479 -55 -471 -84 -463 L-100 -513 C-65 -525 -15 -532 32 -532 C254 -532 298 -367 298 -74 L298 982 L58 982 L58 928 L240 928 L240 -74 Z " />
<glyph glyph-name="Kcommaaccent" unicode="&#x136;" horiz-adv-x="1557" d="M582 -532 L638 -532 L806 -163 L722 -163 L582 -532 Z M1216 0 L1417 0 L1417 58 L1247 58 L670 822 L1245 1376 L1407 1376 L1407 1434 L975 1434 L975 1376 L1159 1376 L392 636 L392 1376 L582 1376 L582 1434 L140 1434 L140 1376 L330 1376 L330 58 L140 58 L140 0 L582 0 L582 58 L392 58 L392 554 L627 780 L1216 0 Z " />
<glyph glyph-name="kcommaaccent" unicode="&#x137;" horiz-adv-x="1282" d="M459 -532 L515 -532 L683 -163 L599 -163 L459 -532 Z M1162 0 L1162 54 L1008 54 L606 589 L992 928 L1152 928 L1152 982 L730 982 L730 928 L905 928 L360 451 L360 1516 L120 1516 L120 1462 L302 1462 L302 54 L120 54 L120 0 L542 0 L542 54 L360 54 L360 375 L563 552 L977 0 L1162 0 Z " />
<glyph glyph-name="kgreenlandic" unicode="&#x138;" horiz-adv-x="1503" d="M1153 0 L1363 0 L1363 58 L1199 58 C1018 476 763 718 578 808 C887 1091 1016 1376 1252 1376 L1252 1434 C959 1434 854 1105 392 716 L392 1376 L582 1376 L582 1434 L140 1434 L140 1376 L330 1376 L330 58 L140 58 L140 0 L582 0 L582 58 L392 58 L392 643 L535 765 C701 690 954 462 1153 0 L1153 0 Z " />
<glyph glyph-name="Lacute" unicode="&#x139;" horiz-adv-x="1290" d="M344 1536 L400 1536 L650 1803 L566 1803 L344 1536 Z M330 58 L140 58 L140 0 L1150 0 L1150 248 L1088 248 L1088 58 L392 58 L392 1376 L582 1376 L582 1434 L140 1434 L140 1376 L330 1376 L330 58 Z " />
<glyph glyph-name="lacute" unicode="&#x13a;" horiz-adv-x="649" d="M263 1576 L319 1576 L569 1843 L485 1843 L263 1576 Z M262 1462 L262 54 L80 54 L80 0 L502 0 L502 54 L320 54 L320 1516 L80 1516 L80 1462 L262 1462 Z " />
<glyph glyph-name="Lcommaaccent" unicode="&#x13b;" horiz-adv-x="1290" d="M563 -532 L619 -532 L787 -163 L703 -163 L563 -532 Z M330 58 L140 58 L140 0 L1150 0 L1150 248 L1088 248 L1088 58 L392 58 L392 1376 L582 1376 L582 1434 L140 1434 L140 1376 L330 1376 L330 58 Z " />
<glyph glyph-name="lcommaaccent" unicode="&#x13c;" horiz-adv-x="582" d="M113 -532 L169 -532 L337 -163 L253 -163 L113 -532 Z M262 1462 L262 54 L80 54 L80 0 L502 0 L502 54 L320 54 L320 1516 L80 1516 L80 1462 L262 1462 Z " />
<glyph glyph-name="Lcaron" unicode="&#x13d;" horiz-adv-x="1290" d="M330 58 L140 58 L140 0 L1150 0 L1150 248 L1088 248 L1088 58 L392 58 L392 1376 L582 1376 L582 1434 L140 1434 L140 1376 L330 1376 L330 58 Z M605 1065 L661 1065 L769 1434 L685 1434 L605 1065 Z " />
<glyph glyph-name="lcaron" unicode="&#x13e;" horiz-adv-x="630" d="M262 1462 L262 54 L80 54 L80 0 L502 0 L502 54 L320 54 L320 1516 L80 1516 L80 1462 L262 1462 Z M378 1147 L434 1147 L542 1516 L458 1516 L378 1147 Z " />
<glyph glyph-name="Ldot" unicode="&#x13f;" horiz-adv-x="1290" d="M330 58 L140 58 L140 0 L1150 0 L1150 248 L1088 248 L1088 58 L392 58 L392 1376 L582 1376 L582 1434 L140 1434 L140 1376 L330 1376 L330 58 Z M944 742 C944 711 971 684 1002 684 C1032 684 1059 711 1059 742 C1059 772 1032 799 1002 799 C971 799 944 772 944 742 L944 742 Z " />
<glyph glyph-name="ldot" unicode="&#x140;" horiz-adv-x="613" d="M302 1462 L302 54 L120 54 L120 0 L542 0 L542 54 L360 54 L360 1516 L120 1516 L120 1462 L302 1462 Z M568 794 C568 763 595 736 626 736 C656 736 683 763 683 794 C683 824 656 851 626 851 C595 851 568 824 568 794 L568 794 Z " />
<glyph glyph-name="Lslash" unicode="&#x141;" horiz-adv-x="1322" d="M362 58 L172 58 L172 0 L1182 0 L1182 248 L1120 248 L1120 58 L424 58 L424 707 L646 868 L646 941 L424 780 L424 1376 L614 1376 L614 1434 L172 1434 L172 1376 L362 1376 L362 735 L140 575 L140 502 L362 662 L362 58 Z " />
<glyph glyph-name="lslash" unicode="&#x142;" horiz-adv-x="668" d="M306 1462 L306 798 L120 657 L120 590 L306 731 L306 54 L124 54 L124 0 L546 0 L546 54 L364 54 L364 775 L548 916 L548 983 L364 842 L364 1516 L124 1516 L124 1462 L306 1462 Z " />
<glyph glyph-name="Nacute" unicode="&#x143;" horiz-adv-x="1691" d="M809 1536 L865 1536 L1115 1803 L1031 1803 L809 1536 Z M330 1376 L330 58 L140 58 L140 0 L582 0 L582 58 L392 58 L392 1354 L1279 0 L1361 0 L1361 1376 L1551 1376 L1551 1434 L1109 1434 L1109 1376 L1299 1376 L1299 80 L412 1434 L140 1434 L140 1376 L330 1376 Z " />
<glyph glyph-name="nacute" unicode="&#x144;" horiz-adv-x="1408" d="M664 1167 L720 1167 L970 1434 L886 1434 L664 1167 Z M1048 520 L1048 0 L1288 0 L1288 54 L1106 54 L1106 520 C1106 812 986 1002 704 1002 C476 1002 393 862 360 765 L360 982 L120 982 L120 928 L302 928 L302 54 L120 54 L120 0 L542 0 L542 54 L360 54 L360 520 C360 771 448 948 704 948 C960 948 1048 771 1048 520 L1048 520 Z " />
<glyph glyph-name="Ncommaaccent" unicode="&#x145;" horiz-adv-x="1691" d="M668 -532 L724 -532 L892 -163 L808 -163 L668 -532 Z M330 1376 L330 58 L140 58 L140 0 L582 0 L582 58 L392 58 L392 1354 L1279 0 L1361 0 L1361 1376 L1551 1376 L1551 1434 L1109 1434 L1109 1376 L1299 1376 L1299 80 L412 1434 L140 1434 L140 1376 L330 1376 Z " />
<glyph glyph-name="ncommaaccent" unicode="&#x146;" horiz-adv-x="1408" d="M522 -532 L578 -532 L746 -163 L662 -163 L522 -532 Z M1048 520 L1048 0 L1288 0 L1288 54 L1106 54 L1106 520 C1106 812 986 1002 704 1002 C476 1002 393 862 360 765 L360 982 L120 982 L120 928 L302 928 L302 54 L120 54 L120 0 L542 0 L542 54 L360 54 L360 520 C360 771 448 948 704 948 C960 948 1048 771 1048 520 L1048 520 Z " />
<glyph glyph-name="Ncaron" unicode="&#x147;" horiz-adv-x="1691" d="M1091 1803 L1034 1803 L845 1594 L657 1803 L599 1803 L816 1536 L874 1536 L1091 1803 Z M330 1376 L330 58 L140 58 L140 0 L582 0 L582 58 L392 58 L392 1354 L1279 0 L1361 0 L1361 1376 L1551 1376 L1551 1434 L1109 1434 L1109 1376 L1299 1376 L1299 80 L412 1434 L140 1434 L140 1376 L330 1376 Z " />
<glyph glyph-name="ncaron" unicode="&#x148;" horiz-adv-x="1408" d="M950 1434 L893 1434 L704 1225 L516 1434 L458 1434 L675 1167 L733 1167 L950 1434 Z M1048 520 L1048 0 L1288 0 L1288 54 L1106 54 L1106 520 C1106 812 986 1002 704 1002 C476 1002 393 862 360 765 L360 982 L120 982 L120 928 L302 928 L302 54 L120 54 L120 0 L542 0 L542 54 L360 54 L360 520 C360 771 448 948 704 948 C960 948 1048 771 1048 520 L1048 520 Z " />
<glyph glyph-name="napostrophe" unicode="&#x149;" horiz-adv-x="1411" d="M20 1065 L76 1065 L244 1434 L160 1434 L20 1065 Z M1051 520 L1051 0 L1291 0 L1291 54 L1109 54 L1109 520 C1109 812 989 1002 707 1002 C479 1002 396 862 363 765 L363 982 L123 982 L123 928 L305 928 L305 54 L123 54 L123 0 L545 0 L545 54 L363 54 L363 520 C363 771 451 948 707 948 C963 948 1051 771 1051 520 L1051 520 Z " />
<glyph glyph-name="Eng" unicode="&#x14a;" horiz-adv-x="1691" d="M330 1376 L330 58 L140 58 L140 0 L582 0 L582 58 L392 58 L392 1354 L1279 0 L1299 0 L1299 -90 C1299 -330 1217 -474 997 -474 C892 -474 814 -424 755 -346 L708 -381 C774 -480 880 -532 997 -532 C1247 -532 1361 -383 1361 -90 L1361 1376 L1551 1376 L1551 1434 L1109 1434 L1109 1376 L1299 1376 L1299 80 L412 1434 L140 1434 L140 1376 L330 1376 Z " />
<glyph glyph-name="eng" unicode="&#x14b;" horiz-adv-x="1246" d="M1048 520 L1048 -74 C1048 -299 1038 -479 840 -479 C800 -479 753 -471 724 -463 L708 -513 C743 -525 793 -532 840 -532 C1062 -532 1106 -367 1106 -74 L1106 520 C1106 812 986 1002 704 1002 C476 1002 393 862 360 765 L360 982 L120 982 L120 928 L302 928 L302 54 L120 54 L120 0 L542 0 L542 54 L360 54 L360 520 C360 771 448 948 704 948 C960 948 1048 771 1048 520 L1048 520 Z " />
<glyph glyph-name="Omacron" unicode="&#x14c;" horiz-adv-x="1652" d="M120 717 C120 313 367 -20 826 -20 C1285 -20 1532 313 1532 717 C1532 1120 1285 1454 826 1454 C367 1454 120 1120 120 717 L120 717 Z M186 717 C186 1094 404 1396 826 1396 C1248 1396 1466 1094 1466 717 C1466 340 1248 38 826 38 C404 38 186 340 186 717 L186 717 Z M496 1556 L1156 1556 L1156 1610 L496 1610 L496 1556 Z " />
<glyph glyph-name="omacron" unicode="&#x14d;" horiz-adv-x="1180" d="M100 491 C100 189 287 -20 590 -20 C892 -20 1080 190 1080 491 C1080 793 892 1002 590 1002 C287 1002 100 792 100 491 L100 491 Z M162 491 C162 763 320 948 590 948 C859 948 1018 763 1018 491 C1018 218 859 34 590 34 C320 34 162 218 162 491 L162 491 Z M260 1380 L920 1380 L920 1434 L260 1434 L260 1380 Z " />
<glyph glyph-name="Obreve" unicode="&#x14e;" horiz-adv-x="1652" d="M120 717 C120 313 367 -20 826 -20 C1285 -20 1532 313 1532 717 C1532 1120 1285 1454 826 1454 C367 1454 120 1120 120 717 L120 717 Z M186 717 C186 1094 404 1396 826 1396 C1248 1396 1466 1094 1466 717 C1466 340 1248 38 826 38 C404 38 186 340 186 717 L186 717 Z M826 1536 C1079 1536 1122 1740 1122 1740 L1069 1740 C1023 1629 934 1590 826 1590 C718 1590 629 1629 583 1740 L530 1740 C530 1740 573 1536 826 1536 L826 1536 Z " />
<glyph glyph-name="obreve" unicode="&#x14f;" horiz-adv-x="1180" d="M100 491 C100 189 287 -20 590 -20 C892 -20 1080 190 1080 491 C1080 793 892 1002 590 1002 C287 1002 100 792 100 491 L100 491 Z M162 491 C162 763 320 948 590 948 C859 948 1018 763 1018 491 C1018 218 859 34 590 34 C320 34 162 218 162 491 L162 491 Z M590 1230 C843 1230 886 1434 886 1434 L833 1434 C787 1323 698 1284 590 1284 C482 1284 393 1323 347 1434 L294 1434 C294 1434 337 1230 590 1230 L590 1230 Z " />
<glyph glyph-name="Ohungarumlaut" unicode="&#x150;" horiz-adv-x="1652" d="M120 717 C120 313 367 -20 826 -20 C1285 -20 1532 313 1532 717 C1532 1120 1285 1454 826 1454 C367 1454 120 1120 120 717 L120 717 Z M186 717 C186 1094 404 1396 826 1396 C1248 1396 1466 1094 1466 717 C1466 340 1248 38 826 38 C404 38 186 340 186 717 L186 717 Z M911 1536 L966 1536 L1134 1905 L1050 1905 L911 1536 Z M683 1536 L739 1536 L907 1905 L823 1905 L683 1536 Z " />
<glyph glyph-name="ohungarumlaut" unicode="&#x151;" horiz-adv-x="1180" d="M100 491 C100 189 287 -20 590 -20 C892 -20 1080 190 1080 491 C1080 793 892 1002 590 1002 C287 1002 100 792 100 491 L100 491 Z M162 491 C162 763 320 948 590 948 C859 948 1018 763 1018 491 C1018 218 859 34 590 34 C320 34 162 218 162 491 L162 491 Z M663 1147 L718 1147 L886 1516 L802 1516 L663 1147 Z M435 1147 L491 1147 L659 1516 L575 1516 L435 1147 Z " />
<glyph glyph-name="OE" unicode="&#x152;" horiz-adv-x="2207" d="M1167 1347 C1056 1427 927 1454 786 1454 C367 1454 100 1120 100 717 C100 313 367 -20 786 -20 C927 -20 1058 7 1167 84 L1167 0 L2087 0 L2087 200 L2025 200 L2025 58 L1229 58 L1229 705 L1937 705 L1937 763 L1229 763 L1229 1376 L2015 1376 L2015 1186 L2077 1186 L2077 1434 L1167 1434 L1167 1347 Z M1167 158 C1062 68 929 38 786 38 C404 38 165 340 165 717 C165 1094 404 1396 786 1396 C929 1396 1062 1366 1167 1275 L1167 158 Z " />
<glyph glyph-name="oe" unicode="&#x153;" horiz-adv-x="2015" d="M1467 34 C1236 34 1094 204 1080 464 L1915 464 C1915 835 1718 1002 1467 1002 C1261 1002 1109 881 1048 692 C982 882 819 1002 590 1002 C287 1002 100 792 100 491 C100 189 287 -20 590 -20 C819 -20 982 100 1048 290 C1109 100 1261 -20 1467 -20 C1678 -20 1797 60 1848 105 L1805 146 C1756 106 1645 34 1467 34 L1467 34 Z M162 491 C162 763 320 948 590 948 C859 948 1018 763 1018 491 C1018 218 859 34 590 34 C320 34 162 218 162 491 L162 491 Z M1080 518 C1094 776 1238 948 1467 948 C1706 948 1840 776 1853 518 L1080 518 Z " />
<glyph glyph-name="Racute" unicode="&#x154;" horiz-adv-x="1469" d="M646 1536 L702 1536 L952 1803 L868 1803 L646 1536 Z M1136 0 L1349 0 L1349 58 L1173 58 L908 653 C1220 656 1314 844 1314 1043 C1314 1243 1199 1434 928 1434 L140 1434 L140 1376 L330 1376 L330 58 L140 58 L140 0 L582 0 L582 58 L392 58 L392 653 L845 653 L1136 0 Z M928 1376 C1169 1376 1250 1213 1250 1043 C1250 875 1169 711 928 711 L392 711 L392 1376 L928 1376 Z " />
<glyph glyph-name="racute" unicode="&#x155;" horiz-adv-x="937" d="M481 1167 L537 1167 L787 1434 L703 1434 L481 1167 Z M887 967 C836 990 775 1002 704 1002 C476 1002 393 862 360 765 L360 982 L120 982 L120 928 L302 928 L302 54 L120 54 L120 0 L542 0 L542 54 L360 54 L360 518 C360 771 448 948 704 948 C760 948 814 937 856 921 L887 967 Z " />
<glyph glyph-name="Rcommaaccent" unicode="&#x156;" horiz-adv-x="1469" d="M572 -532 L628 -532 L796 -163 L712 -163 L572 -532 Z M1136 0 L1349 0 L1349 58 L1173 58 L908 653 C1220 656 1314 844 1314 1043 C1314 1243 1199 1434 928 1434 L140 1434 L140 1376 L330 1376 L330 58 L140 58 L140 0 L582 0 L582 58 L392 58 L392 653 L845 653 L1136 0 Z M928 1376 C1169 1376 1250 1213 1250 1043 C1250 875 1169 711 928 711 L392 711 L392 1376 L928 1376 Z " />
<glyph glyph-name="rcommaaccent" unicode="&#x157;" horiz-adv-x="937" d="M148 -532 L204 -532 L372 -163 L288 -163 L148 -532 Z M887 967 C836 990 775 1002 704 1002 C476 1002 393 862 360 765 L360 982 L120 982 L120 928 L302 928 L302 54 L120 54 L120 0 L542 0 L542 54 L360 54 L360 518 C360 771 448 948 704 948 C760 948 814 937 856 921 L887 967 Z " />
<glyph glyph-name="Rcaron" unicode="&#x158;" horiz-adv-x="1469" d="M924 1803 L867 1803 L678 1594 L490 1803 L432 1803 L649 1536 L707 1536 L924 1803 Z M1136 0 L1349 0 L1349 58 L1173 58 L908 653 C1220 656 1314 844 1314 1043 C1314 1243 1199 1434 928 1434 L140 1434 L140 1376 L330 1376 L330 58 L140 58 L140 0 L582 0 L582 58 L392 58 L392 653 L845 653 L1136 0 Z M928 1376 C1169 1376 1250 1213 1250 1043 C1250 875 1169 711 928 711 L392 711 L392 1376 L928 1376 Z " />
<glyph glyph-name="rcaron" unicode="&#x159;" horiz-adv-x="937" d="M778 1434 L721 1434 L532 1225 L344 1434 L286 1434 L503 1167 L561 1167 L778 1434 Z M887 967 C836 990 775 1002 704 1002 C476 1002 393 862 360 765 L360 982 L120 982 L120 928 L302 928 L302 54 L120 54 L120 0 L542 0 L542 54 L360 54 L360 518 C360 771 448 948 704 948 C760 948 814 937 856 921 L887 967 Z " />
<glyph glyph-name="Sacute" unicode="&#x15a;" horiz-adv-x="1285" d="M595 1536 L651 1536 L901 1803 L817 1803 L595 1536 Z M1060 1354 C1060 1354 925 1454 624 1454 C292 1454 181 1274 181 1090 C181 932 276 789 642 713 C999 639 1061 524 1061 369 C1061 172 928 38 645 38 C390 38 222 146 222 146 L222 301 L160 301 L160 111 C160 111 336 -20 645 -20 C948 -20 1125 121 1125 369 C1125 578 1011 704 648 778 C324 844 245 965 245 1090 C245 1286 387 1396 624 1396 C879 1396 998 1320 998 1320 L998 1186 L1060 1186 L1060 1354 Z " />
<glyph glyph-name="sacute" unicode="&#x15b;" horiz-adv-x="976" d="M452 1167 L508 1167 L758 1434 L674 1434 L452 1167 Z M758 755 L816 755 L816 937 C816 937 690 1002 479 1002 C229 1002 134 886 134 758 C134 631 212 535 489 482 C733 435 798 353 798 251 C798 100 677 34 497 34 C300 34 178 110 178 110 L178 227 L120 227 L120 76 C120 76 254 -20 497 -20 C701 -20 856 55 856 251 C856 400 749 488 497 538 C257 586 192 654 192 758 C192 887 313 948 479 948 C642 948 758 898 758 898 L758 755 Z " />
<glyph glyph-name="Scircumflex" unicode="&#x15c;" horiz-adv-x="1285" d="M667 1803 L609 1803 L392 1536 L450 1536 L638 1745 L827 1536 L884 1536 L667 1803 Z M1060 1354 C1060 1354 925 1454 624 1454 C292 1454 181 1274 181 1090 C181 932 276 789 642 713 C999 639 1061 524 1061 369 C1061 172 928 38 645 38 C390 38 222 146 222 146 L222 301 L160 301 L160 111 C160 111 336 -20 645 -20 C948 -20 1125 121 1125 369 C1125 578 1011 704 648 778 C324 844 245 965 245 1090 C245 1286 387 1396 624 1396 C879 1396 998 1320 998 1320 L998 1186 L1060 1186 L1060 1354 Z " />
<glyph glyph-name="scircumflex" unicode="&#x15d;" horiz-adv-x="976" d="M517 1434 L459 1434 L242 1167 L300 1167 L488 1376 L677 1167 L734 1167 L517 1434 Z M758 755 L816 755 L816 937 C816 937 690 1002 479 1002 C229 1002 134 886 134 758 C134 631 212 535 489 482 C733 435 798 353 798 251 C798 100 677 34 497 34 C300 34 178 110 178 110 L178 227 L120 227 L120 76 C120 76 254 -20 497 -20 C701 -20 856 55 856 251 C856 400 749 488 497 538 C257 586 192 654 192 758 C192 887 313 948 479 948 C642 948 758 898 758 898 L758 755 Z " />
<glyph glyph-name="Scedilla" unicode="&#x15e;" horiz-adv-x="1285" d="M1060 1354 C1060 1354 925 1454 624 1454 C292 1454 181 1274 181 1090 C181 932 276 789 642 713 C999 639 1061 524 1061 369 C1061 172 928 38 645 38 C390 38 222 146 222 146 L222 301 L160 301 L160 111 C160 111 324 -11 614 -19 L556 -185 C658 -168 781 -172 771 -279 C758 -412 594 -392 508 -354 L486 -399 C611 -461 814 -451 828 -279 C837 -165 738 -124 632 -131 L671 -19 C958 -11 1125 128 1125 369 C1125 578 1011 704 648 778 C324 844 245 965 245 1090 C245 1286 387 1396 624 1396 C879 1396 998 1320 998 1320 L998 1186 L1060 1186 L1060 1354 Z " />
<glyph glyph-name="scedilla" unicode="&#x15f;" horiz-adv-x="976" d="M758 755 L816 755 L816 982 L758 982 L758 953 C703 975 611 1002 479 1002 C229 1002 134 886 134 758 C134 631 212 535 489 482 C733 435 798 353 798 251 C798 100 677 34 507 34 C382 34 274 59 178 116 L178 255 L120 255 L120 86 C207 17 324 -13 458 -19 L400 -185 C502 -168 625 -172 615 -279 C602 -412 438 -392 352 -354 L330 -399 C455 -461 658 -451 672 -279 C681 -165 582 -124 476 -131 L515 -20 C705 -18 856 57 856 251 C856 400 749 488 497 538 C257 586 192 654 192 758 C192 887 313 948 479 948 C586 948 681 924 758 890 L758 755 Z " />
<glyph glyph-name="Scaron" unicode="&#x160;" horiz-adv-x="1285" d="M884 1803 L827 1803 L638 1594 L450 1803 L392 1803 L609 1536 L667 1536 L884 1803 Z M1060 1354 C1060 1354 925 1454 624 1454 C292 1454 181 1274 181 1090 C181 932 276 789 642 713 C999 639 1061 524 1061 369 C1061 172 928 38 645 38 C390 38 222 146 222 146 L222 301 L160 301 L160 111 C160 111 336 -20 645 -20 C948 -20 1125 121 1125 369 C1125 578 1011 704 648 778 C324 844 245 965 245 1090 C245 1286 387 1396 624 1396 C879 1396 998 1320 998 1320 L998 1186 L1060 1186 L1060 1354 Z " />
<glyph glyph-name="scaron" unicode="&#x161;" horiz-adv-x="976" d="M733 1434 L676 1434 L487 1225 L299 1434 L241 1434 L458 1167 L516 1167 L733 1434 Z M758 755 L816 755 L816 937 C816 937 690 1002 479 1002 C229 1002 134 886 134 758 C134 631 212 535 489 482 C733 435 798 353 798 251 C798 100 677 34 497 34 C300 34 178 110 178 110 L178 227 L120 227 L120 76 C120 76 254 -20 497 -20 C701 -20 856 55 856 251 C856 400 749 488 497 538 C257 586 192 654 192 758 C192 887 313 948 479 948 C642 948 758 898 758 898 L758 755 Z " />
<glyph glyph-name="Tcommaaccent" unicode="&#x162;" horiz-adv-x="1428" d="M529 -532 L585 -532 L753 -163 L669 -163 L529 -532 Z M140 1186 L202 1186 L202 1376 L683 1376 L683 58 L493 58 L493 0 L935 0 L935 58 L745 58 L745 1376 L1226 1376 L1226 1186 L1288 1186 L1288 1434 L140 1434 L140 1186 Z " />
<glyph glyph-name="tcommaaccent" unicode="&#x163;" horiz-adv-x="791" d="M80 928 L303 928 L303 438 C303 145 317 -20 589 -20 C636 -20 680 -13 711 -3 L695 48 C668 40 630 33 589 33 C351 33 361 197 361 438 L361 928 L683 928 L683 982 L361 982 L361 1282 L303 1282 L303 982 L80 982 L80 928 Z M323 -532 L379 -532 L547 -163 L463 -163 L323 -532 Z " />
<glyph glyph-name="Tcaron" unicode="&#x164;" horiz-adv-x="1428" d="M960 1803 L903 1803 L714 1594 L526 1803 L468 1803 L685 1536 L743 1536 L960 1803 Z M140 1186 L202 1186 L202 1376 L683 1376 L683 58 L493 58 L493 0 L935 0 L935 58 L745 58 L745 1376 L1226 1376 L1226 1186 L1288 1186 L1288 1434 L140 1434 L140 1186 Z " />
<glyph glyph-name="tcaron" unicode="&#x165;" horiz-adv-x="999" d="M80 928 L303 928 L303 438 C303 145 317 -20 589 -20 C636 -20 680 -13 711 -3 L695 48 C668 40 630 33 589 33 C351 33 361 197 361 438 L361 928 L683 928 L683 982 L361 982 L361 1282 L303 1282 L303 982 L80 982 L80 928 Z M683 1147 L739 1147 L847 1516 L763 1516 L683 1147 Z " />
<glyph glyph-name="Tbar" unicode="&#x166;" horiz-adv-x="1428" d="M140 1186 L202 1186 L202 1376 L683 1376 L683 926 L385 926 L385 868 L683 868 L683 58 L493 58 L493 0 L935 0 L935 58 L745 58 L745 868 L1043 868 L1043 926 L745 926 L745 1376 L1226 1376 L1226 1186 L1288 1186 L1288 1434 L140 1434 L140 1186 Z " />
<glyph glyph-name="tbar" unicode="&#x167;" horiz-adv-x="791" d="M80 582 L303 582 L303 438 C303 145 317 -20 589 -20 C636 -20 680 -13 711 -3 L695 48 C668 40 630 33 589 33 C351 33 361 197 361 438 L361 582 L683 582 L683 635 L361 635 L361 928 L683 928 L683 982 L361 982 L361 1282 L303 1282 L303 982 L80 982 L80 928 L303 928 L303 635 L80 635 L80 582 Z " />
<glyph glyph-name="Utilde" unicode="&#x168;" horiz-adv-x="1708" d="M838 1612 C869 1579 912 1536 977 1536 C1106 1536 1113 1675 1113 1675 L1059 1675 C1059 1675 1057 1585 977 1585 C924 1585 889 1630 865 1655 C834 1688 791 1731 726 1731 C597 1731 590 1591 590 1591 L644 1591 C644 1591 646 1681 726 1681 C779 1681 814 1636 838 1612 L838 1612 Z M1378 585 L1378 1376 L1568 1376 L1568 1434 L1126 1434 L1126 1376 L1316 1376 L1316 585 C1316 223 1136 37 854 37 C572 37 392 223 392 585 L392 1376 L582 1376 L582 1434 L140 1434 L140 1376 L330 1376 L330 585 C330 170 552 -20 854 -20 C1156 -20 1378 170 1378 585 L1378 585 Z " />
<glyph glyph-name="utilde" unicode="&#x169;" horiz-adv-x="1408" d="M691 1315 C722 1282 765 1239 830 1239 C959 1239 966 1378 966 1378 L912 1378 C912 1378 910 1288 830 1288 C777 1288 742 1333 718 1358 C687 1391 644 1434 579 1434 C450 1434 443 1294 443 1294 L497 1294 C497 1294 499 1384 579 1384 C632 1384 667 1339 691 1315 L691 1315 Z M360 982 L120 982 L120 928 L302 928 L302 462 C302 170 422 -20 704 -20 C932 -20 1015 120 1048 217 L1048 0 L1288 0 L1288 54 L1106 54 L1106 982 L866 982 L866 928 L1048 928 L1048 462 C1048 211 960 34 704 34 C448 34 360 211 360 462 L360 982 Z " />
<glyph glyph-name="Umacron" unicode="&#x16a;" horiz-adv-x="1708" d="M524 1556 L1184 1556 L1184 1610 L524 1610 L524 1556 Z M1378 585 L1378 1376 L1568 1376 L1568 1434 L1126 1434 L1126 1376 L1316 1376 L1316 585 C1316 223 1136 37 854 37 C572 37 392 223 392 585 L392 1376 L582 1376 L582 1434 L140 1434 L140 1376 L330 1376 L330 585 C330 170 552 -20 854 -20 C1156 -20 1378 170 1378 585 L1378 585 Z " />
<glyph glyph-name="umacron" unicode="&#x16b;" horiz-adv-x="1408" d="M374 1380 L1034 1380 L1034 1434 L374 1434 L374 1380 Z M360 982 L120 982 L120 928 L302 928 L302 462 C302 170 422 -20 704 -20 C932 -20 1015 120 1048 217 L1048 0 L1288 0 L1288 54 L1106 54 L1106 982 L866 982 L866 928 L1048 928 L1048 462 C1048 211 960 34 704 34 C448 34 360 211 360 462 L360 982 Z " />
<glyph glyph-name="Ubreve" unicode="&#x16c;" horiz-adv-x="1708" d="M1378 585 L1378 1376 L1568 1376 L1568 1434 L1126 1434 L1126 1376 L1316 1376 L1316 585 C1316 223 1136 37 854 37 C572 37 392 223 392 585 L392 1376 L582 1376 L582 1434 L140 1434 L140 1376 L330 1376 L330 585 C330 170 552 -20 854 -20 C1156 -20 1378 170 1378 585 L1378 585 Z M853 1536 C1106 1536 1149 1740 1149 1740 L1096 1740 C1050 1629 961 1590 853 1590 C745 1590 656 1629 610 1740 L557 1740 C557 1740 600 1536 853 1536 L853 1536 Z " />
<glyph glyph-name="ubreve" unicode="&#x16d;" horiz-adv-x="1408" d="M704 1230 C957 1230 1000 1434 1000 1434 L947 1434 C901 1323 812 1284 704 1284 C596 1284 507 1323 461 1434 L408 1434 C408 1434 451 1230 704 1230 L704 1230 Z M360 982 L120 982 L120 928 L302 928 L302 462 C302 170 422 -20 704 -20 C932 -20 1015 120 1048 217 L1048 0 L1288 0 L1288 54 L1106 54 L1106 982 L866 982 L866 928 L1048 928 L1048 462 C1048 211 960 34 704 34 C448 34 360 211 360 462 L360 982 Z " />
<glyph glyph-name="Uring" unicode="&#x16e;" horiz-adv-x="1708" d="M700 1690 C700 1606 770 1536 854 1536 C938 1536 1008 1606 1008 1690 C1008 1774 938 1844 854 1844 C770 1844 700 1774 700 1690 L700 1690 Z M741 1690 C741 1753 791 1805 854 1805 C917 1805 967 1753 967 1690 C967 1627 917 1575 854 1575 C791 1575 741 1627 741 1690 L741 1690 Z M1378 585 L1378 1376 L1568 1376 L1568 1434 L1126 1434 L1126 1376 L1316 1376 L1316 585 C1316 223 1136 37 854 37 C572 37 392 223 392 585 L392 1376 L582 1376 L582 1434 L140 1434 L140 1376 L330 1376 L330 585 C330 170 552 -20 854 -20 C1156 -20 1378 170 1378 585 L1378 585 Z " />
<glyph glyph-name="uring" unicode="&#x16f;" horiz-adv-x="1408" d="M550 1280 C550 1196 620 1126 704 1126 C788 1126 858 1196 858 1280 C858 1364 788 1434 704 1434 C620 1434 550 1364 550 1280 L550 1280 Z M591 1280 C591 1343 641 1395 704 1395 C767 1395 817 1343 817 1280 C817 1217 767 1165 704 1165 C641 1165 591 1217 591 1280 L591 1280 Z M360 982 L120 982 L120 928 L302 928 L302 462 C302 170 422 -20 704 -20 C932 -20 1015 120 1048 217 L1048 0 L1288 0 L1288 54 L1106 54 L1106 982 L866 982 L866 928 L1048 928 L1048 462 C1048 211 960 34 704 34 C448 34 360 211 360 462 L360 982 Z " />
<glyph glyph-name="Uhungarumlaut" unicode="&#x170;" horiz-adv-x="1708" d="M928 1536 L983 1536 L1151 1905 L1067 1905 L928 1536 Z M700 1536 L756 1536 L924 1905 L840 1905 L700 1536 Z M1378 585 L1378 1376 L1568 1376 L1568 1434 L1126 1434 L1126 1376 L1316 1376 L1316 585 C1316 223 1136 37 854 37 C572 37 392 223 392 585 L392 1376 L582 1376 L582 1434 L140 1434 L140 1376 L330 1376 L330 585 C330 170 552 -20 854 -20 C1156 -20 1378 170 1378 585 L1378 585 Z " />
<glyph glyph-name="uhungarumlaut" unicode="&#x171;" horiz-adv-x="1408" d="M784 1147 L839 1147 L1007 1516 L923 1516 L784 1147 Z M556 1147 L612 1147 L780 1516 L696 1516 L556 1147 Z M360 982 L120 982 L120 928 L302 928 L302 462 C302 170 422 -20 704 -20 C932 -20 1015 120 1048 217 L1048 0 L1288 0 L1288 54 L1106 54 L1106 982 L866 982 L866 928 L1048 928 L1048 462 C1048 211 960 34 704 34 C448 34 360 211 360 462 L360 982 Z " />
<glyph glyph-name="Uogonek" unicode="&#x172;" horiz-adv-x="1708" d="M1378 585 L1378 1376 L1568 1376 L1568 1434 L1126 1434 L1126 1376 L1316 1376 L1316 585 C1316 223 1136 37 854 37 C572 37 392 223 392 585 L392 1376 L582 1376 L582 1434 L140 1434 L140 1376 L330 1376 L330 585 C330 170 552 -20 854 -20 C869 -20 883 -19 898 -18 C845 -42 774 -95 767 -205 C757 -362 903 -399 985 -393 L985 -334 C962 -334 821 -340 821 -205 C821 -77 918 -27 974 -9 C1213 37 1378 227 1378 585 L1378 585 Z " />
<glyph glyph-name="uogonek" unicode="&#x173;" horiz-adv-x="1408" d="M360 982 L120 982 L120 928 L302 928 L302 462 C302 170 422 -20 704 -20 C932 -20 1015 120 1048 217 L1048 0 L1228 0 C1212 -3 1052 -39 1042 -205 C1032 -362 1178 -399 1260 -393 L1260 -334 C1237 -334 1096 -340 1096 -205 C1096 -36 1269 -3 1288 0 L1288 54 L1106 54 L1106 982 L866 982 L866 928 L1048 928 L1048 462 C1048 211 960 34 704 34 C448 34 360 211 360 462 L360 982 Z " />
<glyph glyph-name="Wcircumflex" unicode="&#x174;" horiz-adv-x="2295" d="M1177 1803 L1119 1803 L902 1536 L960 1536 L1148 1745 L1337 1536 L1394 1536 L1177 1803 Z M512 1376 L512 1434 L80 1434 L80 1376 L259 1376 L692 0 L761 0 L1148 1370 L1534 0 L1603 0 L2036 1376 L2215 1376 L2215 1434 L1783 1434 L1783 1376 L1975 1376 L1570 78 L1188 1434 L1107 1434 L725 78 L320 1376 L512 1376 Z " />
<glyph glyph-name="wcircumflex" unicode="&#x175;" horiz-adv-x="1920" d="M989 1434 L931 1434 L714 1167 L772 1167 L960 1376 L1149 1167 L1206 1167 L989 1434 Z M1620 928 L1800 928 L1800 982 L1378 982 L1378 928 L1558 928 L1280 78 L988 982 L932 982 L640 78 L361 928 L542 928 L542 982 L120 982 L120 928 L300 928 L609 0 L669 0 L960 892 L1251 0 L1311 0 L1620 928 Z " />
<glyph glyph-name="Ycircumflex" unicode="&#x176;" horiz-adv-x="1600" d="M829 1803 L771 1803 L554 1536 L612 1536 L800 1745 L989 1536 L1046 1536 L829 1803 Z M769 594 L769 58 L579 58 L579 0 L1021 0 L1021 58 L831 58 L831 594 L1346 1376 L1520 1376 L1520 1434 L1088 1434 L1088 1376 L1277 1376 L800 652 L322 1376 L512 1376 L512 1434 L80 1434 L80 1376 L254 1376 L769 594 Z " />
<glyph glyph-name="ycircumflex" unicode="&#x177;" horiz-adv-x="1410" d="M734 1434 L676 1434 L459 1167 L517 1167 L705 1376 L894 1167 L951 1167 L734 1434 Z M542 928 L542 982 L120 982 L120 928 L295 928 L675 0 L559 -276 C517 -368 459 -478 345 -478 L260 -478 L260 -532 L352 -532 C485 -532 559 -426 614 -294 L1115 928 L1290 928 L1290 982 L868 982 L868 928 L1047 928 L705 70 L362 928 L542 928 Z " />
<glyph glyph-name="Ydieresis" unicode="&#x178;" horiz-adv-x="1600" d="M575 1611 C575 1581 600 1556 630 1556 C660 1556 685 1581 685 1611 C685 1641 660 1666 630 1666 C600 1666 575 1641 575 1611 L575 1611 Z M915 1611 C915 1581 940 1556 970 1556 C1000 1556 1025 1581 1025 1611 C1025 1641 1000 1666 970 1666 C940 1666 915 1641 915 1611 L915 1611 Z M769 594 L769 58 L579 58 L579 0 L1021 0 L1021 58 L831 58 L831 594 L1346 1376 L1520 1376 L1520 1434 L1088 1434 L1088 1376 L1277 1376 L800 652 L322 1376 L512 1376 L512 1434 L80 1434 L80 1376 L254 1376 L769 594 Z " />
<glyph glyph-name="Zacute" unicode="&#x179;" horiz-adv-x="1324" d="M606 1536 L662 1536 L912 1803 L828 1803 L606 1536 Z M190 1186 L252 1186 L252 1376 L1093 1376 L140 37 L140 0 L1184 0 L1184 248 L1122 248 L1122 58 L231 58 L1184 1397 L1184 1434 L190 1434 L190 1186 Z " />
<glyph glyph-name="zacute" unicode="&#x17a;" horiz-adv-x="1012" d="M473 1167 L529 1167 L779 1434 L695 1434 L473 1167 Z M159 982 L159 755 L217 755 L217 928 L804 928 L120 33 L120 0 L892 0 L892 227 L834 227 L834 54 L208 54 L892 949 L892 982 L159 982 Z " />
<glyph glyph-name="Zdotaccent" unicode="&#x17b;" horiz-adv-x="1324" d="M607 1611 C607 1581 632 1556 662 1556 C692 1556 717 1581 717 1611 C717 1641 692 1666 662 1666 C632 1666 607 1641 607 1611 L607 1611 Z M190 1186 L252 1186 L252 1376 L1093 1376 L140 37 L140 0 L1184 0 L1184 248 L1122 248 L1122 58 L231 58 L1184 1397 L1184 1434 L190 1434 L190 1186 Z " />
<glyph glyph-name="zdotaccent" unicode="&#x17c;" horiz-adv-x="1012" d="M451 1288 C451 1258 476 1233 506 1233 C536 1233 561 1258 561 1288 C561 1318 536 1343 506 1343 C476 1343 451 1318 451 1288 L451 1288 Z M159 982 L159 755 L217 755 L217 928 L804 928 L120 33 L120 0 L892 0 L892 227 L834 227 L834 54 L208 54 L892 949 L892 982 L159 982 Z " />
<glyph glyph-name="Zcaron" unicode="&#x17d;" horiz-adv-x="1324" d="M908 1803 L851 1803 L662 1594 L474 1803 L416 1803 L633 1536 L691 1536 L908 1803 Z M190 1186 L252 1186 L252 1376 L1093 1376 L140 37 L140 0 L1184 0 L1184 248 L1122 248 L1122 58 L231 58 L1184 1397 L1184 1434 L190 1434 L190 1186 Z " />
<glyph glyph-name="zcaron" unicode="&#x17e;" horiz-adv-x="1012" d="M752 1434 L695 1434 L506 1225 L318 1434 L260 1434 L477 1167 L535 1167 L752 1434 Z M159 982 L159 755 L217 755 L217 928 L804 928 L120 33 L120 0 L892 0 L892 227 L834 227 L834 54 L208 54 L892 949 L892 982 L159 982 Z " />
<glyph glyph-name="longs" unicode="&#x17f;" horiz-adv-x="815" d="M323 54 L141 54 L141 0 L563 0 L563 54 L381 54 L381 1077 C381 1278 371 1482 608 1482 C661 1482 712 1472 745 1462 L765 1513 C724 1527 675 1536 608 1536 C356 1536 323 1370 323 1077 L323 54 Z " />
<glyph glyph-name="florin" unicode="&#x192;" horiz-adv-x="1098" d="M225 929 L520 929 L315 -241 C315 -241 280 -479 48 -479 L-60 -479 L-70 -532 L38 -532 C331 -532 376 -241 376 -241 L582 929 L885 929 L895 982 L592 982 L621 1143 C621 1143 656 1380 887 1380 L998 1380 L1008 1434 L897 1434 C604 1434 559 1143 559 1143 L531 982 L236 982 L225 929 Z " />
<glyph glyph-name="Ohorn" unicode="&#x1a0;" horiz-adv-x="1652" d="M120 717 C120 313 367 -20 826 -20 C1285 -20 1532 313 1532 717 C1532 976 1429 1207 1234 1338 C1316 1359 1426 1416 1426 1573 L1365 1573 C1365 1380 1144 1389 1144 1389 C1053 1430 947 1454 826 1454 C367 1454 120 1120 120 717 L120 717 Z M186 717 C186 1094 404 1396 826 1396 C1248 1396 1466 1094 1466 717 C1466 340 1248 38 826 38 C404 38 186 340 186 717 L186 717 Z " />
<glyph glyph-name="ohorn" unicode="&#x1a1;" horiz-adv-x="1226" d="M100 491 C100 189 287 -20 590 -20 C892 -20 1080 190 1080 491 C1080 642 1033 771 947 861 C1032 874 1176 924 1176 1102 L1116 1102 C1116 910 890 913 887 913 C808 970 708 1002 590 1002 C287 1002 100 792 100 491 L100 491 Z M162 491 C162 763 320 948 590 948 C859 948 1018 763 1018 491 C1018 218 859 34 590 34 C320 34 162 218 162 491 L162 491 Z " />
<glyph glyph-name="Uhorn" unicode="&#x1af;" horiz-adv-x="1801" d="M1378 585 L1378 1376 C1444 1376 1661 1368 1661 1626 L1599 1626 C1599 1430 1461 1434 1378 1434 L1126 1434 L1126 1376 L1316 1376 L1316 585 C1316 223 1136 37 854 37 C572 37 392 223 392 585 L392 1376 L582 1376 L582 1434 L140 1434 L140 1376 L330 1376 L330 585 C330 170 552 -20 854 -20 C1156 -20 1378 170 1378 585 L1378 585 Z " />
<glyph glyph-name="uhorn" unicode="&#x1b0;" horiz-adv-x="1509" d="M360 982 L120 982 L120 928 L302 928 L302 462 C302 170 422 -20 704 -20 C932 -20 1015 120 1048 217 L1048 0 L1288 0 L1288 54 L1106 54 L1106 925 C1106 925 1389 919 1389 1170 L1335 1170 C1335 978 1106 982 1106 982 L866 982 L866 928 L1048 928 L1048 462 C1048 211 960 34 704 34 C448 34 360 211 360 462 L360 982 Z " />
<glyph glyph-name="uni01CD" unicode="&#x1cd;" horiz-adv-x="1737" d="M1115 1803 L1058 1803 L869 1594 L681 1803 L623 1803 L840 1536 L898 1536 L1115 1803 Z M1225 0 L1657 0 L1657 58 L1482 58 L902 1434 L622 1434 L622 1376 L812 1376 L255 58 L80 58 L80 0 L512 0 L512 58 L323 58 L506 495 L1231 495 L1414 58 L1225 58 L1225 0 Z M869 1360 L1207 553 L531 553 L869 1360 Z " />
<glyph glyph-name="uni01CE" unicode="&#x1ce;" horiz-adv-x="1199" d="M794 1434 L737 1434 L548 1225 L360 1434 L302 1434 L519 1167 L577 1167 L794 1434 Z M1079 54 L897 54 L897 582 C897 828 846 1002 530 1002 C389 1002 277 970 194 922 L221 872 C298 916 422 948 530 948 C805 948 831 824 839 592 C605 625 100 627 100 279 C100 72 255 -20 455 -20 C670 -20 783 102 839 248 L839 0 L1079 0 L1079 54 Z M162 279 C162 580 652 571 839 541 L839 432 C839 268 727 34 455 34 C273 34 162 122 162 279 L162 279 Z " />
<glyph glyph-name="uni01CF" unicode="&#x1cf;" horiz-adv-x="692" d="M592 1803 L535 1803 L346 1594 L158 1803 L100 1803 L317 1536 L375 1536 L592 1803 Z M315 58 L125 58 L125 0 L567 0 L567 58 L377 58 L377 1376 L567 1376 L567 1434 L125 1434 L125 1376 L315 1376 L315 58 Z " />
<glyph glyph-name="uni01D0" unicode="&#x1d0;" horiz-adv-x="652" d="M572 1434 L515 1434 L326 1225 L138 1434 L80 1434 L297 1167 L355 1167 L572 1434 Z M298 928 L298 54 L116 54 L116 0 L538 0 L538 54 L356 54 L356 982 L116 982 L116 928 L298 928 Z " />
<glyph glyph-name="uni01D1" unicode="&#x1d1;" horiz-adv-x="1652" d="M120 717 C120 313 367 -20 826 -20 C1285 -20 1532 313 1532 717 C1532 1120 1285 1454 826 1454 C367 1454 120 1120 120 717 L120 717 Z M186 717 C186 1094 404 1396 826 1396 C1248 1396 1466 1094 1466 717 C1466 340 1248 38 826 38 C404 38 186 340 186 717 L186 717 Z M1072 1803 L1015 1803 L826 1594 L638 1803 L580 1803 L797 1536 L855 1536 L1072 1803 Z " />
<glyph glyph-name="uni01D2" unicode="&#x1d2;" horiz-adv-x="1180" d="M100 491 C100 189 287 -20 590 -20 C892 -20 1080 190 1080 491 C1080 793 892 1002 590 1002 C287 1002 100 792 100 491 L100 491 Z M162 491 C162 763 320 948 590 948 C859 948 1018 763 1018 491 C1018 218 859 34 590 34 C320 34 162 218 162 491 L162 491 Z M836 1434 L779 1434 L590 1225 L402 1434 L344 1434 L561 1167 L619 1167 L836 1434 Z " />
<glyph glyph-name="uni01D3" unicode="&#x1d3;" horiz-adv-x="1708" d="M1100 1803 L1043 1803 L854 1594 L666 1803 L608 1803 L825 1536 L883 1536 L1100 1803 Z M1378 585 L1378 1376 L1568 1376 L1568 1434 L1126 1434 L1126 1376 L1316 1376 L1316 585 C1316 223 1136 37 854 37 C572 37 392 223 392 585 L392 1376 L582 1376 L582 1434 L140 1434 L140 1376 L330 1376 L330 585 C330 170 552 -20 854 -20 C1156 -20 1378 170 1378 585 L1378 585 Z " />
<glyph glyph-name="uni01D4" unicode="&#x1d4;" horiz-adv-x="1408" d="M950 1434 L893 1434 L704 1225 L516 1434 L458 1434 L675 1167 L733 1167 L950 1434 Z M360 982 L120 982 L120 928 L302 928 L302 462 C302 170 422 -20 704 -20 C932 -20 1015 120 1048 217 L1048 0 L1288 0 L1288 54 L1106 54 L1106 982 L866 982 L866 928 L1048 928 L1048 462 C1048 211 960 34 704 34 C448 34 360 211 360 462 L360 982 Z " />
<glyph glyph-name="uni01D5" unicode="&#x1d5;" horiz-adv-x="1708" d="M629 1611 C629 1581 654 1556 684 1556 C714 1556 739 1581 739 1611 C739 1641 714 1666 684 1666 C654 1666 629 1641 629 1611 L629 1611 Z M969 1611 C969 1581 994 1556 1024 1556 C1054 1556 1079 1581 1079 1611 C1079 1641 1054 1666 1024 1666 C994 1666 969 1641 969 1611 L969 1611 Z M524 1745 L1184 1745 L1184 1799 L524 1799 L524 1745 Z M1378 585 L1378 1376 L1568 1376 L1568 1434 L1126 1434 L1126 1376 L1316 1376 L1316 585 C1316 223 1136 37 854 37 C572 37 392 223 392 585 L392 1376 L582 1376 L582 1434 L140 1434 L140 1376 L330 1376 L330 585 C330 170 552 -20 854 -20 C1156 -20 1378 170 1378 585 L1378 585 Z " />
<glyph glyph-name="uni01D6" unicode="&#x1d6;" horiz-adv-x="1408" d="M374 1422 L1034 1422 L1034 1476 L374 1476 L374 1422 Z M479 1288 C479 1258 504 1233 534 1233 C564 1233 589 1258 589 1288 C589 1318 564 1343 534 1343 C504 1343 479 1318 479 1288 L479 1288 Z M819 1288 C819 1258 844 1233 874 1233 C904 1233 929 1258 929 1288 C929 1318 904 1343 874 1343 C844 1343 819 1318 819 1288 L819 1288 Z M360 982 L120 982 L120 928 L302 928 L302 462 C302 170 422 -20 704 -20 C932 -20 1015 120 1048 217 L1048 0 L1288 0 L1288 54 L1106 54 L1106 982 L866 982 L866 928 L1048 928 L1048 462 C1048 211 960 34 704 34 C448 34 360 211 360 462 L360 982 Z " />
<glyph glyph-name="uni01D7" unicode="&#x1d7;" horiz-adv-x="1708" d="M629 1611 C629 1581 654 1556 684 1556 C714 1556 739 1581 739 1611 C739 1641 714 1666 684 1666 C654 1666 629 1641 629 1611 L629 1611 Z M969 1611 C969 1581 994 1556 1024 1556 C1054 1556 1079 1581 1079 1611 C1079 1641 1054 1666 1024 1666 C994 1666 969 1641 969 1611 L969 1611 Z M821 1766 L877 1766 L1127 2033 L1043 2033 L821 1766 Z M1378 585 L1378 1376 L1568 1376 L1568 1434 L1126 1434 L1126 1376 L1316 1376 L1316 585 C1316 223 1136 37 854 37 C572 37 392 223 392 585 L392 1376 L582 1376 L582 1434 L140 1434 L140 1376 L330 1376 L330 585 C330 170 552 -20 854 -20 C1156 -20 1378 170 1378 585 L1378 585 Z " />
<glyph glyph-name="uni01D8" unicode="&#x1d8;" horiz-adv-x="1408" d="M479 1288 C479 1258 504 1233 534 1233 C564 1233 589 1258 589 1288 C589 1318 564 1343 534 1343 C504 1343 479 1318 479 1288 L479 1288 Z M819 1288 C819 1258 844 1233 874 1233 C904 1233 929 1258 929 1288 C929 1318 904 1343 874 1343 C844 1343 819 1318 819 1288 L819 1288 Z M671 1443 L727 1443 L977 1710 L893 1710 L671 1443 Z M360 982 L120 982 L120 928 L302 928 L302 462 C302 170 422 -20 704 -20 C932 -20 1015 120 1048 217 L1048 0 L1288 0 L1288 54 L1106 54 L1106 982 L866 982 L866 928 L1048 928 L1048 462 C1048 211 960 34 704 34 C448 34 360 211 360 462 L360 982 Z " />
<glyph glyph-name="uni01D9" unicode="&#x1d9;" horiz-adv-x="1708" d="M629 1611 C629 1581 654 1556 684 1556 C714 1556 739 1581 739 1611 C739 1641 714 1666 684 1666 C654 1666 629 1641 629 1611 L629 1611 Z M969 1611 C969 1581 994 1556 1024 1556 C1054 1556 1079 1581 1079 1611 C1079 1641 1054 1666 1024 1666 C994 1666 969 1641 969 1611 L969 1611 Z M1378 585 L1378 1376 L1568 1376 L1568 1434 L1126 1434 L1126 1376 L1316 1376 L1316 585 C1316 223 1136 37 854 37 C572 37 392 223 392 585 L392 1376 L582 1376 L582 1434 L140 1434 L140 1376 L330 1376 L330 585 C330 170 552 -20 854 -20 C1156 -20 1378 170 1378 585 L1378 585 Z " />
<glyph glyph-name="uni01DA" unicode="&#x1da;" horiz-adv-x="1408" d="M479 1288 C479 1258 504 1233 534 1233 C564 1233 589 1258 589 1288 C589 1318 564 1343 534 1343 C504 1343 479 1318 479 1288 L479 1288 Z M819 1288 C819 1258 844 1233 874 1233 C904 1233 929 1258 929 1288 C929 1318 904 1343 874 1343 C844 1343 819 1318 819 1288 L819 1288 Z M360 982 L120 982 L120 928 L302 928 L302 462 C302 170 422 -20 704 -20 C932 -20 1015 120 1048 217 L1048 0 L1288 0 L1288 54 L1106 54 L1106 982 L866 982 L866 928 L1048 928 L1048 462 C1048 211 960 34 704 34 C448 34 360 211 360 462 L360 982 Z " />
<glyph glyph-name="uni01DB" unicode="&#x1db;" horiz-adv-x="1708" d="M665 2033 L581 2033 L832 1766 L887 1766 L665 2033 Z M629 1611 C629 1581 654 1556 684 1556 C714 1556 739 1581 739 1611 C739 1641 714 1666 684 1666 C654 1666 629 1641 629 1611 L629 1611 Z M969 1611 C969 1581 994 1556 1024 1556 C1054 1556 1079 1581 1079 1611 C1079 1641 1054 1666 1024 1666 C994 1666 969 1641 969 1611 L969 1611 Z M1378 585 L1378 1376 L1568 1376 L1568 1434 L1126 1434 L1126 1376 L1316 1376 L1316 585 C1316 223 1136 37 854 37 C572 37 392 223 392 585 L392 1376 L582 1376 L582 1434 L140 1434 L140 1376 L330 1376 L330 585 C330 170 552 -20 854 -20 C1156 -20 1378 170 1378 585 L1378 585 Z " />
<glyph glyph-name="uni01DC" unicode="&#x1dc;" horiz-adv-x="1408" d="M515 1710 L431 1710 L682 1443 L737 1443 L515 1710 Z M479 1288 C479 1258 504 1233 534 1233 C564 1233 589 1258 589 1288 C589 1318 564 1343 534 1343 C504 1343 479 1318 479 1288 L479 1288 Z M819 1288 C819 1258 844 1233 874 1233 C904 1233 929 1258 929 1288 C929 1318 904 1343 874 1343 C844 1343 819 1318 819 1288 L819 1288 Z M360 982 L120 982 L120 928 L302 928 L302 462 C302 170 422 -20 704 -20 C932 -20 1015 120 1048 217 L1048 0 L1288 0 L1288 54 L1106 54 L1106 982 L866 982 L866 928 L1048 928 L1048 462 C1048 211 960 34 704 34 C448 34 360 211 360 462 L360 982 Z " />
<glyph glyph-name="uni01DE" unicode="&#x1de;" horiz-adv-x="1737" d="M644 1611 C644 1581 669 1556 699 1556 C729 1556 754 1581 754 1611 C754 1641 729 1666 699 1666 C669 1666 644 1641 644 1611 L644 1611 Z M984 1611 C984 1581 1009 1556 1039 1556 C1069 1556 1094 1581 1094 1611 C1094 1641 1069 1666 1039 1666 C1009 1666 984 1641 984 1611 L984 1611 Z M539 1745 L1199 1745 L1199 1799 L539 1799 L539 1745 Z M1225 0 L1657 0 L1657 58 L1482 58 L902 1434 L622 1434 L622 1376 L812 1376 L255 58 L80 58 L80 0 L512 0 L512 58 L323 58 L506 495 L1231 495 L1414 58 L1225 58 L1225 0 Z M869 1360 L1207 553 L531 553 L869 1360 Z " />
<glyph glyph-name="uni01DF" unicode="&#x1df;" horiz-adv-x="1199" d="M323 1288 C323 1258 348 1233 378 1233 C408 1233 433 1258 433 1288 C433 1318 408 1343 378 1343 C348 1343 323 1318 323 1288 L323 1288 Z M663 1288 C663 1258 688 1233 718 1233 C748 1233 773 1258 773 1288 C773 1318 748 1343 718 1343 C688 1343 663 1318 663 1288 L663 1288 Z M218 1422 L878 1422 L878 1476 L218 1476 L218 1422 Z M1079 54 L897 54 L897 582 C897 828 846 1002 530 1002 C389 1002 277 970 194 922 L221 872 C298 916 422 948 530 948 C805 948 831 824 839 592 C605 625 100 627 100 279 C100 72 255 -20 455 -20 C670 -20 783 102 839 248 L839 0 L1079 0 L1079 54 Z M162 279 C162 580 652 571 839 541 L839 432 C839 268 727 34 455 34 C273 34 162 122 162 279 L162 279 Z " />
<glyph glyph-name="uni01E0" unicode="&#x1e0;" horiz-adv-x="1737" d="M814 1611 C814 1581 839 1556 869 1556 C899 1556 924 1581 924 1611 C924 1641 899 1666 869 1666 C839 1666 814 1641 814 1611 L814 1611 Z M539 1745 L1199 1745 L1199 1799 L539 1799 L539 1745 Z M1225 0 L1657 0 L1657 58 L1482 58 L902 1434 L622 1434 L622 1376 L812 1376 L255 58 L80 58 L80 0 L512 0 L512 58 L323 58 L506 495 L1231 495 L1414 58 L1225 58 L1225 0 Z M869 1360 L1207 553 L531 553 L869 1360 Z " />
<glyph glyph-name="uni01E1" unicode="&#x1e1;" horiz-adv-x="1199" d="M493 1288 C493 1258 518 1233 548 1233 C578 1233 603 1258 603 1288 C603 1318 578 1343 548 1343 C518 1343 493 1318 493 1288 L493 1288 Z M218 1422 L878 1422 L878 1476 L218 1476 L218 1422 Z M1079 54 L897 54 L897 582 C897 828 846 1002 530 1002 C389 1002 277 970 194 922 L221 872 C298 916 422 948 530 948 C805 948 831 824 839 592 C605 625 100 627 100 279 C100 72 255 -20 455 -20 C670 -20 783 102 839 248 L839 0 L1079 0 L1079 54 Z M162 279 C162 580 652 571 839 541 L839 432 C839 268 727 34 455 34 C273 34 162 122 162 279 L162 279 Z " />
<glyph glyph-name="uni01E2" unicode="&#x1e2;" horiz-adv-x="2318" d="M1241 1556 L1901 1556 L1901 1610 L1241 1610 L1241 1556 Z M2168 1434 L1008 1434 L1008 1376 L1198 1376 L313 58 L140 58 L140 0 L572 0 L572 58 L387 58 L711 541 L1258 541 L1258 0 L2178 0 L2178 200 L2116 200 L2116 58 L1320 58 L1320 705 L2028 705 L2028 763 L1320 763 L1320 1376 L2106 1376 L2106 1186 L2168 1186 L2168 1434 Z M1258 1356 L1258 599 L751 599 L1258 1356 Z " />
<glyph glyph-name="uni01E3" unicode="&#x1e3;" horiz-adv-x="1836" d="M530 948 C805 948 831 824 839 592 C605 625 100 627 100 279 C100 72 255 -20 455 -20 C643 -20 799 82 871 283 C934 97 1084 -20 1288 -20 C1509 -20 1618 58 1669 105 L1626 144 C1577 100 1486 34 1288 34 C1056 34 916 177 901 464 L1736 464 C1736 835 1539 1002 1288 1002 C1099 1002 956 901 886 738 C860 898 773 1002 530 1002 C389 1002 277 970 194 922 L221 872 C298 916 422 948 530 948 L530 948 Z M162 279 C162 580 652 571 839 541 L839 432 C839 268 727 34 455 34 C273 34 162 122 162 279 L162 279 Z M901 518 C915 776 1059 948 1288 948 C1527 948 1661 776 1674 518 L901 518 Z M586 1380 L1246 1380 L1246 1434 L586 1434 L586 1380 Z " />
<glyph glyph-name="uni01E4" unicode="&#x1e4;" horiz-adv-x="1592" d="M826 1396 C1095 1396 1238 1314 1238 1314 L1238 1185 L1300 1185 L1300 1347 C1300 1347 1150 1454 826 1454 C367 1454 120 1120 120 717 C120 313 367 -20 826 -20 C1020 -20 1182 34 1320 145 L1320 424 L1492 424 L1492 482 L1320 482 L1320 754 L863 754 L863 696 L1258 696 L1258 482 L863 482 L863 424 L1258 424 L1258 176 C1144 88 1004 38 826 38 C404 38 186 340 186 717 C186 1094 404 1396 826 1396 L826 1396 Z " />
<glyph glyph-name="uni01E5" unicode="&#x1e5;" horiz-adv-x="1328" d="M1026 0 L1026 928 L1208 928 L1208 982 L968 982 L968 700 C925 847 800 1002 565 1002 C277 1002 100 772 100 491 C100 210 277 -20 565 -20 C800 -20 925 135 968 282 L968 0 C968 -79 959 -147 943 -205 L642 -205 L642 -259 L924 -259 C861 -412 733 -478 565 -478 C439 -478 320 -439 233 -381 L200 -427 C282 -488 415 -532 565 -532 C735 -532 911 -471 987 -259 L1179 -259 L1179 -205 L1003 -205 C1017 -146 1026 -79 1026 0 L1026 0 Z M968 491 C968 254 835 34 565 34 C295 34 162 254 162 491 C162 728 295 948 565 948 C835 948 968 728 968 491 L968 491 Z " />
<glyph glyph-name="Gcaron" unicode="&#x1e6;" horiz-adv-x="1460" d="M1072 1803 L1015 1803 L826 1594 L638 1803 L580 1803 L797 1536 L855 1536 L1072 1803 Z M826 1396 C1095 1396 1238 1314 1238 1314 L1238 1185 L1300 1185 L1300 1347 C1300 1347 1150 1454 826 1454 C367 1454 120 1120 120 717 C120 313 367 -20 826 -20 C1020 -20 1182 34 1320 145 L1320 754 L863 754 L863 696 L1258 696 L1258 176 C1144 88 1004 38 826 38 C404 38 186 340 186 717 C186 1094 404 1396 826 1396 L826 1396 Z " />
<glyph glyph-name="gcaron" unicode="&#x1e7;" horiz-adv-x="1328" d="M809 1434 L752 1434 L563 1225 L375 1434 L317 1434 L534 1167 L592 1167 L809 1434 Z M1026 0 L1026 928 L1208 928 L1208 982 L968 982 L968 700 C925 847 800 1002 565 1002 C277 1002 100 772 100 491 C100 210 277 -20 565 -20 C800 -20 925 135 968 282 L968 0 C968 -341 809 -478 565 -478 C439 -478 320 -439 233 -381 L200 -427 C282 -488 415 -532 565 -532 C791 -532 1026 -425 1026 0 L1026 0 Z M968 491 C968 254 835 34 565 34 C295 34 162 254 162 491 C162 728 295 948 565 948 C835 948 968 728 968 491 L968 491 Z " />
<glyph glyph-name="uni01E8" unicode="&#x1e8;" horiz-adv-x="1557" d="M996 1803 L939 1803 L750 1594 L562 1803 L504 1803 L721 1536 L779 1536 L996 1803 Z M1216 0 L1417 0 L1417 58 L1247 58 L670 822 L1245 1376 L1407 1376 L1407 1434 L975 1434 L975 1376 L1159 1376 L392 636 L392 1376 L582 1376 L582 1434 L140 1434 L140 1376 L330 1376 L330 58 L140 58 L140 0 L582 0 L582 58 L392 58 L392 554 L627 780 L1216 0 Z " />
<glyph glyph-name="uni01E9" unicode="&#x1e9;" horiz-adv-x="1282" d="M869 1803 L812 1803 L623 1594 L435 1803 L377 1803 L594 1536 L652 1536 L869 1803 Z M1162 0 L1162 54 L1008 54 L606 589 L992 928 L1152 928 L1152 982 L730 982 L730 928 L905 928 L360 451 L360 1516 L120 1516 L120 1462 L302 1462 L302 54 L120 54 L120 0 L542 0 L542 54 L360 54 L360 375 L563 552 L977 0 L1162 0 Z " />
<glyph glyph-name="uni01EA" unicode="&#x1ea;" horiz-adv-x="1652" d="M120 717 C120 313 367 -20 826 -20 C851 -20 876 -19 901 -17 C848 -40 772 -93 765 -205 C755 -362 901 -399 983 -393 L983 -334 C960 -334 819 -340 819 -205 C819 -66 935 -19 987 -5 C1342 64 1532 363 1532 717 C1532 1120 1285 1454 826 1454 C367 1454 120 1120 120 717 L120 717 Z M186 717 C186 1094 404 1396 826 1396 C1248 1396 1466 1094 1466 717 C1466 340 1248 38 826 38 C404 38 186 340 186 717 L186 717 Z " />
<glyph glyph-name="uni01EB" unicode="&#x1eb;" horiz-adv-x="1180" d="M100 491 C100 189 287 -20 590 -20 C602 -20 615 -19 627 -19 C574 -43 503 -96 496 -205 C486 -362 632 -399 714 -393 L714 -334 C691 -334 550 -340 550 -205 C550 -76 650 -27 705 -9 C939 38 1080 230 1080 491 C1080 793 892 1002 590 1002 C287 1002 100 792 100 491 L100 491 Z M162 491 C162 763 320 948 590 948 C859 948 1018 763 1018 491 C1018 218 859 34 590 34 C320 34 162 218 162 491 L162 491 Z " />
<glyph glyph-name="uni01EC" unicode="&#x1ec;" horiz-adv-x="1652" d="M120 717 C120 313 367 -20 826 -20 C851 -20 876 -19 901 -17 C848 -40 772 -93 765 -205 C755 -362 901 -399 983 -393 L983 -334 C960 -334 819 -340 819 -205 C819 -66 935 -19 987 -5 C1342 64 1532 363 1532 717 C1532 1120 1285 1454 826 1454 C367 1454 120 1120 120 717 L120 717 Z M186 717 C186 1094 404 1396 826 1396 C1248 1396 1466 1094 1466 717 C1466 340 1248 38 826 38 C404 38 186 340 186 717 L186 717 Z M496 1556 L1156 1556 L1156 1610 L496 1610 L496 1556 Z " />
<glyph glyph-name="uni01ED" unicode="&#x1ed;" horiz-adv-x="1180" d="M100 491 C100 189 287 -20 590 -20 C602 -20 615 -19 627 -19 C574 -43 503 -96 496 -205 C486 -362 632 -399 714 -393 L714 -334 C691 -334 550 -340 550 -205 C550 -76 650 -27 705 -9 C939 38 1080 230 1080 491 C1080 793 892 1002 590 1002 C287 1002 100 792 100 491 L100 491 Z M162 491 C162 763 320 948 590 948 C859 948 1018 763 1018 491 C1018 218 859 34 590 34 C320 34 162 218 162 491 L162 491 Z M260 1380 L920 1380 L920 1434 L260 1434 L260 1380 Z " />
<glyph glyph-name="uni01F0" unicode="&#x1f0;" horiz-adv-x="534" d="M240 -74 C240 -299 230 -479 32 -479 C-8 -479 -55 -471 -84 -463 L-100 -513 C-65 -525 -15 -532 32 -532 C254 -532 298 -367 298 -74 L298 982 L58 982 L58 928 L240 928 L240 -74 Z M514 1434 L457 1434 L268 1225 L80 1434 L22 1434 L239 1167 L297 1167 L514 1434 Z " />
<glyph glyph-name="uni01F4" unicode="&#x1f4;" horiz-adv-x="1460" d="M780 1536 L836 1536 L1086 1803 L1002 1803 L780 1536 Z M826 1396 C1095 1396 1238 1314 1238 1314 L1238 1185 L1300 1185 L1300 1347 C1300 1347 1150 1454 826 1454 C367 1454 120 1120 120 717 C120 313 367 -20 826 -20 C1020 -20 1182 34 1320 145 L1320 754 L863 754 L863 696 L1258 696 L1258 176 C1144 88 1004 38 826 38 C404 38 186 340 186 717 C186 1094 404 1396 826 1396 L826 1396 Z " />
<glyph glyph-name="uni01F5" unicode="&#x1f5;" horiz-adv-x="1328" d="M524 1167 L580 1167 L830 1434 L746 1434 L524 1167 Z M1026 0 L1026 928 L1208 928 L1208 982 L968 982 L968 700 C925 847 800 1002 565 1002 C277 1002 100 772 100 491 C100 210 277 -20 565 -20 C800 -20 925 135 968 282 L968 0 C968 -341 809 -478 565 -478 C439 -478 320 -439 233 -381 L200 -427 C282 -488 415 -532 565 -532 C791 -532 1026 -425 1026 0 L1026 0 Z M968 491 C968 254 835 34 565 34 C295 34 162 254 162 491 C162 728 295 948 565 948 C835 948 968 728 968 491 L968 491 Z " />
<glyph glyph-name="uni01F8" unicode="&#x1f8;" horiz-adv-x="1691" d="M663 1803 L579 1803 L830 1536 L885 1536 L663 1803 Z M330 1376 L330 58 L140 58 L140 0 L582 0 L582 58 L392 58 L392 1354 L1279 0 L1361 0 L1361 1376 L1551 1376 L1551 1434 L1109 1434 L1109 1376 L1299 1376 L1299 80 L412 1434 L140 1434 L140 1376 L330 1376 Z " />
<glyph glyph-name="uni01F9" unicode="&#x1f9;" horiz-adv-x="1408" d="M499 1434 L415 1434 L666 1167 L721 1167 L499 1434 Z M1048 520 L1048 0 L1288 0 L1288 54 L1106 54 L1106 520 C1106 812 986 1002 704 1002 C476 1002 393 862 360 765 L360 982 L120 982 L120 928 L302 928 L302 54 L120 54 L120 0 L542 0 L542 54 L360 54 L360 520 C360 771 448 948 704 948 C960 948 1048 771 1048 520 L1048 520 Z " />
<glyph glyph-name="Aringacute" unicode="&#x1fa;" horiz-adv-x="1737" d="M715 1690 C715 1606 785 1536 869 1536 C953 1536 1023 1606 1023 1690 C1023 1774 953 1844 869 1844 L859 1844 L1052 2049 L968 2049 L754 1791 C730 1764 715 1728 715 1690 L715 1690 Z M756 1690 C756 1753 806 1805 869 1805 C932 1805 982 1753 982 1690 C982 1627 932 1575 869 1575 C806 1575 756 1627 756 1690 L756 1690 Z M1225 0 L1657 0 L1657 58 L1482 58 L902 1434 L622 1434 L622 1376 L812 1376 L255 58 L80 58 L80 0 L512 0 L512 58 L323 58 L506 495 L1231 495 L1414 58 L1225 58 L1225 0 Z M869 1360 L1207 553 L531 553 L869 1360 Z " />
<glyph glyph-name="aringacute" unicode="&#x1fb;" horiz-adv-x="1199" d="M396 1280 C396 1196 466 1126 550 1126 C634 1126 704 1196 704 1280 C704 1364 634 1434 550 1434 L540 1434 L733 1639 L649 1639 L435 1381 C411 1354 396 1318 396 1280 L396 1280 Z M437 1280 C437 1343 487 1395 550 1395 C613 1395 663 1343 663 1280 C663 1217 613 1165 550 1165 C487 1165 437 1217 437 1280 L437 1280 Z M1079 54 L897 54 L897 582 C897 828 846 1002 530 1002 C389 1002 277 970 194 922 L221 872 C298 916 422 948 530 948 C805 948 831 824 839 592 C605 625 100 627 100 279 C100 72 255 -20 455 -20 C670 -20 783 102 839 248 L839 0 L1079 0 L1079 54 Z M162 279 C162 580 652 571 839 541 L839 432 C839 268 727 34 455 34 C273 34 162 122 162 279 L162 279 Z " />
<glyph glyph-name="AEacute" unicode="&#x1fc;" horiz-adv-x="2318" d="M1280 1536 L1336 1536 L1586 1803 L1502 1803 L1280 1536 Z M2168 1434 L1008 1434 L1008 1376 L1198 1376 L313 58 L140 58 L140 0 L572 0 L572 58 L387 58 L711 541 L1258 541 L1258 0 L2178 0 L2178 200 L2116 200 L2116 58 L1320 58 L1320 705 L2028 705 L2028 763 L1320 763 L1320 1376 L2106 1376 L2106 1186 L2168 1186 L2168 1434 Z M1258 1356 L1258 599 L751 599 L1258 1356 Z " />
<glyph glyph-name="aeacute" unicode="&#x1fd;" horiz-adv-x="1836" d="M530 948 C805 948 831 824 839 592 C605 625 100 627 100 279 C100 72 255 -20 455 -20 C643 -20 799 82 871 283 C934 97 1084 -20 1288 -20 C1509 -20 1618 58 1669 105 L1626 144 C1577 100 1486 34 1288 34 C1056 34 916 177 901 464 L1736 464 C1736 835 1539 1002 1288 1002 C1099 1002 956 901 886 738 C860 898 773 1002 530 1002 C389 1002 277 970 194 922 L221 872 C298 916 422 948 530 948 L530 948 Z M162 279 C162 580 652 571 839 541 L839 432 C839 268 727 34 455 34 C273 34 162 122 162 279 L162 279 Z M901 518 C915 776 1059 948 1288 948 C1527 948 1661 776 1674 518 L901 518 Z M881 1167 L937 1167 L1187 1434 L1103 1434 L881 1167 Z " />
<glyph glyph-name="Oslashacute" unicode="&#x1fe;" horiz-adv-x="1652" d="M778 1536 L834 1536 L1084 1803 L1000 1803 L778 1536 Z M120 717 C120 433 241 185 472 62 L412 -61 L478 -61 L526 37 C613 0 713 -20 826 -20 C1285 -20 1532 313 1532 717 C1532 1000 1410 1249 1179 1372 L1239 1495 L1174 1495 L1126 1397 C1039 1433 939 1454 826 1454 C367 1454 120 1120 120 717 L120 717 Z M826 38 C722 38 630 56 551 89 L1153 1319 C1360 1206 1466 980 1466 717 C1466 340 1248 38 826 38 L826 38 Z M186 717 C186 1094 404 1396 826 1396 C930 1396 1021 1378 1100 1344 L498 115 C292 228 186 454 186 717 L186 717 Z " />
<glyph glyph-name="oslashacute" unicode="&#x1ff;" horiz-adv-x="1220" d="M120 491 C120 288 204 127 351 43 L309 -41 L374 -41 L404 18 C464 -6 533 -20 610 -20 C912 -20 1100 190 1100 491 C1100 694 1015 856 867 939 L909 1024 L843 1024 L813 965 C753 989 685 1002 610 1002 C307 1002 120 792 120 491 L120 491 Z M610 34 C542 34 481 45 428 67 L841 889 C967 814 1038 672 1038 491 C1038 218 879 34 610 34 L610 34 Z M182 491 C182 763 340 948 610 948 C676 948 736 936 788 915 L376 93 C251 168 182 310 182 491 L182 491 Z M578 1167 L634 1167 L884 1434 L800 1434 L578 1167 Z " />
<glyph glyph-name="uni0200" unicode="&#x200;" horiz-adv-x="1737" d="M1225 0 L1657 0 L1657 58 L1482 58 L902 1434 L622 1434 L622 1376 L812 1376 L255 58 L80 58 L80 0 L512 0 L512 58 L323 58 L506 495 L1231 495 L1414 58 L1225 58 L1225 0 Z M869 1360 L1207 553 L531 553 L869 1360 Z M553 1803 L469 1803 L720 1536 L775 1536 L553 1803 Z M773 1803 L689 1803 L940 1536 L995 1536 L773 1803 Z " />
<glyph glyph-name="uni0201" unicode="&#x201;" horiz-adv-x="1199" d="M1079 54 L897 54 L897 582 C897 828 846 1002 530 1002 C389 1002 277 970 194 922 L221 872 C298 916 422 948 530 948 C805 948 831 824 839 592 C605 625 100 627 100 279 C100 72 255 -20 455 -20 C670 -20 783 102 839 248 L839 0 L1079 0 L1079 54 Z M162 279 C162 580 652 571 839 541 L839 432 C839 268 727 34 455 34 C273 34 162 122 162 279 L162 279 Z M224 1434 L140 1434 L391 1167 L446 1167 L224 1434 Z M444 1434 L360 1434 L611 1167 L666 1167 L444 1434 Z " />
<glyph glyph-name="uni0202" unicode="&#x202;" horiz-adv-x="1737" d="M870 1740 C617 1740 574 1536 574 1536 L627 1536 C673 1647 762 1686 870 1686 C978 1686 1067 1647 1113 1536 L1166 1536 C1166 1536 1123 1740 870 1740 L870 1740 Z M1225 0 L1657 0 L1657 58 L1482 58 L902 1434 L622 1434 L622 1376 L812 1376 L255 58 L80 58 L80 0 L512 0 L512 58 L323 58 L506 495 L1231 495 L1414 58 L1225 58 L1225 0 Z M869 1360 L1207 553 L531 553 L869 1360 Z " />
<glyph glyph-name="uni0203" unicode="&#x203;" horiz-adv-x="1199" d="M539 1434 C286 1434 243 1230 243 1230 L296 1230 C342 1341 431 1380 539 1380 C647 1380 736 1341 782 1230 L835 1230 C835 1230 792 1434 539 1434 L539 1434 Z M1079 54 L897 54 L897 582 C897 828 846 1002 530 1002 C389 1002 277 970 194 922 L221 872 C298 916 422 948 530 948 C805 948 831 824 839 592 C605 625 100 627 100 279 C100 72 255 -20 455 -20 C670 -20 783 102 839 248 L839 0 L1079 0 L1079 54 Z M162 279 C162 580 652 571 839 541 L839 432 C839 268 727 34 455 34 C273 34 162 122 162 279 L162 279 Z " />
<glyph glyph-name="uni0204" unicode="&#x204;" horiz-adv-x="1390" d="M1178 1186 L1240 1186 L1240 1434 L140 1434 L140 1376 L330 1376 L330 58 L140 58 L140 0 L1250 0 L1250 200 L1188 200 L1188 58 L392 58 L392 705 L1100 705 L1100 763 L392 763 L392 1376 L1178 1376 L1178 1186 Z M413 1803 L329 1803 L580 1536 L635 1536 L413 1803 Z M633 1803 L549 1803 L800 1536 L855 1536 L633 1803 Z " />
<glyph glyph-name="uni0205" unicode="&#x205;" horiz-adv-x="1097" d="M549 34 C318 34 176 204 162 464 L997 464 C997 835 800 1002 549 1002 C277 1002 100 792 100 491 C100 189 277 -20 549 -20 C760 -20 879 60 930 105 L887 146 C838 106 727 34 549 34 L549 34 Z M162 518 C176 776 320 948 549 948 C788 948 922 776 935 518 L162 518 Z M246 1434 L162 1434 L413 1167 L468 1167 L246 1434 Z M466 1434 L382 1434 L633 1167 L688 1167 L466 1434 Z " />
<glyph glyph-name="uni0206" unicode="&#x206;" horiz-adv-x="1390" d="M1178 1186 L1240 1186 L1240 1434 L140 1434 L140 1376 L330 1376 L330 58 L140 58 L140 0 L1250 0 L1250 200 L1188 200 L1188 58 L392 58 L392 705 L1100 705 L1100 763 L392 763 L392 1376 L1178 1376 L1178 1186 Z M715 1740 C462 1740 419 1536 419 1536 L472 1536 C518 1647 607 1686 715 1686 C823 1686 912 1647 958 1536 L1011 1536 C1011 1536 968 1740 715 1740 L715 1740 Z " />
<glyph glyph-name="uni0207" unicode="&#x207;" horiz-adv-x="1097" d="M549 34 C318 34 176 204 162 464 L997 464 C997 835 800 1002 549 1002 C277 1002 100 792 100 491 C100 189 277 -20 549 -20 C760 -20 879 60 930 105 L887 146 C838 106 727 34 549 34 L549 34 Z M162 518 C176 776 320 948 549 948 C788 948 922 776 935 518 L162 518 Z M547 1434 C294 1434 251 1230 251 1230 L304 1230 C350 1341 439 1380 547 1380 C655 1380 744 1341 790 1230 L843 1230 C843 1230 800 1434 547 1434 L547 1434 Z " />
<glyph glyph-name="uni0208" unicode="&#x208;" horiz-adv-x="726" d="M290 58 L100 58 L100 0 L542 0 L542 58 L352 58 L352 1376 L542 1376 L542 1434 L100 1434 L100 1376 L290 1376 L290 58 Z M13 1803 L-71 1803 L180 1536 L235 1536 L13 1803 Z M233 1803 L149 1803 L400 1536 L455 1536 L233 1803 Z " />
<glyph glyph-name="uni0209" unicode="&#x209;" horiz-adv-x="600" d="M-29 1434 L-113 1434 L138 1167 L193 1167 L-29 1434 Z M191 1434 L107 1434 L358 1167 L413 1167 L191 1434 Z M262 928 L262 54 L80 54 L80 0 L502 0 L502 54 L320 54 L320 982 L80 982 L80 928 L262 928 Z " />
<glyph glyph-name="uni020A" unicode="&#x20a;" horiz-adv-x="792" d="M364 58 L174 58 L174 0 L616 0 L616 58 L426 58 L426 1376 L616 1376 L616 1434 L174 1434 L174 1376 L364 1376 L364 58 Z M395 1740 C142 1740 99 1536 99 1536 L152 1536 C198 1647 287 1686 395 1686 C503 1686 592 1647 638 1536 L691 1536 C691 1536 648 1740 395 1740 L395 1740 Z " />
<glyph glyph-name="uni020B" unicode="&#x20b;" horiz-adv-x="752" d="M347 928 L347 54 L165 54 L165 0 L587 0 L587 54 L405 54 L405 982 L165 982 L165 928 L347 928 Z M376 1434 C123 1434 80 1230 80 1230 L133 1230 C179 1341 268 1380 376 1380 C484 1380 573 1341 619 1230 L672 1230 C672 1230 629 1434 376 1434 L376 1434 Z " />
<glyph glyph-name="uni020C" unicode="&#x20c;" horiz-adv-x="1652" d="M120 717 C120 313 367 -20 826 -20 C1285 -20 1532 313 1532 717 C1532 1120 1285 1454 826 1454 C367 1454 120 1120 120 717 L120 717 Z M186 717 C186 1094 404 1396 826 1396 C1248 1396 1466 1094 1466 717 C1466 340 1248 38 826 38 C404 38 186 340 186 717 L186 717 Z M534 1803 L450 1803 L701 1536 L756 1536 L534 1803 Z M754 1803 L670 1803 L921 1536 L976 1536 L754 1803 Z " />
<glyph glyph-name="uni020D" unicode="&#x20d;" horiz-adv-x="1180" d="M100 491 C100 189 287 -20 590 -20 C892 -20 1080 190 1080 491 C1080 793 892 1002 590 1002 C287 1002 100 792 100 491 L100 491 Z M162 491 C162 763 320 948 590 948 C859 948 1018 763 1018 491 C1018 218 859 34 590 34 C320 34 162 218 162 491 L162 491 Z M286 1434 L202 1434 L453 1167 L508 1167 L286 1434 Z M506 1434 L422 1434 L673 1167 L728 1167 L506 1434 Z " />
<glyph glyph-name="uni020E" unicode="&#x20e;" horiz-adv-x="1652" d="M120 717 C120 313 367 -20 826 -20 C1285 -20 1532 313 1532 717 C1532 1120 1285 1454 826 1454 C367 1454 120 1120 120 717 L120 717 Z M186 717 C186 1094 404 1396 826 1396 C1248 1396 1466 1094 1466 717 C1466 340 1248 38 826 38 C404 38 186 340 186 717 L186 717 Z M826 1740 C573 1740 530 1536 530 1536 L583 1536 C629 1647 718 1686 826 1686 C934 1686 1023 1647 1069 1536 L1122 1536 C1122 1536 1079 1740 826 1740 L826 1740 Z " />
<glyph glyph-name="uni020F" unicode="&#x20f;" horiz-adv-x="1180" d="M100 491 C100 189 287 -20 590 -20 C892 -20 1080 190 1080 491 C1080 793 892 1002 590 1002 C287 1002 100 792 100 491 L100 491 Z M162 491 C162 763 320 948 590 948 C859 948 1018 763 1018 491 C1018 218 859 34 590 34 C320 34 162 218 162 491 L162 491 Z M590 1434 C337 1434 294 1230 294 1230 L347 1230 C393 1341 482 1380 590 1380 C698 1380 787 1341 833 1230 L886 1230 C886 1230 843 1434 590 1434 L590 1434 Z " />
<glyph glyph-name="uni0210" unicode="&#x210;" horiz-adv-x="1469" d="M424 1803 L340 1803 L591 1536 L646 1536 L424 1803 Z M644 1803 L560 1803 L811 1536 L866 1536 L644 1803 Z M1136 0 L1349 0 L1349 58 L1173 58 L908 653 C1220 656 1314 844 1314 1043 C1314 1243 1199 1434 928 1434 L140 1434 L140 1376 L330 1376 L330 58 L140 58 L140 0 L582 0 L582 58 L392 58 L392 653 L845 653 L1136 0 Z M928 1376 C1169 1376 1250 1213 1250 1043 C1250 875 1169 711 928 711 L392 711 L392 1376 L928 1376 Z " />
<glyph glyph-name="uni0211" unicode="&#x211;" horiz-adv-x="937" d="M887 967 C836 990 775 1002 704 1002 C476 1002 393 862 360 765 L360 982 L120 982 L120 928 L302 928 L302 54 L120 54 L120 0 L542 0 L542 54 L360 54 L360 518 C360 771 448 948 704 948 C760 948 814 937 856 921 L887 967 Z M226 1434 L142 1434 L393 1167 L448 1167 L226 1434 Z M446 1434 L362 1434 L613 1167 L668 1167 L446 1434 Z " />
<glyph glyph-name="uni0212" unicode="&#x212;" horiz-adv-x="1469" d="M708 1740 C455 1740 412 1536 412 1536 L465 1536 C511 1647 600 1686 708 1686 C816 1686 905 1647 951 1536 L1004 1536 C1004 1536 961 1740 708 1740 L708 1740 Z M1136 0 L1349 0 L1349 58 L1173 58 L908 653 C1220 656 1314 844 1314 1043 C1314 1243 1199 1434 928 1434 L140 1434 L140 1376 L330 1376 L330 58 L140 58 L140 0 L582 0 L582 58 L392 58 L392 653 L845 653 L1136 0 Z M928 1376 C1169 1376 1250 1213 1250 1043 C1250 875 1169 711 928 711 L392 711 L392 1376 L928 1376 Z " />
<glyph glyph-name="uni0213" unicode="&#x213;" horiz-adv-x="937" d="M523 1434 C270 1434 227 1230 227 1230 L280 1230 C326 1341 415 1380 523 1380 C631 1380 720 1341 766 1230 L819 1230 C819 1230 776 1434 523 1434 L523 1434 Z M887 967 C836 990 775 1002 704 1002 C476 1002 393 862 360 765 L360 982 L120 982 L120 928 L302 928 L302 54 L120 54 L120 0 L542 0 L542 54 L360 54 L360 518 C360 771 448 948 704 948 C760 948 814 937 856 921 L887 967 Z " />
<glyph glyph-name="uni0214" unicode="&#x214;" horiz-adv-x="1708" d="M1378 585 L1378 1376 L1568 1376 L1568 1434 L1126 1434 L1126 1376 L1316 1376 L1316 585 C1316 223 1136 37 854 37 C572 37 392 223 392 585 L392 1376 L582 1376 L582 1434 L140 1434 L140 1376 L330 1376 L330 585 C330 170 552 -20 854 -20 C1156 -20 1378 170 1378 585 L1378 585 Z M534 1803 L450 1803 L701 1536 L756 1536 L534 1803 Z M754 1803 L670 1803 L921 1536 L976 1536 L754 1803 Z " />
<glyph glyph-name="uni0215" unicode="&#x215;" horiz-adv-x="1408" d="M360 982 L120 982 L120 928 L302 928 L302 462 C302 170 422 -20 704 -20 C932 -20 1015 120 1048 217 L1048 0 L1288 0 L1288 54 L1106 54 L1106 982 L866 982 L866 928 L1048 928 L1048 462 C1048 211 960 34 704 34 C448 34 360 211 360 462 L360 982 Z M386 1434 L302 1434 L553 1167 L608 1167 L386 1434 Z M606 1434 L522 1434 L773 1167 L828 1167 L606 1434 Z " />
<glyph glyph-name="uni0216" unicode="&#x216;" horiz-adv-x="1708" d="M1378 585 L1378 1376 L1568 1376 L1568 1434 L1126 1434 L1126 1376 L1316 1376 L1316 585 C1316 223 1136 37 854 37 C572 37 392 223 392 585 L392 1376 L582 1376 L582 1434 L140 1434 L140 1376 L330 1376 L330 585 C330 170 552 -20 854 -20 C1156 -20 1378 170 1378 585 L1378 585 Z M853 1740 C600 1740 557 1536 557 1536 L610 1536 C656 1647 745 1686 853 1686 C961 1686 1050 1647 1096 1536 L1149 1536 C1149 1536 1106 1740 853 1740 L853 1740 Z " />
<glyph glyph-name="uni0217" unicode="&#x217;" horiz-adv-x="1408" d="M704 1434 C451 1434 408 1230 408 1230 L461 1230 C507 1341 596 1380 704 1380 C812 1380 901 1341 947 1230 L1000 1230 C1000 1230 957 1434 704 1434 L704 1434 Z M360 982 L120 982 L120 928 L302 928 L302 462 C302 170 422 -20 704 -20 C932 -20 1015 120 1048 217 L1048 0 L1288 0 L1288 54 L1106 54 L1106 982 L866 982 L866 928 L1048 928 L1048 462 C1048 211 960 34 704 34 C448 34 360 211 360 462 L360 982 Z " />
<glyph glyph-name="Scommaaccent" unicode="&#x218;" horiz-adv-x="1285" d="M453 -532 L509 -532 L677 -163 L593 -163 L453 -532 Z M1060 1354 C1060 1354 925 1454 624 1454 C292 1454 181 1274 181 1090 C181 932 276 789 642 713 C999 639 1061 524 1061 369 C1061 172 928 38 645 38 C390 38 222 146 222 146 L222 301 L160 301 L160 111 C160 111 336 -20 645 -20 C948 -20 1125 121 1125 369 C1125 578 1011 704 648 778 C324 844 245 965 245 1090 C245 1286 387 1396 624 1396 C879 1396 998 1320 998 1320 L998 1186 L1060 1186 L1060 1354 Z " />
<glyph glyph-name="scommaaccent" unicode="&#x219;" horiz-adv-x="976" d="M306 -532 L362 -532 L530 -163 L446 -163 L306 -532 Z M758 755 L816 755 L816 937 C816 937 690 1002 479 1002 C229 1002 134 886 134 758 C134 631 212 535 489 482 C733 435 798 353 798 251 C798 100 677 34 497 34 C300 34 178 110 178 110 L178 227 L120 227 L120 76 C120 76 254 -20 497 -20 C701 -20 856 55 856 251 C856 400 749 488 497 538 C257 586 192 654 192 758 C192 887 313 948 479 948 C642 948 758 898 758 898 L758 755 Z " />
<glyph glyph-name="uni021A" unicode="&#x21a;" horiz-adv-x="1428" d="M527 -532 L583 -532 L751 -163 L667 -163 L527 -532 Z M140 1186 L202 1186 L202 1376 L683 1376 L683 58 L493 58 L493 0 L935 0 L935 58 L745 58 L745 1376 L1226 1376 L1226 1186 L1288 1186 L1288 1434 L140 1434 L140 1186 Z " />
<glyph glyph-name="uni021B" unicode="&#x21b;" horiz-adv-x="791" d="M80 928 L303 928 L303 438 C303 145 317 -20 589 -20 C636 -20 680 -13 711 -3 L695 48 C668 40 630 33 589 33 C351 33 361 197 361 438 L361 928 L683 928 L683 982 L361 982 L361 1282 L303 1282 L303 982 L80 982 L80 928 Z M314 -532 L370 -532 L538 -163 L454 -163 L314 -532 Z " />
<glyph glyph-name="uni021E" unicode="&#x21e;" horiz-adv-x="1675" d="M1083 1803 L1026 1803 L837 1594 L649 1803 L591 1803 L808 1536 L866 1536 L1083 1803 Z M392 1376 L582 1376 L582 1434 L140 1434 L140 1376 L330 1376 L330 58 L140 58 L140 0 L582 0 L582 58 L392 58 L392 705 L1283 705 L1283 58 L1093 58 L1093 0 L1535 0 L1535 58 L1345 58 L1345 1376 L1535 1376 L1535 1434 L1093 1434 L1093 1376 L1283 1376 L1283 763 L392 763 L392 1376 Z " />
<glyph glyph-name="uni021F" unicode="&#x21f;" horiz-adv-x="1408" d="M950 1803 L893 1803 L704 1594 L516 1803 L458 1803 L675 1536 L733 1536 L950 1803 Z M1048 520 L1048 0 L1288 0 L1288 54 L1106 54 L1106 520 C1106 812 986 1002 704 1002 C476 1002 393 862 360 765 L360 1516 L120 1516 L120 1462 L302 1462 L302 54 L120 54 L120 0 L542 0 L542 54 L360 54 L360 520 C360 771 448 948 704 948 C960 948 1048 771 1048 520 L1048 520 Z " />
<glyph glyph-name="uni0224" unicode="&#x224;" horiz-adv-x="1324" d="M190 1186 L252 1186 L252 1376 L1093 1376 L140 37 L140 0 L1124 0 C1108 -3 948 -39 938 -205 C928 -362 1074 -399 1156 -393 L1156 -334 C1133 -334 992 -340 992 -205 C992 -36 1165 -3 1184 0 L1184 248 L1122 248 L1122 58 L231 58 L1184 1397 L1184 1434 L190 1434 L190 1186 Z " />
<glyph glyph-name="uni0225" unicode="&#x225;" horiz-adv-x="1012" d="M159 982 L159 755 L217 755 L217 928 L804 928 L120 33 L120 0 L832 0 C816 -3 656 -39 646 -205 C636 -362 782 -399 864 -393 L864 -334 C841 -334 700 -340 700 -205 C700 -27 892 0 892 0 L892 227 L834 227 L834 54 L208 54 L892 949 L892 982 L159 982 Z " />
<glyph glyph-name="uni0226" unicode="&#x226;" horiz-adv-x="1737" d="M814 1611 C814 1581 839 1556 869 1556 C899 1556 924 1581 924 1611 C924 1641 899 1666 869 1666 C839 1666 814 1641 814 1611 L814 1611 Z M1225 0 L1657 0 L1657 58 L1482 58 L902 1434 L622 1434 L622 1376 L812 1376 L255 58 L80 58 L80 0 L512 0 L512 58 L323 58 L506 495 L1231 495 L1414 58 L1225 58 L1225 0 Z M869 1360 L1207 553 L531 553 L869 1360 Z " />
<glyph glyph-name="uni0227" unicode="&#x227;" horiz-adv-x="1199" d="M494 1288 C494 1258 519 1233 549 1233 C579 1233 604 1258 604 1288 C604 1318 579 1343 549 1343 C519 1343 494 1318 494 1288 L494 1288 Z M1079 54 L897 54 L897 582 C897 828 846 1002 530 1002 C389 1002 277 970 194 922 L221 872 C298 916 422 948 530 948 C805 948 831 824 839 592 C605 625 100 627 100 279 C100 72 255 -20 455 -20 C670 -20 783 102 839 248 L839 0 L1079 0 L1079 54 Z M162 279 C162 580 652 571 839 541 L839 432 C839 268 727 34 455 34 C273 34 162 122 162 279 L162 279 Z " />
<glyph glyph-name="uni0228" unicode="&#x228;" horiz-adv-x="1390" d="M1178 1186 L1240 1186 L1240 1434 L140 1434 L140 1376 L330 1376 L330 58 L140 58 L140 0 L707 0 L642 -185 C744 -168 867 -172 857 -279 C844 -412 680 -392 594 -354 L572 -399 C697 -461 900 -451 914 -279 C923 -165 824 -124 718 -131 L764 0 L1250 0 L1250 200 L1188 200 L1188 58 L392 58 L392 705 L1100 705 L1100 763 L392 763 L392 1376 L1178 1376 L1178 1186 Z " />
<glyph glyph-name="uni0229" unicode="&#x229;" horiz-adv-x="1097" d="M381 -399 C506 -461 709 -451 723 -279 C732 -165 633 -124 527 -131 L566 -20 C766 -16 880 61 930 105 L887 146 C838 106 727 34 549 34 C318 34 176 204 162 464 L997 464 C997 835 800 1002 549 1002 C277 1002 100 792 100 491 C100 204 260 1 509 -18 L451 -185 C553 -168 676 -172 666 -279 C653 -412 489 -392 403 -354 L381 -399 Z M162 518 C176 776 320 948 549 948 C788 948 922 776 935 518 L162 518 Z " />
<glyph glyph-name="uni022A" unicode="&#x22a;" horiz-adv-x="1652" d="M120 717 C120 313 367 -20 826 -20 C1285 -20 1532 313 1532 717 C1532 1120 1285 1454 826 1454 C367 1454 120 1120 120 717 L120 717 Z M186 717 C186 1094 404 1396 826 1396 C1248 1396 1466 1094 1466 717 C1466 340 1248 38 826 38 C404 38 186 340 186 717 L186 717 Z M601 1611 C601 1581 626 1556 656 1556 C686 1556 711 1581 711 1611 C711 1641 686 1666 656 1666 C626 1666 601 1641 601 1611 L601 1611 Z M941 1611 C941 1581 966 1556 996 1556 C1026 1556 1051 1581 1051 1611 C1051 1641 1026 1666 996 1666 C966 1666 941 1641 941 1611 L941 1611 Z M496 1745 L1156 1745 L1156 1799 L496 1799 L496 1745 Z " />
<glyph glyph-name="uni022B" unicode="&#x22b;" horiz-adv-x="1180" d="M100 491 C100 189 287 -20 590 -20 C892 -20 1080 190 1080 491 C1080 793 892 1002 590 1002 C287 1002 100 792 100 491 L100 491 Z M162 491 C162 763 320 948 590 948 C859 948 1018 763 1018 491 C1018 218 859 34 590 34 C320 34 162 218 162 491 L162 491 Z M260 1422 L920 1422 L920 1476 L260 1476 L260 1422 Z M365 1288 C365 1258 390 1233 420 1233 C450 1233 475 1258 475 1288 C475 1318 450 1343 420 1343 C390 1343 365 1318 365 1288 L365 1288 Z M705 1288 C705 1258 730 1233 760 1233 C790 1233 815 1258 815 1288 C815 1318 790 1343 760 1343 C730 1343 705 1318 705 1288 L705 1288 Z " />
<glyph glyph-name="uni022C" unicode="&#x22c;" horiz-adv-x="1652" d="M120 717 C120 313 367 -20 826 -20 C1285 -20 1532 313 1532 717 C1532 1120 1285 1454 826 1454 C367 1454 120 1120 120 717 L120 717 Z M186 717 C186 1094 404 1396 826 1396 C1248 1396 1466 1094 1466 717 C1466 340 1248 38 826 38 C404 38 186 340 186 717 L186 717 Z M813 1612 C844 1579 887 1536 952 1536 C1081 1536 1088 1675 1088 1675 L1034 1675 C1034 1675 1032 1585 952 1585 C899 1585 864 1630 840 1655 C809 1688 766 1731 701 1731 C572 1731 565 1591 565 1591 L619 1591 C619 1591 621 1681 701 1681 C754 1681 789 1636 813 1612 L813 1612 Z M496 1809 L1156 1809 L1156 1863 L496 1863 L496 1809 Z " />
<glyph glyph-name="uni022D" unicode="&#x22d;" horiz-adv-x="1180" d="M100 491 C100 189 287 -20 590 -20 C892 -20 1080 190 1080 491 C1080 793 892 1002 590 1002 C287 1002 100 792 100 491 L100 491 Z M162 491 C162 763 320 948 590 948 C859 948 1018 763 1018 491 C1018 218 859 34 590 34 C320 34 162 218 162 491 L162 491 Z M577 1225 C608 1192 651 1149 716 1149 C845 1149 852 1288 852 1288 L798 1288 C798 1288 796 1198 716 1198 C663 1198 628 1243 604 1268 C573 1301 530 1344 465 1344 C336 1344 329 1204 329 1204 L383 1204 C383 1204 385 1294 465 1294 C518 1294 553 1249 577 1225 L577 1225 Z M260 1422 L920 1422 L920 1476 L260 1476 L260 1422 Z " />
<glyph glyph-name="uni022E" unicode="&#x22e;" horiz-adv-x="1652" d="M120 717 C120 313 367 -20 826 -20 C1285 -20 1532 313 1532 717 C1532 1120 1285 1454 826 1454 C367 1454 120 1120 120 717 L120 717 Z M186 717 C186 1094 404 1396 826 1396 C1248 1396 1466 1094 1466 717 C1466 340 1248 38 826 38 C404 38 186 340 186 717 L186 717 Z M771 1611 C771 1581 796 1556 826 1556 C856 1556 881 1581 881 1611 C881 1641 856 1666 826 1666 C796 1666 771 1641 771 1611 L771 1611 Z " />
<glyph glyph-name="uni022F" unicode="&#x22f;" horiz-adv-x="1180" d="M100 491 C100 189 287 -20 590 -20 C892 -20 1080 190 1080 491 C1080 793 892 1002 590 1002 C287 1002 100 792 100 491 L100 491 Z M162 491 C162 763 320 948 590 948 C859 948 1018 763 1018 491 C1018 218 859 34 590 34 C320 34 162 218 162 491 L162 491 Z M535 1288 C535 1258 560 1233 590 1233 C620 1233 645 1258 645 1288 C645 1318 620 1343 590 1343 C560 1343 535 1318 535 1288 L535 1288 Z " />
<glyph glyph-name="uni0230" unicode="&#x230;" horiz-adv-x="1652" d="M120 717 C120 313 367 -20 826 -20 C1285 -20 1532 313 1532 717 C1532 1120 1285 1454 826 1454 C367 1454 120 1120 120 717 L120 717 Z M186 717 C186 1094 404 1396 826 1396 C1248 1396 1466 1094 1466 717 C1466 340 1248 38 826 38 C404 38 186 340 186 717 L186 717 Z M771 1611 C771 1581 796 1556 826 1556 C856 1556 881 1581 881 1611 C881 1641 856 1666 826 1666 C796 1666 771 1641 771 1611 L771 1611 Z M496 1745 L1156 1745 L1156 1799 L496 1799 L496 1745 Z " />
<glyph glyph-name="uni0231" unicode="&#x231;" horiz-adv-x="1180" d="M100 491 C100 189 287 -20 590 -20 C892 -20 1080 190 1080 491 C1080 793 892 1002 590 1002 C287 1002 100 792 100 491 L100 491 Z M162 491 C162 763 320 948 590 948 C859 948 1018 763 1018 491 C1018 218 859 34 590 34 C320 34 162 218 162 491 L162 491 Z M535 1288 C535 1258 560 1233 590 1233 C620 1233 645 1258 645 1288 C645 1318 620 1343 590 1343 C560 1343 535 1318 535 1288 L535 1288 Z M260 1422 L920 1422 L920 1476 L260 1476 L260 1422 Z " />
<glyph glyph-name="uni0232" unicode="&#x232;" horiz-adv-x="1600" d="M470 1536 L1130 1536 L1130 1590 L470 1590 L470 1536 Z M769 594 L769 58 L579 58 L579 0 L1021 0 L1021 58 L831 58 L831 594 L1346 1376 L1520 1376 L1520 1434 L1088 1434 L1088 1376 L1277 1376 L800 652 L322 1376 L512 1376 L512 1434 L80 1434 L80 1376 L254 1376 L769 594 Z " />
<glyph glyph-name="uni0233" unicode="&#x233;" horiz-adv-x="1410" d="M375 1380 L1035 1380 L1035 1434 L375 1434 L375 1380 Z M542 928 L542 982 L120 982 L120 928 L295 928 L675 0 L559 -276 C517 -368 459 -478 345 -478 L260 -478 L260 -532 L352 -532 C485 -532 559 -426 614 -294 L1115 928 L1290 928 L1290 982 L868 982 L868 928 L1047 928 L705 70 L362 928 L542 928 Z " />
<glyph glyph-name="uni0238" unicode="&#x238;" horiz-adv-x="1994" d="M1026 0 L1026 282 C1069 135 1194 -20 1429 -20 C1717 -20 1894 210 1894 491 C1894 772 1717 1002 1429 1002 C1194 1002 1069 847 1026 700 L1026 1462 L1208 1462 L1208 1516 L786 1516 L786 1462 L968 1462 L968 700 C925 847 800 1002 565 1002 C277 1002 100 772 100 491 C100 210 277 -20 565 -20 C800 -20 925 135 968 282 L968 0 L1026 0 Z M1429 948 C1699 948 1832 728 1832 491 C1832 253 1699 34 1429 34 C1159 34 1026 253 1026 491 C1026 729 1159 948 1429 948 L1429 948 Z M565 948 C835 948 968 729 968 491 C968 253 835 34 565 34 C295 34 162 253 162 491 C162 728 295 948 565 948 L565 948 Z " />
<glyph glyph-name="uni0239" unicode="&#x239;" horiz-adv-x="1994" d="M968 982 L968 700 C925 847 800 1002 565 1002 C277 1002 100 772 100 491 C100 210 277 -20 565 -20 C800 -20 925 135 968 282 L968 -478 L786 -478 L786 -532 L1208 -532 L1208 -478 L1026 -478 L1026 282 C1069 135 1194 -20 1429 -20 C1717 -20 1894 210 1894 491 C1894 772 1717 1002 1429 1002 C1194 1002 1069 847 1026 700 L1026 982 L968 982 Z M1429 34 C1159 34 1026 253 1026 491 C1026 729 1159 948 1429 948 C1699 948 1832 729 1832 491 C1832 254 1699 34 1429 34 L1429 34 Z M565 34 C295 34 162 254 162 491 C162 729 295 948 565 948 C835 948 968 729 968 491 C968 253 835 34 565 34 L565 34 Z " />
<glyph glyph-name="uni024C" unicode="&#x24c;" horiz-adv-x="1524" d="M1191 0 L1404 0 L1404 58 L1228 58 L963 653 C1275 656 1369 844 1369 1043 C1369 1243 1254 1434 983 1434 L195 1434 L195 1376 L385 1376 L385 711 L140 711 L140 653 L385 653 L385 58 L195 58 L195 0 L637 0 L637 58 L447 58 L447 653 L900 653 L1191 0 Z M983 1376 C1224 1376 1305 1213 1305 1043 C1305 875 1224 711 983 711 L447 711 L447 1376 L983 1376 Z " />
<glyph glyph-name="uni024D" unicode="&#x24d;" horiz-adv-x="981" d="M931 967 C880 990 819 1002 748 1002 C520 1002 437 862 404 765 L404 982 L164 982 L164 928 L346 928 L346 463 L120 463 L120 410 L346 410 L346 54 L164 54 L164 0 L586 0 L586 54 L404 54 L404 410 L630 410 L630 463 L404 463 L404 518 C404 771 492 948 748 948 C804 948 858 937 900 921 L931 967 Z " />
<glyph glyph-name="uni024E" unicode="&#x24e;" horiz-adv-x="1600" d="M769 594 L769 58 L579 58 L579 0 L1021 0 L1021 58 L831 58 L831 594 L1099 1002 L1325 1002 L1325 1059 L1137 1059 L1346 1376 L1520 1376 L1520 1434 L1088 1434 L1088 1376 L1277 1376 L1068 1059 L531 1059 L322 1376 L512 1376 L512 1434 L80 1434 L80 1376 L254 1376 L463 1059 L276 1059 L276 1002 L500 1002 L769 594 Z M569 1002 L1030 1002 L800 652 L569 1002 Z " />
<glyph glyph-name="uni024F" unicode="&#x24f;" horiz-adv-x="1410" d="M542 928 L542 982 L120 982 L120 928 L295 928 L440 573 L164 573 L164 520 L462 520 L675 0 L559 -276 C517 -368 459 -478 345 -478 L260 -478 L260 -532 L352 -532 C485 -532 559 -426 614 -294 L947 520 L1246 520 L1246 573 L969 573 L1115 928 L1290 928 L1290 982 L868 982 L868 928 L1047 928 L905 573 L504 573 L362 928 L542 928 Z M525 520 L884 520 L705 70 L525 520 Z " />
<glyph glyph-name="circumflex" unicode="&#x2c6;" horiz-adv-x="732" d="M395 1434 L337 1434 L120 1167 L178 1167 L366 1376 L555 1167 L612 1167 L395 1434 Z " />
<glyph glyph-name="caron" unicode="&#x2c7;" horiz-adv-x="692" d="M592 1434 L535 1434 L346 1225 L158 1434 L100 1434 L317 1167 L375 1167 L592 1434 Z " />
<glyph glyph-name="uni02C8" unicode="&#x2c8;" horiz-adv-x="302" d="M120 1106 L182 1106 L182 1434 L120 1434 L120 1106 Z " />
<glyph glyph-name="uni02C9" unicode="&#x2c9;" horiz-adv-x="940" d="M140 1380 L800 1380 L800 1434 L140 1434 L140 1380 Z " />
<glyph glyph-name="uni02CA" unicode="&#x2ca;" horiz-adv-x="546" d="M120 1167 L176 1167 L426 1434 L342 1434 L120 1167 Z " />
<glyph glyph-name="uni02CB" unicode="&#x2cb;" horiz-adv-x="546" d="M204 1434 L120 1434 L371 1167 L426 1167 L204 1434 Z " />
<glyph glyph-name="uni02CC" unicode="&#x2cc;" horiz-adv-x="302" d="M120 -532 L182 -532 L182 -204 L120 -204 L120 -532 Z " />
<glyph glyph-name="uni02CD" unicode="&#x2cd;" horiz-adv-x="900" d="M120 -532 L780 -532 L780 -478 L120 -478 L120 -532 Z " />
<glyph glyph-name="uni02CE" unicode="&#x2ce;" horiz-adv-x="546" d="M204 -265 L120 -265 L371 -532 L426 -532 L204 -265 Z " />
<glyph glyph-name="uni02CF" unicode="&#x2cf;" horiz-adv-x="546" d="M120 -532 L176 -532 L426 -265 L342 -265 L120 -532 Z " />
<glyph glyph-name="uni02D0" unicode="&#x2d0;" horiz-adv-x="449" d="M120 982 L224 798 L329 982 L120 982 Z M329 0 L224 184 L120 0 L329 0 Z " />
<glyph glyph-name="uni02D1" unicode="&#x2d1;" horiz-adv-x="449" d="M120 982 L224 798 L329 982 L120 982 Z " />
<glyph glyph-name="uni02D2" unicode="&#x2d2;" horiz-adv-x="441" d="M321 595 C321 595 321 648 321 648 C223 648 178 722 178 787 C178 855 223 929 321 929 C321 929 321 982 321 982 C200 982 120 894 120 787 C120 681 200 595 321 595 L321 595 Z " />
<glyph glyph-name="uni02D3" unicode="&#x2d3;" horiz-adv-x="441" d="M120 595 C241 595 321 681 321 787 C321 894 241 982 120 982 C120 982 120 929 120 929 C219 929 264 855 264 787 C264 722 219 648 120 648 C120 648 120 595 120 595 L120 595 Z " />
<glyph glyph-name="uni02D4" unicode="&#x2d4;" horiz-adv-x="863" d="M120 613 L743 613 L743 671 L462 671 L462 982 L401 982 L401 671 L120 671 L120 613 Z " />
<glyph glyph-name="uni02D5" unicode="&#x2d5;" horiz-adv-x="863" d="M120 311 L401 311 L401 0 L462 0 L462 311 L743 311 L743 369 L120 369 L120 311 Z " />
<glyph glyph-name="uni02D6" unicode="&#x2d6;" horiz-adv-x="1003" d="M190 613 L471 613 L471 302 L532 302 L532 613 L813 613 L813 671 L532 671 L532 982 L471 982 L471 671 L190 671 L190 613 Z " />
<glyph glyph-name="uni02D7" unicode="&#x2d7;" horiz-adv-x="863" d="M120 613 L743 613 L743 671 L120 671 L120 613 Z " />
<glyph glyph-name="breve" unicode="&#x2d8;" horiz-adv-x="792" d="M396 1230 C649 1230 692 1434 692 1434 L639 1434 C593 1323 504 1284 396 1284 C288 1284 199 1323 153 1434 L100 1434 C100 1434 143 1230 396 1230 L396 1230 Z " />
<glyph glyph-name="dotaccent" unicode="&#x2d9;" horiz-adv-x="270" d="M80 1288 C80 1258 105 1233 135 1233 C165 1233 190 1258 190 1288 C190 1318 165 1343 135 1343 C105 1343 80 1318 80 1288 L80 1288 Z " />
<glyph glyph-name="ring" unicode="&#x2da;" horiz-adv-x="548" d="M120 1280 C120 1196 190 1126 274 1126 C358 1126 428 1196 428 1280 C428 1364 358 1434 274 1434 C190 1434 120 1364 120 1280 L120 1280 Z M161 1280 C161 1343 211 1395 274 1395 C337 1395 387 1343 387 1280 C387 1217 337 1165 274 1165 C211 1165 161 1217 161 1280 L161 1280 Z " />
<glyph glyph-name="ogonek" unicode="&#x2db;" horiz-adv-x="447" d="M289 0 C289 0 112 -31 101 -205 C91 -362 237 -399 319 -393 L319 -334 C296 -334 155 -340 155 -205 C155 -27 347 0 347 0 L289 0 Z " />
<glyph glyph-name="tilde" unicode="&#x2dc;" horiz-adv-x="763" d="M368 1315 C399 1282 442 1239 507 1239 C636 1239 643 1378 643 1378 L589 1378 C589 1378 587 1288 507 1288 C454 1288 419 1333 395 1358 C364 1391 321 1434 256 1434 C127 1434 120 1294 120 1294 L174 1294 C174 1294 176 1384 256 1384 C309 1384 344 1339 368 1315 L368 1315 Z " />
<glyph glyph-name="hungarumlaut" unicode="&#x2dd;" horiz-adv-x="691" d="M348 1065 L403 1065 L571 1434 L487 1434 L348 1065 Z M120 1065 L176 1065 L344 1434 L260 1434 L120 1065 Z " />
<glyph glyph-name="gravecomb" unicode="&#x300;" horiz-adv-x="586" d="M224 1434 L140 1434 L391 1167 L446 1167 L224 1434 Z " />
<glyph glyph-name="acutecomb" unicode="&#x301;" horiz-adv-x="586" d="M140 1167 L196 1167 L446 1434 L362 1434 L140 1167 Z " />
<glyph glyph-name="uni0302" unicode="&#x302;" horiz-adv-x="732" d="M395 1434 L337 1434 L120 1167 L178 1167 L366 1376 L555 1167 L612 1167 L395 1434 Z " />
<glyph glyph-name="tildecomb" unicode="&#x303;" horiz-adv-x="803" d="M388 1315 C419 1282 462 1239 527 1239 C652 1239 663 1378 663 1378 L609 1378 C609 1378 607 1288 527 1288 C474 1288 439 1333 415 1358 C384 1391 341 1434 276 1434 C151 1434 140 1294 140 1294 L194 1294 C194 1294 196 1384 276 1384 C329 1384 364 1339 388 1315 L388 1315 Z " />
<glyph glyph-name="uni0304" unicode="&#x304;" horiz-adv-x="900" d="M120 1380 L780 1380 L780 1434 L120 1434 L120 1380 Z " />
<glyph glyph-name="uni0305" unicode="&#x305;" horiz-adv-x="900" d="M120 1380 L780 1380 L780 1434 L120 1434 L120 1380 Z " />
<glyph glyph-name="uni0306" unicode="&#x306;" horiz-adv-x="832" d="M416 1230 C669 1230 712 1434 712 1434 L659 1434 C613 1323 524 1284 416 1284 C308 1284 219 1323 173 1434 L120 1434 C120 1434 163 1230 416 1230 L416 1230 Z " />
<glyph glyph-name="uni0307" unicode="&#x307;" horiz-adv-x="350" d="M120 1288 C120 1258 145 1233 175 1233 C205 1233 230 1258 230 1288 C230 1318 205 1343 175 1343 C145 1343 120 1318 120 1288 L120 1288 Z " />
<glyph glyph-name="uni0308" unicode="&#x308;" horiz-adv-x="690" d="M120 1288 C120 1258 145 1233 175 1233 C205 1233 230 1258 230 1288 C230 1318 205 1343 175 1343 C145 1343 120 1318 120 1288 L120 1288 Z M460 1288 C460 1258 485 1233 515 1233 C545 1233 570 1258 570 1288 C570 1318 545 1343 515 1343 C485 1343 460 1318 460 1288 L460 1288 Z " />
<glyph glyph-name="hookabovecomb" unicode="&#x309;" horiz-adv-x="563" d="M140 1188 C140 1188 423 1182 423 1434 L362 1434 C362 1241 140 1249 140 1249 L140 1188 Z " />
<glyph glyph-name="uni030A" unicode="&#x30a;" horiz-adv-x="548" d="M120 1280 C120 1196 190 1126 274 1126 C358 1126 428 1196 428 1280 C428 1364 358 1434 274 1434 C190 1434 120 1364 120 1280 L120 1280 Z M161 1280 C161 1343 211 1395 274 1395 C337 1395 387 1343 387 1280 C387 1217 337 1165 274 1165 C211 1165 161 1217 161 1280 L161 1280 Z " />
<glyph glyph-name="uni030B" unicode="&#x30b;" horiz-adv-x="691" d="M348 1065 L403 1065 L571 1434 L487 1434 L348 1065 Z M120 1065 L176 1065 L344 1434 L260 1434 L120 1065 Z " />
<glyph glyph-name="uni030C" unicode="&#x30c;" horiz-adv-x="732" d="M612 1434 L555 1434 L366 1225 L178 1434 L120 1434 L337 1167 L395 1167 L612 1434 Z " />
<glyph glyph-name="uni030D" unicode="&#x30d;" horiz-adv-x="302" d="M120 1106 L182 1106 L182 1434 L120 1434 L120 1106 Z " />
<glyph glyph-name="uni030E" unicode="&#x30e;" horiz-adv-x="507" d="M120 1106 L182 1106 L182 1434 L120 1434 L120 1106 Z M325 1106 L387 1106 L387 1434 L325 1434 L325 1106 Z " />
<glyph glyph-name="uni030F" unicode="&#x30f;" horiz-adv-x="691" d="M204 1434 L120 1434 L288 1065 L343 1065 L204 1434 Z M431 1434 L347 1434 L515 1065 L571 1065 L431 1434 Z " />
<glyph glyph-name="uni0310" unicode="&#x310;" horiz-adv-x="832" d="M416 1230 C669 1230 712 1434 712 1434 L659 1434 C613 1323 524 1284 416 1284 C308 1284 219 1323 173 1434 L120 1434 C120 1434 163 1230 416 1230 L416 1230 Z M361 1489 C361 1459 386 1434 416 1434 C446 1434 471 1459 471 1489 C471 1519 446 1544 416 1544 C386 1544 361 1519 361 1489 L361 1489 Z " />
<glyph glyph-name="uni0311" unicode="&#x311;" horiz-adv-x="832" d="M416 1434 C163 1434 120 1230 120 1230 L173 1230 C219 1341 308 1380 416 1380 C524 1380 613 1341 659 1230 L712 1230 C712 1230 669 1434 416 1434 L416 1434 Z " />
<glyph glyph-name="uni0312" unicode="&#x312;" horiz-adv-x="464" d="M344 1434 L288 1434 L120 1065 L204 1065 L344 1434 Z " />
<glyph glyph-name="uni0313" unicode="&#x313;" horiz-adv-x="464" d="M120 1065 L176 1065 L344 1434 L260 1434 L120 1065 Z " />
<glyph glyph-name="uni0314" unicode="&#x314;" horiz-adv-x="464" d="M204 1434 L120 1434 L288 1065 L344 1065 L204 1434 Z " />
<glyph glyph-name="uni0315" unicode="&#x315;" horiz-adv-x="464" d="M120 1065 L176 1065 L344 1434 L260 1434 L120 1065 Z " />
<glyph glyph-name="uni0316" unicode="&#x316;" horiz-adv-x="546" d="M204 -265 L120 -265 L371 -532 L426 -532 L204 -265 Z " />
<glyph glyph-name="uni0317" unicode="&#x317;" horiz-adv-x="546" d="M120 -532 L176 -532 L426 -265 L342 -265 L120 -532 Z " />
<glyph glyph-name="uni0318" unicode="&#x318;" horiz-adv-x="449" d="M276 -262 L276 -370 L120 -370 L120 -423 L276 -423 L276 -532 L329 -532 L329 -262 L276 -262 Z " />
<glyph glyph-name="uni0319" unicode="&#x319;" horiz-adv-x="449" d="M120 -262 L120 -532 L174 -532 L174 -423 L329 -423 L329 -370 L174 -370 L174 -262 L120 -262 Z " />
<glyph glyph-name="uni031A" unicode="&#x31a;" horiz-adv-x="511" d="M120 1434 L120 1380 L337 1380 L337 1190 L391 1190 L391 1434 L120 1434 Z " />
<glyph glyph-name="uni031B" unicode="&#x31b;" horiz-adv-x="487" d="M305 1434 C305 1434 313 1212 120 1212 L120 1151 C372 1151 366 1434 366 1434 L305 1434 Z " />
<glyph glyph-name="uni031C" unicode="&#x31c;" horiz-adv-x="441" d="M321 -532 C321 -532 321 -479 321 -479 C223 -479 178 -405 178 -339 C178 -272 223 -198 321 -198 C321 -198 321 -145 321 -145 C200 -145 120 -233 120 -339 C120 -446 200 -532 321 -532 L321 -532 Z " />
<glyph glyph-name="uni031D" unicode="&#x31d;" horiz-adv-x="593" d="M473 -479 L323 -479 L323 -323 L270 -323 L270 -479 L120 -479 L120 -532 L473 -532 L473 -479 Z " />
<glyph glyph-name="uni031E" unicode="&#x31e;" horiz-adv-x="593" d="M473 -323 L120 -323 L120 -376 L270 -376 L270 -532 L323 -532 L323 -376 L473 -376 L473 -323 Z " />
<glyph glyph-name="uni031F" unicode="&#x31f;" horiz-adv-x="593" d="M473 18 L316 18 L316 182 L277 182 L277 18 L120 18 L120 -18 L277 -18 L277 -182 L316 -182 L316 -18 L473 -18 L473 18 Z " />
<glyph glyph-name="uni0320" unicode="&#x320;" horiz-adv-x="531" d="M120 -18 L411 -18 L411 18 L120 18 L120 -18 Z " />
<glyph glyph-name="uni0321" unicode="&#x321;" horiz-adv-x="617" d="M440 0 C440 -272 370 -377 120 -377 L120 -430 C403 -430 497 -301 497 0 L440 0 Z " />
<glyph glyph-name="uni0322" unicode="&#x322;" horiz-adv-x="617" d="M120 0 C120 -301 215 -430 497 -430 L497 -377 C247 -377 178 -272 178 0 L120 0 Z " />
<glyph glyph-name="dotbelowcomb" unicode="&#x323;" horiz-adv-x="390" d="M140 -309 C140 -339 165 -364 195 -364 C225 -364 250 -339 250 -309 C250 -279 225 -254 195 -254 C165 -254 140 -279 140 -309 L140 -309 Z " />
<glyph glyph-name="uni0324" unicode="&#x324;" horiz-adv-x="690" d="M120 -317 C120 -347 145 -372 175 -372 C205 -372 230 -347 230 -317 C230 -287 205 -262 175 -262 C145 -262 120 -287 120 -317 L120 -317 Z M460 -317 C460 -347 485 -372 515 -372 C545 -372 570 -347 570 -317 C570 -287 545 -262 515 -262 C485 -262 460 -287 460 -317 L460 -317 Z " />
<glyph glyph-name="uni0325" unicode="&#x325;" horiz-adv-x="548" d="M120 -378 C120 -462 190 -532 274 -532 C358 -532 428 -462 428 -378 C428 -294 358 -224 274 -224 C190 -224 120 -294 120 -378 L120 -378 Z M161 -378 C161 -315 211 -263 274 -263 C337 -263 387 -315 387 -378 C387 -441 337 -493 274 -493 C211 -493 161 -441 161 -378 L161 -378 Z " />
<glyph glyph-name="commaaccent" unicode="&#x326;" horiz-adv-x="504" d="M140 -532 L196 -532 L364 -163 L280 -163 L140 -532 Z " />
<glyph glyph-name="uni0327" unicode="&#x327;" horiz-adv-x="583" d="M120 -399 C245 -461 448 -451 462 -279 C471 -165 372 -124 266 -131 L319 20 L262 20 L190 -185 C292 -168 415 -172 405 -279 C392 -412 228 -392 142 -354 L120 -399 Z " />
<glyph glyph-name="uni0328" unicode="&#x328;" horiz-adv-x="487" d="M309 0 C309 0 132 -31 121 -205 C111 -362 257 -399 339 -393 L339 -334 C316 -334 175 -340 175 -205 C175 -27 367 0 367 0 L309 0 Z " />
<glyph glyph-name="uni0329" unicode="&#x329;" horiz-adv-x="302" d="M120 -532 L182 -532 L182 -204 L120 -204 L120 -532 Z " />
<glyph glyph-name="uni032A" unicode="&#x32a;" horiz-adv-x="838" d="M120 -532 L178 -532 L178 -409 L661 -409 L661 -532 L718 -532 L718 -356 L120 -356 L120 -532 Z " />
<glyph glyph-name="uni032B" unicode="&#x32b;" horiz-adv-x="662" d="M120 -399 C120 -469 156 -532 234 -532 C279 -532 315 -495 331 -428 C347 -495 383 -532 428 -532 C507 -532 542 -469 542 -399 L542 -253 L497 -253 L497 -399 C497 -450 473 -485 428 -485 C375 -485 353 -391 353 -325 L309 -325 C309 -391 287 -485 234 -485 C189 -485 165 -450 165 -399 L165 -253 L120 -253 L120 -399 Z " />
<glyph glyph-name="uni032C" unicode="&#x32c;" horiz-adv-x="732" d="M612 -265 L555 -265 L366 -474 L178 -265 L120 -265 L337 -532 L395 -532 L612 -265 Z " />
<glyph glyph-name="uni032D" unicode="&#x32d;" horiz-adv-x="732" d="M395 -265 L337 -265 L120 -532 L178 -532 L366 -323 L555 -532 L612 -532 L395 -265 Z " />
<glyph glyph-name="uni032E" unicode="&#x32e;" horiz-adv-x="832" d="M416 -532 C669 -532 712 -328 712 -328 L659 -328 C613 -439 524 -478 416 -478 C308 -478 219 -439 173 -328 L120 -328 C120 -328 163 -532 416 -532 L416 -532 Z " />
<glyph glyph-name="uni032F" unicode="&#x32f;" horiz-adv-x="832" d="M416 -328 C163 -328 120 -532 120 -532 L173 -532 C219 -421 308 -382 416 -382 C524 -382 613 -421 659 -532 L712 -532 C712 -532 669 -328 416 -328 L416 -328 Z " />
<glyph glyph-name="uni0330" unicode="&#x330;" horiz-adv-x="763" d="M368 -298 C399 -331 442 -374 507 -374 C636 -374 643 -235 643 -235 L589 -235 C589 -235 587 -325 507 -325 C454 -325 419 -280 395 -255 C364 -222 321 -179 256 -179 C127 -179 120 -319 120 -319 L174 -319 C174 -319 176 -229 256 -229 C309 -229 344 -274 368 -298 L368 -298 Z " />
<glyph glyph-name="uni0331" unicode="&#x331;" horiz-adv-x="900" d="M120 -532 L780 -532 L780 -478 L120 -478 L120 -532 Z " />
<glyph glyph-name="uni0332" unicode="&#x332;" horiz-adv-x="1148" d="M140 -210 L1008 -210 L1008 -156 L140 -156 L140 -210 Z " />
<glyph glyph-name="uni0333" unicode="&#x333;" horiz-adv-x="1148" d="M140 -367 L1008 -367 L1008 -313 L140 -313 L140 -367 Z M140 -210 L1008 -210 L1008 -156 L140 -156 L140 -210 Z " />
<glyph glyph-name="uni0334" unicode="&#x334;" horiz-adv-x="763" d="M368 690 C399 657 442 614 507 614 C636 614 643 753 643 753 L589 753 C589 753 587 663 507 663 C454 663 419 708 395 733 C364 766 321 809 256 809 C127 809 120 669 120 669 L174 669 C174 669 176 759 256 759 C309 759 344 714 368 690 L368 690 Z " />
<glyph glyph-name="uni0335" unicode="&#x335;" horiz-adv-x="736" d="M120 707 L616 707 L616 760 L120 760 L120 707 Z " />
<glyph glyph-name="uni0336" unicode="&#x336;" horiz-adv-x="982" d="M120 707 L862 707 L862 760 L120 760 L120 707 Z " />
<glyph glyph-name="uni0337" unicode="&#x337;" horiz-adv-x="949" d="M755 982 L120 241 L194 241 L829 982 L755 982 Z " />
<glyph glyph-name="uni0338" unicode="&#x338;" horiz-adv-x="1215" d="M120 0 L190 0 L1095 1434 L1026 1434 L120 0 Z " />
<glyph glyph-name="uni0339" unicode="&#x339;" horiz-adv-x="441" d="M120 -532 C241 -532 321 -446 321 -339 C321 -233 241 -145 120 -145 C120 -145 120 -198 120 -198 C219 -198 264 -272 264 -339 C264 -405 219 -479 120 -479 C120 -479 120 -532 120 -532 L120 -532 Z " />
<glyph glyph-name="uni033A" unicode="&#x33a;" horiz-adv-x="838" d="M120 -532 L718 -532 L718 -356 L661 -356 L661 -479 L178 -479 L178 -356 L120 -356 L120 -532 Z " />
<glyph glyph-name="uni033B" unicode="&#x33b;" horiz-adv-x="507" d="M120 -532 L387 -532 L387 -266 L120 -266 L120 -532 Z M168 -313 L339 -313 L339 -485 L168 -485 L168 -313 Z " />
<glyph glyph-name="uni033C" unicode="&#x33c;" horiz-adv-x="662" d="M167 -520 C167 -469 189 -434 234 -434 C288 -434 307 -487 307 -532 L355 -532 C355 -487 374 -434 428 -434 C473 -434 495 -469 495 -520 L542 -520 C542 -450 507 -387 428 -387 C383 -387 348 -413 331 -480 C314 -413 279 -387 234 -387 C155 -387 120 -450 120 -520 L167 -520 Z " />
<glyph glyph-name="uni033D" unicode="&#x33d;" horiz-adv-x="638" d="M344 1286 L512 1434 L460 1434 L319 1311 L178 1434 L127 1434 L294 1286 L120 1128 L172 1128 L319 1264 L466 1128 L518 1128 L344 1286 Z " />
<glyph glyph-name="uni033E" unicode="&#x33e;" horiz-adv-x="435" d="M239 1449 C272 1480 315 1523 315 1588 C315 1713 176 1724 176 1724 L176 1670 C176 1670 266 1668 266 1588 C266 1535 221 1500 196 1476 C163 1445 120 1402 120 1337 C120 1212 260 1201 260 1201 L260 1255 C260 1255 170 1257 170 1337 C170 1390 215 1425 239 1449 L239 1449 Z " />
<glyph glyph-name="uni033F" unicode="&#x33f;" horiz-adv-x="1148" d="M140 1516 L1008 1516 L1008 1570 L140 1570 L140 1516 Z M140 1673 L1008 1673 L1008 1727 L140 1727 L140 1673 Z " />
<glyph glyph-name="uni0340" unicode="&#x340;" horiz-adv-x="546" d="M204 1434 L120 1434 L371 1167 L426 1167 L204 1434 Z " />
<glyph glyph-name="uni0341" unicode="&#x341;" horiz-adv-x="546" d="M120 1167 L176 1167 L426 1434 L342 1434 L120 1167 Z " />
<glyph glyph-name="uni0342" unicode="&#x342;" horiz-adv-x="763" d="M368 1315 C399 1282 442 1239 507 1239 C636 1239 643 1378 643 1378 L589 1378 C589 1378 587 1288 507 1288 C454 1288 419 1333 395 1358 C364 1391 321 1434 256 1434 C127 1434 120 1294 120 1294 L174 1294 C174 1294 176 1384 256 1384 C309 1384 344 1339 368 1315 L368 1315 Z " />
<glyph glyph-name="uni0343" unicode="&#x343;" horiz-adv-x="464" d="M120 1065 L176 1065 L344 1434 L260 1434 L120 1065 Z " />
<glyph glyph-name="uni0344" unicode="&#x344;" horiz-adv-x="690" d="M309 1423 L364 1423 L487 1730 L403 1730 L309 1423 Z M120 1288 C120 1258 145 1233 175 1233 C205 1233 230 1258 230 1288 C230 1318 205 1343 175 1343 C145 1343 120 1318 120 1288 L120 1288 Z M460 1288 C460 1258 485 1233 515 1233 C545 1233 570 1258 570 1288 C570 1318 545 1343 515 1343 C485 1343 460 1318 460 1288 L460 1288 Z " />
<glyph glyph-name="uni0345" unicode="&#x345;" horiz-adv-x="591" d="M120 0 C120 -444 409 -342 471 -244 L436 -209 C346 -301 178 -334 178 0 L120 0 Z " />
<glyph glyph-name="uni0346" unicode="&#x346;" horiz-adv-x="838" d="M120 1258 L178 1258 L178 1381 L661 1381 L661 1258 L718 1258 L718 1434 L120 1434 L120 1258 Z " />
<glyph glyph-name="uni0347" unicode="&#x347;" horiz-adv-x="531" d="M120 -92 L411 -92 L411 -55 L120 -55 L120 -92 Z M120 55 L411 55 L411 92 L120 92 L120 55 Z " />
<glyph glyph-name="uni0348" unicode="&#x348;" horiz-adv-x="507" d="M120 -532 L182 -532 L182 -204 L120 -204 L120 -532 Z M325 -532 L387 -532 L387 -204 L325 -204 L325 -532 Z " />
<glyph glyph-name="uni0349" unicode="&#x349;" horiz-adv-x="511" d="M120 -288 L120 -342 L337 -342 L337 -532 L391 -532 L391 -288 L120 -288 Z " />
<glyph glyph-name="uni034A" unicode="&#x34a;" horiz-adv-x="763" d="M464 1495 L380 1373 C350 1403 311 1434 256 1434 C127 1434 120 1294 120 1294 L174 1294 C174 1294 176 1384 256 1384 C298 1384 328 1356 351 1332 L243 1176 L305 1176 L387 1295 C416 1267 454 1239 507 1239 C636 1239 643 1378 643 1378 L589 1378 C589 1378 587 1288 507 1288 C467 1288 438 1313 415 1336 L526 1495 L464 1495 Z " />
<glyph glyph-name="uni034B" unicode="&#x34b;" horiz-adv-x="763" d="M368 1315 C399 1282 442 1239 507 1239 C636 1239 643 1378 643 1378 L589 1378 C589 1378 587 1288 507 1288 C454 1288 419 1333 395 1358 C364 1391 321 1434 256 1434 C127 1434 120 1294 120 1294 L174 1294 C174 1294 176 1384 256 1384 C309 1384 344 1339 368 1315 L368 1315 Z M430 1485 C430 1455 455 1430 485 1430 C515 1430 540 1455 540 1485 C540 1515 515 1540 485 1540 C455 1540 430 1515 430 1485 L430 1485 Z M223 1192 C223 1162 248 1137 278 1137 C308 1137 333 1162 333 1192 C333 1222 308 1247 278 1247 C248 1247 223 1222 223 1192 L223 1192 Z " />
<glyph glyph-name="uni034C" unicode="&#x34c;" horiz-adv-x="920" d="M460 1310 C507 1275 555 1242 622 1242 C706 1242 768 1281 800 1334 L800 1414 C747 1316 686 1295 622 1295 C552 1295 512 1328 460 1367 C413 1402 366 1434 299 1434 C215 1434 153 1396 120 1342 L120 1262 C174 1361 235 1381 299 1381 C368 1381 409 1348 460 1310 L460 1310 Z M460 1088 C507 1054 555 1021 622 1021 C706 1021 768 1060 800 1113 L800 1193 C747 1094 686 1074 622 1074 C552 1074 512 1107 460 1146 C413 1180 366 1213 299 1213 C215 1213 153 1174 120 1121 L120 1041 C174 1140 235 1160 299 1160 C368 1160 409 1127 460 1088 L460 1088 Z " />
<glyph glyph-name="uni034D" unicode="&#x34d;" horiz-adv-x="1858" d="M1411 -94 L1619 -250 L239 -250 L448 -94 L448 -25 L120 -278 L448 -532 L448 -463 L239 -307 L1619 -307 L1411 -463 L1411 -532 L1738 -278 L1411 -25 L1411 -94 Z " />
<glyph glyph-name="uni034E" unicode="&#x34e;" horiz-adv-x="748" d="M628 -368 L374 -40 L120 -368 L190 -368 L346 -159 L346 -532 L403 -532 L403 -159 L559 -368 L628 -368 Z " />
<glyph glyph-name="tonos" unicode="&#x384;" horiz-adv-x="419" d="M120 1126 L176 1126 L299 1434 L215 1434 L120 1126 Z " />
<glyph glyph-name="dieresistonos" unicode="&#x385;" horiz-adv-x="730" d="M329 1423 L384 1423 L507 1730 L423 1730 L329 1423 Z M140 1288 C140 1258 165 1233 195 1233 C225 1233 250 1258 250 1288 C250 1318 225 1343 195 1343 C165 1343 140 1318 140 1288 L140 1288 Z M480 1288 C480 1258 505 1233 535 1233 C565 1233 590 1258 590 1288 C590 1318 565 1343 535 1343 C505 1343 480 1318 480 1288 L480 1288 Z " />
<glyph glyph-name="Alphatonos" unicode="&#x386;" horiz-adv-x="1737" d="M384 1126 L440 1126 L563 1434 L479 1434 L384 1126 Z M1225 0 L1657 0 L1657 58 L1482 58 L902 1434 L622 1434 L622 1376 L812 1376 L255 58 L80 58 L80 0 L512 0 L512 58 L323 58 L506 495 L1231 495 L1414 58 L1225 58 L1225 0 Z M869 1360 L1207 553 L531 553 L869 1360 Z " />
<glyph glyph-name="Epsilontonos" unicode="&#x388;" horiz-adv-x="1622" d="M140 1126 L196 1126 L319 1434 L235 1434 L140 1126 Z M1410 1186 L1472 1186 L1472 1434 L372 1434 L372 1376 L562 1376 L562 58 L372 58 L372 0 L1482 0 L1482 200 L1420 200 L1420 58 L624 58 L624 705 L1332 705 L1332 763 L624 763 L624 1376 L1410 1376 L1410 1186 Z " />
<glyph glyph-name="Etatonos" unicode="&#x389;" horiz-adv-x="1832" d="M70 1126 L126 1126 L249 1434 L165 1434 L70 1126 Z M549 1376 L739 1376 L739 1434 L297 1434 L297 1376 L487 1376 L487 58 L297 58 L297 0 L739 0 L739 58 L549 58 L549 705 L1440 705 L1440 58 L1250 58 L1250 0 L1692 0 L1692 58 L1502 58 L1502 1376 L1692 1376 L1692 1434 L1250 1434 L1250 1376 L1440 1376 L1440 763 L549 763 L549 1376 Z " />
<glyph glyph-name="Iotatonos" unicode="&#x38a;" horiz-adv-x="870" d="M70 1126 L126 1126 L249 1434 L165 1434 L70 1126 Z M478 58 L288 58 L288 0 L730 0 L730 58 L540 58 L540 1376 L730 1376 L730 1434 L288 1434 L288 1376 L478 1376 L478 58 Z " />
<glyph glyph-name="Omicrontonos" unicode="&#x38c;" horiz-adv-x="1695" d="M120 1126 L176 1126 L299 1434 L215 1434 L120 1126 Z M163 717 C163 313 410 -20 869 -20 C1328 -20 1575 313 1575 717 C1575 1120 1328 1454 869 1454 C410 1454 163 1120 163 717 L163 717 Z M229 717 C229 1094 447 1396 869 1396 C1291 1396 1509 1094 1509 717 C1509 340 1291 38 869 38 C447 38 229 340 229 717 L229 717 Z " />
<glyph glyph-name="Upsilontonos" unicode="&#x38e;" horiz-adv-x="1840" d="M80 1126 L136 1126 L259 1434 L175 1434 L80 1126 Z M1009 594 L1009 58 L819 58 L819 0 L1261 0 L1261 58 L1071 58 L1071 594 L1586 1376 L1760 1376 L1760 1434 L1328 1434 L1328 1376 L1517 1376 L1040 652 L562 1376 L752 1376 L752 1434 L320 1434 L320 1376 L494 1376 L1009 594 Z " />
<glyph glyph-name="Omegatonos" unicode="&#x38f;" horiz-adv-x="1648" d="M664 58 L250 58 L250 248 L188 248 L188 0 L751 0 L751 58 C640 110 250 318 250 782 C250 1139 475 1396 857 1396 C1239 1396 1462 1139 1462 782 C1462 318 1074 110 964 58 L964 0 L1524 0 L1524 248 L1462 248 L1462 58 L1050 58 C1115 79 1528 312 1528 782 C1528 1165 1276 1454 857 1454 C438 1454 184 1165 184 782 C184 312 599 79 664 58 L664 58 Z M120 1126 L176 1126 L299 1434 L215 1434 L120 1126 Z " />
<glyph glyph-name="iotadieresistonos" unicode="&#x390;" horiz-adv-x="610" d="M269 1413 L324 1413 L447 1720 L363 1720 L269 1413 Z M80 1278 C80 1248 105 1223 135 1223 C165 1223 190 1248 190 1278 C190 1308 165 1333 135 1333 C105 1333 80 1308 80 1278 L80 1278 Z M420 1278 C420 1248 445 1223 475 1223 C505 1223 530 1248 530 1278 C530 1308 505 1333 475 1333 C445 1333 420 1308 420 1278 L420 1278 Z M335 176 L335 982 L95 982 L95 928 L277 928 L277 176 C277 123 277 0 421 0 L441 0 L441 53 L421 53 C335 53 335 131 335 176 L335 176 Z " />
<glyph glyph-name="Alpha" unicode="&#x391;" horiz-adv-x="1737" d="M1225 0 L1657 0 L1657 58 L1482 58 L902 1434 L622 1434 L622 1376 L812 1376 L255 58 L80 58 L80 0 L512 0 L512 58 L323 58 L506 495 L1231 495 L1414 58 L1225 58 L1225 0 Z M869 1360 L1207 553 L531 553 L869 1360 Z " />
<glyph glyph-name="Beta" unicode="&#x392;" horiz-adv-x="1475" d="M330 1376 L330 58 L140 58 L140 0 L850 0 C1233 0 1355 199 1355 391 C1355 595 1228 724 1071 757 C1208 794 1294 926 1294 1079 C1294 1253 1200 1434 830 1434 L140 1434 L140 1376 L330 1376 Z M392 725 L940 725 C1179 725 1289 569 1289 391 C1289 213 1179 58 850 58 L392 58 L392 725 Z M392 783 L392 1376 L830 1376 C1156 1376 1228 1235 1228 1079 C1228 913 1126 783 940 783 L392 783 Z " />
<glyph glyph-name="Gamma" unicode="&#x393;" horiz-adv-x="1365" d="M330 1376 L330 58 L140 58 L140 0 L582 0 L582 58 L392 58 L392 1376 L1163 1376 L1163 1186 L1225 1186 L1225 1434 L140 1434 L140 1376 L330 1376 Z " />
<glyph glyph-name="uni0394" unicode="&#x394;" horiz-adv-x="1737" d="M1657 0 L1657 58 L1482 58 L902 1434 L622 1434 L622 1376 L812 1376 L255 58 L80 58 L80 0 L1657 0 Z M869 1360 L1414 58 L323 58 L869 1360 Z " />
<glyph glyph-name="Epsilon" unicode="&#x395;" horiz-adv-x="1390" d="M1178 1186 L1240 1186 L1240 1434 L140 1434 L140 1376 L330 1376 L330 58 L140 58 L140 0 L1250 0 L1250 200 L1188 200 L1188 58 L392 58 L392 705 L1100 705 L1100 763 L392 763 L392 1376 L1178 1376 L1178 1186 Z " />
<glyph glyph-name="Zeta" unicode="&#x396;" horiz-adv-x="1324" d="M190 1186 L252 1186 L252 1376 L1093 1376 L140 37 L140 0 L1184 0 L1184 248 L1122 248 L1122 58 L231 58 L1184 1397 L1184 1434 L190 1434 L190 1186 Z " />
<glyph glyph-name="Eta" unicode="&#x397;" horiz-adv-x="1675" d="M392 1376 L582 1376 L582 1434 L140 1434 L140 1376 L330 1376 L330 58 L140 58 L140 0 L582 0 L582 58 L392 58 L392 705 L1283 705 L1283 58 L1093 58 L1093 0 L1535 0 L1535 58 L1345 58 L1345 1376 L1535 1376 L1535 1434 L1093 1434 L1093 1376 L1283 1376 L1283 763 L392 763 L392 1376 Z " />
<glyph glyph-name="Theta" unicode="&#x398;" horiz-adv-x="1652" d="M507 689 L1146 689 L1146 747 L507 747 L507 689 Z M120 717 C120 313 367 -20 826 -20 C1285 -20 1532 313 1532 717 C1532 1120 1285 1454 826 1454 C367 1454 120 1120 120 717 L120 717 Z M186 717 C186 1094 404 1396 826 1396 C1248 1396 1466 1094 1466 717 C1466 340 1248 38 826 38 C404 38 186 340 186 717 L186 717 Z " />
<glyph glyph-name="Iota" unicode="&#x399;" horiz-adv-x="722" d="M330 58 L140 58 L140 0 L582 0 L582 58 L392 58 L392 1376 L582 1376 L582 1434 L140 1434 L140 1376 L330 1376 L330 58 Z " />
<glyph glyph-name="Kappa" unicode="&#x39a;" horiz-adv-x="1557" d="M1216 0 L1417 0 L1417 58 L1247 58 L670 822 L1245 1376 L1407 1376 L1407 1434 L975 1434 L975 1376 L1159 1376 L392 636 L392 1376 L582 1376 L582 1434 L140 1434 L140 1376 L330 1376 L330 58 L140 58 L140 0 L582 0 L582 58 L392 58 L392 554 L627 780 L1216 0 Z " />
<glyph glyph-name="Lambda" unicode="&#x39b;" horiz-adv-x="1737" d="M869 1360 L1414 58 L1225 58 L1225 0 L1657 0 L1657 58 L1482 58 L902 1434 L622 1434 L622 1376 L812 1376 L255 58 L80 58 L80 0 L512 0 L512 58 L323 58 L869 1360 Z " />
<glyph glyph-name="Mu" unicode="&#x39c;" horiz-adv-x="1996" d="M1666 58 L1666 1376 L1856 1376 L1856 1434 L1575 1434 L998 84 L421 1434 L140 1434 L140 1376 L330 1376 L330 58 L140 58 L140 0 L582 0 L582 58 L392 58 L392 1350 L969 0 L1027 0 L1604 1350 L1604 58 L1414 58 L1414 0 L1856 0 L1856 58 L1666 58 Z " />
<glyph glyph-name="Nu" unicode="&#x39d;" horiz-adv-x="1691" d="M330 1376 L330 58 L140 58 L140 0 L582 0 L582 58 L392 58 L392 1354 L1279 0 L1361 0 L1361 1376 L1551 1376 L1551 1434 L1109 1434 L1109 1376 L1299 1376 L1299 80 L412 1434 L140 1434 L140 1376 L330 1376 Z " />
<glyph glyph-name="Xi" unicode="&#x39e;" horiz-adv-x="1187" d="M120 1376 L1067 1376 L1067 1434 L120 1434 L120 1376 Z M120 0 L1067 0 L1067 58 L120 58 L120 0 Z M243 705 L944 705 L944 763 L243 763 L243 705 Z " />
<glyph glyph-name="Omicron" unicode="&#x39f;" horiz-adv-x="1652" d="M120 717 C120 313 367 -20 826 -20 C1285 -20 1532 313 1532 717 C1532 1120 1285 1454 826 1454 C367 1454 120 1120 120 717 L120 717 Z M186 717 C186 1094 404 1396 826 1396 C1248 1396 1466 1094 1466 717 C1466 340 1248 38 826 38 C404 38 186 340 186 717 L186 717 Z " />
<glyph glyph-name="Pi" unicode="&#x3a0;" horiz-adv-x="1684" d="M1292 1376 L1292 58 L1102 58 L1102 0 L1544 0 L1544 58 L1354 58 L1354 1376 L1544 1376 L1544 1434 L140 1434 L140 1376 L330 1376 L330 58 L140 58 L140 0 L582 0 L582 58 L392 58 L392 1376 L1292 1376 Z " />
<glyph glyph-name="Rho" unicode="&#x3a1;" horiz-adv-x="1454" d="M330 58 L140 58 L140 0 L582 0 L582 58 L392 58 L392 610 L908 610 C1139 610 1334 760 1334 1022 C1334 1284 1139 1434 908 1434 L140 1434 L140 1376 L330 1376 L330 58 Z M908 1376 C1105 1376 1270 1254 1270 1022 C1270 790 1105 668 908 668 L392 668 L392 1376 L908 1376 Z " />
<glyph glyph-name="Sigma" unicode="&#x3a3;" horiz-adv-x="1263" d="M140 0 L1123 0 L1123 200 L1061 200 L1061 58 L245 58 L741 717 L246 1376 L1061 1376 L1061 1186 L1123 1186 L1123 1434 L150 1434 L150 1401 L663 717 L140 33 L140 0 Z " />
<glyph glyph-name="Tau" unicode="&#x3a4;" horiz-adv-x="1428" d="M140 1186 L202 1186 L202 1376 L683 1376 L683 58 L493 58 L493 0 L935 0 L935 58 L745 58 L745 1376 L1226 1376 L1226 1186 L1288 1186 L1288 1434 L140 1434 L140 1186 Z " />
<glyph glyph-name="Upsilon" unicode="&#x3a5;" horiz-adv-x="1600" d="M769 594 L769 58 L579 58 L579 0 L1021 0 L1021 58 L831 58 L831 594 L1346 1376 L1520 1376 L1520 1434 L1088 1434 L1088 1376 L1277 1376 L800 652 L322 1376 L512 1376 L512 1434 L80 1434 L80 1376 L254 1376 L769 594 Z " />
<glyph glyph-name="Phi" unicode="&#x3a6;" horiz-adv-x="1530" d="M734 1251 C372 1251 120 1069 120 717 C120 365 372 183 734 183 L734 58 L544 58 L544 0 L986 0 L986 58 L796 58 L796 183 C1158 183 1410 365 1410 717 C1410 1069 1158 1251 796 1251 L796 1376 L986 1376 L986 1434 L544 1434 L544 1376 L734 1376 L734 1251 Z M734 1193 L734 241 C409 253 186 391 186 717 C186 1042 409 1181 734 1193 L734 1193 Z M796 241 L796 1193 C1121 1181 1344 1042 1344 717 C1344 391 1121 253 796 241 L796 241 Z " />
<glyph glyph-name="Chi" unicode="&#x3a7;" horiz-adv-x="1618" d="M335 1434 L133 1434 L133 1376 L304 1376 L772 752 L251 58 L80 58 L80 0 L512 0 L512 58 L324 58 L809 709 L1337 0 L1538 0 L1538 58 L1366 58 L846 752 L1313 1376 L1485 1376 L1485 1434 L1053 1434 L1053 1376 L1240 1376 L809 796 L335 1434 Z " />
<glyph glyph-name="Psi" unicode="&#x3a8;" horiz-adv-x="1770" d="M854 58 L664 58 L664 0 L1106 0 L1106 58 L916 58 L916 532 C1244 532 1486 724 1499 1376 L1690 1376 L1690 1434 L1438 1434 C1438 881 1301 586 916 586 L916 1376 L1106 1376 L1106 1434 L664 1434 L664 1376 L854 1376 L854 586 C469 586 332 881 332 1434 L80 1434 L80 1376 L270 1376 C284 724 525 532 854 532 L854 58 Z " />
<glyph glyph-name="uni03A9" unicode="&#x3a9;" horiz-adv-x="1584" d="M600 58 L186 58 L186 248 L124 248 L124 0 L687 0 L687 58 C576 110 186 318 186 782 C186 1139 411 1396 793 1396 C1175 1396 1398 1139 1398 782 C1398 318 1010 110 900 58 L900 0 L1460 0 L1460 248 L1398 248 L1398 58 L986 58 C1051 79 1464 312 1464 782 C1464 1165 1212 1454 793 1454 C374 1454 120 1165 120 782 C120 312 535 79 600 58 L600 58 Z " />
<glyph glyph-name="Iotadieresis" unicode="&#x3aa;" horiz-adv-x="650" d="M100 1611 C100 1581 125 1556 155 1556 C185 1556 210 1581 210 1611 C210 1641 185 1666 155 1666 C125 1666 100 1641 100 1611 L100 1611 Z M440 1611 C440 1581 465 1556 495 1556 C525 1556 550 1581 550 1611 C550 1641 525 1666 495 1666 C465 1666 440 1641 440 1611 L440 1611 Z M294 58 L104 58 L104 0 L546 0 L546 58 L356 58 L356 1376 L546 1376 L546 1434 L104 1434 L104 1376 L294 1376 L294 58 Z " />
<glyph glyph-name="Upsilondieresis" unicode="&#x3ab;" horiz-adv-x="1600" d="M575 1611 C575 1581 600 1556 630 1556 C660 1556 685 1581 685 1611 C685 1641 660 1666 630 1666 C600 1666 575 1641 575 1611 L575 1611 Z M915 1611 C915 1581 940 1556 970 1556 C1000 1556 1025 1581 1025 1611 C1025 1641 1000 1666 970 1666 C940 1666 915 1641 915 1611 L915 1611 Z M769 594 L769 58 L579 58 L579 0 L1021 0 L1021 58 L831 58 L831 594 L1346 1376 L1520 1376 L1520 1434 L1088 1434 L1088 1376 L1277 1376 L800 652 L322 1376 L512 1376 L512 1434 L80 1434 L80 1376 L254 1376 L769 594 Z " />
<glyph glyph-name="alphatonos" unicode="&#x3ac;" horiz-adv-x="1272" d="M100 491 C100 210 277 -20 565 -20 C800 -20 943 133 992 323 C1019 143 1107 0 1107 0 L1172 0 C1172 0 1026 215 1026 491 C1026 767 1172 982 1172 982 L1107 982 C1107 982 1019 839 992 659 C943 849 800 1002 565 1002 C277 1002 100 772 100 491 L100 491 Z M162 491 C162 728 295 948 565 948 C835 948 968 728 968 491 C968 254 835 34 565 34 C295 34 162 254 162 491 L162 491 Z M546 1126 L602 1126 L725 1434 L641 1434 L546 1126 Z " />
<glyph glyph-name="epsilontonos" unicode="&#x3ad;" horiz-adv-x="961" d="M439 1126 L495 1126 L618 1434 L534 1434 L439 1126 Z M816 904 C816 904 687 1002 485 1002 C260 1002 125 915 125 760 C125 574 331 527 378 523 C249 508 100 442 100 266 C100 66 265 -20 485 -20 C748 -20 841 80 841 80 L802 121 C802 121 693 34 485 34 C279 34 161 111 161 266 C161 457 359 492 567 494 L567 548 C466 550 184 563 184 760 C184 878 282 948 485 948 C623 948 719 895 758 869 L758 755 L816 755 L816 904 Z " />
</font>
</svg>
