<?xml version="1.0" encoding="UTF-8"?>
<svg xmlns="http://www.w3.org/2000/svg" xmlns:xlink="http://www.w3.org/1999/xlink" version="1.2" >
<font id="Artegra Slab SemiBold It">
<font-face  font-family="Artegra Slab" units-per-em="2048" ascent="1516" descent="-532" font-style="italic" font-weight="600" font-stretch="normal" cap-height="1434" x-height="1022" underline-position="-154" underline-thickness="102" />
<missing-glyph  horiz-adv-x="922" d="" />
<glyph glyph-name="NULL" d="" />
<glyph glyph-name="CR" unicode="&#xd;" horiz-adv-x="922" d="" />
<glyph glyph-name="space" unicode="&#x20;" horiz-adv-x="573" d="" />
<glyph glyph-name="exclam" unicode="&#x21;" horiz-adv-x="577" d="M243 402 L473 402 L675 1434 L405 1434 L243 402 Z M164 138 C149 56 204 -10 286 -10 C378 -10 446 56 461 138 C475 220 420 287 338 287 C246 287 178 220 164 138 L164 138 Z " />
<glyph glyph-name="quotedbl" unicode="&#x22;" horiz-adv-x="662" d="M214 932 L436 932 L541 1434 L282 1434 L214 932 Z M556 932 L778 932 L884 1434 L626 1434 L556 932 Z " />
<glyph glyph-name="numbersign" unicode="&#x23;" horiz-adv-x="1432" d="M1075 1072 L847 1072 L969 1434 L711 1434 L589 1072 L346 1072 L306 846 L513 846 L426 588 L183 588 L143 362 L350 362 L229 0 L487 0 L608 362 L836 362 L715 0 L972 0 L1093 362 L1337 362 L1377 588 L1169 588 L1256 846 L1501 846 L1541 1072 L1332 1072 L1454 1434 L1197 1434 L1075 1072 Z M771 846 L999 846 L912 588 L684 588 L771 846 Z " />
<glyph glyph-name="dollar" unicode="&#x24;" horiz-adv-x="1374" d="M1368 1053 L1422 1362 C1422 1362 1273 1430 1063 1455 L1103 1682 L871 1682 L832 1461 C514 1438 355 1285 322 1071 C293 858 413 698 771 621 C993 573 1070 501 1051 392 C1025 249 924 196 737 196 C621 196 521 215 435 246 L463 408 L193 408 L144 126 C249 43 390 -7 571 -24 L531 -248 L763 -248 L802 -27 C1073 -7 1280 104 1323 392 C1359 630 1211 780 861 856 C663 900 574 953 594 1071 C615 1188 725 1238 887 1238 C981 1238 1060 1230 1127 1212 L1098 1053 L1368 1053 Z " />
<glyph glyph-name="ampersand" unicode="&#x26;" horiz-adv-x="1558" d="M1128 764 C1098 690 1013 528 976 480 C917 538 871 583 826 649 C987 739 1167 875 1208 1092 C1247 1300 1120 1464 887 1464 C591 1464 442 1295 415 1072 C396 917 434 801 476 734 C268 632 154 510 135 340 C106 79 296 -30 534 -30 C752 -30 871 15 988 98 L989 99 C1023 73 1137 0 1346 0 L1478 0 L1517 226 L1385 226 C1266 226 1197 270 1173 289 C1221 344 1272 432 1323 538 L1498 538 L1538 764 L1128 764 Z M405 340 C417 408 485 461 592 514 C652 423 725 353 791 282 C751 235 684 196 571 196 C465 196 389 246 405 340 L405 340 Z M937 1092 C921 989 811 910 716 860 C685 902 668 984 684 1072 C699 1162 768 1239 847 1239 C930 1239 949 1168 937 1092 L937 1092 Z " />
<glyph glyph-name="quotesingle" unicode="&#x27;" horiz-adv-x="319" d="M214 932 L436 932 L541 1434 L282 1434 L214 932 Z " />
<glyph glyph-name="parenleft" unicode="&#x28;" horiz-adv-x="813" d="M465 580 C557 1162 978 1259 978 1259 L920 1517 C920 1517 300 1366 195 580 C92 -190 590 -357 590 -357 L732 -129 C732 -129 373 -4 465 580 L465 580 Z " />
<glyph glyph-name="parenright" unicode="&#x29;" horiz-adv-x="813" d="M552 580 C460 -2 39 -99 39 -99 L97 -357 C97 -357 717 -206 822 580 C925 1350 427 1517 427 1517 L285 1289 C285 1289 644 1164 552 580 L552 580 Z " />
<glyph glyph-name="asterisk" unicode="&#x2a;" horiz-adv-x="960" d="M735 636 L947 794 L812 975 L1085 1030 L1046 1288 L802 1182 L866 1434 L588 1434 L574 1182 L368 1288 L245 1050 L490 975 L293 794 L479 636 L639 848 L735 636 Z " />
<glyph glyph-name="plus" unicode="&#x2b;" horiz-adv-x="1110" d="M1170 794 L812 794 L875 1155 L640 1155 L577 794 L220 794 L179 566 L536 566 L473 205 L708 205 L771 566 L1129 566 L1170 794 Z " />
<glyph glyph-name="comma" unicode="&#x2c;" horiz-adv-x="599" d="M14 -258 L244 -258 L562 244 L293 244 L14 -258 Z " />
<glyph glyph-name="hyphen" unicode="&#x2d;" horiz-adv-x="846" d="M162 469 L848 469 L885 678 L199 678 L162 469 Z " />
<glyph glyph-name="period" unicode="&#x2e;" horiz-adv-x="457" d="M104 138 C89 56 144 -10 226 -10 C318 -10 386 56 401 138 C415 220 360 287 278 287 C186 287 118 220 104 138 L104 138 Z " />
<glyph glyph-name="slash" unicode="&#x2f;" horiz-adv-x="1135" d="M100 0 L376 0 L1287 1434 L1012 1434 L100 0 Z " />
<glyph glyph-name="zero" unicode="0" horiz-adv-x="1358" d="M202 717 C135 337 261 -30 675 -30 C1149 -30 1341 337 1408 717 C1475 1097 1349 1464 935 1464 C461 1464 269 1097 202 717 L202 717 Z M1138 717 C1087 431 964 196 713 196 C462 196 421 431 472 717 C522 1003 646 1238 897 1238 C1148 1238 1188 1003 1138 717 L1138 717 Z " />
<glyph glyph-name="one" unicode="1" horiz-adv-x="886" d="M555 1018 L415 226 L255 226 L216 0 L806 0 L845 226 L685 226 L898 1434 L696 1434 L217 1062 L360 868 L555 1018 Z " />
<glyph glyph-name="two" unicode="2" horiz-adv-x="1213" d="M516 1018 C552 1076 654 1238 832 1238 C981 1238 1044 1164 1024 1050 C1008 964 956 891 855 802 C792 746 132 162 132 162 L104 0 L1116 0 L1183 381 L913 381 L885 226 L569 226 C569 226 970 580 1021 625 C1167 754 1269 883 1293 1050 C1330 1310 1152 1464 862 1464 C520 1464 358 1246 286 1101 L516 1018 Z " />
<glyph glyph-name="three" unicode="3" horiz-adv-x="1246" d="M123 205 C154 106 297 -30 611 -30 C956 -30 1187 99 1237 386 C1274 595 1149 696 1008 729 C1186 786 1290 910 1314 1047 C1361 1315 1167 1464 857 1464 C499 1464 344 1264 311 1201 L279 1017 L549 1017 L569 1130 C612 1176 688 1238 827 1238 C1007 1238 1062 1167 1044 1063 C1017 911 873 846 626 846 L586 619 C882 619 995 556 967 402 C947 286 856 196 633 196 C516 196 447 228 405 275 L430 417 L160 417 L123 205 Z " />
<glyph glyph-name="four" unicode="4" horiz-adv-x="1331" d="M1336 1434 L1101 1434 L197 555 L164 365 L878 365 L853 226 L693 226 L654 0 L1244 0 L1283 226 L1123 226 L1148 365 L1315 365 L1355 591 L1188 591 L1336 1434 Z M554 591 L993 1018 L918 591 L554 591 Z " />
<glyph glyph-name="five" unicode="5" horiz-adv-x="1266" d="M1311 1434 L434 1434 L235 609 C235 609 480 715 747 715 C945 715 1005 619 977 461 C949 306 843 196 655 196 C561 196 479 215 413 244 L438 385 L168 385 L128 155 C209 50 383 -30 635 -30 C1031 -30 1200 178 1247 461 C1293 740 1162 941 786 941 C698 941 619 932 576 921 L646 1208 L1272 1208 L1311 1434 Z " />
<glyph glyph-name="six" unicode="6" horiz-adv-x="1326" d="M1330 1395 C921 1572 266 1436 194 471 C177 184 328 -30 664 -30 C1041 -30 1268 174 1312 472 C1349 720 1229 976 842 976 C709 976 609 921 568 880 C638 1095 793 1238 1029 1223 L1013 1129 L1283 1129 L1330 1395 Z M464 472 C490 618 595 748 802 748 C1010 748 1068 618 1042 472 C1016 326 911 196 704 196 C497 196 438 326 464 472 L464 472 Z " />
<glyph glyph-name="seven" unicode="7" horiz-adv-x="1231" d="M1029 1208 L451 226 L307 226 L268 0 L858 0 L897 226 L744 226 L1353 1262 L1383 1434 L352 1434 L285 1053 L555 1053 L583 1208 L1029 1208 Z " />
<glyph glyph-name="eight" unicode="8" horiz-adv-x="1279" d="M877 1464 C562 1464 336 1324 291 1048 C272 932 325 814 412 761 C268 694 166 581 146 414 C111 120 354 -30 653 -30 C972 -30 1229 88 1274 402 C1298 568 1230 664 1130 721 C1252 790 1332 881 1353 1036 C1388 1293 1182 1464 877 1464 L877 1464 Z M673 196 C480 196 395 284 416 408 C438 532 555 620 748 620 C941 620 1026 532 1004 408 C983 284 866 196 673 196 L673 196 Z M857 1238 C1018 1238 1105 1164 1083 1042 C1062 920 949 846 788 846 C627 846 540 920 561 1042 C583 1164 696 1238 857 1238 L857 1238 Z " />
<glyph glyph-name="nine" unicode="9" horiz-adv-x="1326" d="M248 39 C657 -138 1312 -2 1384 963 C1401 1250 1250 1464 914 1464 C537 1464 310 1260 266 962 C229 714 349 458 736 458 C869 458 969 513 1010 554 C940 339 785 196 549 211 L565 305 L295 305 L248 39 Z M1114 962 C1088 816 983 686 776 686 C568 686 510 816 536 962 C562 1108 667 1238 874 1238 C1081 1238 1140 1108 1114 962 L1114 962 Z " />
<glyph glyph-name="colon" unicode="&#x3a;" horiz-adv-x="457" d="M104 138 C89 56 144 -10 226 -10 C318 -10 386 56 401 138 C415 220 360 287 278 287 C186 287 118 220 104 138 L104 138 Z M235 883 C220 801 275 735 357 735 C449 735 517 801 532 883 C546 965 491 1032 409 1032 C317 1032 249 965 235 883 L235 883 Z " />
<glyph glyph-name="semicolon" unicode="&#x3b;" horiz-adv-x="527" d="M-65 -258 L165 -258 L483 244 L214 244 L-65 -258 Z M305 883 C290 801 345 735 427 735 C519 735 587 801 602 883 C616 965 561 1032 479 1032 C387 1032 319 965 305 883 L305 883 Z " />
<glyph glyph-name="less" unicode="&#x3c;" horiz-adv-x="1109" d="M1176 930 L1223 1219 L211 743 L180 569 L1025 93 L1073 344 L549 647 L1176 930 Z " />
<glyph glyph-name="equal" unicode="&#x3d;" horiz-adv-x="970" d="M996 606 L186 606 L146 378 L956 378 L996 606 Z M1061 971 L251 971 L211 743 L1021 743 L1061 971 Z " />
<glyph glyph-name="greater" unicode="&#x3e;" horiz-adv-x="1108" d="M163 382 L116 93 L1128 569 L1159 743 L314 1219 L266 968 L790 665 L163 382 Z " />
<glyph glyph-name="question" unicode="&#x3f;" horiz-adv-x="1139" d="M464 1072 C549 1173 669 1238 798 1238 C958 1238 1013 1142 996 1048 C972 908 820 818 556 814 L483 402 L753 402 L799 659 C1138 724 1241 903 1266 1048 C1302 1248 1179 1464 838 1464 C510 1464 338 1298 269 1203 L464 1072 Z M423 138 C408 56 463 -10 545 -10 C637 -10 705 56 720 138 C734 220 679 287 597 287 C505 287 437 220 423 138 L423 138 Z " />
<glyph glyph-name="at" unicode="&#x40;" horiz-adv-x="1658" d="M1280 185 C1491 185 1639 321 1674 517 C1753 963 1439 1254 1054 1254 C609 1254 243 963 174 517 C105 69 389 -220 794 -220 C1053 -220 1244 -156 1385 -66 L1295 87 C1172 16 1021 -44 825 -44 C526 -44 310 158 373 517 C436 876 724 1078 1023 1078 C1321 1078 1538 876 1475 517 C1455 403 1381 351 1300 351 C1206 351 1203 436 1221 527 C1239 619 1266 727 1295 839 C1211 885 1125 908 1013 908 C897 908 626 844 543 527 C470 220 660 127 798 127 C940 127 1052 226 1095 329 C1102 256 1172 185 1280 185 L1280 185 Z M727 516 C784 715 940 781 1104 728 C1104 728 1083 629 1056 542 C1004 364 929 293 839 293 C734 293 688 379 727 516 L727 516 Z " />
<glyph glyph-name="A" unicode="A" horiz-adv-x="1645" d="M1217 226 L1058 226 L1019 0 L1605 0 L1644 226 L1488 226 L1182 1434 L706 1434 L667 1208 L827 1208 L229 226 L79 226 L40 0 L630 0 L669 226 L515 226 L627 414 L1171 414 L1217 226 Z M1014 1063 L1117 641 L763 641 L1014 1063 Z " />
<glyph glyph-name="B" unicode="B" horiz-adv-x="1548" d="M100 0 L932 0 C1309 0 1503 146 1544 409 C1573 597 1483 704 1340 745 C1442 775 1588 870 1612 1053 C1639 1261 1550 1434 1184 1434 L352 1434 L313 1208 L473 1208 L299 226 L139 226 L100 0 Z M640 625 L1042 625 C1240 625 1296 549 1274 425 C1253 302 1179 226 971 226 L569 226 L640 625 Z M680 852 L743 1208 L1145 1208 C1293 1208 1357 1150 1336 1030 C1315 910 1230 852 1082 852 L680 852 Z " />
<glyph glyph-name="C" unicode="C" horiz-adv-x="1473" d="M833 -30 C1094 -30 1288 36 1394 105 L1281 301 C1177 245 1023 196 873 196 C522 196 428 437 477 717 C526 997 706 1238 1057 1238 C1142 1238 1241 1228 1315 1204 L1288 1053 L1558 1053 L1613 1364 C1613 1364 1374 1464 1097 1464 C605 1464 277 1178 203 717 C135 295 371 -30 833 -30 L833 -30 Z " />
<glyph glyph-name="D" unicode="D" horiz-adv-x="1588" d="M1658 707 C1720 1114 1525 1434 1077 1434 L352 1434 L313 1208 L472 1208 L299 226 L139 226 L100 0 L825 0 C1307 0 1592 273 1658 707 L1658 707 Z M743 1208 L1038 1208 C1348 1208 1430 975 1385 717 C1339 459 1174 226 864 226 L569 226 L743 1208 Z " />
<glyph glyph-name="E" unicode="E" horiz-adv-x="1467" d="M100 0 L1367 0 L1434 381 L1164 381 L1136 226 L569 226 L638 618 L1195 618 L1235 844 L678 844 L743 1208 L1300 1208 L1272 1053 L1542 1053 L1609 1434 L352 1434 L313 1208 L473 1208 L299 226 L139 226 L100 0 Z " />
<glyph glyph-name="F" unicode="F" horiz-adv-x="1417" d="M743 1208 L1260 1208 L1232 1053 L1502 1053 L1569 1434 L352 1434 L313 1208 L473 1208 L299 226 L139 226 L100 0 L690 0 L729 226 L569 226 L638 618 L1155 618 L1195 844 L678 844 L743 1208 Z " />
<glyph glyph-name="G" unicode="G" horiz-adv-x="1524" d="M873 196 C522 196 428 437 477 717 C526 997 706 1238 1057 1238 C1165 1238 1275 1224 1365 1199 L1339 1053 L1609 1053 L1664 1364 C1664 1364 1400 1464 1097 1464 C605 1464 277 1178 203 717 C135 295 371 -30 833 -30 C1023 -30 1275 4 1448 139 L1568 822 L1003 822 L964 596 L1259 596 L1201 267 C1129 228 1003 196 873 196 L873 196 Z " />
<glyph glyph-name="H" unicode="H" horiz-adv-x="1743" d="M743 1208 L903 1208 L942 1434 L352 1434 L313 1208 L473 1208 L299 226 L139 226 L100 0 L690 0 L729 226 L569 226 L638 618 L1321 618 L1252 226 L1092 226 L1053 0 L1643 0 L1682 226 L1522 226 L1696 1208 L1856 1208 L1895 1434 L1305 1434 L1266 1208 L1426 1208 L1361 844 L678 844 L743 1208 Z " />
<glyph glyph-name="I" unicode="I" horiz-adv-x="790" d="M743 1208 L903 1208 L942 1434 L352 1434 L313 1208 L473 1208 L299 226 L139 226 L100 0 L690 0 L729 226 L569 226 L743 1208 Z " />
<glyph glyph-name="J" unicode="J" horiz-adv-x="1287" d="M111 296 C128 150 233 -30 544 -30 C881 -30 1050 133 1107 454 L1240 1208 L1400 1208 L1439 1434 L849 1434 L810 1208 L969 1208 L837 454 C806 278 732 196 564 196 C421 196 377 286 360 366 L111 296 Z " />
<glyph glyph-name="K" unicode="K" horiz-adv-x="1572" d="M743 1208 L903 1208 L942 1434 L352 1434 L313 1208 L473 1208 L299 226 L139 226 L100 0 L690 0 L729 226 L569 226 L624 535 L821 677 L1145 0 L1472 0 L1511 226 L1351 226 L1050 841 L1561 1208 L1685 1208 L1724 1434 L1134 1434 L1095 1208 L1204 1208 L676 830 L743 1208 Z " />
<glyph glyph-name="L" unicode="L" horiz-adv-x="1353" d="M743 1208 L903 1208 L942 1434 L352 1434 L313 1208 L473 1208 L299 226 L139 226 L100 0 L1253 0 L1320 381 L1050 381 L1022 226 L569 226 L743 1208 Z " />
<glyph glyph-name="M" unicode="M" horiz-adv-x="2104" d="M2057 1208 L2217 1208 L2256 1434 L1715 1434 L1113 420 L867 1434 L352 1434 L313 1208 L472 1208 L299 226 L139 226 L100 0 L690 0 L729 226 L569 226 L708 1014 L952 0 L1152 0 L1752 1014 L1613 226 L1453 226 L1414 0 L2004 0 L2043 226 L1883 226 L2057 1208 Z " />
<glyph glyph-name="N" unicode="N" horiz-adv-x="1777" d="M299 226 L139 226 L100 0 L690 0 L729 226 L570 226 L717 1059 L1206 0 L1517 0 L1730 1208 L1890 1208 L1929 1434 L1339 1434 L1300 1208 L1459 1208 L1312 375 L823 1434 L352 1434 L313 1208 L472 1208 L299 226 Z " />
<glyph glyph-name="O" unicode="O" horiz-adv-x="1678" d="M1097 1464 C605 1464 277 1178 203 717 C135 295 371 -30 833 -30 C1325 -30 1653 256 1727 717 C1795 1139 1559 1464 1097 1464 L1097 1464 Z M477 717 C526 997 706 1238 1057 1238 C1408 1238 1502 997 1453 717 C1404 437 1224 196 873 196 C522 196 428 437 477 717 L477 717 Z " />
<glyph glyph-name="P" unicode="P" horiz-adv-x="1503" d="M299 226 L139 226 L100 0 L690 0 L729 226 L569 226 L613 474 L979 474 C1283 474 1555 622 1597 954 C1634 1247 1448 1434 1148 1434 L352 1434 L313 1208 L472 1208 L299 226 Z M1109 1208 C1295 1208 1348 1088 1325 954 C1301 820 1205 700 1019 700 L653 700 L743 1208 L1109 1208 Z " />
<glyph glyph-name="Q" unicode="Q" horiz-adv-x="1678" d="M1097 1464 C605 1464 277 1178 203 717 C135 295 371 -30 833 -30 C949 -30 1056 -14 1153 16 L1226 -90 L1522 -90 L1368 119 C1559 247 1684 453 1727 717 C1795 1139 1559 1464 1097 1464 L1097 1464 Z M477 717 C526 997 706 1238 1057 1238 C1408 1238 1502 997 1453 717 C1424 555 1352 406 1228 309 L1136 434 L869 434 L1020 211 C975 201 926 196 873 196 C522 196 428 437 477 717 L477 717 Z " />
<glyph glyph-name="R" unicode="R" horiz-adv-x="1524" d="M690 0 L729 226 L569 226 L623 530 L889 530 L1101 0 L1425 0 L1464 226 L1303 226 L1171 550 C1360 602 1538 712 1578 982 C1619 1259 1489 1434 1119 1434 L352 1434 L313 1208 L473 1208 L299 226 L139 226 L100 0 L690 0 Z M743 1208 L1080 1208 C1268 1208 1334 1140 1306 982 C1278 824 1188 756 1000 756 L663 756 L743 1208 Z " />
<glyph glyph-name="S" unicode="S" horiz-adv-x="1374" d="M1368 1053 L1422 1362 C1422 1362 1200 1464 917 1464 C542 1464 358 1303 322 1071 C293 858 413 698 771 621 C993 573 1070 501 1051 392 C1025 249 924 196 737 196 C621 196 521 215 435 246 L463 408 L193 408 L144 126 C274 24 460 -30 707 -30 C1024 -30 1275 72 1323 392 C1359 630 1211 780 861 856 C663 900 574 953 594 1071 C615 1188 725 1238 887 1238 C981 1238 1060 1230 1127 1212 L1098 1053 L1368 1053 Z " />
<glyph glyph-name="T" unicode="T" horiz-adv-x="1508" d="M1102 1208 L1351 1208 L1323 1053 L1593 1053 L1660 1434 L352 1434 L285 1053 L555 1053 L583 1208 L832 1208 L658 226 L498 226 L459 0 L1049 0 L1088 226 L928 226 L1102 1208 Z " />
<glyph glyph-name="U" unicode="U" horiz-adv-x="1775" d="M1728 1208 L1888 1208 L1927 1434 L1337 1434 L1298 1208 L1457 1208 L1356 631 C1309 364 1190 196 921 196 C652 196 594 364 641 631 L743 1208 L903 1208 L942 1434 L352 1434 L313 1208 L472 1208 L371 631 C298 221 486 -30 881 -30 C1377 -30 1553 221 1626 631 L1728 1208 Z " />
<glyph glyph-name="V" unicode="V" horiz-adv-x="1625" d="M703 0 L932 0 L1647 1208 L1798 1208 L1837 1434 L1247 1434 L1208 1208 L1355 1208 L871 371 L684 1208 L843 1208 L882 1434 L292 1434 L253 1208 L414 1208 L703 0 Z " />
<glyph glyph-name="W" unicode="W" horiz-adv-x="2208" d="M767 452 L686 1208 L843 1208 L882 1434 L292 1434 L253 1208 L408 1208 L567 0 L827 0 L1296 1062 L1391 0 L1651 0 L2235 1208 L2381 1208 L2420 1434 L1830 1434 L1791 1208 L1942 1208 L1593 452 L1500 1434 L1206 1434 L767 452 Z " />
<glyph glyph-name="X" unicode="X" horiz-adv-x="1463" d="M882 964 L613 1434 L311 1434 L272 1208 L431 1208 L690 755 L216 226 L79 226 L40 0 L630 0 L669 226 L558 226 L821 519 L1122 0 L1429 0 L1468 226 L1299 226 L1012 727 L1443 1208 L1571 1208 L1610 1434 L1020 1434 L981 1208 L1100 1208 L882 964 Z " />
<glyph glyph-name="Y" unicode="Y" horiz-adv-x="1546" d="M739 548 L682 226 L522 226 L483 0 L1073 0 L1112 226 L952 226 L1009 547 L1575 1208 L1719 1208 L1758 1434 L1168 1434 L1129 1208 L1277 1208 L904 763 L688 1208 L843 1208 L882 1434 L292 1434 L253 1208 L407 1208 L739 548 Z " />
<glyph glyph-name="Z" unicode="Z" horiz-adv-x="1387" d="M1539 1434 L394 1434 L327 1053 L597 1053 L625 1208 L1104 1208 L123 134 L100 0 L1287 0 L1354 381 L1084 381 L1056 226 L535 226 L1516 1300 L1539 1434 Z " />
<glyph glyph-name="bracketleft" unicode="&#x5b;" horiz-adv-x="753" d="M613 1208 L876 1208 L915 1434 L382 1434 L67 -357 L600 -357 L640 -130 L377 -130 L613 1208 Z " />
<glyph glyph-name="backslash" unicode="&#x5c;" horiz-adv-x="1100" d="M628 1434 L352 1434 L724 0 L1000 0 L628 1434 Z " />
<glyph glyph-name="bracketright" unicode="&#x5d;" horiz-adv-x="753" d="M330 -130 L67 -130 L27 -357 L560 -357 L875 1434 L342 1434 L303 1208 L566 1208 L330 -130 Z " />
<glyph glyph-name="asciicircum" unicode="&#x5e;" horiz-adv-x="1082" d="M874 1434 L712 1434 L222 810 L521 810 L748 1100 L873 810 L1144 810 L874 1434 Z " />
<glyph glyph-name="underscore" unicode="&#x5f;" horiz-adv-x="1185" d="M43 -318 L1028 -318 L1065 -109 L80 -109 L43 -318 Z " />
<glyph glyph-name="grave" unicode="&#x60;" horiz-adv-x="644" d="M585 1434 L312 1434 L572 1124 L782 1124 L585 1434 Z " />
<glyph glyph-name="a" unicode="a" horiz-adv-x="1369" d="M1058 1022 L1026 841 C975 960 859 1042 693 1042 C397 1042 171 853 117 511 C69 209 230 -20 536 -20 C692 -20 820 40 906 159 L878 0 L1289 0 L1325 209 L1166 209 L1272 813 L1433 813 L1469 1022 L1058 1022 Z M726 832 C938 832 998 678 968 511 C939 344 825 190 613 190 C404 190 345 344 374 511 C404 678 517 832 726 832 L726 832 Z " />
<glyph glyph-name="b" unicode="b" horiz-adv-x="1400" d="M491 0 L523 181 C574 62 690 -20 856 -20 C1152 -20 1378 169 1432 511 C1480 813 1319 1042 1013 1042 C857 1042 729 982 643 863 L758 1516 L347 1516 L310 1307 L470 1307 L240 0 L491 0 Z M823 190 C611 190 551 344 581 511 C610 678 724 832 936 832 C1145 832 1204 678 1175 511 C1145 344 1032 190 823 190 L823 190 Z " />
<glyph glyph-name="c" unicode="c" horiz-adv-x="1129" d="M660 189 C441 189 374 343 404 511 C433 679 554 833 773 833 C834 833 890 828 940 811 L917 680 L1168 680 L1219 966 C1219 966 1052 1042 810 1042 C462 1042 200 863 147 511 C101 209 285 -20 623 -20 C788 -20 948 20 1078 114 L963 284 C862 218 768 189 660 189 L660 189 Z " />
<glyph glyph-name="d" unicode="d" horiz-adv-x="1399" d="M908 0 L1319 0 L1355 209 L1196 209 L1426 1516 L1015 1516 L978 1307 L1138 1307 L1056 841 C1005 960 889 1042 723 1042 C427 1042 201 853 147 511 C99 209 260 -20 566 -20 C722 -20 850 40 936 159 L908 0 Z M756 832 C968 832 1028 678 998 511 C969 344 855 190 643 190 C434 190 375 344 404 511 C434 678 547 832 756 832 L756 832 Z " />
<glyph glyph-name="e" unicode="e" horiz-adv-x="1192" d="M629 189 C425 188 387 341 399 413 L1208 413 C1290 821 1091 1042 759 1042 C407 1042 188 825 146 511 C105 208 260 -20 612 -20 C802 -20 954 24 1097 124 L966 286 C886 240 781 190 629 189 L629 189 Z M434 610 C447 684 536 833 742 833 C948 833 985 684 972 610 L434 610 Z " />
<glyph glyph-name="f" unicode="f" horiz-adv-x="871" d="M896 1327 C940 1327 985 1318 1025 1306 L1125 1495 C1057 1524 964 1536 893 1536 C574 1536 490 1306 437 1022 L240 1022 L203 813 L400 813 L293 209 L133 209 L97 0 L668 0 L704 209 L545 209 L651 813 L943 813 L980 1022 L688 1022 C721 1206 752 1327 896 1327 L896 1327 Z " />
<glyph glyph-name="g" unicode="g" horiz-adv-x="1413" d="M1102 1022 L1070 841 C1019 960 903 1042 737 1042 C441 1042 215 853 161 511 C113 209 274 -20 580 -20 C736 -20 864 40 950 159 L922 0 C875 -263 739 -322 540 -322 C430 -322 291 -292 182 -220 L49 -399 C178 -497 367 -532 503 -532 C832 -532 1098 -424 1173 0 L1316 813 L1476 813 L1513 1022 L1102 1022 Z M770 832 C982 832 1042 678 1012 511 C983 344 869 190 657 190 C448 190 389 344 418 511 C448 678 561 832 770 832 L770 832 Z " />
<glyph glyph-name="h" unicode="h" horiz-adv-x="1477" d="M470 1307 L276 209 L116 209 L80 0 L651 0 L687 209 L527 209 L587 547 C618 723 720 833 885 833 C1049 833 1113 723 1082 547 L986 0 L1397 0 L1433 209 L1273 209 L1333 547 C1390 871 1235 1042 962 1042 C855 1042 710 994 643 866 L758 1516 L347 1516 L310 1307 L470 1307 Z " />
<glyph glyph-name="i" unicode="i" horiz-adv-x="731" d="M383 813 L276 209 L116 209 L80 0 L651 0 L687 209 L527 209 L671 1022 L260 1022 L223 813 L383 813 Z M451 1327 C437 1246 492 1180 573 1180 C664 1180 731 1246 745 1327 C760 1408 705 1474 624 1474 C533 1474 466 1408 451 1327 L451 1327 Z " />
<glyph glyph-name="j" unicode="j" horiz-adv-x="579" d="M-225 -485 C-150 -524 -62 -532 -3 -532 C323 -532 396 -351 458 0 L638 1022 L227 1022 L190 813 L350 813 L207 0 C176 -175 146 -323 14 -323 C-28 -323 -72 -317 -125 -296 L-225 -485 Z M418 1327 C404 1246 459 1180 540 1180 C631 1180 698 1246 712 1327 C727 1408 672 1474 591 1474 C500 1474 433 1408 418 1327 L418 1327 Z " />
<glyph glyph-name="k" unicode="k" horiz-adv-x="1361" d="M595 592 L758 1516 L347 1516 L310 1307 L470 1307 L276 209 L116 209 L80 0 L651 0 L687 209 L527 209 L548 325 L710 437 L994 0 L1281 0 L1317 209 L1150 209 L911 576 L1256 813 L1405 813 L1442 1022 L871 1022 L834 813 L916 813 L595 592 Z " />
<glyph glyph-name="l" unicode="l" horiz-adv-x="731" d="M470 1307 L276 209 L116 209 L80 0 L651 0 L687 209 L527 209 L758 1516 L347 1516 L310 1307 L470 1307 Z " />
<glyph glyph-name="m" unicode="m" horiz-adv-x="2029" d="M1643 596 L1538 0 L1949 0 L1985 209 L1825 209 L1894 596 C1949 911 1805 1042 1560 1042 C1421 1042 1289 974 1221 901 C1175 986 1072 1042 911 1042 C810 1042 699 989 654 928 L671 1022 L260 1022 L223 813 L383 813 L276 209 L116 209 L80 0 L651 0 L687 209 L527 209 L596 596 C620 737 697 833 836 833 C975 833 1018 737 994 596 L889 0 L1300 0 L1336 209 L1176 209 L1245 596 C1269 737 1346 833 1485 833 C1624 833 1667 737 1643 596 L1643 596 Z " />
<glyph glyph-name="n" unicode="n" horiz-adv-x="1477" d="M383 813 L276 209 L116 209 L80 0 L651 0 L687 209 L527 209 L587 547 C618 723 720 833 885 833 C1049 833 1113 723 1082 547 L986 0 L1397 0 L1433 209 L1273 209 L1333 547 C1390 871 1235 1042 962 1042 C855 1042 710 994 643 866 L671 1022 L260 1022 L223 813 L383 813 Z " />
<glyph glyph-name="o" unicode="o" horiz-adv-x="1254" d="M1287 511 C1333 815 1147 1042 810 1042 C462 1042 200 863 147 511 C101 209 285 -20 623 -20 C970 -20 1233 157 1287 511 L1287 511 Z M1030 511 C1000 343 879 189 660 189 C441 189 374 343 404 511 C433 679 554 833 773 833 C992 833 1059 679 1030 511 L1030 511 Z " />
<glyph glyph-name="p" unicode="p" horiz-adv-x="1400" d="M183 -323 L23 -323 L-13 -532 L557 -532 L594 -323 L434 -323 L523 181 C574 62 690 -20 856 -20 C1152 -20 1378 169 1432 511 C1480 813 1319 1042 1013 1042 C857 1042 729 982 643 863 L671 1022 L260 1022 L223 813 L383 813 L183 -323 Z M823 190 C611 190 551 344 581 511 C610 678 724 832 936 832 C1145 832 1204 678 1175 511 C1145 344 1032 190 823 190 L823 190 Z " />
<glyph glyph-name="q" unicode="q" horiz-adv-x="1400" d="M1088 1022 L1056 841 C1005 960 889 1042 723 1042 C427 1042 201 853 147 511 C99 209 260 -20 566 -20 C722 -20 850 40 936 159 L851 -323 L692 -323 L655 -532 L1226 -532 L1263 -323 L1103 -323 L1303 813 L1463 813 L1500 1022 L1088 1022 Z M756 832 C968 832 1028 678 998 511 C969 344 855 190 643 190 C434 190 375 344 404 511 C434 678 547 832 756 832 L756 832 Z " />
<glyph glyph-name="r" unicode="r" horiz-adv-x="1004" d="M1170 1001 C1113 1029 1043 1042 962 1042 C855 1042 710 994 643 866 L671 1022 L260 1022 L223 813 L383 813 L276 209 L116 209 L80 0 L651 0 L687 209 L527 209 L587 547 C618 723 710 833 885 833 C942 833 986 822 1019 800 L1170 1001 Z " />
<glyph glyph-name="s" unicode="s" horiz-adv-x="1050" d="M389 319 L138 319 L97 90 C200 18 354 -20 528 -20 C808 -20 991 62 1021 290 C1049 504 890 571 645 623 C526 648 452 675 463 740 C474 803 532 833 649 833 C702 833 760 828 814 818 L795 712 L1046 712 L1092 973 C1092 973 914 1042 678 1042 C370 1042 235 914 212 740 C189 568 303 466 563 412 C693 385 783 373 770 300 C758 228 693 189 558 189 C490 189 427 197 370 211 L389 319 Z " />
<glyph glyph-name="t" unicode="t" horiz-adv-x="868" d="M183 813 L380 813 L311 421 C258 119 363 -20 601 -20 C690 -20 784 -3 835 18 L800 208 C762 198 718 189 668 189 C535 189 540 295 567 451 L631 813 L923 813 L960 1022 L668 1022 L720 1321 L469 1321 L417 1022 L220 1022 L183 813 Z " />
<glyph glyph-name="u" unicode="u" horiz-adv-x="1477" d="M1069 475 C1038 299 936 189 771 189 C607 189 543 299 574 475 L671 1022 L260 1022 L223 813 L383 813 L323 475 C266 151 421 -20 694 -20 C801 -20 946 28 1013 156 L986 0 L1397 0 L1433 209 L1273 209 L1417 1022 L1006 1022 L969 813 L1129 813 L1069 475 Z " />
<glyph glyph-name="v" unicode="v" horiz-adv-x="1397" d="M576 0 L830 0 L1315 813 L1460 813 L1497 1022 L926 1022 L889 813 L1042 813 L744 285 L633 813 L784 813 L821 1022 L260 1022 L223 813 L377 813 L576 0 Z " />
<glyph glyph-name="w" unicode="w" horiz-adv-x="1896" d="M1959 813 L1996 1022 L1425 1022 L1388 813 L1538 813 L1316 321 L1249 1022 L995 1022 L680 321 L631 813 L794 813 L831 1022 L260 1022 L223 813 L382 813 L501 0 L767 0 L1066 671 L1129 0 L1395 0 L1799 813 L1959 813 Z " />
<glyph glyph-name="x" unicode="x" horiz-adv-x="1263" d="M876 531 L1144 813 L1276 813 L1313 1022 L802 1022 L765 813 L840 813 L747 713 L570 1022 L271 1022 L234 813 L386 813 L554 531 L248 209 L116 209 L80 0 L591 0 L627 209 L553 209 L683 349 L884 0 L1183 0 L1219 209 L1067 209 L876 531 Z " />
<glyph glyph-name="y" unicode="y" horiz-adv-x="1399" d="M1316 813 L1462 813 L1499 1022 L928 1022 L891 813 L1045 813 L746 295 L629 813 L784 813 L821 1022 L260 1022 L223 813 L378 813 L583 0 L469 -191 C419 -268 374 -323 259 -323 L137 -323 L100 -532 L222 -532 C488 -532 564 -420 645 -295 L1316 813 Z " />
<glyph glyph-name="z" unicode="z" horiz-adv-x="1112" d="M231 680 L482 680 L506 813 L788 813 L102 125 L80 0 L1032 0 L1092 342 L841 342 L817 209 L503 209 L1190 897 L1212 1022 L292 1022 L231 680 Z " />
<glyph glyph-name="braceleft" unicode="&#x7b;" horiz-adv-x="832" d="M157 442 C258 432 365 392 330 197 C253 -241 438 -384 684 -384 L728 -135 C621 -135 555 -61 601 203 C634 391 597 491 499 545 C616 599 692 719 725 907 C772 1171 864 1235 971 1235 L1015 1494 C729 1494 534 1351 456 913 C422 718 301 678 197 668 L157 442 Z " />
<glyph glyph-name="bar" unicode="&#x7c;" horiz-adv-x="469" d="M6 -532 L275 -532 L621 1434 L352 1434 L6 -532 Z " />
<glyph glyph-name="braceright" unicode="&#x7d;" horiz-adv-x="833" d="M870 668 C769 678 662 718 697 913 C774 1351 589 1494 343 1494 L299 1245 C406 1245 472 1171 426 907 C393 719 430 619 528 565 C411 511 335 391 302 203 C255 -61 163 -125 56 -125 L12 -384 C298 -384 493 -241 571 197 C605 392 726 432 830 442 L870 668 Z " />
<glyph glyph-name="asciitilde" unicode="&#x7e;" horiz-adv-x="1160" d="M791 822 C757 878 699 930 575 930 C247 930 190 628 180 570 L439 570 C446 609 473 681 532 681 C574 681 593 659 621 615 C655 559 713 507 837 507 C1165 507 1222 809 1232 867 L973 867 C966 828 940 756 881 756 C839 756 820 778 791 822 L791 822 Z " />
<glyph glyph-name="uni00A0" unicode="&#xa0;" horiz-adv-x="573" d="" />
<glyph glyph-name="exclamdown" unicode="&#xa1;" horiz-adv-x="496" d="M451 500 L221 500 L19 -532 L289 -532 L451 500 Z M530 764 C545 846 490 912 408 912 C316 912 248 846 233 764 C219 682 274 615 356 615 C448 615 516 682 530 764 L530 764 Z " />
<glyph glyph-name="cent" unicode="&#xa2;" horiz-adv-x="1089" d="M660 189 C441 189 374 343 404 511 C433 679 554 833 773 833 C834 833 890 828 940 811 L917 680 L1168 680 L1219 966 C1219 966 1095 1022 907 1038 L948 1265 L728 1265 L685 1033 C400 995 193 819 147 511 C107 247 242 38 503 -9 L462 -243 L682 -243 L722 -15 C851 -1 974 39 1078 114 L963 284 C862 218 768 189 660 189 L660 189 Z " />
<glyph glyph-name="sterling" unicode="&#xa3;" horiz-adv-x="1372" d="M204 591 L402 591 C403 545 401 498 392 446 C366 299 235 173 235 173 L205 0 L1244 0 L1283 226 L565 226 C565 226 641 324 661 440 C670 490 672 540 671 591 L1087 591 L1126 816 L662 816 C662 865 665 915 674 966 C702 1128 811 1238 1001 1238 C1138 1238 1213 1178 1261 1066 L1477 1164 C1428 1318 1305 1464 1021 1464 C619 1464 450 1229 404 966 C394 910 390 861 390 816 L243 816 L204 591 Z " />
<glyph glyph-name="currency" unicode="&#xa4;" horiz-adv-x="1025" d="M895 1469 C779 1531 639 1531 524 1469 L381 1612 L219 1449 L362 1307 C300 1191 300 1051 362 936 L219 793 L381 631 L524 773 C639 712 779 712 895 773 L1038 631 L1200 793 L1057 936 C1119 1051 1119 1191 1057 1307 L1200 1449 L1038 1612 L895 1469 Z M514 1121 C514 1229 601 1316 709 1316 C817 1316 904 1229 904 1121 C904 1013 817 926 709 926 C601 926 514 1013 514 1121 L514 1121 Z " />
<glyph glyph-name="yen" unicode="&#xa5;" horiz-adv-x="1626" d="M421 123 L704 123 L683 0 L953 0 L974 123 L1257 123 L1290 309 L1007 309 L1018 372 L1301 372 L1334 558 L1058 558 L1615 1208 L1759 1208 L1798 1434 L1208 1434 L1169 1208 L1317 1208 L944 763 L728 1208 L883 1208 L922 1434 L332 1434 L293 1208 L447 1208 L774 558 L498 558 L465 372 L748 372 L737 309 L454 309 L421 123 Z " />
<glyph glyph-name="brokenbar" unicode="&#xa6;" horiz-adv-x="470" d="M211 619 L466 619 L609 1434 L354 1434 L211 619 Z M6 -532 L276 -532 L415 260 L145 260 L6 -532 Z " />
<glyph glyph-name="section" unicode="&#xa7;" horiz-adv-x="1402" d="M1351 392 C1387 630 1239 780 889 856 C691 900 602 953 622 1071 C643 1188 753 1238 915 1238 C1009 1238 1088 1230 1155 1212 L1126 1053 L1396 1053 L1450 1362 C1450 1362 1228 1464 945 1464 C570 1464 386 1303 350 1071 C339 988 350 914 388 849 C297 783 235 683 214 540 C178 302 326 152 676 76 C874 32 963 -21 943 -139 C922 -256 812 -306 650 -306 C556 -306 477 -298 410 -280 L439 -121 L169 -121 L115 -430 C115 -430 337 -532 620 -532 C995 -532 1179 -371 1215 -139 C1226 -56 1215 18 1176 83 C1267 149 1329 248 1351 392 L1351 392 Z M799 621 C1021 573 1098 501 1079 392 C1066 321 1035 272 984 241 C924 269 852 292 766 311 C544 359 467 431 486 540 C499 610 530 659 580 690 C640 663 713 639 799 621 L799 621 Z " />
<glyph glyph-name="dieresis" unicode="&#xa8;" horiz-adv-x="898" d="M313 1327 C299 1246 354 1180 435 1180 C526 1180 593 1246 607 1327 C622 1408 567 1474 486 1474 C395 1474 328 1408 313 1327 L313 1327 Z M757 1327 C743 1246 798 1180 879 1180 C970 1180 1037 1246 1051 1327 C1066 1408 1011 1474 930 1474 C839 1474 772 1408 757 1327 L757 1327 Z " />
<glyph glyph-name="copyright" unicode="&#xa9;" horiz-adv-x="1630" d="M752 717 C752 847 837 929 948 929 C1037 929 1088 907 1147 857 L1242 997 C1164 1074 1057 1116 948 1116 C715 1116 543 951 543 717 C543 483 715 318 948 318 C1057 318 1162 359 1240 436 L1145 576 C1086 526 1037 505 948 505 C837 505 752 587 752 717 L752 717 Z M194 717 C194 305 529 -30 941 -30 C1353 -30 1688 305 1688 717 C1688 1129 1353 1464 941 1464 C529 1464 194 1129 194 717 L194 717 Z M377 717 C377 1028 630 1281 941 1281 C1252 1281 1505 1028 1505 717 C1505 406 1252 153 941 153 C630 153 377 406 377 717 L377 717 Z " />
<glyph glyph-name="ordfeminine" unicode="&#xaa;" horiz-adv-x="860" d="M606 1290 C741 1290 769 1266 754 1183 C497 1200 241 1156 213 943 C192 781 310 704 477 704 C602 704 653 752 691 816 L673 714 L935 714 L963 868 L866 868 L914 1138 C954 1365 850 1444 623 1444 C464 1444 358 1394 358 1394 L408 1254 C408 1254 504 1290 606 1290 L606 1290 Z M379 943 C397 1046 536 1066 734 1057 L731 1039 C707 904 615 858 494 858 C404 858 370 896 379 943 L379 943 Z " />
<glyph glyph-name="guillemotleft" unicode="&#xab;" horiz-adv-x="1504" d="M931 929 L984 1262 L208 730 L182 584 L771 52 L824 355 L462 637 L931 929 Z M1573 929 L1626 1262 L850 730 L824 584 L1413 52 L1466 355 L1104 637 L1573 929 Z " />
<glyph glyph-name="logicalnot" unicode="&#xac;" horiz-adv-x="1160" d="M188 618 L918 618 L852 243 L1122 243 L1228 845 L228 845 L188 618 Z " />
<glyph glyph-name="uni00AD" unicode="&#xad;" horiz-adv-x="962" d="M172 524 L974 524 L1011 734 L209 734 L172 524 Z " />
<glyph glyph-name="registered" unicode="&#xae;" horiz-adv-x="1003" d="M341 1015 C341 1202 493 1354 680 1354 C867 1354 1019 1202 1019 1015 C1019 828 867 676 680 676 C493 676 341 828 341 1015 L341 1015 Z M231 1015 C231 767 432 566 680 566 C928 566 1129 767 1129 1015 C1129 1263 928 1464 680 1464 C432 1464 231 1263 231 1015 L231 1015 Z M591 808 L618 959 L678 959 L730 808 L831 808 L774 974 C819 990 862 1020 874 1096 C888 1184 827 1232 756 1232 L568 1232 L493 808 L591 808 Z M739 1135 C768 1135 780 1121 776 1096 C771 1070 754 1057 725 1057 L635 1057 L649 1135 L739 1135 Z " />
<glyph glyph-name="macron" unicode="&#xaf;" horiz-adv-x="954" d="M299 1245 L1093 1245 L1126 1434 L332 1434 L299 1245 Z " />
<glyph glyph-name="degree" unicode="&#xb0;" horiz-adv-x="556" d="M220 1196 C194 1048 293 928 441 928 C609 928 730 1048 756 1196 C782 1344 684 1464 536 1464 C368 1464 246 1344 220 1196 L220 1196 Z M371 1196 C383 1261 434 1313 509 1313 C574 1313 617 1261 605 1196 C594 1131 543 1079 468 1079 C403 1079 360 1131 371 1196 L371 1196 Z " />
<glyph glyph-name="plusminus" unicode="&#xb1;" horiz-adv-x="1110" d="M1199 962 L841 962 L905 1323 L670 1323 L606 962 L249 962 L209 734 L566 734 L502 373 L737 373 L801 734 L1159 734 L1199 962 Z M1070 228 L120 228 L80 0 L1030 0 L1070 228 Z " />
<glyph glyph-name="twosuperior" unicode="&#xb2;" horiz-adv-x="637" d="M404 1182 C404 1182 455 1290 547 1290 C615 1290 635 1260 627 1219 C618 1164 568 1127 522 1088 L205 830 L184 714 L714 714 L752 926 L586 926 L576 868 L483 868 L633 990 C709 1052 780 1120 793 1219 C811 1354 731 1444 564 1444 C338 1444 261 1241 261 1241 L404 1182 Z " />
<glyph glyph-name="threesuperior" unicode="&#xb3;" horiz-adv-x="649" d="M470 704 C641 704 737 779 761 912 C778 1008 728 1056 662 1074 C730 1101 786 1153 801 1239 C823 1360 724 1444 572 1444 C386 1444 300 1342 300 1342 L277 1210 L443 1210 L454 1271 C474 1282 514 1290 559 1290 C622 1290 637 1259 632 1225 C618 1148 522 1148 421 1148 L394 994 C492 994 609 1001 596 930 C587 876 548 858 483 858 C427 858 391 864 370 879 L381 938 L215 938 L190 796 C190 796 253 704 470 704 L470 704 Z " />
<glyph glyph-name="acute" unicode="&#xb4;" horiz-adv-x="694" d="M258 1124 L518 1124 L886 1434 L563 1434 L258 1124 Z " />
<glyph glyph-name="mu" unicode="&#xb5;" horiz-adv-x="1518" d="M1314 209 L1458 1022 L1047 1022 L1010 813 L1170 813 L1114 495 C1081 309 967 189 792 189 C617 189 545 309 578 495 L671 1022 L260 1022 L223 813 L383 813 L183 -323 L23 -323 L-13 -532 L557 -532 L594 -323 L434 -323 L518 156 C539 28 678 -20 765 -20 C852 -20 985 17 1052 145 L1027 0 L1438 0 L1474 209 L1314 209 Z " />
<glyph glyph-name="paragraph" unicode="&#xb6;" horiz-adv-x="1464" d="M1636 1434 L777 1434 C490 1434 291 1261 249 986 C213 752 362 537 619 537 L668 537 L574 0 L844 0 L1057 1208 L1156 1208 L943 0 L1213 0 L1426 1208 L1597 1208 L1636 1434 Z M787 1208 L708 764 L659 764 C537 764 501 883 519 986 C538 1089 616 1208 738 1208 L787 1208 Z " />
<glyph glyph-name="periodcentered" unicode="&#xb7;" horiz-adv-x="457" d="M208 726 C193 644 248 578 330 578 C422 578 490 644 505 726 C519 808 464 875 382 875 C290 875 222 808 208 726 L208 726 Z " />
<glyph glyph-name="cedilla" unicode="&#xb8;" horiz-adv-x="584" d="M-20 -459 C152 -532 422 -521 471 -303 C504 -158 392 -114 296 -112 L390 73 L237 73 L81 -240 C217 -219 345 -209 319 -296 C288 -394 109 -366 45 -342 L-20 -459 Z " />
<glyph glyph-name="onesuperior" unicode="&#xb9;" horiz-adv-x="515" d="M230 714 L590 714 L618 868 L521 868 L620 1434 L482 1434 L237 1234 L327 1116 L410 1184 L355 868 L258 868 L230 714 Z " />
<glyph glyph-name="ordmasculine" unicode="&#xba;" horiz-adv-x="816" d="M546 704 C748 704 919 825 957 1074 C993 1309 850 1444 648 1444 C446 1444 274 1323 237 1074 C202 839 344 704 546 704 L546 704 Z M559 858 C433 858 379 939 403 1074 C427 1209 509 1290 635 1290 C761 1290 815 1209 791 1074 C767 939 685 858 559 858 L559 858 Z " />
<glyph glyph-name="guillemotright" unicode="&#xbb;" horiz-adv-x="1505" d="M804 385 L751 52 L1527 584 L1553 730 L964 1262 L911 959 L1273 677 L804 385 Z M162 385 L109 52 L885 584 L911 730 L322 1262 L269 959 L631 677 L162 385 Z " />
<glyph glyph-name="onequarter" unicode="&#xbc;" horiz-adv-x="1436" d="M214 0 L413 0 L1488 1434 L1289 1434 L214 0 Z M330 714 L690 714 L718 868 L621 868 L720 1434 L582 1434 L337 1234 L427 1116 L510 1184 L455 868 L358 868 L330 714 Z M1311 0 L1334 134 L1237 134 L1246 182 L1348 182 L1371 316 L1269 316 L1340 720 L1191 720 L756 284 L738 182 L1080 182 L1071 134 L974 134 L951 0 L1311 0 Z M960 316 L1134 489 L1103 316 L960 316 Z " />
<glyph glyph-name="onehalf" unicode="&#xbd;" horiz-adv-x="1522" d="M214 0 L413 0 L1488 1434 L1289 1434 L214 0 Z M330 714 L690 714 L718 868 L621 868 L720 1434 L582 1434 L337 1234 L427 1116 L510 1184 L455 868 L358 868 L330 714 Z M1092 468 C1092 468 1143 576 1235 576 C1303 576 1323 546 1315 505 C1306 450 1256 413 1210 374 L893 116 L872 0 L1402 0 L1440 212 L1274 212 L1264 154 L1171 154 L1321 276 C1397 338 1468 406 1481 505 C1499 640 1419 730 1252 730 C1026 730 949 527 949 527 L1092 468 Z " />
<glyph glyph-name="threequarters" unicode="&#xbe;" horiz-adv-x="1522" d="M300 0 L499 0 L1574 1434 L1375 1434 L300 0 Z M1397 0 L1420 134 L1323 134 L1332 182 L1434 182 L1457 316 L1355 316 L1426 720 L1277 720 L842 284 L824 182 L1166 182 L1157 134 L1060 134 L1037 0 L1397 0 Z M1046 316 L1220 489 L1189 316 L1046 316 Z M540 704 C711 704 807 779 831 912 C848 1008 798 1056 732 1074 C800 1101 856 1153 871 1239 C893 1360 794 1444 642 1444 C456 1444 370 1342 370 1342 L347 1210 L513 1210 L524 1271 C544 1282 584 1290 629 1290 C692 1290 707 1259 702 1225 C688 1148 592 1148 491 1148 L464 994 C562 994 679 1001 666 930 C657 876 618 858 553 858 C497 858 461 864 440 879 L451 938 L285 938 L260 796 C260 796 323 704 540 704 L540 704 Z " />
<glyph glyph-name="questiondown" unicode="&#xbf;" horiz-adv-x="980" d="M756 -160 C671 -261 551 -326 422 -326 C262 -326 207 -230 224 -136 C248 4 400 94 664 98 L737 510 L467 510 L421 253 C82 188 -21 9 -46 -136 C-82 -336 41 -552 382 -552 C710 -552 882 -386 951 -291 L756 -160 Z M797 774 C812 856 757 922 675 922 C583 922 515 856 500 774 C486 692 541 625 623 625 C715 625 783 692 797 774 L797 774 Z " />
<glyph glyph-name="Agrave" unicode="&#xc0;" horiz-adv-x="1645" d="M993 1846 L710 1846 L969 1536 L1189 1536 L993 1846 Z M1217 226 L1058 226 L1019 0 L1605 0 L1644 226 L1488 226 L1182 1434 L706 1434 L667 1208 L827 1208 L229 226 L79 226 L40 0 L630 0 L669 226 L515 226 L627 414 L1171 414 L1217 226 Z M1014 1063 L1117 641 L763 641 L1014 1063 Z " />
<glyph glyph-name="Aacute" unicode="&#xc1;" horiz-adv-x="1645" d="M992 1536 L1212 1536 L1581 1846 L1298 1846 L992 1536 Z M1217 226 L1058 226 L1019 0 L1605 0 L1644 226 L1488 226 L1182 1434 L706 1434 L667 1208 L827 1208 L229 226 L79 226 L40 0 L630 0 L669 226 L515 226 L627 414 L1171 414 L1217 226 Z M1014 1063 L1117 641 L763 641 L1014 1063 Z " />
<glyph glyph-name="Acircumflex" unicode="&#xc2;" horiz-adv-x="1645" d="M1217 226 L1058 226 L1019 0 L1605 0 L1644 226 L1488 226 L1182 1434 L706 1434 L667 1208 L827 1208 L229 226 L79 226 L40 0 L630 0 L669 226 L515 226 L627 414 L1171 414 L1217 226 Z M1014 1063 L1117 641 L763 641 L1014 1063 Z M1179 1827 L1033 1827 L701 1536 L919 1536 L1088 1665 L1211 1536 L1409 1536 L1179 1827 Z " />
<glyph glyph-name="Atilde" unicode="&#xc3;" horiz-adv-x="1645" d="M1217 226 L1058 226 L1019 0 L1605 0 L1644 226 L1488 226 L1182 1434 L706 1434 L667 1208 L827 1208 L229 226 L79 226 L40 0 L630 0 L669 226 L515 226 L627 414 L1171 414 L1217 226 Z M1014 1063 L1117 641 L763 641 L1014 1063 Z M1053 1600 C1091 1565 1136 1536 1197 1536 C1451 1536 1476 1785 1476 1785 L1291 1785 C1291 1785 1279 1707 1222 1707 C1195 1707 1171 1730 1156 1743 C1118 1778 1073 1807 1012 1807 C758 1807 733 1558 733 1558 L918 1558 C918 1558 930 1636 987 1636 C1014 1636 1038 1613 1053 1600 L1053 1600 Z " />
<glyph glyph-name="Adieresis" unicode="&#xc4;" horiz-adv-x="1645" d="M1217 226 L1058 226 L1019 0 L1605 0 L1644 226 L1488 226 L1182 1434 L706 1434 L667 1208 L827 1208 L229 226 L79 226 L40 0 L630 0 L669 226 L515 226 L627 414 L1171 414 L1217 226 Z M1014 1063 L1117 641 L763 641 L1014 1063 Z M736 1683 C722 1602 777 1536 858 1536 C949 1536 1016 1602 1030 1683 C1045 1764 990 1830 909 1830 C818 1830 751 1764 736 1683 L736 1683 Z M1180 1683 C1166 1602 1221 1536 1302 1536 C1393 1536 1460 1602 1474 1683 C1489 1764 1434 1830 1353 1830 C1262 1830 1195 1764 1180 1683 L1180 1683 Z " />
<glyph glyph-name="Aring" unicode="&#xc5;" horiz-adv-x="1645" d="M1217 226 L1058 226 L1019 0 L1605 0 L1644 226 L1488 226 L1182 1434 L706 1434 L667 1208 L827 1208 L229 226 L79 226 L40 0 L630 0 L669 226 L515 226 L627 414 L1171 414 L1217 226 Z M1014 1063 L1117 641 L763 641 L1014 1063 Z M882 1763 C860 1638 950 1536 1075 1536 C1210 1536 1314 1638 1336 1763 C1358 1888 1268 1990 1143 1990 C1008 1990 904 1888 882 1763 L882 1763 Z M1031 1763 C1038 1806 1069 1841 1122 1841 C1165 1841 1194 1806 1187 1763 C1179 1720 1148 1685 1095 1685 C1052 1685 1023 1720 1031 1763 L1031 1763 Z " />
<glyph glyph-name="AE" unicode="&#xc6;" horiz-adv-x="2210" d="M1043 0 L2110 0 L2177 381 L1907 381 L1879 226 L1352 226 L1421 618 L1978 618 L2018 844 L1461 844 L1526 1208 L2043 1208 L2015 1053 L2285 1053 L2352 1434 L980 1434 L941 1208 L1091 1208 L271 226 L139 226 L100 0 L690 0 L729 226 L591 226 L728 391 L1111 391 L1043 0 Z M1214 971 L1151 618 L918 618 L1214 971 Z " />
<glyph glyph-name="Ccedilla" unicode="&#xc7;" horiz-adv-x="1472" d="M876 -296 C845 -394 666 -366 602 -342 L537 -459 C709 -532 979 -521 1028 -303 C1061 -158 949 -114 853 -112 L894 -29 C1124 -19 1296 41 1394 105 L1281 301 C1177 245 1023 196 873 196 C522 196 428 437 477 717 C526 997 706 1238 1057 1238 C1142 1238 1241 1228 1315 1204 L1288 1053 L1558 1053 L1613 1364 C1613 1364 1374 1464 1097 1464 C605 1464 277 1178 203 717 C139 323 341 13 744 -25 L638 -240 C774 -219 902 -209 876 -296 L876 -296 Z " />
<glyph glyph-name="Egrave" unicode="&#xc8;" horiz-adv-x="1427" d="M899 1846 L616 1846 L875 1536 L1095 1536 L899 1846 Z M100 0 L1327 0 L1394 381 L1124 381 L1096 226 L569 226 L638 618 L1195 618 L1235 844 L678 844 L743 1208 L1260 1208 L1232 1053 L1502 1053 L1569 1434 L352 1434 L313 1208 L473 1208 L299 226 L139 226 L100 0 Z " />
<glyph glyph-name="Eacute" unicode="&#xc9;" horiz-adv-x="1427" d="M859 1536 L1079 1536 L1448 1846 L1165 1846 L859 1536 Z M100 0 L1327 0 L1394 381 L1124 381 L1096 226 L569 226 L638 618 L1195 618 L1235 844 L678 844 L743 1208 L1260 1208 L1232 1053 L1502 1053 L1569 1434 L352 1434 L313 1208 L473 1208 L299 226 L139 226 L100 0 Z " />
<glyph glyph-name="Ecircumflex" unicode="&#xca;" horiz-adv-x="1427" d="M100 0 L1327 0 L1394 381 L1124 381 L1096 226 L569 226 L638 618 L1195 618 L1235 844 L678 844 L743 1208 L1260 1208 L1232 1053 L1502 1053 L1569 1434 L352 1434 L313 1208 L473 1208 L299 226 L139 226 L100 0 Z M1107 1827 L961 1827 L629 1536 L847 1536 L1016 1665 L1139 1536 L1337 1536 L1107 1827 Z " />
<glyph glyph-name="Edieresis" unicode="&#xcb;" horiz-adv-x="1427" d="M100 0 L1327 0 L1394 381 L1124 381 L1096 226 L569 226 L638 618 L1195 618 L1235 844 L678 844 L743 1208 L1260 1208 L1232 1053 L1502 1053 L1569 1434 L352 1434 L313 1208 L473 1208 L299 226 L139 226 L100 0 Z M639 1683 C625 1602 680 1536 761 1536 C852 1536 919 1602 933 1683 C948 1764 893 1830 812 1830 C721 1830 654 1764 639 1683 L639 1683 Z M1083 1683 C1069 1602 1124 1536 1205 1536 C1296 1536 1363 1602 1377 1683 C1392 1764 1337 1830 1256 1830 C1165 1830 1098 1764 1083 1683 L1083 1683 Z " />
<glyph glyph-name="Igrave" unicode="&#xcc;" horiz-adv-x="836" d="M668 1846 L385 1846 L644 1536 L864 1536 L668 1846 Z M829 1208 L989 1208 L1028 1434 L438 1434 L399 1208 L559 1208 L385 226 L225 226 L186 0 L776 0 L815 226 L655 226 L829 1208 Z " />
<glyph glyph-name="Iacute" unicode="&#xcd;" horiz-adv-x="883" d="M559 1536 L779 1536 L1148 1846 L865 1846 L559 1536 Z M743 1208 L903 1208 L942 1434 L352 1434 L313 1208 L473 1208 L299 226 L139 226 L100 0 L690 0 L729 226 L569 226 L743 1208 Z " />
<glyph glyph-name="Icircumflex" unicode="&#xce;" horiz-adv-x="830" d="M762 1208 L922 1208 L961 1434 L371 1434 L332 1208 L492 1208 L318 226 L158 226 L119 0 L709 0 L748 226 L588 226 L762 1208 Z M810 1827 L664 1827 L332 1536 L550 1536 L719 1665 L842 1536 L1040 1536 L810 1827 Z " />
<glyph glyph-name="Idieresis" unicode="&#xcf;" horiz-adv-x="853" d="M777 1208 L937 1208 L976 1434 L386 1434 L347 1208 L507 1208 L333 226 L173 226 L134 0 L724 0 L763 226 L603 226 L777 1208 Z M351 1683 C337 1602 392 1536 473 1536 C564 1536 631 1602 645 1683 C660 1764 605 1830 524 1830 C433 1830 366 1764 351 1683 L351 1683 Z M795 1683 C781 1602 836 1536 917 1536 C1008 1536 1075 1602 1089 1683 C1104 1764 1049 1830 968 1830 C877 1830 810 1764 795 1683 L795 1683 Z " />
<glyph glyph-name="Eth" unicode="&#xd0;" horiz-adv-x="1656" d="M1726 707 C1788 1114 1593 1434 1145 1434 L420 1434 L381 1208 L540 1208 L473 830 L246 830 L206 604 L433 604 L367 226 L207 226 L168 0 L893 0 C1375 0 1660 273 1726 707 L1726 707 Z M811 1208 L1106 1208 C1416 1208 1498 975 1453 717 C1407 459 1242 226 932 226 L637 226 L704 604 L1006 604 L1046 830 L744 830 L811 1208 Z " />
<glyph glyph-name="Ntilde" unicode="&#xd1;" horiz-adv-x="1777" d="M299 226 L139 226 L100 0 L690 0 L729 226 L570 226 L717 1059 L1206 0 L1517 0 L1730 1208 L1890 1208 L1929 1434 L1339 1434 L1300 1208 L1459 1208 L1312 375 L823 1434 L352 1434 L313 1208 L472 1208 L299 226 Z M1131 1600 C1169 1565 1214 1536 1275 1536 C1529 1536 1554 1785 1554 1785 L1369 1785 C1369 1785 1357 1707 1300 1707 C1273 1707 1249 1730 1234 1743 C1196 1778 1151 1807 1090 1807 C836 1807 811 1558 811 1558 L996 1558 C996 1558 1008 1636 1065 1636 C1092 1636 1116 1613 1131 1600 L1131 1600 Z " />
<glyph glyph-name="Ograve" unicode="&#xd2;" horiz-adv-x="1678" d="M1097 1464 C605 1464 277 1178 203 717 C135 295 371 -30 833 -30 C1325 -30 1653 256 1727 717 C1795 1139 1559 1464 1097 1464 L1097 1464 Z M477 717 C526 997 706 1238 1057 1238 C1408 1238 1502 997 1453 717 C1404 437 1224 196 873 196 C522 196 428 437 477 717 L477 717 Z M1038 1846 L765 1846 L1025 1536 L1235 1536 L1038 1846 Z " />
<glyph glyph-name="Oacute" unicode="&#xd3;" horiz-adv-x="1678" d="M1097 1464 C605 1464 277 1178 203 717 C135 295 371 -30 833 -30 C1325 -30 1653 256 1727 717 C1795 1139 1559 1464 1097 1464 L1097 1464 Z M477 717 C526 997 706 1238 1057 1238 C1408 1238 1502 997 1453 717 C1404 437 1224 196 873 196 C522 196 428 437 477 717 L477 717 Z M985 1536 L1245 1536 L1613 1846 L1290 1846 L985 1536 Z " />
<glyph glyph-name="Ocircumflex" unicode="&#xd4;" horiz-adv-x="1678" d="M1097 1464 C605 1464 277 1178 203 717 C135 295 371 -30 833 -30 C1325 -30 1653 256 1727 717 C1795 1139 1559 1464 1097 1464 L1097 1464 Z M477 717 C526 997 706 1238 1057 1238 C1408 1238 1502 997 1453 717 C1404 437 1224 196 873 196 C522 196 428 437 477 717 L477 717 Z M1242 1827 L1096 1827 L764 1536 L982 1536 L1151 1665 L1274 1536 L1472 1536 L1242 1827 Z " />
<glyph glyph-name="Otilde" unicode="&#xd5;" horiz-adv-x="1678" d="M1097 1464 C605 1464 277 1178 203 717 C135 295 371 -30 833 -30 C1325 -30 1653 256 1727 717 C1795 1139 1559 1464 1097 1464 L1097 1464 Z M477 717 C526 997 706 1238 1057 1238 C1408 1238 1502 997 1453 717 C1404 437 1224 196 873 196 C522 196 428 437 477 717 L477 717 Z M1090 1600 C1128 1565 1173 1536 1234 1536 C1488 1536 1513 1785 1513 1785 L1328 1785 C1328 1785 1316 1707 1259 1707 C1232 1707 1208 1730 1193 1743 C1155 1778 1110 1807 1049 1807 C795 1807 770 1558 770 1558 L955 1558 C955 1558 967 1636 1024 1636 C1051 1636 1075 1613 1090 1600 L1090 1600 Z " />
<glyph glyph-name="Odieresis" unicode="&#xd6;" horiz-adv-x="1678" d="M1097 1464 C605 1464 277 1178 203 717 C135 295 371 -30 833 -30 C1325 -30 1653 256 1727 717 C1795 1139 1559 1464 1097 1464 L1097 1464 Z M477 717 C526 997 706 1238 1057 1238 C1408 1238 1502 997 1453 717 C1404 437 1224 196 873 196 C522 196 428 437 477 717 L477 717 Z M774 1683 C760 1602 815 1536 896 1536 C987 1536 1054 1602 1068 1683 C1083 1764 1028 1830 947 1830 C856 1830 789 1764 774 1683 L774 1683 Z M1218 1683 C1204 1602 1259 1536 1340 1536 C1431 1536 1498 1602 1512 1683 C1527 1764 1472 1830 1391 1830 C1300 1830 1233 1764 1218 1683 L1218 1683 Z " />
<glyph glyph-name="multiply" unicode="&#xd7;" horiz-adv-x="1071" d="M634 492 L859 219 L1047 380 L822 652 L1157 937 L1003 1118 L671 836 L447 1108 L259 947 L482 675 L147 390 L301 209 L634 492 Z " />
<glyph glyph-name="Oslash" unicode="&#xd8;" horiz-adv-x="1677" d="M1096 1464 C604 1464 276 1178 202 717 C159 450 237 223 417 91 L314 -61 L561 -61 L602 1 C671 -19 748 -30 832 -30 C1324 -30 1652 256 1726 717 C1769 984 1690 1212 1509 1344 L1611 1495 L1364 1495 L1323 1434 C1255 1453 1179 1464 1096 1464 L1096 1464 Z M1452 717 C1403 437 1223 196 872 196 C824 196 781 200 743 209 L1365 1131 C1459 1034 1481 882 1452 717 L1452 717 Z M476 717 C525 997 705 1238 1056 1238 C1102 1238 1144 1233 1182 1225 L561 305 C468 401 447 552 476 717 L476 717 Z " />
<glyph glyph-name="Ugrave" unicode="&#xd9;" horiz-adv-x="1775" d="M1060 1846 L777 1846 L1036 1536 L1256 1536 L1060 1846 Z M1728 1208 L1888 1208 L1927 1434 L1337 1434 L1298 1208 L1457 1208 L1356 631 C1309 364 1190 196 921 196 C652 196 594 364 641 631 L743 1208 L903 1208 L942 1434 L352 1434 L313 1208 L472 1208 L371 631 C298 221 486 -30 881 -30 C1377 -30 1553 221 1626 631 L1728 1208 Z " />
<glyph glyph-name="Uacute" unicode="&#xda;" horiz-adv-x="1775" d="M1047 1536 L1267 1536 L1636 1846 L1353 1846 L1047 1536 Z M1728 1208 L1888 1208 L1927 1434 L1337 1434 L1298 1208 L1457 1208 L1356 631 C1309 364 1190 196 921 196 C652 196 594 364 641 631 L743 1208 L903 1208 L942 1434 L352 1434 L313 1208 L472 1208 L371 631 C298 221 486 -30 881 -30 C1377 -30 1553 221 1626 631 L1728 1208 Z " />
<glyph glyph-name="Ucircumflex" unicode="&#xdb;" horiz-adv-x="1775" d="M1728 1208 L1888 1208 L1927 1434 L1337 1434 L1298 1208 L1457 1208 L1356 631 C1309 364 1190 196 921 196 C652 196 594 364 641 631 L743 1208 L903 1208 L942 1434 L352 1434 L313 1208 L472 1208 L371 631 C298 221 486 -30 881 -30 C1377 -30 1553 221 1626 631 L1728 1208 Z M1271 1827 L1125 1827 L793 1536 L1011 1536 L1180 1665 L1303 1536 L1501 1536 L1271 1827 Z " />
<glyph glyph-name="Udieresis" unicode="&#xdc;" horiz-adv-x="1775" d="M1728 1208 L1888 1208 L1927 1434 L1337 1434 L1298 1208 L1457 1208 L1356 631 C1309 364 1190 196 921 196 C652 196 594 364 641 631 L743 1208 L903 1208 L942 1434 L352 1434 L313 1208 L472 1208 L371 631 C298 221 486 -30 881 -30 C1377 -30 1553 221 1626 631 L1728 1208 Z M814 1683 C800 1602 855 1536 936 1536 C1027 1536 1094 1602 1108 1683 C1123 1764 1068 1830 987 1830 C896 1830 829 1764 814 1683 L814 1683 Z M1258 1683 C1244 1602 1299 1536 1380 1536 C1471 1536 1538 1602 1552 1683 C1567 1764 1512 1830 1431 1830 C1340 1830 1273 1764 1258 1683 L1258 1683 Z " />
<glyph glyph-name="Yacute" unicode="&#xdd;" horiz-adv-x="1546" d="M939 1536 L1159 1536 L1528 1846 L1245 1846 L939 1536 Z M739 548 L682 226 L522 226 L483 0 L1073 0 L1112 226 L952 226 L1009 547 L1575 1208 L1719 1208 L1758 1434 L1168 1434 L1129 1208 L1277 1208 L904 763 L688 1208 L843 1208 L882 1434 L292 1434 L253 1208 L407 1208 L739 548 Z " />
<glyph glyph-name="Thorn" unicode="&#xde;" horiz-adv-x="1231" d="M80 0 L670 0 L709 226 L549 226 L561 290 L796 290 C1046 290 1260 435 1299 720 C1331 950 1218 1152 948 1152 L713 1152 L723 1208 L883 1208 L922 1434 L332 1434 L293 1208 L452 1208 L279 226 L119 226 L80 0 Z M908 925 C1016 925 1049 829 1029 720 C1011 614 943 516 835 516 L600 516 L673 925 L908 925 Z " />
<glyph glyph-name="germandbls" unicode="&#xdf;" horiz-adv-x="1437" d="M662 861 C719 1183 886 1255 1008 1255 C1189 1255 1265 1179 1243 1051 C1221 926 1131 848 991 845 L830 845 L794 636 L959 636 C1086 636 1208 578 1175 389 C1156 283 1070 193 904 193 C816 193 728 208 661 239 L624 32 C681 2 767 -16 867 -16 C1192 -16 1383 144 1426 389 C1459 574 1363 689 1231 739 C1351 776 1467 901 1494 1051 C1535 1284 1356 1464 1045 1464 C842 1464 511 1424 411 861 L296 209 L136 209 L100 0 L511 0 L662 861 Z " />
<glyph glyph-name="agrave" unicode="&#xe0;" horiz-adv-x="1369" d="M795 1434 L512 1434 L772 1124 L992 1124 L795 1434 Z M1058 1022 L1026 841 C975 960 859 1042 693 1042 C397 1042 171 853 117 511 C69 209 230 -20 536 -20 C692 -20 820 40 906 159 L878 0 L1289 0 L1325 209 L1166 209 L1272 813 L1433 813 L1469 1022 L1058 1022 Z M726 832 C938 832 998 678 968 511 C939 344 825 190 613 190 C404 190 345 344 374 511 C404 678 517 832 726 832 L726 832 Z " />
<glyph glyph-name="aacute" unicode="&#xe1;" horiz-adv-x="1369" d="M735 1124 L955 1124 L1323 1434 L1040 1434 L735 1124 Z M1058 1022 L1026 841 C975 960 859 1042 693 1042 C397 1042 171 853 117 511 C69 209 230 -20 536 -20 C692 -20 820 40 906 159 L878 0 L1289 0 L1325 209 L1166 209 L1272 813 L1433 813 L1469 1022 L1058 1022 Z M726 832 C938 832 998 678 968 511 C939 344 825 190 613 190 C404 190 345 344 374 511 C404 678 517 832 726 832 L726 832 Z " />
<glyph glyph-name="acircumflex" unicode="&#xe2;" horiz-adv-x="1369" d="M1058 1022 L1026 841 C975 960 859 1042 693 1042 C397 1042 171 853 117 511 C69 209 230 -20 536 -20 C692 -20 820 40 906 159 L878 0 L1289 0 L1325 209 L1166 209 L1272 813 L1433 813 L1469 1022 L1058 1022 Z M726 832 C938 832 998 678 968 511 C939 344 825 190 613 190 C404 190 345 344 374 511 C404 678 517 832 726 832 L726 832 Z M956 1434 L810 1434 L478 1143 L696 1143 L865 1272 L988 1143 L1186 1143 L956 1434 Z " />
<glyph glyph-name="atilde" unicode="&#xe3;" horiz-adv-x="1369" d="M1058 1022 L1026 841 C975 960 859 1042 693 1042 C397 1042 171 853 117 511 C69 209 230 -20 536 -20 C692 -20 820 40 906 159 L878 0 L1289 0 L1325 209 L1166 209 L1272 813 L1433 813 L1469 1022 L1058 1022 Z M726 832 C938 832 998 678 968 511 C939 344 825 190 613 190 C404 190 345 344 374 511 C404 678 517 832 726 832 L726 832 Z M838 1247 C876 1212 921 1183 982 1183 C1236 1183 1261 1432 1261 1432 L1076 1432 C1076 1432 1064 1354 1007 1354 C980 1354 956 1377 941 1390 C903 1425 858 1454 797 1454 C543 1454 518 1205 518 1205 L703 1205 C703 1205 715 1283 772 1283 C799 1283 823 1260 838 1247 L838 1247 Z " />
<glyph glyph-name="adieresis" unicode="&#xe4;" horiz-adv-x="1369" d="M1058 1022 L1026 841 C975 960 859 1042 693 1042 C397 1042 171 853 117 511 C69 209 230 -20 536 -20 C692 -20 820 40 906 159 L878 0 L1289 0 L1325 209 L1166 209 L1272 813 L1433 813 L1469 1022 L1058 1022 Z M726 832 C938 832 998 678 968 511 C939 344 825 190 613 190 C404 190 345 344 374 511 C404 678 517 832 726 832 L726 832 Z M495 1327 C481 1246 536 1180 617 1180 C708 1180 775 1246 789 1327 C804 1408 749 1474 668 1474 C577 1474 510 1408 495 1327 L495 1327 Z M939 1327 C925 1246 980 1180 1061 1180 C1152 1180 1219 1246 1233 1327 C1248 1408 1193 1474 1112 1474 C1021 1474 954 1408 939 1327 L939 1327 Z " />
<glyph glyph-name="aring" unicode="&#xe5;" horiz-adv-x="1369" d="M1058 1022 L1026 841 C975 960 859 1042 693 1042 C397 1042 171 853 117 511 C69 209 230 -20 536 -20 C692 -20 820 40 906 159 L878 0 L1289 0 L1325 209 L1166 209 L1272 813 L1433 813 L1469 1022 L1058 1022 Z M726 832 C938 832 998 678 968 511 C939 344 825 190 613 190 C404 190 345 344 374 511 C404 678 517 832 726 832 L726 832 Z M646 1390 C624 1265 714 1163 839 1163 C974 1163 1078 1265 1100 1390 C1122 1515 1032 1617 907 1617 C772 1617 668 1515 646 1390 L646 1390 Z M795 1390 C802 1433 833 1468 886 1468 C929 1468 958 1433 951 1390 C943 1347 912 1312 859 1312 C816 1312 787 1347 795 1390 L795 1390 Z " />
<glyph glyph-name="ae" unicode="&#xe6;" horiz-adv-x="1895" d="M1346 189 C1132 188 1115 351 1126 413 L1915 413 C1989 831 1778 1042 1486 1042 C1340 1042 1208 1000 1104 921 C1046 1004 934 1042 753 1042 C596 1042 433 1010 304 951 L375 761 C482 806 617 833 726 833 C884 833 923 794 900 666 C546 705 154 634 112 317 C82 90 235 -20 457 -20 C621 -20 783 9 956 129 C1032 36 1155 -20 1319 -20 C1569 -20 1725 54 1812 115 L1681 276 C1614 239 1502 190 1346 189 L1346 189 Z M366 327 C400 520 738 512 871 504 L853 400 C837 292 704 189 524 189 C427 189 347 221 366 327 L366 327 Z M1161 610 C1172 674 1253 833 1459 833 C1665 833 1690 674 1679 610 L1161 610 Z " />
<glyph glyph-name="ccedilla" unicode="&#xe7;" horiz-adv-x="1150" d="M660 189 C441 189 374 343 404 511 C433 679 554 833 773 833 C834 833 890 828 940 811 L917 680 L1168 680 L1219 966 C1219 966 1052 1042 810 1042 C462 1042 200 863 147 511 C105 236 254 21 536 -14 L425 -240 C561 -219 689 -209 663 -296 C632 -394 453 -366 389 -342 L324 -459 C496 -532 766 -521 815 -303 C848 -158 736 -114 640 -112 L687 -18 C829 -9 965 32 1078 114 L963 284 C862 218 768 189 660 189 L660 189 Z " />
<glyph glyph-name="egrave" unicode="&#xe8;" horiz-adv-x="1192" d="M629 189 C425 188 387 341 399 413 L1208 413 C1290 821 1091 1042 759 1042 C407 1042 188 825 146 511 C105 208 260 -20 612 -20 C802 -20 954 24 1097 124 L966 286 C886 240 781 190 629 189 L629 189 Z M434 610 C447 684 536 833 742 833 C948 833 985 684 972 610 L434 610 Z M690 1434 L417 1434 L677 1124 L887 1124 L690 1434 Z " />
<glyph glyph-name="eacute" unicode="&#xe9;" horiz-adv-x="1217" d="M629 189 C425 188 387 341 399 413 L1208 413 C1290 821 1091 1042 759 1042 C407 1042 188 825 146 511 C105 208 260 -20 612 -20 C802 -20 954 24 1097 124 L966 286 C886 240 781 190 629 189 L629 189 Z M434 610 C447 684 536 833 742 833 C948 833 985 684 972 610 L434 610 Z M653 1124 L913 1124 L1281 1434 L958 1434 L653 1124 Z " />
<glyph glyph-name="ecircumflex" unicode="&#xea;" horiz-adv-x="1192" d="M629 189 C425 188 387 341 399 413 L1208 413 C1290 821 1091 1042 759 1042 C407 1042 188 825 146 511 C105 208 260 -20 612 -20 C802 -20 954 24 1097 124 L966 286 C886 240 781 190 629 189 L629 189 Z M434 610 C447 684 536 833 742 833 C948 833 985 684 972 610 L434 610 Z M920 1434 L774 1434 L442 1143 L660 1143 L829 1272 L952 1143 L1150 1143 L920 1434 Z " />
<glyph glyph-name="edieresis" unicode="&#xeb;" horiz-adv-x="1192" d="M629 189 C425 188 387 341 399 413 L1208 413 C1290 821 1091 1042 759 1042 C407 1042 188 825 146 511 C105 208 260 -20 612 -20 C802 -20 954 24 1097 124 L966 286 C886 240 781 190 629 189 L629 189 Z M434 610 C447 684 536 833 742 833 C948 833 985 684 972 610 L434 610 Z M459 1327 C445 1246 500 1180 581 1180 C672 1180 739 1246 753 1327 C768 1408 713 1474 632 1474 C541 1474 474 1408 459 1327 L459 1327 Z M903 1327 C889 1246 944 1180 1025 1180 C1116 1180 1183 1246 1197 1327 C1212 1408 1157 1474 1076 1474 C985 1474 918 1408 903 1327 L903 1327 Z " />
<glyph glyph-name="igrave" unicode="&#xec;" horiz-adv-x="828" d="M575 1434 L292 1434 L552 1124 L772 1124 L575 1434 Z M480 813 L373 209 L213 209 L177 0 L748 0 L784 209 L624 209 L768 1022 L357 1022 L320 813 L480 813 Z " />
<glyph glyph-name="iacute" unicode="&#xed;" horiz-adv-x="828" d="M452 1124 L672 1124 L1040 1434 L757 1434 L452 1124 Z M383 813 L276 209 L116 209 L80 0 L651 0 L687 209 L527 209 L671 1022 L260 1022 L223 813 L383 813 Z " />
<glyph glyph-name="icircumflex" unicode="&#xee;" horiz-adv-x="788" d="M413 813 L306 209 L146 209 L110 0 L681 0 L717 209 L557 209 L701 1022 L290 1022 L253 813 L413 813 Z M719 1434 L573 1434 L241 1143 L459 1143 L628 1272 L751 1143 L949 1143 L719 1434 Z " />
<glyph glyph-name="idieresis" unicode="&#xef;" horiz-adv-x="818" d="M427 813 L320 209 L160 209 L124 0 L695 0 L731 209 L571 209 L715 1022 L304 1022 L267 813 L427 813 Z M273 1327 C259 1246 314 1180 395 1180 C486 1180 553 1246 567 1327 C582 1408 527 1474 446 1474 C355 1474 288 1408 273 1327 L273 1327 Z M717 1327 C703 1246 758 1180 839 1180 C930 1180 997 1246 1011 1327 C1026 1408 971 1474 890 1474 C799 1474 732 1408 717 1327 L717 1327 Z " />
<glyph glyph-name="eth" unicode="&#xf0;" horiz-adv-x="1240" d="M809 1066 L978 1185 C1056 1104 1079 1022 1069 860 C1031 960 908 1042 742 1042 C456 1042 202 873 147 511 C101 209 269 -20 575 -20 C967 -20 1197 220 1276 666 C1332 986 1268 1187 1165 1317 L1295 1408 L1177 1584 L1008 1465 C888 1550 765 1583 716 1594 L608 1397 C678 1376 743 1351 801 1320 L691 1242 L809 1066 Z M642 190 C430 190 370 344 400 511 C429 678 543 832 755 832 C964 832 1023 678 994 511 C964 344 851 190 642 190 L642 190 Z " />
<glyph glyph-name="ntilde" unicode="&#xf1;" horiz-adv-x="1477" d="M383 813 L276 209 L116 209 L80 0 L651 0 L687 209 L527 209 L587 547 C618 723 720 833 885 833 C1049 833 1113 723 1082 547 L986 0 L1397 0 L1433 209 L1273 209 L1333 547 C1390 871 1235 1042 962 1042 C855 1042 710 994 643 866 L671 1022 L260 1022 L223 813 L383 813 Z M919 1247 C957 1212 1002 1183 1063 1183 C1317 1183 1342 1432 1342 1432 L1157 1432 C1157 1432 1145 1354 1088 1354 C1061 1354 1037 1377 1022 1390 C984 1425 939 1454 878 1454 C624 1454 599 1205 599 1205 L784 1205 C784 1205 796 1283 853 1283 C880 1283 904 1260 919 1247 L919 1247 Z " />
<glyph glyph-name="ograve" unicode="&#xf2;" horiz-adv-x="1254" d="M1287 511 C1333 815 1147 1042 810 1042 C462 1042 200 863 147 511 C101 209 285 -20 623 -20 C970 -20 1233 157 1287 511 L1287 511 Z M1030 511 C1000 343 879 189 660 189 C441 189 374 343 404 511 C433 679 554 833 773 833 C992 833 1059 679 1030 511 L1030 511 Z M721 1434 L448 1434 L708 1124 L918 1124 L721 1434 Z " />
<glyph glyph-name="oacute" unicode="&#xf3;" horiz-adv-x="1277" d="M1287 511 C1333 815 1147 1042 810 1042 C462 1042 200 863 147 511 C101 209 285 -20 623 -20 C970 -20 1233 157 1287 511 L1287 511 Z M1030 511 C1000 343 879 189 660 189 C441 189 374 343 404 511 C433 679 554 833 773 833 C992 833 1059 679 1030 511 L1030 511 Z M690 1124 L950 1124 L1318 1434 L995 1434 L690 1124 Z " />
<glyph glyph-name="ocircumflex" unicode="&#xf4;" horiz-adv-x="1254" d="M1287 511 C1333 815 1147 1042 810 1042 C462 1042 200 863 147 511 C101 209 285 -20 623 -20 C970 -20 1233 157 1287 511 L1287 511 Z M1030 511 C1000 343 879 189 660 189 C441 189 374 343 404 511 C433 679 554 833 773 833 C992 833 1059 679 1030 511 L1030 511 Z M952 1434 L806 1434 L474 1143 L692 1143 L861 1272 L984 1143 L1182 1143 L952 1434 Z " />
<glyph glyph-name="otilde" unicode="&#xf5;" horiz-adv-x="1254" d="M1287 511 C1333 815 1147 1042 810 1042 C462 1042 200 863 147 511 C101 209 285 -20 623 -20 C970 -20 1233 157 1287 511 L1287 511 Z M1030 511 C1000 343 879 189 660 189 C441 189 374 343 404 511 C433 679 554 833 773 833 C992 833 1059 679 1030 511 L1030 511 Z M808 1247 C846 1212 891 1183 952 1183 C1206 1183 1231 1432 1231 1432 L1046 1432 C1046 1432 1034 1354 977 1354 C950 1354 926 1377 911 1390 C873 1425 828 1454 767 1454 C513 1454 488 1205 488 1205 L673 1205 C673 1205 685 1283 742 1283 C769 1283 793 1260 808 1247 L808 1247 Z " />
<glyph glyph-name="odieresis" unicode="&#xf6;" horiz-adv-x="1254" d="M1287 511 C1333 815 1147 1042 810 1042 C462 1042 200 863 147 511 C101 209 285 -20 623 -20 C970 -20 1233 157 1287 511 L1287 511 Z M1030 511 C1000 343 879 189 660 189 C441 189 374 343 404 511 C433 679 554 833 773 833 C992 833 1059 679 1030 511 L1030 511 Z M487 1307 C473 1226 528 1160 609 1160 C700 1160 767 1226 781 1307 C796 1388 741 1454 660 1454 C569 1454 502 1388 487 1307 L487 1307 Z M931 1307 C917 1226 972 1160 1053 1160 C1144 1160 1211 1226 1225 1307 C1240 1388 1185 1454 1104 1454 C1013 1454 946 1388 931 1307 L931 1307 Z " />
<glyph glyph-name="divide" unicode="&#xf7;" horiz-adv-x="999" d="M179 565 L1018 565 L1059 794 L220 794 L179 565 Z M531 1022 C516 940 571 874 653 874 C745 874 813 940 828 1022 C842 1104 787 1171 705 1171 C613 1171 545 1104 531 1022 L531 1022 Z M410 336 C395 254 450 188 532 188 C624 188 692 254 707 336 C721 418 666 485 584 485 C492 485 424 418 410 336 L410 336 Z " />
<glyph glyph-name="oslash" unicode="&#xf8;" horiz-adv-x="1296" d="M1308 511 C1336 701 1274 861 1142 954 L1229 1083 L1017 1083 L978 1025 C933 1036 884 1042 831 1042 C483 1042 221 863 168 511 C139 322 200 161 333 68 L246 -61 L457 -61 L496 -3 C541 -14 590 -20 644 -20 C991 -20 1254 157 1308 511 L1308 511 Z M1051 511 C1021 343 900 189 681 189 C662 189 644 190 628 192 L1004 750 C1054 689 1067 602 1051 511 L1051 511 Z M425 511 C454 679 575 833 794 833 C812 833 829 831 846 829 L470 272 C421 333 408 420 425 511 L425 511 Z " />
<glyph glyph-name="ugrave" unicode="&#xf9;" horiz-adv-x="1477" d="M837 1434 L554 1434 L814 1124 L1034 1124 L837 1434 Z M1069 475 C1038 299 936 189 771 189 C607 189 543 299 574 475 L671 1022 L260 1022 L223 813 L383 813 L323 475 C266 151 421 -20 694 -20 C801 -20 946 28 1013 156 L986 0 L1397 0 L1433 209 L1273 209 L1417 1022 L1006 1022 L969 813 L1129 813 L1069 475 Z " />
<glyph glyph-name="uacute" unicode="&#xfa;" horiz-adv-x="1477" d="M799 1124 L1019 1124 L1387 1434 L1104 1434 L799 1124 Z M1069 475 C1038 299 936 189 771 189 C607 189 543 299 574 475 L671 1022 L260 1022 L223 813 L383 813 L323 475 C266 151 421 -20 694 -20 C801 -20 946 28 1013 156 L986 0 L1397 0 L1433 209 L1273 209 L1417 1022 L1006 1022 L969 813 L1129 813 L1069 475 Z " />
<glyph glyph-name="ucircumflex" unicode="&#xfb;" horiz-adv-x="1477" d="M1069 475 C1038 299 936 189 771 189 C607 189 543 299 574 475 L671 1022 L260 1022 L223 813 L383 813 L323 475 C266 151 421 -20 694 -20 C801 -20 946 28 1013 156 L986 0 L1397 0 L1433 209 L1273 209 L1417 1022 L1006 1022 L969 813 L1129 813 L1069 475 Z M1053 1434 L907 1434 L575 1143 L793 1143 L962 1272 L1085 1143 L1283 1143 L1053 1434 Z " />
<glyph glyph-name="udieresis" unicode="&#xfc;" horiz-adv-x="1477" d="M1069 475 C1038 299 936 189 771 189 C607 189 543 299 574 475 L671 1022 L260 1022 L223 813 L383 813 L323 475 C266 151 421 -20 694 -20 C801 -20 946 28 1013 156 L986 0 L1397 0 L1433 209 L1273 209 L1417 1022 L1006 1022 L969 813 L1129 813 L1069 475 Z M603 1327 C589 1246 644 1180 725 1180 C816 1180 883 1246 897 1327 C912 1408 857 1474 776 1474 C685 1474 618 1408 603 1327 L603 1327 Z M1047 1327 C1033 1246 1088 1180 1169 1180 C1260 1180 1327 1246 1341 1327 C1356 1408 1301 1474 1220 1474 C1129 1474 1062 1408 1047 1327 L1047 1327 Z " />
<glyph glyph-name="yacute" unicode="&#xfd;" horiz-adv-x="1399" d="M791 1124 L1011 1124 L1379 1434 L1096 1434 L791 1124 Z M1316 813 L1462 813 L1499 1022 L928 1022 L891 813 L1045 813 L746 295 L629 813 L784 813 L821 1022 L260 1022 L223 813 L378 813 L583 0 L469 -191 C419 -268 374 -323 259 -323 L137 -323 L100 -532 L222 -532 C488 -532 564 -420 645 -295 L1316 813 Z " />
<glyph glyph-name="thorn" unicode="&#xfe;" horiz-adv-x="1400" d="M523 181 C574 62 690 -20 856 -20 C1152 -20 1378 169 1432 511 C1480 813 1319 1042 1013 1042 C857 1042 729 982 643 863 L758 1516 L347 1516 L310 1307 L470 1307 L183 -323 L23 -323 L-13 -532 L557 -532 L594 -323 L434 -323 L523 181 Z M823 190 C611 190 551 344 581 511 C610 678 724 832 936 832 C1145 832 1204 678 1175 511 C1145 344 1032 190 823 190 L823 190 Z " />
<glyph glyph-name="ydieresis" unicode="&#xff;" horiz-adv-x="1399" d="M1316 813 L1462 813 L1499 1022 L928 1022 L891 813 L1045 813 L746 295 L629 813 L784 813 L821 1022 L260 1022 L223 813 L378 813 L583 0 L469 -191 C419 -268 374 -323 259 -323 L137 -323 L100 -532 L222 -532 C488 -532 564 -420 645 -295 L1316 813 Z M559 1327 C545 1246 600 1180 681 1180 C772 1180 839 1246 853 1327 C868 1408 813 1474 732 1474 C641 1474 574 1408 559 1327 L559 1327 Z M1003 1327 C989 1246 1044 1180 1125 1180 C1216 1180 1283 1246 1297 1327 C1312 1408 1257 1474 1176 1474 C1085 1474 1018 1408 1003 1327 L1003 1327 Z " />
<glyph glyph-name="Amacron" unicode="&#x100;" horiz-adv-x="1645" d="M682 1535 L1476 1535 L1509 1724 L715 1724 L682 1535 Z M1217 226 L1058 226 L1019 0 L1605 0 L1644 226 L1488 226 L1182 1434 L706 1434 L667 1208 L827 1208 L229 226 L79 226 L40 0 L630 0 L669 226 L515 226 L627 414 L1171 414 L1217 226 Z M1014 1063 L1117 641 L763 641 L1014 1063 Z " />
<glyph glyph-name="amacron" unicode="&#x101;" horiz-adv-x="1369" d="M477 1245 L1271 1245 L1304 1434 L510 1434 L477 1245 Z M1058 1022 L1026 841 C975 960 859 1042 693 1042 C397 1042 171 853 117 511 C69 209 230 -20 536 -20 C692 -20 820 40 906 159 L878 0 L1289 0 L1325 209 L1166 209 L1272 813 L1433 813 L1469 1022 L1058 1022 Z M726 832 C938 832 998 678 968 511 C939 344 825 190 613 190 C404 190 345 344 374 511 C404 678 517 832 726 832 L726 832 Z " />
<glyph glyph-name="Abreve" unicode="&#x102;" horiz-adv-x="1645" d="M1217 226 L1058 226 L1019 0 L1605 0 L1644 226 L1488 226 L1182 1434 L706 1434 L667 1208 L827 1208 L229 226 L79 226 L40 0 L630 0 L669 226 L515 226 L627 414 L1171 414 L1217 226 Z M1014 1063 L1117 641 L763 641 L1014 1063 Z M1070 1536 C1328 1536 1427 1669 1477 1782 L1285 1782 C1251 1723 1191 1690 1097 1690 C1003 1690 955 1723 931 1782 L749 1782 C765 1689 842 1536 1070 1536 L1070 1536 Z " />
<glyph glyph-name="abreve" unicode="&#x103;" horiz-adv-x="1369" d="M1058 1022 L1026 841 C975 960 859 1042 693 1042 C397 1042 171 853 117 511 C69 209 230 -20 536 -20 C692 -20 820 40 906 159 L878 0 L1289 0 L1325 209 L1166 209 L1272 813 L1433 813 L1469 1022 L1058 1022 Z M726 832 C938 832 998 678 968 511 C939 344 825 190 613 190 C404 190 345 344 374 511 C404 678 517 832 726 832 L726 832 Z M855 1188 C1113 1188 1212 1321 1262 1434 L1070 1434 C1036 1375 976 1342 882 1342 C788 1342 740 1375 716 1434 L534 1434 C550 1341 627 1188 855 1188 L855 1188 Z " />
<glyph glyph-name="Aogonek" unicode="&#x104;" horiz-adv-x="1645" d="M1217 226 L1058 226 L1019 0 L1421 0 C1414 -1 1260 -36 1242 -197 C1215 -426 1475 -458 1576 -458 L1612 -251 C1612 -251 1430 -251 1450 -141 C1468 -36 1598 -1 1605 0 L1644 226 L1488 226 L1182 1434 L706 1434 L667 1208 L827 1208 L229 226 L79 226 L40 0 L630 0 L669 226 L515 226 L627 414 L1171 414 L1217 226 Z M1014 1063 L1117 641 L763 641 L1014 1063 Z " />
<glyph glyph-name="aogonek" unicode="&#x105;" horiz-adv-x="1369" d="M1058 1022 L1026 841 C975 960 859 1042 693 1042 C397 1042 171 853 117 511 C69 209 230 -20 536 -20 C692 -20 820 40 906 159 L878 0 L1105 0 C1098 -1 944 -36 926 -197 C899 -426 1159 -458 1260 -458 L1296 -251 C1296 -251 1114 -251 1134 -141 C1153 -34 1289 0 1289 0 L1325 209 L1166 209 L1272 813 L1433 813 L1469 1022 L1058 1022 Z M726 832 C938 832 998 678 968 511 C939 344 825 190 613 190 C404 190 345 344 374 511 C404 678 517 832 726 832 L726 832 Z " />
<glyph glyph-name="Cacute" unicode="&#x106;" horiz-adv-x="1473" d="M997 1536 L1217 1536 L1586 1846 L1303 1846 L997 1536 Z M833 -30 C1094 -30 1288 36 1394 105 L1281 301 C1177 245 1023 196 873 196 C522 196 428 437 477 717 C526 997 706 1238 1057 1238 C1142 1238 1241 1228 1315 1204 L1288 1053 L1558 1053 L1613 1364 C1613 1364 1374 1464 1097 1464 C605 1464 277 1178 203 717 C135 295 371 -30 833 -30 L833 -30 Z " />
<glyph glyph-name="cacute" unicode="&#x107;" horiz-adv-x="1149" d="M707 1124 L927 1124 L1295 1434 L1012 1434 L707 1124 Z M660 189 C441 189 374 343 404 511 C433 679 554 833 773 833 C834 833 890 828 940 811 L917 680 L1168 680 L1219 966 C1219 966 1052 1042 810 1042 C462 1042 200 863 147 511 C101 209 285 -20 623 -20 C788 -20 948 20 1078 114 L963 284 C862 218 768 189 660 189 L660 189 Z " />
<glyph glyph-name="Ccircumflex" unicode="&#x108;" horiz-adv-x="1473" d="M1215 1827 L1069 1827 L737 1536 L955 1536 L1124 1665 L1247 1536 L1445 1536 L1215 1827 Z M833 -30 C1094 -30 1288 36 1394 105 L1281 301 C1177 245 1023 196 873 196 C522 196 428 437 477 717 C526 997 706 1238 1057 1238 C1142 1238 1241 1228 1315 1204 L1288 1053 L1558 1053 L1613 1364 C1613 1364 1374 1464 1097 1464 C605 1464 277 1178 203 717 C135 295 371 -30 833 -30 L833 -30 Z " />
<glyph glyph-name="ccircumflex" unicode="&#x109;" horiz-adv-x="1149" d="M441 1143 L659 1143 L827 1272 L951 1143 L1149 1143 L919 1434 L773 1434 L441 1143 Z M660 189 C441 189 374 343 404 511 C433 679 554 833 773 833 C834 833 890 828 940 811 L917 680 L1168 680 L1219 966 C1219 966 1052 1042 810 1042 C462 1042 200 863 147 511 C101 209 285 -20 623 -20 C788 -20 948 20 1078 114 L963 284 C862 218 768 189 660 189 L660 189 Z " />
<glyph glyph-name="Cdotaccent" unicode="&#x10a;" horiz-adv-x="1473" d="M978 1703 C964 1622 1019 1556 1100 1556 C1191 1556 1258 1622 1272 1703 C1287 1784 1232 1850 1151 1850 C1060 1850 993 1784 978 1703 L978 1703 Z M833 -30 C1094 -30 1288 36 1394 105 L1281 301 C1177 245 1023 196 873 196 C522 196 428 437 477 717 C526 997 706 1238 1057 1238 C1142 1238 1241 1228 1315 1204 L1288 1053 L1558 1053 L1613 1364 C1613 1364 1374 1464 1097 1464 C605 1464 277 1178 203 717 C135 295 371 -30 833 -30 L833 -30 Z " />
<glyph glyph-name="cdotaccent" unicode="&#x10b;" horiz-adv-x="1149" d="M691 1327 C677 1246 732 1180 813 1180 C904 1180 971 1246 985 1327 C1000 1408 945 1474 864 1474 C773 1474 706 1408 691 1327 L691 1327 Z M660 189 C441 189 374 343 404 511 C433 679 554 833 773 833 C834 833 890 828 940 811 L917 680 L1168 680 L1219 966 C1219 966 1052 1042 810 1042 C462 1042 200 863 147 511 C101 209 285 -20 623 -20 C788 -20 948 20 1078 114 L963 284 C862 218 768 189 660 189 L660 189 Z " />
<glyph glyph-name="Ccaron" unicode="&#x10c;" horiz-adv-x="1473" d="M1019 1536 L1165 1536 L1497 1827 L1279 1827 L1110 1698 L987 1827 L789 1827 L1019 1536 Z M833 -30 C1094 -30 1288 36 1394 105 L1281 301 C1177 245 1023 196 873 196 C522 196 428 437 477 717 C526 997 706 1238 1057 1238 C1142 1238 1241 1228 1315 1204 L1288 1053 L1558 1053 L1613 1364 C1613 1364 1374 1464 1097 1464 C605 1464 277 1178 203 717 C135 295 371 -30 833 -30 L833 -30 Z " />
<glyph glyph-name="ccaron" unicode="&#x10d;" horiz-adv-x="1149" d="M1217 1434 L999 1434 L831 1305 L707 1434 L509 1434 L739 1143 L885 1143 L1217 1434 Z M660 189 C441 189 374 343 404 511 C433 679 554 833 773 833 C834 833 890 828 940 811 L917 680 L1168 680 L1219 966 C1219 966 1052 1042 810 1042 C462 1042 200 863 147 511 C101 209 285 -20 623 -20 C788 -20 948 20 1078 114 L963 284 C862 218 768 189 660 189 L660 189 Z " />
<glyph glyph-name="Dcaron" unicode="&#x10e;" horiz-adv-x="1588" d="M1658 707 C1720 1114 1525 1434 1077 1434 L352 1434 L313 1208 L472 1208 L299 226 L139 226 L100 0 L825 0 C1307 0 1592 273 1658 707 L1658 707 Z M743 1208 L1038 1208 C1348 1208 1430 975 1385 717 C1339 459 1174 226 864 226 L569 226 L743 1208 Z M898 1536 L1044 1536 L1376 1827 L1158 1827 L989 1698 L866 1827 L668 1827 L898 1536 Z " />
<glyph glyph-name="dcaron" unicode="&#x10f;" horiz-adv-x="1446" d="M1392 1054 L1623 1054 L1834 1516 L1565 1516 L1392 1054 Z M908 0 L1319 0 L1355 209 L1196 209 L1426 1516 L1015 1516 L978 1307 L1138 1307 L1056 841 C1005 960 889 1042 723 1042 C427 1042 201 853 147 511 C99 209 260 -20 566 -20 C722 -20 850 40 936 159 L908 0 Z M756 832 C968 832 1028 678 998 511 C969 344 855 190 643 190 C434 190 375 344 404 511 C434 678 547 832 756 832 L756 832 Z " />
<glyph glyph-name="Dcroat" unicode="&#x110;" horiz-adv-x="1656" d="M1726 707 C1788 1114 1593 1434 1145 1434 L420 1434 L381 1208 L540 1208 L473 830 L246 830 L206 604 L433 604 L367 226 L207 226 L168 0 L893 0 C1375 0 1660 273 1726 707 L1726 707 Z M811 1208 L1106 1208 C1416 1208 1498 975 1453 717 C1407 459 1242 226 932 226 L637 226 L704 604 L1006 604 L1046 830 L744 830 L811 1208 Z " />
<glyph glyph-name="dcroat" unicode="&#x111;" horiz-adv-x="1389" d="M908 0 L1319 0 L1355 209 L1196 209 L1346 1065 L1536 1065 L1572 1265 L1382 1265 L1426 1516 L1015 1516 L978 1307 L1138 1307 L1130 1265 L849 1265 L813 1065 L1095 1065 L1056 841 C1005 960 889 1042 723 1042 C427 1042 201 853 147 511 C99 209 260 -20 566 -20 C722 -20 850 40 936 159 L908 0 Z M756 832 C968 832 1028 678 998 511 C969 344 855 190 643 190 C434 190 375 344 404 511 C434 678 547 832 756 832 L756 832 Z " />
<glyph glyph-name="Emacron" unicode="&#x112;" horiz-adv-x="1427" d="M597 1536 L1391 1536 L1425 1725 L631 1725 L597 1536 Z M100 0 L1327 0 L1394 381 L1124 381 L1096 226 L569 226 L638 618 L1195 618 L1235 844 L678 844 L743 1208 L1260 1208 L1232 1053 L1502 1053 L1569 1434 L352 1434 L313 1208 L473 1208 L299 226 L139 226 L100 0 Z " />
<glyph glyph-name="emacron" unicode="&#x113;" horiz-adv-x="1197" d="M629 189 C425 188 387 341 399 413 L1208 413 C1290 821 1091 1042 759 1042 C407 1042 188 825 146 511 C105 208 260 -20 612 -20 C802 -20 954 24 1097 124 L966 286 C886 240 781 190 629 189 L629 189 Z M434 610 C447 684 536 833 742 833 C948 833 985 684 972 610 L434 610 Z M417 1245 L1211 1245 L1244 1434 L450 1434 L417 1245 Z " />
<glyph glyph-name="Ebreve" unicode="&#x114;" horiz-adv-x="1427" d="M100 0 L1327 0 L1394 381 L1124 381 L1096 226 L569 226 L638 618 L1195 618 L1235 844 L678 844 L743 1208 L1260 1208 L1232 1053 L1502 1053 L1569 1434 L352 1434 L313 1208 L473 1208 L299 226 L139 226 L100 0 Z M956 1536 C1214 1536 1313 1669 1363 1782 L1171 1782 C1137 1723 1077 1690 983 1690 C889 1690 841 1723 817 1782 L635 1782 C651 1689 728 1536 956 1536 L956 1536 Z " />
<glyph glyph-name="ebreve" unicode="&#x115;" horiz-adv-x="1192" d="M629 189 C425 188 387 341 399 413 L1208 413 C1290 821 1091 1042 759 1042 C407 1042 188 825 146 511 C105 208 260 -20 612 -20 C802 -20 954 24 1097 124 L966 286 C886 240 781 190 629 189 L629 189 Z M434 610 C447 684 536 833 742 833 C948 833 985 684 972 610 L434 610 Z M804 1188 C1062 1188 1161 1321 1211 1434 L1019 1434 C985 1375 925 1342 831 1342 C737 1342 689 1375 665 1434 L483 1434 C499 1341 576 1188 804 1188 L804 1188 Z " />
<glyph glyph-name="Edotaccent" unicode="&#x116;" horiz-adv-x="1427" d="M100 0 L1327 0 L1394 381 L1124 381 L1096 226 L569 226 L638 618 L1195 618 L1235 844 L678 844 L743 1208 L1260 1208 L1232 1053 L1502 1053 L1569 1434 L352 1434 L313 1208 L473 1208 L299 226 L139 226 L100 0 Z M849 1683 C835 1602 890 1536 971 1536 C1062 1536 1129 1602 1143 1683 C1158 1764 1103 1830 1022 1830 C931 1830 864 1764 849 1683 L849 1683 Z " />
<glyph glyph-name="edotaccent" unicode="&#x117;" horiz-adv-x="1192" d="M629 189 C425 188 387 341 399 413 L1208 413 C1290 821 1091 1042 759 1042 C407 1042 188 825 146 511 C105 208 260 -20 612 -20 C802 -20 954 24 1097 124 L966 286 C886 240 781 190 629 189 L629 189 Z M434 610 C447 684 536 833 742 833 C948 833 985 684 972 610 L434 610 Z M681 1327 C667 1246 722 1180 803 1180 C894 1180 961 1246 975 1327 C990 1408 935 1474 854 1474 C763 1474 696 1408 681 1327 L681 1327 Z " />
<glyph glyph-name="Eogonek" unicode="&#x118;" horiz-adv-x="1479" d="M100 0 L1140 0 C1120 -4 980 -44 964 -197 C937 -426 1197 -458 1298 -458 L1334 -251 C1334 -251 1152 -251 1172 -141 C1191 -34 1327 0 1327 0 L1394 381 L1124 381 L1096 226 L569 226 L638 618 L1195 618 L1235 844 L678 844 L743 1208 L1260 1208 L1232 1053 L1502 1053 L1569 1434 L352 1434 L313 1208 L473 1208 L299 226 L139 226 L100 0 Z " />
<glyph glyph-name="eogonek" unicode="&#x119;" horiz-adv-x="1192" d="M629 189 C425 188 387 341 399 413 L1208 413 C1290 821 1091 1042 759 1042 C407 1042 188 825 146 511 C106 218 250 -4 577 -19 C528 -43 462 -94 450 -197 C423 -426 683 -458 784 -458 L820 -251 C820 -251 638 -251 658 -141 C674 -49 775 -11 804 -2 C910 19 1005 60 1097 124 L966 286 C886 240 781 190 629 189 L629 189 Z M434 610 C447 684 536 833 742 833 C948 833 985 684 972 610 L434 610 Z " />
<glyph glyph-name="Ecaron" unicode="&#x11a;" horiz-adv-x="1427" d="M1389 1827 L1181 1827 L1012 1698 L889 1827 L681 1827 L910 1536 L1056 1536 L1389 1827 Z M100 0 L1327 0 L1394 381 L1124 381 L1096 226 L569 226 L638 618 L1195 618 L1235 844 L678 844 L743 1208 L1260 1208 L1232 1053 L1502 1053 L1569 1434 L352 1434 L313 1208 L473 1208 L299 226 L139 226 L100 0 Z " />
<glyph glyph-name="ecaron" unicode="&#x11b;" horiz-adv-x="1192" d="M629 189 C425 188 387 341 399 413 L1208 413 C1290 821 1091 1042 759 1042 C407 1042 188 825 146 511 C105 208 260 -20 612 -20 C802 -20 954 24 1097 124 L966 286 C886 240 781 190 629 189 L629 189 Z M434 610 C447 684 536 833 742 833 C948 833 985 684 972 610 L434 610 Z M1201 1434 L983 1434 L815 1305 L691 1434 L493 1434 L723 1143 L869 1143 L1201 1434 Z " />
<glyph glyph-name="Gcircumflex" unicode="&#x11c;" horiz-adv-x="1524" d="M1219 1827 L1073 1827 L741 1536 L959 1536 L1128 1665 L1251 1536 L1449 1536 L1219 1827 Z M873 196 C522 196 428 437 477 717 C526 997 706 1238 1057 1238 C1165 1238 1275 1224 1365 1199 L1339 1053 L1609 1053 L1664 1364 C1664 1364 1400 1464 1097 1464 C605 1464 277 1178 203 717 C135 295 371 -30 833 -30 C1023 -30 1275 4 1448 139 L1568 822 L1003 822 L964 596 L1259 596 L1201 267 C1129 228 1003 196 873 196 L873 196 Z " />
<glyph glyph-name="gcircumflex" unicode="&#x11d;" horiz-adv-x="1393" d="M1082 1022 L1050 841 C999 960 883 1042 717 1042 C421 1042 195 853 141 511 C93 209 254 -20 560 -20 C716 -20 844 40 930 159 L902 0 C855 -263 719 -322 520 -322 C410 -322 271 -292 162 -220 L29 -399 C158 -497 347 -532 483 -532 C812 -532 1078 -424 1153 0 L1296 813 L1456 813 L1493 1022 L1082 1022 Z M750 832 C962 832 1022 678 992 511 C963 344 849 190 637 190 C428 190 369 344 398 511 C428 678 541 832 750 832 L750 832 Z M921 1434 L775 1434 L443 1143 L661 1143 L830 1272 L953 1143 L1151 1143 L921 1434 Z " />
<glyph glyph-name="Gbreve" unicode="&#x11e;" horiz-adv-x="1524" d="M1082 1536 C1340 1536 1439 1669 1489 1782 L1297 1782 C1263 1723 1203 1690 1109 1690 C1015 1690 967 1723 943 1782 L761 1782 C777 1689 854 1536 1082 1536 L1082 1536 Z M873 196 C522 196 428 437 477 717 C526 997 706 1238 1057 1238 C1165 1238 1275 1224 1365 1199 L1339 1053 L1609 1053 L1664 1364 C1664 1364 1400 1464 1097 1464 C605 1464 277 1178 203 717 C135 295 371 -30 833 -30 C1023 -30 1275 4 1448 139 L1568 822 L1003 822 L964 596 L1259 596 L1201 267 C1129 228 1003 196 873 196 L873 196 Z " />
<glyph glyph-name="gbreve" unicode="&#x11f;" horiz-adv-x="1413" d="M1102 1022 L1070 841 C1019 960 903 1042 737 1042 C441 1042 215 853 161 511 C113 209 274 -20 580 -20 C736 -20 864 40 950 159 L922 0 C875 -263 739 -322 540 -322 C430 -322 291 -292 182 -220 L49 -399 C178 -497 367 -532 503 -532 C832 -532 1098 -424 1173 0 L1316 813 L1476 813 L1513 1022 L1102 1022 Z M770 832 C982 832 1042 678 1012 511 C983 344 869 190 657 190 C448 190 389 344 418 511 C448 678 561 832 770 832 L770 832 Z M824 1188 C1082 1188 1181 1321 1231 1434 L1039 1434 C1005 1375 945 1342 851 1342 C757 1342 709 1375 685 1434 L503 1434 C519 1341 596 1188 824 1188 L824 1188 Z " />
<glyph glyph-name="Gdotaccent" unicode="&#x120;" horiz-adv-x="1524" d="M977 1703 C963 1622 1018 1556 1099 1556 C1190 1556 1257 1622 1271 1703 C1286 1784 1231 1850 1150 1850 C1059 1850 992 1784 977 1703 L977 1703 Z M873 196 C522 196 428 437 477 717 C526 997 706 1238 1057 1238 C1165 1238 1275 1224 1365 1199 L1339 1053 L1609 1053 L1664 1364 C1664 1364 1400 1464 1097 1464 C605 1464 277 1178 203 717 C135 295 371 -30 833 -30 C1023 -30 1275 4 1448 139 L1568 822 L1003 822 L964 596 L1259 596 L1201 267 C1129 228 1003 196 873 196 L873 196 Z " />
<glyph glyph-name="gdotaccent" unicode="&#x121;" horiz-adv-x="1413" d="M1102 1022 L1070 841 C1019 960 903 1042 737 1042 C441 1042 215 853 161 511 C113 209 274 -20 580 -20 C736 -20 864 40 950 159 L922 0 C875 -263 739 -322 540 -322 C430 -322 291 -292 182 -220 L49 -399 C178 -497 367 -532 503 -532 C832 -532 1098 -424 1173 0 L1316 813 L1476 813 L1513 1022 L1102 1022 Z M770 832 C982 832 1042 678 1012 511 C983 344 869 190 657 190 C448 190 389 344 418 511 C448 678 561 832 770 832 L770 832 Z M705 1327 C691 1246 746 1180 827 1180 C918 1180 985 1246 999 1327 C1014 1408 959 1474 878 1474 C787 1474 720 1408 705 1327 L705 1327 Z " />
<glyph glyph-name="Gcommaaccent" unicode="&#x122;" horiz-adv-x="1524" d="M451 -532 L682 -532 L942 -130 L673 -130 L451 -532 Z M873 196 C522 196 428 437 477 717 C526 997 706 1238 1057 1238 C1165 1238 1275 1224 1365 1199 L1339 1053 L1609 1053 L1664 1364 C1664 1364 1400 1464 1097 1464 C605 1464 277 1178 203 717 C135 295 371 -30 833 -30 C1023 -30 1275 4 1448 139 L1568 822 L1003 822 L964 596 L1259 596 L1201 267 C1129 228 1003 196 873 196 L873 196 Z " />
<glyph glyph-name="gcommaaccent" unicode="&#x123;" horiz-adv-x="1413" d="M1143 1516 L912 1516 L652 1114 L921 1114 L1143 1516 Z M1102 1022 L1070 841 C1019 960 903 1042 737 1042 C441 1042 215 853 161 511 C113 209 274 -20 580 -20 C736 -20 864 40 950 159 L922 0 C875 -263 739 -322 540 -322 C430 -322 291 -292 182 -220 L49 -399 C178 -497 367 -532 503 -532 C832 -532 1098 -424 1173 0 L1316 813 L1476 813 L1513 1022 L1102 1022 Z M770 832 C982 832 1042 678 1012 511 C983 344 869 190 657 190 C448 190 389 344 418 511 C448 678 561 832 770 832 L770 832 Z " />
<glyph glyph-name="Hcircumflex" unicode="&#x124;" horiz-adv-x="1743" d="M743 1208 L903 1208 L942 1434 L352 1434 L313 1208 L473 1208 L299 226 L139 226 L100 0 L690 0 L729 226 L569 226 L638 618 L1321 618 L1252 226 L1092 226 L1053 0 L1643 0 L1682 226 L1522 226 L1696 1208 L1856 1208 L1895 1434 L1305 1434 L1266 1208 L1426 1208 L1361 844 L678 844 L743 1208 Z M770 1536 L988 1536 L1156 1665 L1280 1536 L1478 1536 L1248 1827 L1102 1827 L770 1536 Z " />
<glyph glyph-name="hcircumflex" unicode="&#x125;" horiz-adv-x="1477" d="M470 1307 L276 209 L116 209 L80 0 L651 0 L687 209 L527 209 L587 547 C618 723 720 833 885 833 C1049 833 1113 723 1082 547 L986 0 L1397 0 L1433 209 L1273 209 L1333 547 C1390 871 1235 1042 962 1042 C855 1042 710 994 643 866 L758 1516 L347 1516 L310 1307 L470 1307 Z M653 1535 L871 1535 L1039 1664 L1163 1535 L1361 1535 L1131 1826 L985 1826 L653 1535 Z " />
<glyph glyph-name="Hbar" unicode="&#x126;" horiz-adv-x="1859" d="M801 1208 L961 1208 L1000 1434 L410 1434 L371 1208 L531 1208 L518 1138 L300 1138 L263 930 L481 930 L357 226 L197 226 L158 0 L748 0 L787 226 L627 226 L696 618 L1379 618 L1310 226 L1150 226 L1111 0 L1701 0 L1740 226 L1580 226 L1704 930 L1922 930 L1959 1138 L1741 1138 L1754 1208 L1914 1208 L1953 1434 L1363 1434 L1324 1208 L1484 1208 L1471 1138 L788 1138 L801 1208 Z M736 844 L751 930 L1434 930 L1419 844 L736 844 Z " />
<glyph glyph-name="hbar" unicode="&#x127;" horiz-adv-x="1507" d="M500 1307 L493 1267 L303 1267 L268 1067 L457 1067 L306 209 L146 209 L110 0 L681 0 L717 209 L557 209 L617 547 C648 723 750 833 915 833 C1079 833 1143 723 1112 547 L1016 0 L1427 0 L1463 209 L1303 209 L1363 547 C1420 871 1265 1042 992 1042 C885 1042 740 994 673 866 L708 1067 L991 1067 L1026 1267 L744 1267 L788 1516 L377 1516 L340 1307 L500 1307 Z " />
<glyph glyph-name="Itilde" unicode="&#x128;" horiz-adv-x="828" d="M760 1208 L920 1208 L959 1434 L369 1434 L330 1208 L490 1208 L316 226 L156 226 L117 0 L707 0 L746 226 L586 226 L760 1208 Z M658 1600 C696 1565 741 1536 802 1536 C1056 1536 1081 1785 1081 1785 L896 1785 C896 1785 884 1707 827 1707 C800 1707 776 1730 761 1743 C723 1778 678 1807 617 1807 C363 1807 338 1558 338 1558 L523 1558 C523 1558 535 1636 592 1636 C619 1636 643 1613 658 1600 L658 1600 Z " />
<glyph glyph-name="itilde" unicode="&#x129;" horiz-adv-x="785" d="M409 813 L302 209 L142 209 L106 0 L677 0 L713 209 L553 209 L697 1022 L286 1022 L249 813 L409 813 Z M573 1247 C611 1212 656 1183 717 1183 C971 1183 996 1432 996 1432 L811 1432 C811 1432 799 1354 742 1354 C715 1354 691 1377 676 1390 C638 1425 593 1454 532 1454 C278 1454 253 1205 253 1205 L438 1205 C438 1205 450 1283 507 1283 C534 1283 558 1260 573 1247 L573 1247 Z " />
<glyph glyph-name="uni012A" unicode="&#x12a;" horiz-adv-x="914" d="M330 1536 L1124 1536 L1158 1725 L364 1725 L330 1536 Z M805 1208 L965 1208 L1004 1434 L414 1434 L375 1208 L535 1208 L361 226 L201 226 L162 0 L752 0 L791 226 L631 226 L805 1208 Z " />
<glyph glyph-name="imacron" unicode="&#x12b;" horiz-adv-x="804" d="M219 1245 L1013 1245 L1046 1434 L252 1434 L219 1245 Z M425 813 L318 209 L158 209 L122 0 L693 0 L729 209 L569 209 L713 1022 L302 1022 L265 813 L425 813 Z " />
<glyph glyph-name="Ibreve" unicode="&#x12c;" horiz-adv-x="848" d="M772 1208 L932 1208 L971 1434 L381 1434 L342 1208 L502 1208 L328 226 L168 226 L129 0 L719 0 L758 226 L598 226 L772 1208 Z M695 1536 C953 1536 1052 1669 1102 1782 L910 1782 C876 1723 816 1690 722 1690 C628 1690 580 1723 556 1782 L374 1782 C390 1689 467 1536 695 1536 L695 1536 Z " />
<glyph glyph-name="uni012D" unicode="&#x12d;" horiz-adv-x="748" d="M392 813 L285 209 L125 209 L89 0 L660 0 L696 209 L536 209 L680 1022 L269 1022 L232 813 L392 813 Z M583 1188 C841 1188 940 1321 990 1434 L798 1434 C764 1375 704 1342 610 1342 C516 1342 468 1375 444 1434 L262 1434 C278 1341 355 1188 583 1188 L583 1188 Z " />
<glyph glyph-name="Iogonek" unicode="&#x12e;" horiz-adv-x="762" d="M703 1208 L863 1208 L902 1434 L312 1434 L273 1208 L433 1208 L259 226 L99 226 L60 0 L466 0 C459 -1 305 -36 287 -197 C260 -426 520 -458 621 -458 L657 -251 C657 -251 475 -251 495 -141 C513 -36 643 -1 650 0 L689 226 L529 226 L703 1208 Z " />
<glyph glyph-name="iogonek" unicode="&#x12f;" horiz-adv-x="743" d="M383 813 L276 209 L116 209 L80 0 L467 0 C460 -1 306 -36 288 -197 C261 -426 521 -458 622 -458 L658 -251 C658 -251 476 -251 496 -141 C514 -36 644 -1 651 0 L687 209 L527 209 L671 1022 L260 1022 L223 813 L383 813 Z M451 1327 C437 1246 492 1180 573 1180 C664 1180 731 1246 745 1327 C760 1408 705 1474 624 1474 C533 1474 466 1408 451 1327 L451 1327 Z " />
<glyph glyph-name="Idotaccent" unicode="&#x130;" horiz-adv-x="790" d="M743 1208 L903 1208 L942 1434 L352 1434 L313 1208 L473 1208 L299 226 L139 226 L100 0 L690 0 L729 226 L569 226 L743 1208 Z M543 1683 C529 1602 584 1536 665 1536 C756 1536 823 1602 837 1683 C852 1764 797 1830 716 1830 C625 1830 558 1764 543 1683 L543 1683 Z " />
<glyph glyph-name="dotlessi" unicode="&#x131;" horiz-adv-x="731" d="M383 813 L276 209 L116 209 L80 0 L651 0 L687 209 L527 209 L671 1022 L260 1022 L223 813 L383 813 Z " />
<glyph glyph-name="IJ" unicode="&#x132;" horiz-adv-x="2043" d="M867 296 C884 150 989 -30 1300 -30 C1637 -30 1806 133 1863 454 L1996 1208 L2156 1208 L2195 1434 L1605 1434 L1566 1208 L1725 1208 L1593 454 C1562 278 1488 196 1320 196 C1177 196 1133 286 1116 366 L867 296 Z M743 1208 L903 1208 L942 1434 L352 1434 L313 1208 L473 1208 L299 226 L139 226 L100 0 L690 0 L729 226 L569 226 L743 1208 Z " />
<glyph glyph-name="ij" unicode="&#x133;" horiz-adv-x="1305" d="M383 813 L276 209 L116 209 L80 0 L651 0 L687 209 L527 209 L671 1022 L260 1022 L223 813 L383 813 Z M451 1327 C437 1246 492 1180 573 1180 C664 1180 731 1246 745 1327 C760 1408 705 1474 624 1474 C533 1474 466 1408 451 1327 L451 1327 Z M501 -485 C576 -524 664 -532 723 -532 C1049 -532 1122 -351 1184 0 L1364 1022 L953 1022 L916 813 L1076 813 L933 0 C902 -175 872 -323 740 -323 C698 -323 654 -317 601 -296 L501 -485 Z M1144 1327 C1130 1246 1185 1180 1266 1180 C1357 1180 1424 1246 1438 1327 C1453 1408 1398 1474 1317 1474 C1226 1474 1159 1408 1144 1327 L1144 1327 Z " />
<glyph glyph-name="Jcircumflex" unicode="&#x134;" horiz-adv-x="1342" d="M111 296 C128 150 233 -30 544 -30 C881 -30 1050 133 1107 454 L1240 1208 L1400 1208 L1439 1434 L849 1434 L810 1208 L969 1208 L837 454 C806 278 732 196 564 196 C421 196 377 286 360 366 L111 296 Z M1282 1827 L1136 1827 L804 1536 L1022 1536 L1191 1665 L1314 1536 L1512 1536 L1282 1827 Z " />
<glyph glyph-name="jcircumflex" unicode="&#x135;" horiz-adv-x="661" d="M-225 -485 C-150 -524 -62 -532 -3 -532 C323 -532 396 -351 458 0 L638 1022 L227 1022 L190 813 L350 813 L207 0 C176 -175 146 -323 14 -323 C-28 -323 -72 -317 -125 -296 L-225 -485 Z M662 1434 L516 1434 L184 1143 L402 1143 L571 1272 L694 1143 L892 1143 L662 1434 Z " />
<glyph glyph-name="Kcommaaccent" unicode="&#x136;" horiz-adv-x="1617" d="M423 -532 L654 -532 L914 -130 L645 -130 L423 -532 Z M743 1208 L903 1208 L942 1434 L352 1434 L313 1208 L473 1208 L299 226 L139 226 L100 0 L690 0 L729 226 L569 226 L624 535 L821 677 L1145 0 L1472 0 L1511 226 L1351 226 L1050 841 L1561 1208 L1685 1208 L1724 1434 L1134 1434 L1095 1208 L1204 1208 L676 830 L743 1208 Z " />
<glyph glyph-name="kcommaaccent" unicode="&#x137;" horiz-adv-x="1361" d="M320 -532 L551 -532 L811 -130 L542 -130 L320 -532 Z M595 592 L758 1516 L347 1516 L310 1307 L470 1307 L276 209 L116 209 L80 0 L651 0 L687 209 L527 209 L548 325 L710 437 L994 0 L1281 0 L1317 209 L1150 209 L911 576 L1256 813 L1405 813 L1442 1022 L871 1022 L834 813 L916 813 L595 592 Z " />
<glyph glyph-name="kgreenlandic" unicode="&#x138;" horiz-adv-x="1581" d="M743 1208 L903 1208 L942 1434 L352 1434 L313 1208 L473 1208 L299 226 L139 226 L100 0 L690 0 L729 226 L569 226 L630 572 L752 661 C855 601 1048 324 1084 0 L1464 0 L1503 226 L1343 226 C1259 510 1115 736 966 832 C1177 989 1334 1178 1617 1181 L1661 1434 C1239 1433 1002 1134 688 898 L743 1208 Z " />
<glyph glyph-name="Lacute" unicode="&#x139;" horiz-adv-x="1353" d="M555 1536 L775 1536 L1144 1846 L861 1846 L555 1536 Z M743 1208 L903 1208 L942 1434 L352 1434 L313 1208 L473 1208 L299 226 L139 226 L100 0 L1253 0 L1320 381 L1050 381 L1022 226 L569 226 L743 1208 Z " />
<glyph glyph-name="lacute" unicode="&#x13a;" horiz-adv-x="788" d="M495 1596 L715 1596 L1084 1906 L801 1906 L495 1596 Z M430 1307 L236 209 L76 209 L40 0 L611 0 L647 209 L487 209 L718 1516 L307 1516 L270 1307 L430 1307 Z " />
<glyph glyph-name="Lcommaaccent" unicode="&#x13b;" horiz-adv-x="1353" d="M298 -532 L529 -532 L789 -130 L520 -130 L298 -532 Z M743 1208 L903 1208 L942 1434 L352 1434 L313 1208 L473 1208 L299 226 L139 226 L100 0 L1253 0 L1320 381 L1050 381 L1022 226 L569 226 L743 1208 Z " />
<glyph glyph-name="lcommaaccent" unicode="&#x13c;" horiz-adv-x="651" d="M-52 -532 L178 -532 L438 -130 L169 -130 L-52 -532 Z M430 1307 L236 209 L76 209 L40 0 L611 0 L647 209 L487 209 L718 1516 L307 1516 L270 1307 L430 1307 Z " />
<glyph glyph-name="Lcaron" unicode="&#x13d;" horiz-adv-x="1353" d="M743 1208 L903 1208 L942 1434 L352 1434 L313 1208 L473 1208 L299 226 L139 226 L100 0 L1253 0 L1320 381 L1050 381 L1022 226 L569 226 L743 1208 Z M873 972 L1104 972 L1314 1434 L1045 1434 L873 972 Z " />
<glyph glyph-name="lcaron" unicode="&#x13e;" horiz-adv-x="907" d="M430 1307 L236 209 L76 209 L40 0 L611 0 L647 209 L487 209 L718 1516 L307 1516 L270 1307 L430 1307 Z M684 1054 L915 1054 L1126 1516 L857 1516 L684 1054 Z " />
<glyph glyph-name="Ldot" unicode="&#x13f;" horiz-adv-x="1353" d="M743 1208 L903 1208 L942 1434 L352 1434 L313 1208 L473 1208 L299 226 L139 226 L100 0 L1253 0 L1320 381 L1050 381 L1022 226 L569 226 L743 1208 Z M1063 796 C1048 714 1103 648 1185 648 C1277 648 1345 714 1360 796 C1374 878 1319 945 1237 945 C1145 945 1077 878 1063 796 L1063 796 Z " />
<glyph glyph-name="ldot" unicode="&#x140;" horiz-adv-x="890" d="M470 1307 L276 209 L116 209 L80 0 L651 0 L687 209 L527 209 L758 1516 L347 1516 L310 1307 L470 1307 Z M794 802 C779 720 834 654 916 654 C1008 654 1076 720 1091 802 C1105 884 1050 951 968 951 C876 951 808 884 794 802 L794 802 Z " />
<glyph glyph-name="Lslash" unicode="&#x141;" horiz-adv-x="1406" d="M796 1208 L956 1208 L995 1434 L405 1434 L366 1208 L526 1208 L453 796 L218 674 L172 411 L406 533 L352 226 L192 226 L153 0 L1306 0 L1373 381 L1103 381 L1075 226 L622 226 L704 687 L938 809 L985 1072 L750 950 L796 1208 Z " />
<glyph glyph-name="lslash" unicode="&#x142;" horiz-adv-x="796" d="M503 1307 L423 851 L205 712 L157 439 L374 578 L309 209 L149 209 L113 0 L684 0 L720 209 L560 209 L657 758 L874 897 L922 1170 L705 1031 L791 1516 L380 1516 L343 1307 L503 1307 Z " />
<glyph glyph-name="Nacute" unicode="&#x143;" horiz-adv-x="1777" d="M1030 1536 L1250 1536 L1619 1846 L1336 1846 L1030 1536 Z M299 226 L139 226 L100 0 L690 0 L729 226 L570 226 L717 1059 L1206 0 L1517 0 L1730 1208 L1890 1208 L1929 1434 L1339 1434 L1300 1208 L1459 1208 L1312 375 L823 1434 L352 1434 L313 1208 L472 1208 L299 226 Z " />
<glyph glyph-name="nacute" unicode="&#x144;" horiz-adv-x="1477" d="M818 1124 L1038 1124 L1406 1434 L1123 1434 L818 1124 Z M383 813 L276 209 L116 209 L80 0 L651 0 L687 209 L527 209 L587 547 C618 723 720 833 885 833 C1049 833 1113 723 1082 547 L986 0 L1397 0 L1433 209 L1273 209 L1333 547 C1390 871 1235 1042 962 1042 C855 1042 710 994 643 866 L671 1022 L260 1022 L223 813 L383 813 Z " />
<glyph glyph-name="Ncommaaccent" unicode="&#x145;" horiz-adv-x="1777" d="M512 -532 L743 -532 L1003 -130 L734 -130 L512 -532 Z M299 226 L139 226 L100 0 L690 0 L729 226 L570 226 L717 1059 L1206 0 L1517 0 L1730 1208 L1890 1208 L1929 1434 L1339 1434 L1300 1208 L1459 1208 L1312 375 L823 1434 L352 1434 L313 1208 L472 1208 L299 226 Z " />
<glyph glyph-name="ncommaaccent" unicode="&#x146;" horiz-adv-x="1477" d="M362 -532 L593 -532 L853 -130 L584 -130 L362 -532 Z M383 813 L276 209 L116 209 L80 0 L651 0 L687 209 L527 209 L587 547 C618 723 720 833 885 833 C1049 833 1113 723 1082 547 L986 0 L1397 0 L1433 209 L1273 209 L1333 547 C1390 871 1235 1042 962 1042 C855 1042 710 994 643 866 L671 1022 L260 1022 L223 813 L383 813 Z " />
<glyph glyph-name="Ncaron" unicode="&#x147;" horiz-adv-x="1777" d="M299 226 L139 226 L100 0 L690 0 L729 226 L570 226 L717 1059 L1206 0 L1517 0 L1730 1208 L1890 1208 L1929 1434 L1339 1434 L1300 1208 L1459 1208 L1312 375 L823 1434 L352 1434 L313 1208 L472 1208 L299 226 Z M1553 1827 L1335 1827 L1167 1698 L1043 1827 L845 1827 L1075 1536 L1221 1536 L1553 1827 Z " />
<glyph glyph-name="ncaron" unicode="&#x148;" horiz-adv-x="1477" d="M383 813 L276 209 L116 209 L80 0 L651 0 L687 209 L527 209 L587 547 C618 723 720 833 885 833 C1049 833 1113 723 1082 547 L986 0 L1397 0 L1433 209 L1273 209 L1333 547 C1390 871 1235 1042 962 1042 C855 1042 710 994 643 866 L671 1022 L260 1022 L223 813 L383 813 Z M1344 1434 L1126 1434 L958 1305 L834 1434 L636 1434 L866 1143 L1012 1143 L1344 1434 Z " />
<glyph glyph-name="napostrophe" unicode="&#x149;" horiz-adv-x="1647" d="M161 1032 L392 1032 L652 1434 L383 1434 L161 1032 Z M553 813 L446 209 L286 209 L250 0 L821 0 L857 209 L697 209 L757 547 C788 723 890 833 1055 833 C1219 833 1283 723 1252 547 L1156 0 L1567 0 L1603 209 L1443 209 L1503 547 C1560 871 1405 1042 1132 1042 C1025 1042 880 994 813 866 L841 1022 L430 1022 L393 813 L553 813 Z " />
<glyph glyph-name="Eng" unicode="&#x14a;" horiz-adv-x="1777" d="M512 -206 C529 -352 634 -532 945 -532 C1282 -532 1451 -369 1508 -48 L1730 1208 L1890 1208 L1929 1434 L1339 1434 L1300 1208 L1459 1208 L1312 375 L823 1434 L352 1434 L313 1208 L472 1208 L299 226 L139 226 L100 0 L690 0 L729 226 L570 226 L717 1059 L1206 0 L1246 0 L1238 -48 C1207 -224 1133 -306 965 -306 C822 -306 778 -216 761 -136 L512 -206 Z " />
<glyph glyph-name="eng" unicode="&#x14b;" horiz-adv-x="1336" d="M1082 547 L986 0 C955 -175 925 -323 793 -323 C751 -323 707 -317 654 -296 L554 -485 C629 -524 717 -532 776 -532 C1102 -532 1175 -351 1237 0 L1333 547 C1390 871 1235 1042 962 1042 C855 1042 710 994 643 866 L671 1022 L260 1022 L223 813 L383 813 L276 209 L116 209 L80 0 L651 0 L687 209 L527 209 L587 547 C618 723 720 833 885 833 C1049 833 1113 723 1082 547 L1082 547 Z " />
<glyph glyph-name="Omacron" unicode="&#x14c;" horiz-adv-x="1678" d="M1097 1464 C605 1464 277 1178 203 717 C135 295 371 -30 833 -30 C1325 -30 1653 256 1727 717 C1795 1139 1559 1464 1097 1464 L1097 1464 Z M477 717 C526 997 706 1238 1057 1238 C1408 1238 1502 997 1453 717 C1404 437 1224 196 873 196 C522 196 428 437 477 717 L477 717 Z M721 1536 L1515 1536 L1548 1725 L754 1725 L721 1536 Z " />
<glyph glyph-name="omacron" unicode="&#x14d;" horiz-adv-x="1254" d="M1287 511 C1333 815 1147 1042 810 1042 C462 1042 200 863 147 511 C101 209 285 -20 623 -20 C970 -20 1233 157 1287 511 L1287 511 Z M1030 511 C1000 343 879 189 660 189 C441 189 374 343 404 511 C433 679 554 833 773 833 C992 833 1059 679 1030 511 L1030 511 Z M449 1245 L1243 1245 L1276 1434 L482 1434 L449 1245 Z " />
<glyph glyph-name="Obreve" unicode="&#x14e;" horiz-adv-x="1678" d="M1097 1464 C605 1464 277 1178 203 717 C135 295 371 -30 833 -30 C1325 -30 1653 256 1727 717 C1795 1139 1559 1464 1097 1464 L1097 1464 Z M477 717 C526 997 706 1238 1057 1238 C1408 1238 1502 997 1453 717 C1404 437 1224 196 873 196 C522 196 428 437 477 717 L477 717 Z M1118 1536 C1376 1536 1475 1669 1525 1782 L1333 1782 C1299 1723 1239 1690 1145 1690 C1051 1690 1003 1723 979 1782 L797 1782 C813 1689 890 1536 1118 1536 L1118 1536 Z " />
<glyph glyph-name="obreve" unicode="&#x14f;" horiz-adv-x="1254" d="M1287 511 C1333 815 1147 1042 810 1042 C462 1042 200 863 147 511 C101 209 285 -20 623 -20 C970 -20 1233 157 1287 511 L1287 511 Z M1030 511 C1000 343 879 189 660 189 C441 189 374 343 404 511 C433 679 554 833 773 833 C992 833 1059 679 1030 511 L1030 511 Z M835 1188 C1093 1188 1192 1321 1242 1434 L1050 1434 C1016 1375 956 1342 862 1342 C768 1342 720 1375 696 1434 L514 1434 C530 1341 607 1188 835 1188 L835 1188 Z " />
<glyph glyph-name="Ohungarumlaut" unicode="&#x150;" horiz-adv-x="1678" d="M1097 1464 C605 1464 277 1178 203 717 C135 295 371 -30 833 -30 C1325 -30 1653 256 1727 717 C1795 1139 1559 1464 1097 1464 L1097 1464 Z M477 717 C526 997 706 1238 1057 1238 C1408 1238 1502 997 1453 717 C1404 437 1224 196 873 196 C522 196 428 437 477 717 L477 717 Z M844 1536 L1035 1536 L1244 1878 L995 1878 L844 1536 Z M1168 1536 L1359 1536 L1568 1878 L1319 1878 L1168 1536 Z " />
<glyph glyph-name="ohungarumlaut" unicode="&#x151;" horiz-adv-x="1256" d="M1287 511 C1333 815 1147 1042 810 1042 C462 1042 200 863 147 511 C101 209 285 -20 623 -20 C970 -20 1233 157 1287 511 L1287 511 Z M1030 511 C1000 343 879 189 660 189 C441 189 374 343 404 511 C433 679 554 833 773 833 C992 833 1059 679 1030 511 L1030 511 Z M578 1173 L769 1173 L978 1515 L729 1515 L578 1173 Z M902 1173 L1093 1173 L1302 1515 L1053 1515 L902 1173 Z " />
<glyph glyph-name="OE" unicode="&#x152;" horiz-adv-x="2210" d="M2130 0 L2197 381 L1927 381 L1899 226 L1372 226 L1441 618 L1998 618 L2038 844 L1481 844 L1546 1208 L2063 1208 L2035 1053 L2305 1053 L2372 1434 L1315 1434 C1245 1452 1164 1464 1077 1464 C585 1464 257 1178 183 717 C115 295 351 -30 813 -30 C906 -30 994 -20 1075 0 L2130 0 Z M853 196 C502 196 408 437 457 717 C506 997 686 1238 1037 1238 C1134 1238 1212 1219 1272 1187 L1107 248 C1035 215 951 196 853 196 L853 196 Z " />
<glyph glyph-name="oe" unicode="&#x153;" horiz-adv-x="2077" d="M1514 189 C1310 188 1272 341 1284 413 L2093 413 C2175 821 1976 1042 1644 1042 C1457 1042 1308 981 1203 877 C1121 980 986 1042 810 1042 C462 1042 200 863 147 511 C101 209 285 -20 623 -20 C817 -20 986 35 1105 147 C1182 43 1312 -20 1497 -20 C1687 -20 1839 24 1982 124 L1851 286 C1771 240 1666 190 1514 189 L1514 189 Z M1030 511 C1000 343 879 189 660 189 C441 189 374 343 404 511 C433 679 554 833 773 833 C992 833 1059 679 1030 511 L1030 511 Z M1319 610 C1332 684 1421 833 1627 833 C1833 833 1870 684 1857 610 L1319 610 Z " />
<glyph glyph-name="Racute" unicode="&#x154;" horiz-adv-x="1518" d="M873 1536 L1093 1536 L1462 1846 L1179 1846 L873 1536 Z M690 0 L729 226 L569 226 L623 530 L889 530 L1101 0 L1425 0 L1464 226 L1303 226 L1171 550 C1360 602 1538 712 1578 982 C1619 1259 1489 1434 1119 1434 L352 1434 L313 1208 L473 1208 L299 226 L139 226 L100 0 L690 0 Z M743 1208 L1080 1208 C1268 1208 1334 1140 1306 982 C1278 824 1188 756 1000 756 L663 756 L743 1208 Z " />
<glyph glyph-name="racute" unicode="&#x155;" horiz-adv-x="1020" d="M674 1124 L894 1124 L1262 1434 L979 1434 L674 1124 Z M1170 1001 C1113 1029 1043 1042 962 1042 C855 1042 710 994 643 866 L671 1022 L260 1022 L223 813 L383 813 L276 209 L116 209 L80 0 L651 0 L687 209 L527 209 L587 547 C618 723 710 833 885 833 C942 833 986 822 1019 800 L1170 1001 Z " />
<glyph glyph-name="Rcommaaccent" unicode="&#x156;" horiz-adv-x="1518" d="M394 -532 L625 -532 L885 -130 L616 -130 L394 -532 Z M690 0 L729 226 L569 226 L623 530 L889 530 L1101 0 L1425 0 L1464 226 L1303 226 L1171 550 C1360 602 1538 712 1578 982 C1619 1259 1489 1434 1119 1434 L352 1434 L313 1208 L473 1208 L299 226 L139 226 L100 0 L690 0 Z M743 1208 L1080 1208 C1268 1208 1334 1140 1306 982 C1278 824 1188 756 1000 756 L663 756 L743 1208 Z " />
<glyph glyph-name="rcommaaccent" unicode="&#x157;" horiz-adv-x="1004" d="M-7 -532 L223 -532 L483 -130 L214 -130 L-7 -532 Z M1170 1001 C1113 1029 1043 1042 962 1042 C855 1042 710 994 643 866 L671 1022 L260 1022 L223 813 L383 813 L276 209 L116 209 L80 0 L651 0 L687 209 L527 209 L587 547 C618 723 710 833 885 833 C942 833 986 822 1019 800 L1170 1001 Z " />
<glyph glyph-name="Rcaron" unicode="&#x158;" horiz-adv-x="1518" d="M1381 1827 L1163 1827 L995 1698 L871 1827 L673 1827 L903 1536 L1049 1536 L1381 1827 Z M690 0 L729 226 L569 226 L623 530 L889 530 L1101 0 L1425 0 L1464 226 L1303 226 L1171 550 C1360 602 1538 712 1578 982 C1619 1259 1489 1434 1119 1434 L352 1434 L313 1208 L473 1208 L299 226 L139 226 L100 0 L690 0 Z M743 1208 L1080 1208 C1268 1208 1334 1140 1306 982 C1278 824 1188 756 1000 756 L663 756 L743 1208 Z " />
<glyph glyph-name="rcaron" unicode="&#x159;" horiz-adv-x="964" d="M1170 1001 C1113 1029 1043 1042 962 1042 C855 1042 710 994 643 866 L671 1022 L260 1022 L223 813 L383 813 L276 209 L116 209 L80 0 L651 0 L687 209 L527 209 L587 547 C618 723 710 833 885 833 C942 833 986 822 1019 800 L1170 1001 Z M1173 1434 L955 1434 L787 1305 L663 1434 L465 1434 L695 1143 L841 1143 L1173 1434 Z " />
<glyph glyph-name="Sacute" unicode="&#x15a;" horiz-adv-x="1374" d="M834 1536 L1054 1536 L1423 1846 L1140 1846 L834 1536 Z M1368 1053 L1422 1362 C1422 1362 1200 1464 917 1464 C542 1464 358 1303 322 1071 C293 858 413 698 771 621 C993 573 1070 501 1051 392 C1025 249 924 196 737 196 C621 196 521 215 435 246 L463 408 L193 408 L144 126 C274 24 460 -30 707 -30 C1024 -30 1275 72 1323 392 C1359 630 1211 780 861 856 C663 900 574 953 594 1071 C615 1188 725 1238 887 1238 C981 1238 1060 1230 1127 1212 L1098 1053 L1368 1053 Z " />
<glyph glyph-name="sacute" unicode="&#x15b;" horiz-adv-x="1050" d="M593 1124 L813 1124 L1181 1434 L898 1434 L593 1124 Z M389 319 L138 319 L97 90 C200 18 354 -20 528 -20 C808 -20 991 62 1021 290 C1049 504 890 571 645 623 C526 648 452 675 463 740 C474 803 532 833 649 833 C702 833 760 828 814 818 L795 712 L1046 712 L1092 973 C1092 973 914 1042 678 1042 C370 1042 235 914 212 740 C189 568 303 466 563 412 C693 385 783 373 770 300 C758 228 693 189 558 189 C490 189 427 197 370 211 L389 319 Z " />
<glyph glyph-name="Scircumflex" unicode="&#x15c;" horiz-adv-x="1374" d="M1066 1827 L920 1827 L587 1536 L795 1536 L964 1665 L1087 1536 L1295 1536 L1066 1827 Z M1368 1053 L1422 1362 C1422 1362 1200 1464 917 1464 C542 1464 358 1303 322 1071 C293 858 413 698 771 621 C993 573 1070 501 1051 392 C1025 249 924 196 737 196 C621 196 521 215 435 246 L463 408 L193 408 L144 126 C274 24 460 -30 707 -30 C1024 -30 1275 72 1323 392 C1359 630 1211 780 861 856 C663 900 574 953 594 1071 C615 1188 725 1238 887 1238 C981 1238 1060 1230 1127 1212 L1098 1053 L1368 1053 Z " />
<glyph glyph-name="scircumflex" unicode="&#x15d;" horiz-adv-x="1050" d="M835 1434 L689 1434 L357 1143 L575 1143 L744 1272 L867 1143 L1065 1143 L835 1434 Z M389 319 L138 319 L97 90 C200 18 354 -20 528 -20 C808 -20 991 62 1021 290 C1049 504 890 571 645 623 C526 648 452 675 463 740 C474 803 532 833 649 833 C702 833 760 828 814 818 L795 712 L1046 712 L1092 973 C1092 973 914 1042 678 1042 C370 1042 235 914 212 740 C189 568 303 466 563 412 C693 385 783 373 770 300 C758 228 693 189 558 189 C490 189 427 197 370 211 L389 319 Z " />
<glyph glyph-name="Scedilla" unicode="&#x15e;" horiz-adv-x="1374" d="M1368 1053 L1422 1362 C1422 1362 1200 1464 917 1464 C542 1464 358 1303 322 1071 C293 858 413 698 771 621 C993 573 1070 501 1051 392 C1025 249 924 196 737 196 C621 196 521 215 435 246 L463 408 L193 408 L144 126 C257 37 412 -15 614 -27 L508 -240 C644 -219 772 -209 746 -296 C715 -394 536 -366 472 -342 L407 -459 C579 -532 849 -521 898 -303 C931 -158 819 -114 723 -112 L764 -28 C1054 -16 1278 91 1323 392 C1359 630 1211 780 861 856 C663 900 574 953 594 1071 C615 1188 725 1238 887 1238 C981 1238 1060 1230 1127 1212 L1098 1053 L1368 1053 Z " />
<glyph glyph-name="scedilla" unicode="&#x15f;" horiz-adv-x="1050" d="M389 319 L138 319 L97 90 C181 31 299 -5 435 -16 L324 -240 C460 -219 588 -209 562 -296 C531 -394 352 -366 288 -342 L223 -459 C395 -532 665 -521 714 -303 C747 -158 635 -114 539 -112 L585 -18 C833 -7 993 78 1021 290 C1049 504 890 571 645 623 C526 648 452 675 463 740 C474 803 532 833 649 833 C702 833 760 828 814 818 L795 712 L1046 712 L1092 973 C1092 973 914 1042 678 1042 C370 1042 235 914 212 740 C189 568 303 466 563 412 C693 385 783 373 770 300 C758 228 693 189 558 189 C490 189 427 197 370 211 L389 319 Z " />
<glyph glyph-name="Scaron" unicode="&#x160;" horiz-adv-x="1374" d="M1346 1827 L1138 1827 L969 1698 L846 1827 L638 1827 L867 1536 L1013 1536 L1346 1827 Z M1368 1053 L1422 1362 C1422 1362 1200 1464 917 1464 C542 1464 358 1303 322 1071 C293 858 413 698 771 621 C993 573 1070 501 1051 392 C1025 249 924 196 737 196 C621 196 521 215 435 246 L463 408 L193 408 L144 126 C274 24 460 -30 707 -30 C1024 -30 1275 72 1323 392 C1359 630 1211 780 861 856 C663 900 574 953 594 1071 C615 1188 725 1238 887 1238 C981 1238 1060 1230 1127 1212 L1098 1053 L1368 1053 Z " />
<glyph glyph-name="scaron" unicode="&#x161;" horiz-adv-x="1053" d="M637 1143 L783 1143 L1115 1434 L897 1434 L728 1305 L605 1434 L407 1434 L637 1143 Z M389 319 L138 319 L97 90 C200 18 354 -20 528 -20 C808 -20 991 62 1021 290 C1049 504 890 571 645 623 C526 648 452 675 463 740 C474 803 532 833 649 833 C702 833 760 828 814 818 L795 712 L1046 712 L1092 973 C1092 973 914 1042 678 1042 C370 1042 235 914 212 740 C189 568 303 466 563 412 C693 385 783 373 770 300 C758 228 693 189 558 189 C490 189 427 197 370 211 L389 319 Z " />
<glyph glyph-name="Tcommaaccent" unicode="&#x162;" horiz-adv-x="1508" d="M373 -532 L604 -532 L864 -130 L595 -130 L373 -532 Z M1102 1208 L1351 1208 L1323 1053 L1593 1053 L1660 1434 L352 1434 L285 1053 L555 1053 L583 1208 L832 1208 L658 226 L498 226 L459 0 L1049 0 L1088 226 L928 226 L1102 1208 Z " />
<glyph glyph-name="tcommaaccent" unicode="&#x163;" horiz-adv-x="854" d="M176 -532 L407 -532 L667 -130 L398 -130 L176 -532 Z M169 813 L366 813 L297 421 C244 119 349 -20 587 -20 C676 -20 770 -3 821 18 L786 208 C748 198 704 189 654 189 C521 189 526 295 553 451 L617 813 L909 813 L946 1022 L654 1022 L706 1321 L455 1321 L403 1022 L206 1022 L169 813 Z " />
<glyph glyph-name="Tcaron" unicode="&#x164;" horiz-adv-x="1508" d="M1102 1208 L1351 1208 L1323 1053 L1593 1053 L1660 1434 L352 1434 L285 1053 L555 1053 L583 1208 L832 1208 L658 226 L498 226 L459 0 L1049 0 L1088 226 L928 226 L1102 1208 Z M1421 1827 L1203 1827 L1035 1698 L911 1827 L713 1827 L943 1536 L1089 1536 L1421 1827 Z " />
<glyph glyph-name="tcaron" unicode="&#x165;" horiz-adv-x="1252" d="M965 1054 L1196 1054 L1407 1516 L1138 1516 L965 1054 Z M183 813 L380 813 L311 421 C258 119 363 -20 601 -20 C690 -20 784 -3 835 18 L800 208 C762 198 718 189 668 189 C535 189 540 295 567 451 L631 813 L923 813 L960 1022 L668 1022 L720 1321 L469 1321 L417 1022 L220 1022 L183 813 Z " />
<glyph glyph-name="Tbar" unicode="&#x166;" horiz-adv-x="1508" d="M438 696 L741 696 L658 226 L498 226 L459 0 L1049 0 L1088 226 L928 226 L1011 696 L1314 696 L1354 922 L1051 922 L1102 1208 L1351 1208 L1323 1053 L1593 1053 L1660 1434 L352 1434 L285 1053 L555 1053 L583 1208 L832 1208 L781 922 L478 922 L438 696 Z " />
<glyph glyph-name="tbar" unicode="&#x167;" horiz-adv-x="868" d="M183 813 L380 813 L353 661 L156 661 L119 452 L316 452 L311 421 C258 119 363 -20 601 -20 C690 -20 784 -3 835 18 L800 208 C762 198 718 189 668 189 C535 189 540 295 567 451 L567 452 L859 452 L896 661 L604 661 L631 813 L923 813 L960 1022 L668 1022 L720 1321 L469 1321 L417 1022 L220 1022 L183 813 Z " />
<glyph glyph-name="Utilde" unicode="&#x168;" horiz-adv-x="1775" d="M1728 1208 L1888 1208 L1927 1434 L1337 1434 L1298 1208 L1457 1208 L1356 631 C1309 364 1190 196 921 196 C652 196 594 364 641 631 L743 1208 L903 1208 L942 1434 L352 1434 L313 1208 L472 1208 L371 631 C298 221 486 -30 881 -30 C1377 -30 1553 221 1626 631 L1728 1208 Z M1131 1600 C1169 1565 1214 1536 1275 1536 C1529 1536 1554 1785 1554 1785 L1369 1785 C1369 1785 1357 1707 1300 1707 C1273 1707 1249 1730 1234 1743 C1196 1778 1151 1807 1090 1807 C836 1807 811 1558 811 1558 L996 1558 C996 1558 1008 1636 1065 1636 C1092 1636 1116 1613 1131 1600 L1131 1600 Z " />
<glyph glyph-name="utilde" unicode="&#x169;" horiz-adv-x="1477" d="M1069 475 C1038 299 936 189 771 189 C607 189 543 299 574 475 L671 1022 L260 1022 L223 813 L383 813 L323 475 C266 151 421 -20 694 -20 C801 -20 946 28 1013 156 L986 0 L1397 0 L1433 209 L1273 209 L1417 1022 L1006 1022 L969 813 L1129 813 L1069 475 Z M916 1247 C954 1212 999 1183 1060 1183 C1314 1183 1339 1432 1339 1432 L1154 1432 C1154 1432 1142 1354 1085 1354 C1058 1354 1034 1377 1019 1390 C981 1425 936 1454 875 1454 C621 1454 596 1205 596 1205 L781 1205 C781 1205 793 1283 850 1283 C877 1283 901 1260 916 1247 L916 1247 Z " />
<glyph glyph-name="Umacron" unicode="&#x16a;" horiz-adv-x="1775" d="M760 1536 L1554 1536 L1588 1725 L794 1725 L760 1536 Z M1728 1208 L1888 1208 L1927 1434 L1337 1434 L1298 1208 L1457 1208 L1356 631 C1309 364 1190 196 921 196 C652 196 594 364 641 631 L743 1208 L903 1208 L942 1434 L352 1434 L313 1208 L472 1208 L371 631 C298 221 486 -30 881 -30 C1377 -30 1553 221 1626 631 L1728 1208 Z " />
<glyph glyph-name="umacron" unicode="&#x16b;" horiz-adv-x="1477" d="M560 1245 L1354 1245 L1387 1434 L593 1434 L560 1245 Z M1069 475 C1038 299 936 189 771 189 C607 189 543 299 574 475 L671 1022 L260 1022 L223 813 L383 813 L323 475 C266 151 421 -20 694 -20 C801 -20 946 28 1013 156 L986 0 L1397 0 L1433 209 L1273 209 L1417 1022 L1006 1022 L969 813 L1129 813 L1069 475 Z " />
<glyph glyph-name="Ubreve" unicode="&#x16c;" horiz-adv-x="1775" d="M1728 1208 L1888 1208 L1927 1434 L1337 1434 L1298 1208 L1457 1208 L1356 631 C1309 364 1190 196 921 196 C652 196 594 364 641 631 L743 1208 L903 1208 L942 1434 L352 1434 L313 1208 L472 1208 L371 631 C298 221 486 -30 881 -30 C1377 -30 1553 221 1626 631 L1728 1208 Z M1157 1536 C1415 1536 1514 1669 1564 1782 L1372 1782 C1338 1723 1278 1690 1184 1690 C1090 1690 1042 1723 1018 1782 L836 1782 C852 1689 929 1536 1157 1536 L1157 1536 Z " />
<glyph glyph-name="ubreve" unicode="&#x16d;" horiz-adv-x="1477" d="M1069 475 C1038 299 936 189 771 189 C607 189 543 299 574 475 L671 1022 L260 1022 L223 813 L383 813 L323 475 C266 151 421 -20 694 -20 C801 -20 946 28 1013 156 L986 0 L1397 0 L1433 209 L1273 209 L1417 1022 L1006 1022 L969 813 L1129 813 L1069 475 Z M944 1188 C1202 1188 1301 1321 1351 1434 L1159 1434 C1125 1375 1065 1342 971 1342 C877 1342 829 1375 805 1434 L623 1434 C639 1341 716 1188 944 1188 L944 1188 Z " />
<glyph glyph-name="Uring" unicode="&#x16e;" horiz-adv-x="1775" d="M1728 1208 L1888 1208 L1927 1434 L1337 1434 L1298 1208 L1457 1208 L1356 631 C1309 364 1190 196 921 196 C652 196 594 364 641 631 L743 1208 L903 1208 L942 1434 L352 1434 L313 1208 L472 1208 L371 631 C298 221 486 -30 881 -30 C1377 -30 1553 221 1626 631 L1728 1208 Z M970 1763 C948 1638 1038 1536 1163 1536 C1298 1536 1402 1638 1424 1763 C1446 1888 1356 1990 1231 1990 C1096 1990 992 1888 970 1763 L970 1763 Z M1119 1763 C1126 1806 1157 1841 1210 1841 C1253 1841 1282 1806 1275 1763 C1267 1720 1236 1685 1183 1685 C1140 1685 1111 1720 1119 1763 L1119 1763 Z " />
<glyph glyph-name="uring" unicode="&#x16f;" horiz-adv-x="1477" d="M1069 475 C1038 299 936 189 771 189 C607 189 543 299 574 475 L671 1022 L260 1022 L223 813 L383 813 L323 475 C266 151 421 -20 694 -20 C801 -20 946 28 1013 156 L986 0 L1397 0 L1433 209 L1273 209 L1417 1022 L1006 1022 L969 813 L1129 813 L1069 475 Z M753 1390 C731 1265 821 1163 946 1163 C1081 1163 1185 1265 1207 1390 C1229 1515 1139 1617 1014 1617 C879 1617 775 1515 753 1390 L753 1390 Z M902 1390 C909 1433 940 1468 993 1468 C1036 1468 1065 1433 1058 1390 C1050 1347 1019 1312 966 1312 C923 1312 894 1347 902 1390 L902 1390 Z " />
<glyph glyph-name="Uhungarumlaut" unicode="&#x170;" horiz-adv-x="1775" d="M873 1536 L1064 1536 L1274 1878 L1025 1878 L873 1536 Z M1197 1536 L1388 1536 L1598 1878 L1349 1878 L1197 1536 Z M1728 1208 L1888 1208 L1927 1434 L1337 1434 L1298 1208 L1457 1208 L1356 631 C1309 364 1190 196 921 196 C652 196 594 364 641 631 L743 1208 L903 1208 L942 1434 L352 1434 L313 1208 L472 1208 L371 631 C298 221 486 -30 881 -30 C1377 -30 1553 221 1626 631 L1728 1208 Z " />
<glyph glyph-name="uhungarumlaut" unicode="&#x171;" horiz-adv-x="1477" d="M660 1174 L851 1174 L1060 1516 L811 1516 L660 1174 Z M984 1174 L1175 1174 L1384 1516 L1135 1516 L984 1174 Z M1069 475 C1038 299 936 189 771 189 C607 189 543 299 574 475 L671 1022 L260 1022 L223 813 L383 813 L323 475 C266 151 421 -20 694 -20 C801 -20 946 28 1013 156 L986 0 L1397 0 L1433 209 L1273 209 L1417 1022 L1006 1022 L969 813 L1129 813 L1069 475 Z " />
<glyph glyph-name="Uogonek" unicode="&#x172;" horiz-adv-x="1775" d="M1728 1208 L1888 1208 L1927 1434 L1337 1434 L1298 1208 L1457 1208 L1356 631 C1309 364 1190 196 921 196 C652 196 594 364 641 631 L743 1208 L903 1208 L942 1434 L352 1434 L313 1208 L472 1208 L371 631 C298 221 486 -30 881 -30 L887 -30 C842 -57 790 -108 780 -197 C753 -426 1013 -458 1114 -458 L1150 -251 C1150 -251 968 -251 988 -141 C1004 -49 1105 -11 1134 -2 C1441 73 1567 300 1626 631 L1728 1208 Z " />
<glyph glyph-name="uogonek" unicode="&#x173;" horiz-adv-x="1529" d="M1069 475 C1038 299 936 189 771 189 C607 189 543 299 574 475 L671 1022 L260 1022 L223 813 L383 813 L323 475 C266 151 421 -20 694 -20 C801 -20 946 28 1013 156 L986 0 L1213 0 C1206 -1 1052 -36 1034 -197 C1007 -426 1267 -458 1368 -458 L1404 -251 C1404 -251 1222 -251 1242 -141 C1261 -34 1397 0 1397 0 L1433 209 L1273 209 L1417 1022 L1006 1022 L969 813 L1129 813 L1069 475 Z " />
<glyph glyph-name="Wcircumflex" unicode="&#x174;" horiz-adv-x="2208" d="M767 452 L686 1208 L843 1208 L882 1434 L292 1434 L253 1208 L408 1208 L567 0 L827 0 L1296 1062 L1391 0 L1651 0 L2235 1208 L2381 1208 L2420 1434 L1830 1434 L1791 1208 L1942 1208 L1593 452 L1500 1434 L1206 1434 L767 452 Z M1496 1827 L1350 1827 L1018 1536 L1236 1536 L1405 1665 L1528 1536 L1726 1536 L1496 1827 Z " />
<glyph glyph-name="wcircumflex" unicode="&#x175;" horiz-adv-x="1896" d="M1959 813 L1996 1022 L1425 1022 L1388 813 L1538 813 L1316 321 L1249 1022 L995 1022 L680 321 L631 813 L794 813 L831 1022 L260 1022 L223 813 L382 813 L501 0 L767 0 L1066 671 L1129 0 L1395 0 L1799 813 L1959 813 Z M1255 1434 L1109 1434 L777 1143 L995 1143 L1164 1272 L1287 1143 L1485 1143 L1255 1434 Z " />
<glyph glyph-name="Ycircumflex" unicode="&#x176;" horiz-adv-x="1546" d="M739 548 L682 226 L522 226 L483 0 L1073 0 L1112 226 L952 226 L1009 547 L1575 1208 L1719 1208 L1758 1434 L1168 1434 L1129 1208 L1277 1208 L904 763 L688 1208 L843 1208 L882 1434 L292 1434 L253 1208 L407 1208 L739 548 Z M1156 1827 L1010 1827 L678 1536 L896 1536 L1065 1665 L1188 1536 L1386 1536 L1156 1827 Z " />
<glyph glyph-name="ycircumflex" unicode="&#x177;" horiz-adv-x="1399" d="M1316 813 L1462 813 L1499 1022 L928 1022 L891 813 L1045 813 L746 295 L629 813 L784 813 L821 1022 L260 1022 L223 813 L378 813 L583 0 L469 -191 C419 -268 374 -323 259 -323 L137 -323 L100 -532 L222 -532 C488 -532 564 -420 645 -295 L1316 813 Z M1002 1434 L856 1434 L524 1143 L742 1143 L911 1272 L1034 1143 L1232 1143 L1002 1434 Z " />
<glyph glyph-name="Ydieresis" unicode="&#x178;" horiz-adv-x="1546" d="M739 548 L682 226 L522 226 L483 0 L1073 0 L1112 226 L952 226 L1009 547 L1575 1208 L1719 1208 L1758 1434 L1168 1434 L1129 1208 L1277 1208 L904 763 L688 1208 L843 1208 L882 1434 L292 1434 L253 1208 L407 1208 L739 548 Z M695 1683 C681 1602 736 1536 817 1536 C908 1536 975 1602 989 1683 C1004 1764 949 1830 868 1830 C777 1830 710 1764 695 1683 L695 1683 Z M1139 1683 C1125 1602 1180 1536 1261 1536 C1352 1536 1419 1602 1433 1683 C1448 1764 1393 1830 1312 1830 C1221 1830 1154 1764 1139 1683 L1139 1683 Z " />
<glyph glyph-name="Zacute" unicode="&#x179;" horiz-adv-x="1387" d="M850 1536 L1070 1536 L1439 1846 L1156 1846 L850 1536 Z M1539 1434 L394 1434 L327 1053 L597 1053 L625 1208 L1104 1208 L123 134 L100 0 L1287 0 L1354 381 L1084 381 L1056 226 L535 226 L1516 1300 L1539 1434 Z " />
<glyph glyph-name="zacute" unicode="&#x17a;" horiz-adv-x="1112" d="M647 1124 L867 1124 L1235 1434 L952 1434 L647 1124 Z M231 680 L482 680 L506 813 L788 813 L102 125 L80 0 L1032 0 L1092 342 L841 342 L817 209 L503 209 L1190 897 L1212 1022 L292 1022 L231 680 Z " />
<glyph glyph-name="Zdotaccent" unicode="&#x17b;" horiz-adv-x="1387" d="M1539 1434 L394 1434 L327 1053 L597 1053 L625 1208 L1104 1208 L123 134 L100 0 L1287 0 L1354 381 L1084 381 L1056 226 L535 226 L1516 1300 L1539 1434 Z M846 1683 C832 1602 887 1536 968 1536 C1059 1536 1126 1602 1140 1683 C1155 1764 1100 1830 1019 1830 C928 1830 861 1764 846 1683 L846 1683 Z " />
<glyph glyph-name="zdotaccent" unicode="&#x17c;" horiz-adv-x="1112" d="M231 680 L482 680 L506 813 L788 813 L102 125 L80 0 L1032 0 L1092 342 L841 342 L817 209 L503 209 L1190 897 L1212 1022 L292 1022 L231 680 Z M647 1327 C633 1246 688 1180 769 1180 C860 1180 927 1246 941 1327 C956 1408 901 1474 820 1474 C729 1474 662 1408 647 1327 L647 1327 Z " />
<glyph glyph-name="Zcaron" unicode="&#x17d;" horiz-adv-x="1387" d="M1539 1434 L394 1434 L327 1053 L597 1053 L625 1208 L1104 1208 L123 134 L100 0 L1287 0 L1354 381 L1084 381 L1056 226 L535 226 L1516 1300 L1539 1434 Z M889 1536 L1035 1536 L1367 1827 L1149 1827 L980 1698 L857 1827 L659 1827 L889 1536 Z " />
<glyph glyph-name="zcaron" unicode="&#x17e;" horiz-adv-x="1112" d="M231 680 L482 680 L506 813 L788 813 L102 125 L80 0 L1032 0 L1092 342 L841 342 L817 209 L503 209 L1190 897 L1212 1022 L292 1022 L231 680 Z M1166 1434 L948 1434 L780 1305 L656 1434 L458 1434 L688 1143 L834 1143 L1166 1434 Z " />
<glyph glyph-name="longs" unicode="&#x17f;" horiz-adv-x="875" d="M900 1327 C944 1327 989 1318 1029 1306 L1129 1495 C1061 1524 968 1536 897 1536 C578 1536 494 1306 441 1022 L297 209 L137 209 L101 0 L672 0 L708 209 L549 209 L692 1022 C725 1206 756 1327 900 1327 L900 1327 Z " />
<glyph glyph-name="florin" unicode="&#x192;" horiz-adv-x="1102" d="M805 795 L1048 795 L1131 1022 L888 1022 L911 1086 C928 1129 952 1208 1048 1208 L1234 1208 L1304 1434 L1093 1434 C788 1434 702 1216 663 1114 L630 1022 L393 1022 L310 795 L545 795 L189 -184 C172 -227 149 -306 53 -306 L-132 -306 L-203 -532 L7 -532 C312 -532 398 -314 437 -212 L805 795 Z " />
<glyph glyph-name="Ohorn" unicode="&#x1a0;" horiz-adv-x="1712" d="M1097 1464 C605 1464 277 1178 203 717 C135 295 371 -30 833 -30 C1325 -30 1653 256 1727 717 C1758 912 1724 1087 1633 1218 C1752 1267 1873 1367 1908 1568 L1639 1568 C1611 1411 1469 1396 1423 1396 C1332 1440 1223 1464 1097 1464 L1097 1464 Z M477 717 C526 997 706 1238 1057 1238 C1408 1238 1502 997 1453 717 C1404 437 1224 196 873 196 C522 196 428 437 477 717 L477 717 Z " />
<glyph glyph-name="ohorn" unicode="&#x1a1;" horiz-adv-x="1321" d="M1287 511 C1304 627 1288 732 1242 818 C1365 864 1488 965 1517 1182 L1266 1182 C1243 1050 1171 995 1098 969 C1022 1015 924 1042 810 1042 C462 1042 200 863 147 511 C101 209 285 -20 623 -20 C970 -20 1233 157 1287 511 L1287 511 Z M1030 511 C1000 343 879 189 660 189 C441 189 374 343 404 511 C433 679 554 833 773 833 C992 833 1059 679 1030 511 L1030 511 Z " />
<glyph glyph-name="Uhorn" unicode="&#x1af;" horiz-adv-x="1895" d="M1728 1208 C1800 1228 2023 1295 2076 1597 L1806 1597 C1777 1432 1690 1434 1659 1434 L1337 1434 L1298 1208 L1458 1208 L1356 631 C1309 364 1190 196 921 196 C652 196 594 364 641 631 L743 1208 L903 1208 L942 1434 L352 1434 L313 1208 L472 1208 L371 631 C298 221 486 -30 881 -30 C1377 -30 1553 221 1626 631 L1728 1208 Z " />
<glyph glyph-name="uhorn" unicode="&#x1b0;" horiz-adv-x="1676" d="M1380 813 C1530 813 1753 893 1802 1173 L1563 1173 C1536 1020 1444 1022 1417 1022 L1006 1022 L969 813 L1129 813 L1069 475 C1038 299 936 189 771 189 C607 189 543 299 574 475 L671 1022 L260 1022 L223 813 L383 813 L323 475 C266 151 421 -20 694 -20 C801 -20 946 28 1013 156 L986 0 L1397 0 L1433 209 L1273 209 L1380 813 Z " />
<glyph glyph-name="uni01CD" unicode="&#x1cd;" horiz-adv-x="1645" d="M1217 226 L1058 226 L1019 0 L1605 0 L1644 226 L1488 226 L1182 1434 L706 1434 L667 1208 L827 1208 L229 226 L79 226 L40 0 L630 0 L669 226 L515 226 L627 414 L1171 414 L1217 226 Z M1014 1063 L1117 641 L763 641 L1014 1063 Z M991 1536 L1137 1536 L1469 1827 L1251 1827 L1082 1698 L959 1827 L761 1827 L991 1536 Z " />
<glyph glyph-name="uni01CE" unicode="&#x1ce;" horiz-adv-x="1369" d="M1058 1022 L1026 841 C975 960 859 1042 693 1042 C397 1042 171 853 117 511 C69 209 230 -20 536 -20 C692 -20 820 40 906 159 L878 0 L1289 0 L1325 209 L1166 209 L1272 813 L1433 813 L1469 1022 L1058 1022 Z M726 832 C938 832 998 678 968 511 C939 344 825 190 613 190 C404 190 345 344 374 511 C404 678 517 832 726 832 L726 832 Z M727 1143 L873 1143 L1205 1434 L987 1434 L818 1305 L695 1434 L497 1434 L727 1143 Z " />
<glyph glyph-name="uni01CF" unicode="&#x1cf;" horiz-adv-x="828" d="M1090 1827 L882 1827 L713 1698 L590 1827 L382 1827 L611 1536 L757 1536 L1090 1827 Z M761 1208 L921 1208 L960 1434 L370 1434 L331 1208 L491 1208 L317 226 L157 226 L118 0 L708 0 L747 226 L587 226 L761 1208 Z " />
<glyph glyph-name="uni01D0" unicode="&#x1d0;" horiz-adv-x="789" d="M412 813 L305 209 L145 209 L109 0 L680 0 L716 209 L556 209 L700 1022 L289 1022 L252 813 L412 813 Z M1001 1434 L783 1434 L615 1305 L491 1434 L293 1434 L523 1143 L669 1143 L1001 1434 Z " />
<glyph glyph-name="uni01D1" unicode="&#x1d1;" horiz-adv-x="1678" d="M1097 1464 C605 1464 277 1178 203 717 C135 295 371 -30 833 -30 C1325 -30 1653 256 1727 717 C1795 1139 1559 1464 1097 1464 L1097 1464 Z M477 717 C526 997 706 1238 1057 1238 C1408 1238 1502 997 1453 717 C1404 437 1224 196 873 196 C522 196 428 437 477 717 L477 717 Z M1523 1827 L1305 1827 L1137 1698 L1013 1827 L815 1827 L1045 1536 L1191 1536 L1523 1827 Z " />
<glyph glyph-name="uni01D2" unicode="&#x1d2;" horiz-adv-x="1254" d="M1287 511 C1333 815 1147 1042 810 1042 C462 1042 200 863 147 511 C101 209 285 -20 623 -20 C970 -20 1233 157 1287 511 L1287 511 Z M1030 511 C1000 343 879 189 660 189 C441 189 374 343 404 511 C433 679 554 833 773 833 C992 833 1059 679 1030 511 L1030 511 Z M1233 1434 L1015 1434 L847 1305 L723 1434 L525 1434 L755 1143 L901 1143 L1233 1434 Z " />
<glyph glyph-name="uni01D3" unicode="&#x1d3;" horiz-adv-x="1775" d="M1563 1827 L1355 1827 L1186 1698 L1063 1827 L855 1827 L1084 1536 L1230 1536 L1563 1827 Z M1728 1208 L1888 1208 L1927 1434 L1337 1434 L1298 1208 L1457 1208 L1356 631 C1309 364 1190 196 921 196 C652 196 594 364 641 631 L743 1208 L903 1208 L942 1434 L352 1434 L313 1208 L472 1208 L371 631 C298 221 486 -30 881 -30 C1377 -30 1553 221 1626 631 L1728 1208 Z " />
<glyph glyph-name="uni01D4" unicode="&#x1d4;" horiz-adv-x="1477" d="M1069 475 C1038 299 936 189 771 189 C607 189 543 299 574 475 L671 1022 L260 1022 L223 813 L383 813 L323 475 C266 151 421 -20 694 -20 C801 -20 946 28 1013 156 L986 0 L1397 0 L1433 209 L1273 209 L1417 1022 L1006 1022 L969 813 L1129 813 L1069 475 Z M865 1143 L1011 1143 L1343 1434 L1125 1434 L956 1305 L833 1434 L635 1434 L865 1143 Z " />
<glyph glyph-name="uni01D5" unicode="&#x1d5;" horiz-adv-x="1775" d="M822 1892 L1616 1892 L1649 2081 L855 2081 L822 1892 Z M1728 1208 L1888 1208 L1927 1434 L1337 1434 L1298 1208 L1457 1208 L1356 631 C1309 364 1190 196 921 196 C652 196 594 364 641 631 L743 1208 L903 1208 L942 1434 L352 1434 L313 1208 L472 1208 L371 631 C298 221 486 -30 881 -30 C1377 -30 1553 221 1626 631 L1728 1208 Z M814 1683 C800 1602 855 1536 936 1536 C1027 1536 1094 1602 1108 1683 C1123 1764 1068 1830 987 1830 C896 1830 829 1764 814 1683 L814 1683 Z M1258 1683 C1244 1602 1299 1536 1380 1536 C1471 1536 1538 1602 1552 1683 C1567 1764 1512 1830 1431 1830 C1340 1830 1273 1764 1258 1683 L1258 1683 Z " />
<glyph glyph-name="uni01D6" unicode="&#x1d6;" horiz-adv-x="1477" d="M611 1536 L1405 1536 L1439 1725 L645 1725 L611 1536 Z M1069 475 C1038 299 936 189 771 189 C607 189 543 299 574 475 L671 1022 L260 1022 L223 813 L383 813 L323 475 C266 151 421 -20 694 -20 C801 -20 946 28 1013 156 L986 0 L1397 0 L1433 209 L1273 209 L1417 1022 L1006 1022 L969 813 L1129 813 L1069 475 Z M603 1327 C589 1246 644 1180 725 1180 C816 1180 883 1246 897 1327 C912 1408 857 1474 776 1474 C685 1474 618 1408 603 1327 L603 1327 Z M1047 1327 C1033 1246 1088 1180 1169 1180 C1260 1180 1327 1246 1341 1327 C1356 1408 1301 1474 1220 1474 C1129 1474 1062 1408 1047 1327 L1047 1327 Z " />
<glyph glyph-name="uni01D7" unicode="&#x1d7;" horiz-adv-x="1775" d="M1096 1890 L1316 1890 L1684 2200 L1401 2200 L1096 1890 Z M1728 1208 L1888 1208 L1927 1434 L1337 1434 L1298 1208 L1457 1208 L1356 631 C1309 364 1190 196 921 196 C652 196 594 364 641 631 L743 1208 L903 1208 L942 1434 L352 1434 L313 1208 L472 1208 L371 631 C298 221 486 -30 881 -30 C1377 -30 1553 221 1626 631 L1728 1208 Z M814 1683 C800 1602 855 1536 936 1536 C1027 1536 1094 1602 1108 1683 C1123 1764 1068 1830 987 1830 C896 1830 829 1764 814 1683 L814 1683 Z M1258 1683 C1244 1602 1299 1536 1380 1536 C1471 1536 1538 1602 1552 1683 C1567 1764 1512 1830 1431 1830 C1340 1830 1273 1764 1258 1683 L1258 1683 Z " />
<glyph glyph-name="uni01D8" unicode="&#x1d8;" horiz-adv-x="1477" d="M885 1534 L1105 1534 L1474 1844 L1191 1844 L885 1534 Z M1069 475 C1038 299 936 189 771 189 C607 189 543 299 574 475 L671 1022 L260 1022 L223 813 L383 813 L323 475 C266 151 421 -20 694 -20 C801 -20 946 28 1013 156 L986 0 L1397 0 L1433 209 L1273 209 L1417 1022 L1006 1022 L969 813 L1129 813 L1069 475 Z M603 1327 C589 1246 644 1180 725 1180 C816 1180 883 1246 897 1327 C912 1408 857 1474 776 1474 C685 1474 618 1408 603 1327 L603 1327 Z M1047 1327 C1033 1246 1088 1180 1169 1180 C1260 1180 1327 1246 1341 1327 C1356 1408 1301 1474 1220 1474 C1129 1474 1062 1408 1047 1327 L1047 1327 Z " />
<glyph glyph-name="uni01D9" unicode="&#x1d9;" horiz-adv-x="1775" d="M1728 1208 L1888 1208 L1927 1434 L1337 1434 L1298 1208 L1457 1208 L1356 631 C1309 364 1190 196 921 196 C652 196 594 364 641 631 L743 1208 L903 1208 L942 1434 L352 1434 L313 1208 L472 1208 L371 631 C298 221 486 -30 881 -30 C1377 -30 1553 221 1626 631 L1728 1208 Z M814 1683 C800 1602 855 1536 936 1536 C1027 1536 1094 1602 1108 1683 C1123 1764 1068 1830 987 1830 C896 1830 829 1764 814 1683 L814 1683 Z M1258 1683 C1244 1602 1299 1536 1380 1536 C1471 1536 1538 1602 1552 1683 C1567 1764 1512 1830 1431 1830 C1340 1830 1273 1764 1258 1683 L1258 1683 Z " />
<glyph glyph-name="uni01DA" unicode="&#x1da;" horiz-adv-x="1477" d="M1069 475 C1038 299 936 189 771 189 C607 189 543 299 574 475 L671 1022 L260 1022 L223 813 L383 813 L323 475 C266 151 421 -20 694 -20 C801 -20 946 28 1013 156 L986 0 L1397 0 L1433 209 L1273 209 L1417 1022 L1006 1022 L969 813 L1129 813 L1069 475 Z M603 1327 C589 1246 644 1180 725 1180 C816 1180 883 1246 897 1327 C912 1408 857 1474 776 1474 C685 1474 618 1408 603 1327 L603 1327 Z M1047 1327 C1033 1246 1088 1180 1169 1180 C1260 1180 1327 1246 1341 1327 C1356 1408 1301 1474 1220 1474 C1129 1474 1062 1408 1047 1327 L1047 1327 Z " />
<glyph glyph-name="uni01DB" unicode="&#x1db;" horiz-adv-x="1775" d="M1129 2200 L846 2200 L1106 1890 L1326 1890 L1129 2200 Z M1728 1208 L1888 1208 L1927 1434 L1337 1434 L1298 1208 L1457 1208 L1356 631 C1309 364 1190 196 921 196 C652 196 594 364 641 631 L743 1208 L903 1208 L942 1434 L352 1434 L313 1208 L472 1208 L371 631 C298 221 486 -30 881 -30 C1377 -30 1553 221 1626 631 L1728 1208 Z M814 1683 C800 1602 855 1536 936 1536 C1027 1536 1094 1602 1108 1683 C1123 1764 1068 1830 987 1830 C896 1830 829 1764 814 1683 L814 1683 Z M1258 1683 C1244 1602 1299 1536 1380 1536 C1471 1536 1538 1602 1552 1683 C1567 1764 1512 1830 1431 1830 C1340 1830 1273 1764 1258 1683 L1258 1683 Z " />
<glyph glyph-name="uni01DC" unicode="&#x1dc;" horiz-adv-x="1477" d="M908 1844 L625 1844 L884 1534 L1104 1534 L908 1844 Z M1069 475 C1038 299 936 189 771 189 C607 189 543 299 574 475 L671 1022 L260 1022 L223 813 L383 813 L323 475 C266 151 421 -20 694 -20 C801 -20 946 28 1013 156 L986 0 L1397 0 L1433 209 L1273 209 L1417 1022 L1006 1022 L969 813 L1129 813 L1069 475 Z M603 1327 C589 1246 644 1180 725 1180 C816 1180 883 1246 897 1327 C912 1408 857 1474 776 1474 C685 1474 618 1408 603 1327 L603 1327 Z M1047 1327 C1033 1246 1088 1180 1169 1180 C1260 1180 1327 1246 1341 1327 C1356 1408 1301 1474 1220 1474 C1129 1474 1062 1408 1047 1327 L1047 1327 Z " />
<glyph glyph-name="uni01DE" unicode="&#x1de;" horiz-adv-x="1645" d="M745 1892 L1539 1892 L1572 2081 L778 2081 L745 1892 Z M1217 226 L1058 226 L1019 0 L1605 0 L1644 226 L1488 226 L1182 1434 L706 1434 L667 1208 L827 1208 L229 226 L79 226 L40 0 L630 0 L669 226 L515 226 L627 414 L1171 414 L1217 226 Z M1014 1063 L1117 641 L763 641 L1014 1063 Z M736 1683 C722 1602 777 1536 858 1536 C949 1536 1016 1602 1030 1683 C1045 1764 990 1830 909 1830 C818 1830 751 1764 736 1683 L736 1683 Z M1180 1683 C1166 1602 1221 1536 1302 1536 C1393 1536 1460 1602 1474 1683 C1489 1764 1434 1830 1353 1830 C1262 1830 1195 1764 1180 1683 L1180 1683 Z " />
<glyph glyph-name="uni01DF" unicode="&#x1df;" horiz-adv-x="1369" d="M504 1536 L1298 1536 L1332 1725 L538 1725 L504 1536 Z M1058 1022 L1026 841 C975 960 859 1042 693 1042 C397 1042 171 853 117 511 C69 209 230 -20 536 -20 C692 -20 820 40 906 159 L878 0 L1289 0 L1325 209 L1166 209 L1272 813 L1433 813 L1469 1022 L1058 1022 Z M726 832 C938 832 998 678 968 511 C939 344 825 190 613 190 C404 190 345 344 374 511 C404 678 517 832 726 832 L726 832 Z M495 1327 C481 1246 536 1180 617 1180 C708 1180 775 1246 789 1327 C804 1408 749 1474 668 1474 C577 1474 510 1408 495 1327 L495 1327 Z M939 1327 C925 1246 980 1180 1061 1180 C1152 1180 1219 1246 1233 1327 C1248 1408 1193 1474 1112 1474 C1021 1474 954 1408 939 1327 L939 1327 Z " />
<glyph glyph-name="uni01E0" unicode="&#x1e0;" horiz-adv-x="1645" d="M745 1892 L1539 1892 L1572 2081 L778 2081 L745 1892 Z M1217 226 L1058 226 L1019 0 L1605 0 L1644 226 L1488 226 L1182 1434 L706 1434 L667 1208 L827 1208 L229 226 L79 226 L40 0 L630 0 L669 226 L515 226 L627 414 L1171 414 L1217 226 Z M1014 1063 L1117 641 L763 641 L1014 1063 Z M958 1683 C944 1602 999 1536 1080 1536 C1171 1536 1238 1602 1252 1683 C1267 1764 1212 1830 1131 1830 C1040 1830 973 1764 958 1683 L958 1683 Z " />
<glyph glyph-name="uni01E1" unicode="&#x1e1;" horiz-adv-x="1369" d="M504 1536 L1298 1536 L1332 1725 L538 1725 L504 1536 Z M1058 1022 L1026 841 C975 960 859 1042 693 1042 C397 1042 171 853 117 511 C69 209 230 -20 536 -20 C692 -20 820 40 906 159 L878 0 L1289 0 L1325 209 L1166 209 L1272 813 L1433 813 L1469 1022 L1058 1022 Z M726 832 C938 832 998 678 968 511 C939 344 825 190 613 190 C404 190 345 344 374 511 C404 678 517 832 726 832 L726 832 Z M721 1327 C707 1246 762 1180 843 1180 C934 1180 1001 1246 1015 1327 C1030 1408 975 1474 894 1474 C803 1474 736 1408 721 1327 L721 1327 Z " />
<glyph glyph-name="uni01E2" unicode="&#x1e2;" horiz-adv-x="2210" d="M1285 1536 L2079 1536 L2113 1725 L1319 1725 L1285 1536 Z M1043 0 L2110 0 L2177 381 L1907 381 L1879 226 L1352 226 L1421 618 L1978 618 L2018 844 L1461 844 L1526 1208 L2043 1208 L2015 1053 L2285 1053 L2352 1434 L980 1434 L941 1208 L1091 1208 L271 226 L139 226 L100 0 L690 0 L729 226 L591 226 L728 391 L1111 391 L1043 0 Z M1214 971 L1151 618 L918 618 L1214 971 Z " />
<glyph glyph-name="uni01E3" unicode="&#x1e3;" horiz-adv-x="1928" d="M729 833 C887 833 926 794 903 666 C549 705 171 630 115 317 C73 79 228 -20 450 -20 C612 -20 778 11 939 141 C1013 40 1140 -20 1322 -20 C1512 -20 1678 24 1821 145 L1696 296 C1616 238 1513 190 1359 189 C1155 188 1117 341 1129 413 L1938 413 C2030 821 1861 1042 1509 1042 C1352 1042 1220 996 1118 920 C1066 1004 956 1042 766 1042 C609 1042 443 1007 314 940 L378 761 C485 806 620 833 729 833 L729 833 Z M369 327 C403 520 741 512 874 504 L856 400 C840 292 707 189 527 189 C430 189 350 221 369 327 L369 327 Z M1164 610 C1177 684 1266 833 1472 833 C1678 833 1715 684 1702 610 L1164 610 Z M778 1245 L1572 1245 L1605 1434 L811 1434 L778 1245 Z " />
<glyph glyph-name="uni01E4" unicode="&#x1e4;" horiz-adv-x="1639" d="M873 196 C522 196 428 437 477 717 C526 997 706 1238 1057 1238 C1165 1238 1275 1224 1365 1199 L1339 1053 L1609 1053 L1664 1364 C1664 1364 1400 1464 1097 1464 C605 1464 277 1178 203 717 C135 295 371 -30 833 -30 C1023 -30 1275 4 1448 139 L1481 326 L1482 332 L1637 332 L1670 518 L1514 518 L1568 822 L1003 822 L964 596 L1259 596 L1245 518 L950 518 L917 332 L1212 332 L1201 267 C1129 228 1003 196 873 196 L873 196 Z " />
<glyph glyph-name="uni01E5" unicode="&#x1e5;" horiz-adv-x="1424" d="M1102 1022 L1070 841 C1019 960 903 1042 737 1042 C441 1042 215 853 161 511 C113 209 274 -20 580 -20 C736 -20 864 40 950 159 L922 0 C918 -23 913 -44 908 -64 L649 -64 L619 -234 L818 -234 C750 -302 655 -322 540 -322 C430 -322 291 -292 182 -220 L49 -399 C178 -497 367 -532 503 -532 C760 -532 979 -465 1098 -234 L1302 -234 L1332 -64 L1160 -64 C1165 -43 1169 -22 1173 0 L1316 813 L1476 813 L1513 1022 L1102 1022 Z M770 832 C982 832 1042 678 1012 511 C983 344 869 190 657 190 C448 190 389 344 418 511 C448 678 561 832 770 832 L770 832 Z " />
<glyph glyph-name="Gcaron" unicode="&#x1e6;" horiz-adv-x="1524" d="M1496 1827 L1278 1827 L1110 1698 L986 1827 L788 1827 L1018 1536 L1164 1536 L1496 1827 Z M873 196 C522 196 428 437 477 717 C526 997 706 1238 1057 1238 C1165 1238 1275 1224 1365 1199 L1339 1053 L1609 1053 L1664 1364 C1664 1364 1400 1464 1097 1464 C605 1464 277 1178 203 717 C135 295 371 -30 833 -30 C1023 -30 1275 4 1448 139 L1568 822 L1003 822 L964 596 L1259 596 L1201 267 C1129 228 1003 196 873 196 L873 196 Z " />
<glyph glyph-name="gcaron" unicode="&#x1e7;" horiz-adv-x="1413" d="M1102 1022 L1070 841 C1019 960 903 1042 737 1042 C441 1042 215 853 161 511 C113 209 274 -20 580 -20 C736 -20 864 40 950 159 L922 0 C875 -263 739 -322 540 -322 C430 -322 291 -292 182 -220 L49 -399 C178 -497 367 -532 503 -532 C832 -532 1098 -424 1173 0 L1316 813 L1476 813 L1513 1022 L1102 1022 Z M770 832 C982 832 1042 678 1012 511 C983 344 869 190 657 190 C448 190 389 344 418 511 C448 678 561 832 770 832 L770 832 Z M1232 1434 L1014 1434 L846 1305 L722 1434 L524 1434 L754 1143 L900 1143 L1232 1434 Z " />
<glyph glyph-name="uni01E8" unicode="&#x1e8;" horiz-adv-x="1617" d="M1463 1827 L1245 1827 L1077 1698 L953 1827 L755 1827 L985 1536 L1131 1536 L1463 1827 Z M743 1208 L903 1208 L942 1434 L352 1434 L313 1208 L473 1208 L299 226 L139 226 L100 0 L690 0 L729 226 L569 226 L624 535 L821 677 L1145 0 L1472 0 L1511 226 L1351 226 L1050 841 L1561 1208 L1685 1208 L1724 1434 L1134 1434 L1095 1208 L1204 1208 L676 830 L743 1208 Z " />
<glyph glyph-name="uni01E9" unicode="&#x1e9;" horiz-adv-x="1361" d="M595 592 L758 1516 L347 1516 L310 1307 L470 1307 L276 209 L116 209 L80 0 L651 0 L687 209 L527 209 L548 325 L710 437 L994 0 L1281 0 L1317 209 L1150 209 L911 576 L1256 813 L1405 813 L1442 1022 L871 1022 L834 813 L916 813 L595 592 Z M1361 1826 L1143 1826 L975 1697 L851 1826 L653 1826 L883 1535 L1029 1535 L1361 1826 Z " />
<glyph glyph-name="uni01EA" unicode="&#x1ea;" horiz-adv-x="1678" d="M1097 1464 C605 1464 277 1178 203 717 C135 295 371 -30 833 -30 L837 -30 C792 -57 740 -108 730 -197 C703 -426 963 -458 1064 -458 L1100 -251 C1100 -251 918 -251 938 -141 C954 -50 1054 -12 1084 -2 C1435 79 1666 339 1727 717 C1795 1139 1559 1464 1097 1464 L1097 1464 Z M477 717 C526 997 706 1238 1057 1238 C1408 1238 1502 997 1453 717 C1404 437 1224 196 873 196 C522 196 428 437 477 717 L477 717 Z " />
<glyph glyph-name="uni01EB" unicode="&#x1eb;" horiz-adv-x="1254" d="M1287 511 C1333 815 1147 1042 810 1042 C462 1042 200 863 147 511 C103 222 269 0 579 -18 C530 -42 463 -93 451 -197 C424 -426 684 -458 785 -458 L821 -251 C821 -251 639 -251 659 -141 C676 -43 790 -7 810 -1 C1062 53 1243 224 1287 511 L1287 511 Z M1030 511 C1000 343 879 189 660 189 C441 189 374 343 404 511 C433 679 554 833 773 833 C992 833 1059 679 1030 511 L1030 511 Z " />
<glyph glyph-name="uni01EC" unicode="&#x1ec;" horiz-adv-x="1678" d="M1097 1464 C605 1464 277 1178 203 717 C135 295 371 -30 833 -30 L837 -30 C792 -57 740 -108 730 -197 C703 -426 963 -458 1064 -458 L1100 -251 C1100 -251 918 -251 938 -141 C954 -50 1054 -12 1084 -2 C1435 79 1666 339 1727 717 C1795 1139 1559 1464 1097 1464 L1097 1464 Z M477 717 C526 997 706 1238 1057 1238 C1408 1238 1502 997 1453 717 C1404 437 1224 196 873 196 C522 196 428 437 477 717 L477 717 Z M711 1536 L1505 1536 L1538 1725 L744 1725 L711 1536 Z " />
<glyph glyph-name="uni01ED" unicode="&#x1ed;" horiz-adv-x="1254" d="M1287 511 C1333 815 1147 1042 810 1042 C462 1042 200 863 147 511 C103 222 269 0 579 -18 C530 -42 463 -93 451 -197 C424 -426 684 -458 785 -458 L821 -251 C821 -251 639 -251 659 -141 C676 -43 790 -7 810 -1 C1062 53 1243 224 1287 511 L1287 511 Z M1030 511 C1000 343 879 189 660 189 C441 189 374 343 404 511 C433 679 554 833 773 833 C992 833 1059 679 1030 511 L1030 511 Z M449 1245 L1243 1245 L1276 1434 L482 1434 L449 1245 Z " />
<glyph glyph-name="uni01F0" unicode="&#x1f0;" horiz-adv-x="666" d="M-225 -485 C-150 -524 -62 -532 -3 -532 C323 -532 396 -351 458 0 L638 1022 L227 1022 L190 813 L350 813 L207 0 C176 -175 146 -323 14 -323 C-28 -323 -72 -317 -125 -296 L-225 -485 Z M938 1434 L720 1434 L552 1305 L428 1434 L230 1434 L460 1143 L606 1143 L938 1434 Z " />
<glyph glyph-name="uni01F4" unicode="&#x1f4;" horiz-adv-x="1524" d="M1005 1536 L1225 1536 L1594 1846 L1311 1846 L1005 1536 Z M873 196 C522 196 428 437 477 717 C526 997 706 1238 1057 1238 C1165 1238 1275 1224 1365 1199 L1339 1053 L1609 1053 L1664 1364 C1664 1364 1400 1464 1097 1464 C605 1464 277 1178 203 717 C135 295 371 -30 833 -30 C1023 -30 1275 4 1448 139 L1568 822 L1003 822 L964 596 L1259 596 L1201 267 C1129 228 1003 196 873 196 L873 196 Z " />
<glyph glyph-name="uni01F5" unicode="&#x1f5;" horiz-adv-x="1413" d="M669 1124 L889 1124 L1257 1434 L974 1434 L669 1124 Z M1102 1022 L1070 841 C1019 960 903 1042 737 1042 C441 1042 215 853 161 511 C113 209 274 -20 580 -20 C736 -20 864 40 950 159 L922 0 C875 -263 739 -322 540 -322 C430 -322 291 -292 182 -220 L49 -399 C178 -497 367 -532 503 -532 C832 -532 1098 -424 1173 0 L1316 813 L1476 813 L1513 1022 L1102 1022 Z M770 832 C982 832 1042 678 1012 511 C983 344 869 190 657 190 C448 190 389 344 418 511 C448 678 561 832 770 832 L770 832 Z " />
<glyph glyph-name="uni01F8" unicode="&#x1f8;" horiz-adv-x="1777" d="M1081 1846 L798 1846 L1057 1536 L1277 1536 L1081 1846 Z M299 226 L139 226 L100 0 L690 0 L729 226 L570 226 L717 1059 L1206 0 L1517 0 L1730 1208 L1890 1208 L1929 1434 L1339 1434 L1300 1208 L1459 1208 L1312 375 L823 1434 L352 1434 L313 1208 L472 1208 L299 226 Z " />
<glyph glyph-name="uni01F9" unicode="&#x1f9;" horiz-adv-x="1477" d="M887 1434 L604 1434 L864 1124 L1084 1124 L887 1434 Z M383 813 L276 209 L116 209 L80 0 L651 0 L687 209 L527 209 L587 547 C618 723 720 833 885 833 C1049 833 1113 723 1082 547 L986 0 L1397 0 L1433 209 L1273 209 L1333 547 C1390 871 1235 1042 962 1042 C855 1042 710 994 643 866 L671 1022 L260 1022 L223 813 L383 813 Z " />
<glyph glyph-name="Aringacute" unicode="&#x1fa;" horiz-adv-x="1645" d="M1217 226 L1058 226 L1019 0 L1605 0 L1644 226 L1488 226 L1182 1434 L706 1434 L667 1208 L827 1208 L229 226 L79 226 L40 0 L630 0 L669 226 L515 226 L627 414 L1171 414 L1217 226 Z M1014 1063 L1117 641 L763 641 L1014 1063 Z M883 1762 C863 1637 955 1536 1070 1536 C1215 1536 1314 1627 1336 1762 C1349 1843 1315 1914 1258 1954 L1510 2152 L1227 2152 L977 1932 C927 1892 894 1833 883 1762 L883 1762 Z M1031 1762 C1039 1805 1070 1840 1123 1840 C1176 1840 1195 1805 1187 1762 C1180 1719 1149 1684 1096 1684 C1043 1684 1024 1719 1031 1762 L1031 1762 Z " />
<glyph glyph-name="aringacute" unicode="&#x1fb;" horiz-adv-x="1369" d="M1058 1022 L1026 841 C975 960 859 1042 693 1042 C397 1042 171 853 117 511 C69 209 230 -20 536 -20 C692 -20 820 40 906 159 L878 0 L1289 0 L1325 209 L1166 209 L1272 813 L1433 813 L1469 1022 L1058 1022 Z M726 832 C938 832 998 678 968 511 C939 344 825 190 613 190 C404 190 345 344 374 511 C404 678 517 832 726 832 L726 832 Z M647 1389 C627 1264 719 1163 834 1163 C979 1163 1078 1254 1100 1389 C1113 1470 1079 1541 1022 1581 L1274 1779 L991 1779 L741 1559 C691 1519 658 1460 647 1389 L647 1389 Z M795 1389 C803 1432 834 1467 887 1467 C940 1467 959 1432 951 1389 C944 1346 913 1311 860 1311 C807 1311 788 1346 795 1389 L795 1389 Z " />
<glyph glyph-name="AEacute" unicode="&#x1fc;" horiz-adv-x="2210" d="M1350 1536 L1570 1536 L1939 1846 L1656 1846 L1350 1536 Z M1043 0 L2110 0 L2177 381 L1907 381 L1879 226 L1352 226 L1421 618 L1978 618 L2018 844 L1461 844 L1526 1208 L2043 1208 L2015 1053 L2285 1053 L2352 1434 L980 1434 L941 1208 L1091 1208 L271 226 L139 226 L100 0 L690 0 L729 226 L591 226 L728 391 L1111 391 L1043 0 Z M1214 971 L1151 618 L918 618 L1214 971 Z " />
<glyph glyph-name="aeacute" unicode="&#x1fd;" horiz-adv-x="1928" d="M729 833 C887 833 926 794 903 666 C549 705 171 630 115 317 C73 79 228 -20 450 -20 C612 -20 778 11 939 141 C1013 40 1140 -20 1322 -20 C1512 -20 1678 24 1821 145 L1696 296 C1616 238 1513 190 1359 189 C1155 188 1117 341 1129 413 L1938 413 C2030 821 1861 1042 1509 1042 C1352 1042 1220 996 1118 920 C1066 1004 956 1042 766 1042 C609 1042 443 1007 314 940 L378 761 C485 806 620 833 729 833 L729 833 Z M369 327 C403 520 741 512 874 504 L856 400 C840 292 707 189 527 189 C430 189 350 221 369 327 L369 327 Z M1164 610 C1177 684 1266 833 1472 833 C1678 833 1715 684 1702 610 L1164 610 Z M1058 1124 L1278 1124 L1646 1434 L1363 1434 L1058 1124 Z " />
<glyph glyph-name="Oslashacute" unicode="&#x1fe;" horiz-adv-x="1677" d="M973 1536 L1233 1536 L1601 1846 L1278 1846 L973 1536 Z M1096 1464 C604 1464 276 1178 202 717 C159 450 237 223 417 91 L314 -61 L561 -61 L602 1 C671 -19 748 -30 832 -30 C1324 -30 1652 256 1726 717 C1769 984 1690 1212 1509 1344 L1611 1495 L1364 1495 L1323 1434 C1255 1453 1179 1464 1096 1464 L1096 1464 Z M1452 717 C1403 437 1223 196 872 196 C824 196 781 200 743 209 L1365 1131 C1459 1034 1481 882 1452 717 L1452 717 Z M476 717 C525 997 705 1238 1056 1238 C1102 1238 1144 1233 1182 1225 L561 305 C468 401 447 552 476 717 L476 717 Z " />
<glyph glyph-name="oslashacute" unicode="&#x1ff;" horiz-adv-x="1312" d="M707 1124 L967 1124 L1335 1434 L1012 1434 L707 1124 Z M1308 511 C1336 701 1274 861 1142 954 L1229 1083 L1017 1083 L978 1025 C933 1036 884 1042 831 1042 C483 1042 221 863 168 511 C139 322 200 161 333 68 L246 -61 L457 -61 L496 -3 C541 -14 590 -20 644 -20 C991 -20 1254 157 1308 511 L1308 511 Z M1051 511 C1021 343 900 189 681 189 C662 189 644 190 628 192 L1004 750 C1054 689 1067 602 1051 511 L1051 511 Z M425 511 C454 679 575 833 794 833 C812 833 829 831 846 829 L470 272 C421 333 408 420 425 511 L425 511 Z " />
<glyph glyph-name="uni0200" unicode="&#x200;" horiz-adv-x="1645" d="M791 1846 L508 1846 L767 1536 L987 1536 L791 1846 Z M1139 1846 L856 1846 L1115 1536 L1335 1536 L1139 1846 Z M1217 226 L1058 226 L1019 0 L1605 0 L1644 226 L1488 226 L1182 1434 L706 1434 L667 1208 L827 1208 L229 226 L79 226 L40 0 L630 0 L669 226 L515 226 L627 414 L1171 414 L1217 226 Z M1014 1063 L1117 641 L763 641 L1014 1063 Z " />
<glyph glyph-name="uni0201" unicode="&#x201;" horiz-adv-x="1369" d="M687 1434 L404 1434 L664 1124 L884 1124 L687 1434 Z M1035 1434 L752 1434 L1012 1124 L1232 1124 L1035 1434 Z M1058 1022 L1026 841 C975 960 859 1042 693 1042 C397 1042 171 853 117 511 C69 209 230 -20 536 -20 C692 -20 820 40 906 159 L878 0 L1289 0 L1325 209 L1166 209 L1272 813 L1433 813 L1469 1022 L1058 1022 Z M726 832 C938 832 998 678 968 511 C939 344 825 190 613 190 C404 190 345 344 374 511 C404 678 517 832 726 832 L726 832 Z " />
<glyph glyph-name="uni0202" unicode="&#x202;" horiz-adv-x="1645" d="M1217 226 L1058 226 L1019 0 L1605 0 L1644 226 L1488 226 L1182 1434 L706 1434 L667 1208 L827 1208 L229 226 L79 226 L40 0 L630 0 L669 226 L515 226 L627 414 L1171 414 L1217 226 Z M1014 1063 L1117 641 L763 641 L1014 1063 Z M1106 1782 C848 1782 749 1649 699 1536 L891 1536 C925 1595 985 1628 1079 1628 C1173 1628 1221 1595 1245 1536 L1427 1536 C1411 1629 1334 1782 1106 1782 L1106 1782 Z " />
<glyph glyph-name="uni0203" unicode="&#x203;" horiz-adv-x="1369" d="M1058 1022 L1026 841 C975 960 859 1042 693 1042 C397 1042 171 853 117 511 C69 209 230 -20 536 -20 C692 -20 820 40 906 159 L878 0 L1289 0 L1325 209 L1166 209 L1272 813 L1433 813 L1469 1022 L1058 1022 Z M726 832 C938 832 998 678 968 511 C939 344 825 190 613 190 C404 190 345 344 374 511 C404 678 517 832 726 832 L726 832 Z M907 1434 C649 1434 550 1301 500 1188 L692 1188 C726 1247 786 1280 880 1280 C974 1280 1022 1247 1046 1188 L1228 1188 C1212 1281 1135 1434 907 1434 L907 1434 Z " />
<glyph glyph-name="uni0204" unicode="&#x204;" horiz-adv-x="1427" d="M100 0 L1327 0 L1394 381 L1124 381 L1096 226 L569 226 L638 618 L1195 618 L1235 844 L678 844 L743 1208 L1260 1208 L1232 1053 L1502 1053 L1569 1434 L352 1434 L313 1208 L473 1208 L299 226 L139 226 L100 0 Z M727 1846 L444 1846 L703 1536 L923 1536 L727 1846 Z M1075 1846 L792 1846 L1051 1536 L1271 1536 L1075 1846 Z " />
<glyph glyph-name="uni0205" unicode="&#x205;" horiz-adv-x="1249" d="M686 189 C482 188 444 341 456 413 L1265 413 C1347 821 1148 1042 816 1042 C464 1042 245 825 203 511 C162 208 317 -20 669 -20 C859 -20 1011 24 1154 124 L1023 286 C943 240 838 190 686 189 L686 189 Z M491 610 C504 684 593 833 799 833 C1005 833 1042 684 1029 610 L491 610 Z M583 1434 L310 1434 L570 1124 L780 1124 L583 1434 Z M936 1434 L663 1434 L923 1124 L1133 1124 L936 1434 Z " />
<glyph glyph-name="uni0206" unicode="&#x206;" horiz-adv-x="1427" d="M100 0 L1327 0 L1394 381 L1124 381 L1096 226 L569 226 L638 618 L1195 618 L1235 844 L678 844 L743 1208 L1260 1208 L1232 1053 L1502 1053 L1569 1434 L352 1434 L313 1208 L473 1208 L299 226 L139 226 L100 0 Z M1016 1782 C758 1782 659 1649 609 1536 L801 1536 C835 1595 895 1628 989 1628 C1083 1628 1131 1595 1155 1536 L1337 1536 C1321 1629 1244 1782 1016 1782 L1016 1782 Z " />
<glyph glyph-name="uni0207" unicode="&#x207;" horiz-adv-x="1192" d="M629 189 C425 188 387 341 399 413 L1208 413 C1290 821 1091 1042 759 1042 C407 1042 188 825 146 511 C105 208 260 -20 612 -20 C802 -20 954 24 1097 124 L966 286 C886 240 781 190 629 189 L629 189 Z M434 610 C447 684 536 833 742 833 C948 833 985 684 972 610 L434 610 Z M849 1434 C591 1434 492 1301 442 1188 L634 1188 C668 1247 728 1280 822 1280 C916 1280 964 1247 988 1188 L1170 1188 C1154 1281 1077 1434 849 1434 L849 1434 Z " />
<glyph glyph-name="uni0208" unicode="&#x208;" horiz-adv-x="924" d="M833 1208 L993 1208 L1032 1434 L442 1434 L403 1208 L563 1208 L389 226 L229 226 L190 0 L780 0 L819 226 L659 226 L833 1208 Z M497 1846 L214 1846 L473 1536 L693 1536 L497 1846 Z M845 1846 L562 1846 L821 1536 L1041 1536 L845 1846 Z " />
<glyph glyph-name="uni0209" unicode="&#x209;" horiz-adv-x="805" d="M479 813 L372 209 L212 209 L176 0 L747 0 L783 209 L623 209 L767 1022 L356 1022 L319 813 L479 813 Z M382 1434 L99 1434 L359 1124 L579 1124 L382 1434 Z M730 1434 L447 1434 L707 1124 L927 1124 L730 1434 Z " />
<glyph glyph-name="uni020A" unicode="&#x20a;" horiz-adv-x="850" d="M772 1208 L932 1208 L971 1434 L381 1434 L342 1208 L502 1208 L328 226 L168 226 L129 0 L719 0 L758 226 L598 226 L772 1208 Z M739 1782 C481 1782 382 1649 332 1536 L524 1536 C558 1595 618 1628 712 1628 C806 1628 854 1595 878 1536 L1060 1536 C1044 1629 967 1782 739 1782 L739 1782 Z " />
<glyph glyph-name="uni020B" unicode="&#x20b;" horiz-adv-x="809" d="M422 813 L315 209 L155 209 L119 0 L690 0 L726 209 L566 209 L710 1022 L299 1022 L262 813 L422 813 Z M657 1434 C399 1434 300 1301 250 1188 L442 1188 C476 1247 536 1280 630 1280 C724 1280 772 1247 796 1188 L978 1188 C962 1281 885 1434 657 1434 L657 1434 Z " />
<glyph glyph-name="uni020C" unicode="&#x20c;" horiz-adv-x="1678" d="M1097 1464 C605 1464 277 1178 203 717 C135 295 371 -30 833 -30 C1325 -30 1653 256 1727 717 C1795 1139 1559 1464 1097 1464 L1097 1464 Z M477 717 C526 997 706 1238 1057 1238 C1408 1238 1502 997 1453 717 C1404 437 1224 196 873 196 C522 196 428 437 477 717 L477 717 Z M842 1846 L569 1846 L829 1536 L1039 1536 L842 1846 Z M1195 1846 L922 1846 L1182 1536 L1392 1536 L1195 1846 Z " />
<glyph glyph-name="uni020D" unicode="&#x20d;" horiz-adv-x="1291" d="M1324 511 C1370 815 1184 1042 847 1042 C499 1042 237 863 184 511 C138 209 322 -20 660 -20 C1007 -20 1270 157 1324 511 L1324 511 Z M1067 511 C1037 343 916 189 697 189 C478 189 411 343 441 511 C470 679 591 833 810 833 C1029 833 1096 679 1067 511 L1067 511 Z M594 1434 L321 1434 L581 1124 L791 1124 L594 1434 Z M947 1434 L674 1434 L934 1124 L1144 1124 L947 1434 Z " />
<glyph glyph-name="uni020E" unicode="&#x20e;" horiz-adv-x="1678" d="M1097 1464 C605 1464 277 1178 203 717 C135 295 371 -30 833 -30 C1325 -30 1653 256 1727 717 C1795 1139 1559 1464 1097 1464 L1097 1464 Z M477 717 C526 997 706 1238 1057 1238 C1408 1238 1502 997 1453 717 C1404 437 1224 196 873 196 C522 196 428 437 477 717 L477 717 Z M1162 1782 C904 1782 805 1649 755 1536 L947 1536 C981 1595 1041 1628 1135 1628 C1229 1628 1277 1595 1301 1536 L1483 1536 C1467 1629 1390 1782 1162 1782 L1162 1782 Z " />
<glyph glyph-name="uni020F" unicode="&#x20f;" horiz-adv-x="1254" d="M1287 511 C1333 815 1147 1042 810 1042 C462 1042 200 863 147 511 C101 209 285 -20 623 -20 C970 -20 1233 157 1287 511 L1287 511 Z M1030 511 C1000 343 879 189 660 189 C441 189 374 343 404 511 C433 679 554 833 773 833 C992 833 1059 679 1030 511 L1030 511 Z M879 1434 C621 1434 522 1301 472 1188 L664 1188 C698 1247 758 1280 852 1280 C946 1280 994 1247 1018 1188 L1200 1188 C1184 1281 1107 1434 879 1434 L879 1434 Z " />
<glyph glyph-name="uni0210" unicode="&#x210;" horiz-adv-x="1518" d="M718 1846 L435 1846 L694 1536 L914 1536 L718 1846 Z M1066 1846 L783 1846 L1042 1536 L1262 1536 L1066 1846 Z M690 0 L729 226 L569 226 L623 530 L889 530 L1101 0 L1425 0 L1464 226 L1303 226 L1171 550 C1360 602 1538 712 1578 982 C1619 1259 1489 1434 1119 1434 L352 1434 L313 1208 L473 1208 L299 226 L139 226 L100 0 L690 0 Z M743 1208 L1080 1208 C1268 1208 1334 1140 1306 982 C1278 824 1188 756 1000 756 L663 756 L743 1208 Z " />
<glyph glyph-name="uni0211" unicode="&#x211;" horiz-adv-x="1133" d="M1299 1001 C1242 1029 1172 1042 1091 1042 C984 1042 839 994 772 866 L800 1022 L389 1022 L352 813 L512 813 L405 209 L245 209 L209 0 L780 0 L816 209 L656 209 L716 547 C747 723 839 833 1014 833 C1071 833 1115 822 1148 800 L1299 1001 Z M615 1434 L332 1434 L592 1124 L812 1124 L615 1434 Z M963 1434 L680 1434 L940 1124 L1160 1124 L963 1434 Z " />
<glyph glyph-name="uni0212" unicode="&#x212;" horiz-adv-x="1518" d="M1044 1782 C786 1782 687 1649 637 1536 L829 1536 C863 1595 923 1628 1017 1628 C1111 1628 1159 1595 1183 1536 L1365 1536 C1349 1629 1272 1782 1044 1782 L1044 1782 Z M690 0 L729 226 L569 226 L623 530 L889 530 L1101 0 L1425 0 L1464 226 L1303 226 L1171 550 C1360 602 1538 712 1578 982 C1619 1259 1489 1434 1119 1434 L352 1434 L313 1208 L473 1208 L299 226 L139 226 L100 0 L690 0 Z M743 1208 L1080 1208 C1268 1208 1334 1140 1306 982 C1278 824 1188 756 1000 756 L663 756 L743 1208 Z " />
<glyph glyph-name="uni0213" unicode="&#x213;" horiz-adv-x="1004" d="M1170 1001 C1113 1029 1043 1042 962 1042 C855 1042 710 994 643 866 L671 1022 L260 1022 L223 813 L383 813 L276 209 L116 209 L80 0 L651 0 L687 209 L527 209 L587 547 C618 723 710 833 885 833 C942 833 986 822 1019 800 L1170 1001 Z M799 1434 C541 1434 442 1301 392 1188 L584 1188 C618 1247 678 1280 772 1280 C866 1280 914 1247 938 1188 L1120 1188 C1104 1281 1027 1434 799 1434 L799 1434 Z " />
<glyph glyph-name="uni0214" unicode="&#x214;" horiz-adv-x="1775" d="M898 1846 L615 1846 L874 1536 L1094 1536 L898 1846 Z M1246 1846 L963 1846 L1222 1536 L1442 1536 L1246 1846 Z M1728 1208 L1888 1208 L1927 1434 L1337 1434 L1298 1208 L1457 1208 L1356 631 C1309 364 1190 196 921 196 C652 196 594 364 641 631 L743 1208 L903 1208 L942 1434 L352 1434 L313 1208 L472 1208 L371 631 C298 221 486 -30 881 -30 C1377 -30 1553 221 1626 631 L1728 1208 Z " />
<glyph glyph-name="uni0215" unicode="&#x215;" horiz-adv-x="1477" d="M646 1434 L363 1434 L623 1124 L843 1124 L646 1434 Z M994 1434 L711 1434 L971 1124 L1191 1124 L994 1434 Z M1069 475 C1038 299 936 189 771 189 C607 189 543 299 574 475 L671 1022 L260 1022 L223 813 L383 813 L323 475 C266 151 421 -20 694 -20 C801 -20 946 28 1013 156 L986 0 L1397 0 L1433 209 L1273 209 L1417 1022 L1006 1022 L969 813 L1129 813 L1069 475 Z " />
<glyph glyph-name="uni0216" unicode="&#x216;" horiz-adv-x="1775" d="M1728 1208 L1888 1208 L1927 1434 L1337 1434 L1298 1208 L1457 1208 L1356 631 C1309 364 1190 196 921 196 C652 196 594 364 641 631 L743 1208 L903 1208 L942 1434 L352 1434 L313 1208 L472 1208 L371 631 C298 221 486 -30 881 -30 C1377 -30 1553 221 1626 631 L1728 1208 Z M1200 1782 C942 1782 843 1649 793 1536 L985 1536 C1019 1595 1079 1628 1173 1628 C1267 1628 1315 1595 1339 1536 L1521 1536 C1505 1629 1428 1782 1200 1782 L1200 1782 Z " />
<glyph glyph-name="uni0217" unicode="&#x217;" horiz-adv-x="1477" d="M1069 475 C1038 299 936 189 771 189 C607 189 543 299 574 475 L671 1022 L260 1022 L223 813 L383 813 L323 475 C266 151 421 -20 694 -20 C801 -20 946 28 1013 156 L986 0 L1397 0 L1433 209 L1273 209 L1417 1022 L1006 1022 L969 813 L1129 813 L1069 475 Z M990 1434 C732 1434 633 1301 583 1188 L775 1188 C809 1247 869 1280 963 1280 C1057 1280 1105 1247 1129 1188 L1311 1188 C1295 1281 1218 1434 990 1434 L990 1434 Z " />
<glyph glyph-name="Scommaaccent" unicode="&#x218;" horiz-adv-x="1374" d="M294 -532 L525 -532 L785 -130 L516 -130 L294 -532 Z M1368 1053 L1422 1362 C1422 1362 1200 1464 917 1464 C542 1464 358 1303 322 1071 C293 858 413 698 771 621 C993 573 1070 501 1051 392 C1025 249 924 196 737 196 C621 196 521 215 435 246 L463 408 L193 408 L144 126 C274 24 460 -30 707 -30 C1024 -30 1275 72 1323 392 C1359 630 1211 780 861 856 C663 900 574 953 594 1071 C615 1188 725 1238 887 1238 C981 1238 1060 1230 1127 1212 L1098 1053 L1368 1053 Z " />
<glyph glyph-name="scommaaccent" unicode="&#x219;" horiz-adv-x="1050" d="M115 -532 L346 -532 L606 -130 L337 -130 L115 -532 Z M389 319 L138 319 L97 90 C200 18 354 -20 528 -20 C808 -20 991 62 1021 290 C1049 504 890 571 645 623 C526 648 452 675 463 740 C474 803 532 833 649 833 C702 833 760 828 814 818 L795 712 L1046 712 L1092 973 C1092 973 914 1042 678 1042 C370 1042 235 914 212 740 C189 568 303 466 563 412 C693 385 783 373 770 300 C758 228 693 189 558 189 C490 189 427 197 370 211 L389 319 Z " />
<glyph glyph-name="uni021A" unicode="&#x21a;" horiz-adv-x="1508" d="M1102 1208 L1351 1208 L1323 1053 L1593 1053 L1660 1434 L352 1434 L285 1053 L555 1053 L583 1208 L832 1208 L658 226 L498 226 L459 0 L1049 0 L1088 226 L928 226 L1102 1208 Z M374 -532 L605 -532 L865 -130 L596 -130 L374 -532 Z " />
<glyph glyph-name="uni021B" unicode="&#x21b;" horiz-adv-x="868" d="M190 -532 L421 -532 L681 -130 L412 -130 L190 -532 Z M183 813 L380 813 L311 421 C258 119 363 -20 601 -20 C690 -20 784 -3 835 18 L800 208 C762 198 718 189 668 189 C535 189 540 295 567 451 L631 813 L923 813 L960 1022 L668 1022 L720 1321 L469 1321 L417 1022 L220 1022 L183 813 Z " />
<glyph glyph-name="uni021E" unicode="&#x21e;" horiz-adv-x="1743" d="M743 1208 L903 1208 L942 1434 L352 1434 L313 1208 L473 1208 L299 226 L139 226 L100 0 L690 0 L729 226 L569 226 L638 618 L1321 618 L1252 226 L1092 226 L1053 0 L1643 0 L1682 226 L1522 226 L1696 1208 L1856 1208 L1895 1434 L1305 1434 L1266 1208 L1426 1208 L1361 844 L678 844 L743 1208 Z M1539 1827 L1321 1827 L1153 1698 L1029 1827 L831 1827 L1061 1536 L1207 1536 L1539 1827 Z " />
<glyph glyph-name="uni021F" unicode="&#x21f;" horiz-adv-x="1477" d="M470 1307 L276 209 L116 209 L80 0 L651 0 L687 209 L527 209 L587 547 C618 723 720 833 885 833 C1049 833 1113 723 1082 547 L986 0 L1397 0 L1433 209 L1273 209 L1333 547 C1390 871 1235 1042 962 1042 C855 1042 710 994 643 866 L758 1516 L347 1516 L310 1307 L470 1307 Z M1401 1826 L1183 1826 L1015 1697 L891 1826 L693 1826 L923 1535 L1069 1535 L1401 1826 Z " />
<glyph glyph-name="uni0224" unicode="&#x224;" horiz-adv-x="1439" d="M1539 1434 L394 1434 L327 1053 L597 1053 L625 1208 L1104 1208 L123 134 L100 0 L1103 0 C1096 -1 942 -36 924 -197 C897 -426 1157 -458 1258 -458 L1294 -251 C1294 -251 1112 -251 1132 -141 C1151 -34 1287 0 1287 0 L1354 381 L1084 381 L1056 226 L535 226 L1516 1300 L1539 1434 Z " />
<glyph glyph-name="uni0225" unicode="&#x225;" horiz-adv-x="1164" d="M231 680 L482 680 L506 813 L788 813 L102 125 L80 0 L848 0 C841 -1 687 -36 669 -197 C642 -426 902 -458 1003 -458 L1039 -251 C1039 -251 857 -251 877 -141 C896 -34 1032 0 1032 0 L1092 342 L841 342 L817 209 L503 209 L1190 897 L1212 1022 L292 1022 L231 680 Z " />
<glyph glyph-name="uni0226" unicode="&#x226;" horiz-adv-x="1645" d="M1217 226 L1058 226 L1019 0 L1605 0 L1644 226 L1488 226 L1182 1434 L706 1434 L667 1208 L827 1208 L229 226 L79 226 L40 0 L630 0 L669 226 L515 226 L627 414 L1171 414 L1217 226 Z M1014 1063 L1117 641 L763 641 L1014 1063 Z M958 1683 C944 1602 999 1536 1080 1536 C1171 1536 1238 1602 1252 1683 C1267 1764 1212 1830 1131 1830 C1040 1830 973 1764 958 1683 L958 1683 Z " />
<glyph glyph-name="uni0227" unicode="&#x227;" horiz-adv-x="1369" d="M1058 1022 L1026 841 C975 960 859 1042 693 1042 C397 1042 171 853 117 511 C69 209 230 -20 536 -20 C692 -20 820 40 906 159 L878 0 L1289 0 L1325 209 L1166 209 L1272 813 L1433 813 L1469 1022 L1058 1022 Z M726 832 C938 832 998 678 968 511 C939 344 825 190 613 190 C404 190 345 344 374 511 C404 678 517 832 726 832 L726 832 Z M721 1327 C707 1246 762 1180 843 1180 C934 1180 1001 1246 1015 1327 C1030 1408 975 1474 894 1474 C803 1474 736 1408 721 1327 L721 1327 Z " />
<glyph glyph-name="uni0228" unicode="&#x228;" horiz-adv-x="1427" d="M100 0 L641 0 L522 -240 C658 -219 786 -209 760 -296 C729 -394 550 -366 486 -342 L421 -459 C593 -532 863 -521 912 -303 C945 -158 833 -114 737 -112 L794 0 L1327 0 L1394 381 L1124 381 L1096 226 L569 226 L638 618 L1195 618 L1235 844 L678 844 L743 1208 L1260 1208 L1232 1053 L1502 1053 L1569 1434 L352 1434 L313 1208 L473 1208 L299 226 L139 226 L100 0 Z " />
<glyph glyph-name="uni0229" unicode="&#x229;" horiz-adv-x="1192" d="M310 -459 C482 -532 752 -521 801 -303 C834 -158 722 -114 626 -112 L673 -18 C835 -9 970 35 1097 124 L966 286 C886 240 781 190 629 189 C425 188 387 341 399 413 L1208 413 C1290 821 1091 1042 759 1042 C407 1042 188 825 146 511 C108 235 234 21 523 -14 L411 -240 C547 -219 675 -209 649 -296 C618 -394 439 -366 375 -342 L310 -459 Z M434 610 C447 684 536 833 742 833 C948 833 985 684 972 610 L434 610 Z " />
<glyph glyph-name="uni022A" unicode="&#x22a;" horiz-adv-x="1678" d="M1097 1464 C605 1464 277 1178 203 717 C135 295 371 -30 833 -30 C1325 -30 1653 256 1727 717 C1795 1139 1559 1464 1097 1464 L1097 1464 Z M477 717 C526 997 706 1238 1057 1238 C1408 1238 1502 997 1453 717 C1404 437 1224 196 873 196 C522 196 428 437 477 717 L477 717 Z M774 1683 C760 1602 815 1536 896 1536 C987 1536 1054 1602 1068 1683 C1083 1764 1028 1830 947 1830 C856 1830 789 1764 774 1683 L774 1683 Z M1218 1683 C1204 1602 1259 1536 1340 1536 C1431 1536 1498 1602 1512 1683 C1527 1764 1472 1830 1391 1830 C1300 1830 1233 1764 1218 1683 L1218 1683 Z M784 1892 L1578 1892 L1611 2081 L817 2081 L784 1892 Z " />
<glyph glyph-name="uni022B" unicode="&#x22b;" horiz-adv-x="1256" d="M1287 511 C1333 815 1147 1042 810 1042 C462 1042 200 863 147 511 C101 209 285 -20 623 -20 C970 -20 1233 157 1287 511 L1287 511 Z M1030 511 C1000 343 879 189 660 189 C441 189 374 343 404 511 C433 679 554 833 773 833 C992 833 1059 679 1030 511 L1030 511 Z M491 1327 C477 1246 532 1180 613 1180 C704 1180 771 1246 785 1327 C800 1408 745 1474 664 1474 C573 1474 506 1408 491 1327 L491 1327 Z M935 1327 C921 1246 976 1180 1057 1180 C1148 1180 1215 1246 1229 1327 C1244 1408 1189 1474 1108 1474 C1017 1474 950 1408 935 1327 L935 1327 Z M500 1536 L1294 1536 L1327 1725 L533 1725 L500 1536 Z " />
<glyph glyph-name="uni022C" unicode="&#x22c;" horiz-adv-x="1678" d="M1097 1464 C605 1464 277 1178 203 717 C135 295 371 -30 833 -30 C1325 -30 1653 256 1727 717 C1795 1139 1559 1464 1097 1464 L1097 1464 Z M477 717 C526 997 706 1238 1057 1238 C1408 1238 1502 997 1453 717 C1404 437 1224 196 873 196 C522 196 428 437 477 717 L477 717 Z M1091 1600 C1129 1565 1174 1536 1235 1536 C1489 1536 1514 1785 1514 1785 L1329 1785 C1329 1785 1317 1707 1260 1707 C1233 1707 1209 1730 1194 1743 C1156 1778 1111 1807 1050 1807 C796 1807 771 1558 771 1558 L956 1558 C956 1558 968 1636 1025 1636 C1052 1636 1076 1613 1091 1600 L1091 1600 Z M777 1857 L1571 1857 L1604 2046 L810 2046 L777 1857 Z " />
<glyph glyph-name="uni022D" unicode="&#x22d;" horiz-adv-x="1256" d="M1287 511 C1333 815 1147 1042 810 1042 C462 1042 200 863 147 511 C101 209 285 -20 623 -20 C970 -20 1233 157 1287 511 L1287 511 Z M1030 511 C1000 343 879 189 660 189 C441 189 374 343 404 511 C433 679 554 833 773 833 C992 833 1059 679 1030 511 L1030 511 Z M799 1247 C837 1212 882 1183 943 1183 C1197 1183 1222 1432 1222 1432 L1037 1432 C1037 1432 1025 1354 968 1354 C941 1354 917 1377 902 1390 C864 1425 819 1454 758 1454 C504 1454 479 1205 479 1205 L664 1205 C664 1205 676 1283 733 1283 C760 1283 784 1260 799 1247 L799 1247 Z M485 1504 L1279 1504 L1312 1693 L518 1693 L485 1504 Z " />
<glyph glyph-name="uni022E" unicode="&#x22e;" horiz-adv-x="1678" d="M1097 1464 C605 1464 277 1178 203 717 C135 295 371 -30 833 -30 C1325 -30 1653 256 1727 717 C1795 1139 1559 1464 1097 1464 L1097 1464 Z M477 717 C526 997 706 1238 1057 1238 C1408 1238 1502 997 1453 717 C1404 437 1224 196 873 196 C522 196 428 437 477 717 L477 717 Z M996 1683 C982 1602 1037 1536 1118 1536 C1209 1536 1276 1602 1290 1683 C1305 1764 1250 1830 1169 1830 C1078 1830 1011 1764 996 1683 L996 1683 Z " />
<glyph glyph-name="uni022F" unicode="&#x22f;" horiz-adv-x="1254" d="M1287 511 C1333 815 1147 1042 810 1042 C462 1042 200 863 147 511 C101 209 285 -20 623 -20 C970 -20 1233 157 1287 511 L1287 511 Z M1030 511 C1000 343 879 189 660 189 C441 189 374 343 404 511 C433 679 554 833 773 833 C992 833 1059 679 1030 511 L1030 511 Z M713 1327 C699 1246 754 1180 835 1180 C926 1180 993 1246 1007 1327 C1022 1408 967 1474 886 1474 C795 1474 728 1408 713 1327 L713 1327 Z " />
<glyph glyph-name="uni0230" unicode="&#x230;" horiz-adv-x="1678" d="M1097 1464 C605 1464 277 1178 203 717 C135 295 371 -30 833 -30 C1325 -30 1653 256 1727 717 C1795 1139 1559 1464 1097 1464 L1097 1464 Z M477 717 C526 997 706 1238 1057 1238 C1408 1238 1502 997 1453 717 C1404 437 1224 196 873 196 C522 196 428 437 477 717 L477 717 Z M996 1683 C982 1602 1037 1536 1118 1536 C1209 1536 1276 1602 1290 1683 C1305 1764 1250 1830 1169 1830 C1078 1830 1011 1764 996 1683 L996 1683 Z M785 1892 L1579 1892 L1612 2081 L818 2081 L785 1892 Z " />
<glyph glyph-name="uni0231" unicode="&#x231;" horiz-adv-x="1235" d="M1287 511 C1333 815 1147 1042 810 1042 C462 1042 200 863 147 511 C101 209 285 -20 623 -20 C970 -20 1233 157 1287 511 L1287 511 Z M1030 511 C1000 343 879 189 660 189 C441 189 374 343 404 511 C433 679 554 833 773 833 C992 833 1059 679 1030 511 L1030 511 Z M697 1295 C683 1214 738 1148 819 1148 C910 1148 977 1214 991 1295 C1006 1376 951 1442 870 1442 C779 1442 712 1376 697 1295 L697 1295 Z M485 1504 L1279 1504 L1312 1693 L518 1693 L485 1504 Z " />
<glyph glyph-name="uni0232" unicode="&#x232;" horiz-adv-x="1546" d="M651 1536 L1445 1536 L1479 1725 L685 1725 L651 1536 Z M739 548 L682 226 L522 226 L483 0 L1073 0 L1112 226 L952 226 L1009 547 L1575 1208 L1719 1208 L1758 1434 L1168 1434 L1129 1208 L1277 1208 L904 763 L688 1208 L843 1208 L882 1434 L292 1434 L253 1208 L407 1208 L739 548 Z " />
<glyph glyph-name="uni0233" unicode="&#x233;" horiz-adv-x="1399" d="M516 1245 L1310 1245 L1343 1434 L549 1434 L516 1245 Z M1316 813 L1462 813 L1499 1022 L928 1022 L891 813 L1045 813 L746 295 L629 813 L784 813 L821 1022 L260 1022 L223 813 L378 813 L583 0 L469 -191 C419 -268 374 -323 259 -323 L137 -323 L100 -532 L222 -532 C488 -532 564 -420 645 -295 L1316 813 Z " />
<glyph glyph-name="uni0238" unicode="&#x238;" horiz-adv-x="2068" d="M1389 1307 L1549 1307 L1586 1516 L1015 1516 L978 1307 L1138 1307 L1056 841 C1005 960 889 1042 723 1042 C427 1042 201 853 147 511 C99 209 260 -20 566 -20 C722 -20 850 40 936 159 L908 0 L1159 0 L1191 181 C1242 62 1358 -20 1524 -20 C1820 -20 2046 169 2100 511 C2148 813 1987 1042 1681 1042 C1525 1042 1397 982 1311 863 L1389 1307 Z M1491 190 C1279 190 1219 344 1249 511 C1278 678 1392 832 1604 832 C1813 832 1872 678 1843 511 C1813 344 1700 190 1491 190 L1491 190 Z M756 832 C968 832 1028 678 998 511 C969 344 855 190 643 190 C434 190 375 344 404 511 C434 678 547 832 756 832 L756 832 Z " />
<glyph glyph-name="uni0239" unicode="&#x239;" horiz-adv-x="2068" d="M1088 1022 L1056 841 C1005 960 889 1042 723 1042 C427 1042 201 853 147 511 C99 209 260 -20 566 -20 C722 -20 850 40 936 159 L851 -323 L691 -323 L654 -532 L1225 -532 L1262 -323 L1102 -323 L1191 181 C1242 62 1358 -20 1524 -20 C1820 -20 2046 169 2100 511 C2148 813 1987 1042 1681 1042 C1525 1042 1397 982 1311 863 L1339 1022 L1088 1022 Z M756 832 C968 832 1028 678 998 511 C969 344 855 190 643 190 C434 190 375 344 404 511 C434 678 547 832 756 832 L756 832 Z M1491 190 C1279 190 1219 344 1249 511 C1278 678 1392 832 1604 832 C1813 832 1872 678 1843 511 C1813 344 1700 190 1491 190 L1491 190 Z " />
<glyph glyph-name="uni024C" unicode="&#x24c;" horiz-adv-x="1619" d="M791 0 L830 226 L670 226 L724 530 L990 530 L1202 0 L1526 0 L1565 226 L1404 226 L1272 550 C1461 602 1639 712 1679 982 C1720 1259 1590 1434 1220 1434 L453 1434 L414 1208 L574 1208 L494 756 L233 756 L193 530 L454 530 L400 226 L240 226 L201 0 L791 0 Z M844 1208 L1181 1208 C1369 1208 1435 1140 1407 982 C1379 824 1289 756 1101 756 L764 756 L844 1208 Z " />
<glyph glyph-name="uni024D" unicode="&#x24d;" horiz-adv-x="1046" d="M1212 1001 C1155 1029 1085 1042 1004 1042 C897 1042 752 994 685 866 L713 1022 L302 1022 L265 813 L425 813 L383 578 L181 578 L145 369 L347 369 L318 209 L158 209 L122 0 L693 0 L729 209 L569 209 L598 369 L800 369 L836 578 L634 578 C671 736 762 833 927 833 C984 833 1028 822 1061 800 L1212 1001 Z " />
<glyph glyph-name="uni024E" unicode="&#x24e;" horiz-adv-x="1546" d="M330 893 L565 893 L739 548 L682 226 L522 226 L483 0 L1073 0 L1112 226 L952 226 L1009 547 L1305 893 L1540 893 L1576 1099 L1481 1099 L1575 1208 L1719 1208 L1758 1434 L1168 1434 L1129 1208 L1277 1208 L1185 1099 L741 1099 L688 1208 L843 1208 L882 1434 L292 1434 L253 1208 L407 1208 L462 1099 L366 1099 L330 893 Z M841 893 L1013 893 L904 763 L841 893 Z " />
<glyph glyph-name="uni024F" unicode="&#x24f;" horiz-adv-x="1399" d="M1316 813 L1462 813 L1499 1022 L928 1022 L891 813 L1045 813 L951 650 L666 650 L629 813 L784 813 L821 1022 L260 1022 L223 813 L378 813 L419 650 L243 650 L206 441 L471 441 L583 0 L469 -191 C419 -268 374 -323 259 -323 L137 -323 L100 -532 L222 -532 C488 -532 564 -420 645 -295 L1090 441 L1356 441 L1393 650 L1217 650 L1316 813 Z M713 441 L830 441 L746 295 L713 441 Z " />
<glyph glyph-name="circumflex" unicode="&#x2c6;" horiz-adv-x="868" d="M759 1434 L613 1434 L281 1143 L499 1143 L668 1272 L791 1143 L989 1143 L759 1434 Z " />
<glyph glyph-name="caron" unicode="&#x2c7;" horiz-adv-x="828" d="M1020 1434 L802 1434 L634 1305 L510 1434 L312 1434 L542 1143 L688 1143 L1020 1434 Z " />
<glyph glyph-name="uni02C8" unicode="&#x2c8;" horiz-adv-x="411" d="M250 965 L501 965 L583 1434 L332 1434 L250 965 Z " />
<glyph glyph-name="uni02C9" unicode="&#x2c9;" horiz-adv-x="994" d="M319 1245 L1113 1245 L1146 1434 L352 1434 L319 1245 Z " />
<glyph glyph-name="uni02CA" unicode="&#x2ca;" horiz-adv-x="734" d="M278 1124 L538 1124 L906 1434 L583 1434 L278 1124 Z " />
<glyph glyph-name="uni02CB" unicode="&#x2cb;" horiz-adv-x="684" d="M605 1434 L332 1434 L592 1124 L802 1124 L605 1434 Z " />
<glyph glyph-name="uni02CC" unicode="&#x2cc;" horiz-adv-x="411" d="M-13 -532 L237 -532 L319 -63 L68 -63 L-13 -532 Z " />
<glyph glyph-name="uni02CD" unicode="&#x2cd;" horiz-adv-x="955" d="M-13 -532 L781 -532 L814 -343 L20 -343 L-13 -532 Z " />
<glyph glyph-name="uni02CE" unicode="&#x2ce;" horiz-adv-x="684" d="M313 -222 L40 -222 L300 -532 L510 -532 L313 -222 Z " />
<glyph glyph-name="uni02CF" unicode="&#x2cf;" horiz-adv-x="735" d="M-13 -532 L247 -532 L615 -222 L292 -222 L-13 -532 Z " />
<glyph glyph-name="uni02D0" unicode="&#x2d0;" horiz-adv-x="578" d="M260 1022 L404 654 L678 1022 L260 1022 Z M498 0 L353 368 L80 0 L498 0 Z " />
<glyph glyph-name="uni02D1" unicode="&#x2d1;" horiz-adv-x="578" d="M260 1022 L404 654 L678 1022 L260 1022 Z " />
<glyph glyph-name="uni02D2" unicode="&#x2d2;" horiz-adv-x="471" d="M393 715 C406 791 455 849 540 849 L569 1014 C381 1014 230 905 204 715 C181 545 276 416 464 416 L493 581 C408 581 379 639 393 715 L393 715 Z " />
<glyph glyph-name="uni02D3" unicode="&#x2d3;" horiz-adv-x="470" d="M329 715 C316 639 267 581 182 581 L153 416 C341 416 492 525 518 715 C541 885 446 1014 258 1014 L229 849 C314 849 343 791 329 715 L329 715 Z " />
<glyph glyph-name="uni02D4" unicode="&#x2d4;" horiz-adv-x="837" d="M180 569 L857 569 L893 774 L669 774 L713 1022 L484 1022 L440 774 L216 774 L180 569 Z " />
<glyph glyph-name="uni02D5" unicode="&#x2d5;" horiz-adv-x="837" d="M123 248 L347 248 L304 0 L533 0 L576 248 L800 248 L836 453 L159 453 L123 248 Z " />
<glyph glyph-name="uni02D6" unicode="&#x2d6;" horiz-adv-x="1043" d="M246 547 L513 547 L466 281 L675 281 L722 547 L989 547 L1026 756 L759 756 L806 1022 L597 1022 L550 756 L283 756 L246 547 Z " />
<glyph glyph-name="uni02D7" unicode="&#x2d7;" horiz-adv-x="823" d="M176 547 L839 547 L876 756 L213 756 L176 547 Z " />
<glyph glyph-name="breve" unicode="&#x2d8;" horiz-adv-x="848" d="M633 1188 C891 1188 990 1321 1040 1434 L848 1434 C814 1375 754 1342 660 1342 C566 1342 518 1375 494 1434 L312 1434 C328 1341 405 1188 633 1188 L633 1188 Z " />
<glyph glyph-name="dotaccent" unicode="&#x2d9;" horiz-adv-x="374" d="M273 1327 C259 1246 314 1180 395 1180 C486 1180 553 1246 567 1327 C582 1408 527 1474 446 1474 C355 1474 288 1408 273 1327 L273 1327 Z " />
<glyph glyph-name="ring" unicode="&#x2da;" horiz-adv-x="614" d="M325 1390 C303 1265 393 1163 518 1163 C653 1163 757 1265 779 1390 C801 1515 711 1617 586 1617 C451 1617 347 1515 325 1390 L325 1390 Z M474 1390 C481 1433 512 1468 565 1468 C608 1468 637 1433 630 1390 C622 1347 591 1312 538 1312 C495 1312 466 1347 474 1390 L474 1390 Z " />
<glyph glyph-name="ogonek" unicode="&#x2db;" horiz-adv-x="495" d="M200 0 C200 0 39 -32 20 -197 C-7 -426 253 -458 354 -458 L390 -251 C390 -251 208 -251 228 -141 C247 -34 383 0 383 0 L200 0 Z " />
<glyph glyph-name="tilde" unicode="&#x2dc;" horiz-adv-x="865" d="M613 1247 C651 1212 696 1183 757 1183 C1011 1183 1036 1432 1036 1432 L851 1432 C851 1432 839 1354 782 1354 C755 1354 731 1377 716 1390 C678 1425 633 1454 572 1454 C318 1454 293 1205 293 1205 L478 1205 C478 1205 490 1283 547 1283 C574 1283 598 1260 613 1247 L613 1247 Z " />
<glyph glyph-name="hungarumlaut" unicode="&#x2dd;" horiz-adv-x="824" d="M287 1174 L478 1174 L687 1516 L438 1516 L287 1174 Z M611 1174 L802 1174 L1011 1516 L762 1516 L611 1174 Z " />
<glyph glyph-name="gravecomb" unicode="&#x300;" horiz-adv-x="724" d="M625 1434 L352 1434 L612 1124 L822 1124 L625 1434 Z " />
<glyph glyph-name="acutecomb" unicode="&#x301;" horiz-adv-x="774" d="M298 1124 L558 1124 L926 1434 L603 1434 L298 1124 Z " />
<glyph glyph-name="uni0302" unicode="&#x302;" horiz-adv-x="868" d="M759 1434 L613 1434 L281 1143 L499 1143 L668 1272 L791 1143 L989 1143 L759 1434 Z " />
<glyph glyph-name="tildecomb" unicode="&#x303;" horiz-adv-x="905" d="M633 1247 C671 1212 716 1183 777 1183 C1031 1183 1056 1432 1056 1432 L871 1432 C871 1432 859 1354 802 1354 C775 1354 751 1377 736 1390 C698 1425 653 1454 592 1454 C338 1454 313 1205 313 1205 L498 1205 C498 1205 510 1283 567 1283 C594 1283 618 1260 633 1247 L633 1247 Z " />
<glyph glyph-name="uni0304" unicode="&#x304;" horiz-adv-x="954" d="M299 1245 L1093 1245 L1126 1434 L332 1434 L299 1245 Z " />
<glyph glyph-name="uni0305" unicode="&#x305;" horiz-adv-x="954" d="M299 1245 L1093 1245 L1126 1434 L332 1434 L299 1245 Z " />
<glyph glyph-name="uni0306" unicode="&#x306;" horiz-adv-x="888" d="M653 1188 C911 1188 1010 1321 1060 1434 L868 1434 C834 1375 774 1342 680 1342 C586 1342 538 1375 514 1434 L332 1434 C348 1341 425 1188 653 1188 L653 1188 Z " />
<glyph glyph-name="uni0307" unicode="&#x307;" horiz-adv-x="454" d="M313 1327 C299 1246 354 1180 435 1180 C526 1180 593 1246 607 1327 C622 1408 567 1474 486 1474 C395 1474 328 1408 313 1327 L313 1327 Z " />
<glyph glyph-name="uni0308" unicode="&#x308;" horiz-adv-x="898" d="M313 1327 C299 1246 354 1180 435 1180 C526 1180 593 1246 607 1327 C622 1408 567 1474 486 1474 C395 1474 328 1408 313 1327 L313 1327 Z M757 1327 C743 1246 798 1180 879 1180 C970 1180 1037 1246 1051 1327 C1066 1408 1011 1474 930 1474 C839 1474 772 1408 757 1327 L757 1327 Z " />
<glyph glyph-name="hookabovecomb" unicode="&#x309;" horiz-adv-x="633" d="M282 1033 C399 1033 720 1064 785 1434 L541 1434 C515 1283 407 1249 320 1249 L282 1033 Z " />
<glyph glyph-name="uni030A" unicode="&#x30a;" horiz-adv-x="614" d="M325 1390 C303 1265 393 1163 518 1163 C653 1163 757 1265 779 1390 C801 1515 711 1617 586 1617 C451 1617 347 1515 325 1390 L325 1390 Z M474 1390 C481 1433 512 1468 565 1468 C608 1468 637 1433 630 1390 C622 1347 591 1312 538 1312 C495 1312 466 1347 474 1390 L474 1390 Z " />
<glyph glyph-name="uni030B" unicode="&#x30b;" horiz-adv-x="931" d="M602 972 L833 972 L1103 1434 L834 1434 L602 972 Z M251 972 L482 972 L752 1434 L483 1434 L251 972 Z " />
<glyph glyph-name="uni030C" unicode="&#x30c;" horiz-adv-x="868" d="M1040 1434 L822 1434 L654 1305 L530 1434 L332 1434 L562 1143 L708 1143 L1040 1434 Z " />
<glyph glyph-name="uni030D" unicode="&#x30d;" horiz-adv-x="411" d="M250 965 L501 965 L583 1434 L332 1434 L250 965 Z " />
<glyph glyph-name="uni030E" unicode="&#x30e;" horiz-adv-x="750" d="M250 965 L501 965 L583 1434 L332 1434 L250 965 Z M589 965 L840 965 L922 1434 L671 1434 L589 965 Z " />
<glyph glyph-name="uni030F" unicode="&#x30f;" horiz-adv-x="931" d="M601 1434 L332 1434 L440 972 L671 972 L601 1434 Z M952 1434 L683 1434 L791 972 L1022 972 L952 1434 Z " />
<glyph glyph-name="uni0310" unicode="&#x310;" horiz-adv-x="888" d="M584 1562 C572 1492 618 1434 688 1434 C767 1434 827 1492 839 1562 C851 1632 804 1689 733 1689 C655 1689 596 1632 584 1562 L584 1562 Z M653 1188 C911 1188 1010 1321 1060 1434 L868 1434 C834 1375 774 1342 680 1342 C586 1342 538 1375 514 1434 L332 1434 C348 1341 425 1188 653 1188 L653 1188 Z " />
<glyph glyph-name="uni0311" unicode="&#x311;" horiz-adv-x="888" d="M696 1434 C438 1434 339 1301 289 1188 L481 1188 C515 1247 575 1280 669 1280 C763 1280 811 1247 835 1188 L1017 1188 C1001 1281 924 1434 696 1434 L696 1434 Z " />
<glyph glyph-name="uni0312" unicode="&#x312;" horiz-adv-x="580" d="M752 1434 L521 1434 L251 972 L520 972 L752 1434 Z " />
<glyph glyph-name="uni0313" unicode="&#x313;" horiz-adv-x="580" d="M251 972 L482 972 L752 1434 L483 1434 L251 972 Z " />
<glyph glyph-name="uni0314" unicode="&#x314;" horiz-adv-x="580" d="M601 1434 L332 1434 L440 972 L671 972 L601 1434 Z " />
<glyph glyph-name="uni0315" unicode="&#x315;" horiz-adv-x="580" d="M251 972 L482 972 L752 1434 L483 1434 L251 972 Z " />
<glyph glyph-name="uni0316" unicode="&#x316;" horiz-adv-x="684" d="M313 -222 L40 -222 L300 -532 L510 -532 L313 -222 Z " />
<glyph glyph-name="uni0317" unicode="&#x317;" horiz-adv-x="735" d="M-13 -532 L247 -532 L615 -222 L292 -222 L-13 -532 Z " />
<glyph glyph-name="uni0318" unicode="&#x318;" horiz-adv-x="533" d="M245 -110 L223 -237 L38 -237 L8 -405 L193 -405 L171 -532 L359 -532 L433 -110 L245 -110 Z " />
<glyph glyph-name="uni0319" unicode="&#x319;" horiz-adv-x="534" d="M61 -110 L-13 -532 L175 -532 L197 -405 L382 -405 L412 -237 L227 -237 L249 -110 L61 -110 Z " />
<glyph glyph-name="uni031A" unicode="&#x31a;" horiz-adv-x="559" d="M332 1434 L303 1266 L514 1266 L478 1062 L666 1062 L731 1434 L332 1434 Z " />
<glyph glyph-name="uni031B" unicode="&#x31b;" horiz-adv-x="562" d="M507 1434 C494 1358 453 1255 301 1255 L265 1051 C675 1051 724 1379 733 1434 L507 1434 Z " />
<glyph glyph-name="uni031C" unicode="&#x31c;" horiz-adv-x="471" d="M267 0 C280 76 329 134 414 134 L443 299 C255 299 104 190 78 0 C55 -170 150 -299 338 -299 L367 -134 C282 -134 253 -76 267 0 L267 0 Z " />
<glyph glyph-name="uni031D" unicode="&#x31d;" horiz-adv-x="639" d="M187 -217 L161 -364 L16 -364 L-13 -532 L465 -532 L494 -364 L349 -364 L375 -217 L187 -217 Z " />
<glyph glyph-name="uni031E" unicode="&#x31e;" horiz-adv-x="638" d="M319 -532 L345 -385 L490 -385 L519 -217 L41 -217 L12 -385 L157 -385 L131 -532 L319 -532 Z " />
<glyph glyph-name="uni031F" unicode="&#x31f;" horiz-adv-x="614" d="M546 70 L393 70 L422 234 L274 234 L245 70 L92 70 L68 -67 L221 -67 L192 -231 L340 -231 L369 -67 L522 -67 L546 70 Z " />
<glyph glyph-name="uni0320" unicode="&#x320;" horiz-adv-x="554" d="M486 70 L92 70 L68 -67 L462 -67 L486 70 Z " />
<glyph glyph-name="uni0321" unicode="&#x321;" horiz-adv-x="668" d="M413 206 C367 -53 283 -157 52 -157 L19 -345 C401 -345 556 -180 624 206 L413 206 Z " />
<glyph glyph-name="uni0322" unicode="&#x322;" horiz-adv-x="668" d="M116 206 C48 -180 145 -345 527 -345 L560 -157 C329 -157 281 -53 327 206 L116 206 Z " />
<glyph glyph-name="dotbelowcomb" unicode="&#x323;" horiz-adv-x="494" d="M49 -289 C35 -370 90 -436 171 -436 C262 -436 329 -370 343 -289 C358 -208 303 -142 222 -142 C131 -142 64 -208 49 -289 L49 -289 Z " />
<glyph glyph-name="uni0324" unicode="&#x324;" horiz-adv-x="898" d="M24 -315 C10 -396 65 -462 146 -462 C237 -462 304 -396 318 -315 C333 -234 278 -168 197 -168 C106 -168 39 -234 24 -315 L24 -315 Z M468 -315 C454 -396 509 -462 590 -462 C681 -462 748 -396 762 -315 C777 -234 722 -168 641 -168 C550 -168 483 -234 468 -315 L468 -315 Z " />
<glyph glyph-name="uni0325" unicode="&#x325;" horiz-adv-x="614" d="M22 -325 C0 -450 90 -552 215 -552 C350 -552 454 -450 476 -325 C498 -200 408 -98 283 -98 C148 -98 44 -200 22 -325 L22 -325 Z M171 -325 C178 -282 209 -247 262 -247 C305 -247 334 -282 327 -325 C319 -368 288 -403 235 -403 C192 -403 163 -368 171 -325 L171 -325 Z " />
<glyph glyph-name="commaaccent" unicode="&#x326;" horiz-adv-x="619" d="M6 -532 L236 -532 L496 -130 L227 -130 L6 -532 Z " />
<glyph glyph-name="uni0327" unicode="&#x327;" horiz-adv-x="624" d="M0 -459 C172 -532 442 -521 491 -303 C524 -158 412 -114 316 -112 L410 73 L257 73 L101 -240 C237 -219 365 -209 339 -296 C308 -394 129 -366 65 -342 L0 -459 Z " />
<glyph glyph-name="uni0328" unicode="&#x328;" horiz-adv-x="535" d="M220 0 C220 0 59 -32 40 -197 C13 -426 273 -458 374 -458 L410 -251 C410 -251 228 -251 248 -141 C267 -34 403 0 403 0 L220 0 Z " />
<glyph glyph-name="uni0329" unicode="&#x329;" horiz-adv-x="411" d="M-13 -532 L237 -532 L319 -63 L68 -63 L-13 -532 Z " />
<glyph glyph-name="uni032A" unicode="&#x32a;" horiz-adv-x="866" d="M-13 -532 L198 -532 L222 -394 L504 -394 L480 -532 L692 -532 L746 -225 L40 -225 L-13 -532 Z " />
<glyph glyph-name="uni032B" unicode="&#x32b;" horiz-adv-x="804" d="M326 -458 C333 -514 381 -552 446 -552 C597 -552 646 -440 669 -309 L693 -173 L534 -173 L510 -309 C501 -361 478 -380 450 -380 C411 -380 408 -336 426 -237 L292 -237 C274 -336 255 -380 216 -380 C188 -380 173 -361 182 -309 L206 -173 L47 -173 L23 -309 C1 -440 41 -552 172 -552 C247 -552 301 -514 326 -458 L326 -458 Z " />
<glyph glyph-name="uni032C" unicode="&#x32c;" horiz-adv-x="868" d="M745 -241 L527 -241 L359 -370 L235 -241 L37 -241 L267 -532 L413 -532 L745 -241 Z " />
<glyph glyph-name="uni032D" unicode="&#x32d;" horiz-adv-x="869" d="M465 -241 L319 -241 L-13 -532 L205 -532 L374 -403 L497 -532 L695 -532 L465 -241 Z " />
<glyph glyph-name="uni032E" unicode="&#x32e;" horiz-adv-x="888" d="M350 -532 C608 -532 707 -399 757 -286 L565 -286 C531 -345 471 -378 377 -378 C283 -378 235 -345 211 -286 L29 -286 C45 -379 122 -532 350 -532 L350 -532 Z " />
<glyph glyph-name="uni032F" unicode="&#x32f;" horiz-adv-x="889" d="M394 -286 C136 -286 37 -419 -13 -532 L179 -532 C213 -473 273 -440 367 -440 C461 -440 509 -473 533 -532 L715 -532 C699 -439 622 -286 394 -286 L394 -286 Z " />
<glyph glyph-name="uni0330" unicode="&#x330;" horiz-adv-x="865" d="M324 -390 C362 -425 407 -454 468 -454 C722 -454 747 -205 747 -205 L562 -205 C562 -205 550 -283 493 -283 C466 -283 442 -260 427 -247 C389 -212 344 -183 283 -183 C29 -183 4 -432 4 -432 L189 -432 C189 -432 201 -354 258 -354 C285 -354 309 -377 324 -390 L324 -390 Z " />
<glyph glyph-name="uni0331" unicode="&#x331;" horiz-adv-x="955" d="M-13 -532 L781 -532 L814 -343 L20 -343 L-13 -532 Z " />
<glyph glyph-name="uni0332" unicode="&#x332;" horiz-adv-x="1185" d="M43 -318 L1028 -318 L1065 -109 L80 -109 L43 -318 Z " />
<glyph glyph-name="uni0333" unicode="&#x333;" horiz-adv-x="1185" d="M43 -318 L1028 -318 L1065 -109 L80 -109 L43 -318 Z M-5 -599 L979 -599 L1016 -390 L31 -390 L-5 -599 Z " />
<glyph glyph-name="uni0334" unicode="&#x334;" horiz-adv-x="865" d="M510 662 C548 627 593 598 654 598 C908 598 933 847 933 847 L748 847 C748 847 736 769 679 769 C652 769 628 792 613 805 C575 840 530 869 469 869 C215 869 190 620 190 620 L375 620 C375 620 387 698 444 698 C471 698 495 675 510 662 L510 662 Z " />
<glyph glyph-name="uni0335" unicode="&#x335;" horiz-adv-x="846" d="M162 469 L848 469 L885 678 L199 678 L162 469 Z " />
<glyph glyph-name="uni0336" unicode="&#x336;" horiz-adv-x="1073" d="M167 497 L1080 497 L1117 706 L204 706 L167 497 Z " />
<glyph glyph-name="uni0337" unicode="&#x337;" horiz-adv-x="1302" d="M1094 1143 L114 194 L442 194 L1423 1143 L1094 1143 Z " />
<glyph glyph-name="uni0338" unicode="&#x338;" horiz-adv-x="1295" d="M80 0 L356 0 L1467 1434 L1192 1434 L80 0 Z " />
<glyph glyph-name="uni0339" unicode="&#x339;" horiz-adv-x="471" d="M203 0 C190 -76 141 -134 56 -134 L27 -299 C215 -299 366 -190 392 0 C415 170 320 299 132 299 L103 134 C188 134 217 76 203 0 L203 0 Z " />
<glyph glyph-name="uni033A" unicode="&#x33a;" horiz-adv-x="866" d="M-13 -532 L692 -532 L746 -225 L534 -225 L509 -363 L227 -363 L252 -225 L40 -225 L-13 -532 Z " />
<glyph glyph-name="uni033B" unicode="&#x33b;" horiz-adv-x="579" d="M-13 -532 L405 -532 L477 -124 L59 -124 L-13 -532 Z M182 -274 L300 -274 L281 -382 L163 -382 L182 -274 Z " />
<glyph glyph-name="uni033C" unicode="&#x33c;" horiz-adv-x="805" d="M151 -496 L157 -460 C167 -408 189 -389 217 -389 C256 -389 259 -433 242 -532 L376 -532 C393 -433 412 -389 451 -389 C479 -389 495 -408 485 -460 L479 -496 L638 -496 L644 -460 C667 -329 626 -217 495 -217 C420 -217 361 -262 338 -311 C324 -245 276 -217 221 -217 C70 -217 22 -329 -1 -460 L-7 -496 L151 -496 Z " />
<glyph glyph-name="uni033D" unicode="&#x33d;" horiz-adv-x="951" d="M820 1203 L1123 1434 L846 1434 L703 1325 L599 1434 L342 1434 L555 1212 L252 981 L529 981 L672 1090 L776 981 L1033 981 L820 1203 Z " />
<glyph glyph-name="uni033E" unicode="&#x33e;" horiz-adv-x="431" d="M538 1427 C581 1471 619 1521 629 1582 C672 1826 422 1817 422 1817 L389 1632 C389 1632 468 1634 458 1577 C453 1550 425 1522 409 1504 C366 1460 328 1410 317 1349 C274 1105 525 1114 525 1114 L558 1299 C558 1299 479 1297 489 1354 C494 1381 522 1409 538 1427 L538 1427 Z " />
<glyph glyph-name="uni033F" unicode="&#x33f;" horiz-adv-x="1185" d="M416 1797 L1401 1797 L1438 2006 L453 2006 L416 1797 Z M367 1516 L1352 1516 L1389 1725 L404 1725 L367 1516 Z " />
<glyph glyph-name="uni0340" unicode="&#x340;" horiz-adv-x="684" d="M605 1434 L332 1434 L592 1124 L802 1124 L605 1434 Z " />
<glyph glyph-name="uni0341" unicode="&#x341;" horiz-adv-x="734" d="M278 1124 L538 1124 L906 1434 L583 1434 L278 1124 Z " />
<glyph glyph-name="uni0342" unicode="&#x342;" horiz-adv-x="865" d="M613 1247 C651 1212 696 1183 757 1183 C1011 1183 1036 1432 1036 1432 L851 1432 C851 1432 839 1354 782 1354 C755 1354 731 1377 716 1390 C678 1425 633 1454 572 1454 C318 1454 293 1205 293 1205 L478 1205 C478 1205 490 1283 547 1283 C574 1283 598 1260 613 1247 L613 1247 Z " />
<glyph glyph-name="uni0343" unicode="&#x343;" horiz-adv-x="580" d="M251 972 L482 972 L752 1434 L483 1434 L251 972 Z " />
<glyph glyph-name="uni0344" unicode="&#x344;" horiz-adv-x="734" d="M278 1124 L538 1124 L906 1434 L583 1434 L278 1124 Z " />
<glyph glyph-name="uni0345" unicode="&#x345;" horiz-adv-x="677" d="M444 -148 C412 -174 376 -204 331 -204 C278 -204 269 -174 277 -126 L309 56 L87 56 L61 -96 C25 -300 87 -414 293 -414 C379 -414 472 -376 544 -298 L444 -148 Z " />
<glyph glyph-name="uni0346" unicode="&#x346;" horiz-adv-x="865" d="M278 1127 L489 1127 L513 1265 L795 1265 L771 1127 L983 1127 L1037 1434 L331 1434 L278 1127 Z " />
<glyph glyph-name="uni0347" unicode="&#x347;" horiz-adv-x="554" d="M468 -30 L74 -30 L50 -167 L444 -167 L468 -30 Z M503 167 L109 167 L85 30 L479 30 L503 167 Z " />
<glyph glyph-name="uni0348" unicode="&#x348;" horiz-adv-x="750" d="M-13 -532 L237 -532 L319 -63 L68 -63 L-13 -532 Z M325 -532 L576 -532 L658 -63 L407 -63 L325 -532 Z " />
<glyph glyph-name="uni0349" unicode="&#x349;" horiz-adv-x="559" d="M51 -160 L22 -328 L233 -328 L197 -532 L385 -532 L450 -160 L51 -160 Z " />
<glyph glyph-name="uni034A" unicode="&#x34a;" horiz-adv-x="865" d="M709 1533 L650 1436 C627 1447 601 1454 572 1454 C318 1454 293 1205 293 1205 L478 1205 C478 1205 490 1283 547 1283 C550 1283 554 1283 558 1282 L451 1104 L620 1104 L678 1201 C701 1190 727 1183 757 1183 C1011 1183 1036 1432 1036 1432 L851 1432 C851 1432 839 1354 782 1354 C778 1354 774 1354 771 1355 L878 1533 L709 1533 Z " />
<glyph glyph-name="uni034B" unicode="&#x34b;" horiz-adv-x="865" d="M425 1058 C413 988 459 930 529 930 C610 930 668 988 680 1058 C692 1128 645 1185 574 1185 C494 1185 437 1128 425 1058 L425 1058 Z M650 1580 C638 1510 685 1452 755 1452 C836 1452 893 1510 905 1580 C917 1650 870 1707 799 1707 C719 1707 662 1650 650 1580 L650 1580 Z M613 1247 C651 1212 696 1183 757 1183 C1011 1183 1036 1432 1036 1432 L851 1432 C851 1432 839 1354 782 1354 C755 1354 731 1377 716 1390 C678 1425 633 1454 572 1454 C318 1454 293 1205 293 1205 L478 1205 C478 1205 490 1283 547 1283 C574 1283 598 1260 613 1247 L613 1247 Z " />
<glyph glyph-name="uni034C" unicode="&#x34c;" horiz-adv-x="962" d="M627 1152 C672 1113 739 1077 825 1077 C933 1077 1027 1110 1092 1185 L1134 1434 C1036 1338 965 1306 886 1306 C843 1306 808 1319 773 1343 C729 1382 661 1418 575 1418 C467 1418 374 1385 308 1310 L266 1061 C364 1157 436 1189 515 1189 C558 1189 593 1176 627 1152 L627 1152 Z M559 765 C603 726 671 690 757 690 C865 690 959 723 1024 798 L1066 1047 C968 951 896 919 817 919 C774 919 740 932 705 956 C661 995 593 1031 507 1031 C399 1031 305 998 240 923 L198 674 C296 770 368 802 447 802 C490 802 524 789 559 765 L559 765 Z " />
<glyph glyph-name="uni034D" unicode="&#x34d;" horiz-adv-x="2396" d="M495 -161 L721 -29 L767 245 L31 -265 L587 -785 L634 -521 L455 -389 L1803 -389 L1578 -521 L1531 -795 L2267 -285 L1711 235 L1665 -29 L1843 -161 L495 -161 Z " />
<glyph glyph-name="uni034E" unicode="&#x34e;" horiz-adv-x="1189" d="M619 -532 L684 -161 L780 -363 L1044 -363 L638 283 L15 -363 L288 -363 L456 -161 L391 -532 L619 -532 Z " />
<glyph glyph-name="tonos" unicode="&#x384;" horiz-adv-x="492" d="M266 1056 L479 1056 L664 1434 L406 1434 L266 1056 Z " />
<glyph glyph-name="dieresistonos" unicode="&#x385;" horiz-adv-x="938" d="M627 1534 L840 1534 L1026 1912 L768 1912 L627 1534 Z M333 1327 C319 1246 374 1180 455 1180 C546 1180 613 1246 627 1327 C642 1408 587 1474 506 1474 C415 1474 348 1408 333 1327 L333 1327 Z M777 1327 C763 1246 818 1180 899 1180 C990 1180 1057 1246 1071 1327 C1086 1408 1031 1474 950 1474 C859 1474 792 1408 777 1327 L777 1327 Z " />
<glyph glyph-name="Alphatonos" unicode="&#x386;" horiz-adv-x="1645" d="M288 1056 L501 1056 L686 1434 L428 1434 L288 1056 Z M1217 226 L1058 226 L1019 0 L1605 0 L1644 226 L1488 226 L1182 1434 L706 1434 L667 1208 L827 1208 L229 226 L79 226 L40 0 L630 0 L669 226 L515 226 L627 414 L1171 414 L1217 226 Z M1014 1063 L1117 641 L763 641 L1014 1063 Z " />
<glyph glyph-name="Epsilontonos" unicode="&#x388;" horiz-adv-x="1799" d="M286 1056 L499 1056 L684 1434 L426 1434 L286 1056 Z M472 0 L1699 0 L1766 381 L1496 381 L1468 226 L941 226 L1010 618 L1567 618 L1607 844 L1050 844 L1115 1208 L1632 1208 L1604 1053 L1874 1053 L1941 1434 L724 1434 L685 1208 L845 1208 L671 226 L511 226 L472 0 Z " />
<glyph glyph-name="Etatonos" unicode="&#x389;" horiz-adv-x="2045" d="M216 1056 L429 1056 L614 1434 L356 1434 L216 1056 Z M1045 1208 L1205 1208 L1244 1434 L654 1434 L615 1208 L775 1208 L601 226 L441 226 L402 0 L992 0 L1031 226 L871 226 L940 618 L1623 618 L1554 226 L1394 226 L1355 0 L1945 0 L1984 226 L1824 226 L1998 1208 L2158 1208 L2197 1434 L1607 1434 L1568 1208 L1728 1208 L1663 844 L980 844 L1045 1208 Z " />
<glyph glyph-name="Iotatonos" unicode="&#x38a;" horiz-adv-x="1092" d="M216 1056 L429 1056 L614 1434 L356 1434 L216 1056 Z M1045 1208 L1205 1208 L1244 1434 L654 1434 L615 1208 L775 1208 L601 226 L441 226 L402 0 L992 0 L1031 226 L871 226 L1045 1208 Z " />
<glyph glyph-name="Omicrontonos" unicode="&#x38c;" horiz-adv-x="1891" d="M266 1056 L479 1056 L664 1434 L406 1434 L266 1056 Z M1310 1464 C818 1464 490 1178 416 717 C348 295 584 -30 1046 -30 C1538 -30 1866 256 1940 717 C2008 1139 1772 1464 1310 1464 L1310 1464 Z M690 717 C739 997 919 1238 1270 1238 C1621 1238 1715 997 1666 717 C1617 437 1437 196 1086 196 C735 196 641 437 690 717 L690 717 Z " />
<glyph glyph-name="Upsilontonos" unicode="&#x38e;" horiz-adv-x="1906" d="M226 1056 L439 1056 L624 1434 L366 1434 L226 1056 Z M1099 548 L1042 226 L882 226 L843 0 L1433 0 L1472 226 L1312 226 L1369 547 L1935 1208 L2079 1208 L2118 1434 L1528 1434 L1489 1208 L1637 1208 L1264 763 L1048 1208 L1203 1208 L1242 1434 L652 1434 L613 1208 L767 1208 L1099 548 Z " />
<glyph glyph-name="Omegatonos" unicode="&#x38f;" horiz-adv-x="1869" d="M266 1056 L479 1056 L664 1434 L406 1434 L266 1056 Z M1122 0 L1791 0 L1842 290 L1592 290 L1580 226 L1430 226 C1655 320 1889 506 1934 785 C1995 1162 1774 1464 1301 1464 C828 1464 515 1221 458 815 C421 555 564 313 774 226 L604 226 L616 290 L366 290 L315 0 L984 0 L1020 206 C802 330 680 543 725 795 C772 1064 965 1238 1271 1238 C1577 1238 1708 1064 1661 795 C1616 543 1420 330 1158 206 L1122 0 Z " />
<glyph glyph-name="iotadieresistonos" unicode="&#x390;" horiz-adv-x="823" d="M572 1534 L785 1534 L971 1912 L713 1912 L572 1534 Z M599 364 L715 1022 L304 1022 L267 813 L427 813 L347 360 C318 198 284 0 501 0 L630 0 L666 209 L633 209 C571 209 584 280 599 364 L599 364 Z M278 1327 C264 1246 319 1180 400 1180 C491 1180 558 1246 572 1327 C587 1408 532 1474 451 1474 C360 1474 293 1408 278 1327 L278 1327 Z M722 1327 C708 1246 763 1180 844 1180 C935 1180 1002 1246 1016 1327 C1031 1408 976 1474 895 1474 C804 1474 737 1408 722 1327 L722 1327 Z " />
<glyph glyph-name="Alpha" unicode="&#x391;" horiz-adv-x="1645" d="M1217 226 L1058 226 L1019 0 L1605 0 L1644 226 L1488 226 L1182 1434 L706 1434 L667 1208 L827 1208 L229 226 L79 226 L40 0 L630 0 L669 226 L515 226 L627 414 L1171 414 L1217 226 Z M1014 1063 L1117 641 L763 641 L1014 1063 Z " />
<glyph glyph-name="Beta" unicode="&#x392;" horiz-adv-x="1548" d="M100 0 L932 0 C1309 0 1503 146 1544 409 C1573 597 1483 704 1340 745 C1442 775 1588 870 1612 1053 C1639 1261 1550 1434 1184 1434 L352 1434 L313 1208 L473 1208 L299 226 L139 226 L100 0 Z M640 625 L1042 625 C1240 625 1296 549 1274 425 C1253 302 1179 226 971 226 L569 226 L640 625 Z M680 852 L743 1208 L1145 1208 C1293 1208 1357 1150 1336 1030 C1315 910 1230 852 1082 852 L680 852 Z " />
<glyph glyph-name="Gamma" unicode="&#x393;" horiz-adv-x="1400" d="M352 1434 L313 1208 L473 1208 L299 226 L139 226 L100 0 L690 0 L729 226 L569 226 L743 1208 L1243 1208 L1215 1053 L1485 1053 L1552 1434 L352 1434 Z " />
<glyph glyph-name="uni0394" unicode="&#x394;" horiz-adv-x="1645" d="M1605 0 L1644 226 L1488 226 L1182 1434 L706 1434 L667 1208 L827 1208 L229 226 L79 226 L40 0 L1605 0 Z M1014 1063 L1217 226 L515 226 L1014 1063 Z " />
<glyph glyph-name="Epsilon" unicode="&#x395;" horiz-adv-x="1427" d="M100 0 L1327 0 L1394 381 L1124 381 L1096 226 L569 226 L638 618 L1195 618 L1235 844 L678 844 L743 1208 L1260 1208 L1232 1053 L1502 1053 L1569 1434 L352 1434 L313 1208 L473 1208 L299 226 L139 226 L100 0 Z " />
<glyph glyph-name="Zeta" unicode="&#x396;" horiz-adv-x="1387" d="M1539 1434 L394 1434 L327 1053 L597 1053 L625 1208 L1104 1208 L123 134 L100 0 L1287 0 L1354 381 L1084 381 L1056 226 L535 226 L1516 1300 L1539 1434 Z " />
<glyph glyph-name="Eta" unicode="&#x397;" horiz-adv-x="1743" d="M743 1208 L903 1208 L942 1434 L352 1434 L313 1208 L473 1208 L299 226 L139 226 L100 0 L690 0 L729 226 L569 226 L638 618 L1321 618 L1252 226 L1092 226 L1053 0 L1643 0 L1682 226 L1522 226 L1696 1208 L1856 1208 L1895 1434 L1305 1434 L1266 1208 L1426 1208 L1361 844 L678 844 L743 1208 Z " />
<glyph glyph-name="Theta" unicode="&#x398;" horiz-adv-x="1678" d="M629 604 L1279 604 L1319 830 L669 830 L629 604 Z M1097 1464 C605 1464 277 1178 203 717 C135 295 371 -30 833 -30 C1325 -30 1653 256 1727 717 C1795 1139 1559 1464 1097 1464 L1097 1464 Z M477 717 C526 997 706 1238 1057 1238 C1408 1238 1502 997 1453 717 C1404 437 1224 196 873 196 C522 196 428 437 477 717 L477 717 Z " />
<glyph glyph-name="Iota" unicode="&#x399;" horiz-adv-x="730" d="M713 1208 L873 1208 L912 1434 L322 1434 L283 1208 L443 1208 L269 226 L109 226 L70 0 L660 0 L699 226 L539 226 L713 1208 Z " />
<glyph glyph-name="Kappa" unicode="&#x39a;" horiz-adv-x="1617" d="M743 1208 L903 1208 L942 1434 L352 1434 L313 1208 L473 1208 L299 226 L139 226 L100 0 L690 0 L729 226 L569 226 L624 535 L821 677 L1145 0 L1472 0 L1511 226 L1351 226 L1050 841 L1561 1208 L1685 1208 L1724 1434 L1134 1434 L1095 1208 L1204 1208 L676 830 L743 1208 Z " />
<glyph glyph-name="Lambda" unicode="&#x39b;" horiz-adv-x="1645" d="M1014 1063 L1217 226 L1058 226 L1019 0 L1605 0 L1644 226 L1488 226 L1182 1434 L706 1434 L667 1208 L827 1208 L229 226 L79 226 L40 0 L630 0 L669 226 L515 226 L1014 1063 Z " />
<glyph glyph-name="Mu" unicode="&#x39c;" horiz-adv-x="2104" d="M2057 1208 L2217 1208 L2256 1434 L1715 1434 L1113 420 L867 1434 L352 1434 L313 1208 L472 1208 L299 226 L139 226 L100 0 L690 0 L729 226 L569 226 L708 1014 L952 0 L1152 0 L1752 1014 L1613 226 L1453 226 L1414 0 L2004 0 L2043 226 L1883 226 L2057 1208 Z " />
<glyph glyph-name="Nu" unicode="&#x39d;" horiz-adv-x="1777" d="M299 226 L139 226 L100 0 L690 0 L729 226 L570 226 L717 1059 L1206 0 L1517 0 L1730 1208 L1890 1208 L1929 1434 L1339 1434 L1300 1208 L1459 1208 L1312 375 L823 1434 L352 1434 L313 1208 L472 1208 L299 226 Z " />
<glyph glyph-name="Xi" unicode="&#x39e;" horiz-adv-x="1220" d="M293 1208 L1353 1208 L1392 1434 L332 1434 L293 1208 Z M80 0 L1140 0 L1179 226 L119 226 L80 0 Z M292 618 L1144 618 L1184 845 L332 845 L292 618 Z " />
<glyph glyph-name="Omicron" unicode="&#x39f;" horiz-adv-x="1678" d="M1097 1464 C605 1464 277 1178 203 717 C135 295 371 -30 833 -30 C1325 -30 1653 256 1727 717 C1795 1139 1559 1464 1097 1464 L1097 1464 Z M477 717 C526 997 706 1238 1057 1238 C1408 1238 1502 997 1453 717 C1404 437 1224 196 873 196 C522 196 428 437 477 717 L477 717 Z " />
<glyph glyph-name="Pi" unicode="&#x3a0;" horiz-adv-x="1737" d="M1246 226 L1086 226 L1047 0 L1637 0 L1676 226 L1516 226 L1690 1208 L1850 1208 L1889 1434 L352 1434 L313 1208 L473 1208 L299 226 L139 226 L100 0 L690 0 L729 226 L569 226 L743 1208 L1420 1208 L1246 226 Z " />
<glyph glyph-name="Rho" unicode="&#x3a1;" horiz-adv-x="1503" d="M299 226 L139 226 L100 0 L690 0 L729 226 L569 226 L613 474 L979 474 C1283 474 1555 622 1597 954 C1634 1247 1448 1434 1148 1434 L352 1434 L313 1208 L472 1208 L299 226 Z M1109 1208 C1295 1208 1348 1088 1325 954 C1301 820 1205 700 1019 700 L653 700 L743 1208 L1109 1208 Z " />
<glyph glyph-name="Sigma" unicode="&#x3a3;" horiz-adv-x="1311" d="M360 1434 L337 1302 L642 728 L123 134 L100 0 L1211 0 L1278 381 L1008 381 L980 226 L536 226 L942 697 L671 1208 L1154 1208 L1126 1053 L1396 1053 L1463 1434 L360 1434 Z " />
<glyph glyph-name="Tau" unicode="&#x3a4;" horiz-adv-x="1508" d="M1102 1208 L1351 1208 L1323 1053 L1593 1053 L1660 1434 L352 1434 L285 1053 L555 1053 L583 1208 L832 1208 L658 226 L498 226 L459 0 L1049 0 L1088 226 L928 226 L1102 1208 Z " />
<glyph glyph-name="Upsilon" unicode="&#x3a5;" horiz-adv-x="1546" d="M739 548 L682 226 L522 226 L483 0 L1073 0 L1112 226 L952 226 L1009 547 L1575 1208 L1719 1208 L1758 1434 L1168 1434 L1129 1208 L1277 1208 L904 763 L688 1208 L843 1208 L882 1434 L292 1434 L253 1208 L407 1208 L739 548 Z " />
<glyph glyph-name="Phi" unicode="&#x3a6;" horiz-adv-x="1545" d="M676 226 L516 226 L477 0 L1067 0 L1106 226 L946 226 L955 275 C1290 295 1554 404 1594 717 C1632 1017 1434 1138 1111 1159 L1120 1208 L1280 1208 L1319 1434 L729 1434 L690 1208 L850 1208 L841 1159 C506 1139 242 1030 202 717 C164 417 362 296 684 275 L676 226 Z M1071 933 C1238 921 1352 876 1324 717 C1296 558 1166 513 995 501 L1071 933 Z M472 717 C500 876 630 921 801 933 L724 501 C558 513 444 558 472 717 L472 717 Z " />
<glyph glyph-name="Chi" unicode="&#x3a7;" horiz-adv-x="1463" d="M882 964 L613 1434 L311 1434 L272 1208 L431 1208 L690 755 L216 226 L79 226 L40 0 L630 0 L669 226 L558 226 L821 519 L1122 0 L1429 0 L1468 226 L1299 226 L1012 727 L1443 1208 L1571 1208 L1610 1434 L1020 1434 L981 1208 L1100 1208 L882 964 Z " />
<glyph glyph-name="Psi" unicode="&#x3a8;" horiz-adv-x="1720" d="M764 226 L604 226 L565 0 L1155 0 L1194 226 L1034 226 L1075 458 C1401 512 1615 696 1744 1208 L1893 1208 L1932 1434 L1522 1434 C1448 1014 1316 734 1115 685 L1208 1208 L1368 1208 L1407 1434 L817 1434 L778 1208 L937 1208 L845 685 C642 734 628 1014 702 1434 L292 1434 L253 1208 L402 1208 C362 696 556 512 805 458 L764 226 Z " />
</font>
</svg>
