<?xml version="1.0" encoding="UTF-8"?>
<svg xmlns="http://www.w3.org/2000/svg" xmlns:xlink="http://www.w3.org/1999/xlink" version="1.2" >
<font id="Artegra Slab Medium">
<font-face  font-family="Artegra Slab" units-per-em="2048" ascent="1516" descent="-532" font-style="normal" font-weight="500" font-stretch="normal" cap-height="1434" x-height="1014" underline-position="-154" underline-thickness="102" />
<missing-glyph  horiz-adv-x="922" d="" />
<glyph glyph-name="NULL" d="" />
<glyph glyph-name="CR" unicode="&#xd;" horiz-adv-x="922" d="" />
<glyph glyph-name="space" unicode="&#x20;" horiz-adv-x="573" d="" />
<glyph glyph-name="exclam" unicode="&#x21;" horiz-adv-x="538" d="M185 371 L354 371 L369 1434 L170 1434 L185 371 Z M150 109 C150 43 203 -10 269 -10 C335 -10 388 43 388 109 C388 175 335 228 269 228 C203 228 150 175 150 109 L150 109 Z " />
<glyph glyph-name="quotedbl" unicode="&#x22;" horiz-adv-x="588" d="M58 977 L227 977 L244 1434 L40 1434 L58 977 Z M361 977 L531 977 L548 1434 L344 1434 L361 977 Z " />
<glyph glyph-name="numbersign" unicode="&#x23;" horiz-adv-x="1395" d="M734 0 L923 0 L982 372 L1222 372 L1222 542 L1009 542 L1064 892 L1305 892 L1305 1062 L1091 1062 L1151 1434 L963 1434 L903 1062 L602 1062 L662 1434 L473 1434 L413 1062 L174 1062 L174 892 L386 892 L330 542 L90 542 L90 372 L303 372 L244 0 L433 0 L492 372 L793 372 L734 0 Z M575 892 L876 892 L820 542 L519 542 L575 892 Z " />
<glyph glyph-name="dollar" unicode="&#x24;" horiz-adv-x="1359" d="M329 349 L130 349 L130 109 C130 109 295 4 594 -16 L594 -219 L759 -219 L759 -18 C1060 -2 1229 133 1229 394 C1229 646 1055 758 697 833 C451 885 352 948 352 1079 C352 1209 447 1288 661 1288 C846 1288 954 1250 954 1250 L954 1095 L1153 1095 L1153 1358 C1153 1358 1003 1433 759 1450 L759 1653 L594 1653 L594 1452 C261 1431 153 1251 153 1079 C153 874 287 733 662 655 C936 598 1030 529 1030 394 C1030 260 967 146 697 146 C476 146 329 208 329 208 L329 349 Z " />
<glyph glyph-name="ampersand" unicode="&#x26;" horiz-adv-x="1469" d="M1379 0 L1379 166 L1316 166 C1145 166 1031 266 1031 266 C1079 338 1126 452 1161 575 L1310 575 L1310 741 L1001 741 C980 590 928 468 881 390 C786 476 668 598 582 716 L689 806 C816 906 883 1016 883 1139 C883 1317 781 1454 558 1454 C340 1454 213 1318 213 1096 C213 963 265 851 324 759 C189 650 90 531 90 356 C90 85 290 -20 534 -20 C699 -20 820 30 912 118 C912 118 1034 0 1316 0 L1379 0 Z M289 356 C289 464 358 549 429 601 C531 474 659 339 768 242 C724 196 646 146 531 146 C397 146 289 217 289 356 L289 356 Z M482 871 C434 939 412 1015 412 1096 C412 1229 473 1288 558 1288 C668 1288 684 1200 684 1139 C684 1069 652 1002 573 945 L482 871 Z " />
<glyph glyph-name="quotesingle" unicode="&#x27;" horiz-adv-x="284" d="M58 977 L227 977 L244 1434 L40 1434 L58 977 Z " />
<glyph glyph-name="parenleft" unicode="&#x28;" horiz-adv-x="794" d="M309 597 C309 1215 724 1330 724 1330 L658 1508 C658 1508 110 1375 110 597 C110 -181 658 -314 658 -314 L724 -136 C724 -136 309 -21 309 597 L309 597 Z " />
<glyph glyph-name="parenright" unicode="&#x29;" horiz-adv-x="794" d="M485 597 C485 -21 70 -136 70 -136 L136 -314 C136 -314 684 -181 684 597 C684 1375 136 1508 136 1508 L70 1330 C70 1330 485 1215 485 597 L485 597 Z " />
<glyph glyph-name="asterisk" unicode="&#x2a;" horiz-adv-x="900" d="M593 708 L744 819 L570 1019 L830 1089 L777 1267 L529 1170 L543 1434 L357 1434 L371 1170 L123 1267 L70 1089 L330 1019 L156 819 L307 708 L450 926 L593 708 Z " />
<glyph glyph-name="plus" unicode="&#x2b;" horiz-adv-x="1121" d="M1031 774 L648 774 L648 1160 L470 1160 L470 774 L90 774 L90 608 L470 608 L470 220 L648 220 L648 608 L1031 608 L1031 774 Z " />
<glyph glyph-name="comma" unicode="&#x2c;" horiz-adv-x="532" d="M70 -221 L253 -221 L442 215 L224 215 L70 -221 Z " />
<glyph glyph-name="hyphen" unicode="&#x2d;" horiz-adv-x="835" d="M90 475 L745 475 L745 630 L90 630 L90 475 Z " />
<glyph glyph-name="period" unicode="&#x2e;" horiz-adv-x="418" d="M90 109 C90 43 143 -10 209 -10 C275 -10 328 43 328 109 C328 175 275 228 209 228 C143 228 90 175 90 109 L90 109 Z " />
<glyph glyph-name="slash" unicode="&#x2f;" horiz-adv-x="1085" d="M110 0 L316 0 L975 1434 L769 1434 L110 0 Z " />
<glyph glyph-name="zero" unicode="0" horiz-adv-x="1334" d="M667 -20 C1059 -20 1244 310 1244 717 C1244 1124 1059 1454 667 1454 C275 1454 90 1124 90 717 C90 310 275 -20 667 -20 L667 -20 Z M667 146 C407 146 303 409 303 717 C303 1025 407 1288 667 1288 C927 1288 1031 1025 1031 717 C1031 409 927 146 667 146 L667 146 Z " />
<glyph glyph-name="one" unicode="1" horiz-adv-x="801" d="M370 1125 L370 166 L228 166 L228 0 L711 0 L711 166 L569 166 L569 1434 L418 1434 L40 1092 L171 945 L370 1125 Z " />
<glyph glyph-name="two" unicode="2" horiz-adv-x="1190" d="M297 1065 C319 1125 388 1288 604 1288 C795 1288 865 1200 865 1064 C865 971 798 868 700 762 L110 124 L110 0 L1080 0 L1080 339 L881 339 L881 166 L405 166 L824 618 C954 768 1064 902 1064 1064 C1064 1316 880 1454 604 1454 C248 1454 144 1203 124 1129 L297 1065 Z " />
<glyph glyph-name="three" unicode="3" horiz-adv-x="1207" d="M120 1201 L120 1055 L319 1055 L319 1176 C359 1226 439 1288 592 1288 C798 1288 886 1208 886 1066 C886 863 701 818 468 818 L468 652 C729 652 918 614 918 402 C918 251 822 146 582 146 C413 146 331 206 289 258 L289 379 L90 379 L90 233 C137 110 261 -20 582 -20 C905 -20 1117 120 1117 402 C1117 612 971 710 828 742 C911 758 1085 843 1085 1066 C1085 1326 879 1454 592 1454 C286 1454 159 1290 120 1201 L120 1201 Z " />
<glyph glyph-name="four" unicode="4" horiz-adv-x="1310" d="M1167 0 L1167 166 L1025 166 L1025 359 L1220 359 L1220 525 L1025 525 L1025 1434 L843 1434 L110 486 L110 359 L826 359 L826 166 L684 166 L684 0 L1167 0 Z M371 525 L826 1113 L826 525 L371 525 Z " />
<glyph glyph-name="five" unicode="5" horiz-adv-x="1220" d="M1019 1434 L179 1434 L130 635 C130 635 315 770 604 770 C847 770 921 624 921 457 C921 294 847 146 604 146 C466 146 370 178 309 214 L309 336 L110 336 L110 152 C172 84 307 -20 604 -20 C985 -20 1110 213 1110 457 C1110 704 985 936 604 936 C502 936 386 918 333 894 L356 1268 L1019 1268 L1019 1434 Z " />
<glyph glyph-name="six" unicode="6" horiz-adv-x="1271" d="M1034 1394 C568 1591 34 1318 119 478 C146 212 294 -20 640 -20 C992 -20 1161 226 1161 484 C1161 741 992 986 640 986 C506 986 372 923 310 795 C342 1121 525 1334 835 1277 L835 1158 L1034 1158 L1034 1394 Z M962 484 C962 315 862 146 640 146 C416 146 318 315 318 484 C318 653 416 820 640 820 C862 820 962 653 962 484 L962 484 Z " />
<glyph glyph-name="seven" unicode="7" horiz-adv-x="1197" d="M425 166 L283 166 L283 0 L766 0 L766 166 L624 166 L1087 1300 L1087 1434 L110 1434 L110 1095 L309 1095 L309 1268 L875 1268 L425 166 Z " />
<glyph glyph-name="eight" unicode="8" horiz-adv-x="1268" d="M634 -20 C952 -20 1178 122 1178 412 C1178 567 1083 697 951 751 C1045 792 1135 919 1135 1051 C1135 1299 936 1454 634 1454 C332 1454 133 1299 133 1051 C133 919 223 792 317 751 C185 697 90 567 90 412 C90 122 316 -20 634 -20 L634 -20 Z M634 146 C403 146 289 261 289 412 C289 563 403 678 634 678 C865 678 979 563 979 412 C979 261 865 146 634 146 L634 146 Z M634 814 C443 814 332 913 332 1051 C332 1189 443 1288 634 1288 C825 1288 936 1189 936 1051 C936 913 825 814 634 814 L634 814 Z " />
<glyph glyph-name="nine" unicode="9" horiz-adv-x="1271" d="M237 40 C703 -157 1237 116 1152 956 C1125 1222 977 1454 631 1454 C279 1454 110 1208 110 950 C110 693 279 448 631 448 C765 448 899 511 961 639 C929 313 746 100 436 157 L436 276 L237 276 L237 40 Z M309 950 C309 1119 409 1288 631 1288 C855 1288 953 1119 953 950 C953 781 855 614 631 614 C409 614 309 781 309 950 L309 950 Z " />
<glyph glyph-name="colon" unicode="&#x3a;" horiz-adv-x="418" d="M90 109 C90 43 143 -10 209 -10 C275 -10 328 43 328 109 C328 175 275 228 209 228 C143 228 90 175 90 109 L90 109 Z M90 905 C90 839 143 786 209 786 C275 786 328 839 328 905 C328 971 275 1024 209 1024 C143 1024 90 971 90 905 L90 905 Z " />
<glyph glyph-name="semicolon" unicode="&#x3b;" horiz-adv-x="478" d="M150 905 C150 839 203 786 269 786 C335 786 388 839 388 905 C388 971 335 1024 269 1024 C203 1024 150 971 150 905 L150 905 Z M-10 -221 L173 -221 L362 215 L144 215 L-10 -221 Z " />
<glyph glyph-name="less" unicode="&#x3c;" horiz-adv-x="1117" d="M90 667 L90 533 L1007 61 L1007 271 L331 600 L1007 929 L1007 1139 L90 667 Z " />
<glyph glyph-name="equal" unicode="&#x3d;" horiz-adv-x="977" d="M90 419 L887 419 L887 585 L90 585 L90 419 Z M90 743 L887 743 L887 909 L90 909 L90 743 Z " />
<glyph glyph-name="greater" unicode="&#x3e;" horiz-adv-x="1117" d="M110 1139 L110 929 L786 600 L110 271 L110 61 L1027 533 L1027 667 L110 1139 Z " />
<glyph glyph-name="question" unicode="&#x3f;" horiz-adv-x="1086" d="M222 1103 C258 1161 336 1288 538 1288 C711 1288 817 1210 817 1064 C817 882 662 795 403 791 L403 371 L602 371 L602 665 C933 720 1016 917 1016 1064 C1016 1259 884 1454 538 1454 C233 1454 109 1270 70 1189 L222 1103 Z M384 108 C384 42 436 -10 502 -10 C568 -10 621 42 621 108 C621 174 568 227 502 227 C436 227 384 174 384 108 L384 108 Z " />
<glyph glyph-name="at" unicode="&#x40;" horiz-adv-x="1680" d="M1265 185 C1486 185 1590 321 1590 517 C1590 963 1245 1254 840 1254 C435 1254 90 963 90 517 C90 71 435 -220 840 -220 C1119 -220 1301 -144 1409 -39 L1288 88 C1198 8 1056 -54 840 -54 C541 -54 289 158 289 517 C289 876 541 1088 840 1088 C1138 1088 1391 876 1391 517 C1391 403 1336 351 1255 351 C1161 351 1133 426 1135 527 C1137 619 1145 727 1154 839 C1062 885 972 908 860 908 C744 908 504 844 467 527 C438 220 635 127 773 127 C925 127 1008 228 1038 329 C1058 258 1131 185 1265 185 L1265 185 Z M653 516 C675 715 810 781 983 728 C983 728 979 629 968 542 C947 364 885 293 795 293 C690 293 638 379 653 516 L653 516 Z " />
<glyph glyph-name="A" unicode="A" horiz-adv-x="1664" d="M1250 166 L1097 166 L1097 0 L1614 0 L1614 166 L1460 166 L918 1434 L516 1434 L516 1268 L675 1268 L204 166 L50 166 L50 0 L567 0 L567 166 L413 166 L527 439 L1136 439 L1250 166 Z M832 1168 L1067 605 L596 605 L832 1168 Z " />
<glyph glyph-name="B" unicode="B" horiz-adv-x="1526" d="M913 0 C1319 0 1436 211 1436 407 C1436 543 1370 693 1185 747 C1333 807 1380 928 1380 1041 C1380 1221 1278 1434 893 1434 L110 1434 L110 1268 L269 1268 L269 166 L110 166 L110 0 L913 0 Z M913 648 C1169 648 1225 529 1225 407 C1225 285 1169 166 913 166 L468 166 L468 648 L913 648 Z M468 814 L468 1268 L893 1268 C1114 1268 1169 1160 1169 1041 C1169 922 1114 814 893 814 L468 814 Z " />
<glyph glyph-name="C" unicode="C" horiz-adv-x="1433" d="M1323 1356 C1323 1356 1136 1454 829 1454 C358 1454 90 1139 90 717 C90 295 358 -20 829 -20 C1048 -20 1214 38 1323 130 L1225 264 C1144 206 1020 146 829 146 C481 146 303 397 303 717 C303 1037 481 1288 829 1288 C1000 1288 1124 1246 1124 1246 L1124 1095 L1323 1095 L1323 1356 Z " />
<glyph glyph-name="D" unicode="D" horiz-adv-x="1546" d="M1476 717 C1476 1150 1249 1434 779 1434 L110 1434 L110 1268 L269 1268 L269 166 L110 166 L110 0 L779 0 C1249 0 1476 283 1476 717 L1476 717 Z M468 1268 L779 1268 C1127 1268 1271 1035 1271 717 C1271 399 1127 166 779 166 L468 166 L468 1268 Z " />
<glyph glyph-name="E" unicode="E" horiz-adv-x="1366" d="M110 0 L1256 0 L1256 339 L1057 339 L1057 166 L468 166 L468 649 L1050 649 L1050 815 L468 815 L468 1268 L1047 1268 L1047 1095 L1246 1095 L1246 1434 L110 1434 L110 1268 L269 1268 L269 166 L110 166 L110 0 Z " />
<glyph glyph-name="F" unicode="F" horiz-adv-x="1356" d="M468 1268 L1047 1268 L1047 1095 L1246 1095 L1246 1434 L110 1434 L110 1268 L269 1268 L269 166 L110 166 L110 0 L627 0 L627 166 L468 166 L468 649 L1050 649 L1050 815 L468 815 L468 1268 Z " />
<glyph glyph-name="G" unicode="G" horiz-adv-x="1503" d="M1393 1333 C1393 1333 1200 1454 829 1454 C358 1454 90 1139 90 717 C90 295 358 -20 829 -20 C1060 -20 1264 35 1393 156 L1393 815 L849 815 L849 628 L1194 628 L1194 238 C1112 176 985 146 829 146 C481 146 303 397 303 717 C303 1037 481 1288 829 1288 C1056 1288 1194 1230 1194 1230 L1194 1095 L1393 1095 L1393 1333 Z " />
<glyph glyph-name="H" unicode="H" horiz-adv-x="1699" d="M1231 816 L468 816 L468 1268 L627 1268 L627 1434 L110 1434 L110 1268 L269 1268 L269 166 L110 166 L110 0 L627 0 L627 166 L468 166 L468 650 L1231 650 L1231 166 L1072 166 L1072 0 L1589 0 L1589 166 L1430 166 L1430 1268 L1589 1268 L1589 1434 L1072 1434 L1072 1268 L1231 1268 L1231 816 Z " />
<glyph glyph-name="I" unicode="I" horiz-adv-x="737" d="M468 1268 L627 1268 L627 1434 L110 1434 L110 1268 L269 1268 L269 166 L110 166 L110 0 L627 0 L627 166 L468 166 L468 1268 Z " />
<glyph glyph-name="J" unicode="J" horiz-adv-x="1236" d="M967 452 L967 1268 L1126 1268 L1126 1434 L609 1434 L609 1268 L768 1268 L768 452 C768 241 704 146 509 146 C359 146 292 220 251 318 L70 267 C122 108 239 -20 509 -20 C818 -20 967 120 967 452 L967 452 Z " />
<glyph glyph-name="K" unicode="K" horiz-adv-x="1519" d="M468 1268 L627 1268 L627 1434 L110 1434 L110 1268 L269 1268 L269 166 L110 166 L110 0 L627 0 L627 166 L468 166 L468 487 L670 682 L1136 0 L1409 0 L1409 166 L1250 166 L806 813 L1278 1268 L1409 1268 L1409 1434 L892 1434 L892 1268 L1021 1268 L468 731 L468 1268 Z " />
<glyph glyph-name="L" unicode="L" horiz-adv-x="1300" d="M468 1268 L627 1268 L627 1434 L110 1434 L110 1268 L269 1268 L269 166 L110 166 L110 0 L1190 0 L1190 339 L991 339 L991 166 L468 166 L468 1268 Z " />
<glyph glyph-name="M" unicode="M" horiz-adv-x="2040" d="M1572 166 L1413 166 L1413 0 L1930 0 L1930 166 L1771 166 L1771 1268 L1930 1268 L1930 1434 L1519 1434 L1020 285 L521 1434 L110 1434 L110 1268 L269 1268 L269 166 L110 166 L110 0 L627 0 L627 166 L468 166 L468 1069 L934 0 L1106 0 L1572 1069 L1572 166 Z " />
<glyph glyph-name="N" unicode="N" horiz-adv-x="1726" d="M110 0 L627 0 L627 166 L468 166 L468 1132 L1230 0 L1457 0 L1457 1268 L1616 1268 L1616 1434 L1099 1434 L1099 1268 L1258 1268 L1258 302 L496 1434 L110 1434 L110 1268 L269 1268 L269 166 L110 166 L110 0 Z " />
<glyph glyph-name="O" unicode="O" horiz-adv-x="1658" d="M829 -20 C1300 -20 1568 295 1568 717 C1568 1139 1300 1454 829 1454 C358 1454 90 1139 90 717 C90 295 358 -20 829 -20 L829 -20 Z M829 146 C481 146 303 397 303 717 C303 1037 481 1288 829 1288 C1177 1288 1355 1037 1355 717 C1355 397 1177 146 829 146 L829 146 Z " />
<glyph glyph-name="P" unicode="P" horiz-adv-x="1473" d="M627 0 L627 166 L468 166 L468 526 L878 526 C1215 526 1383 698 1383 980 C1383 1264 1215 1434 878 1434 L110 1434 L110 1268 L269 1268 L269 166 L110 166 L110 0 L627 0 Z M468 1268 L878 1268 C1103 1268 1174 1140 1174 980 C1174 820 1103 692 878 692 L468 692 L468 1268 Z " />
<glyph glyph-name="Q" unicode="Q" horiz-adv-x="1658" d="M829 -20 C937 -20 1035 -3 1121 27 L1223 -90 L1465 -90 L1281 110 C1467 240 1568 458 1568 717 C1568 1139 1300 1454 829 1454 C358 1454 90 1139 90 717 C90 295 358 -20 829 -20 L829 -20 Z M829 146 C481 146 303 397 303 717 C303 1037 481 1288 829 1288 C1177 1288 1355 1037 1355 717 C1355 520 1287 349 1154 247 L1033 379 L817 379 L999 169 C948 154 891 146 829 146 L829 146 Z " />
<glyph glyph-name="R" unicode="R" horiz-adv-x="1511" d="M627 0 L627 166 L468 166 L468 586 L781 586 L1124 0 L1401 0 L1401 166 L1242 166 L994 591 C1210 630 1370 772 1370 1010 C1370 1258 1208 1434 878 1434 L110 1434 L110 1268 L269 1268 L269 166 L110 166 L110 0 L627 0 Z M468 1268 L878 1268 C1077 1268 1161 1175 1161 1010 C1161 865 1077 752 878 752 L468 752 L468 1268 Z " />
<glyph glyph-name="S" unicode="S" horiz-adv-x="1359" d="M329 349 L130 349 L130 109 C130 109 333 -20 697 -20 C1037 -20 1229 116 1229 394 C1229 646 1055 758 697 833 C451 885 352 948 352 1079 C352 1209 447 1288 661 1288 C846 1288 954 1250 954 1250 L954 1095 L1153 1095 L1153 1358 C1153 1358 962 1454 661 1454 C276 1454 153 1262 153 1079 C153 874 287 733 662 655 C936 598 1030 529 1030 394 C1030 260 967 146 697 146 C476 146 329 208 329 208 L329 349 Z " />
<glyph glyph-name="T" unicode="T" horiz-adv-x="1487" d="M843 1268 L1178 1268 L1178 1095 L1377 1095 L1377 1434 L110 1434 L110 1095 L309 1095 L309 1268 L644 1268 L644 166 L485 166 L485 0 L1002 0 L1002 166 L843 166 L843 1268 Z " />
<glyph glyph-name="U" unicode="U" horiz-adv-x="1732" d="M468 622 L468 1268 L627 1268 L627 1434 L110 1434 L110 1268 L269 1268 L269 622 C269 226 454 -20 866 -20 C1278 -20 1463 226 1463 622 L1463 1268 L1622 1268 L1622 1434 L1105 1434 L1105 1268 L1264 1268 L1264 622 C1264 353 1166 146 866 146 C566 146 468 353 468 622 L468 622 Z " />
<glyph glyph-name="V" unicode="V" horiz-adv-x="1628" d="M728 0 L900 0 L1424 1268 L1578 1268 L1578 1434 L1061 1434 L1061 1268 L1215 1268 L814 266 L412 1268 L567 1268 L567 1434 L50 1434 L50 1268 L203 1268 L728 0 Z " />
<glyph glyph-name="W" unicode="W" horiz-adv-x="2200" d="M620 0 L787 0 L1100 1190 L1413 0 L1580 0 L1995 1268 L2150 1268 L2150 1434 L1633 1434 L1633 1268 L1788 1268 L1503 381 L1227 1434 L973 1434 L697 381 L411 1268 L567 1268 L567 1434 L50 1434 L50 1268 L204 1268 L620 0 Z " />
<glyph glyph-name="X" unicode="X" horiz-adv-x="1494" d="M351 1434 L79 1434 L79 1268 L237 1268 L616 748 L191 166 L50 166 L50 0 L567 0 L567 166 L425 166 L738 594 L1173 0 L1444 0 L1444 166 L1285 166 L860 748 L1239 1268 L1381 1268 L1381 1434 L864 1434 L864 1268 L1005 1268 L738 902 L351 1434 Z " />
<glyph glyph-name="Y" unicode="Y" horiz-adv-x="1485" d="M643 594 L643 166 L484 166 L484 0 L1001 0 L1001 166 L842 166 L842 594 L1291 1268 L1435 1268 L1435 1434 L918 1434 L918 1268 L1060 1268 L742 780 L424 1268 L567 1268 L567 1434 L50 1434 L50 1268 L193 1268 L643 594 Z " />
<glyph glyph-name="Z" unicode="Z" horiz-adv-x="1344" d="M1234 1434 L135 1434 L135 1095 L334 1095 L334 1268 L950 1268 L110 97 L110 0 L1234 0 L1234 339 L1035 339 L1035 166 L395 166 L1234 1337 L1234 1434 Z " />
<glyph glyph-name="bracketleft" unicode="&#x5b;" horiz-adv-x="722" d="M339 1268 L622 1268 L622 1434 L140 1434 L140 -329 L622 -329 L622 -163 L339 -163 L339 1268 Z " />
<glyph glyph-name="backslash" unicode="&#x5c;" horiz-adv-x="1085" d="M315 1434 L110 1434 L770 0 L975 0 L315 1434 Z " />
<glyph glyph-name="bracketright" unicode="&#x5d;" horiz-adv-x="722" d="M383 -163 L100 -163 L100 -329 L582 -329 L582 1434 L100 1434 L100 1268 L383 1268 L383 -163 Z " />
<glyph glyph-name="asciicircum" unicode="&#x5e;" horiz-adv-x="1028" d="M727 835 L938 835 L579 1434 L449 1434 L90 835 L301 835 L514 1172 L727 835 Z " />
<glyph glyph-name="underscore" unicode="&#x5f;" horiz-adv-x="1177" d="M110 -264 L1067 -264 L1067 -109 L110 -109 L110 -264 Z " />
<glyph glyph-name="grave" unicode="&#x60;" horiz-adv-x="635" d="M302 1434 L70 1434 L375 1135 L565 1135 L302 1434 Z " />
<glyph glyph-name="a" unicode="a" horiz-adv-x="1248" d="M578 879 C773 879 808 798 810 657 C496 687 70 640 70 308 C70 98 229 -20 482 -20 C664 -20 766 64 810 169 L810 0 L1158 0 L1158 155 L999 155 L999 620 C999 812 969 1034 578 1034 C443 1034 280 999 165 931 L238 799 C334 846 456 879 578 879 L578 879 Z M266 308 C266 537 617 553 810 527 L810 447 C810 283 711 135 492 135 C332 135 266 206 266 308 L266 308 Z " />
<glyph glyph-name="b" unicode="b" horiz-adv-x="1381" d="M438 0 L438 201 C513 48 672 -20 808 -20 C1125 -20 1311 216 1311 507 C1311 797 1125 1034 808 1034 C672 1034 513 966 438 813 L438 1516 L90 1516 L90 1361 L249 1361 L249 0 L438 0 Z M778 879 C1015 879 1118 686 1118 507 C1118 327 1015 135 778 135 C541 135 438 327 438 507 C438 686 541 879 778 879 L778 879 Z " />
<glyph glyph-name="c" unicode="c" horiz-adv-x="1121" d="M1011 948 C1011 948 870 1034 623 1034 C277 1034 70 808 70 507 C70 206 277 -20 623 -20 C776 -20 907 12 1011 111 L917 232 C843 174 744 135 623 135 C378 135 265 314 265 507 C265 700 378 879 623 879 C750 879 822 850 822 850 L822 710 L1011 710 L1011 948 L1011 948 Z " />
<glyph glyph-name="d" unicode="d" horiz-adv-x="1381" d="M1291 0 L1291 155 L1132 155 L1132 1516 L784 1516 L784 1361 L943 1361 L943 813 C868 966 709 1034 573 1034 C256 1034 70 797 70 507 C70 216 256 -20 573 -20 C709 -20 868 48 943 201 L943 0 L1291 0 Z M603 879 C840 879 943 686 943 507 C943 327 840 135 603 135 C366 135 263 327 263 507 C263 686 366 879 603 879 L603 879 Z " />
<glyph glyph-name="e" unicode="e" horiz-adv-x="1159" d="M580 135 C392 135 283 269 273 414 L1088 414 C1098 822 896 1034 580 1034 C261 1034 70 808 70 507 C70 205 261 -20 580 -20 C804 -20 944 62 1019 137 L905 249 C830 190 729 135 580 135 L580 135 Z M274 579 C286 720 365 879 580 879 C795 879 874 720 886 579 L274 579 Z " />
<glyph glyph-name="f" unicode="f" horiz-adv-x="833" d="M261 859 L261 155 L102 155 L102 0 L609 0 L609 155 L450 155 L450 859 L743 859 L743 1014 L450 1014 C450 1273 467 1381 605 1381 C664 1381 721 1367 758 1355 L813 1493 C756 1520 674 1536 595 1536 C320 1536 261 1364 261 1014 L70 1014 L70 859 L261 859 Z " />
<glyph glyph-name="g" unicode="g" horiz-adv-x="1381" d="M943 20 C943 -225 865 -377 597 -377 C472 -377 355 -338 259 -280 L155 -407 C265 -490 441 -532 597 -532 C917 -532 1132 -403 1132 20 L1132 859 L1291 859 L1291 1014 L943 1014 L943 813 C868 966 709 1034 573 1034 C256 1034 70 797 70 507 C70 216 256 -20 573 -20 C709 -20 868 48 943 201 L943 20 Z M603 879 C840 879 943 686 943 507 C943 327 840 135 603 135 C366 135 263 327 263 507 C263 686 366 879 603 879 L603 879 Z " />
<glyph glyph-name="h" unicode="h" horiz-adv-x="1437" d="M249 1361 L249 155 L90 155 L90 0 L597 0 L597 155 L438 155 L438 545 C438 724 498 879 719 879 C939 879 999 724 999 545 L999 0 L1347 0 L1347 155 L1188 155 L1188 545 C1188 837 1047 1034 729 1034 C578 1034 471 955 438 861 L438 1516 L90 1516 L90 1361 L249 1361 Z " />
<glyph glyph-name="i" unicode="i" horiz-adv-x="687" d="M222 1312 C222 1245 276 1191 343 1191 C410 1191 465 1245 465 1312 C465 1379 410 1434 343 1434 C276 1434 222 1379 222 1312 L222 1312 Z M438 155 L438 1014 L90 1014 L90 859 L249 859 L249 155 L90 155 L90 0 L597 0 L597 155 L438 155 Z " />
<glyph glyph-name="j" unicode="j" horiz-adv-x="522" d="M-130 -491 C-89 -510 -16 -532 61 -532 C336 -532 385 -344 385 -47 L385 1014 L37 1014 L37 859 L196 859 L196 -47 C196 -273 180 -377 61 -377 C8 -377 -39 -365 -77 -351 L-130 -491 Z M169 1312 C169 1245 223 1191 290 1191 C357 1191 412 1245 412 1312 C412 1379 357 1434 290 1434 C223 1434 169 1379 169 1312 L169 1312 Z " />
<glyph glyph-name="k" unicode="k" horiz-adv-x="1281" d="M438 155 L438 349 L588 473 L949 0 L1191 0 L1191 155 L1055 155 L727 588 L1056 859 L1183 859 L1183 1014 L676 1014 L676 859 L794 859 L438 565 L438 1516 L90 1516 L90 1361 L249 1361 L249 155 L90 155 L90 0 L597 0 L597 155 L438 155 Z " />
<glyph glyph-name="l" unicode="l" horiz-adv-x="687" d="M438 155 L438 1516 L90 1516 L90 1361 L249 1361 L249 155 L90 155 L90 0 L597 0 L597 155 L438 155 Z " />
<glyph glyph-name="m" unicode="m" horiz-adv-x="2013" d="M438 155 L438 570 C438 764 515 879 675 879 C835 879 912 764 912 570 L912 0 L1260 0 L1260 155 L1101 155 L1101 570 C1101 764 1178 879 1338 879 C1498 879 1575 764 1575 570 L1575 0 L1923 0 L1923 155 L1764 155 L1764 570 C1764 873 1626 1034 1358 1034 C1190 1034 1094 921 1049 839 C983 971 863 1034 695 1034 C557 1034 469 957 438 872 L438 1014 L90 1014 L90 859 L249 859 L249 155 L90 155 L90 0 L597 0 L597 155 L438 155 Z " />
<glyph glyph-name="n" unicode="n" horiz-adv-x="1437" d="M249 859 L249 155 L90 155 L90 0 L597 0 L597 155 L438 155 L438 545 C438 724 498 879 719 879 C939 879 999 724 999 545 L999 0 L1347 0 L1347 155 L1188 155 L1188 545 C1188 837 1047 1034 729 1034 C578 1034 471 955 438 861 L438 1014 L90 1014 L90 859 L249 859 Z " />
<glyph glyph-name="o" unicode="o" horiz-adv-x="1246" d="M623 -20 C969 -20 1176 205 1176 507 C1176 808 969 1034 623 1034 C277 1034 70 808 70 507 C70 205 277 -20 623 -20 L623 -20 Z M623 135 C378 135 265 312 265 507 C265 700 378 879 623 879 C868 879 981 700 981 507 C981 312 868 135 623 135 L623 135 Z " />
<glyph glyph-name="p" unicode="p" horiz-adv-x="1381" d="M249 859 L249 -377 L90 -377 L90 -532 L597 -532 L597 -377 L438 -377 L438 201 C513 48 652 -20 788 -20 C1125 -20 1311 217 1311 507 C1311 798 1125 1034 788 1034 C652 1034 513 966 438 813 L438 1014 L90 1014 L90 859 L249 859 Z M778 135 C541 135 438 328 438 507 C438 687 541 879 778 879 C1013 879 1118 687 1118 507 C1118 328 1013 135 778 135 L778 135 Z " />
<glyph glyph-name="q" unicode="q" horiz-adv-x="1381" d="M1291 859 L1291 1014 L943 1014 L943 813 C868 966 729 1034 593 1034 C256 1034 70 798 70 507 C70 217 256 -20 593 -20 C729 -20 868 48 943 201 L943 -377 L784 -377 L784 -532 L1291 -532 L1291 -377 L1132 -377 L1132 859 L1291 859 Z M603 135 C368 135 263 328 263 507 C263 687 368 879 603 879 C840 879 943 687 943 507 C943 328 840 135 603 135 L603 135 Z " />
<glyph glyph-name="r" unicode="r" horiz-adv-x="974" d="M954 990 C892 1018 817 1034 729 1034 C578 1034 471 955 438 861 L438 1014 L90 1014 L90 859 L249 859 L249 155 L90 155 L90 0 L597 0 L597 155 L438 155 L438 545 C438 724 498 879 719 879 C781 879 830 867 869 845 L954 990 Z " />
<glyph glyph-name="s" unicode="s" horiz-adv-x="1034" d="M888 959 C888 959 734 1034 503 1034 C235 1034 99 916 99 752 C99 588 214 492 498 439 C671 407 749 375 749 280 C749 189 692 135 497 135 C366 136 279 174 279 174 L279 318 L90 318 L90 84 C90 84 236 -20 497 -20 C769 -20 944 70 944 280 C944 467 800 547 531 598 C370 628 294 662 294 752 C294 838 381 879 503 879 C606 879 699 854 699 854 L699 710 L888 710 L888 959 Z " />
<glyph glyph-name="t" unicode="t" horiz-adv-x="813" d="M50 859 L245 859 L245 418 C245 110 305 -20 580 -20 C643 -20 723 -7 763 9 L718 155 C679 143 631 134 580 134 C450 134 434 212 434 418 L434 859 L727 859 L727 1014 L434 1014 L434 1313 L245 1313 L245 1014 L50 1014 L50 859 Z " />
<glyph glyph-name="u" unicode="u" horiz-adv-x="1437" d="M1188 155 L1188 1014 L840 1014 L840 859 L999 859 L999 469 C999 290 939 135 718 135 C498 135 438 290 438 469 L438 1014 L90 1014 L90 859 L249 859 L249 469 C249 177 390 -20 708 -20 C859 -20 966 59 999 153 L999 0 L1347 0 L1347 155 L1188 155 Z " />
<glyph glyph-name="v" unicode="v" horiz-adv-x="1428" d="M614 0 L814 0 L1184 859 L1338 859 L1338 1014 L831 1014 L831 859 L983 859 L714 200 L444 859 L597 859 L597 1014 L90 1014 L90 859 L244 859 L614 0 Z " />
<glyph glyph-name="w" unicode="w" horiz-adv-x="1876" d="M1158 0 L1340 0 L1630 859 L1786 859 L1786 1014 L1279 1014 L1279 859 L1434 859 L1254 256 L1023 1014 L853 1014 L622 256 L442 859 L597 859 L597 1014 L90 1014 L90 859 L245 859 L536 0 L718 0 L938 726 L1158 0 Z " />
<glyph glyph-name="x" unicode="x" horiz-adv-x="1293" d="M368 1014 L101 1014 L101 859 L260 859 L516 527 L228 155 L90 155 L90 0 L597 0 L597 155 L454 155 L637 393 L938 0 L1203 0 L1203 155 L1045 155 L757 527 L1013 859 L1154 859 L1154 1014 L647 1014 L647 859 L788 859 L637 661 L368 1014 Z " />
<glyph glyph-name="y" unicode="y" horiz-adv-x="1428" d="M1184 859 L1338 859 L1338 1014 L831 1014 L831 859 L983 859 L714 200 L444 859 L597 859 L597 1014 L90 1014 L90 859 L244 859 L614 0 L527 -216 C487 -310 450 -377 337 -377 L220 -377 L220 -532 L337 -532 C552 -532 629 -436 689 -290 L1184 859 Z " />
<glyph glyph-name="z" unicode="z" horiz-adv-x="1063" d="M973 0 L973 304 L784 304 L784 155 L368 155 L973 923 L973 1014 L107 1014 L107 710 L296 710 L296 859 L695 859 L90 91 L90 0 L973 0 Z " />
<glyph glyph-name="braceleft" unicode="&#x7b;" horiz-adv-x="820" d="M345 556 C458 610 530 752 530 975 C530 1147 615 1282 730 1282 L730 1458 C495 1458 338 1264 338 981 C338 758 240 666 90 639 L90 473 C240 446 338 354 338 131 C338 -152 495 -346 730 -346 L730 -170 C615 -170 530 -35 530 137 C530 360 458 502 345 556 L345 556 Z " />
<glyph glyph-name="bar" unicode="&#x7c;" horiz-adv-x="419" d="M110 -532 L309 -532 L309 1434 L110 1434 L110 -532 Z " />
<glyph glyph-name="braceright" unicode="&#x7d;" horiz-adv-x="820" d="M475 556 C362 502 290 360 290 137 C290 -35 205 -170 90 -170 L90 -346 C325 -346 482 -152 482 131 C482 354 580 446 730 473 L730 639 C580 666 482 758 482 981 C482 1264 325 1458 90 1458 L90 1282 C205 1282 290 1147 290 975 C290 752 362 610 475 556 L475 556 Z " />
<glyph glyph-name="asciitilde" unicode="&#x7e;" horiz-adv-x="1048" d="M571 814 C522 875 471 917 358 917 C101 917 90 613 90 613 L285 613 C285 613 289 733 358 733 C412 733 445 685 477 647 C526 586 577 544 690 544 C947 544 958 848 958 848 L763 848 C763 848 759 728 690 728 C636 728 603 776 571 814 L571 814 Z " />
<glyph glyph-name="uni00A0" unicode="&#xa0;" horiz-adv-x="573" d="" />
<glyph glyph-name="exclamdown" unicode="&#xa1;" horiz-adv-x="458" d="M313 531 L144 531 L129 -532 L328 -532 L313 531 Z M348 793 C348 859 295 912 229 912 C163 912 110 859 110 793 C110 727 163 674 229 674 C295 674 348 727 348 793 L348 793 Z " />
<glyph glyph-name="cent" unicode="&#xa2;" horiz-adv-x="1061" d="M1011 948 C1011 948 893 1019 684 1032 L684 1245 L524 1245 L524 1027 C238 988 70 778 70 507 C70 236 238 25 524 -13 L524 -231 L684 -231 L684 -18 C811 -10 921 25 1011 111 L917 232 C843 174 744 135 623 135 C378 135 265 314 265 507 C265 700 378 879 623 879 C750 879 822 850 822 850 L822 710 L1011 710 L1011 948 Z " />
<glyph glyph-name="sterling" unicode="&#xa3;" horiz-adv-x="1331" d="M110 630 L285 630 C299 549 311 471 311 395 C311 263 199 127 199 127 L199 0 L1196 0 L1196 166 L433 166 C433 166 510 248 510 389 C510 471 498 551 484 630 L941 630 L941 795 L455 795 C446 855 440 917 440 981 C440 1146 530 1288 754 1288 C944 1288 1026 1198 1070 1100 L1221 1179 C1180 1285 1066 1454 754 1454 C365 1454 241 1192 241 981 C241 918 247 856 256 795 L110 795 L110 630 Z " />
<glyph glyph-name="currency" unicode="&#xa4;" horiz-adv-x="1140" d="M768 1371 C710 1405 642 1424 571 1424 C499 1424 431 1405 374 1370 L228 1516 L90 1378 L236 1232 C201 1175 181 1107 182 1036 C181 964 201 896 236 839 L90 693 L228 555 L374 701 C431 666 499 647 571 647 C642 647 710 666 768 700 L913 555 L1050 693 L905 838 C939 896 959 964 959 1036 C959 1108 939 1175 905 1233 L1050 1378 L913 1516 L768 1371 Z M356 1036 C356 1155 452 1251 571 1251 C690 1251 786 1155 786 1036 C786 917 690 821 571 821 C452 821 356 917 356 1036 L356 1036 Z " />
<glyph glyph-name="yen" unicode="&#xa5;" horiz-adv-x="1565" d="M377 342 L377 186 L683 186 L683 166 L524 166 L524 0 L1041 0 L1041 166 L882 166 L882 186 L1188 186 L1188 342 L882 342 L882 438 L1188 438 L1188 594 L882 594 L1331 1268 L1475 1268 L1475 1434 L958 1434 L958 1268 L1100 1268 L782 780 L464 1268 L607 1268 L607 1434 L90 1434 L90 1268 L233 1268 L683 594 L377 594 L377 438 L683 438 L683 342 L377 342 Z " />
<glyph glyph-name="brokenbar" unicode="&#xa6;" horiz-adv-x="419" d="M110 640 L309 640 L309 1434 L110 1434 L110 640 Z M110 -532 L309 -532 L309 262 L110 262 L110 -532 Z " />
<glyph glyph-name="section" unicode="&#xa7;" horiz-adv-x="1379" d="M1249 394 C1249 646 1075 758 717 833 C471 885 372 948 372 1079 C372 1209 467 1288 681 1288 C866 1288 974 1250 974 1250 L974 1095 L1173 1095 L1173 1358 C1173 1358 982 1454 681 1454 C296 1454 173 1262 173 1079 C173 981 203 898 275 829 C193 761 150 660 150 528 C150 276 324 164 682 89 C928 37 1027 -26 1027 -157 C1027 -287 932 -366 718 -366 C533 -366 425 -328 425 -328 L425 -173 L226 -173 L226 -436 C226 -436 417 -532 718 -532 C1103 -532 1226 -340 1226 -157 C1226 -59 1195 24 1123 93 C1205 161 1249 262 1249 394 L1249 394 Z M682 655 C956 598 1050 529 1050 394 C1050 314 1028 242 954 197 C889 224 810 247 717 267 C443 324 349 393 349 528 C349 607 370 679 444 725 C509 698 588 674 682 655 L682 655 Z " />
<glyph glyph-name="dieresis" unicode="&#xa8;" horiz-adv-x="836" d="M90 1312 C90 1245 144 1191 211 1191 C278 1191 333 1245 333 1312 C333 1379 278 1434 211 1434 C144 1434 90 1379 90 1312 L90 1312 Z M503 1312 C503 1245 557 1191 624 1191 C691 1191 746 1245 746 1312 C746 1379 691 1434 624 1434 C557 1434 503 1379 503 1312 L503 1312 Z " />
<glyph glyph-name="copyright" unicode="&#xa9;" horiz-adv-x="1654" d="M619 717 C619 847 704 961 835 961 C924 961 973 940 1032 890 L1127 1010 C1049 1087 944 1128 835 1128 C602 1128 430 951 430 717 C430 483 602 306 835 306 C944 306 1049 347 1127 424 L1032 544 C973 494 924 473 835 473 C704 473 619 587 619 717 L619 717 Z M90 717 C90 310 420 -20 827 -20 C1234 -20 1564 310 1564 717 C1564 1124 1234 1454 827 1454 C420 1454 90 1124 90 717 L90 717 Z M256 717 C256 1032 512 1288 827 1288 C1142 1288 1398 1032 1398 717 C1398 402 1142 146 827 146 C512 146 256 402 256 717 L256 717 Z " />
<glyph glyph-name="ordfeminine" unicode="&#xaa;" horiz-adv-x="845" d="M551 714 L795 714 L795 847 L697 847 L697 1138 C697 1365 587 1444 372 1444 C223 1444 126 1388 126 1388 L179 1266 C179 1266 270 1310 372 1310 C507 1310 549 1286 549 1183 C289 1200 50 1152 50 943 C50 782 169 704 336 704 C461 704 524 760 551 824 L551 714 Z M196 943 C196 1062 352 1076 551 1067 L551 1039 C551 904 477 837 336 837 C236 837 196 879 196 943 L196 943 Z " />
<glyph glyph-name="guillemotleft" unicode="&#xab;" horiz-adv-x="1432" d="M742 944 L742 1186 L90 679 L90 561 L742 54 L742 296 L314 620 L742 944 Z M1322 944 L1322 1186 L670 679 L670 561 L1322 54 L1322 296 L894 620 L1322 944 Z " />
<glyph glyph-name="logicalnot" unicode="&#xac;" horiz-adv-x="1136" d="M90 638 L857 638 L857 262 L1046 262 L1046 814 L90 814 L90 638 Z " />
<glyph glyph-name="uni00AD" unicode="&#xad;" horiz-adv-x="960" d="M90 542 L870 542 L870 708 L90 708 L90 542 Z " />
<glyph glyph-name="registered" unicode="&#xae;" horiz-adv-x="1022" d="M447 803 L447 954 L514 954 L592 803 L687 803 L601 969 C653 985 689 1025 689 1091 C689 1179 638 1227 557 1227 L359 1227 L359 803 L447 803 Z M557 1140 C586 1140 601 1124 601 1091 C601 1057 586 1042 557 1042 L447 1042 L447 1140 L557 1140 Z M169 1013 C169 1202 322 1355 511 1355 C700 1355 853 1202 853 1013 C853 824 700 671 511 671 C322 671 169 824 169 1013 L169 1013 Z M70 1013 C70 770 268 572 511 572 C754 572 952 770 952 1013 C952 1256 754 1454 511 1454 C268 1454 70 1256 70 1013 L70 1013 Z " />
<glyph glyph-name="macron" unicode="&#xaf;" horiz-adv-x="889" d="M90 1279 L799 1279 L799 1434 L90 1434 L90 1279 Z " />
<glyph glyph-name="degree" unicode="&#xb0;" horiz-adv-x="534" d="M20 1207 C20 1069 120 960 266 960 C414 960 514 1069 514 1207 C514 1344 414 1454 266 1454 C120 1454 20 1344 20 1207 L20 1207 Z M155 1207 C155 1268 195 1319 266 1319 C337 1319 377 1268 377 1207 C377 1146 337 1095 266 1095 C195 1095 155 1146 155 1207 L155 1207 Z " />
<glyph glyph-name="plusminus" unicode="&#xb1;" horiz-adv-x="1121" d="M1031 268 L90 268 L90 102 L1031 102 L1031 268 Z M1031 957 L650 957 L650 1343 L468 1343 L468 957 L90 957 L90 791 L468 791 L468 403 L650 403 L650 791 L1031 791 L1031 957 Z " />
<glyph glyph-name="twosuperior" unicode="&#xb2;" horiz-adv-x="616" d="M176 1191 C192 1240 227 1310 316 1310 C386 1310 409 1270 409 1229 C409 1174 380 1140 324 1084 L51 810 L51 714 L566 714 L566 913 L420 913 L420 848 L284 848 L439 1000 C501 1061 555 1136 555 1229 C555 1364 455 1444 316 1444 C128 1444 68 1310 50 1240 L176 1191 Z " />
<glyph glyph-name="threesuperior" unicode="&#xb3;" horiz-adv-x="623" d="M67 1212 L213 1212 L213 1274 C232 1292 264 1310 312 1310 C377 1310 410 1287 410 1239 C410 1162 332 1138 219 1138 L219 1004 C357 1004 427 993 427 922 C427 858 387 838 312 838 C253 838 218 855 196 871 L196 927 L50 927 L50 818 C50 818 102 704 312 704 C453 704 573 764 573 922 C573 1028 490 1068 441 1082 C502 1108 556 1163 556 1239 C556 1372 454 1444 312 1444 C122 1444 67 1317 67 1317 L67 1212 Z " />
<glyph glyph-name="acute" unicode="&#xb4;" horiz-adv-x="635" d="M70 1135 L260 1135 L565 1434 L333 1434 L70 1135 Z " />
<glyph glyph-name="mu" unicode="&#xb5;" horiz-adv-x="1458" d="M90 1014 L90 859 L249 859 L249 -377 L90 -377 L90 -532 L597 -532 L597 -377 L438 -377 L438 163 C481 59 578 -20 729 -20 C880 -20 977 59 1020 163 L1020 0 L1368 0 L1368 155 L1209 155 L1209 1014 L861 1014 L861 859 L1020 859 L1020 469 C1020 290 940 135 729 135 C518 135 438 290 438 469 L438 1014 L90 1014 Z " />
<glyph glyph-name="paragraph" unicode="&#xb6;" horiz-adv-x="1318" d="M1109 0 L1109 1268 L1228 1268 L1228 1434 L510 1434 C218 1434 90 1243 90 1024 C90 805 218 614 510 614 L603 614 L603 0 L802 0 L802 1268 L910 1268 L910 0 L1109 0 Z M603 1268 L603 781 L510 781 C345 781 289 893 289 1024 C289 1155 345 1268 510 1268 L603 1268 Z " />
<glyph glyph-name="periodcentered" unicode="&#xb7;" horiz-adv-x="418" d="M90 650 C90 584 143 531 209 531 C275 531 328 584 328 650 C328 716 275 769 209 769 C143 769 90 716 90 650 L90 650 Z " />
<glyph glyph-name="cedilla" unicode="&#xb8;" horiz-adv-x="586" d="M70 -429 C218 -510 496 -494 515 -283 C526 -160 433 -100 320 -103 L374 73 L231 73 L134 -220 C256 -199 382 -189 372 -276 C361 -393 168 -348 114 -320 L70 -429 Z " />
<glyph glyph-name="onesuperior" unicode="&#xb9;" horiz-adv-x="480" d="M88 714 L430 714 L430 847 L332 847 L332 1434 L224 1434 L20 1239 L119 1137 L186 1201 L186 847 L88 847 L88 714 Z " />
<glyph glyph-name="ordmasculine" unicode="&#xba;" horiz-adv-x="806" d="M403 1444 C181 1444 50 1299 50 1074 C50 849 181 704 403 704 C625 704 756 849 756 1074 C756 1299 625 1444 403 1444 L403 1444 Z M403 1310 C539 1310 610 1229 610 1074 C610 919 539 837 403 837 C267 837 196 919 196 1074 C196 1229 267 1310 403 1310 L403 1310 Z " />
<glyph glyph-name="guillemotright" unicode="&#xbb;" horiz-adv-x="1432" d="M1118 620 L690 296 L690 54 L1342 561 L1342 679 L690 1186 L690 944 L1118 620 Z M538 620 L110 296 L110 54 L762 561 L762 679 L110 1186 L110 944 L538 620 Z " />
<glyph glyph-name="onequarter" unicode="&#xbc;" horiz-adv-x="1406" d="M208 0 L387 0 L1210 1434 L1031 1434 L208 0 Z M188 714 L530 714 L530 847 L432 847 L432 1434 L324 1434 L120 1239 L219 1137 L286 1201 L286 847 L188 847 L188 714 Z M1042 182 L1042 133 L944 133 L944 0 L1286 0 L1286 133 L1188 133 L1188 182 L1286 182 L1286 316 L1188 316 L1188 720 L1059 720 L707 284 L707 182 L1042 182 Z M909 316 L1042 481 L1042 316 L909 316 Z " />
<glyph glyph-name="onehalf" unicode="&#xbd;" horiz-adv-x="1509" d="M208 0 L387 0 L1210 1434 L1031 1434 L208 0 Z M999 477 C1015 526 1050 596 1139 596 C1209 596 1232 556 1232 515 C1232 460 1203 426 1147 370 L874 96 L874 0 L1389 0 L1389 199 L1243 199 L1243 134 L1107 134 L1262 286 C1324 347 1378 422 1378 515 C1378 650 1278 730 1139 730 C951 730 891 596 873 526 L999 477 Z M188 714 L530 714 L530 847 L432 847 L432 1434 L324 1434 L120 1239 L219 1137 L286 1201 L286 847 L188 847 L188 714 Z " />
<glyph glyph-name="threequarters" unicode="&#xbe;" horiz-adv-x="1494" d="M296 0 L475 0 L1298 1434 L1119 1434 L296 0 Z M1130 182 L1130 133 L1032 133 L1032 0 L1374 0 L1374 133 L1276 133 L1276 182 L1374 182 L1374 316 L1276 316 L1276 720 L1147 720 L795 284 L795 182 L1130 182 Z M997 316 L1130 481 L1130 316 L997 316 Z M137 1212 L283 1212 L283 1274 C302 1292 334 1310 382 1310 C447 1310 480 1287 480 1239 C480 1162 402 1138 289 1138 L289 1004 C427 1004 497 993 497 922 C497 858 457 838 382 838 C323 838 288 855 266 871 L266 927 L120 927 L120 818 C120 818 172 704 382 704 C523 704 643 764 643 922 C643 1028 560 1068 511 1082 C572 1108 626 1163 626 1239 C626 1372 524 1444 382 1444 C192 1444 137 1317 137 1317 L137 1212 Z " />
<glyph glyph-name="questiondown" unicode="&#xbf;" horiz-adv-x="926" d="M784 -201 C748 -259 670 -386 468 -386 C295 -386 189 -308 189 -162 C189 20 344 107 603 111 L603 531 L404 531 L404 237 C73 182 -10 -15 -10 -162 C-10 -357 122 -552 468 -552 C773 -552 897 -368 936 -287 L784 -201 Z M622 794 C622 860 570 912 504 912 C438 912 385 860 385 794 C385 728 438 675 504 675 C570 675 622 728 622 794 L622 794 Z " />
<glyph glyph-name="Agrave" unicode="&#xc0;" horiz-adv-x="1664" d="M637 1835 L405 1835 L710 1536 L900 1536 L637 1835 Z M1250 166 L1097 166 L1097 0 L1614 0 L1614 166 L1460 166 L918 1434 L516 1434 L516 1268 L675 1268 L204 166 L50 166 L50 0 L567 0 L567 166 L413 166 L527 439 L1136 439 L1250 166 Z M832 1168 L1067 605 L596 605 L832 1168 Z " />
<glyph glyph-name="Aacute" unicode="&#xc1;" horiz-adv-x="1664" d="M737 1536 L927 1536 L1232 1835 L1000 1835 L737 1536 Z M1250 166 L1097 166 L1097 0 L1614 0 L1614 166 L1460 166 L918 1434 L516 1434 L516 1268 L675 1268 L204 166 L50 166 L50 0 L567 0 L567 166 L413 166 L527 439 L1136 439 L1250 166 Z M832 1168 L1067 605 L596 605 L832 1168 Z " />
<glyph glyph-name="Acircumflex" unicode="&#xc2;" horiz-adv-x="1664" d="M832 1682 L994 1536 L1160 1536 L890 1835 L774 1835 L504 1536 L670 1536 L832 1682 Z M1250 166 L1097 166 L1097 0 L1614 0 L1614 166 L1460 166 L918 1434 L516 1434 L516 1268 L675 1268 L204 166 L50 166 L50 0 L567 0 L567 166 L413 166 L527 439 L1136 439 L1250 166 Z M832 1168 L1067 605 L596 605 L832 1168 Z " />
<glyph glyph-name="Atilde" unicode="&#xc3;" horiz-adv-x="1664" d="M794 1610 C838 1575 878 1546 939 1546 C1183 1546 1174 1775 1174 1775 L999 1775 C999 1775 1001 1697 944 1697 C917 1697 889 1720 871 1733 C827 1768 787 1797 726 1797 C482 1797 491 1568 491 1568 L666 1568 C666 1568 664 1646 721 1646 C748 1646 776 1623 794 1610 L794 1610 Z M1250 166 L1097 166 L1097 0 L1614 0 L1614 166 L1460 166 L918 1434 L516 1434 L516 1268 L675 1268 L204 166 L50 166 L50 0 L567 0 L567 166 L413 166 L527 439 L1136 439 L1250 166 Z M832 1168 L1067 605 L596 605 L832 1168 Z " />
<glyph glyph-name="Adieresis" unicode="&#xc4;" horiz-adv-x="1664" d="M504 1657 C504 1590 558 1536 625 1536 C692 1536 747 1590 747 1657 C747 1724 692 1779 625 1779 C558 1779 504 1724 504 1657 L504 1657 Z M917 1657 C917 1590 971 1536 1038 1536 C1105 1536 1160 1590 1160 1657 C1160 1724 1105 1779 1038 1779 C971 1779 917 1724 917 1657 L917 1657 Z M1250 166 L1097 166 L1097 0 L1614 0 L1614 166 L1460 166 L918 1434 L516 1434 L516 1268 L675 1268 L204 166 L50 166 L50 0 L567 0 L567 166 L413 166 L527 439 L1136 439 L1250 166 Z M832 1168 L1067 605 L596 605 L832 1168 Z " />
<glyph glyph-name="Aring" unicode="&#xc5;" horiz-adv-x="1664" d="M631 1738 C631 1627 722 1536 833 1536 C943 1536 1035 1627 1035 1738 C1035 1849 943 1940 833 1940 C722 1940 631 1849 631 1738 L631 1738 Z M748 1738 C748 1785 786 1823 833 1823 C880 1823 918 1785 918 1738 C918 1691 880 1653 833 1653 C786 1653 748 1691 748 1738 L748 1738 Z M1250 166 L1097 166 L1097 0 L1614 0 L1614 166 L1460 166 L918 1434 L516 1434 L516 1268 L675 1268 L204 166 L50 166 L50 0 L567 0 L567 166 L413 166 L527 439 L1136 439 L1250 166 Z M832 1168 L1067 605 L596 605 L832 1168 Z " />
<glyph glyph-name="AE" unicode="&#xc6;" horiz-adv-x="2198" d="M1101 0 L2088 0 L2088 339 L1889 339 L1889 166 L1300 166 L1300 649 L1882 649 L1882 815 L1300 815 L1300 1268 L1879 1268 L1879 1095 L2078 1095 L2078 1434 L833 1434 L833 1268 L991 1268 L249 166 L110 166 L110 0 L627 0 L627 166 L486 166 L701 487 L1101 487 L1101 0 Z M1101 1085 L1101 653 L811 653 L1101 1085 Z " />
<glyph glyph-name="Ccedilla" unicode="&#xc7;" horiz-adv-x="1433" d="M1323 1356 C1323 1356 1136 1454 829 1454 C358 1454 90 1139 90 717 C90 329 317 31 720 -14 L652 -220 C774 -199 900 -189 890 -276 C879 -393 686 -348 632 -320 L588 -429 C736 -510 1014 -494 1033 -283 C1044 -160 951 -100 838 -103 L863 -19 C1065 -14 1219 43 1323 130 L1225 264 C1144 206 1020 146 829 146 C481 146 303 397 303 717 C303 1037 481 1288 829 1288 C1000 1288 1124 1246 1124 1246 L1124 1095 L1323 1095 L1323 1356 Z " />
<glyph glyph-name="Egrave" unicode="&#xc8;" horiz-adv-x="1366" d="M526 1835 L294 1835 L599 1536 L789 1536 L526 1835 Z M110 0 L1256 0 L1256 339 L1057 339 L1057 166 L468 166 L468 649 L1050 649 L1050 815 L468 815 L468 1268 L1047 1268 L1047 1095 L1246 1095 L1246 1434 L110 1434 L110 1268 L269 1268 L269 166 L110 166 L110 0 Z " />
<glyph glyph-name="Eacute" unicode="&#xc9;" horiz-adv-x="1366" d="M567 1536 L757 1536 L1062 1835 L830 1835 L567 1536 Z M110 0 L1256 0 L1256 339 L1057 339 L1057 166 L468 166 L468 649 L1050 649 L1050 815 L468 815 L468 1268 L1047 1268 L1047 1095 L1246 1095 L1246 1434 L110 1434 L110 1268 L269 1268 L269 166 L110 166 L110 0 Z " />
<glyph glyph-name="Ecircumflex" unicode="&#xca;" horiz-adv-x="1366" d="M682 1682 L844 1536 L1010 1536 L740 1835 L624 1835 L354 1536 L520 1536 L682 1682 Z M110 0 L1256 0 L1256 339 L1057 339 L1057 166 L468 166 L468 649 L1050 649 L1050 815 L468 815 L468 1268 L1047 1268 L1047 1095 L1246 1095 L1246 1434 L110 1434 L110 1268 L269 1268 L269 166 L110 166 L110 0 Z " />
<glyph glyph-name="Edieresis" unicode="&#xcb;" horiz-adv-x="1366" d="M344 1657 C344 1590 398 1536 465 1536 C532 1536 587 1590 587 1657 C587 1724 532 1779 465 1779 C398 1779 344 1724 344 1657 L344 1657 Z M757 1657 C757 1590 811 1536 878 1536 C945 1536 1000 1590 1000 1657 C1000 1724 945 1779 878 1779 C811 1779 757 1724 757 1657 L757 1657 Z M110 0 L1256 0 L1256 339 L1057 339 L1057 166 L468 166 L468 649 L1050 649 L1050 815 L468 815 L468 1268 L1047 1268 L1047 1095 L1246 1095 L1246 1434 L110 1434 L110 1268 L269 1268 L269 166 L110 166 L110 0 Z " />
<glyph glyph-name="Igrave" unicode="&#xcc;" horiz-adv-x="799" d="M302 1835 L70 1835 L375 1536 L565 1536 L302 1835 Z M570 1268 L729 1268 L729 1434 L212 1434 L212 1268 L371 1268 L371 166 L212 166 L212 0 L729 0 L729 166 L570 166 L570 1268 Z " />
<glyph glyph-name="Iacute" unicode="&#xcd;" horiz-adv-x="840" d="M275 1536 L465 1536 L770 1835 L538 1835 L275 1536 Z M468 1268 L627 1268 L627 1434 L110 1434 L110 1268 L269 1268 L269 166 L110 166 L110 0 L627 0 L627 166 L468 166 L468 1268 Z " />
<glyph glyph-name="Icircumflex" unicode="&#xce;" horiz-adv-x="796" d="M398 1682 L560 1536 L726 1536 L456 1835 L340 1835 L70 1536 L236 1536 L398 1682 Z M498 1268 L657 1268 L657 1434 L140 1434 L140 1268 L299 1268 L299 166 L140 166 L140 0 L657 0 L657 166 L498 166 L498 1268 Z " />
<glyph glyph-name="Idieresis" unicode="&#xcf;" horiz-adv-x="796" d="M70 1657 C70 1590 124 1536 191 1536 C258 1536 313 1590 313 1657 C313 1724 258 1779 191 1779 C124 1779 70 1724 70 1657 L70 1657 Z M483 1657 C483 1590 537 1536 604 1536 C671 1536 726 1590 726 1657 C726 1724 671 1779 604 1779 C537 1779 483 1724 483 1657 L483 1657 Z M498 1268 L657 1268 L657 1434 L140 1434 L140 1268 L299 1268 L299 166 L140 166 L140 0 L657 0 L657 166 L498 166 L498 1268 Z " />
<glyph glyph-name="Eth" unicode="&#xd0;" horiz-adv-x="1624" d="M1554 717 C1554 1150 1327 1434 857 1434 L188 1434 L188 1268 L347 1268 L347 800 L110 800 L110 634 L347 634 L347 166 L188 166 L188 0 L857 0 C1327 0 1554 283 1554 717 L1554 717 Z M546 1268 L857 1268 C1205 1268 1349 1035 1349 717 C1349 399 1205 166 857 166 L546 166 L546 634 L863 634 L863 800 L546 800 L546 1268 Z " />
<glyph glyph-name="Ntilde" unicode="&#xd1;" horiz-adv-x="1726" d="M825 1610 C869 1575 909 1546 970 1546 C1214 1546 1205 1775 1205 1775 L1030 1775 C1030 1775 1032 1697 975 1697 C948 1697 920 1720 902 1733 C858 1768 818 1797 757 1797 C513 1797 522 1568 522 1568 L697 1568 C697 1568 695 1646 752 1646 C779 1646 807 1623 825 1610 L825 1610 Z M110 0 L627 0 L627 166 L468 166 L468 1132 L1230 0 L1457 0 L1457 1268 L1616 1268 L1616 1434 L1099 1434 L1099 1268 L1258 1268 L1258 302 L496 1434 L110 1434 L110 1268 L269 1268 L269 166 L110 166 L110 0 Z " />
<glyph glyph-name="Ograve" unicode="&#xd2;" horiz-adv-x="1658" d="M829 -20 C1300 -20 1568 295 1568 717 C1568 1139 1300 1454 829 1454 C358 1454 90 1139 90 717 C90 295 358 -20 829 -20 L829 -20 Z M829 146 C481 146 303 397 303 717 C303 1037 481 1288 829 1288 C1177 1288 1355 1037 1355 717 C1355 397 1177 146 829 146 L829 146 Z M664 1835 L432 1835 L737 1536 L927 1536 L664 1835 Z " />
<glyph glyph-name="Oacute" unicode="&#xd3;" horiz-adv-x="1658" d="M829 -20 C1300 -20 1568 295 1568 717 C1568 1139 1300 1454 829 1454 C358 1454 90 1139 90 717 C90 295 358 -20 829 -20 L829 -20 Z M829 146 C481 146 303 397 303 717 C303 1037 481 1288 829 1288 C1177 1288 1355 1037 1355 717 C1355 397 1177 146 829 146 L829 146 Z M752 1536 L942 1536 L1247 1835 L1015 1835 L752 1536 Z " />
<glyph glyph-name="Ocircumflex" unicode="&#xd4;" horiz-adv-x="1658" d="M829 -20 C1300 -20 1568 295 1568 717 C1568 1139 1300 1454 829 1454 C358 1454 90 1139 90 717 C90 295 358 -20 829 -20 L829 -20 Z M829 146 C481 146 303 397 303 717 C303 1037 481 1288 829 1288 C1177 1288 1355 1037 1355 717 C1355 397 1177 146 829 146 L829 146 Z M829 1682 L991 1536 L1157 1536 L887 1835 L771 1835 L501 1536 L667 1536 L829 1682 Z " />
<glyph glyph-name="Otilde" unicode="&#xd5;" horiz-adv-x="1658" d="M829 -20 C1300 -20 1568 295 1568 717 C1568 1139 1300 1454 829 1454 C358 1454 90 1139 90 717 C90 295 358 -20 829 -20 L829 -20 Z M829 146 C481 146 303 397 303 717 C303 1037 481 1288 829 1288 C1177 1288 1355 1037 1355 717 C1355 397 1177 146 829 146 L829 146 Z M791 1600 C835 1565 875 1536 936 1536 C1180 1536 1171 1765 1171 1765 L996 1765 C996 1765 998 1687 941 1687 C914 1687 886 1710 868 1723 C824 1758 784 1787 723 1787 C479 1787 488 1558 488 1558 L663 1558 C663 1558 661 1636 718 1636 C745 1636 773 1613 791 1600 L791 1600 Z " />
<glyph glyph-name="Odieresis" unicode="&#xd6;" horiz-adv-x="1658" d="M829 -20 C1300 -20 1568 295 1568 717 C1568 1139 1300 1454 829 1454 C358 1454 90 1139 90 717 C90 295 358 -20 829 -20 L829 -20 Z M829 146 C481 146 303 397 303 717 C303 1037 481 1288 829 1288 C1177 1288 1355 1037 1355 717 C1355 397 1177 146 829 146 L829 146 Z M501 1657 C501 1590 555 1536 622 1536 C689 1536 744 1590 744 1657 C744 1724 689 1779 622 1779 C555 1779 501 1724 501 1657 L501 1657 Z M914 1657 C914 1590 968 1536 1035 1536 C1102 1536 1157 1590 1157 1657 C1157 1724 1102 1779 1035 1779 C968 1779 914 1724 914 1657 L914 1657 Z " />
<glyph glyph-name="multiply" unicode="&#xd7;" horiz-adv-x="1035" d="M517 537 L826 229 L942 346 L634 654 L945 965 L828 1082 L517 771 L206 1082 L90 965 L401 654 L92 346 L209 229 L517 537 Z " />
<glyph glyph-name="Oslash" unicode="&#xd8;" horiz-adv-x="1658" d="M829 -20 C1300 -20 1568 295 1568 717 C1568 998 1449 1231 1231 1356 L1298 1495 L1110 1495 L1074 1421 C1000 1442 918 1454 829 1454 C358 1454 90 1139 90 717 C90 436 209 203 427 78 L360 -61 L548 -61 L583 12 C658 -8 739 -20 829 -20 L829 -20 Z M829 146 C767 146 710 154 659 169 L1151 1189 C1286 1087 1355 915 1355 717 C1355 397 1177 146 829 146 L829 146 Z M303 717 C303 1037 481 1288 829 1288 C891 1288 948 1280 999 1265 L507 244 C371 346 303 518 303 717 L303 717 Z " />
<glyph glyph-name="Ugrave" unicode="&#xd9;" horiz-adv-x="1732" d="M698 1835 L466 1835 L771 1536 L961 1536 L698 1835 Z M468 622 L468 1268 L627 1268 L627 1434 L110 1434 L110 1268 L269 1268 L269 622 C269 226 454 -20 866 -20 C1278 -20 1463 226 1463 622 L1463 1268 L1622 1268 L1622 1434 L1105 1434 L1105 1268 L1264 1268 L1264 622 C1264 353 1166 146 866 146 C566 146 468 353 468 622 L468 622 Z " />
<glyph glyph-name="Uacute" unicode="&#xda;" horiz-adv-x="1732" d="M751 1536 L941 1536 L1246 1835 L1014 1835 L751 1536 Z M468 622 L468 1268 L627 1268 L627 1434 L110 1434 L110 1268 L269 1268 L269 622 C269 226 454 -20 866 -20 C1278 -20 1463 226 1463 622 L1463 1268 L1622 1268 L1622 1434 L1105 1434 L1105 1268 L1264 1268 L1264 622 C1264 353 1166 146 866 146 C566 146 468 353 468 622 L468 622 Z " />
<glyph glyph-name="Ucircumflex" unicode="&#xdb;" horiz-adv-x="1732" d="M866 1682 L1028 1536 L1194 1536 L924 1835 L808 1835 L538 1536 L704 1536 L866 1682 Z M468 622 L468 1268 L627 1268 L627 1434 L110 1434 L110 1268 L269 1268 L269 622 C269 226 454 -20 866 -20 C1278 -20 1463 226 1463 622 L1463 1268 L1622 1268 L1622 1434 L1105 1434 L1105 1268 L1264 1268 L1264 622 C1264 353 1166 146 866 146 C566 146 468 353 468 622 L468 622 Z " />
<glyph glyph-name="Udieresis" unicode="&#xdc;" horiz-adv-x="1732" d="M538 1656 C538 1589 592 1535 659 1535 C726 1535 781 1589 781 1656 C781 1723 726 1778 659 1778 C592 1778 538 1723 538 1656 L538 1656 Z M951 1656 C951 1589 1005 1535 1072 1535 C1139 1535 1194 1589 1194 1656 C1194 1723 1139 1778 1072 1778 C1005 1778 951 1723 951 1656 L951 1656 Z M468 622 L468 1268 L627 1268 L627 1434 L110 1434 L110 1268 L269 1268 L269 622 C269 226 454 -20 866 -20 C1278 -20 1463 226 1463 622 L1463 1268 L1622 1268 L1622 1434 L1105 1434 L1105 1268 L1264 1268 L1264 622 C1264 353 1166 146 866 146 C566 146 468 353 468 622 L468 622 Z " />
<glyph glyph-name="Yacute" unicode="&#xdd;" horiz-adv-x="1485" d="M637 1536 L827 1536 L1132 1835 L900 1835 L637 1536 Z M643 594 L643 166 L484 166 L484 0 L1001 0 L1001 166 L842 166 L842 594 L1291 1268 L1435 1268 L1435 1434 L918 1434 L918 1268 L1060 1268 L742 780 L424 1268 L567 1268 L567 1434 L50 1434 L50 1268 L193 1268 L643 594 Z " />
<glyph glyph-name="Thorn" unicode="&#xde;" horiz-adv-x="1166" d="M448 1268 L607 1268 L607 1434 L90 1434 L90 1268 L249 1268 L249 166 L90 166 L90 0 L607 0 L607 166 L448 166 L448 304 L696 304 C947 304 1096 470 1096 717 C1096 964 947 1130 696 1130 L448 1130 L448 1268 Z M448 964 L696 964 C835 964 897 862 897 717 C897 572 835 470 696 470 L448 470 L448 964 Z " />
<glyph glyph-name="germandbls" unicode="&#xdf;" horiz-adv-x="1412" d="M269 877 L269 166 L110 166 L110 0 L458 0 L458 877 C458 1261 625 1299 770 1299 C941 1299 1081 1239 1081 1054 C1081 912 986 827 832 827 L630 827 L630 672 L834 672 C1016 672 1133 596 1133 389 C1133 208 1017 135 859 135 C759 135 661 164 572 209 L572 47 C667 -6 763 -20 859 -20 C1139 -20 1322 119 1322 389 C1322 608 1217 704 1074 758 C1165 796 1270 889 1270 1054 C1270 1310 1067 1454 770 1454 C599 1454 269 1434 269 877 L269 877 Z " />
<glyph glyph-name="agrave" unicode="&#xe0;" horiz-adv-x="1248" d="M403 1434 L171 1434 L476 1135 L666 1135 L403 1434 Z M578 879 C773 879 808 798 810 657 C496 687 70 640 70 308 C70 98 229 -20 482 -20 C664 -20 766 64 810 169 L810 0 L1158 0 L1158 155 L999 155 L999 620 C999 812 969 1034 578 1034 C443 1034 280 999 165 931 L238 799 C334 846 456 879 578 879 L578 879 Z M266 308 C266 537 617 553 810 527 L810 447 C810 283 711 135 492 135 C332 135 266 206 266 308 L266 308 Z " />
<glyph glyph-name="aacute" unicode="&#xe1;" horiz-adv-x="1248" d="M470 1135 L660 1135 L965 1434 L733 1434 L470 1135 Z M578 879 C773 879 808 798 810 657 C496 687 70 640 70 308 C70 98 229 -20 482 -20 C664 -20 766 64 810 169 L810 0 L1158 0 L1158 155 L999 155 L999 620 C999 812 969 1034 578 1034 C443 1034 280 999 165 931 L238 799 C334 846 456 879 578 879 L578 879 Z M266 308 C266 537 617 553 810 527 L810 447 C810 283 711 135 492 135 C332 135 266 206 266 308 L266 308 Z " />
<glyph glyph-name="acircumflex" unicode="&#xe2;" horiz-adv-x="1248" d="M589 1281 L751 1135 L917 1135 L647 1434 L531 1434 L261 1135 L427 1135 L589 1281 Z M578 879 C773 879 808 798 810 657 C496 687 70 640 70 308 C70 98 229 -20 482 -20 C664 -20 766 64 810 169 L810 0 L1158 0 L1158 155 L999 155 L999 620 C999 812 969 1034 578 1034 C443 1034 280 999 165 931 L238 799 C334 846 456 879 578 879 L578 879 Z M266 308 C266 537 617 553 810 527 L810 447 C810 283 711 135 492 135 C332 135 266 206 266 308 L266 308 Z " />
<glyph glyph-name="atilde" unicode="&#xe3;" horiz-adv-x="1248" d="M542 1247 C586 1212 626 1183 687 1183 C931 1183 922 1412 922 1412 L747 1412 C747 1412 749 1334 692 1334 C665 1334 637 1357 619 1370 C575 1405 535 1434 474 1434 C230 1434 239 1205 239 1205 L414 1205 C414 1205 412 1283 469 1283 C496 1283 524 1260 542 1247 L542 1247 Z M578 879 C773 879 808 798 810 657 C496 687 70 640 70 308 C70 98 229 -20 482 -20 C664 -20 766 64 810 169 L810 0 L1158 0 L1158 155 L999 155 L999 620 C999 812 969 1034 578 1034 C443 1034 280 999 165 931 L238 799 C334 846 456 879 578 879 L578 879 Z M266 308 C266 537 617 553 810 527 L810 447 C810 283 711 135 492 135 C332 135 266 206 266 308 L266 308 Z " />
<glyph glyph-name="adieresis" unicode="&#xe4;" horiz-adv-x="1248" d="M266 1312 C266 1245 320 1191 387 1191 C454 1191 509 1245 509 1312 C509 1379 454 1434 387 1434 C320 1434 266 1379 266 1312 L266 1312 Z M679 1312 C679 1245 733 1191 800 1191 C867 1191 922 1245 922 1312 C922 1379 867 1434 800 1434 C733 1434 679 1379 679 1312 L679 1312 Z M578 879 C773 879 808 798 810 657 C496 687 70 640 70 308 C70 98 229 -20 482 -20 C664 -20 766 64 810 169 L810 0 L1158 0 L1158 155 L999 155 L999 620 C999 812 969 1034 578 1034 C443 1034 280 999 165 931 L238 799 C334 846 456 879 578 879 L578 879 Z M266 308 C266 537 617 553 810 527 L810 447 C810 283 711 135 492 135 C332 135 266 206 266 308 L266 308 Z " />
<glyph glyph-name="aring" unicode="&#xe5;" horiz-adv-x="1248" d="M388 1314 C388 1203 479 1112 590 1112 C700 1112 792 1203 792 1314 C792 1425 700 1516 590 1516 C479 1516 388 1425 388 1314 L388 1314 Z M505 1314 C505 1361 543 1399 590 1399 C637 1399 675 1361 675 1314 C675 1267 637 1229 590 1229 C543 1229 505 1267 505 1314 L505 1314 Z M578 879 C773 879 808 798 810 657 C496 687 70 640 70 308 C70 98 229 -20 482 -20 C664 -20 766 64 810 169 L810 0 L1158 0 L1158 155 L999 155 L999 620 C999 812 969 1034 578 1034 C443 1034 280 999 165 931 L238 799 C334 846 456 879 578 879 L578 879 Z M266 308 C266 537 617 553 810 527 L810 447 C810 283 711 135 492 135 C332 135 266 206 266 308 L266 308 Z " />
<glyph glyph-name="ae" unicode="&#xe6;" horiz-adv-x="1899" d="M1320 135 C1132 135 1023 269 1013 414 L1828 414 C1838 822 1636 1034 1320 1034 C1160 1034 1033 977 945 883 C892 971 786 1034 578 1034 C443 1034 280 999 165 931 L238 799 C334 846 456 879 578 879 C773 879 808 798 810 657 C496 687 70 640 70 308 C70 98 229 -20 482 -20 C627 -20 785 18 910 173 C997 53 1137 -20 1320 -20 C1544 -20 1684 62 1759 137 L1645 249 C1570 190 1469 135 1320 135 L1320 135 Z M266 308 C266 537 617 553 810 527 L810 447 C810 283 711 135 492 135 C332 135 266 206 266 308 L266 308 Z M1014 579 C1026 720 1105 879 1320 879 C1535 879 1614 720 1626 579 L1014 579 Z " />
<glyph glyph-name="ccedilla" unicode="&#xe7;" horiz-adv-x="1121" d="M1011 948 C1011 948 870 1034 623 1034 C277 1034 70 808 70 507 C70 239 234 30 515 -12 L446 -220 C568 -199 694 -189 684 -276 C673 -393 480 -348 426 -320 L382 -429 C530 -510 808 -494 827 -283 C838 -160 745 -100 632 -103 L657 -19 C795 -15 915 19 1011 111 L917 232 C843 174 744 135 623 135 C378 135 265 314 265 507 C265 700 378 879 623 879 C750 879 822 850 822 850 L822 710 L1011 710 L1011 948 Z " />
<glyph glyph-name="egrave" unicode="&#xe8;" horiz-adv-x="1159" d="M580 135 C392 135 283 269 273 414 L1088 414 C1098 822 896 1034 580 1034 C261 1034 70 808 70 507 C70 205 261 -20 580 -20 C804 -20 944 62 1019 137 L905 249 C830 190 729 135 580 135 L580 135 Z M274 579 C286 720 365 879 580 879 C795 879 874 720 886 579 L274 579 Z M407 1434 L175 1434 L480 1135 L670 1135 L407 1434 Z " />
<glyph glyph-name="eacute" unicode="&#xe9;" horiz-adv-x="1159" d="M580 135 C392 135 283 269 273 414 L1088 414 C1098 822 896 1034 580 1034 C261 1034 70 808 70 507 C70 205 261 -20 580 -20 C804 -20 944 62 1019 137 L905 249 C830 190 729 135 580 135 L580 135 Z M274 579 C286 720 365 879 580 879 C795 879 874 720 886 579 L274 579 Z M495 1135 L685 1135 L990 1434 L758 1434 L495 1135 Z " />
<glyph glyph-name="ecircumflex" unicode="&#xea;" horiz-adv-x="1159" d="M580 135 C392 135 283 269 273 414 L1088 414 C1098 822 896 1034 580 1034 C261 1034 70 808 70 507 C70 205 261 -20 580 -20 C804 -20 944 62 1019 137 L905 249 C830 190 729 135 580 135 L580 135 Z M274 579 C286 720 365 879 580 879 C795 879 874 720 886 579 L274 579 Z M579 1281 L741 1135 L907 1135 L637 1434 L521 1434 L251 1135 L417 1135 L579 1281 Z " />
<glyph glyph-name="edieresis" unicode="&#xeb;" horiz-adv-x="1159" d="M580 135 C392 135 283 269 273 414 L1088 414 C1098 822 896 1034 580 1034 C261 1034 70 808 70 507 C70 205 261 -20 580 -20 C804 -20 944 62 1019 137 L905 249 C830 190 729 135 580 135 L580 135 Z M274 579 C286 720 365 879 580 879 C795 879 874 720 886 579 L274 579 Z M251 1312 C251 1245 305 1191 372 1191 C439 1191 494 1245 494 1312 C494 1379 439 1434 372 1434 C305 1434 251 1379 251 1312 L251 1312 Z M664 1312 C664 1245 718 1191 785 1191 C852 1191 907 1245 907 1312 C907 1379 852 1434 785 1434 C718 1434 664 1379 664 1312 L664 1312 Z " />
<glyph glyph-name="igrave" unicode="&#xec;" horiz-adv-x="799" d="M282 1434 L50 1434 L355 1135 L545 1135 L282 1434 Z M550 155 L550 1014 L202 1014 L202 859 L361 859 L361 155 L202 155 L202 0 L709 0 L709 155 L550 155 Z " />
<glyph glyph-name="iacute" unicode="&#xed;" horiz-adv-x="790" d="M245 1135 L435 1135 L740 1434 L508 1434 L245 1135 Z M438 155 L438 1014 L90 1014 L90 859 L249 859 L249 155 L90 155 L90 0 L597 0 L597 155 L438 155 Z " />
<glyph glyph-name="icircumflex" unicode="&#xee;" horiz-adv-x="756" d="M378 1281 L540 1135 L706 1135 L436 1434 L320 1434 L50 1135 L216 1135 L378 1281 Z M473 155 L473 1014 L125 1014 L125 859 L284 859 L284 155 L125 155 L125 0 L632 0 L632 155 L473 155 Z " />
<glyph glyph-name="idieresis" unicode="&#xef;" horiz-adv-x="756" d="M50 1312 C50 1245 104 1191 171 1191 C238 1191 293 1245 293 1312 C293 1379 238 1434 171 1434 C104 1434 50 1379 50 1312 L50 1312 Z M463 1312 C463 1245 517 1191 584 1191 C651 1191 706 1245 706 1312 C706 1379 651 1434 584 1434 C517 1434 463 1379 463 1312 L463 1312 Z M472 155 L472 1014 L124 1014 L124 859 L283 859 L283 155 L124 155 L124 0 L631 0 L631 155 L472 155 Z " />
<glyph glyph-name="eth" unicode="&#xf0;" horiz-adv-x="1222" d="M542 1092 L722 1245 C853 1147 953 1002 973 803 C898 956 739 1034 573 1034 C256 1034 70 797 70 507 C70 216 256 -20 573 -20 C999 -20 1132 290 1132 691 C1132 1020 1007 1228 857 1359 L1006 1486 L906 1604 L727 1452 C615 1518 504 1552 430 1570 L369 1398 C439 1384 512 1362 582 1329 L441 1210 L542 1092 Z M603 879 C840 879 943 686 943 507 C943 327 840 135 603 135 C366 135 263 327 263 507 C263 686 366 879 603 879 L603 879 Z " />
<glyph glyph-name="ntilde" unicode="&#xf1;" horiz-adv-x="1437" d="M680 1247 C724 1212 764 1183 825 1183 C1069 1183 1060 1412 1060 1412 L885 1412 C885 1412 887 1334 830 1334 C803 1334 775 1357 757 1370 C713 1405 673 1434 612 1434 C368 1434 377 1205 377 1205 L552 1205 C552 1205 550 1283 607 1283 C634 1283 662 1260 680 1247 L680 1247 Z M249 859 L249 155 L90 155 L90 0 L597 0 L597 155 L438 155 L438 545 C438 724 498 879 719 879 C939 879 999 724 999 545 L999 0 L1347 0 L1347 155 L1188 155 L1188 545 C1188 837 1047 1034 729 1034 C578 1034 471 955 438 861 L438 1014 L90 1014 L90 859 L249 859 Z " />
<glyph glyph-name="ograve" unicode="&#xf2;" horiz-adv-x="1246" d="M623 -20 C969 -20 1176 205 1176 507 C1176 808 969 1034 623 1034 C277 1034 70 808 70 507 C70 205 277 -20 623 -20 L623 -20 Z M623 135 C378 135 265 312 265 507 C265 700 378 879 623 879 C868 879 981 700 981 507 C981 312 868 135 623 135 L623 135 Z M452 1434 L220 1434 L525 1135 L715 1135 L452 1434 Z " />
<glyph glyph-name="oacute" unicode="&#xf3;" horiz-adv-x="1246" d="M623 -20 C969 -20 1176 205 1176 507 C1176 808 969 1034 623 1034 C277 1034 70 808 70 507 C70 205 277 -20 623 -20 L623 -20 Z M623 135 C378 135 265 312 265 507 C265 700 378 879 623 879 C868 879 981 700 981 507 C981 312 868 135 623 135 L623 135 Z M527 1135 L717 1135 L1022 1434 L790 1434 L527 1135 Z " />
<glyph glyph-name="ocircumflex" unicode="&#xf4;" horiz-adv-x="1246" d="M623 -20 C969 -20 1176 205 1176 507 C1176 808 969 1034 623 1034 C277 1034 70 808 70 507 C70 205 277 -20 623 -20 L623 -20 Z M623 135 C378 135 265 312 265 507 C265 700 378 879 623 879 C868 879 981 700 981 507 C981 312 868 135 623 135 L623 135 Z M623 1281 L785 1135 L951 1135 L681 1434 L565 1434 L295 1135 L461 1135 L623 1281 Z " />
<glyph glyph-name="otilde" unicode="&#xf5;" horiz-adv-x="1246" d="M623 -20 C969 -20 1176 205 1176 507 C1176 808 969 1034 623 1034 C277 1034 70 808 70 507 C70 205 277 -20 623 -20 L623 -20 Z M623 135 C378 135 265 312 265 507 C265 700 378 879 623 879 C868 879 981 700 981 507 C981 312 868 135 623 135 L623 135 Z M585 1247 C629 1212 669 1183 730 1183 C974 1183 965 1412 965 1412 L790 1412 C790 1412 792 1334 735 1334 C708 1334 680 1357 662 1370 C618 1405 578 1434 517 1434 C273 1434 282 1205 282 1205 L457 1205 C457 1205 455 1283 512 1283 C539 1283 567 1260 585 1247 L585 1247 Z " />
<glyph glyph-name="odieresis" unicode="&#xf6;" horiz-adv-x="1246" d="M623 -20 C969 -20 1176 205 1176 507 C1176 808 969 1034 623 1034 C277 1034 70 808 70 507 C70 205 277 -20 623 -20 L623 -20 Z M623 135 C378 135 265 312 265 507 C265 700 378 879 623 879 C868 879 981 700 981 507 C981 312 868 135 623 135 L623 135 Z M295 1312 C295 1245 349 1191 416 1191 C483 1191 538 1245 538 1312 C538 1379 483 1434 416 1434 C349 1434 295 1379 295 1312 L295 1312 Z M708 1312 C708 1245 762 1191 829 1191 C896 1191 951 1245 951 1312 C951 1379 896 1434 829 1434 C762 1434 708 1379 708 1312 L708 1312 Z " />
<glyph glyph-name="divide" unicode="&#xf7;" horiz-adv-x="1013" d="M90 608 L923 608 L923 774 L90 774 L90 608 Z M387 392 C387 326 440 273 506 273 C572 273 625 326 625 392 C625 458 572 511 506 511 C440 511 387 458 387 392 L387 392 Z M387 990 C387 924 440 871 506 871 C572 871 625 924 625 990 C625 1056 572 1109 506 1109 C440 1109 387 1056 387 990 L387 990 Z " />
<glyph glyph-name="oslash" unicode="&#xf8;" horiz-adv-x="1286" d="M643 -20 C989 -20 1196 205 1196 507 C1196 704 1107 869 949 959 L1005 1075 L827 1075 L799 1017 C751 1028 698 1034 643 1034 C297 1034 90 808 90 507 C90 309 178 144 336 54 L281 -61 L459 -61 L487 -3 C535 -14 587 -20 643 -20 L643 -20 Z M643 135 C612 135 583 137 557 143 L874 804 C960 734 1001 623 1001 507 C1001 312 888 135 643 135 L643 135 Z M285 507 C285 700 398 879 643 879 C674 879 702 876 729 871 L411 210 C325 279 285 390 285 507 L285 507 Z " />
<glyph glyph-name="ugrave" unicode="&#xf9;" horiz-adv-x="1437" d="M544 1434 L312 1434 L617 1135 L807 1135 L544 1434 Z M1188 155 L1188 1014 L840 1014 L840 859 L999 859 L999 469 C999 290 939 135 718 135 C498 135 438 290 438 469 L438 1014 L90 1014 L90 859 L249 859 L249 469 C249 177 390 -20 708 -20 C859 -20 966 59 999 153 L999 0 L1347 0 L1347 155 L1188 155 Z " />
<glyph glyph-name="uacute" unicode="&#xfa;" horiz-adv-x="1437" d="M589 1135 L779 1135 L1084 1434 L852 1434 L589 1135 Z M1188 155 L1188 1014 L840 1014 L840 859 L999 859 L999 469 C999 290 939 135 718 135 C498 135 438 290 438 469 L438 1014 L90 1014 L90 859 L249 859 L249 469 C249 177 390 -20 708 -20 C859 -20 966 59 999 153 L999 0 L1347 0 L1347 155 L1188 155 Z " />
<glyph glyph-name="ucircumflex" unicode="&#xfb;" horiz-adv-x="1437" d="M718 1281 L880 1135 L1046 1135 L776 1434 L660 1434 L390 1135 L556 1135 L718 1281 Z M1188 155 L1188 1014 L840 1014 L840 859 L999 859 L999 469 C999 290 939 135 718 135 C498 135 438 290 438 469 L438 1014 L90 1014 L90 859 L249 859 L249 469 C249 177 390 -20 708 -20 C859 -20 966 59 999 153 L999 0 L1347 0 L1347 155 L1188 155 Z " />
<glyph glyph-name="udieresis" unicode="&#xfc;" horiz-adv-x="1437" d="M390 1312 C390 1245 444 1191 511 1191 C578 1191 633 1245 633 1312 C633 1379 578 1434 511 1434 C444 1434 390 1379 390 1312 L390 1312 Z M803 1312 C803 1245 857 1191 924 1191 C991 1191 1046 1245 1046 1312 C1046 1379 991 1434 924 1434 C857 1434 803 1379 803 1312 L803 1312 Z M1188 155 L1188 1014 L840 1014 L840 859 L999 859 L999 469 C999 290 939 135 718 135 C498 135 438 290 438 469 L438 1014 L90 1014 L90 859 L249 859 L249 469 C249 177 390 -20 708 -20 C859 -20 966 59 999 153 L999 0 L1347 0 L1347 155 L1188 155 Z " />
<glyph glyph-name="yacute" unicode="&#xfd;" horiz-adv-x="1428" d="M609 1135 L799 1135 L1104 1434 L872 1434 L609 1135 Z M1184 859 L1338 859 L1338 1014 L831 1014 L831 859 L983 859 L714 200 L444 859 L597 859 L597 1014 L90 1014 L90 859 L244 859 L614 0 L527 -216 C487 -310 450 -377 337 -377 L220 -377 L220 -532 L337 -532 C552 -532 629 -436 689 -290 L1184 859 Z " />
<glyph glyph-name="thorn" unicode="&#xfe;" horiz-adv-x="1381" d="M249 1361 L249 -377 L90 -377 L90 -532 L597 -532 L597 -377 L438 -377 L438 201 C513 48 672 -20 808 -20 C1125 -20 1311 216 1311 507 C1311 797 1125 1034 808 1034 C672 1034 513 966 438 813 L438 1516 L90 1516 L90 1361 L249 1361 Z M778 879 C1015 879 1118 686 1118 507 C1118 327 1015 135 778 135 C541 135 438 327 438 507 C438 686 541 879 778 879 L778 879 Z " />
<glyph glyph-name="ydieresis" unicode="&#xff;" horiz-adv-x="1428" d="M386 1312 C386 1245 440 1191 507 1191 C574 1191 629 1245 629 1312 C629 1379 574 1434 507 1434 C440 1434 386 1379 386 1312 L386 1312 Z M799 1312 C799 1245 853 1191 920 1191 C987 1191 1042 1245 1042 1312 C1042 1379 987 1434 920 1434 C853 1434 799 1379 799 1312 L799 1312 Z M1184 859 L1338 859 L1338 1014 L831 1014 L831 859 L983 859 L714 200 L444 859 L597 859 L597 1014 L90 1014 L90 859 L244 859 L614 0 L527 -216 C487 -310 450 -377 337 -377 L220 -377 L220 -532 L337 -532 C552 -532 629 -436 689 -290 L1184 859 Z " />
<glyph glyph-name="Amacron" unicode="&#x100;" horiz-adv-x="1664" d="M478 1535 L1187 1535 L1187 1690 L478 1690 L478 1535 Z M1250 166 L1097 166 L1097 0 L1614 0 L1614 166 L1460 166 L918 1434 L516 1434 L516 1268 L675 1268 L204 166 L50 166 L50 0 L567 0 L567 166 L413 166 L527 439 L1136 439 L1250 166 Z M832 1168 L1067 605 L596 605 L832 1168 Z " />
<glyph glyph-name="amacron" unicode="&#x101;" horiz-adv-x="1248" d="M226 1279 L935 1279 L935 1434 L226 1434 L226 1279 Z M578 879 C773 879 808 798 810 657 C496 687 70 640 70 308 C70 98 229 -20 482 -20 C664 -20 766 64 810 169 L810 0 L1158 0 L1158 155 L999 155 L999 620 C999 812 969 1034 578 1034 C443 1034 280 999 165 931 L238 799 C334 846 456 879 578 879 L578 879 Z M266 308 C266 537 617 553 810 527 L810 447 C810 283 711 135 492 135 C332 135 266 206 266 308 L266 308 Z " />
<glyph glyph-name="Abreve" unicode="&#x102;" horiz-adv-x="1664" d="M832 1535 C1059 1535 1147 1679 1172 1781 L1043 1781 C999 1695 938 1657 832 1657 C726 1657 664 1695 621 1781 L492 1781 C517 1679 605 1535 832 1535 L832 1535 Z M1250 166 L1097 166 L1097 0 L1614 0 L1614 166 L1460 166 L918 1434 L516 1434 L516 1268 L675 1268 L204 166 L50 166 L50 0 L567 0 L567 166 L413 166 L527 439 L1136 439 L1250 166 Z M832 1168 L1067 605 L596 605 L832 1168 Z " />
<glyph glyph-name="abreve" unicode="&#x103;" horiz-adv-x="1248" d="M600 1188 C827 1188 915 1332 940 1434 L811 1434 C767 1348 706 1310 600 1310 C494 1310 432 1348 389 1434 L260 1434 C285 1332 373 1188 600 1188 L600 1188 Z M578 879 C773 879 808 798 810 657 C496 687 70 640 70 308 C70 98 229 -20 482 -20 C664 -20 766 64 810 169 L810 0 L1158 0 L1158 155 L999 155 L999 620 C999 812 969 1034 578 1034 C443 1034 280 999 165 931 L238 799 C334 846 456 879 578 879 L578 879 Z M266 308 C266 537 617 553 810 527 L810 447 C810 283 711 135 492 135 C332 135 266 206 266 308 L266 308 Z " />
<glyph glyph-name="Aogonek" unicode="&#x104;" horiz-adv-x="1690" d="M1250 166 L1097 166 L1097 0 L1479 0 C1461 -3 1340 -36 1331 -179 C1319 -357 1494 -413 1640 -413 L1640 -221 C1640 -221 1498 -226 1498 -121 C1498 -29 1607 -1 1614 0 L1614 166 L1460 166 L918 1434 L516 1434 L516 1268 L675 1268 L204 166 L50 166 L50 0 L567 0 L567 166 L413 166 L527 439 L1136 439 L1250 166 Z M832 1168 L1067 605 L596 605 L832 1168 Z " />
<glyph glyph-name="aogonek" unicode="&#x105;" horiz-adv-x="1274" d="M578 879 C773 879 808 798 810 657 C496 687 70 640 70 308 C70 98 229 -20 482 -20 C664 -20 766 64 810 169 L810 0 L1023 0 C1005 -3 884 -36 875 -179 C863 -357 1038 -413 1184 -413 L1184 -221 C1184 -221 1042 -226 1042 -121 C1042 -29 1151 -1 1158 0 L1158 155 L999 155 L999 620 C999 812 969 1034 578 1034 C443 1034 280 999 165 931 L238 799 C334 846 456 879 578 879 L578 879 Z M266 308 C266 537 617 553 810 527 L810 447 C810 283 711 135 492 135 C332 135 266 206 266 308 L266 308 Z " />
<glyph glyph-name="Cacute" unicode="&#x106;" horiz-adv-x="1433" d="M746 1536 L936 1536 L1241 1835 L1009 1835 L746 1536 Z M1323 1356 C1323 1356 1136 1454 829 1454 C358 1454 90 1139 90 717 C90 295 358 -20 829 -20 C1048 -20 1214 38 1323 130 L1225 264 C1144 206 1020 146 829 146 C481 146 303 397 303 717 C303 1037 481 1288 829 1288 C1000 1288 1124 1246 1124 1246 L1124 1095 L1323 1095 L1323 1356 Z " />
<glyph glyph-name="cacute" unicode="&#x107;" horiz-adv-x="1125" d="M520 1135 L710 1135 L1015 1434 L783 1434 L520 1135 Z M1011 948 C1011 948 870 1034 623 1034 C277 1034 70 808 70 507 C70 206 277 -20 623 -20 C776 -20 907 12 1011 111 L917 232 C843 174 744 135 623 135 C378 135 265 314 265 507 C265 700 378 879 623 879 C750 879 822 850 822 850 L822 710 L1011 710 L1011 948 Z " />
<glyph glyph-name="Ccircumflex" unicode="&#x108;" horiz-adv-x="1433" d="M811 1682 L973 1536 L1139 1536 L869 1835 L753 1835 L483 1536 L649 1536 L811 1682 Z M1323 1356 C1323 1356 1136 1454 829 1454 C358 1454 90 1139 90 717 C90 295 358 -20 829 -20 C1048 -20 1214 38 1323 130 L1225 264 C1144 206 1020 146 829 146 C481 146 303 397 303 717 C303 1037 481 1288 829 1288 C1000 1288 1124 1246 1124 1246 L1124 1095 L1323 1095 L1323 1356 Z " />
<glyph glyph-name="ccircumflex" unicode="&#x109;" horiz-adv-x="1121" d="M595 1282 L757 1136 L923 1136 L653 1435 L537 1435 L267 1136 L433 1136 L595 1282 Z M1011 948 C1011 948 870 1034 623 1034 C277 1034 70 808 70 507 C70 206 277 -20 623 -20 C776 -20 907 12 1011 111 L917 232 C843 174 744 135 623 135 C378 135 265 314 265 507 C265 700 378 879 623 879 C750 879 822 850 822 850 L822 710 L1011 710 L1011 948 Z " />
<glyph glyph-name="Cdotaccent" unicode="&#x10a;" horiz-adv-x="1433" d="M708 1657 C708 1590 762 1536 829 1536 C896 1536 951 1590 951 1657 C951 1724 896 1779 829 1779 C762 1779 708 1724 708 1657 L708 1657 Z M1323 1356 C1323 1356 1136 1454 829 1454 C358 1454 90 1139 90 717 C90 295 358 -20 829 -20 C1048 -20 1214 38 1323 130 L1225 264 C1144 206 1020 146 829 146 C481 146 303 397 303 717 C303 1037 481 1288 829 1288 C1000 1288 1124 1246 1124 1246 L1124 1095 L1323 1095 L1323 1356 Z " />
<glyph glyph-name="cdotaccent" unicode="&#x10b;" horiz-adv-x="1121" d="M490 1313 C490 1246 544 1192 611 1192 C678 1192 733 1246 733 1313 C733 1380 678 1435 611 1435 C544 1435 490 1380 490 1313 L490 1313 Z M1011 948 C1011 948 870 1034 623 1034 C277 1034 70 808 70 507 C70 206 277 -20 623 -20 C776 -20 907 12 1011 111 L917 232 C843 174 744 135 623 135 C378 135 265 314 265 507 C265 700 378 879 623 879 C750 879 822 850 822 850 L822 710 L1011 710 L1011 948 Z " />
<glyph glyph-name="Ccaron" unicode="&#x10c;" horiz-adv-x="1433" d="M661 1835 L495 1835 L765 1536 L881 1536 L1151 1835 L985 1835 L823 1689 L661 1835 Z M1323 1356 C1323 1356 1136 1454 829 1454 C358 1454 90 1139 90 717 C90 295 358 -20 829 -20 C1048 -20 1214 38 1323 130 L1225 264 C1144 206 1020 146 829 146 C481 146 303 397 303 717 C303 1037 481 1288 829 1288 C1000 1288 1124 1246 1124 1246 L1124 1095 L1323 1095 L1323 1356 Z " />
<glyph glyph-name="ccaron" unicode="&#x10d;" horiz-adv-x="1121" d="M452 1434 L286 1434 L556 1135 L672 1135 L942 1434 L776 1434 L614 1288 L452 1434 Z M1011 948 C1011 948 870 1034 623 1034 C277 1034 70 808 70 507 C70 206 277 -20 623 -20 C776 -20 907 12 1011 111 L917 232 C843 174 744 135 623 135 C378 135 265 314 265 507 C265 700 378 879 623 879 C750 879 822 850 822 850 L822 710 L1011 710 L1011 948 Z " />
<glyph glyph-name="Dcaron" unicode="&#x10e;" horiz-adv-x="1546" d="M541 1835 L375 1835 L645 1536 L761 1536 L1031 1835 L865 1835 L703 1689 L541 1835 Z M1476 717 C1476 1150 1249 1434 779 1434 L110 1434 L110 1268 L269 1268 L269 166 L110 166 L110 0 L779 0 C1249 0 1476 283 1476 717 L1476 717 Z M468 1268 L779 1268 C1127 1268 1271 1035 1271 717 C1271 399 1127 166 779 166 L468 166 L468 1268 Z " />
<glyph glyph-name="dcaron" unicode="&#x10f;" horiz-adv-x="1356" d="M1291 0 L1291 155 L1132 155 L1132 1516 L784 1516 L784 1361 L943 1361 L943 813 C868 966 709 1034 573 1034 C256 1034 70 797 70 507 C70 216 256 -20 573 -20 C709 -20 868 48 943 201 L943 0 L1291 0 Z M603 879 C840 879 943 686 943 507 C943 327 840 135 603 135 C366 135 263 327 263 507 C263 686 366 879 603 879 L603 879 Z M1175 1080 L1338 1080 L1467 1516 L1269 1516 L1175 1080 Z " />
<glyph glyph-name="Dcroat" unicode="&#x110;" horiz-adv-x="1624" d="M1554 717 C1554 1150 1327 1434 857 1434 L188 1434 L188 1268 L347 1268 L347 800 L110 800 L110 634 L347 634 L347 166 L188 166 L188 0 L857 0 C1327 0 1554 283 1554 717 L1554 717 Z M546 1268 L857 1268 C1205 1268 1349 1035 1349 717 C1349 399 1205 166 857 166 L546 166 L546 634 L863 634 L863 800 L546 800 L546 1268 Z " />
<glyph glyph-name="dcroat" unicode="&#x111;" horiz-adv-x="1371" d="M1291 0 L1291 155 L1132 155 L1132 1073 L1321 1073 L1321 1228 L1132 1228 L1132 1516 L784 1516 L784 1361 L943 1361 L943 1228 L681 1228 L681 1073 L943 1073 L943 813 C868 966 709 1034 573 1034 C256 1034 70 797 70 507 C70 216 256 -20 573 -20 C709 -20 868 48 943 201 L943 0 L1291 0 Z M603 879 C840 879 943 686 943 507 C943 327 840 135 603 135 C366 135 263 327 263 507 C263 686 366 879 603 879 L603 879 Z " />
<glyph glyph-name="Emacron" unicode="&#x112;" horiz-adv-x="1366" d="M328 1535 L1037 1535 L1037 1690 L328 1690 L328 1535 Z M110 0 L1256 0 L1256 339 L1057 339 L1057 166 L468 166 L468 649 L1050 649 L1050 815 L468 815 L468 1268 L1047 1268 L1047 1095 L1246 1095 L1246 1434 L110 1434 L110 1268 L269 1268 L269 166 L110 166 L110 0 Z " />
<glyph glyph-name="emacron" unicode="&#x113;" horiz-adv-x="1159" d="M225 1279 L934 1279 L934 1434 L225 1434 L225 1279 Z M580 135 C392 135 283 269 273 414 L1088 414 C1098 822 896 1034 580 1034 C261 1034 70 808 70 507 C70 205 261 -20 580 -20 C804 -20 944 62 1019 137 L905 249 C830 190 729 135 580 135 L580 135 Z M274 579 C286 720 365 879 580 879 C795 879 874 720 886 579 L274 579 Z " />
<glyph glyph-name="Ebreve" unicode="&#x114;" horiz-adv-x="1366" d="M682 1535 C909 1535 997 1679 1022 1781 L893 1781 C849 1695 788 1657 682 1657 C576 1657 514 1695 471 1781 L342 1781 C367 1679 455 1535 682 1535 L682 1535 Z M110 0 L1256 0 L1256 339 L1057 339 L1057 166 L468 166 L468 649 L1050 649 L1050 815 L468 815 L468 1268 L1047 1268 L1047 1095 L1246 1095 L1246 1434 L110 1434 L110 1268 L269 1268 L269 166 L110 166 L110 0 Z " />
<glyph glyph-name="ebreve" unicode="&#x115;" horiz-adv-x="1159" d="M580 135 C392 135 283 269 273 414 L1088 414 C1098 822 896 1034 580 1034 C261 1034 70 808 70 507 C70 205 261 -20 580 -20 C804 -20 944 62 1019 137 L905 249 C830 190 729 135 580 135 L580 135 Z M274 579 C286 720 365 879 580 879 C795 879 874 720 886 579 L274 579 Z M579 1188 C806 1188 894 1332 919 1434 L790 1434 C746 1348 685 1310 579 1310 C473 1310 411 1348 368 1434 L239 1434 C264 1332 352 1188 579 1188 L579 1188 Z " />
<glyph glyph-name="Edotaccent" unicode="&#x116;" horiz-adv-x="1366" d="M550 1657 C550 1590 604 1536 671 1536 C738 1536 793 1590 793 1657 C793 1724 738 1779 671 1779 C604 1779 550 1724 550 1657 L550 1657 Z M110 0 L1256 0 L1256 339 L1057 339 L1057 166 L468 166 L468 649 L1050 649 L1050 815 L468 815 L468 1268 L1047 1268 L1047 1095 L1246 1095 L1246 1434 L110 1434 L110 1268 L269 1268 L269 166 L110 166 L110 0 Z " />
<glyph glyph-name="edotaccent" unicode="&#x117;" horiz-adv-x="1159" d="M580 135 C392 135 283 269 273 414 L1088 414 C1098 822 896 1034 580 1034 C261 1034 70 808 70 507 C70 205 261 -20 580 -20 C804 -20 944 62 1019 137 L905 249 C830 190 729 135 580 135 L580 135 Z M274 579 C286 720 365 879 580 879 C795 879 874 720 886 579 L274 579 Z M458 1312 C458 1245 512 1191 579 1191 C646 1191 701 1245 701 1312 C701 1379 646 1434 579 1434 C512 1434 458 1379 458 1312 L458 1312 Z " />
<glyph glyph-name="Eogonek" unicode="&#x118;" horiz-adv-x="1392" d="M110 0 L1121 0 C1103 -3 982 -36 973 -179 C961 -357 1136 -413 1282 -413 L1282 -221 C1282 -221 1140 -226 1140 -121 C1140 -29 1249 -1 1256 0 L1256 339 L1057 339 L1057 166 L468 166 L468 649 L1050 649 L1050 815 L468 815 L468 1268 L1047 1268 L1047 1095 L1246 1095 L1246 1434 L110 1434 L110 1268 L269 1268 L269 166 L110 166 L110 0 Z " />
<glyph glyph-name="eogonek" unicode="&#x119;" horiz-adv-x="1159" d="M580 135 C392 135 283 269 273 414 L1088 414 C1098 822 896 1034 580 1034 C261 1034 70 808 70 507 C70 206 259 -18 575 -20 C534 -42 483 -88 477 -179 C465 -357 640 -413 786 -413 L786 -221 C786 -221 644 -226 644 -121 C644 -40 728 -9 752 -2 C879 26 965 83 1019 137 L905 249 C830 190 729 135 580 135 L580 135 Z M274 579 C286 720 365 879 580 879 C795 879 874 720 886 579 L274 579 Z " />
<glyph glyph-name="Ecaron" unicode="&#x11a;" horiz-adv-x="1366" d="M520 1835 L354 1835 L624 1536 L740 1536 L1010 1835 L844 1835 L682 1689 L520 1835 Z M110 0 L1256 0 L1256 339 L1057 339 L1057 166 L468 166 L468 649 L1050 649 L1050 815 L468 815 L468 1268 L1047 1268 L1047 1095 L1246 1095 L1246 1434 L110 1434 L110 1268 L269 1268 L269 166 L110 166 L110 0 Z " />
<glyph glyph-name="ecaron" unicode="&#x11b;" horiz-adv-x="1159" d="M580 135 C392 135 283 269 273 414 L1088 414 C1098 822 896 1034 580 1034 C261 1034 70 808 70 507 C70 205 261 -20 580 -20 C804 -20 944 62 1019 137 L905 249 C830 190 729 135 580 135 L580 135 Z M274 579 C286 720 365 879 580 879 C795 879 874 720 886 579 L274 579 Z M417 1434 L251 1434 L521 1135 L637 1135 L907 1434 L741 1434 L579 1288 L417 1434 Z " />
<glyph glyph-name="Gcircumflex" unicode="&#x11c;" horiz-adv-x="1503" d="M818 1682 L980 1536 L1146 1536 L876 1835 L760 1835 L490 1536 L656 1536 L818 1682 Z M1393 1333 C1393 1333 1200 1454 829 1454 C358 1454 90 1139 90 717 C90 295 358 -20 829 -20 C1060 -20 1264 35 1393 156 L1393 815 L849 815 L849 628 L1194 628 L1194 238 C1112 176 985 146 829 146 C481 146 303 397 303 717 C303 1037 481 1288 829 1288 C1056 1288 1194 1230 1194 1230 L1194 1095 L1393 1095 L1393 1333 Z " />
<glyph glyph-name="gcircumflex" unicode="&#x11d;" horiz-adv-x="1361" d="M581 1281 L743 1135 L909 1135 L639 1434 L523 1434 L253 1135 L419 1135 L581 1281 Z M923 20 C923 -225 845 -377 577 -377 C452 -377 335 -338 239 -280 L135 -407 C245 -490 421 -532 577 -532 C897 -532 1112 -403 1112 20 L1112 859 L1271 859 L1271 1014 L923 1014 L923 813 C848 966 689 1034 553 1034 C236 1034 50 797 50 507 C50 216 236 -20 553 -20 C689 -20 848 48 923 201 L923 20 Z M583 879 C820 879 923 686 923 507 C923 327 820 135 583 135 C346 135 243 327 243 507 C243 686 346 879 583 879 L583 879 Z " />
<glyph glyph-name="Gbreve" unicode="&#x11e;" horiz-adv-x="1503" d="M829 1535 C1056 1535 1144 1679 1169 1781 L1040 1781 C996 1695 935 1657 829 1657 C723 1657 661 1695 618 1781 L489 1781 C514 1679 602 1535 829 1535 L829 1535 Z M1393 1333 C1393 1333 1200 1454 829 1454 C358 1454 90 1139 90 717 C90 295 358 -20 829 -20 C1060 -20 1264 35 1393 156 L1393 815 L849 815 L849 628 L1194 628 L1194 238 C1112 176 985 146 829 146 C481 146 303 397 303 717 C303 1037 481 1288 829 1288 C1056 1288 1194 1230 1194 1230 L1194 1095 L1393 1095 L1393 1333 Z " />
<glyph glyph-name="gbreve" unicode="&#x11f;" horiz-adv-x="1381" d="M601 1188 C828 1188 916 1332 941 1434 L812 1434 C768 1348 707 1310 601 1310 C495 1310 433 1348 390 1434 L261 1434 C286 1332 374 1188 601 1188 L601 1188 Z M943 20 C943 -225 865 -377 597 -377 C472 -377 355 -338 259 -280 L155 -407 C265 -490 441 -532 597 -532 C917 -532 1132 -403 1132 20 L1132 859 L1291 859 L1291 1014 L943 1014 L943 813 C868 966 709 1034 573 1034 C256 1034 70 797 70 507 C70 216 256 -20 573 -20 C709 -20 868 48 943 201 L943 20 Z M603 879 C840 879 943 686 943 507 C943 327 840 135 603 135 C366 135 263 327 263 507 C263 686 366 879 603 879 L603 879 Z " />
<glyph glyph-name="Gdotaccent" unicode="&#x120;" horiz-adv-x="1503" d="M708 1657 C708 1590 762 1536 829 1536 C896 1536 951 1590 951 1657 C951 1724 896 1779 829 1779 C762 1779 708 1724 708 1657 L708 1657 Z M1393 1333 C1393 1333 1200 1454 829 1454 C358 1454 90 1139 90 717 C90 295 358 -20 829 -20 C1060 -20 1264 35 1393 156 L1393 815 L849 815 L849 628 L1194 628 L1194 238 C1112 176 985 146 829 146 C481 146 303 397 303 717 C303 1037 481 1288 829 1288 C1056 1288 1194 1230 1194 1230 L1194 1095 L1393 1095 L1393 1333 Z " />
<glyph glyph-name="gdotaccent" unicode="&#x121;" horiz-adv-x="1381" d="M480 1313 C480 1246 534 1192 601 1192 C668 1192 723 1246 723 1313 C723 1380 668 1435 601 1435 C534 1435 480 1380 480 1313 L480 1313 Z M943 20 C943 -225 865 -377 597 -377 C472 -377 355 -338 259 -280 L155 -407 C265 -490 441 -532 597 -532 C917 -532 1132 -403 1132 20 L1132 859 L1291 859 L1291 1014 L943 1014 L943 813 C868 966 709 1034 573 1034 C256 1034 70 797 70 507 C70 216 256 -20 573 -20 C709 -20 868 48 943 201 L943 20 Z M603 879 C840 879 943 686 943 507 C943 327 840 135 603 135 C366 135 263 327 263 507 C263 686 366 879 603 879 L603 879 Z " />
<glyph glyph-name="Gcommaaccent" unicode="&#x122;" horiz-adv-x="1503" d="M569 -532 L752 -532 L941 -96 L723 -96 L569 -532 Z M1393 1333 C1393 1333 1200 1454 829 1454 C358 1454 90 1139 90 717 C90 295 358 -20 829 -20 C1060 -20 1264 35 1393 156 L1393 815 L849 815 L849 628 L1194 628 L1194 238 C1112 176 985 146 829 146 C481 146 303 397 303 717 C303 1037 481 1288 829 1288 C1056 1288 1194 1230 1194 1230 L1194 1095 L1393 1095 L1393 1333 Z " />
<glyph glyph-name="gcommaaccent" unicode="&#x123;" horiz-adv-x="1381" d="M864 1576 L681 1576 L492 1140 L710 1140 L864 1576 Z M943 20 C943 -225 865 -377 597 -377 C472 -377 355 -338 259 -280 L155 -407 C265 -490 441 -532 597 -532 C917 -532 1132 -403 1132 20 L1132 859 L1291 859 L1291 1014 L943 1014 L943 813 C868 966 709 1034 573 1034 C256 1034 70 797 70 507 C70 216 256 -20 573 -20 C709 -20 868 48 943 201 L943 20 Z M603 879 C840 879 943 686 943 507 C943 327 840 135 603 135 C366 135 263 327 263 507 C263 686 366 879 603 879 L603 879 Z " />
<glyph glyph-name="Hcircumflex" unicode="&#x124;" horiz-adv-x="1699" d="M849 1682 L1011 1536 L1177 1536 L907 1835 L791 1835 L521 1536 L687 1536 L849 1682 Z M1231 816 L468 816 L468 1268 L627 1268 L627 1434 L110 1434 L110 1268 L269 1268 L269 166 L110 166 L110 0 L627 0 L627 166 L468 166 L468 650 L1231 650 L1231 166 L1072 166 L1072 0 L1589 0 L1589 166 L1430 166 L1430 1268 L1589 1268 L1589 1434 L1072 1434 L1072 1268 L1231 1268 L1231 816 Z " />
<glyph glyph-name="hcircumflex" unicode="&#x125;" horiz-adv-x="1437" d="M718 1682 L880 1536 L1046 1536 L776 1835 L660 1835 L390 1536 L556 1536 L718 1682 Z M249 1361 L249 155 L90 155 L90 0 L597 0 L597 155 L438 155 L438 545 C438 724 498 879 719 879 C939 879 999 724 999 545 L999 155 L840 155 L840 0 L1347 0 L1347 155 L1188 155 L1188 545 C1188 837 1047 1034 729 1034 C578 1034 471 955 438 861 L438 1516 L90 1516 L90 1361 L249 1361 Z " />
<glyph glyph-name="Hbar" unicode="&#x126;" horiz-adv-x="1723" d="M110 974 L281 974 L281 166 L122 166 L122 0 L639 0 L639 166 L480 166 L480 650 L1243 650 L1243 166 L1084 166 L1084 0 L1601 0 L1601 166 L1442 166 L1442 974 L1613 974 L1613 1130 L1442 1130 L1442 1268 L1601 1268 L1601 1434 L1084 1434 L1084 1268 L1243 1268 L1243 1130 L480 1130 L480 1268 L639 1268 L639 1434 L122 1434 L122 1268 L281 1268 L281 1130 L110 1130 L110 974 Z M1243 816 L480 816 L480 974 L1243 974 L1243 816 Z " />
<glyph glyph-name="hbar" unicode="&#x127;" horiz-adv-x="1467" d="M1218 545 C1218 837 1077 1034 759 1034 C608 1034 501 955 468 861 L468 1113 L730 1113 L730 1268 L468 1268 L468 1516 L120 1516 L120 1361 L279 1361 L279 1268 L90 1268 L90 1113 L279 1113 L279 155 L120 155 L120 0 L627 0 L627 155 L468 155 L468 545 C468 724 528 879 749 879 C969 879 1029 724 1029 545 L1029 155 L870 155 L870 0 L1377 0 L1377 155 L1218 155 L1218 545 Z " />
<glyph glyph-name="Itilde" unicode="&#x128;" horiz-adv-x="825" d="M374 1612 C418 1577 458 1548 519 1548 C763 1548 754 1777 754 1777 L579 1777 C579 1777 581 1699 524 1699 C497 1699 469 1722 451 1735 C407 1770 367 1799 306 1799 C62 1799 71 1570 71 1570 L246 1570 C246 1570 244 1648 301 1648 C328 1648 356 1625 374 1612 L374 1612 Z M512 1268 L671 1268 L671 1434 L154 1434 L154 1268 L313 1268 L313 166 L154 166 L154 0 L671 0 L671 166 L512 166 L512 1268 Z " />
<glyph glyph-name="itilde" unicode="&#x129;" horiz-adv-x="785" d="M354 1248 C398 1213 438 1184 499 1184 C743 1184 734 1413 734 1413 L559 1413 C559 1413 561 1335 504 1335 C477 1335 449 1358 431 1371 C387 1406 347 1435 286 1435 C42 1435 51 1206 51 1206 L226 1206 C226 1206 224 1284 281 1284 C308 1284 336 1261 354 1248 L354 1248 Z M487 155 L487 1014 L139 1014 L139 859 L298 859 L298 155 L139 155 L139 0 L646 0 L646 155 L487 155 Z " />
<glyph glyph-name="uni012A" unicode="&#x12a;" horiz-adv-x="849" d="M70 1535 L779 1535 L779 1690 L70 1690 L70 1535 Z M524 1268 L683 1268 L683 1434 L166 1434 L166 1268 L325 1268 L325 166 L166 166 L166 0 L683 0 L683 166 L524 166 L524 1268 Z " />
<glyph glyph-name="imacron" unicode="&#x12b;" horiz-adv-x="749" d="M20 1279 L729 1279 L729 1434 L20 1434 L20 1279 Z M469 155 L469 1014 L121 1014 L121 859 L280 859 L280 155 L121 155 L121 0 L628 0 L628 155 L469 155 Z " />
<glyph glyph-name="Ibreve" unicode="&#x12c;" horiz-adv-x="820" d="M410 1541 C637 1541 725 1685 750 1787 L621 1787 C577 1701 516 1663 410 1663 C304 1663 242 1701 199 1787 L70 1787 C95 1685 183 1541 410 1541 L410 1541 Z M510 1268 L669 1268 L669 1434 L152 1434 L152 1268 L311 1268 L311 166 L152 166 L152 0 L669 0 L669 166 L510 166 L510 1268 Z " />
<glyph glyph-name="uni012D" unicode="&#x12d;" horiz-adv-x="720" d="M360 1188 C587 1188 675 1332 700 1434 L571 1434 C527 1348 466 1310 360 1310 C254 1310 192 1348 149 1434 L20 1434 C45 1332 133 1188 360 1188 L360 1188 Z M455 155 L455 1014 L107 1014 L107 859 L266 859 L266 155 L107 155 L107 0 L614 0 L614 155 L455 155 Z " />
<glyph glyph-name="Iogonek" unicode="&#x12e;" horiz-adv-x="683" d="M428 1268 L587 1268 L587 1434 L70 1434 L70 1268 L229 1268 L229 166 L70 166 L70 0 L452 0 C434 -3 313 -36 304 -179 C292 -357 507 -413 613 -413 L613 -221 C613 -221 471 -226 471 -121 C471 -27 587 0 587 0 L587 166 L428 166 L428 1268 Z " />
<glyph glyph-name="iogonek" unicode="&#x12f;" horiz-adv-x="673" d="M438 155 L438 1014 L90 1014 L90 859 L249 859 L249 155 L90 155 L90 0 L462 0 C444 -3 323 -36 314 -179 C302 -357 517 -413 623 -413 L623 -221 C623 -221 481 -226 481 -121 C481 -31 585 -2 597 0 L597 155 L438 155 Z M222 1312 C222 1245 276 1191 343 1191 C410 1191 465 1245 465 1312 C465 1379 410 1434 343 1434 C276 1434 222 1379 222 1312 L222 1312 Z " />
<glyph glyph-name="Idotaccent" unicode="&#x130;" horiz-adv-x="737" d="M247 1657 C247 1590 301 1536 368 1536 C435 1536 490 1590 490 1657 C490 1724 435 1779 368 1779 C301 1779 247 1724 247 1657 L247 1657 Z M468 1268 L627 1268 L627 1434 L110 1434 L110 1268 L269 1268 L269 166 L110 166 L110 0 L627 0 L627 166 L468 166 L468 1268 Z " />
<glyph glyph-name="dotlessi" unicode="&#x131;" horiz-adv-x="687" d="M438 155 L438 1014 L90 1014 L90 859 L249 859 L249 155 L90 155 L90 0 L597 0 L597 155 L438 155 Z " />
<glyph glyph-name="IJ" unicode="&#x132;" horiz-adv-x="1895" d="M1626 452 L1626 1268 L1785 1268 L1785 1434 L1268 1434 L1268 1268 L1427 1268 L1427 452 C1427 241 1363 146 1168 146 C1018 146 951 220 910 318 L729 267 C781 108 898 -20 1168 -20 C1477 -20 1626 120 1626 452 L1626 452 Z M468 1268 L627 1268 L627 1434 L110 1434 L110 1268 L269 1268 L269 166 L110 166 L110 0 L627 0 L627 166 L468 166 L468 1268 Z " />
<glyph glyph-name="ij" unicode="&#x133;" horiz-adv-x="1169" d="M517 -491 C558 -510 631 -532 708 -532 C983 -532 1032 -344 1032 -47 L1032 1014 L684 1014 L684 859 L843 859 L843 -47 C843 -273 827 -377 708 -377 C655 -377 608 -365 570 -351 L517 -491 Z M438 155 L438 1014 L90 1014 L90 859 L249 859 L249 155 L90 155 L90 0 L597 0 L597 155 L438 155 Z M816 1312 C816 1245 870 1191 937 1191 C1004 1191 1059 1245 1059 1312 C1059 1379 1004 1434 937 1434 C870 1434 816 1379 816 1312 L816 1312 Z M222 1312 C222 1245 276 1191 343 1191 C410 1191 465 1245 465 1312 C465 1379 410 1434 343 1434 C276 1434 222 1379 222 1312 L222 1312 Z " />
<glyph glyph-name="Jcircumflex" unicode="&#x134;" horiz-adv-x="1305" d="M867 1682 L1029 1536 L1195 1536 L925 1835 L809 1835 L539 1536 L705 1536 L867 1682 Z M967 452 L967 1268 L1126 1268 L1126 1434 L609 1434 L609 1268 L768 1268 L768 452 C768 241 704 146 509 146 C359 146 292 220 251 318 L70 267 C122 108 239 -20 509 -20 C818 -20 967 120 967 452 L967 452 Z " />
<glyph glyph-name="jcircumflex" unicode="&#x135;" horiz-adv-x="600" d="M292 1282 L454 1136 L620 1136 L350 1435 L234 1435 L-36 1136 L130 1136 L292 1282 Z M-130 -491 C-89 -510 -16 -532 61 -532 C336 -532 385 -344 385 -47 L385 1014 L37 1014 L37 859 L196 859 L196 -47 C196 -273 180 -377 61 -377 C8 -377 -39 -365 -77 -351 L-130 -491 Z " />
<glyph glyph-name="Kcommaaccent" unicode="&#x136;" horiz-adv-x="1519" d="M544 -532 L727 -532 L916 -96 L698 -96 L544 -532 Z M468 1268 L627 1268 L627 1434 L110 1434 L110 1268 L269 1268 L269 166 L110 166 L110 0 L627 0 L627 166 L468 166 L468 487 L670 682 L1136 0 L1409 0 L1409 166 L1250 166 L806 813 L1278 1268 L1409 1268 L1409 1434 L892 1434 L892 1268 L1021 1268 L468 731 L468 1268 Z " />
<glyph glyph-name="kcommaaccent" unicode="&#x137;" horiz-adv-x="1281" d="M416 -532 L599 -532 L788 -96 L570 -96 L416 -532 Z M438 155 L438 349 L588 473 L949 0 L1191 0 L1191 155 L1055 155 L727 588 L1056 859 L1183 859 L1183 1014 L676 1014 L676 859 L794 859 L438 565 L438 1516 L90 1516 L90 1361 L249 1361 L249 155 L90 155 L90 0 L597 0 L597 155 L438 155 Z " />
<glyph glyph-name="kgreenlandic" unicode="&#x138;" horiz-adv-x="1498" d="M468 1268 L627 1268 L627 1434 L110 1434 L110 1268 L269 1268 L269 166 L110 166 L110 0 L627 0 L627 166 L468 166 L468 643 L562 720 C746 625 966 328 1081 0 L1388 0 L1388 166 L1240 166 C1098 484 893 736 698 837 C875 987 1082 1239 1329 1248 L1329 1434 C946 1415 765 1108 468 859 L468 1268 Z " />
<glyph glyph-name="Lacute" unicode="&#x139;" horiz-adv-x="1300" d="M279 1536 L469 1536 L774 1835 L542 1835 L279 1536 Z M468 1268 L627 1268 L627 1434 L110 1434 L110 1268 L269 1268 L269 166 L110 166 L110 0 L1190 0 L1190 339 L991 339 L991 166 L468 166 L468 1268 Z " />
<glyph glyph-name="lacute" unicode="&#x13a;" horiz-adv-x="753" d="M208 1596 L398 1596 L703 1895 L471 1895 L208 1596 Z M398 155 L398 1516 L50 1516 L50 1361 L209 1361 L209 155 L50 155 L50 0 L557 0 L557 155 L398 155 Z " />
<glyph glyph-name="Lcommaaccent" unicode="&#x13b;" horiz-adv-x="1300" d="M393 -532 L576 -532 L765 -96 L547 -96 L393 -532 Z M468 1268 L627 1268 L627 1434 L110 1434 L110 1268 L269 1268 L269 166 L110 166 L110 0 L1190 0 L1190 339 L991 339 L991 166 L468 166 L468 1268 Z " />
<glyph glyph-name="lcommaaccent" unicode="&#x13c;" horiz-adv-x="607" d="M50 -532 L233 -532 L422 -96 L204 -96 L50 -532 Z M398 155 L398 1516 L50 1516 L50 1361 L209 1361 L209 155 L50 155 L50 0 L557 0 L557 155 L398 155 Z " />
<glyph glyph-name="Lcaron" unicode="&#x13d;" horiz-adv-x="1300" d="M468 1268 L627 1268 L627 1434 L110 1434 L110 1268 L269 1268 L269 166 L110 166 L110 0 L1190 0 L1190 339 L991 339 L991 166 L468 166 L468 1268 Z M628 998 L791 998 L920 1434 L722 1434 L628 998 Z " />
<glyph glyph-name="lcaron" unicode="&#x13e;" horiz-adv-x="791" d="M398 155 L398 1516 L50 1516 L50 1361 L209 1361 L209 155 L50 155 L50 0 L557 0 L557 155 L398 155 Z M441 1080 L604 1080 L733 1516 L535 1516 L441 1080 Z " />
<glyph glyph-name="Ldot" unicode="&#x13f;" horiz-adv-x="1300" d="M907 790 C907 723 961 669 1028 669 C1095 669 1150 723 1150 790 C1150 857 1095 912 1028 912 C961 912 907 857 907 790 L907 790 Z M468 1268 L627 1268 L627 1434 L110 1434 L110 1268 L269 1268 L269 166 L110 166 L110 0 L1190 0 L1190 339 L991 339 L991 166 L468 166 L468 1268 Z " />
<glyph glyph-name="ldot" unicode="&#x140;" horiz-adv-x="788" d="M605 798 C605 731 659 677 726 677 C793 677 848 731 848 798 C848 865 793 920 726 920 C659 920 605 865 605 798 L605 798 Z M438 155 L438 1516 L90 1516 L90 1361 L249 1361 L249 155 L90 155 L90 0 L597 0 L597 155 L438 155 Z " />
<glyph glyph-name="Lslash" unicode="&#x141;" horiz-adv-x="1345" d="M513 1268 L672 1268 L672 1434 L155 1434 L155 1268 L314 1268 L314 789 L110 674 L110 476 L314 591 L314 166 L155 166 L155 0 L1235 0 L1235 339 L1036 339 L1036 166 L513 166 L513 703 L717 818 L717 1016 L513 901 L513 1268 Z " />
<glyph glyph-name="lslash" unicode="&#x142;" horiz-adv-x="722" d="M267 840 L90 713 L90 509 L267 636 L267 281 C267 135 287 0 511 0 L567 0 L567 155 L531 155 C458 155 456 215 456 281 L456 773 L632 900 L632 1104 L456 977 L456 1516 L267 1516 L267 840 Z " />
<glyph glyph-name="Nacute" unicode="&#x143;" horiz-adv-x="1726" d="M715 1535 L905 1535 L1210 1834 L978 1834 L715 1535 Z M110 0 L627 0 L627 166 L468 166 L468 1132 L1230 0 L1457 0 L1457 1268 L1616 1268 L1616 1434 L1099 1434 L1099 1268 L1258 1268 L1258 302 L496 1434 L110 1434 L110 1268 L269 1268 L269 166 L110 166 L110 0 Z " />
<glyph glyph-name="nacute" unicode="&#x144;" horiz-adv-x="1437" d="M648 1135 L838 1135 L1143 1434 L911 1434 L648 1135 Z M249 859 L249 155 L90 155 L90 0 L597 0 L597 155 L438 155 L438 545 C438 724 498 879 719 879 C939 879 999 724 999 545 L999 0 L1347 0 L1347 155 L1188 155 L1188 545 C1188 837 1047 1034 729 1034 C578 1034 471 955 438 861 L438 1014 L90 1014 L90 859 L249 859 Z " />
<glyph glyph-name="Ncommaaccent" unicode="&#x145;" horiz-adv-x="1726" d="M597 -532 L780 -532 L969 -96 L751 -96 L597 -532 Z M110 0 L627 0 L627 166 L468 166 L468 1132 L1230 0 L1457 0 L1457 1268 L1616 1268 L1616 1434 L1099 1434 L1099 1268 L1258 1268 L1258 302 L496 1434 L110 1434 L110 1268 L269 1268 L269 166 L110 166 L110 0 Z " />
<glyph glyph-name="ncommaaccent" unicode="&#x146;" horiz-adv-x="1437" d="M461 -532 L644 -532 L833 -96 L615 -96 L461 -532 Z M249 859 L249 155 L90 155 L90 0 L597 0 L597 155 L438 155 L438 545 C438 724 498 879 719 879 C939 879 999 724 999 545 L999 0 L1347 0 L1347 155 L1188 155 L1188 545 C1188 837 1047 1034 729 1034 C578 1034 471 955 438 861 L438 1014 L90 1014 L90 859 L249 859 Z " />
<glyph glyph-name="Ncaron" unicode="&#x147;" horiz-adv-x="1726" d="M701 1835 L535 1835 L805 1536 L921 1536 L1191 1835 L1025 1835 L863 1689 L701 1835 Z M110 0 L627 0 L627 166 L468 166 L468 1132 L1230 0 L1457 0 L1457 1268 L1616 1268 L1616 1434 L1099 1434 L1099 1268 L1258 1268 L1258 302 L496 1434 L110 1434 L110 1268 L269 1268 L269 166 L110 166 L110 0 Z " />
<glyph glyph-name="ncaron" unicode="&#x148;" horiz-adv-x="1437" d="M556 1434 L390 1434 L660 1135 L776 1135 L1046 1434 L880 1434 L718 1288 L556 1434 Z M249 859 L249 155 L90 155 L90 0 L597 0 L597 155 L438 155 L438 545 C438 724 498 879 719 879 C939 879 999 724 999 545 L999 0 L1347 0 L1347 155 L1188 155 L1188 545 C1188 837 1047 1034 729 1034 C578 1034 471 955 438 861 L438 1014 L90 1014 L90 859 L249 859 Z " />
<glyph glyph-name="napostrophe" unicode="&#x149;" horiz-adv-x="1561" d="M-10 998 L173 998 L362 1434 L144 1434 L-10 998 Z M373 859 L373 155 L214 155 L214 0 L721 0 L721 155 L562 155 L562 545 C562 724 622 879 843 879 C1063 879 1123 724 1123 545 L1123 0 L1471 0 L1471 155 L1312 155 L1312 545 C1312 837 1171 1034 853 1034 C702 1034 595 955 562 861 L562 1014 L214 1014 L214 859 L373 859 Z " />
<glyph glyph-name="Eng" unicode="&#x14a;" horiz-adv-x="1726" d="M110 0 L627 0 L627 166 L468 166 L468 1132 L1230 0 L1258 0 L1258 -60 C1258 -231 1217 -366 1029 -366 C919 -366 850 -324 796 -257 L657 -358 C745 -488 880 -532 1029 -532 C1328 -532 1457 -372 1457 -60 L1457 1268 L1616 1268 L1616 1434 L1099 1434 L1099 1268 L1258 1268 L1258 302 L496 1434 L110 1434 L110 1268 L269 1268 L269 166 L110 166 L110 0 Z " />
<glyph glyph-name="eng" unicode="&#x14b;" horiz-adv-x="1298" d="M249 859 L249 155 L90 155 L90 0 L597 0 L597 155 L438 155 L438 545 C438 724 498 879 719 879 C939 879 999 724 999 545 L999 -47 C999 -273 983 -377 864 -377 C811 -377 764 -365 726 -351 L673 -491 C714 -510 787 -532 864 -532 C1139 -532 1188 -344 1188 -47 L1188 545 C1188 837 1047 1034 729 1034 C578 1034 471 955 438 861 L438 1014 L90 1014 L90 859 L249 859 Z " />
<glyph glyph-name="Omacron" unicode="&#x14c;" horiz-adv-x="1658" d="M475 1535 L1184 1535 L1184 1690 L475 1690 L475 1535 Z M829 -20 C1300 -20 1568 295 1568 717 C1568 1139 1300 1454 829 1454 C358 1454 90 1139 90 717 C90 295 358 -20 829 -20 L829 -20 Z M829 146 C481 146 303 397 303 717 C303 1037 481 1288 829 1288 C1177 1288 1355 1037 1355 717 C1355 397 1177 146 829 146 L829 146 Z " />
<glyph glyph-name="omacron" unicode="&#x14d;" horiz-adv-x="1246" d="M269 1279 L978 1279 L978 1434 L269 1434 L269 1279 Z M623 -20 C969 -20 1176 205 1176 507 C1176 808 969 1034 623 1034 C277 1034 70 808 70 507 C70 205 277 -20 623 -20 L623 -20 Z M623 135 C378 135 265 312 265 507 C265 700 378 879 623 879 C868 879 981 700 981 507 C981 312 868 135 623 135 L623 135 Z " />
<glyph glyph-name="Obreve" unicode="&#x14e;" horiz-adv-x="1658" d="M829 -20 C1300 -20 1568 295 1568 717 C1568 1139 1300 1454 829 1454 C358 1454 90 1139 90 717 C90 295 358 -20 829 -20 L829 -20 Z M829 146 C481 146 303 397 303 717 C303 1037 481 1288 829 1288 C1177 1288 1355 1037 1355 717 C1355 397 1177 146 829 146 L829 146 Z M829 1535 C1056 1535 1144 1679 1169 1781 L1040 1781 C996 1695 935 1657 829 1657 C723 1657 661 1695 618 1781 L489 1781 C514 1679 602 1535 829 1535 L829 1535 Z " />
<glyph glyph-name="obreve" unicode="&#x14f;" horiz-adv-x="1246" d="M623 -20 C969 -20 1176 205 1176 507 C1176 808 969 1034 623 1034 C277 1034 70 808 70 507 C70 205 277 -20 623 -20 L623 -20 Z M623 135 C378 135 265 312 265 507 C265 700 378 879 623 879 C868 879 981 700 981 507 C981 312 868 135 623 135 L623 135 Z M623 1189 C850 1189 938 1333 963 1435 L834 1435 C790 1349 729 1311 623 1311 C517 1311 455 1349 412 1435 L283 1435 C308 1333 396 1189 623 1189 L623 1189 Z " />
<glyph glyph-name="Ohungarumlaut" unicode="&#x150;" horiz-adv-x="1658" d="M829 -20 C1300 -20 1568 295 1568 717 C1568 1139 1300 1454 829 1454 C358 1454 90 1139 90 717 C90 295 358 -20 829 -20 L829 -20 Z M829 146 C481 146 303 397 303 717 C303 1037 481 1288 829 1288 C1177 1288 1355 1037 1355 717 C1355 397 1177 146 829 146 L829 146 Z M606 1536 L779 1536 L908 1902 L700 1902 L606 1536 Z M887 1536 L1060 1536 L1189 1902 L981 1902 L887 1536 Z " />
<glyph glyph-name="ohungarumlaut" unicode="&#x151;" horiz-adv-x="1246" d="M623 -20 C969 -20 1176 205 1176 507 C1176 808 969 1034 623 1034 C277 1034 70 808 70 507 C70 205 277 -20 623 -20 L623 -20 Z M623 135 C378 135 265 312 265 507 C265 700 378 879 623 879 C868 879 981 700 981 507 C981 312 868 135 623 135 L623 135 Z M394 1150 L567 1150 L696 1516 L488 1516 L394 1150 Z M675 1150 L848 1150 L977 1516 L769 1516 L675 1150 Z " />
<glyph glyph-name="OE" unicode="&#x152;" horiz-adv-x="2197" d="M1120 1399 C1029 1435 925 1454 809 1454 C338 1454 70 1139 70 717 C70 295 338 -20 809 -20 C925 -20 1029 0 1120 35 L1120 0 L2107 0 L2107 339 L1908 339 L1908 166 L1319 166 L1319 649 L1901 649 L1901 815 L1319 815 L1319 1268 L1898 1268 L1898 1095 L2097 1095 L2097 1434 L1120 1434 L1120 1399 Z M809 1288 C935 1288 1039 1255 1120 1197 L1120 236 C1039 179 935 146 809 146 C461 146 283 397 283 717 C283 1037 461 1288 809 1288 L809 1288 Z " />
<glyph glyph-name="oe" unicode="&#x153;" horiz-adv-x="2070" d="M1491 135 C1303 135 1194 269 1184 414 L1999 414 C2009 822 1807 1034 1491 1034 C1304 1034 1161 956 1074 831 C981 956 826 1034 623 1034 C277 1034 70 808 70 507 C70 205 277 -20 623 -20 C826 -20 981 57 1074 182 C1161 57 1304 -20 1491 -20 C1715 -20 1855 62 1930 137 L1816 249 C1741 190 1640 135 1491 135 L1491 135 Z M623 135 C378 135 265 312 265 507 C265 700 378 879 623 879 C868 879 981 700 981 507 C981 312 868 135 623 135 L623 135 Z M1185 579 C1197 720 1276 879 1491 879 C1706 879 1785 720 1797 579 L1185 579 Z " />
<glyph glyph-name="Racute" unicode="&#x154;" horiz-adv-x="1511" d="M573 1536 L763 1536 L1068 1835 L836 1835 L573 1536 Z M627 0 L627 166 L468 166 L468 586 L781 586 L1124 0 L1401 0 L1401 166 L1242 166 L994 591 C1210 630 1370 772 1370 1010 C1370 1258 1208 1434 878 1434 L110 1434 L110 1268 L269 1268 L269 166 L110 166 L110 0 L627 0 Z M468 1268 L878 1268 C1077 1268 1161 1175 1161 1010 C1161 865 1077 752 878 752 L468 752 L468 1268 Z " />
<glyph glyph-name="racute" unicode="&#x155;" horiz-adv-x="1008" d="M493 1135 L683 1135 L988 1434 L756 1434 L493 1135 Z M954 990 C892 1018 817 1034 729 1034 C578 1034 471 955 438 861 L438 1014 L90 1014 L90 859 L249 859 L249 155 L90 155 L90 0 L597 0 L597 155 L438 155 L438 545 C438 724 498 879 719 879 C781 879 830 867 869 845 L954 990 Z " />
<glyph glyph-name="Rcommaaccent" unicode="&#x156;" horiz-adv-x="1511" d="M511 -532 L694 -532 L883 -96 L665 -96 L511 -532 Z M627 0 L627 166 L468 166 L468 586 L781 586 L1124 0 L1401 0 L1401 166 L1242 166 L994 591 C1210 630 1370 772 1370 1010 C1370 1258 1208 1434 878 1434 L110 1434 L110 1268 L269 1268 L269 166 L110 166 L110 0 L627 0 Z M468 1268 L878 1268 C1077 1268 1161 1175 1161 1010 C1161 865 1077 752 878 752 L468 752 L468 1268 Z " />
<glyph glyph-name="rcommaaccent" unicode="&#x157;" horiz-adv-x="989" d="M90 -532 L273 -532 L462 -96 L244 -96 L90 -532 Z M969 990 C907 1018 832 1034 744 1034 C593 1034 486 955 453 861 L453 1014 L105 1014 L105 859 L264 859 L264 155 L105 155 L105 0 L612 0 L612 155 L453 155 L453 545 C453 724 513 879 734 879 C796 879 845 867 884 845 L969 990 Z " />
<glyph glyph-name="Rcaron" unicode="&#x158;" horiz-adv-x="1511" d="M532 1835 L366 1835 L636 1536 L752 1536 L1022 1835 L856 1835 L694 1689 L532 1835 Z M627 0 L627 166 L468 166 L468 586 L781 586 L1124 0 L1401 0 L1401 166 L1242 166 L994 591 C1210 630 1370 772 1370 1010 C1370 1258 1208 1434 878 1434 L110 1434 L110 1268 L269 1268 L269 166 L110 166 L110 0 L627 0 Z M468 1268 L878 1268 C1077 1268 1161 1175 1161 1010 C1161 865 1077 752 878 752 L468 752 L468 1268 Z " />
<glyph glyph-name="rcaron" unicode="&#x159;" horiz-adv-x="974" d="M439 1434 L273 1434 L543 1135 L659 1135 L929 1434 L763 1434 L601 1288 L439 1434 Z M954 990 C892 1018 817 1034 729 1034 C578 1034 471 955 438 861 L438 1014 L90 1014 L90 859 L249 859 L249 155 L90 155 L90 0 L597 0 L597 155 L438 155 L438 545 C438 724 498 879 719 879 C781 879 830 867 869 845 L954 990 Z " />
<glyph glyph-name="Sacute" unicode="&#x15a;" horiz-adv-x="1359" d="M576 1536 L766 1536 L1071 1835 L839 1835 L576 1536 Z M329 349 L130 349 L130 109 C130 109 333 -20 697 -20 C1037 -20 1229 116 1229 394 C1229 646 1055 758 697 833 C451 885 352 948 352 1079 C352 1209 447 1288 661 1288 C846 1288 954 1250 954 1250 L954 1095 L1153 1095 L1153 1358 C1153 1358 962 1454 661 1454 C276 1454 153 1262 153 1079 C153 874 287 733 662 655 C936 598 1030 529 1030 394 C1030 260 967 146 697 146 C476 146 329 208 329 208 L329 349 Z " />
<glyph glyph-name="sacute" unicode="&#x15b;" horiz-adv-x="1034" d="M394 1135 L584 1135 L889 1434 L657 1434 L394 1135 Z M888 959 C888 959 734 1034 503 1034 C235 1034 99 916 99 752 C99 588 214 492 498 439 C671 407 749 375 749 280 C749 189 692 135 497 135 C366 136 279 174 279 174 L279 318 L90 318 L90 84 C90 84 236 -20 497 -20 C769 -20 944 70 944 280 C944 467 800 547 531 598 C370 628 294 662 294 752 C294 838 381 879 503 879 C606 879 699 854 699 854 L699 710 L888 710 L888 959 Z " />
<glyph glyph-name="Scircumflex" unicode="&#x15c;" horiz-adv-x="1359" d="M676 1682 L838 1536 L1004 1536 L734 1835 L618 1835 L348 1536 L514 1536 L676 1682 Z M329 349 L130 349 L130 109 C130 109 333 -20 697 -20 C1037 -20 1229 116 1229 394 C1229 646 1055 758 697 833 C451 885 352 948 352 1079 C352 1209 447 1288 661 1288 C846 1288 954 1250 954 1250 L954 1095 L1153 1095 L1153 1358 C1153 1358 962 1454 661 1454 C276 1454 153 1262 153 1079 C153 874 287 733 662 655 C936 598 1030 529 1030 394 C1030 260 967 146 697 146 C476 146 329 208 329 208 L329 349 Z " />
<glyph glyph-name="scircumflex" unicode="&#x15d;" horiz-adv-x="1034" d="M501 1281 L663 1135 L829 1135 L559 1434 L443 1434 L173 1135 L339 1135 L501 1281 Z M888 959 C888 959 734 1034 503 1034 C235 1034 99 916 99 752 C99 588 214 492 498 439 C671 407 749 375 749 280 C749 189 692 135 497 135 C366 136 279 174 279 174 L279 318 L90 318 L90 84 C90 84 236 -20 497 -20 C769 -20 944 70 944 280 C944 467 800 547 531 598 C370 628 294 662 294 752 C294 838 381 879 503 879 C606 879 699 854 699 854 L699 710 L888 710 L888 959 Z " />
<glyph glyph-name="Scedilla" unicode="&#x15e;" horiz-adv-x="1359" d="M329 349 L130 349 L130 109 C130 109 288 8 577 -15 L509 -220 C631 -199 757 -189 747 -276 C736 -393 543 -348 489 -320 L445 -429 C593 -510 871 -494 890 -283 C901 -160 808 -100 695 -103 L720 -19 C1045 -13 1229 122 1229 394 C1229 646 1055 758 697 833 C451 885 352 948 352 1079 C352 1209 447 1288 661 1288 C846 1288 954 1250 954 1250 L954 1095 L1153 1095 L1153 1358 C1153 1358 962 1454 661 1454 C276 1454 153 1262 153 1079 C153 874 287 733 662 655 C936 598 1030 529 1030 394 C1030 260 967 146 697 146 C476 146 329 208 329 208 L329 349 Z " />
<glyph glyph-name="scedilla" unicode="&#x15f;" horiz-adv-x="1034" d="M888 959 C888 959 734 1034 503 1034 C235 1034 99 916 99 752 C99 588 214 492 498 439 C671 407 749 375 749 280 C749 189 692 135 497 135 C366 136 279 174 279 174 L279 318 L90 318 L90 84 C90 84 204 3 411 -16 L344 -220 C466 -199 592 -189 582 -276 C571 -393 378 -348 324 -320 L280 -429 C428 -510 706 -494 725 -283 C736 -160 643 -100 530 -103 L556 -18 C794 -6 944 85 944 280 C944 467 800 547 531 598 C370 628 294 662 294 752 C294 838 381 879 503 879 C606 879 699 854 699 854 L699 710 L888 710 L888 959 Z " />
<glyph glyph-name="Scaron" unicode="&#x160;" horiz-adv-x="1359" d="M502 1835 L336 1835 L606 1536 L722 1536 L992 1835 L826 1835 L664 1689 L502 1835 Z M329 349 L130 349 L130 109 C130 109 333 -20 697 -20 C1037 -20 1229 116 1229 394 C1229 646 1055 758 697 833 C451 885 352 948 352 1079 C352 1209 447 1288 661 1288 C846 1288 954 1250 954 1250 L954 1095 L1153 1095 L1153 1358 C1153 1358 962 1454 661 1454 C276 1454 153 1262 153 1079 C153 874 287 733 662 655 C936 598 1030 529 1030 394 C1030 260 967 146 697 146 C476 146 329 208 329 208 L329 349 Z " />
<glyph glyph-name="scaron" unicode="&#x161;" horiz-adv-x="1034" d="M347 1434 L181 1434 L451 1135 L567 1135 L837 1434 L671 1434 L509 1288 L347 1434 Z M888 959 C888 959 734 1034 503 1034 C235 1034 99 916 99 752 C99 588 214 492 498 439 C671 407 749 375 749 280 C749 189 692 135 497 135 C366 136 279 174 279 174 L279 318 L90 318 L90 84 C90 84 236 -20 497 -20 C769 -20 944 70 944 280 C944 467 800 547 531 598 C370 628 294 662 294 752 C294 838 381 879 503 879 C606 879 699 854 699 854 L699 710 L888 710 L888 959 Z " />
<glyph glyph-name="Tcommaaccent" unicode="&#x162;" horiz-adv-x="1487" d="M478 -532 L661 -532 L850 -96 L632 -96 L478 -532 Z M843 1268 L1178 1268 L1178 1095 L1377 1095 L1377 1434 L110 1434 L110 1095 L309 1095 L309 1268 L644 1268 L644 166 L485 166 L485 0 L1002 0 L1002 166 L843 166 L843 1268 Z " />
<glyph glyph-name="tcommaaccent" unicode="&#x163;" horiz-adv-x="813" d="M50 859 L245 859 L245 418 C245 110 305 -20 580 -20 C643 -20 723 -7 763 9 L718 155 C679 143 631 134 580 134 C450 134 434 212 434 418 L434 859 L727 859 L727 1014 L434 1014 L434 1313 L245 1313 L245 1014 L50 1014 L50 859 Z M263 -532 L446 -532 L635 -96 L417 -96 L263 -532 Z " />
<glyph glyph-name="Tcaron" unicode="&#x164;" horiz-adv-x="1487" d="M581 1835 L415 1835 L685 1536 L801 1536 L1071 1835 L905 1835 L743 1689 L581 1835 Z M843 1268 L1178 1268 L1178 1095 L1377 1095 L1377 1434 L110 1434 L110 1095 L309 1095 L309 1268 L644 1268 L644 166 L485 166 L485 0 L1002 0 L1002 166 L843 166 L843 1268 Z " />
<glyph glyph-name="tcaron" unicode="&#x165;" horiz-adv-x="1141" d="M50 859 L245 859 L245 418 C245 110 305 -20 580 -20 C643 -20 723 -7 763 9 L718 155 C679 143 631 134 580 134 C450 134 434 212 434 418 L434 859 L727 859 L727 1014 L434 1014 L434 1313 L245 1313 L245 1014 L50 1014 L50 859 Z M727 1080 L890 1080 L1019 1516 L821 1516 L727 1080 Z " />
<glyph glyph-name="Tbar" unicode="&#x166;" horiz-adv-x="1487" d="M843 1268 L1178 1268 L1178 1095 L1377 1095 L1377 1434 L110 1434 L110 1095 L309 1095 L309 1268 L644 1268 L644 934 L360 934 L360 768 L644 768 L644 166 L485 166 L485 0 L1002 0 L1002 166 L843 166 L843 768 L1127 768 L1127 934 L843 934 L843 1268 Z " />
<glyph glyph-name="tbar" unicode="&#x167;" horiz-adv-x="813" d="M54 517 L245 517 L245 418 C245 110 305 -20 580 -20 C643 -20 723 -7 763 9 L718 155 C679 143 631 134 580 134 C450 134 434 212 434 418 L434 517 L727 517 L727 672 L434 672 L434 859 L727 859 L727 1014 L434 1014 L434 1313 L245 1313 L245 1014 L50 1014 L50 859 L245 859 L245 672 L54 672 L54 517 Z " />
<glyph glyph-name="Utilde" unicode="&#x168;" horiz-adv-x="1732" d="M828 1600 C872 1565 912 1536 973 1536 C1217 1536 1208 1765 1208 1765 L1033 1765 C1033 1765 1035 1687 978 1687 C951 1687 923 1710 905 1723 C861 1758 821 1787 760 1787 C516 1787 525 1558 525 1558 L700 1558 C700 1558 698 1636 755 1636 C782 1636 810 1613 828 1600 L828 1600 Z M468 622 L468 1268 L627 1268 L627 1434 L110 1434 L110 1268 L269 1268 L269 622 C269 226 454 -20 866 -20 C1278 -20 1463 226 1463 622 L1463 1268 L1622 1268 L1622 1434 L1105 1434 L1105 1268 L1264 1268 L1264 622 C1264 353 1166 146 866 146 C566 146 468 353 468 622 L468 622 Z " />
<glyph glyph-name="utilde" unicode="&#x169;" horiz-adv-x="1437" d="M680 1247 C724 1212 764 1183 825 1183 C1069 1183 1060 1412 1060 1412 L885 1412 C885 1412 887 1334 830 1334 C803 1334 775 1357 757 1370 C713 1405 673 1434 612 1434 C368 1434 377 1205 377 1205 L552 1205 C552 1205 550 1283 607 1283 C634 1283 662 1260 680 1247 L680 1247 Z M1188 155 L1188 1014 L840 1014 L840 859 L999 859 L999 469 C999 290 939 135 718 135 C498 135 438 290 438 469 L438 1014 L90 1014 L90 859 L249 859 L249 469 C249 177 390 -20 708 -20 C859 -20 966 59 999 153 L999 0 L1347 0 L1347 155 L1188 155 Z " />
<glyph glyph-name="Umacron" unicode="&#x16a;" horiz-adv-x="1732" d="M513 1535 L1222 1535 L1222 1690 L513 1690 L513 1535 Z M468 622 L468 1268 L627 1268 L627 1434 L110 1434 L110 1268 L269 1268 L269 622 C269 226 454 -20 866 -20 C1278 -20 1463 226 1463 622 L1463 1268 L1622 1268 L1622 1434 L1105 1434 L1105 1268 L1264 1268 L1264 622 C1264 353 1166 146 866 146 C566 146 468 353 468 622 L468 622 Z " />
<glyph glyph-name="umacron" unicode="&#x16b;" horiz-adv-x="1437" d="M364 1279 L1073 1279 L1073 1434 L364 1434 L364 1279 Z M1188 155 L1188 1014 L840 1014 L840 859 L999 859 L999 469 C999 290 939 135 718 135 C498 135 438 290 438 469 L438 1014 L90 1014 L90 859 L249 859 L249 469 C249 177 390 -20 708 -20 C859 -20 966 59 999 153 L999 0 L1347 0 L1347 155 L1188 155 Z " />
<glyph glyph-name="Ubreve" unicode="&#x16c;" horiz-adv-x="1732" d="M867 1535 C1094 1535 1182 1679 1207 1781 L1078 1781 C1034 1695 973 1657 867 1657 C761 1657 699 1695 656 1781 L527 1781 C552 1679 640 1535 867 1535 L867 1535 Z M468 622 L468 1268 L627 1268 L627 1434 L110 1434 L110 1268 L269 1268 L269 622 C269 226 454 -20 866 -20 C1278 -20 1463 226 1463 622 L1463 1268 L1622 1268 L1622 1434 L1105 1434 L1105 1268 L1264 1268 L1264 622 C1264 353 1166 146 866 146 C566 146 468 353 468 622 L468 622 Z " />
<glyph glyph-name="ubreve" unicode="&#x16d;" horiz-adv-x="1437" d="M718 1188 C945 1188 1033 1332 1058 1434 L929 1434 C885 1348 824 1310 718 1310 C612 1310 550 1348 507 1434 L378 1434 C403 1332 491 1188 718 1188 L718 1188 Z M1188 155 L1188 1014 L840 1014 L840 859 L999 859 L999 469 C999 290 939 135 718 135 C498 135 438 290 438 469 L438 1014 L90 1014 L90 859 L249 859 L249 469 C249 177 390 -20 708 -20 C859 -20 966 59 999 153 L999 0 L1347 0 L1347 155 L1188 155 Z " />
<glyph glyph-name="Uring" unicode="&#x16e;" horiz-adv-x="1732" d="M665 1735 C665 1624 756 1533 867 1533 C977 1533 1069 1624 1069 1735 C1069 1846 977 1937 867 1937 C756 1937 665 1846 665 1735 L665 1735 Z M782 1735 C782 1782 820 1820 867 1820 C914 1820 952 1782 952 1735 C952 1688 914 1650 867 1650 C820 1650 782 1688 782 1735 L782 1735 Z M468 622 L468 1268 L627 1268 L627 1434 L110 1434 L110 1268 L269 1268 L269 622 C269 226 454 -20 866 -20 C1278 -20 1463 226 1463 622 L1463 1268 L1622 1268 L1622 1434 L1105 1434 L1105 1268 L1264 1268 L1264 622 C1264 353 1166 146 866 146 C566 146 468 353 468 622 L468 622 Z " />
<glyph glyph-name="uring" unicode="&#x16f;" horiz-adv-x="1437" d="M517 1314 C517 1203 608 1112 719 1112 C829 1112 921 1203 921 1314 C921 1425 829 1516 719 1516 C608 1516 517 1425 517 1314 L517 1314 Z M634 1314 C634 1361 672 1399 719 1399 C766 1399 804 1361 804 1314 C804 1267 766 1229 719 1229 C672 1229 634 1267 634 1314 L634 1314 Z M1188 155 L1188 1014 L840 1014 L840 859 L999 859 L999 469 C999 290 939 135 718 135 C498 135 438 290 438 469 L438 1014 L90 1014 L90 859 L249 859 L249 469 C249 177 390 -20 708 -20 C859 -20 966 59 999 153 L999 0 L1347 0 L1347 155 L1188 155 Z " />
<glyph glyph-name="Uhungarumlaut" unicode="&#x170;" horiz-adv-x="1732" d="M635 1536 L808 1536 L937 1902 L729 1902 L635 1536 Z M916 1536 L1089 1536 L1218 1902 L1010 1902 L916 1536 Z M468 622 L468 1268 L627 1268 L627 1434 L110 1434 L110 1268 L269 1268 L269 622 C269 226 454 -20 866 -20 C1278 -20 1463 226 1463 622 L1463 1268 L1622 1268 L1622 1434 L1105 1434 L1105 1268 L1264 1268 L1264 622 C1264 353 1166 146 866 146 C566 146 468 353 468 622 L468 622 Z " />
<glyph glyph-name="uhungarumlaut" unicode="&#x171;" horiz-adv-x="1437" d="M478 1150 L651 1150 L780 1516 L572 1516 L478 1150 Z M759 1150 L932 1150 L1061 1516 L853 1516 L759 1150 Z M1188 155 L1188 1014 L840 1014 L840 859 L999 859 L999 469 C999 290 939 135 718 135 C498 135 438 290 438 469 L438 1014 L90 1014 L90 859 L249 859 L249 469 C249 177 390 -20 708 -20 C859 -20 966 59 999 153 L999 0 L1347 0 L1347 155 L1188 155 Z " />
<glyph glyph-name="Uogonek" unicode="&#x172;" horiz-adv-x="1732" d="M468 622 L468 1268 L627 1268 L627 1434 L110 1434 L110 1268 L269 1268 L269 622 C269 226 454 -20 866 -20 C826 -42 775 -88 769 -179 C757 -357 932 -413 1078 -413 L1078 -221 C1078 -221 936 -226 936 -121 C936 -36 1030 -6 1047 -1 C1332 63 1463 289 1463 622 L1463 1268 L1622 1268 L1622 1434 L1105 1434 L1105 1268 L1264 1268 L1264 622 C1264 353 1166 146 866 146 C566 146 468 353 468 622 L468 622 Z " />
<glyph glyph-name="uogonek" unicode="&#x173;" horiz-adv-x="1463" d="M1188 155 L1188 1014 L840 1014 L840 859 L999 859 L999 469 C999 290 939 135 718 135 C498 135 438 290 438 469 L438 1014 L90 1014 L90 859 L249 859 L249 469 C249 177 390 -20 708 -20 C859 -20 966 59 999 153 L999 0 L1212 0 C1194 -3 1073 -36 1064 -179 C1052 -357 1227 -413 1373 -413 L1373 -221 C1373 -221 1231 -226 1231 -121 C1231 -31 1335 -2 1347 0 L1347 155 L1188 155 Z " />
<glyph glyph-name="Wcircumflex" unicode="&#x174;" horiz-adv-x="2200" d="M1100 1682 L1262 1536 L1428 1536 L1158 1835 L1042 1835 L772 1536 L938 1536 L1100 1682 Z M620 0 L787 0 L1100 1190 L1413 0 L1580 0 L1995 1268 L2150 1268 L2150 1434 L1633 1434 L1633 1268 L1788 1268 L1503 381 L1227 1434 L973 1434 L697 381 L411 1268 L567 1268 L567 1434 L50 1434 L50 1268 L204 1268 L620 0 Z " />
<glyph glyph-name="wcircumflex" unicode="&#x175;" horiz-adv-x="1876" d="M938 1281 L1100 1135 L1266 1135 L996 1434 L880 1434 L610 1135 L776 1135 L938 1281 Z M1158 0 L1340 0 L1630 859 L1786 859 L1786 1014 L1279 1014 L1279 859 L1434 859 L1254 256 L1023 1014 L853 1014 L622 256 L442 859 L597 859 L597 1014 L90 1014 L90 859 L245 859 L536 0 L718 0 L938 726 L1158 0 Z " />
<glyph glyph-name="Ycircumflex" unicode="&#x176;" horiz-adv-x="1485" d="M742 1682 L904 1536 L1070 1536 L800 1835 L684 1835 L414 1536 L580 1536 L742 1682 Z M643 594 L643 166 L484 166 L484 0 L1001 0 L1001 166 L842 166 L842 594 L1291 1268 L1435 1268 L1435 1434 L918 1434 L918 1268 L1060 1268 L742 780 L424 1268 L567 1268 L567 1434 L50 1434 L50 1268 L193 1268 L643 594 Z " />
<glyph glyph-name="ycircumflex" unicode="&#x177;" horiz-adv-x="1428" d="M714 1281 L876 1135 L1042 1135 L772 1434 L656 1434 L386 1135 L552 1135 L714 1281 Z M1184 859 L1338 859 L1338 1014 L831 1014 L831 859 L983 859 L714 200 L444 859 L597 859 L597 1014 L90 1014 L90 859 L244 859 L614 0 L527 -216 C487 -310 450 -377 337 -377 L220 -377 L220 -532 L337 -532 C552 -532 629 -436 689 -290 L1184 859 Z " />
<glyph glyph-name="Ydieresis" unicode="&#x178;" horiz-adv-x="1485" d="M414 1657 C414 1590 468 1536 535 1536 C602 1536 657 1590 657 1657 C657 1724 602 1779 535 1779 C468 1779 414 1724 414 1657 L414 1657 Z M827 1657 C827 1590 881 1536 948 1536 C1015 1536 1070 1590 1070 1657 C1070 1724 1015 1779 948 1779 C881 1779 827 1724 827 1657 L827 1657 Z M643 594 L643 166 L484 166 L484 0 L1001 0 L1001 166 L842 166 L842 594 L1291 1268 L1435 1268 L1435 1434 L918 1434 L918 1268 L1060 1268 L742 780 L424 1268 L567 1268 L567 1434 L50 1434 L50 1268 L193 1268 L643 594 Z " />
<glyph glyph-name="Zacute" unicode="&#x179;" horiz-adv-x="1344" d="M552 1536 L742 1536 L1047 1835 L815 1835 L552 1536 Z M1234 1434 L135 1434 L135 1095 L334 1095 L334 1268 L950 1268 L110 97 L110 0 L1234 0 L1234 339 L1035 339 L1035 166 L395 166 L1234 1337 L1234 1434 Z " />
<glyph glyph-name="zacute" unicode="&#x17a;" horiz-adv-x="1063" d="M422 1135 L612 1135 L917 1434 L685 1434 L422 1135 Z M973 0 L973 304 L784 304 L784 155 L368 155 L973 923 L973 1014 L107 1014 L107 710 L296 710 L296 859 L695 859 L90 91 L90 0 L973 0 Z " />
<glyph glyph-name="Zdotaccent" unicode="&#x17b;" horiz-adv-x="1344" d="M1234 1434 L135 1434 L135 1095 L334 1095 L334 1268 L950 1268 L110 97 L110 0 L1234 0 L1234 339 L1035 339 L1035 166 L395 166 L1234 1337 L1234 1434 Z M551 1657 C551 1590 605 1536 672 1536 C739 1536 794 1590 794 1657 C794 1724 739 1779 672 1779 C605 1779 551 1724 551 1657 L551 1657 Z " />
<glyph glyph-name="zdotaccent" unicode="&#x17c;" horiz-adv-x="1063" d="M410 1312 C410 1245 464 1191 531 1191 C598 1191 653 1245 653 1312 C653 1379 598 1434 531 1434 C464 1434 410 1379 410 1312 L410 1312 Z M973 0 L973 304 L784 304 L784 155 L368 155 L973 923 L973 1014 L107 1014 L107 710 L296 710 L296 859 L695 859 L90 91 L90 0 L973 0 Z " />
<glyph glyph-name="Zcaron" unicode="&#x17d;" horiz-adv-x="1344" d="M510 1835 L344 1835 L614 1536 L730 1536 L1000 1835 L834 1835 L672 1689 L510 1835 Z M1234 1434 L135 1434 L135 1095 L334 1095 L334 1268 L950 1268 L110 97 L110 0 L1234 0 L1234 339 L1035 339 L1035 166 L395 166 L1234 1337 L1234 1434 Z " />
<glyph glyph-name="zcaron" unicode="&#x17e;" horiz-adv-x="1063" d="M369 1434 L203 1434 L473 1135 L589 1135 L859 1434 L693 1434 L531 1288 L369 1434 Z M973 0 L973 304 L784 304 L784 155 L368 155 L973 923 L973 1014 L107 1014 L107 710 L296 710 L296 859 L695 859 L90 91 L90 0 L973 0 Z " />
<glyph glyph-name="longs" unicode="&#x17f;" horiz-adv-x="842" d="M270 155 L111 155 L111 0 L618 0 L618 155 L459 155 L459 1014 C459 1273 476 1381 614 1381 C673 1381 730 1367 767 1355 L822 1493 C765 1520 683 1536 604 1536 C329 1536 270 1364 270 1014 L270 155 Z " />
<glyph glyph-name="florin" unicode="&#x192;" horiz-adv-x="1079" d="M627 848 L895 848 L920 1014 L656 1014 L672 1102 C682 1161 693 1268 833 1268 L994 1268 L1019 1434 L842 1434 C571 1434 503 1256 481 1125 L461 1014 L201 1014 L176 848 L432 848 L247 -200 C237 -259 226 -366 86 -366 L-75 -366 L-100 -532 L77 -532 C348 -532 416 -354 438 -223 L627 848 Z " />
<glyph glyph-name="Ohorn" unicode="&#x1a0;" horiz-adv-x="1658" d="M829 -20 C1300 -20 1568 295 1568 717 C1568 947 1488 1144 1340 1277 C1466 1327 1530 1424 1530 1564 L1341 1564 C1341 1444 1269 1394 1200 1372 C1096 1424 972 1454 829 1454 C358 1454 90 1139 90 717 C90 295 358 -20 829 -20 L829 -20 Z M829 146 C481 146 303 397 303 717 C303 1037 481 1288 829 1288 C1177 1288 1355 1037 1355 717 C1355 397 1177 146 829 146 L829 146 Z " />
<glyph glyph-name="ohorn" unicode="&#x1a1;" horiz-adv-x="1243" d="M623 -20 C969 -20 1176 205 1176 507 C1176 651 1128 778 1040 871 C1152 914 1223 1004 1223 1168 L1034 1168 C1034 1042 974 991 904 972 C825 1011 731 1034 623 1034 C277 1034 70 808 70 507 C70 205 277 -20 623 -20 L623 -20 Z M623 135 C378 135 265 312 265 507 C265 700 378 879 623 879 C868 879 981 700 981 507 C981 312 868 135 623 135 L623 135 Z " />
<glyph glyph-name="Uhorn" unicode="&#x1af;" horiz-adv-x="1828" d="M468 622 L468 1268 L627 1268 L627 1434 L110 1434 L110 1268 L269 1268 L269 622 C269 226 454 -20 866 -20 C1278 -20 1463 226 1463 622 L1463 1268 C1598 1293 1718 1352 1718 1607 L1528 1607 C1528 1453 1470 1434 1396 1434 L1105 1434 L1105 1268 L1264 1268 L1264 622 C1264 353 1166 146 866 146 C566 146 468 353 468 622 L468 622 Z " />
<glyph glyph-name="uhorn" unicode="&#x1b0;" horiz-adv-x="1601" d="M1188 155 L1188 859 C1339 859 1511 931 1511 1177 L1322 1177 C1322 1042 1258 1014 1188 1014 L840 1014 L840 859 L999 859 L999 469 C999 290 939 135 718 135 C498 135 438 290 438 469 L438 1014 L90 1014 L90 859 L249 859 L249 469 C249 177 390 -20 708 -20 C859 -20 966 59 999 153 L999 0 L1347 0 L1347 155 L1188 155 Z " />
<glyph glyph-name="uni01CD" unicode="&#x1cd;" horiz-adv-x="1664" d="M670 1835 L504 1835 L774 1536 L890 1536 L1160 1835 L994 1835 L832 1689 L670 1835 Z M1250 166 L1097 166 L1097 0 L1614 0 L1614 166 L1460 166 L918 1434 L516 1434 L516 1268 L675 1268 L204 166 L50 166 L50 0 L567 0 L567 166 L413 166 L527 439 L1136 439 L1250 166 Z M832 1168 L1067 605 L596 605 L832 1168 Z " />
<glyph glyph-name="uni01CE" unicode="&#x1ce;" horiz-adv-x="1248" d="M420 1434 L254 1434 L524 1135 L640 1135 L910 1434 L744 1434 L582 1288 L420 1434 Z M578 879 C773 879 808 798 810 657 C496 687 70 640 70 308 C70 98 229 -20 482 -20 C664 -20 766 64 810 169 L810 0 L1158 0 L1158 155 L999 155 L999 620 C999 812 969 1034 578 1034 C443 1034 280 999 165 931 L238 799 C334 846 456 879 578 879 L578 879 Z M266 308 C266 537 617 553 810 527 L810 447 C810 283 711 135 492 135 C332 135 266 206 266 308 L266 308 Z " />
<glyph glyph-name="uni01CF" unicode="&#x1cf;" horiz-adv-x="796" d="M236 1835 L70 1835 L340 1536 L456 1536 L726 1835 L560 1835 L398 1689 L236 1835 Z M498 1268 L657 1268 L657 1434 L140 1434 L140 1268 L299 1268 L299 166 L140 166 L140 0 L657 0 L657 166 L498 166 L498 1268 Z " />
<glyph glyph-name="uni01D0" unicode="&#x1d0;" horiz-adv-x="756" d="M216 1434 L50 1434 L320 1135 L436 1135 L706 1434 L540 1434 L378 1288 L216 1434 Z M473 155 L473 1014 L125 1014 L125 859 L284 859 L284 155 L125 155 L125 0 L632 0 L632 155 L473 155 Z " />
<glyph glyph-name="uni01D1" unicode="&#x1d1;" horiz-adv-x="1658" d="M829 -20 C1300 -20 1568 295 1568 717 C1568 1139 1300 1454 829 1454 C358 1454 90 1139 90 717 C90 295 358 -20 829 -20 L829 -20 Z M829 146 C481 146 303 397 303 717 C303 1037 481 1288 829 1288 C1177 1288 1355 1037 1355 717 C1355 397 1177 146 829 146 L829 146 Z M667 1835 L501 1835 L771 1536 L887 1536 L1157 1835 L991 1835 L829 1689 L667 1835 Z " />
<glyph glyph-name="uni01D2" unicode="&#x1d2;" horiz-adv-x="1246" d="M623 -20 C969 -20 1176 205 1176 507 C1176 808 969 1034 623 1034 C277 1034 70 808 70 507 C70 205 277 -20 623 -20 L623 -20 Z M623 135 C378 135 265 312 265 507 C265 700 378 879 623 879 C868 879 981 700 981 507 C981 312 868 135 623 135 L623 135 Z M461 1434 L295 1434 L565 1135 L681 1135 L951 1434 L785 1434 L623 1288 L461 1434 Z " />
<glyph glyph-name="uni01D3" unicode="&#x1d3;" horiz-adv-x="1732" d="M704 1835 L538 1835 L808 1536 L924 1536 L1194 1835 L1028 1835 L866 1689 L704 1835 Z M468 622 L468 1268 L627 1268 L627 1434 L110 1434 L110 1268 L269 1268 L269 622 C269 226 454 -20 866 -20 C1278 -20 1463 226 1463 622 L1463 1268 L1622 1268 L1622 1434 L1105 1434 L1105 1268 L1264 1268 L1264 622 C1264 353 1166 146 866 146 C566 146 468 353 468 622 L468 622 Z " />
<glyph glyph-name="uni01D4" unicode="&#x1d4;" horiz-adv-x="1437" d="M556 1434 L390 1434 L660 1135 L776 1135 L1046 1434 L880 1434 L718 1288 L556 1434 Z M1188 155 L1188 1014 L840 1014 L840 859 L999 859 L999 469 C999 290 939 135 718 135 C498 135 438 290 438 469 L438 1014 L90 1014 L90 859 L249 859 L249 469 C249 177 390 -20 708 -20 C859 -20 966 59 999 153 L999 0 L1347 0 L1347 155 L1188 155 Z " />
<glyph glyph-name="uni01D5" unicode="&#x1d5;" horiz-adv-x="1732" d="M538 1657 C538 1590 592 1536 659 1536 C726 1536 781 1590 781 1657 C781 1724 726 1779 659 1779 C592 1779 538 1724 538 1657 L538 1657 Z M951 1657 C951 1590 1005 1536 1072 1536 C1139 1536 1194 1590 1194 1657 C1194 1724 1139 1779 1072 1779 C1005 1779 951 1724 951 1657 L951 1657 Z M511 1848 L1220 1848 L1220 2003 L511 2003 L511 1848 Z M468 622 L468 1268 L627 1268 L627 1434 L110 1434 L110 1268 L269 1268 L269 622 C269 226 454 -20 866 -20 C1278 -20 1463 226 1463 622 L1463 1268 L1622 1268 L1622 1434 L1105 1434 L1105 1268 L1264 1268 L1264 622 C1264 353 1166 146 866 146 C566 146 468 353 468 622 L468 622 Z " />
<glyph glyph-name="uni01D6" unicode="&#x1d6;" horiz-adv-x="1437" d="M390 1312 C390 1245 444 1191 511 1191 C578 1191 633 1245 633 1312 C633 1379 578 1434 511 1434 C444 1434 390 1379 390 1312 L390 1312 Z M803 1312 C803 1245 857 1191 924 1191 C991 1191 1046 1245 1046 1312 C1046 1379 991 1434 924 1434 C857 1434 803 1379 803 1312 L803 1312 Z M363 1503 L1072 1503 L1072 1658 L363 1658 L363 1503 Z M1188 155 L1188 1014 L840 1014 L840 859 L999 859 L999 469 C999 290 939 135 718 135 C498 135 438 290 438 469 L438 1014 L90 1014 L90 859 L249 859 L249 469 C249 177 390 -20 708 -20 C859 -20 966 59 999 153 L999 0 L1347 0 L1347 155 L1188 155 Z " />
<glyph glyph-name="uni01D7" unicode="&#x1d7;" horiz-adv-x="1732" d="M538 1657 C538 1590 592 1536 659 1536 C726 1536 781 1590 781 1657 C781 1724 726 1779 659 1779 C592 1779 538 1724 538 1657 L538 1657 Z M951 1657 C951 1590 1005 1536 1072 1536 C1139 1536 1194 1590 1194 1657 C1194 1724 1139 1779 1072 1779 C1005 1779 951 1724 951 1657 L951 1657 Z M769 1839 L959 1839 L1264 2138 L1032 2138 L769 1839 Z M468 622 L468 1268 L627 1268 L627 1434 L110 1434 L110 1268 L269 1268 L269 622 C269 226 454 -20 866 -20 C1278 -20 1463 226 1463 622 L1463 1268 L1622 1268 L1622 1434 L1105 1434 L1105 1268 L1264 1268 L1264 622 C1264 353 1166 146 866 146 C566 146 468 353 468 622 L468 622 Z " />
<glyph glyph-name="uni01D8" unicode="&#x1d8;" horiz-adv-x="1437" d="M390 1312 C390 1245 444 1191 511 1191 C578 1191 633 1245 633 1312 C633 1379 578 1434 511 1434 C444 1434 390 1379 390 1312 L390 1312 Z M803 1312 C803 1245 857 1191 924 1191 C991 1191 1046 1245 1046 1312 C1046 1379 991 1434 924 1434 C857 1434 803 1379 803 1312 L803 1312 Z M621 1494 L811 1494 L1116 1793 L884 1793 L621 1494 Z M1188 155 L1188 1014 L840 1014 L840 859 L999 859 L999 469 C999 290 939 135 718 135 C498 135 438 290 438 469 L438 1014 L90 1014 L90 859 L249 859 L249 469 C249 177 390 -20 708 -20 C859 -20 966 59 999 153 L999 0 L1347 0 L1347 155 L1188 155 Z " />
<glyph glyph-name="uni01D9" unicode="&#x1d9;" horiz-adv-x="1732" d="M538 1657 C538 1590 592 1536 659 1536 C726 1536 781 1590 781 1657 C781 1724 726 1779 659 1779 C592 1779 538 1724 538 1657 L538 1657 Z M951 1657 C951 1590 1005 1536 1072 1536 C1139 1536 1194 1590 1194 1657 C1194 1724 1139 1779 1072 1779 C1005 1779 951 1724 951 1657 L951 1657 Z M468 622 L468 1268 L627 1268 L627 1434 L110 1434 L110 1268 L269 1268 L269 622 C269 226 454 -20 866 -20 C1278 -20 1463 226 1463 622 L1463 1268 L1622 1268 L1622 1434 L1105 1434 L1105 1268 L1264 1268 L1264 622 C1264 353 1166 146 866 146 C566 146 468 353 468 622 L468 622 Z " />
<glyph glyph-name="uni01DA" unicode="&#x1da;" horiz-adv-x="1437" d="M390 1312 C390 1245 444 1191 511 1191 C578 1191 633 1245 633 1312 C633 1379 578 1434 511 1434 C444 1434 390 1379 390 1312 L390 1312 Z M803 1312 C803 1245 857 1191 924 1191 C991 1191 1046 1245 1046 1312 C1046 1379 991 1434 924 1434 C857 1434 803 1379 803 1312 L803 1312 Z M1188 155 L1188 1014 L840 1014 L840 859 L999 859 L999 469 C999 290 939 135 718 135 C498 135 438 290 438 469 L438 1014 L90 1014 L90 859 L249 859 L249 469 C249 177 390 -20 708 -20 C859 -20 966 59 999 153 L999 0 L1347 0 L1347 155 L1188 155 Z " />
<glyph glyph-name="uni01DB" unicode="&#x1db;" horiz-adv-x="1732" d="M696 2138 L464 2138 L769 1839 L959 1839 L696 2138 Z M538 1657 C538 1590 592 1536 659 1536 C726 1536 781 1590 781 1657 C781 1724 726 1779 659 1779 C592 1779 538 1724 538 1657 L538 1657 Z M951 1657 C951 1590 1005 1536 1072 1536 C1139 1536 1194 1590 1194 1657 C1194 1724 1139 1779 1072 1779 C1005 1779 951 1724 951 1657 L951 1657 Z M468 622 L468 1268 L627 1268 L627 1434 L110 1434 L110 1268 L269 1268 L269 622 C269 226 454 -20 866 -20 C1278 -20 1463 226 1463 622 L1463 1268 L1622 1268 L1622 1434 L1105 1434 L1105 1268 L1264 1268 L1264 622 C1264 353 1166 146 866 146 C566 146 468 353 468 622 L468 622 Z " />
<glyph glyph-name="uni01DC" unicode="&#x1dc;" horiz-adv-x="1437" d="M548 1793 L316 1793 L621 1494 L811 1494 L548 1793 Z M390 1312 C390 1245 444 1191 511 1191 C578 1191 633 1245 633 1312 C633 1379 578 1434 511 1434 C444 1434 390 1379 390 1312 L390 1312 Z M803 1312 C803 1245 857 1191 924 1191 C991 1191 1046 1245 1046 1312 C1046 1379 991 1434 924 1434 C857 1434 803 1379 803 1312 L803 1312 Z M1188 155 L1188 1014 L840 1014 L840 859 L999 859 L999 469 C999 290 939 135 718 135 C498 135 438 290 438 469 L438 1014 L90 1014 L90 859 L249 859 L249 469 C249 177 390 -20 708 -20 C859 -20 966 59 999 153 L999 0 L1347 0 L1347 155 L1188 155 Z " />
<glyph glyph-name="uni01DE" unicode="&#x1de;" horiz-adv-x="1664" d="M504 1657 C504 1590 558 1536 625 1536 C692 1536 747 1590 747 1657 C747 1724 692 1779 625 1779 C558 1779 504 1724 504 1657 L504 1657 Z M917 1657 C917 1590 971 1536 1038 1536 C1105 1536 1160 1590 1160 1657 C1160 1724 1105 1779 1038 1779 C971 1779 917 1724 917 1657 L917 1657 Z M477 1848 L1186 1848 L1186 2003 L477 2003 L477 1848 Z M1250 166 L1097 166 L1097 0 L1614 0 L1614 166 L1460 166 L918 1434 L516 1434 L516 1268 L675 1268 L204 166 L50 166 L50 0 L567 0 L567 166 L413 166 L527 439 L1136 439 L1250 166 Z M832 1168 L1067 605 L596 605 L832 1168 Z " />
<glyph glyph-name="uni01DF" unicode="&#x1df;" horiz-adv-x="1248" d="M259 1312 C259 1245 313 1191 380 1191 C447 1191 502 1245 502 1312 C502 1379 447 1434 380 1434 C313 1434 259 1379 259 1312 L259 1312 Z M672 1312 C672 1245 726 1191 793 1191 C860 1191 915 1245 915 1312 C915 1379 860 1434 793 1434 C726 1434 672 1379 672 1312 L672 1312 Z M233 1503 L942 1503 L942 1658 L233 1658 L233 1503 Z M578 879 C773 879 808 798 810 657 C496 687 70 640 70 308 C70 98 229 -20 482 -20 C664 -20 766 64 810 169 L810 0 L1158 0 L1158 155 L999 155 L999 620 C999 812 969 1034 578 1034 C443 1034 280 999 165 931 L238 799 C334 846 456 879 578 879 L578 879 Z M266 308 C266 537 617 553 810 527 L810 447 C810 283 711 135 492 135 C332 135 266 206 266 308 L266 308 Z " />
<glyph glyph-name="uni01E0" unicode="&#x1e0;" horiz-adv-x="1664" d="M711 1657 C711 1590 765 1536 832 1536 C899 1536 954 1590 954 1657 C954 1724 899 1779 832 1779 C765 1779 711 1724 711 1657 L711 1657 Z M478 1848 L1187 1848 L1187 2003 L478 2003 L478 1848 Z M1250 166 L1097 166 L1097 0 L1614 0 L1614 166 L1460 166 L918 1434 L516 1434 L516 1268 L675 1268 L204 166 L50 166 L50 0 L567 0 L567 166 L413 166 L527 439 L1136 439 L1250 166 Z M832 1168 L1067 605 L596 605 L832 1168 Z " />
<glyph glyph-name="uni01E1" unicode="&#x1e1;" horiz-adv-x="1248" d="M472 1312 C472 1245 526 1191 593 1191 C660 1191 715 1245 715 1312 C715 1379 660 1434 593 1434 C526 1434 472 1379 472 1312 L472 1312 Z M239 1503 L948 1503 L948 1658 L239 1658 L239 1503 Z M578 879 C773 879 808 798 810 657 C496 687 70 640 70 308 C70 98 229 -20 482 -20 C664 -20 766 64 810 169 L810 0 L1158 0 L1158 155 L999 155 L999 620 C999 812 969 1034 578 1034 C443 1034 280 999 165 931 L238 799 C334 846 456 879 578 879 L578 879 Z M266 308 C266 537 617 553 810 527 L810 447 C810 283 711 135 492 135 C332 135 266 206 266 308 L266 308 Z " />
<glyph glyph-name="uni01E2" unicode="&#x1e2;" horiz-adv-x="2198" d="M1095 1535 L1804 1535 L1804 1690 L1095 1690 L1095 1535 Z M1101 0 L2088 0 L2088 339 L1889 339 L1889 166 L1300 166 L1300 649 L1882 649 L1882 815 L1300 815 L1300 1268 L1879 1268 L1879 1095 L2078 1095 L2078 1434 L833 1434 L833 1268 L991 1268 L249 166 L110 166 L110 0 L627 0 L627 166 L486 166 L701 487 L1101 487 L1101 0 Z M1101 1085 L1101 653 L811 653 L1101 1085 Z " />
<glyph glyph-name="uni01E3" unicode="&#x1e3;" horiz-adv-x="1899" d="M583 1279 L1292 1279 L1292 1434 L583 1434 L583 1279 Z M1320 135 C1132 135 1023 269 1013 414 L1828 414 C1838 822 1636 1034 1320 1034 C1160 1034 1033 977 945 883 C892 971 786 1034 578 1034 C443 1034 280 999 165 931 L238 799 C334 846 456 879 578 879 C773 879 808 798 810 657 C496 687 70 640 70 308 C70 98 229 -20 482 -20 C627 -20 785 18 910 173 C997 53 1137 -20 1320 -20 C1544 -20 1684 62 1759 137 L1645 249 C1570 190 1469 135 1320 135 L1320 135 Z M266 308 C266 537 617 553 810 527 L810 447 C810 283 711 135 492 135 C332 135 266 206 266 308 L266 308 Z M1014 579 C1026 720 1105 879 1320 879 C1535 879 1614 720 1626 579 L1014 579 Z " />
<glyph glyph-name="uni01E4" unicode="&#x1e4;" horiz-adv-x="1631" d="M1393 1333 C1393 1333 1200 1454 829 1454 C358 1454 90 1139 90 717 C90 295 358 -20 829 -20 C1060 -20 1264 35 1393 156 L1393 344 L1561 344 L1561 510 L1393 510 L1393 815 L849 815 L849 628 L1194 628 L1194 510 L849 510 L849 344 L1194 344 L1194 238 C1112 176 985 146 829 146 C481 146 303 397 303 717 C303 1037 481 1288 829 1288 C1056 1288 1194 1230 1194 1230 L1194 1095 L1393 1095 L1393 1333 Z " />
<glyph glyph-name="uni01E5" unicode="&#x1e5;" horiz-adv-x="1394" d="M943 20 C943 -27 940 -70 933 -110 L684 -110 L684 -265 L874 -265 C822 -337 734 -377 597 -377 C472 -377 355 -338 259 -280 L155 -407 C265 -490 441 -532 597 -532 C829 -532 1006 -464 1085 -265 L1304 -265 L1304 -110 L1124 -110 C1129 -70 1132 -27 1132 20 L1132 859 L1291 859 L1291 1014 L943 1014 L943 813 C868 966 709 1034 573 1034 C256 1034 70 797 70 507 C70 216 256 -20 573 -20 C709 -20 868 48 943 201 L943 20 Z M603 879 C840 879 943 686 943 507 C943 327 840 135 603 135 C366 135 263 327 263 507 C263 686 366 879 603 879 L603 879 Z " />
<glyph glyph-name="Gcaron" unicode="&#x1e6;" horiz-adv-x="1503" d="M666 1835 L500 1835 L770 1536 L886 1536 L1156 1835 L990 1835 L828 1689 L666 1835 Z M1393 1333 C1393 1333 1200 1454 829 1454 C358 1454 90 1139 90 717 C90 295 358 -20 829 -20 C1060 -20 1264 35 1393 156 L1393 815 L849 815 L849 628 L1194 628 L1194 238 C1112 176 985 146 829 146 C481 146 303 397 303 717 C303 1037 481 1288 829 1288 C1056 1288 1194 1230 1194 1230 L1194 1095 L1393 1095 L1393 1333 Z " />
<glyph glyph-name="gcaron" unicode="&#x1e7;" horiz-adv-x="1381" d="M439 1434 L273 1434 L543 1135 L659 1135 L929 1434 L763 1434 L601 1288 L439 1434 Z M943 20 C943 -225 865 -377 597 -377 C472 -377 355 -338 259 -280 L155 -407 C265 -490 441 -532 597 -532 C917 -532 1132 -403 1132 20 L1132 859 L1291 859 L1291 1014 L943 1014 L943 813 C868 966 709 1034 573 1034 C256 1034 70 797 70 507 C70 216 256 -20 573 -20 C709 -20 868 48 943 201 L943 20 Z M603 879 C840 879 943 686 943 507 C943 327 840 135 603 135 C366 135 263 327 263 507 C263 686 366 879 603 879 L603 879 Z " />
<glyph glyph-name="uni01E8" unicode="&#x1e8;" horiz-adv-x="1519" d="M594 1835 L428 1835 L698 1536 L814 1536 L1084 1835 L918 1835 L756 1689 L594 1835 Z M468 1268 L627 1268 L627 1434 L110 1434 L110 1268 L269 1268 L269 166 L110 166 L110 0 L627 0 L627 166 L468 166 L468 487 L670 682 L1136 0 L1409 0 L1409 166 L1250 166 L806 813 L1278 1268 L1409 1268 L1409 1434 L892 1434 L892 1268 L1021 1268 L468 731 L468 1268 Z " />
<glyph glyph-name="uni01E9" unicode="&#x1e9;" horiz-adv-x="1281" d="M479 1835 L313 1835 L583 1536 L699 1536 L969 1835 L803 1835 L641 1689 L479 1835 Z M438 155 L438 349 L588 473 L949 0 L1191 0 L1191 155 L1055 155 L727 588 L1056 859 L1183 859 L1183 1014 L676 1014 L676 859 L794 859 L438 565 L438 1516 L90 1516 L90 1361 L249 1361 L249 155 L90 155 L90 0 L597 0 L597 155 L438 155 Z " />
<glyph glyph-name="uni01EA" unicode="&#x1ea;" horiz-adv-x="1658" d="M839 -20 C798 -42 747 -88 741 -179 C729 -357 904 -413 1050 -413 L1050 -221 C1050 -221 908 -226 908 -121 C908 -35 1003 -5 1020 -1 C1372 73 1568 356 1568 717 C1568 1139 1300 1454 829 1454 C358 1454 90 1139 90 717 C90 295 358 -20 829 -20 L839 -20 Z M829 146 C481 146 303 397 303 717 C303 1037 481 1288 829 1288 C1177 1288 1355 1037 1355 717 C1355 397 1177 146 829 146 L829 146 Z " />
<glyph glyph-name="uni01EB" unicode="&#x1eb;" horiz-adv-x="1246" d="M70 507 C70 209 271 -13 608 -19 C567 -42 515 -88 509 -179 C497 -357 672 -413 818 -413 L818 -221 C818 -221 676 -226 676 -121 C676 -35 772 -5 788 0 C1034 60 1176 257 1176 507 C1176 808 969 1034 623 1034 C277 1034 70 808 70 507 L70 507 Z M623 135 C378 135 265 312 265 507 C265 700 378 879 623 879 C868 879 981 700 981 507 C981 312 868 135 623 135 L623 135 Z " />
<glyph glyph-name="uni01EC" unicode="&#x1ec;" horiz-adv-x="1658" d="M839 -20 C798 -42 747 -88 741 -179 C729 -357 904 -413 1050 -413 L1050 -221 C1050 -221 908 -226 908 -121 C908 -35 1003 -5 1020 -1 C1372 73 1568 356 1568 717 C1568 1139 1300 1454 829 1454 C358 1454 90 1139 90 717 C90 295 358 -20 829 -20 L839 -20 Z M829 146 C481 146 303 397 303 717 C303 1037 481 1288 829 1288 C1177 1288 1355 1037 1355 717 C1355 397 1177 146 829 146 L829 146 Z M475 1535 L1184 1535 L1184 1690 L475 1690 L475 1535 Z " />
<glyph glyph-name="uni01ED" unicode="&#x1ed;" horiz-adv-x="1246" d="M70 507 C70 209 271 -13 608 -19 C567 -42 515 -88 509 -179 C497 -357 672 -413 818 -413 L818 -221 C818 -221 676 -226 676 -121 C676 -35 772 -5 788 0 C1034 60 1176 257 1176 507 C1176 808 969 1034 623 1034 C277 1034 70 808 70 507 L70 507 Z M623 135 C378 135 265 312 265 507 C265 700 378 879 623 879 C868 879 981 700 981 507 C981 312 868 135 623 135 L623 135 Z M269 1279 L978 1279 L978 1434 L269 1434 L269 1279 Z " />
<glyph glyph-name="uni01F0" unicode="&#x1f0;" horiz-adv-x="608" d="M128 1434 L-38 1434 L232 1135 L348 1135 L618 1434 L452 1434 L290 1288 L128 1434 Z M-130 -491 C-89 -510 -16 -532 61 -532 C336 -532 385 -344 385 -47 L385 1014 L37 1014 L37 859 L196 859 L196 -47 C196 -273 180 -377 61 -377 C8 -377 -39 -365 -77 -351 L-130 -491 Z " />
<glyph glyph-name="uni01F4" unicode="&#x1f4;" horiz-adv-x="1503" d="M756 1536 L946 1536 L1251 1835 L1019 1835 L756 1536 Z M1393 1333 C1393 1333 1200 1454 829 1454 C358 1454 90 1139 90 717 C90 295 358 -20 829 -20 C1060 -20 1264 35 1393 156 L1393 815 L849 815 L849 628 L1194 628 L1194 238 C1112 176 985 146 829 146 C481 146 303 397 303 717 C303 1037 481 1288 829 1288 C1056 1288 1194 1230 1194 1230 L1194 1095 L1393 1095 L1393 1333 Z " />
<glyph glyph-name="uni01F5" unicode="&#x1f5;" horiz-adv-x="1381" d="M488 1135 L678 1135 L983 1434 L751 1434 L488 1135 Z M943 20 C943 -225 865 -377 597 -377 C472 -377 355 -338 259 -280 L155 -407 C265 -490 441 -532 597 -532 C917 -532 1132 -403 1132 20 L1132 859 L1291 859 L1291 1014 L943 1014 L943 813 C868 966 709 1034 573 1034 C256 1034 70 797 70 507 C70 216 256 -20 573 -20 C709 -20 868 48 943 201 L943 20 Z M603 879 C840 879 943 686 943 507 C943 327 840 135 603 135 C366 135 263 327 263 507 C263 686 366 879 603 879 L603 879 Z " />
<glyph glyph-name="uni01F8" unicode="&#x1f8;" horiz-adv-x="1726" d="M687 1835 L455 1835 L760 1536 L950 1536 L687 1835 Z M110 0 L627 0 L627 166 L468 166 L468 1132 L1230 0 L1457 0 L1457 1268 L1616 1268 L1616 1434 L1099 1434 L1099 1268 L1258 1268 L1258 302 L496 1434 L110 1434 L110 1268 L269 1268 L269 166 L110 166 L110 0 Z " />
<glyph glyph-name="uni01F9" unicode="&#x1f9;" horiz-adv-x="1437" d="M557 1434 L325 1434 L630 1135 L820 1135 L557 1434 Z M249 859 L249 155 L90 155 L90 0 L597 0 L597 155 L438 155 L438 545 C438 724 498 879 719 879 C939 879 999 724 999 545 L999 0 L1347 0 L1347 155 L1188 155 L1188 545 C1188 837 1047 1034 729 1034 C578 1034 471 955 438 861 L438 1014 L90 1014 L90 859 L249 859 Z " />
<glyph glyph-name="Aringacute" unicode="&#x1fa;" horiz-adv-x="1664" d="M629 1738 C629 1627 721 1536 832 1536 C942 1536 1034 1627 1034 1738 C1034 1815 989 1883 925 1917 L1133 2121 L901 2121 L677 1868 C647 1833 629 1787 629 1738 L629 1738 Z M747 1738 C747 1785 785 1823 832 1823 C879 1823 917 1785 917 1738 C917 1691 879 1653 832 1653 C785 1653 747 1691 747 1738 L747 1738 Z M1250 166 L1097 166 L1097 0 L1614 0 L1614 166 L1460 166 L918 1434 L516 1434 L516 1268 L675 1268 L204 166 L50 166 L50 0 L567 0 L567 166 L413 166 L527 439 L1136 439 L1250 166 Z M832 1168 L1067 605 L596 605 L832 1168 Z " />
<glyph glyph-name="aringacute" unicode="&#x1fb;" horiz-adv-x="1248" d="M391 1314 C391 1203 483 1112 594 1112 C704 1112 796 1203 796 1314 C796 1391 751 1459 687 1493 L895 1697 L663 1697 L439 1444 C409 1409 391 1363 391 1314 L391 1314 Z M509 1314 C509 1361 547 1399 594 1399 C641 1399 679 1361 679 1314 C679 1267 641 1229 594 1229 C547 1229 509 1267 509 1314 L509 1314 Z M578 879 C773 879 808 798 810 657 C496 687 70 640 70 308 C70 98 229 -20 482 -20 C664 -20 766 64 810 169 L810 0 L1158 0 L1158 155 L999 155 L999 620 C999 812 969 1034 578 1034 C443 1034 280 999 165 931 L238 799 C334 846 456 879 578 879 L578 879 Z M266 308 C266 537 617 553 810 527 L810 447 C810 283 711 135 492 135 C332 135 266 206 266 308 L266 308 Z " />
<glyph glyph-name="AEacute" unicode="&#x1fc;" horiz-adv-x="2198" d="M1140 1536 L1330 1536 L1635 1835 L1403 1835 L1140 1536 Z M1101 0 L2088 0 L2088 339 L1889 339 L1889 166 L1300 166 L1300 649 L1882 649 L1882 815 L1300 815 L1300 1268 L1879 1268 L1879 1095 L2078 1095 L2078 1434 L833 1434 L833 1268 L991 1268 L249 166 L110 166 L110 0 L627 0 L627 166 L486 166 L701 487 L1101 487 L1101 0 Z M1101 1085 L1101 653 L811 653 L1101 1085 Z " />
<glyph glyph-name="aeacute" unicode="&#x1fd;" horiz-adv-x="1899" d="M1320 135 C1132 135 1023 269 1013 414 L1828 414 C1838 822 1636 1034 1320 1034 C1160 1034 1033 977 945 883 C892 971 786 1034 578 1034 C443 1034 280 999 165 931 L238 799 C334 846 456 879 578 879 C773 879 808 798 810 657 C496 687 70 640 70 308 C70 98 229 -20 482 -20 C627 -20 785 18 910 173 C997 53 1137 -20 1320 -20 C1544 -20 1684 62 1759 137 L1645 249 C1570 190 1469 135 1320 135 L1320 135 Z M266 308 C266 537 617 553 810 527 L810 447 C810 283 711 135 492 135 C332 135 266 206 266 308 L266 308 Z M1014 579 C1026 720 1105 879 1320 879 C1535 879 1614 720 1626 579 L1014 579 Z M841 1135 L1031 1135 L1336 1434 L1104 1434 L841 1135 Z " />
<glyph glyph-name="Oslashacute" unicode="&#x1fe;" horiz-adv-x="1658" d="M745 1536 L935 1536 L1240 1835 L1008 1835 L745 1536 Z M829 -20 C1300 -20 1568 295 1568 717 C1568 998 1449 1231 1231 1356 L1298 1495 L1110 1495 L1074 1421 C1000 1442 918 1454 829 1454 C358 1454 90 1139 90 717 C90 436 209 203 427 78 L360 -61 L548 -61 L583 12 C658 -8 739 -20 829 -20 L829 -20 Z M829 146 C767 146 710 154 659 169 L1151 1189 C1286 1087 1355 915 1355 717 C1355 397 1177 146 829 146 L829 146 Z M303 717 C303 1037 481 1288 829 1288 C891 1288 948 1280 999 1265 L507 244 C371 346 303 518 303 717 L303 717 Z " />
<glyph glyph-name="oslashacute" unicode="&#x1ff;" horiz-adv-x="1286" d="M544 1136 L734 1136 L1039 1435 L807 1435 L544 1136 Z M643 -20 C989 -20 1196 205 1196 507 C1196 704 1107 869 949 959 L1005 1075 L827 1075 L799 1017 C751 1028 698 1034 643 1034 C297 1034 90 808 90 507 C90 309 178 144 336 54 L281 -61 L459 -61 L487 -3 C535 -14 587 -20 643 -20 L643 -20 Z M643 135 C612 135 583 137 557 143 L874 804 C960 734 1001 623 1001 507 C1001 312 888 135 643 135 L643 135 Z M285 507 C285 700 398 879 643 879 C674 879 702 876 729 871 L411 210 C325 279 285 390 285 507 L285 507 Z " />
<glyph glyph-name="uni0200" unicode="&#x200;" horiz-adv-x="1664" d="M1250 166 L1097 166 L1097 0 L1614 0 L1614 166 L1460 166 L918 1434 L516 1434 L516 1268 L675 1268 L204 166 L50 166 L50 0 L567 0 L567 166 L413 166 L527 439 L1136 439 L1250 166 Z M832 1168 L1067 605 L596 605 L832 1168 Z M467 1835 L235 1835 L540 1536 L730 1536 L467 1835 Z M777 1835 L545 1835 L850 1536 L1040 1536 L777 1835 Z " />
<glyph glyph-name="uni0201" unicode="&#x201;" horiz-adv-x="1299" d="M629 879 C824 879 859 798 861 657 C547 687 121 640 121 308 C121 98 280 -20 533 -20 C715 -20 817 64 861 169 L861 0 L1209 0 L1209 155 L1050 155 L1050 620 C1050 812 1020 1034 629 1034 C494 1034 331 999 216 931 L289 799 C385 846 507 879 629 879 L629 879 Z M317 308 C317 537 668 553 861 527 L861 447 C861 283 762 135 543 135 C383 135 317 206 317 308 L317 308 Z M302 1434 L70 1434 L375 1135 L565 1135 L302 1434 Z M612 1434 L380 1434 L685 1135 L875 1135 L612 1434 Z " />
<glyph glyph-name="uni0202" unicode="&#x202;" horiz-adv-x="1664" d="M832 1781 C605 1781 517 1637 492 1535 L621 1535 C664 1621 726 1659 832 1659 C938 1659 999 1621 1043 1535 L1172 1535 C1147 1637 1059 1781 832 1781 L832 1781 Z M1250 166 L1097 166 L1097 0 L1614 0 L1614 166 L1460 166 L918 1434 L516 1434 L516 1268 L675 1268 L204 166 L50 166 L50 0 L567 0 L567 166 L413 166 L527 439 L1136 439 L1250 166 Z M832 1168 L1067 605 L596 605 L832 1168 Z " />
<glyph glyph-name="uni0203" unicode="&#x203;" horiz-adv-x="1248" d="M581 1434 C354 1434 266 1290 241 1188 L370 1188 C413 1274 475 1312 581 1312 C687 1312 748 1274 792 1188 L921 1188 C896 1290 808 1434 581 1434 L581 1434 Z M578 879 C773 879 808 798 810 657 C496 687 70 640 70 308 C70 98 229 -20 482 -20 C664 -20 766 64 810 169 L810 0 L1158 0 L1158 155 L999 155 L999 620 C999 812 969 1034 578 1034 C443 1034 280 999 165 931 L238 799 C334 846 456 879 578 879 L578 879 Z M266 308 C266 537 617 553 810 527 L810 447 C810 283 711 135 492 135 C332 135 266 206 266 308 L266 308 Z " />
<glyph glyph-name="uni0204" unicode="&#x204;" horiz-adv-x="1366" d="M110 0 L1256 0 L1256 339 L1057 339 L1057 166 L468 166 L468 649 L1050 649 L1050 815 L468 815 L468 1268 L1047 1268 L1047 1095 L1246 1095 L1246 1434 L110 1434 L110 1268 L269 1268 L269 166 L110 166 L110 0 Z M366 1835 L134 1835 L439 1536 L629 1536 L366 1835 Z M676 1835 L444 1835 L749 1536 L939 1536 L676 1835 Z " />
<glyph glyph-name="uni0205" unicode="&#x205;" horiz-adv-x="1210" d="M631 135 C443 135 334 269 324 414 L1139 414 C1149 822 947 1034 631 1034 C312 1034 121 808 121 507 C121 205 312 -20 631 -20 C855 -20 995 62 1070 137 L956 249 C881 190 780 135 631 135 L631 135 Z M325 579 C337 720 416 879 631 879 C846 879 925 720 937 579 L325 579 Z M302 1434 L70 1434 L375 1135 L565 1135 L302 1434 Z M612 1434 L380 1434 L685 1135 L875 1135 L612 1434 Z " />
<glyph glyph-name="uni0206" unicode="&#x206;" horiz-adv-x="1366" d="M682 1781 C455 1781 367 1637 342 1535 L471 1535 C514 1621 576 1659 682 1659 C788 1659 849 1621 893 1535 L1022 1535 C997 1637 909 1781 682 1781 L682 1781 Z M110 0 L1256 0 L1256 339 L1057 339 L1057 166 L468 166 L468 649 L1050 649 L1050 815 L468 815 L468 1268 L1047 1268 L1047 1095 L1246 1095 L1246 1434 L110 1434 L110 1268 L269 1268 L269 166 L110 166 L110 0 Z " />
<glyph glyph-name="uni0207" unicode="&#x207;" horiz-adv-x="1159" d="M580 135 C392 135 283 269 273 414 L1088 414 C1098 822 896 1034 580 1034 C261 1034 70 808 70 507 C70 205 261 -20 580 -20 C804 -20 944 62 1019 137 L905 249 C830 190 729 135 580 135 L580 135 Z M274 579 C286 720 365 879 580 879 C795 879 874 720 886 579 L274 579 Z M579 1434 C352 1434 264 1290 239 1188 L368 1188 C411 1274 473 1312 579 1312 C685 1312 746 1274 790 1188 L919 1188 C894 1290 806 1434 579 1434 L579 1434 Z " />
<glyph glyph-name="uni0208" unicode="&#x208;" horiz-adv-x="872" d="M559 1268 L718 1268 L718 1434 L201 1434 L201 1268 L360 1268 L360 166 L201 166 L201 0 L718 0 L718 166 L559 166 L559 1268 Z M131 1835 L-101 1835 L204 1536 L394 1536 L131 1835 Z M441 1835 L209 1835 L514 1536 L704 1536 L441 1835 Z " />
<glyph glyph-name="uni0209" unicode="&#x209;" horiz-adv-x="735" d="M508 155 L508 1014 L160 1014 L160 859 L319 859 L319 155 L160 155 L160 0 L667 0 L667 155 L508 155 Z M89 1434 L-143 1434 L162 1135 L352 1135 L89 1434 Z M399 1434 L167 1434 L472 1135 L662 1135 L399 1434 Z " />
<glyph glyph-name="uni020A" unicode="&#x20a;" horiz-adv-x="820" d="M410 1781 C183 1781 95 1637 70 1535 L199 1535 C242 1621 304 1659 410 1659 C516 1659 577 1621 621 1535 L750 1535 C725 1637 637 1781 410 1781 L410 1781 Z M510 1268 L669 1268 L669 1434 L152 1434 L152 1268 L311 1268 L311 166 L152 166 L152 0 L669 0 L669 166 L510 166 L510 1268 Z " />
<glyph glyph-name="uni020B" unicode="&#x20b;" horiz-adv-x="780" d="M390 1434 C163 1434 75 1290 50 1188 L179 1188 C222 1274 284 1312 390 1312 C496 1312 557 1274 601 1188 L730 1188 C705 1290 617 1434 390 1434 L390 1434 Z M485 155 L485 1014 L137 1014 L137 859 L296 859 L296 155 L137 155 L137 0 L644 0 L644 155 L485 155 Z " />
<glyph glyph-name="uni020C" unicode="&#x20c;" horiz-adv-x="1658" d="M829 -20 C1300 -20 1568 295 1568 717 C1568 1139 1300 1454 829 1454 C358 1454 90 1139 90 717 C90 295 358 -20 829 -20 L829 -20 Z M829 146 C481 146 303 397 303 717 C303 1037 481 1288 829 1288 C1177 1288 1355 1037 1355 717 C1355 397 1177 146 829 146 L829 146 Z M502 1835 L270 1835 L575 1536 L765 1536 L502 1835 Z M812 1835 L580 1835 L885 1536 L1075 1536 L812 1835 Z " />
<glyph glyph-name="uni020D" unicode="&#x20d;" horiz-adv-x="1249" d="M626 -20 C972 -20 1179 205 1179 507 C1179 808 972 1034 626 1034 C280 1034 73 808 73 507 C73 205 280 -20 626 -20 L626 -20 Z M626 135 C381 135 268 312 268 507 C268 700 381 879 626 879 C871 879 984 700 984 507 C984 312 871 135 626 135 L626 135 Z M302 1434 L70 1434 L375 1135 L565 1135 L302 1434 Z M612 1434 L380 1434 L685 1135 L875 1135 L612 1434 Z " />
<glyph glyph-name="uni020E" unicode="&#x20e;" horiz-adv-x="1658" d="M829 -20 C1300 -20 1568 295 1568 717 C1568 1139 1300 1454 829 1454 C358 1454 90 1139 90 717 C90 295 358 -20 829 -20 L829 -20 Z M829 146 C481 146 303 397 303 717 C303 1037 481 1288 829 1288 C1177 1288 1355 1037 1355 717 C1355 397 1177 146 829 146 L829 146 Z M829 1781 C602 1781 514 1637 489 1535 L618 1535 C661 1621 723 1659 829 1659 C935 1659 996 1621 1040 1535 L1169 1535 C1144 1637 1056 1781 829 1781 L829 1781 Z " />
<glyph glyph-name="uni020F" unicode="&#x20f;" horiz-adv-x="1246" d="M623 -20 C969 -20 1176 205 1176 507 C1176 808 969 1034 623 1034 C277 1034 70 808 70 507 C70 205 277 -20 623 -20 L623 -20 Z M623 135 C378 135 265 312 265 507 C265 700 378 879 623 879 C868 879 981 700 981 507 C981 312 868 135 623 135 L623 135 Z M623 1434 C396 1434 308 1290 283 1188 L412 1188 C455 1274 517 1312 623 1312 C729 1312 790 1274 834 1188 L963 1188 C938 1290 850 1434 623 1434 L623 1434 Z " />
<glyph glyph-name="uni0210" unicode="&#x210;" horiz-adv-x="1511" d="M372 1835 L140 1835 L445 1536 L635 1536 L372 1835 Z M682 1835 L450 1835 L755 1536 L945 1536 L682 1835 Z M627 0 L627 166 L468 166 L468 586 L781 586 L1124 0 L1401 0 L1401 166 L1242 166 L994 591 C1210 630 1370 772 1370 1010 C1370 1258 1208 1434 878 1434 L110 1434 L110 1268 L269 1268 L269 166 L110 166 L110 0 L627 0 Z M468 1268 L878 1268 C1077 1268 1161 1175 1161 1010 C1161 865 1077 752 878 752 L468 752 L468 1268 Z " />
<glyph glyph-name="uni0211" unicode="&#x211;" horiz-adv-x="1097" d="M1077 990 C1015 1018 940 1034 852 1034 C701 1034 594 955 561 861 L561 1014 L213 1014 L213 859 L372 859 L372 155 L213 155 L213 0 L720 0 L720 155 L561 155 L561 545 C561 724 621 879 842 879 C904 879 953 867 992 845 L1077 990 Z M322 1434 L90 1434 L395 1135 L585 1135 L322 1434 Z M632 1434 L400 1434 L705 1135 L895 1135 L632 1434 Z " />
<glyph glyph-name="uni0212" unicode="&#x212;" horiz-adv-x="1511" d="M704 1781 C477 1781 389 1637 364 1535 L493 1535 C536 1621 598 1659 704 1659 C810 1659 871 1621 915 1535 L1044 1535 C1019 1637 931 1781 704 1781 L704 1781 Z M627 0 L627 166 L468 166 L468 586 L781 586 L1124 0 L1401 0 L1401 166 L1242 166 L994 591 C1210 630 1370 772 1370 1010 C1370 1258 1208 1434 878 1434 L110 1434 L110 1268 L269 1268 L269 166 L110 166 L110 0 L627 0 Z M468 1268 L878 1268 C1077 1268 1161 1175 1161 1010 C1161 865 1077 752 878 752 L468 752 L468 1268 Z " />
<glyph glyph-name="uni0213" unicode="&#x213;" horiz-adv-x="974" d="M606 1434 C379 1434 291 1290 266 1188 L395 1188 C438 1274 500 1312 606 1312 C712 1312 773 1274 817 1188 L946 1188 C921 1290 833 1434 606 1434 L606 1434 Z M954 990 C892 1018 817 1034 729 1034 C578 1034 471 955 438 861 L438 1014 L90 1014 L90 859 L249 859 L249 155 L90 155 L90 0 L597 0 L597 155 L438 155 L438 545 C438 724 498 879 719 879 C781 879 830 867 869 845 L954 990 Z " />
<glyph glyph-name="uni0214" unicode="&#x214;" horiz-adv-x="1732" d="M468 622 L468 1268 L627 1268 L627 1434 L110 1434 L110 1268 L269 1268 L269 622 C269 226 454 -20 866 -20 C1278 -20 1463 226 1463 622 L1463 1268 L1622 1268 L1622 1434 L1105 1434 L1105 1268 L1264 1268 L1264 622 C1264 353 1166 146 866 146 C566 146 468 353 468 622 L468 622 Z M541 1835 L309 1835 L614 1536 L804 1536 L541 1835 Z M851 1835 L619 1835 L924 1536 L1114 1536 L851 1835 Z " />
<glyph glyph-name="uni0215" unicode="&#x215;" horiz-adv-x="1437" d="M1188 155 L1188 1014 L840 1014 L840 859 L999 859 L999 469 C999 290 939 135 718 135 C498 135 438 290 438 469 L438 1014 L90 1014 L90 859 L249 859 L249 469 C249 177 390 -20 708 -20 C859 -20 966 59 999 153 L999 0 L1347 0 L1347 155 L1188 155 Z M359 1434 L127 1434 L432 1135 L622 1135 L359 1434 Z M669 1434 L437 1434 L742 1135 L932 1135 L669 1434 Z " />
<glyph glyph-name="uni0216" unicode="&#x216;" horiz-adv-x="1732" d="M866 1781 C639 1781 551 1637 526 1535 L655 1535 C698 1621 760 1659 866 1659 C972 1659 1033 1621 1077 1535 L1206 1535 C1181 1637 1093 1781 866 1781 L866 1781 Z M468 622 L468 1268 L627 1268 L627 1434 L110 1434 L110 1268 L269 1268 L269 622 C269 226 454 -20 866 -20 C1278 -20 1463 226 1463 622 L1463 1268 L1622 1268 L1622 1434 L1105 1434 L1105 1268 L1264 1268 L1264 622 C1264 353 1166 146 866 146 C566 146 468 353 468 622 L468 622 Z " />
<glyph glyph-name="uni0217" unicode="&#x217;" horiz-adv-x="1437" d="M718 1434 C491 1434 403 1290 378 1188 L507 1188 C550 1274 612 1312 718 1312 C824 1312 885 1274 929 1188 L1058 1188 C1033 1290 945 1434 718 1434 L718 1434 Z M1188 155 L1188 1014 L840 1014 L840 859 L999 859 L999 469 C999 290 939 135 718 135 C498 135 438 290 438 469 L438 1014 L90 1014 L90 859 L249 859 L249 469 C249 177 390 -20 708 -20 C859 -20 966 59 999 153 L999 0 L1347 0 L1347 155 L1188 155 Z " />
<glyph glyph-name="Scommaaccent" unicode="&#x218;" horiz-adv-x="1359" d="M410 -532 L593 -532 L782 -96 L564 -96 L410 -532 Z M329 349 L130 349 L130 109 C130 109 333 -20 697 -20 C1037 -20 1229 116 1229 394 C1229 646 1055 758 697 833 C451 885 352 948 352 1079 C352 1209 447 1288 661 1288 C846 1288 954 1250 954 1250 L954 1095 L1153 1095 L1153 1358 C1153 1358 962 1454 661 1454 C276 1454 153 1262 153 1079 C153 874 287 733 662 655 C936 598 1030 529 1030 394 C1030 260 967 146 697 146 C476 146 329 208 329 208 L329 349 Z " />
<glyph glyph-name="scommaaccent" unicode="&#x219;" horiz-adv-x="1034" d="M242 -532 L425 -532 L614 -96 L396 -96 L242 -532 Z M888 959 C888 959 734 1034 503 1034 C235 1034 99 916 99 752 C99 588 214 492 498 439 C671 407 749 375 749 280 C749 189 692 135 497 135 C366 136 279 174 279 174 L279 318 L90 318 L90 84 C90 84 236 -20 497 -20 C769 -20 944 70 944 280 C944 467 800 547 531 598 C370 628 294 662 294 752 C294 838 381 879 503 879 C606 879 699 854 699 854 L699 710 L888 710 L888 959 Z " />
<glyph glyph-name="uni021A" unicode="&#x21a;" horiz-adv-x="1487" d="M644 1268 L644 166 L485 166 L485 0 L1002 0 L1002 166 L843 166 L843 1268 L1178 1268 L1178 1095 L1377 1095 L1377 1434 L110 1434 L110 1095 L309 1095 L309 1268 L644 1268 Z M478 -532 L661 -532 L850 -96 L632 -96 L478 -532 Z " />
<glyph glyph-name="uni021B" unicode="&#x21b;" horiz-adv-x="813" d="M50 859 L245 859 L245 418 C245 110 305 -20 580 -20 C643 -20 723 -7 763 9 L718 155 C679 143 631 134 580 134 C450 134 434 212 434 418 L434 859 L727 859 L727 1014 L434 1014 L434 1313 L245 1313 L245 1014 L50 1014 L50 859 Z M263 -532 L446 -532 L635 -96 L417 -96 L263 -532 Z " />
<glyph glyph-name="uni021E" unicode="&#x21e;" horiz-adv-x="1699" d="M687 1835 L521 1835 L791 1536 L907 1536 L1177 1835 L1011 1835 L849 1689 L687 1835 Z M1231 816 L468 816 L468 1268 L627 1268 L627 1434 L110 1434 L110 1268 L269 1268 L269 166 L110 166 L110 0 L627 0 L627 166 L468 166 L468 650 L1231 650 L1231 166 L1072 166 L1072 0 L1589 0 L1589 166 L1430 166 L1430 1268 L1589 1268 L1589 1434 L1072 1434 L1072 1268 L1231 1268 L1231 816 Z " />
<glyph glyph-name="uni021F" unicode="&#x21f;" horiz-adv-x="1437" d="M556 1835 L390 1835 L660 1536 L776 1536 L1046 1835 L880 1835 L718 1689 L556 1835 Z M249 1361 L249 155 L90 155 L90 0 L597 0 L597 155 L438 155 L438 545 C438 724 498 879 719 879 C939 879 999 724 999 545 L999 155 L840 155 L840 0 L1347 0 L1347 155 L1188 155 L1188 545 C1188 837 1047 1034 729 1034 C578 1034 471 955 438 861 L438 1516 L90 1516 L90 1361 L249 1361 Z " />
<glyph glyph-name="uni0224" unicode="&#x224;" horiz-adv-x="1370" d="M1234 1434 L135 1434 L135 1095 L334 1095 L334 1268 L950 1268 L110 97 L110 0 L1099 0 C1081 -3 960 -36 951 -179 C939 -357 1114 -413 1260 -413 L1260 -221 C1260 -221 1118 -226 1118 -121 C1118 -29 1227 -1 1234 0 L1234 339 L1035 339 L1035 166 L395 166 L1234 1337 L1234 1434 Z " />
<glyph glyph-name="uni0225" unicode="&#x225;" horiz-adv-x="1089" d="M690 -179 C678 -357 853 -413 999 -413 L999 -221 C999 -221 857 -226 857 -121 C857 -31 961 -2 973 0 L973 304 L784 304 L784 155 L368 155 L973 923 L973 1014 L107 1014 L107 710 L296 710 L296 859 L695 859 L90 91 L90 0 L838 0 C820 -3 699 -36 690 -179 L690 -179 Z " />
<glyph glyph-name="uni0226" unicode="&#x226;" horiz-adv-x="1664" d="M710 1657 C710 1590 764 1536 831 1536 C898 1536 953 1590 953 1657 C953 1724 898 1779 831 1779 C764 1779 710 1724 710 1657 L710 1657 Z M1250 166 L1097 166 L1097 0 L1614 0 L1614 166 L1460 166 L918 1434 L516 1434 L516 1268 L675 1268 L204 166 L50 166 L50 0 L567 0 L567 166 L413 166 L527 439 L1136 439 L1250 166 Z M832 1168 L1067 605 L596 605 L832 1168 Z " />
<glyph glyph-name="uni0227" unicode="&#x227;" horiz-adv-x="1248" d="M472 1312 C472 1245 526 1191 593 1191 C660 1191 715 1245 715 1312 C715 1379 660 1434 593 1434 C526 1434 472 1379 472 1312 L472 1312 Z M578 879 C773 879 808 798 810 657 C496 687 70 640 70 308 C70 98 229 -20 482 -20 C664 -20 766 64 810 169 L810 0 L1158 0 L1158 155 L999 155 L999 620 C999 812 969 1034 578 1034 C443 1034 280 999 165 931 L238 799 C334 846 456 879 578 879 L578 879 Z M266 308 C266 537 617 553 810 527 L810 447 C810 283 711 135 492 135 C332 135 266 206 266 308 L266 308 Z " />
<glyph glyph-name="uni0228" unicode="&#x228;" horiz-adv-x="1366" d="M110 0 L633 0 L560 -220 C682 -199 808 -189 798 -276 C787 -393 594 -348 540 -320 L496 -429 C644 -510 922 -494 941 -283 C952 -160 859 -100 746 -103 L777 0 L1256 0 L1256 339 L1057 339 L1057 166 L468 166 L468 649 L1050 649 L1050 815 L468 815 L468 1268 L1047 1268 L1047 1095 L1246 1095 L1246 1434 L110 1434 L110 1268 L269 1268 L269 166 L110 166 L110 0 Z " />
<glyph glyph-name="uni0229" unicode="&#x229;" horiz-adv-x="1159" d="M375 -429 C523 -510 801 -494 820 -283 C831 -160 738 -100 625 -103 L651 -17 C834 -2 952 70 1019 137 L905 249 C830 190 729 135 580 135 C392 135 283 269 273 414 L1088 414 C1098 822 896 1034 580 1034 C261 1034 70 808 70 507 C70 229 232 16 506 -16 L439 -220 C561 -199 687 -189 677 -276 C666 -393 473 -348 419 -320 L375 -429 Z M274 579 C286 720 365 879 580 879 C795 879 874 720 886 579 L274 579 Z " />
<glyph glyph-name="uni022A" unicode="&#x22a;" horiz-adv-x="1658" d="M829 -20 C1300 -20 1568 295 1568 717 C1568 1139 1300 1454 829 1454 C358 1454 90 1139 90 717 C90 295 358 -20 829 -20 L829 -20 Z M829 146 C481 146 303 397 303 717 C303 1037 481 1288 829 1288 C1177 1288 1355 1037 1355 717 C1355 397 1177 146 829 146 L829 146 Z M501 1657 C501 1590 555 1536 622 1536 C689 1536 744 1590 744 1657 C744 1724 689 1779 622 1779 C555 1779 501 1724 501 1657 L501 1657 Z M914 1657 C914 1590 968 1536 1035 1536 C1102 1536 1157 1590 1157 1657 C1157 1724 1102 1779 1035 1779 C968 1779 914 1724 914 1657 L914 1657 Z M474 1848 L1183 1848 L1183 2003 L474 2003 L474 1848 Z " />
<glyph glyph-name="uni022B" unicode="&#x22b;" horiz-adv-x="1246" d="M623 -20 C969 -20 1176 205 1176 507 C1176 808 969 1034 623 1034 C277 1034 70 808 70 507 C70 205 277 -20 623 -20 L623 -20 Z M623 135 C378 135 265 312 265 507 C265 700 378 879 623 879 C868 879 981 700 981 507 C981 312 868 135 623 135 L623 135 Z M294 1312 C294 1245 348 1191 415 1191 C482 1191 537 1245 537 1312 C537 1379 482 1434 415 1434 C348 1434 294 1379 294 1312 L294 1312 Z M707 1312 C707 1245 761 1191 828 1191 C895 1191 950 1245 950 1312 C950 1379 895 1434 828 1434 C761 1434 707 1379 707 1312 L707 1312 Z M267 1503 L976 1503 L976 1658 L267 1658 L267 1503 Z " />
<glyph glyph-name="uni022C" unicode="&#x22c;" horiz-adv-x="1658" d="M829 -20 C1300 -20 1568 295 1568 717 C1568 1139 1300 1454 829 1454 C358 1454 90 1139 90 717 C90 295 358 -20 829 -20 L829 -20 Z M829 146 C481 146 303 397 303 717 C303 1037 481 1288 829 1288 C1177 1288 1355 1037 1355 717 C1355 397 1177 146 829 146 L829 146 Z M790 1612 C834 1577 874 1548 935 1548 C1179 1548 1170 1777 1170 1777 L995 1777 C995 1777 997 1699 940 1699 C913 1699 885 1722 867 1735 C823 1770 783 1799 722 1799 C478 1799 487 1570 487 1570 L662 1570 C662 1570 660 1648 717 1648 C744 1648 772 1625 790 1612 L790 1612 Z M474 1868 L1183 1868 L1183 2023 L474 2023 L474 1868 Z " />
<glyph glyph-name="uni022D" unicode="&#x22d;" horiz-adv-x="1246" d="M623 -20 C969 -20 1176 205 1176 507 C1176 808 969 1034 623 1034 C277 1034 70 808 70 507 C70 205 277 -20 623 -20 L623 -20 Z M623 135 C378 135 265 312 265 507 C265 700 378 879 623 879 C868 879 981 700 981 507 C981 312 868 135 623 135 L623 135 Z M585 1247 C629 1212 669 1183 730 1183 C974 1183 965 1412 965 1412 L790 1412 C790 1412 792 1334 735 1334 C708 1334 680 1357 662 1370 C618 1405 578 1434 517 1434 C273 1434 282 1205 282 1205 L457 1205 C457 1205 455 1283 512 1283 C539 1283 567 1260 585 1247 L585 1247 Z M269 1503 L978 1503 L978 1658 L269 1658 L269 1503 Z " />
<glyph glyph-name="uni022E" unicode="&#x22e;" horiz-adv-x="1658" d="M829 -20 C1300 -20 1568 295 1568 717 C1568 1139 1300 1454 829 1454 C358 1454 90 1139 90 717 C90 295 358 -20 829 -20 L829 -20 Z M829 146 C481 146 303 397 303 717 C303 1037 481 1288 829 1288 C1177 1288 1355 1037 1355 717 C1355 397 1177 146 829 146 L829 146 Z M708 1657 C708 1590 762 1536 829 1536 C896 1536 951 1590 951 1657 C951 1724 896 1779 829 1779 C762 1779 708 1724 708 1657 L708 1657 Z " />
<glyph glyph-name="uni022F" unicode="&#x22f;" horiz-adv-x="1246" d="M623 -20 C969 -20 1176 205 1176 507 C1176 808 969 1034 623 1034 C277 1034 70 808 70 507 C70 205 277 -20 623 -20 L623 -20 Z M623 135 C378 135 265 312 265 507 C265 700 378 879 623 879 C868 879 981 700 981 507 C981 312 868 135 623 135 L623 135 Z M502 1312 C502 1245 556 1191 623 1191 C690 1191 745 1245 745 1312 C745 1379 690 1434 623 1434 C556 1434 502 1379 502 1312 L502 1312 Z " />
<glyph glyph-name="uni0230" unicode="&#x230;" horiz-adv-x="1658" d="M829 -20 C1300 -20 1568 295 1568 717 C1568 1139 1300 1454 829 1454 C358 1454 90 1139 90 717 C90 295 358 -20 829 -20 L829 -20 Z M829 146 C481 146 303 397 303 717 C303 1037 481 1288 829 1288 C1177 1288 1355 1037 1355 717 C1355 397 1177 146 829 146 L829 146 Z M709 1657 C709 1590 763 1536 830 1536 C897 1536 952 1590 952 1657 C952 1724 897 1779 830 1779 C763 1779 709 1724 709 1657 L709 1657 Z M474 1848 L1183 1848 L1183 2003 L474 2003 L474 1848 Z " />
<glyph glyph-name="uni0231" unicode="&#x231;" horiz-adv-x="1246" d="M623 -20 C969 -20 1176 205 1176 507 C1176 808 969 1034 623 1034 C277 1034 70 808 70 507 C70 205 277 -20 623 -20 L623 -20 Z M623 135 C378 135 265 312 265 507 C265 700 378 879 623 879 C868 879 981 700 981 507 C981 312 868 135 623 135 L623 135 Z M502 1312 C502 1245 556 1191 623 1191 C690 1191 745 1245 745 1312 C745 1379 690 1434 623 1434 C556 1434 502 1379 502 1312 L502 1312 Z M267 1503 L976 1503 L976 1658 L267 1658 L267 1503 Z " />
<glyph glyph-name="uni0232" unicode="&#x232;" horiz-adv-x="1485" d="M388 1535 L1097 1535 L1097 1690 L388 1690 L388 1535 Z M643 594 L643 166 L484 166 L484 0 L1001 0 L1001 166 L842 166 L842 594 L1291 1268 L1435 1268 L1435 1434 L918 1434 L918 1268 L1060 1268 L742 780 L424 1268 L567 1268 L567 1434 L50 1434 L50 1268 L193 1268 L643 594 Z " />
<glyph glyph-name="uni0233" unicode="&#x233;" horiz-adv-x="1428" d="M360 1279 L1069 1279 L1069 1434 L360 1434 L360 1279 Z M1184 859 L1338 859 L1338 1014 L831 1014 L831 859 L983 859 L714 200 L444 859 L597 859 L597 1014 L90 1014 L90 859 L244 859 L614 0 L527 -216 C487 -310 450 -377 337 -377 L220 -377 L220 -532 L337 -532 C552 -532 629 -436 689 -290 L1184 859 Z " />
<glyph glyph-name="uni0238" unicode="&#x238;" horiz-adv-x="2075" d="M1132 0 L1132 201 C1207 48 1366 -20 1502 -20 C1819 -20 2005 216 2005 507 C2005 797 1819 1034 1502 1034 C1366 1034 1207 966 1132 813 L1132 1361 L1291 1361 L1291 1516 L784 1516 L784 1361 L943 1361 L943 813 C868 966 709 1034 573 1034 C256 1034 70 797 70 507 C70 216 256 -20 573 -20 C709 -20 868 48 943 201 L943 0 L1132 0 Z M603 879 C840 879 943 686 943 507 C943 327 840 135 603 135 C366 135 263 327 263 507 C263 686 366 879 603 879 L603 879 Z M1472 879 C1709 879 1812 686 1812 507 C1812 327 1709 135 1472 135 C1235 135 1132 327 1132 507 C1132 686 1235 879 1472 879 L1472 879 Z " />
<glyph glyph-name="uni0239" unicode="&#x239;" horiz-adv-x="2075" d="M943 1014 L943 813 C868 966 709 1034 573 1034 C256 1034 70 798 70 507 C70 217 256 -20 573 -20 C709 -20 868 48 943 201 L943 -377 L784 -377 L784 -532 L1291 -532 L1291 -377 L1132 -377 L1132 201 C1207 48 1366 -20 1502 -20 C1819 -20 2005 217 2005 507 C2005 798 1819 1034 1502 1034 C1366 1034 1207 966 1132 813 L1132 1014 L943 1014 Z M1472 135 C1235 135 1132 328 1132 507 C1132 687 1235 879 1472 879 C1709 879 1812 687 1812 507 C1812 328 1709 135 1472 135 L1472 135 Z M603 135 C366 135 263 328 263 507 C263 687 366 879 603 879 C840 879 943 687 943 507 C943 328 840 135 603 135 L603 135 Z " />
<glyph glyph-name="uni024C" unicode="&#x24c;" horiz-adv-x="1614" d="M730 0 L730 166 L571 166 L571 586 L884 586 L1227 0 L1504 0 L1504 166 L1345 166 L1097 591 C1313 630 1473 772 1473 1010 C1473 1258 1311 1434 981 1434 L213 1434 L213 1268 L372 1268 L372 752 L110 752 L110 586 L372 586 L372 166 L213 166 L213 0 L730 0 Z M571 1268 L981 1268 C1180 1268 1264 1175 1264 1010 C1264 865 1180 752 981 752 L571 752 L571 1268 Z " />
<glyph glyph-name="uni024D" unicode="&#x24d;" horiz-adv-x="1042" d="M1022 990 C960 1018 885 1034 797 1034 C646 1034 539 955 506 861 L506 1014 L158 1014 L158 859 L317 859 L317 524 L90 524 L90 369 L317 369 L317 155 L158 155 L158 0 L665 0 L665 155 L506 155 L506 369 L733 369 L733 524 L506 524 L506 545 C506 724 566 879 787 879 C849 879 898 867 937 845 L1022 990 Z " />
<glyph glyph-name="uni024E" unicode="&#x24e;" horiz-adv-x="1485" d="M643 594 L643 166 L484 166 L484 0 L1001 0 L1001 166 L842 166 L842 594 L1085 959 L1332 959 L1332 1125 L1195 1125 L1291 1268 L1435 1268 L1435 1434 L918 1434 L918 1268 L1060 1268 L966 1125 L517 1125 L424 1268 L567 1268 L567 1434 L50 1434 L50 1268 L193 1268 L288 1125 L153 1125 L153 959 L399 959 L643 594 Z M625 959 L858 959 L742 780 L625 959 Z " />
<glyph glyph-name="uni024F" unicode="&#x24f;" horiz-adv-x="1428" d="M1184 859 L1338 859 L1338 1014 L831 1014 L831 859 L983 859 L872 587 L555 587 L444 859 L597 859 L597 1014 L90 1014 L90 859 L244 859 L361 587 L160 587 L160 432 L428 432 L614 0 L527 -216 C487 -310 450 -377 337 -377 L220 -377 L220 -532 L337 -532 C552 -532 629 -436 689 -290 L1000 432 L1269 432 L1269 587 L1067 587 L1184 859 Z M619 432 L808 432 L714 200 L619 432 Z " />
<glyph glyph-name="circumflex" unicode="&#x2c6;" horiz-adv-x="836" d="M418 1281 L580 1135 L746 1135 L476 1434 L360 1434 L90 1135 L256 1135 L418 1281 Z " />
<glyph glyph-name="caron" unicode="&#x2c7;" horiz-adv-x="796" d="M236 1434 L70 1434 L340 1135 L456 1135 L726 1434 L560 1434 L398 1288 L236 1434 Z " />
<glyph glyph-name="uni02C8" unicode="&#x2c8;" horiz-adv-x="369" d="M90 1032 L279 1032 L279 1434 L90 1434 L90 1032 Z " />
<glyph glyph-name="uni02C9" unicode="&#x2c9;" horiz-adv-x="929" d="M110 1279 L819 1279 L819 1434 L110 1434 L110 1279 Z " />
<glyph glyph-name="uni02CA" unicode="&#x2ca;" horiz-adv-x="675" d="M90 1135 L280 1135 L585 1434 L353 1434 L90 1135 Z " />
<glyph glyph-name="uni02CB" unicode="&#x2cb;" horiz-adv-x="675" d="M322 1434 L90 1434 L395 1135 L585 1135 L322 1434 Z " />
<glyph glyph-name="uni02CC" unicode="&#x2cc;" horiz-adv-x="369" d="M90 -532 L279 -532 L279 -130 L90 -130 L90 -532 Z " />
<glyph glyph-name="uni02CD" unicode="&#x2cd;" horiz-adv-x="889" d="M90 -533 L799 -533 L799 -378 L90 -378 L90 -533 Z " />
<glyph glyph-name="uni02CE" unicode="&#x2ce;" horiz-adv-x="675" d="M322 -295 L90 -295 L395 -594 L585 -594 L322 -295 Z " />
<glyph glyph-name="uni02CF" unicode="&#x2cf;" horiz-adv-x="675" d="M90 -594 L280 -594 L585 -295 L353 -295 L90 -594 Z " />
<glyph glyph-name="uni02D0" unicode="&#x2d0;" horiz-adv-x="598" d="M90 1014 L299 646 L508 1014 L90 1014 Z M508 0 L299 368 L90 0 L508 0 Z " />
<glyph glyph-name="uni02D1" unicode="&#x2d1;" horiz-adv-x="598" d="M90 1014 L299 646 L508 1014 L90 1014 Z " />
<glyph glyph-name="uni02D2" unicode="&#x2d2;" horiz-adv-x="493" d="M279 715 C279 791 318 849 403 849 L403 1014 C215 1014 90 885 90 715 C90 545 215 416 403 416 L403 581 C318 581 279 639 279 715 L279 715 Z " />
<glyph glyph-name="uni02D3" unicode="&#x2d3;" horiz-adv-x="493" d="M214 715 C214 639 175 581 90 581 L90 416 C278 416 403 545 403 715 C403 885 278 1014 90 1014 L90 849 C175 849 214 791 214 715 L214 715 Z " />
<glyph glyph-name="uni02D4" unicode="&#x2d4;" horiz-adv-x="857" d="M90 591 L767 591 L767 746 L523 746 L523 1014 L334 1014 L334 746 L90 746 L90 591 Z " />
<glyph glyph-name="uni02D5" unicode="&#x2d5;" horiz-adv-x="857" d="M90 268 L334 268 L334 0 L523 0 L523 268 L767 268 L767 423 L90 423 L90 268 Z " />
<glyph glyph-name="uni02D6" unicode="&#x2d6;" horiz-adv-x="997" d="M837 702 L588 702 L588 970 L409 970 L409 702 L160 702 L160 547 L409 547 L409 279 L588 279 L588 547 L837 547 L837 702 Z " />
<glyph glyph-name="uni02D7" unicode="&#x2d7;" horiz-adv-x="817" d="M727 702 L90 702 L90 547 L727 547 L727 702 Z " />
<glyph glyph-name="breve" unicode="&#x2d8;" horiz-adv-x="820" d="M410 1188 C637 1188 725 1332 750 1434 L621 1434 C577 1348 516 1310 410 1310 C304 1310 242 1348 199 1434 L70 1434 C95 1332 183 1188 410 1188 L410 1188 Z " />
<glyph glyph-name="dotaccent" unicode="&#x2d9;" horiz-adv-x="343" d="M50 1312 C50 1245 104 1191 171 1191 C238 1191 293 1245 293 1312 C293 1379 238 1434 171 1434 C104 1434 50 1379 50 1312 L50 1312 Z " />
<glyph glyph-name="ring" unicode="&#x2da;" horiz-adv-x="584" d="M90 1314 C90 1203 181 1112 292 1112 C402 1112 494 1203 494 1314 C494 1425 402 1516 292 1516 C181 1516 90 1425 90 1314 L90 1314 Z M207 1314 C207 1361 245 1399 292 1399 C339 1399 377 1361 377 1314 C377 1267 339 1229 292 1229 C245 1229 207 1267 207 1314 L207 1314 Z " />
<glyph glyph-name="ogonek" unicode="&#x2db;" horiz-adv-x="450" d="M221 0 C221 0 81 -26 71 -179 C59 -357 234 -413 380 -413 L380 -221 C380 -221 238 -226 238 -121 C238 -27 354 0 354 0 L221 0 Z " />
<glyph glyph-name="tilde" unicode="&#x2dc;" horiz-adv-x="865" d="M394 1247 C438 1212 478 1183 539 1183 C783 1183 774 1412 774 1412 L599 1412 C599 1412 601 1334 544 1334 C517 1334 489 1357 471 1370 C427 1405 387 1434 326 1434 C82 1434 91 1205 91 1205 L266 1205 C266 1205 264 1283 321 1283 C348 1283 376 1260 394 1247 L394 1247 Z " />
<glyph glyph-name="hungarumlaut" unicode="&#x2dd;" horiz-adv-x="763" d="M90 1150 L263 1150 L392 1516 L184 1516 L90 1150 Z M371 1150 L544 1150 L673 1516 L465 1516 L371 1150 Z " />
<glyph glyph-name="gravecomb" unicode="&#x300;" horiz-adv-x="715" d="M342 1434 L110 1434 L415 1135 L605 1135 L342 1434 Z " />
<glyph glyph-name="acutecomb" unicode="&#x301;" horiz-adv-x="715" d="M110 1135 L300 1135 L605 1434 L373 1434 L110 1135 Z " />
<glyph glyph-name="uni0302" unicode="&#x302;" horiz-adv-x="836" d="M418 1281 L580 1135 L746 1135 L476 1434 L360 1434 L90 1135 L256 1135 L418 1281 Z " />
<glyph glyph-name="tildecomb" unicode="&#x303;" horiz-adv-x="905" d="M414 1247 C458 1212 498 1183 559 1183 C803 1183 794 1412 794 1412 L619 1412 C619 1412 621 1334 564 1334 C537 1334 509 1357 491 1370 C447 1405 407 1434 346 1434 C102 1434 111 1205 111 1205 L286 1205 C286 1205 284 1283 341 1283 C368 1283 396 1260 414 1247 L414 1247 Z " />
<glyph glyph-name="uni0304" unicode="&#x304;" horiz-adv-x="889" d="M90 1279 L799 1279 L799 1434 L90 1434 L90 1279 Z " />
<glyph glyph-name="uni0305" unicode="&#x305;" horiz-adv-x="889" d="M90 1279 L799 1279 L799 1434 L90 1434 L90 1279 Z " />
<glyph glyph-name="uni0306" unicode="&#x306;" horiz-adv-x="860" d="M430 1188 C657 1188 745 1332 770 1434 L641 1434 C597 1348 536 1310 430 1310 C324 1310 262 1348 219 1434 L90 1434 C115 1332 203 1188 430 1188 L430 1188 Z " />
<glyph glyph-name="uni0307" unicode="&#x307;" horiz-adv-x="423" d="M90 1312 C90 1245 144 1191 211 1191 C278 1191 333 1245 333 1312 C333 1379 278 1434 211 1434 C144 1434 90 1379 90 1312 L90 1312 Z " />
<glyph glyph-name="uni0308" unicode="&#x308;" horiz-adv-x="836" d="M90 1312 C90 1245 144 1191 211 1191 C278 1191 333 1245 333 1312 C333 1379 278 1434 211 1434 C144 1434 90 1379 90 1312 L90 1312 Z M503 1312 C503 1245 557 1191 624 1191 C691 1191 746 1245 746 1312 C746 1379 691 1434 624 1434 C557 1434 503 1379 503 1312 L503 1312 Z " />
<glyph glyph-name="hookabovecomb" unicode="&#x309;" horiz-adv-x="603" d="M110 1085 C219 1085 493 1107 493 1434 L312 1434 C312 1270 200 1247 110 1247 L110 1085 Z " />
<glyph glyph-name="uni030A" unicode="&#x30a;" horiz-adv-x="584" d="M90 1314 C90 1203 181 1112 292 1112 C402 1112 494 1203 494 1314 C494 1425 402 1516 292 1516 C181 1516 90 1425 90 1314 L90 1314 Z M207 1314 C207 1361 245 1399 292 1399 C339 1399 377 1361 377 1314 C377 1267 339 1229 292 1229 C245 1229 207 1267 207 1314 L207 1314 Z " />
<glyph glyph-name="uni030B" unicode="&#x30b;" horiz-adv-x="884" d="M422 998 L605 998 L794 1434 L576 1434 L422 998 Z M90 998 L273 998 L462 1434 L244 1434 L90 998 Z " />
<glyph glyph-name="uni030C" unicode="&#x30c;" horiz-adv-x="836" d="M256 1434 L90 1434 L360 1135 L476 1135 L746 1434 L580 1434 L418 1288 L256 1434 Z " />
<glyph glyph-name="uni030D" unicode="&#x30d;" horiz-adv-x="369" d="M90 1032 L279 1032 L279 1434 L90 1434 L90 1032 Z " />
<glyph glyph-name="uni030E" unicode="&#x30e;" horiz-adv-x="658" d="M90 1032 L279 1032 L279 1434 L90 1434 L90 1032 Z M379 1032 L568 1032 L568 1434 L379 1434 L379 1032 Z " />
<glyph glyph-name="uni030F" unicode="&#x30f;" horiz-adv-x="884" d="M308 1434 L90 1434 L279 998 L462 998 L308 1434 Z M640 1434 L422 1434 L611 998 L794 998 L640 1434 Z " />
<glyph glyph-name="uni0310" unicode="&#x310;" horiz-adv-x="860" d="M430 1188 C657 1188 745 1332 770 1434 L641 1434 C597 1348 536 1310 430 1310 C324 1310 262 1348 219 1434 L90 1434 C115 1332 203 1188 430 1188 L430 1188 Z M309 1555 C309 1488 363 1434 430 1434 C497 1434 552 1488 552 1555 C552 1622 497 1677 430 1677 C363 1677 309 1622 309 1555 L309 1555 Z " />
<glyph glyph-name="uni0311" unicode="&#x311;" horiz-adv-x="860" d="M430 1434 C203 1434 115 1290 90 1188 L219 1188 C262 1274 324 1312 430 1312 C536 1312 597 1274 641 1188 L770 1188 C745 1290 657 1434 430 1434 L430 1434 Z " />
<glyph glyph-name="uni0312" unicode="&#x312;" horiz-adv-x="552" d="M462 1434 L279 1434 L90 998 L308 998 L462 1434 Z " />
<glyph glyph-name="uni0313" unicode="&#x313;" horiz-adv-x="552" d="M90 998 L273 998 L462 1434 L244 1434 L90 998 Z " />
<glyph glyph-name="uni0314" unicode="&#x314;" horiz-adv-x="552" d="M308 1434 L90 1434 L279 998 L462 998 L308 1434 Z " />
<glyph glyph-name="uni0315" unicode="&#x315;" horiz-adv-x="552" d="M90 998 L273 998 L462 1434 L244 1434 L90 998 Z " />
<glyph glyph-name="uni0316" unicode="&#x316;" horiz-adv-x="675" d="M322 -295 L90 -295 L395 -594 L585 -594 L322 -295 Z " />
<glyph glyph-name="uni0317" unicode="&#x317;" horiz-adv-x="675" d="M90 -594 L280 -594 L585 -295 L353 -295 L90 -594 Z " />
<glyph glyph-name="uni0318" unicode="&#x318;" horiz-adv-x="539" d="M285 -91 L285 -234 L90 -234 L90 -389 L285 -389 L285 -532 L449 -532 L449 -91 L285 -91 Z " />
<glyph glyph-name="uni0319" unicode="&#x319;" horiz-adv-x="539" d="M90 -91 L90 -532 L254 -532 L254 -389 L449 -389 L449 -234 L254 -234 L254 -91 L90 -91 Z " />
<glyph glyph-name="uni031A" unicode="&#x31a;" horiz-adv-x="539" d="M90 1434 L90 1279 L285 1279 L285 1136 L449 1136 L449 1434 L90 1434 Z " />
<glyph glyph-name="uni031B" unicode="&#x31b;" horiz-adv-x="520" d="M247 1434 C247 1386 254 1242 90 1242 L90 1071 C437 1071 429 1369 429 1434 L247 1434 Z " />
<glyph glyph-name="uni031C" unicode="&#x31c;" horiz-adv-x="493" d="M279 -392 C279 -316 318 -258 403 -258 L403 -93 C215 -93 90 -222 90 -392 C90 -562 215 -691 403 -691 L403 -526 C318 -526 279 -468 279 -392 L279 -392 Z " />
<glyph glyph-name="uni031D" unicode="&#x31d;" horiz-adv-x="677" d="M90 -532 L587 -532 L587 -377 L423 -377 L423 -179 L254 -179 L254 -377 L90 -377 L90 -532 Z " />
<glyph glyph-name="uni031E" unicode="&#x31e;" horiz-adv-x="677" d="M90 -334 L254 -334 L254 -532 L423 -532 L423 -334 L587 -334 L587 -179 L90 -179 L90 -334 Z " />
<glyph glyph-name="uni031F" unicode="&#x31f;" horiz-adv-x="624" d="M534 65 L381 65 L381 229 L243 229 L243 65 L90 65 L90 -62 L243 -62 L243 -226 L381 -226 L381 -62 L534 -62 L534 65 Z " />
<glyph glyph-name="uni0320" unicode="&#x320;" horiz-adv-x="584" d="M494 65 L90 65 L90 -62 L494 -62 L494 65 Z " />
<glyph glyph-name="uni0321" unicode="&#x321;" horiz-adv-x="645" d="M377 -22 C377 -257 327 -358 90 -358 L90 -532 C439 -532 555 -379 555 -22 L377 -22 Z " />
<glyph glyph-name="uni0322" unicode="&#x322;" horiz-adv-x="645" d="M90 -22 C90 -379 206 -532 555 -532 L555 -358 C318 -358 268 -257 268 -22 L90 -22 Z " />
<glyph glyph-name="dotbelowcomb" unicode="&#x323;" horiz-adv-x="463" d="M110 -297 C110 -364 164 -418 231 -418 C298 -418 353 -364 353 -297 C353 -230 298 -175 231 -175 C164 -175 110 -230 110 -297 L110 -297 Z " />
<glyph glyph-name="uni0324" unicode="&#x324;" horiz-adv-x="836" d="M90 -286 C90 -353 144 -407 211 -407 C278 -407 333 -353 333 -286 C333 -219 278 -164 211 -164 C144 -164 90 -219 90 -286 L90 -286 Z M503 -286 C503 -353 557 -407 624 -407 C691 -407 746 -353 746 -286 C746 -219 691 -164 624 -164 C557 -164 503 -219 503 -286 L503 -286 Z " />
<glyph glyph-name="uni0325" unicode="&#x325;" horiz-adv-x="584" d="M90 -330 C90 -441 181 -532 292 -532 C402 -532 494 -441 494 -330 C494 -219 402 -128 292 -128 C181 -128 90 -219 90 -330 L90 -330 Z M207 -330 C207 -283 245 -245 292 -245 C339 -245 377 -283 377 -330 C377 -377 339 -415 292 -415 C245 -415 207 -377 207 -330 L207 -330 Z " />
<glyph glyph-name="commaaccent" unicode="&#x326;" horiz-adv-x="592" d="M110 -532 L293 -532 L482 -96 L264 -96 L110 -532 Z " />
<glyph glyph-name="uni0327" unicode="&#x327;" horiz-adv-x="626" d="M90 -429 C238 -510 516 -494 535 -283 C546 -160 453 -100 340 -103 L394 73 L251 73 L154 -220 C276 -199 402 -189 392 -276 C381 -393 188 -348 134 -320 L90 -429 Z " />
<glyph glyph-name="uni0328" unicode="&#x328;" horiz-adv-x="490" d="M241 0 C241 0 101 -26 91 -179 C79 -357 254 -413 400 -413 L400 -221 C400 -221 258 -226 258 -121 C258 -27 374 0 374 0 L241 0 Z " />
<glyph glyph-name="uni0329" unicode="&#x329;" horiz-adv-x="369" d="M90 -532 L279 -532 L279 -130 L90 -130 L90 -532 Z " />
<glyph glyph-name="uni032A" unicode="&#x32a;" horiz-adv-x="875" d="M90 -532 L269 -532 L269 -406 L606 -406 L606 -532 L785 -532 L785 -251 L90 -251 L90 -532 Z " />
<glyph glyph-name="uni032B" unicode="&#x32b;" horiz-adv-x="766" d="M383 -438 C398 -494 455 -532 510 -532 C631 -532 676 -440 676 -309 L676 -173 L537 -173 L537 -309 C537 -361 518 -380 490 -380 C451 -380 440 -336 440 -237 L326 -237 C326 -336 315 -380 276 -380 C248 -380 229 -361 229 -309 L229 -173 L90 -173 L90 -309 C90 -440 135 -532 256 -532 C311 -532 368 -494 383 -438 L383 -438 Z " />
<glyph glyph-name="uni032C" unicode="&#x32c;" horiz-adv-x="836" d="M256 -233 L90 -233 L360 -532 L476 -532 L746 -233 L580 -233 L418 -379 L256 -233 Z " />
<glyph glyph-name="uni032D" unicode="&#x32d;" horiz-adv-x="836" d="M418 -386 L580 -532 L746 -532 L476 -233 L360 -233 L90 -532 L256 -532 L418 -386 Z " />
<glyph glyph-name="uni032E" unicode="&#x32e;" horiz-adv-x="860" d="M430 -532 C657 -532 745 -388 770 -286 L641 -286 C597 -372 536 -410 430 -410 C324 -410 262 -372 219 -286 L90 -286 C115 -388 203 -532 430 -532 L430 -532 Z " />
<glyph glyph-name="uni032F" unicode="&#x32f;" horiz-adv-x="860" d="M430 -286 C203 -286 115 -430 90 -532 L219 -532 C262 -446 324 -408 430 -408 C536 -408 597 -446 641 -532 L770 -532 C745 -430 657 -286 430 -286 L430 -286 Z " />
<glyph glyph-name="uni0330" unicode="&#x330;" horiz-adv-x="865" d="M394 -468 C438 -503 478 -532 539 -532 C783 -532 774 -303 774 -303 L599 -303 C599 -303 601 -381 544 -381 C517 -381 489 -358 471 -345 C427 -310 387 -281 326 -281 C82 -281 91 -510 91 -510 L266 -510 C266 -510 264 -432 321 -432 C348 -432 376 -455 394 -468 L394 -468 Z " />
<glyph glyph-name="uni0331" unicode="&#x331;" horiz-adv-x="889" d="M90 -533 L799 -533 L799 -378 L90 -378 L90 -533 Z " />
<glyph glyph-name="uni0332" unicode="&#x332;" horiz-adv-x="1177" d="M110 -264 L1067 -264 L1067 -109 L110 -109 L110 -264 Z " />
<glyph glyph-name="uni0333" unicode="&#x333;" horiz-adv-x="1177" d="M110 -264 L1067 -264 L1067 -109 L110 -109 L110 -264 Z M110 -495 L1067 -495 L1067 -340 L110 -340 L110 -495 Z " />
<glyph glyph-name="uni0334" unicode="&#x334;" horiz-adv-x="865" d="M394 599 C438 564 478 535 539 535 C783 535 774 764 774 764 L599 764 C599 764 601 686 544 686 C517 686 489 709 471 722 C427 757 387 786 326 786 C82 786 91 557 91 557 L266 557 C266 557 264 635 321 635 C348 635 376 612 394 599 L394 599 Z " />
<glyph glyph-name="uni0335" unicode="&#x335;" horiz-adv-x="777" d="M687 702 L90 702 L90 547 L687 547 L687 702 Z " />
<glyph glyph-name="uni0336" unicode="&#x336;" horiz-adv-x="960" d="M870 702 L90 702 L90 547 L870 547 L870 702 Z " />
<glyph glyph-name="uni0337" unicode="&#x337;" horiz-adv-x="1168" d="M852 1014 L90 0 L316 0 L1078 1014 L852 1014 Z " />
<glyph glyph-name="uni0338" unicode="&#x338;" horiz-adv-x="1299" d="M90 0 L306 0 L1209 1434 L995 1434 L90 0 Z " />
<glyph glyph-name="uni0339" unicode="&#x339;" horiz-adv-x="493" d="M214 -392 C214 -468 175 -526 90 -526 L90 -691 C278 -691 403 -562 403 -392 C403 -222 278 -93 90 -93 L90 -258 C175 -258 214 -316 214 -392 L214 -392 Z " />
<glyph glyph-name="uni033A" unicode="&#x33a;" horiz-adv-x="875" d="M90 -532 L785 -532 L785 -251 L606 -251 L606 -377 L269 -377 L269 -251 L90 -251 L90 -532 Z " />
<glyph glyph-name="uni033B" unicode="&#x33b;" horiz-adv-x="549" d="M90 -532 L459 -532 L459 -164 L90 -164 L90 -532 Z M214 -287 L335 -287 L335 -408 L214 -408 L214 -287 Z " />
<glyph glyph-name="uni033C" unicode="&#x33c;" horiz-adv-x="766" d="M383 -331 C368 -275 311 -237 256 -237 C135 -237 90 -329 90 -460 L90 -496 L229 -496 L229 -460 C229 -408 248 -389 276 -389 C315 -389 326 -433 326 -532 L440 -532 C440 -433 451 -389 490 -389 C518 -389 537 -408 537 -460 L537 -496 L676 -496 L676 -460 C676 -329 631 -237 510 -237 C455 -237 398 -275 383 -331 L383 -331 Z " />
<glyph glyph-name="uni033D" unicode="&#x33d;" horiz-adv-x="835" d="M520 1232 L745 1434 L540 1434 L417 1324 L295 1434 L90 1434 L315 1232 L90 1031 L295 1031 L417 1140 L540 1031 L745 1031 L520 1232 Z " />
<glyph glyph-name="uni033E" unicode="&#x33e;" horiz-adv-x="431" d="M277 1292 C312 1336 341 1376 341 1437 C341 1671 112 1672 112 1672 L112 1497 C112 1497 190 1499 190 1442 C190 1415 167 1387 154 1369 C119 1325 90 1285 90 1224 C90 990 319 989 319 989 L319 1164 C319 1164 241 1162 241 1219 C241 1246 264 1274 277 1292 L277 1292 Z " />
<glyph glyph-name="uni033F" unicode="&#x33f;" horiz-adv-x="1177" d="M110 1747 L1067 1747 L1067 1902 L110 1902 L110 1747 Z M110 1516 L1067 1516 L1067 1671 L110 1671 L110 1516 Z " />
<glyph glyph-name="uni0340" unicode="&#x340;" horiz-adv-x="675" d="M322 1434 L90 1434 L395 1135 L585 1135 L322 1434 Z " />
<glyph glyph-name="uni0341" unicode="&#x341;" horiz-adv-x="675" d="M90 1135 L280 1135 L585 1434 L353 1434 L90 1135 Z " />
<glyph glyph-name="uni0342" unicode="&#x342;" horiz-adv-x="865" d="M394 1247 C438 1212 478 1183 539 1183 C783 1183 774 1412 774 1412 L599 1412 C599 1412 601 1334 544 1334 C517 1334 489 1357 471 1370 C427 1405 387 1434 326 1434 C82 1434 91 1205 91 1205 L266 1205 C266 1205 264 1283 321 1283 C348 1283 376 1260 394 1247 L394 1247 Z " />
<glyph glyph-name="uni0343" unicode="&#x343;" horiz-adv-x="552" d="M90 998 L273 998 L462 1434 L244 1434 L90 998 Z " />
<glyph glyph-name="uni0344" unicode="&#x344;" horiz-adv-x="836" d="M323 1494 L496 1494 L645 1870 L427 1870 L323 1494 Z M90 1312 C90 1245 144 1191 211 1191 C278 1191 333 1245 333 1312 C333 1379 278 1434 211 1434 C144 1434 90 1379 90 1312 L90 1312 Z M503 1312 C503 1245 557 1191 624 1191 C691 1191 746 1245 746 1312 C746 1379 691 1434 624 1434 C557 1434 503 1379 503 1312 L503 1312 Z " />
<glyph glyph-name="uni0345" unicode="&#x345;" horiz-adv-x="631" d="M90 45 L90 -118 C90 -306 176 -385 329 -385 C422 -385 488 -346 541 -292 L458 -177 C418 -214 381 -230 340 -230 C283 -230 267 -185 267 -118 L267 45 L90 45 Z " />
<glyph glyph-name="uni0346" unicode="&#x346;" horiz-adv-x="875" d="M90 1153 L269 1153 L269 1279 L606 1279 L606 1153 L785 1153 L785 1434 L90 1434 L90 1153 Z " />
<glyph glyph-name="uni0347" unicode="&#x347;" horiz-adv-x="584" d="M494 167 L90 167 L90 40 L494 40 L494 167 Z M494 -40 L90 -40 L90 -167 L494 -167 L494 -40 Z " />
<glyph glyph-name="uni0348" unicode="&#x348;" horiz-adv-x="658" d="M90 -532 L279 -532 L279 -130 L90 -130 L90 -532 Z M379 -532 L568 -532 L568 -130 L379 -130 L379 -532 Z " />
<glyph glyph-name="uni0349" unicode="&#x349;" horiz-adv-x="539" d="M90 -234 L90 -389 L285 -389 L285 -532 L449 -532 L449 -234 L90 -234 Z " />
<glyph glyph-name="uni034A" unicode="&#x34a;" horiz-adv-x="865" d="M503 1516 L426 1403 C397 1421 366 1434 326 1434 C82 1434 91 1205 91 1205 L266 1205 C266 1205 264 1283 321 1283 C328 1283 335 1281 342 1279 L208 1082 L350 1082 L439 1213 C468 1195 499 1183 539 1183 C783 1183 774 1412 774 1412 L599 1412 C599 1412 601 1334 544 1334 C537 1334 530 1335 524 1337 L645 1516 L503 1516 Z " />
<glyph glyph-name="uni034B" unicode="&#x34b;" horiz-adv-x="865" d="M236 1063 C236 996 290 942 357 942 C424 942 479 996 479 1063 C479 1130 424 1185 357 1185 C290 1185 236 1130 236 1063 L236 1063 Z M394 1247 C438 1212 478 1183 539 1183 C783 1183 774 1412 774 1412 L599 1412 C599 1412 601 1334 544 1334 C517 1334 489 1357 471 1370 C427 1405 387 1434 326 1434 C82 1434 91 1205 91 1205 L266 1205 C266 1205 264 1283 321 1283 C348 1283 376 1260 394 1247 L394 1247 Z M387 1553 C387 1486 441 1432 508 1432 C575 1432 630 1486 630 1553 C630 1620 575 1675 508 1675 C441 1675 387 1620 387 1553 L387 1553 Z " />
<glyph glyph-name="uni034C" unicode="&#x34c;" horiz-adv-x="927" d="M504 1353 C455 1389 382 1434 294 1434 C206 1434 137 1381 90 1325 L90 1130 C179 1250 242 1260 294 1260 C340 1260 387 1228 422 1203 C471 1166 544 1122 633 1122 C721 1122 790 1175 837 1231 L837 1426 C748 1306 685 1296 633 1296 C587 1296 540 1328 504 1353 L504 1353 Z M504 1034 C455 1070 382 1115 294 1115 C206 1115 137 1062 90 1006 L90 811 C179 931 242 941 294 941 C340 941 387 909 422 884 C471 847 544 803 633 803 C721 803 790 856 837 912 L837 1107 C748 987 685 977 633 977 C587 977 540 1009 504 1034 L504 1034 Z " />
<glyph glyph-name="uni034D" unicode="&#x34d;" horiz-adv-x="2124" d="M1488 -471 L1488 -675 L2034 -256 L1488 163 L1488 -41 L1690 -173 L434 -173 L636 -41 L636 163 L90 -256 L636 -675 L636 -471 L434 -339 L1690 -339 L1488 -471 Z " />
<glyph glyph-name="uni034E" unicode="&#x34e;" horiz-adv-x="1018" d="M592 -532 L592 -185 L724 -387 L928 -387 L509 159 L90 -387 L294 -387 L426 -185 L426 -532 L592 -532 Z " />
<glyph glyph-name="tonos" unicode="&#x384;" horiz-adv-x="502" d="M90 1058 L263 1058 L412 1434 L194 1434 L90 1058 Z " />
<glyph glyph-name="dieresistonos" unicode="&#x385;" horiz-adv-x="876" d="M343 1494 L516 1494 L665 1870 L447 1870 L343 1494 Z M110 1312 C110 1245 164 1191 231 1191 C298 1191 353 1245 353 1312 C353 1379 298 1434 231 1434 C164 1434 110 1379 110 1312 L110 1312 Z M523 1312 C523 1245 577 1191 644 1191 C711 1191 766 1245 766 1312 C766 1379 711 1434 644 1434 C577 1434 523 1379 523 1312 L523 1312 Z " />
<glyph glyph-name="Alphatonos" unicode="&#x386;" horiz-adv-x="1664" d="M168 1058 L341 1058 L490 1434 L272 1434 L168 1058 Z M1250 166 L1097 166 L1097 0 L1614 0 L1614 166 L1460 166 L918 1434 L516 1434 L516 1268 L675 1268 L204 166 L50 166 L50 0 L567 0 L567 166 L413 166 L527 439 L1136 439 L1250 166 Z M832 1168 L1067 605 L596 605 L832 1168 Z " />
<glyph glyph-name="Epsilontonos" unicode="&#x388;" horiz-adv-x="1728" d="M110 1058 L283 1058 L432 1434 L214 1434 L110 1058 Z M472 0 L1618 0 L1618 339 L1419 339 L1419 166 L830 166 L830 649 L1412 649 L1412 815 L830 815 L830 1268 L1409 1268 L1409 1095 L1608 1095 L1608 1434 L472 1434 L472 1268 L631 1268 L631 166 L472 166 L472 0 Z " />
<glyph glyph-name="Etatonos" unicode="&#x389;" horiz-adv-x="1991" d="M40 1058 L213 1058 L362 1434 L144 1434 L40 1058 Z M1523 816 L760 816 L760 1268 L919 1268 L919 1434 L402 1434 L402 1268 L561 1268 L561 166 L402 166 L402 0 L919 0 L919 166 L760 166 L760 650 L1523 650 L1523 166 L1364 166 L1364 0 L1881 0 L1881 166 L1722 166 L1722 1268 L1881 1268 L1881 1434 L1364 1434 L1364 1268 L1523 1268 L1523 816 Z " />
<glyph glyph-name="Iotatonos" unicode="&#x38a;" horiz-adv-x="1029" d="M40 1058 L213 1058 L362 1434 L144 1434 L40 1058 Z M760 1268 L919 1268 L919 1434 L402 1434 L402 1268 L561 1268 L561 166 L402 166 L402 0 L919 0 L919 166 L760 166 L760 1268 Z " />
<glyph glyph-name="Omicrontonos" unicode="&#x38c;" horiz-adv-x="1828" d="M999 -20 C1470 -20 1738 295 1738 717 C1738 1139 1470 1454 999 1454 C528 1454 260 1139 260 717 C260 295 528 -20 999 -20 L999 -20 Z M999 146 C651 146 473 397 473 717 C473 1037 651 1288 999 1288 C1347 1288 1525 1037 1525 717 C1525 397 1347 146 999 146 L999 146 Z M90 1058 L263 1058 L412 1434 L194 1434 L90 1058 Z " />
<glyph glyph-name="Upsilontonos" unicode="&#x38e;" horiz-adv-x="1832" d="M50 1058 L223 1058 L372 1434 L154 1434 L50 1058 Z M990 594 L990 166 L831 166 L831 0 L1348 0 L1348 166 L1189 166 L1189 594 L1638 1268 L1782 1268 L1782 1434 L1265 1434 L1265 1268 L1407 1268 L1089 780 L771 1268 L914 1268 L914 1434 L397 1434 L397 1268 L540 1268 L990 594 Z " />
<glyph glyph-name="Omegatonos" unicode="&#x38f;" horiz-adv-x="1792" d="M90 1058 L263 1058 L412 1434 L194 1434 L90 1058 Z M985 1454 C542 1454 268 1181 268 795 C268 506 481 263 717 166 L467 166 L467 279 L268 279 L268 0 L916 0 L916 169 C706 273 467 453 467 795 C467 1074 639 1288 985 1288 C1331 1288 1503 1074 1503 795 C1503 453 1264 273 1054 169 L1054 0 L1702 0 L1702 279 L1503 279 L1503 166 L1253 166 C1489 263 1702 506 1702 795 C1702 1181 1428 1454 985 1454 L985 1454 Z " />
<glyph glyph-name="iotadieresistonos" unicode="&#x390;" horiz-adv-x="756" d="M283 1494 L456 1494 L605 1870 L387 1870 L283 1494 Z M50 1312 C50 1245 104 1191 171 1191 C238 1191 293 1245 293 1312 C293 1379 238 1434 171 1434 C104 1434 50 1379 50 1312 L50 1312 Z M463 1312 C463 1245 517 1191 584 1191 C651 1191 706 1245 706 1312 C706 1379 651 1434 584 1434 C517 1434 463 1379 463 1312 L463 1312 Z M284 281 C284 145 304 0 528 0 L584 0 L584 155 L548 155 C475 155 473 215 473 281 L473 1014 L125 1014 L125 859 L284 859 L284 281 Z " />
<glyph glyph-name="Alpha" unicode="&#x391;" horiz-adv-x="1664" d="M1250 166 L1097 166 L1097 0 L1614 0 L1614 166 L1460 166 L918 1434 L516 1434 L516 1268 L675 1268 L204 166 L50 166 L50 0 L567 0 L567 166 L413 166 L527 439 L1136 439 L1250 166 Z M832 1168 L1067 605 L596 605 L832 1168 Z " />
<glyph glyph-name="Beta" unicode="&#x392;" horiz-adv-x="1526" d="M913 0 C1319 0 1436 211 1436 407 C1436 543 1370 693 1185 747 C1333 807 1380 928 1380 1041 C1380 1221 1278 1434 893 1434 L110 1434 L110 1268 L269 1268 L269 166 L110 166 L110 0 L913 0 Z M913 648 C1169 648 1225 529 1225 407 C1225 285 1169 166 913 166 L468 166 L468 648 L913 648 Z M468 814 L468 1268 L893 1268 C1114 1268 1169 1160 1169 1041 C1169 922 1114 814 893 814 L468 814 Z " />
<glyph glyph-name="Gamma" unicode="&#x393;" horiz-adv-x="1388" d="M110 1434 L110 1268 L269 1268 L269 166 L110 166 L110 0 L627 0 L627 166 L468 166 L468 1268 L1079 1268 L1079 1095 L1278 1095 L1278 1434 L110 1434 Z " />
<glyph glyph-name="uni0394" unicode="&#x394;" horiz-adv-x="1664" d="M1614 0 L1614 166 L1460 166 L918 1434 L516 1434 L516 1268 L675 1268 L204 166 L50 166 L50 0 L1614 0 Z M832 1168 L1250 166 L413 166 L832 1168 Z " />
<glyph glyph-name="Epsilon" unicode="&#x395;" horiz-adv-x="1366" d="M110 0 L1256 0 L1256 339 L1057 339 L1057 166 L468 166 L468 649 L1050 649 L1050 815 L468 815 L468 1268 L1047 1268 L1047 1095 L1246 1095 L1246 1434 L110 1434 L110 1268 L269 1268 L269 166 L110 166 L110 0 Z " />
<glyph glyph-name="Zeta" unicode="&#x396;" horiz-adv-x="1344" d="M1234 1434 L135 1434 L135 1095 L334 1095 L334 1268 L950 1268 L110 97 L110 0 L1234 0 L1234 339 L1035 339 L1035 166 L395 166 L1234 1337 L1234 1434 Z " />
<glyph glyph-name="Eta" unicode="&#x397;" horiz-adv-x="1699" d="M1231 816 L468 816 L468 1268 L627 1268 L627 1434 L110 1434 L110 1268 L269 1268 L269 166 L110 166 L110 0 L627 0 L627 166 L468 166 L468 650 L1231 650 L1231 166 L1072 166 L1072 0 L1589 0 L1589 166 L1430 166 L1430 1268 L1589 1268 L1589 1434 L1072 1434 L1072 1268 L1231 1268 L1231 816 Z " />
<glyph glyph-name="Theta" unicode="&#x398;" horiz-adv-x="1658" d="M490 634 L1168 634 L1168 800 L490 800 L490 634 Z M829 -20 C1300 -20 1568 295 1568 717 C1568 1139 1300 1454 829 1454 C358 1454 90 1139 90 717 C90 295 358 -20 829 -20 L829 -20 Z M829 146 C481 146 303 397 303 717 C303 1037 481 1288 829 1288 C1177 1288 1355 1037 1355 717 C1355 397 1177 146 829 146 L829 146 Z " />
<glyph glyph-name="Iota" unicode="&#x399;" horiz-adv-x="677" d="M438 1268 L597 1268 L597 1434 L80 1434 L80 1268 L239 1268 L239 166 L80 166 L80 0 L597 0 L597 166 L438 166 L438 1268 Z " />
<glyph glyph-name="Kappa" unicode="&#x39a;" horiz-adv-x="1519" d="M468 1268 L627 1268 L627 1434 L110 1434 L110 1268 L269 1268 L269 166 L110 166 L110 0 L627 0 L627 166 L468 166 L468 487 L670 682 L1136 0 L1409 0 L1409 166 L1250 166 L806 813 L1278 1268 L1409 1268 L1409 1434 L892 1434 L892 1268 L1021 1268 L468 731 L468 1268 Z " />
<glyph glyph-name="Lambda" unicode="&#x39b;" horiz-adv-x="1664" d="M832 1168 L1250 166 L1097 166 L1097 0 L1614 0 L1614 166 L1460 166 L918 1434 L516 1434 L516 1268 L675 1268 L204 166 L50 166 L50 0 L567 0 L567 166 L413 166 L832 1168 Z " />
<glyph glyph-name="Mu" unicode="&#x39c;" horiz-adv-x="2040" d="M1572 166 L1413 166 L1413 0 L1930 0 L1930 166 L1771 166 L1771 1268 L1930 1268 L1930 1434 L1519 1434 L1020 285 L521 1434 L110 1434 L110 1268 L269 1268 L269 166 L110 166 L110 0 L627 0 L627 166 L468 166 L468 1069 L934 0 L1106 0 L1572 1069 L1572 166 Z " />
<glyph glyph-name="Nu" unicode="&#x39d;" horiz-adv-x="1726" d="M110 0 L627 0 L627 166 L468 166 L468 1132 L1230 0 L1457 0 L1457 1268 L1616 1268 L1616 1434 L1099 1434 L1099 1268 L1258 1268 L1258 302 L496 1434 L110 1434 L110 1268 L269 1268 L269 166 L110 166 L110 0 Z " />
<glyph glyph-name="Xi" unicode="&#x39e;" horiz-adv-x="1176" d="M90 1268 L1086 1268 L1086 1434 L90 1434 L90 1268 Z M90 0 L1086 0 L1086 166 L90 166 L90 0 Z M201 649 L976 649 L976 815 L201 815 L201 649 Z " />
<glyph glyph-name="Omicron" unicode="&#x39f;" horiz-adv-x="1658" d="M829 -20 C1300 -20 1568 295 1568 717 C1568 1139 1300 1454 829 1454 C358 1454 90 1139 90 717 C90 295 358 -20 829 -20 L829 -20 Z M829 146 C481 146 303 397 303 717 C303 1037 481 1288 829 1288 C1177 1288 1355 1037 1355 717 C1355 397 1177 146 829 146 L829 146 Z " />
<glyph glyph-name="Pi" unicode="&#x3a0;" horiz-adv-x="1703" d="M1235 1268 L1235 166 L1076 166 L1076 0 L1593 0 L1593 166 L1434 166 L1434 1268 L1593 1268 L1593 1434 L110 1434 L110 1268 L269 1268 L269 166 L110 166 L110 0 L627 0 L627 166 L468 166 L468 1268 L1235 1268 Z " />
<glyph glyph-name="Rho" unicode="&#x3a1;" horiz-adv-x="1473" d="M627 0 L627 166 L468 166 L468 526 L878 526 C1215 526 1383 698 1383 980 C1383 1264 1215 1434 878 1434 L110 1434 L110 1268 L269 1268 L269 166 L110 166 L110 0 L627 0 Z M468 1268 L878 1268 C1103 1268 1174 1140 1174 980 C1174 820 1103 692 878 692 L468 692 L468 1268 Z " />
<glyph glyph-name="Sigma" unicode="&#x3a3;" horiz-adv-x="1278" d="M110 0 L1168 0 L1168 339 L969 339 L969 166 L393 166 L785 717 L394 1268 L969 1268 L969 1095 L1168 1095 L1168 1434 L119 1434 L119 1338 L561 718 L110 97 L110 0 Z " />
<glyph glyph-name="Tau" unicode="&#x3a4;" horiz-adv-x="1487" d="M843 1268 L1178 1268 L1178 1095 L1377 1095 L1377 1434 L110 1434 L110 1095 L309 1095 L309 1268 L644 1268 L644 166 L485 166 L485 0 L1002 0 L1002 166 L843 166 L843 1268 Z " />
<glyph glyph-name="Upsilon" unicode="&#x3a5;" horiz-adv-x="1485" d="M643 594 L643 166 L484 166 L484 0 L1001 0 L1001 166 L842 166 L842 594 L1291 1268 L1435 1268 L1435 1434 L918 1434 L918 1268 L1060 1268 L742 780 L424 1268 L567 1268 L567 1434 L50 1434 L50 1268 L193 1268 L643 594 Z " />
<glyph glyph-name="Phi" unicode="&#x3a6;" horiz-adv-x="1525" d="M862 236 C1212 254 1435 411 1435 717 C1435 1023 1212 1179 862 1198 L862 1268 L1021 1268 L1021 1434 L504 1434 L504 1268 L663 1268 L663 1198 C313 1179 90 1023 90 717 C90 411 313 254 663 236 L663 166 L504 166 L504 0 L1021 0 L1021 166 L862 166 L862 236 Z M303 717 C303 921 432 1006 663 1020 L663 414 C432 428 303 513 303 717 L303 717 Z M1222 717 C1222 513 1093 428 862 414 L862 1020 C1093 1006 1222 921 1222 717 L1222 717 Z " />
<glyph glyph-name="Chi" unicode="&#x3a7;" horiz-adv-x="1494" d="M351 1434 L79 1434 L79 1268 L237 1268 L616 748 L191 166 L50 166 L50 0 L567 0 L567 166 L425 166 L738 594 L1173 0 L1444 0 L1444 166 L1285 166 L860 748 L1239 1268 L1381 1268 L1381 1434 L864 1434 L864 1268 L1005 1268 L738 902 L351 1434 Z " />
<glyph glyph-name="Psi" unicode="&#x3a8;" horiz-adv-x="1669" d="M934 648 L934 1268 L1093 1268 L1093 1434 L576 1434 L576 1268 L735 1268 L735 648 C483 668 388 957 388 1434 L50 1434 L50 1268 L194 1268 C229 705 452 506 735 482 L735 166 L576 166 L576 0 L1093 0 L1093 166 L934 166 L934 482 C1217 506 1439 705 1475 1268 L1619 1268 L1619 1434 L1281 1434 C1281 957 1186 668 934 648 L934 648 Z " />
<glyph glyph-name="uni03A9" unicode="&#x3a9;" horiz-adv-x="1614" d="M807 1454 C364 1454 90 1181 90 795 C90 506 303 263 539 166 L289 166 L289 279 L90 279 L90 0 L738 0 L738 169 C528 273 289 453 289 795 C289 1074 461 1288 807 1288 C1153 1288 1325 1074 1325 795 C1325 453 1086 273 876 169 L876 0 L1524 0 L1524 279 L1325 279 L1325 166 L1075 166 C1311 263 1524 506 1524 795 C1524 1181 1250 1454 807 1454 L807 1454 Z " />
<glyph glyph-name="Iotadieresis" unicode="&#x3aa;" horiz-adv-x="796" d="M70 1657 C70 1590 124 1536 191 1536 C258 1536 313 1590 313 1657 C313 1724 258 1779 191 1779 C124 1779 70 1724 70 1657 L70 1657 Z M483 1657 C483 1590 537 1536 604 1536 C671 1536 726 1590 726 1657 C726 1724 671 1779 604 1779 C537 1779 483 1724 483 1657 L483 1657 Z M498 1268 L657 1268 L657 1434 L140 1434 L140 1268 L299 1268 L299 166 L140 166 L140 0 L657 0 L657 166 L498 166 L498 1268 Z " />
<glyph glyph-name="Upsilondieresis" unicode="&#x3ab;" horiz-adv-x="1485" d="M414 1657 C414 1590 468 1536 535 1536 C602 1536 657 1590 657 1657 C657 1724 602 1779 535 1779 C468 1779 414 1724 414 1657 L414 1657 Z M827 1657 C827 1590 881 1536 948 1536 C1015 1536 1070 1590 1070 1657 C1070 1724 1015 1779 948 1779 C881 1779 827 1724 827 1657 L827 1657 Z M643 594 L643 166 L484 166 L484 0 L1001 0 L1001 166 L842 166 L842 594 L1291 1268 L1435 1268 L1435 1434 L918 1434 L918 1268 L1060 1268 L742 780 L424 1268 L567 1268 L567 1434 L50 1434 L50 1268 L193 1268 L643 594 Z " />
<glyph glyph-name="alphatonos" unicode="&#x3ac;" horiz-adv-x="1390" d="M70 507 C70 216 256 -20 573 -20 C709 -20 896 18 989 223 C1024 95 1098 0 1098 0 L1320 0 C1320 0 1132 222 1132 507 C1132 792 1320 1014 1320 1014 L1098 1014 C1098 1014 1024 919 989 791 C896 996 709 1034 573 1034 C256 1034 70 798 70 507 L70 507 Z M263 507 C263 687 366 879 603 879 C840 879 943 687 943 507 C943 327 840 135 603 135 C366 135 263 327 263 507 L263 507 Z M500 1140 L673 1140 L822 1516 L604 1516 L500 1140 Z " />
</font>
</svg>
