<?xml version="1.0" encoding="UTF-8"?>
<svg xmlns="http://www.w3.org/2000/svg" xmlns:xlink="http://www.w3.org/1999/xlink" version="1.2" >
<font id="Artegra Slab SemiBold">
<font-face  font-family="Artegra Slab" units-per-em="2048" ascent="1516" descent="-532" font-style="normal" font-weight="600" font-stretch="normal" cap-height="1434" x-height="1022" underline-position="-154" underline-thickness="102" />
<missing-glyph  horiz-adv-x="922" d="" />
<glyph glyph-name="NULL" d="" />
<glyph glyph-name="CR" unicode="&#xd;" horiz-adv-x="922" d="" />
<glyph glyph-name="space" unicode="&#x20;" horiz-adv-x="573" d="" />
<glyph glyph-name="exclam" unicode="&#x21;" horiz-adv-x="577" d="M173 402 L403 402 L423 1434 L153 1434 L173 402 Z M140 138 C140 56 206 -10 288 -10 C370 -10 437 56 437 138 C437 220 370 287 288 287 C206 287 140 220 140 138 L140 138 Z " />
<glyph glyph-name="quotedbl" unicode="&#x22;" horiz-adv-x="662" d="M50 932 L272 932 L289 1434 L30 1434 L50 932 Z M392 932 L614 932 L632 1434 L374 1434 L392 932 Z " />
<glyph glyph-name="numbersign" unicode="&#x23;" horiz-adv-x="1432" d="M887 1072 L659 1072 L717 1434 L459 1434 L401 1072 L157 1072 L157 846 L365 846 L323 588 L80 588 L80 362 L287 362 L229 0 L487 0 L545 362 L773 362 L715 0 L972 0 L1030 362 L1274 362 L1274 588 L1066 588 L1108 846 L1352 846 L1352 1072 L1144 1072 L1202 1434 L945 1434 L887 1072 Z M623 846 L851 846 L809 588 L581 588 L623 846 Z " />
<glyph glyph-name="dollar" unicode="&#x24;" horiz-adv-x="1372" d="M390 398 L120 398 L120 124 C120 124 270 4 573 -24 L573 -248 L805 -248 L805 -25 C1068 0 1252 126 1252 392 C1252 641 1072 780 709 856 C503 900 404 953 404 1071 C404 1188 505 1238 667 1238 C802 1238 911 1213 911 1213 L911 1053 L1181 1053 L1181 1374 C1181 1374 1027 1437 805 1457 L805 1682 L573 1682 L573 1459 C265 1431 132 1264 132 1071 C132 858 281 700 660 621 C890 573 980 501 980 392 C980 249 888 196 701 196 C508 196 390 250 390 250 L390 398 Z " />
<glyph glyph-name="ampersand" unicode="&#x26;" horiz-adv-x="1562" d="M992 764 C970 602 936 518 908 470 C844 528 759 603 703 669 C888 769 1020 903 1020 1092 C1020 1290 906 1464 633 1464 C377 1464 230 1303 230 1072 C230 917 285 811 351 734 C171 632 80 500 80 340 C80 81 296 -30 544 -30 C762 -30 861 25 963 108 C963 108 1096 0 1350 0 L1482 0 L1482 226 L1350 226 C1202 226 1114 298 1114 298 C1149 348 1190 432 1213 538 L1408 538 L1408 764 L992 764 Z M350 340 C350 408 395 481 492 534 C568 443 679 343 758 272 C714 235 654 196 541 196 C435 196 350 246 350 340 L350 340 Z M749 1092 C749 999 685 920 569 860 C530 902 499 984 499 1072 C499 1162 544 1239 633 1239 C726 1239 749 1168 749 1092 L749 1092 Z " />
<glyph glyph-name="quotesingle" unicode="&#x27;" horiz-adv-x="319" d="M50 932 L272 932 L289 1434 L30 1434 L50 932 Z " />
<glyph glyph-name="parenleft" unicode="&#x28;" horiz-adv-x="840" d="M370 580 C370 1172 780 1279 780 1279 L700 1517 C700 1517 100 1366 100 580 C100 -206 700 -357 700 -357 L780 -119 C780 -119 370 -12 370 580 L370 580 Z " />
<glyph glyph-name="parenright" unicode="&#x29;" horiz-adv-x="840" d="M470 580 C470 -12 60 -119 60 -119 L140 -357 C140 -357 740 -206 740 580 C740 1366 140 1517 140 1517 L60 1279 C60 1279 470 1172 470 580 L470 580 Z " />
<glyph glyph-name="asterisk" unicode="&#x2a;" horiz-adv-x="960" d="M613 636 L807 794 L641 975 L900 1050 L819 1288 L594 1182 L614 1434 L346 1434 L366 1182 L141 1288 L60 1050 L319 975 L153 794 L347 636 L480 848 L613 636 Z " />
<glyph glyph-name="plus" unicode="&#x2b;" horiz-adv-x="1111" d="M1031 794 L673 794 L673 1155 L438 1155 L438 794 L80 794 L80 566 L438 566 L438 205 L673 205 L673 566 L1031 566 L1031 794 Z " />
<glyph glyph-name="comma" unicode="&#x2c;" horiz-adv-x="600" d="M60 -258 L291 -258 L520 244 L251 244 L60 -258 Z " />
<glyph glyph-name="hyphen" unicode="&#x2d;" horiz-adv-x="846" d="M80 469 L766 469 L766 678 L80 678 L80 469 Z " />
<glyph glyph-name="period" unicode="&#x2e;" horiz-adv-x="457" d="M80 138 C80 56 146 -10 228 -10 C310 -10 377 56 377 138 C377 220 310 287 228 287 C146 287 80 220 80 138 L80 138 Z " />
<glyph glyph-name="slash" unicode="&#x2f;" horiz-adv-x="1135" d="M100 0 L376 0 L1035 1434 L760 1434 L100 0 Z " />
<glyph glyph-name="zero" unicode="0" horiz-adv-x="1366" d="M683 1464 C279 1464 80 1157 80 717 C80 277 279 -30 683 -30 C1087 -30 1286 277 1286 717 C1286 1157 1087 1464 683 1464 L683 1464 Z M683 1238 C934 1238 1016 1003 1016 717 C1016 431 934 196 683 196 C432 196 350 431 350 717 C350 1003 432 1238 683 1238 L683 1238 Z " />
<glyph glyph-name="one" unicode="1" horiz-adv-x="886" d="M376 1018 L376 226 L216 226 L216 0 L806 0 L806 226 L646 226 L646 1434 L444 1434 L30 1062 L207 868 L376 1018 Z " />
<glyph glyph-name="two" unicode="2" horiz-adv-x="1216" d="M104 0 L1116 0 L1116 381 L846 381 L846 226 L517 226 C517 226 854 580 897 625 C1021 754 1108 884 1108 1050 C1108 1310 914 1464 614 1464 C292 1464 147 1246 100 1101 L337 1018 C363 1076 436 1238 614 1238 C763 1238 839 1164 839 1050 C839 964 799 891 714 802 C661 746 104 162 104 162 L104 0 Z " />
<glyph glyph-name="three" unicode="3" horiz-adv-x="1247" d="M100 1179 L100 1017 L370 1017 L370 1142 L369 1142 C406 1186 472 1238 599 1238 C789 1238 857 1167 857 1063 C857 911 724 846 477 846 L477 619 C773 619 897 556 897 402 C897 286 822 196 599 196 C468 196 390 238 350 292 L350 417 L80 417 L80 245 C134 106 285 -30 599 -30 C944 -30 1167 115 1167 402 C1167 611 1024 712 877 745 C1045 802 1127 926 1127 1063 C1127 1331 919 1464 599 1464 C251 1464 126 1242 100 1179 L100 1179 Z " />
<glyph glyph-name="four" unicode="4" horiz-adv-x="1331" d="M1084 1434 L849 1434 L100 555 L100 365 L814 365 L814 226 L654 226 L654 0 L1244 0 L1244 226 L1084 226 L1084 365 L1251 365 L1251 591 L1084 591 L1084 1434 Z M450 591 L814 1018 L814 591 L450 591 Z " />
<glyph glyph-name="five" unicode="5" horiz-adv-x="1265" d="M1058 1434 L181 1434 L127 609 C127 609 353 715 620 715 C818 715 895 619 895 461 C895 306 808 196 620 196 C521 196 432 224 370 258 L370 385 L100 385 L100 159 C190 56 368 -30 620 -30 C1016 -30 1165 196 1165 461 C1165 740 1016 941 620 941 C532 941 454 932 413 921 L432 1208 L1058 1208 L1058 1434 Z " />
<glyph glyph-name="six" unicode="6" horiz-adv-x="1328" d="M1085 1401 C607 1574 16 1389 110 471 C149 186 303 -30 669 -30 C1046 -30 1228 204 1228 472 C1228 740 1046 976 669 976 C526 976 428 912 391 859 C412 1115 571 1249 815 1229 L815 1129 L1085 1129 L1085 1401 Z M958 472 C958 326 866 196 669 196 C471 196 380 326 380 472 C380 618 472 748 669 748 C866 748 958 618 958 472 L958 472 Z " />
<glyph glyph-name="seven" unicode="7" horiz-adv-x="1231" d="M826 1208 L422 226 L268 226 L268 0 L858 0 L858 226 L705 226 L1131 1262 L1131 1434 L100 1434 L100 1053 L370 1053 L370 1208 L826 1208 Z " />
<glyph glyph-name="eight" unicode="8" horiz-adv-x="1288" d="M644 1464 C309 1464 113 1298 113 1042 C113 896 189 801 295 748 C173 691 80 583 80 408 C80 94 325 -30 644 -30 C963 -30 1208 94 1208 408 C1208 583 1115 691 993 748 C1099 801 1175 896 1175 1042 C1175 1298 979 1464 644 1464 L644 1464 Z M938 408 C938 284 837 196 644 196 C451 196 350 284 350 408 C350 532 451 620 644 620 C837 620 938 532 938 408 L938 408 Z M644 1238 C805 1238 905 1164 905 1042 C905 920 805 846 644 846 C483 846 383 920 383 1042 C383 1164 483 1238 644 1238 L644 1238 Z " />
<glyph glyph-name="nine" unicode="9" horiz-adv-x="1328" d="M243 33 C721 -140 1312 45 1218 963 C1179 1248 1025 1464 659 1464 C282 1464 100 1230 100 962 C100 694 282 458 659 458 C802 458 900 522 937 575 C916 319 757 185 513 205 L513 305 L243 305 L243 33 Z M370 962 C370 1108 462 1238 659 1238 C857 1238 948 1108 948 962 C948 816 856 686 659 686 C462 686 370 816 370 962 L370 962 Z " />
<glyph glyph-name="colon" unicode="&#x3a;" horiz-adv-x="457" d="M80 138 C80 56 146 -10 228 -10 C310 -10 377 56 377 138 C377 220 310 287 228 287 C146 287 80 220 80 138 L80 138 Z M80 883 C80 801 146 735 228 735 C310 735 377 801 377 883 C377 965 310 1032 228 1032 C146 1032 80 965 80 883 L80 883 Z " />
<glyph glyph-name="semicolon" unicode="&#x3b;" horiz-adv-x="527" d="M150 883 C150 801 216 735 298 735 C380 735 447 801 447 883 C447 965 380 1032 298 1032 C216 1032 150 965 150 883 L150 883 Z M-20 -258 L211 -258 L440 244 L171 244 L-20 -258 Z " />
<glyph glyph-name="less" unicode="&#x3c;" horiz-adv-x="1109" d="M1009 949 L1009 1219 L80 743 L80 569 L1009 93 L1009 363 L434 656 L1009 949 Z " />
<glyph glyph-name="equal" unicode="&#x3d;" horiz-adv-x="970" d="M890 606 L80 606 L80 378 L890 378 L890 606 Z M890 971 L80 971 L80 743 L890 743 L890 971 Z " />
<glyph glyph-name="greater" unicode="&#x3e;" horiz-adv-x="1109" d="M675 656 L100 363 L100 93 L1029 569 L1029 743 L100 1219 L100 949 L675 656 Z " />
<glyph glyph-name="question" unicode="&#x3f;" horiz-adv-x="1119" d="M271 1071 C328 1162 418 1238 557 1238 C717 1238 789 1152 789 1058 C789 908 673 818 390 814 L390 402 L660 402 L660 659 C958 704 1059 863 1059 1058 C1059 1278 908 1464 557 1464 C279 1464 126 1321 60 1188 L271 1071 Z M376 138 C376 56 442 -10 524 -10 C606 -10 673 56 673 138 C673 220 606 287 524 287 C442 287 376 220 376 138 L376 138 Z " />
<glyph glyph-name="at" unicode="&#x40;" horiz-adv-x="1660" d="M1255 185 C1466 185 1580 321 1580 517 C1580 963 1235 1254 830 1254 C425 1254 80 963 80 517 C80 71 425 -220 830 -220 C1109 -220 1273 -154 1404 -40 L1275 93 C1165 6 1046 -44 830 -44 C531 -44 279 158 279 517 C279 876 531 1078 830 1078 C1128 1078 1381 876 1381 517 C1381 403 1326 351 1245 351 C1151 351 1123 436 1125 527 C1127 619 1135 727 1144 839 C1052 885 962 908 850 908 C734 908 484 844 447 527 C418 220 625 127 763 127 C905 127 1005 226 1030 329 C1050 256 1127 185 1255 185 L1255 185 Z M633 516 C655 715 800 781 973 728 C973 728 969 629 958 542 C937 364 875 293 785 293 C680 293 618 379 633 516 L633 516 Z " />
<glyph glyph-name="A" unicode="A" horiz-adv-x="1651" d="M1176 226 L1021 226 L1021 0 L1611 0 L1611 226 L1455 226 L936 1434 L460 1434 L460 1208 L620 1208 L196 226 L40 226 L40 0 L630 0 L630 226 L474 226 L553 414 L1097 414 L1176 226 Z M825 1063 L1002 641 L648 641 L825 1063 Z " />
<glyph glyph-name="B" unicode="B" horiz-adv-x="1551" d="M932 0 C1309 0 1471 182 1471 415 C1471 603 1358 710 1198 751 C1295 781 1426 877 1426 1059 C1426 1267 1298 1434 932 1434 L100 1434 L100 1208 L260 1208 L260 226 L100 226 L100 0 L932 0 Z M932 625 C1130 625 1200 549 1200 425 C1200 302 1140 226 932 226 L530 226 L530 625 L932 625 Z M530 852 L530 1208 L932 1208 C1080 1208 1155 1150 1155 1030 C1155 910 1080 852 932 852 L530 852 Z " />
<glyph glyph-name="C" unicode="C" horiz-adv-x="1476" d="M1106 1053 L1376 1053 L1376 1368 C1376 1368 1146 1464 842 1464 C350 1464 80 1149 80 717 C80 285 350 -30 842 -30 C1083 -30 1251 28 1376 136 L1247 314 C1152 250 1022 196 842 196 C511 196 354 417 354 717 C354 1017 511 1238 842 1238 C994 1238 1106 1207 1106 1207 L1106 1053 Z " />
<glyph glyph-name="D" unicode="D" horiz-adv-x="1592" d="M1532 717 C1532 1120 1307 1434 825 1434 L100 1434 L100 1208 L260 1208 L260 226 L100 226 L100 0 L825 0 C1307 0 1532 313 1532 717 L1532 717 Z M530 1208 L825 1208 C1135 1208 1259 975 1259 717 C1259 459 1135 226 825 226 L530 226 L530 1208 Z " />
<glyph glyph-name="E" unicode="E" horiz-adv-x="1467" d="M100 0 L1367 0 L1367 381 L1097 381 L1097 226 L530 226 L530 618 L1087 618 L1087 844 L530 844 L530 1208 L1087 1208 L1087 1053 L1357 1053 L1357 1434 L100 1434 L100 1208 L260 1208 L260 226 L100 226 L100 0 Z " />
<glyph glyph-name="F" unicode="F" horiz-adv-x="1417" d="M530 1208 L1047 1208 L1047 1053 L1317 1053 L1317 1434 L100 1434 L100 1208 L260 1208 L260 226 L100 226 L100 0 L690 0 L690 226 L530 226 L530 618 L1047 618 L1047 844 L530 844 L530 1208 Z " />
<glyph glyph-name="G" unicode="G" horiz-adv-x="1527" d="M1157 1053 L1427 1053 L1427 1354 C1427 1354 1198 1464 842 1464 C350 1464 80 1148 80 717 C80 285 350 -30 842 -30 C1032 -30 1278 4 1427 139 L1427 822 L862 822 L862 596 L1157 596 L1157 267 C1092 228 972 196 842 196 C511 196 354 417 354 717 C354 1017 511 1238 842 1238 C1028 1238 1157 1203 1157 1203 L1157 1053 Z " />
<glyph glyph-name="H" unicode="H" horiz-adv-x="1743" d="M530 1208 L690 1208 L690 1434 L100 1434 L100 1208 L260 1208 L260 226 L100 226 L100 0 L690 0 L690 226 L530 226 L530 618 L1213 618 L1213 226 L1053 226 L1053 0 L1643 0 L1643 226 L1483 226 L1483 1208 L1643 1208 L1643 1434 L1053 1434 L1053 1208 L1213 1208 L1213 844 L530 844 L530 1208 Z " />
<glyph glyph-name="I" unicode="I" horiz-adv-x="790" d="M530 1208 L690 1208 L690 1434 L100 1434 L100 1208 L260 1208 L260 226 L100 226 L100 0 L690 0 L690 226 L530 226 L530 1208 Z " />
<glyph glyph-name="J" unicode="J" horiz-adv-x="1299" d="M1039 454 L1039 1208 L1199 1208 L1199 1434 L609 1434 L609 1208 L769 1208 L769 454 C769 278 710 196 542 196 C399 196 339 286 308 366 L60 294 C106 130 231 -30 552 -30 C879 -30 1039 133 1039 454 L1039 454 Z " />
<glyph glyph-name="K" unicode="K" horiz-adv-x="1572" d="M530 1208 L690 1208 L690 1434 L100 1434 L100 1208 L260 1208 L260 226 L100 226 L100 0 L690 0 L690 226 L530 226 L530 535 L691 667 L1131 0 L1472 0 L1472 226 L1312 226 L902 841 L1348 1208 L1472 1208 L1472 1434 L882 1434 L882 1208 L991 1208 L530 825 L530 1208 Z " />
<glyph glyph-name="L" unicode="L" horiz-adv-x="1353" d="M530 1208 L690 1208 L690 1434 L100 1434 L100 1208 L260 1208 L260 226 L100 226 L100 0 L1253 0 L1253 381 L983 381 L983 226 L530 226 L530 1208 Z " />
<glyph glyph-name="M" unicode="M" horiz-adv-x="2104" d="M1844 1208 L2004 1208 L2004 1434 L1472 1434 L1052 420 L632 1434 L100 1434 L100 1208 L260 1208 L260 226 L100 226 L100 0 L690 0 L690 226 L530 226 L530 1024 L954 0 L1150 0 L1574 1024 L1574 226 L1414 226 L1414 0 L2004 0 L2004 226 L1844 226 L1844 1208 Z " />
<glyph glyph-name="N" unicode="N" horiz-adv-x="1777" d="M100 0 L690 0 L690 226 L530 226 L530 1059 L1173 0 L1517 0 L1517 1208 L1677 1208 L1677 1434 L1087 1434 L1087 1208 L1247 1208 L1247 375 L604 1434 L100 1434 L100 1208 L260 1208 L260 226 L100 226 L100 0 Z " />
<glyph glyph-name="O" unicode="O" horiz-adv-x="1684" d="M842 -30 C1334 -30 1604 285 1604 717 C1604 1148 1334 1464 842 1464 C350 1464 80 1148 80 717 C80 285 350 -30 842 -30 L842 -30 Z M842 196 C511 196 354 417 354 717 C354 1017 511 1238 842 1238 C1173 1238 1330 1017 1330 717 C1330 417 1173 196 842 196 L842 196 Z " />
<glyph glyph-name="P" unicode="P" horiz-adv-x="1509" d="M690 0 L690 226 L530 226 L530 474 L896 474 C1230 474 1429 642 1429 954 C1429 1266 1230 1434 896 1434 L100 1434 L100 1208 L260 1208 L260 226 L100 226 L100 0 L690 0 Z M530 1208 L896 1208 C1082 1208 1157 1108 1157 954 C1157 800 1082 700 896 700 L530 700 L530 1208 Z " />
<glyph glyph-name="Q" unicode="Q" horiz-adv-x="1684" d="M842 -30 C957 -30 1060 -12 1151 19 L1245 -90 L1541 -90 L1345 125 C1515 258 1604 468 1604 717 C1604 1148 1334 1464 842 1464 C350 1464 80 1148 80 717 C80 285 350 -30 842 -30 L842 -30 Z M842 196 C511 196 354 417 354 717 C354 1017 511 1238 842 1238 C1173 1238 1330 1017 1330 717 C1330 547 1279 403 1176 310 L1063 434 L796 434 L986 212 C942 201 894 196 842 196 L842 196 Z " />
<glyph glyph-name="R" unicode="R" horiz-adv-x="1524" d="M690 0 L690 226 L530 226 L530 530 L786 530 L1091 0 L1425 0 L1425 226 L1264 226 L1075 550 C1255 602 1405 729 1405 982 C1405 1259 1237 1434 867 1434 L100 1434 L100 1208 L260 1208 L260 226 L100 226 L100 0 L690 0 Z M530 1208 L867 1208 C1055 1208 1133 1140 1133 982 C1133 824 1055 756 867 756 L530 756 L530 1208 Z " />
<glyph glyph-name="S" unicode="S" horiz-adv-x="1372" d="M390 398 L120 398 L120 124 C120 124 312 -30 701 -30 C1018 -30 1252 92 1252 392 C1252 641 1072 780 709 856 C503 900 404 953 404 1071 C404 1188 505 1238 667 1238 C802 1238 911 1213 911 1213 L911 1053 L1181 1053 L1181 1374 C1181 1374 962 1464 667 1464 C292 1464 132 1283 132 1071 C132 858 281 700 660 621 C890 573 980 501 980 392 C980 249 888 196 701 196 C508 196 390 250 390 250 L390 398 Z " />
<glyph glyph-name="T" unicode="T" horiz-adv-x="1508" d="M889 1208 L1138 1208 L1138 1053 L1408 1053 L1408 1434 L100 1434 L100 1053 L370 1053 L370 1208 L619 1208 L619 226 L459 226 L459 0 L1049 0 L1049 226 L889 226 L889 1208 Z " />
<glyph glyph-name="U" unicode="U" horiz-adv-x="1775" d="M530 631 L530 1208 L690 1208 L690 1434 L100 1434 L100 1208 L260 1208 L260 631 C260 221 452 -30 887 -30 C1323 -30 1515 221 1515 631 L1515 1208 L1675 1208 L1675 1434 L1085 1434 L1085 1208 L1245 1208 L1245 631 C1245 364 1156 196 887 196 C618 196 530 364 530 631 L530 631 Z " />
<glyph glyph-name="V" unicode="V" horiz-adv-x="1631" d="M701 0 L930 0 L1432 1208 L1591 1208 L1591 1434 L1001 1434 L1001 1208 L1151 1208 L815 371 L480 1208 L630 1208 L630 1434 L40 1434 L40 1208 L199 1208 L701 0 Z " />
<glyph glyph-name="W" unicode="W" horiz-adv-x="2210" d="M692 452 L477 1208 L630 1208 L630 1434 L40 1434 L40 1208 L191 1208 L563 0 L823 0 L1105 1062 L1387 0 L1647 0 L2018 1208 L2170 1208 L2170 1434 L1580 1434 L1580 1208 L1733 1208 L1518 452 L1252 1434 L958 1434 L692 452 Z " />
<glyph glyph-name="X" unicode="X" horiz-adv-x="1475" d="M894 748 L1229 1208 L1370 1208 L1370 1434 L780 1434 L780 1208 L916 1208 L727 946 L375 1434 L65 1434 L65 1208 L225 1208 L560 748 L180 226 L40 226 L40 0 L630 0 L630 226 L492 226 L727 551 L1126 0 L1435 0 L1435 226 L1275 226 L894 748 Z " />
<glyph glyph-name="Y" unicode="Y" horiz-adv-x="1548" d="M639 548 L639 226 L479 226 L479 0 L1069 0 L1069 226 L909 226 L909 547 L1358 1208 L1508 1208 L1508 1434 L918 1434 L918 1208 L1068 1208 L774 763 L479 1208 L630 1208 L630 1434 L40 1434 L40 1208 L190 1208 L639 548 Z " />
<glyph glyph-name="Z" unicode="Z" horiz-adv-x="1387" d="M1287 1434 L142 1434 L142 1053 L412 1053 L412 1208 L907 1208 L100 134 L100 0 L1287 0 L1287 381 L1017 381 L1017 226 L480 226 L1287 1300 L1287 1434 Z " />
<glyph glyph-name="bracketleft" unicode="&#x5b;" horiz-adv-x="753" d="M400 1208 L663 1208 L663 1434 L130 1434 L130 -357 L663 -357 L663 -130 L400 -130 L400 1208 Z " />
<glyph glyph-name="backslash" unicode="&#x5c;" horiz-adv-x="1100" d="M376 1434 L100 1434 L724 0 L1000 0 L376 1434 Z " />
<glyph glyph-name="bracketright" unicode="&#x5d;" horiz-adv-x="753" d="M353 -130 L90 -130 L90 -357 L623 -357 L623 1434 L90 1434 L90 1208 L353 1208 L353 -130 Z " />
<glyph glyph-name="asciicircum" unicode="&#x5e;" horiz-adv-x="1082" d="M622 1434 L460 1434 L80 810 L365 810 L541 1100 L717 810 L1002 810 L622 1434 Z " />
<glyph glyph-name="underscore" unicode="&#x5f;" horiz-adv-x="1185" d="M100 -318 L1085 -318 L1085 -109 L100 -109 L100 -318 Z " />
<glyph glyph-name="grave" unicode="&#x60;" horiz-adv-x="654" d="M343 1434 L60 1434 L374 1124 L594 1124 L343 1434 Z " />
<glyph glyph-name="a" unicode="a" horiz-adv-x="1277" d="M786 0 L1197 0 L1197 209 L1037 209 L1037 580 C1037 905 943 1042 583 1042 C426 1042 266 1007 149 940 L244 761 C343 806 474 833 583 833 C741 833 786 794 786 666 C425 705 60 630 60 317 C60 79 232 -20 454 -20 C605 -20 730 32 785 161 L786 0 Z M312 327 C312 520 651 512 786 504 L786 400 C789 292 674 189 494 189 C397 189 312 221 312 327 L312 327 Z " />
<glyph glyph-name="b" unicode="b" horiz-adv-x="1402" d="M240 0 L491 0 L491 171 C555 42 714 -20 840 -20 C1156 -20 1342 209 1342 511 C1342 813 1156 1042 840 1042 C714 1042 555 980 491 851 L491 1516 L80 1516 L80 1307 L240 1307 L240 0 Z M788 190 C576 190 491 344 491 511 C491 678 576 832 788 832 C1000 832 1085 678 1085 511 C1085 344 1000 190 788 190 L788 190 Z " />
<glyph glyph-name="c" unicode="c" horiz-adv-x="1132" d="M801 680 L1052 680 L1052 962 C1052 962 884 1042 630 1042 C282 1042 60 813 60 511 C60 209 282 -20 630 -20 C795 -20 940 16 1052 127 L924 288 C835 218 738 189 630 189 C411 189 317 343 317 511 C317 679 411 833 630 833 C730 833 801 812 801 812 L801 680 Z " />
<glyph glyph-name="d" unicode="d" horiz-adv-x="1402" d="M911 0 L1322 0 L1322 209 L1162 209 L1162 1516 L751 1516 L751 1307 L911 1307 L911 851 C847 980 688 1042 562 1042 C246 1042 60 813 60 511 C60 209 246 -20 562 -20 C688 -20 847 42 911 171 L911 0 Z M614 190 C402 190 317 344 317 511 C317 678 402 832 614 832 C826 832 911 678 911 511 C911 344 826 190 614 190 L614 190 Z " />
<glyph glyph-name="e" unicode="e" horiz-adv-x="1202" d="M600 189 C396 188 331 341 331 413 L1140 413 C1160 821 952 1042 600 1042 C248 1042 60 813 60 511 C60 208 248 -20 600 -20 C790 -20 948 24 1070 145 L918 296 C849 238 754 190 600 189 L600 189 Z M331 610 C331 684 394 833 600 833 C806 833 869 684 869 610 L331 610 Z " />
<glyph glyph-name="f" unicode="f" horiz-adv-x="880" d="M257 813 L257 209 L97 209 L97 0 L668 0 L668 209 L508 209 L508 813 L800 813 L800 1022 L508 1022 C509 1206 509 1327 653 1327 C697 1327 754 1319 798 1307 L870 1501 C799 1523 724 1536 633 1536 C334 1536 260 1356 257 1022 L60 1022 L60 813 L257 813 Z " />
<glyph glyph-name="g" unicode="g" horiz-adv-x="1402" d="M1162 0 L1162 813 L1322 813 L1322 1022 L911 1022 L911 851 C847 980 688 1042 562 1042 C246 1042 60 813 60 511 C60 209 246 -20 562 -20 C688 -20 847 42 911 171 L911 0 C911 -253 785 -322 596 -322 C456 -322 340 -286 249 -231 L120 -399 C232 -480 400 -532 596 -532 C903 -532 1162 -414 1162 0 L1162 0 Z M614 190 C402 190 317 344 317 511 C317 678 402 832 614 832 C826 832 911 678 911 511 C911 344 826 190 614 190 L614 190 Z " />
<glyph glyph-name="h" unicode="h" horiz-adv-x="1477" d="M240 1307 L240 209 L80 209 L80 0 L651 0 L651 209 L491 209 L491 547 C491 723 574 833 739 833 C903 833 986 723 986 547 L986 0 L1397 0 L1397 209 L1237 209 L1237 547 C1237 871 1062 1042 779 1042 C672 1042 535 994 491 866 L491 1516 L80 1516 L80 1307 L240 1307 Z " />
<glyph glyph-name="i" unicode="i" horiz-adv-x="731" d="M218 1327 C218 1246 284 1180 365 1180 C446 1180 512 1246 512 1327 C512 1408 446 1474 365 1474 C284 1474 218 1408 218 1327 L218 1327 Z M240 813 L240 209 L80 209 L80 0 L651 0 L651 209 L491 209 L491 1022 L80 1022 L80 813 L240 813 Z " />
<glyph glyph-name="j" unicode="j" horiz-adv-x="579" d="M-140 -485 C-58 -524 31 -532 90 -532 C397 -532 458 -351 458 0 L458 1022 L47 1022 L47 813 L207 813 L207 0 C207 -175 203 -323 70 -323 C28 -323 -16 -316 -71 -294 L-140 -485 Z M185 1327 C185 1246 251 1180 332 1180 C413 1180 479 1246 479 1327 C479 1408 413 1474 332 1474 C251 1474 185 1408 185 1327 L185 1327 Z " />
<glyph glyph-name="k" unicode="k" horiz-adv-x="1361" d="M491 592 L491 1516 L80 1516 L80 1307 L240 1307 L240 209 L80 209 L80 0 L651 0 L651 209 L491 209 L491 325 L633 437 L994 0 L1281 0 L1281 209 L1129 209 L820 583 L1113 813 L1262 813 L1262 1022 L691 1022 L691 813 L773 813 L491 592 Z " />
<glyph glyph-name="l" unicode="l" horiz-adv-x="731" d="M240 1307 L240 209 L80 209 L80 0 L651 0 L651 209 L491 209 L491 1516 L80 1516 L80 1307 L240 1307 Z " />
<glyph glyph-name="m" unicode="m" horiz-adv-x="2029" d="M1538 596 L1538 0 L1949 0 L1949 209 L1789 209 L1789 596 C1789 911 1622 1042 1377 1042 C1238 1042 1118 974 1063 901 C1002 986 889 1042 728 1042 C627 1042 525 989 491 928 L491 1022 L80 1022 L80 813 L240 813 L240 209 L80 209 L80 0 L651 0 L651 209 L491 209 L491 596 C491 737 551 833 690 833 C829 833 889 737 889 596 L889 0 L1300 0 L1300 209 L1140 209 L1140 596 C1140 737 1200 833 1339 833 C1478 833 1538 737 1538 596 L1538 596 Z " />
<glyph glyph-name="n" unicode="n" horiz-adv-x="1477" d="M240 813 L240 209 L80 209 L80 0 L651 0 L651 209 L491 209 L491 547 C491 723 574 833 739 833 C903 833 986 723 986 547 L986 0 L1397 0 L1397 209 L1237 209 L1237 547 C1237 871 1062 1042 779 1042 C672 1042 535 994 491 866 L491 1022 L80 1022 L80 813 L240 813 Z " />
<glyph glyph-name="o" unicode="o" horiz-adv-x="1260" d="M1200 511 C1200 815 977 1042 630 1042 C282 1042 60 813 60 511 C60 209 282 -20 630 -20 C977 -20 1200 207 1200 511 L1200 511 Z M943 511 C943 343 849 189 630 189 C411 189 317 343 317 511 C317 679 411 833 630 833 C849 833 943 679 943 511 L943 511 Z " />
<glyph glyph-name="p" unicode="p" horiz-adv-x="1402" d="M80 -532 L651 -532 L651 -323 L491 -323 L491 171 C555 42 714 -20 840 -20 C1156 -20 1342 209 1342 511 C1342 813 1156 1042 840 1042 C714 1042 555 980 491 851 L491 1022 L80 1022 L80 813 L240 813 L240 -323 L80 -323 L80 -532 Z M788 190 C576 190 491 344 491 511 C491 678 576 832 788 832 C1000 832 1085 678 1085 511 C1085 344 1000 190 788 190 L788 190 Z " />
<glyph glyph-name="q" unicode="q" horiz-adv-x="1402" d="M1322 -323 L1162 -323 L1162 813 L1322 813 L1322 1022 L911 1022 L911 851 C847 980 688 1042 562 1042 C246 1042 60 813 60 511 C60 209 246 -20 562 -20 C688 -20 847 42 911 171 L911 -323 L751 -323 L751 -532 L1322 -532 L1322 -323 Z M614 190 C402 190 317 344 317 511 C317 678 402 832 614 832 C826 832 911 678 911 511 C911 344 826 190 614 190 L614 190 Z " />
<glyph glyph-name="r" unicode="r" horiz-adv-x="1004" d="M994 1001 C932 1029 860 1042 779 1042 C672 1042 535 994 491 866 L491 1022 L80 1022 L80 813 L240 813 L240 209 L80 209 L80 0 L651 0 L651 209 L491 209 L491 547 C491 723 564 833 739 833 C796 833 842 822 878 800 L994 1001 Z " />
<glyph glyph-name="s" unicode="s" horiz-adv-x="1048" d="M668 712 L919 712 L919 974 C919 974 738 1042 501 1042 C193 1042 80 912 80 740 C80 562 199 466 489 412 C623 387 716 373 716 300 C716 228 668 189 523 189 C416 189 331 214 331 214 L331 320 L80 320 L80 80 C80 80 244 -20 523 -20 C793 -20 968 72 968 290 C968 507 808 571 534 623 C410 647 331 675 331 740 C331 803 384 833 501 833 C586 833 668 817 668 817 L668 712 Z " />
<glyph glyph-name="t" unicode="t" horiz-adv-x="868" d="M40 813 L237 813 L237 451 C237 149 307 -20 595 -20 C664 -20 744 -12 828 25 L772 218 C729 198 687 189 635 189 C502 189 488 295 488 451 L488 813 L780 813 L780 1022 L488 1022 L488 1321 L237 1321 L237 1022 L40 1022 L40 813 Z " />
<glyph glyph-name="u" unicode="u" horiz-adv-x="1477" d="M986 475 C986 299 903 189 738 189 C574 189 491 299 491 475 L491 1022 L80 1022 L80 813 L240 813 L240 475 C240 151 415 -20 698 -20 C805 -20 942 28 986 156 L986 0 L1397 0 L1397 209 L1237 209 L1237 1022 L826 1022 L826 813 L986 813 L986 475 Z " />
<glyph glyph-name="v" unicode="v" horiz-adv-x="1407" d="M576 0 L830 0 L1172 813 L1327 813 L1327 1022 L756 1022 L756 813 L908 813 L703 285 L499 813 L651 813 L651 1022 L80 1022 L80 813 L234 813 L576 0 Z " />
<glyph glyph-name="w" unicode="w" horiz-adv-x="1896" d="M1816 813 L1816 1022 L1245 1022 L1245 813 L1401 813 L1266 321 L1075 1022 L821 1022 L630 321 L494 813 L651 813 L651 1022 L80 1022 L80 813 L239 813 L501 0 L767 0 L948 671 L1129 0 L1395 0 L1656 813 L1816 813 Z " />
<glyph glyph-name="x" unicode="x" horiz-adv-x="1263" d="M783 531 L1001 813 L1133 813 L1133 1022 L622 1022 L622 813 L697 813 L622 713 L390 1022 L91 1022 L91 813 L243 813 L461 531 L212 209 L80 209 L80 0 L591 0 L591 209 L517 209 L622 349 L884 0 L1183 0 L1183 209 L1031 209 L783 531 Z " />
<glyph glyph-name="y" unicode="y" horiz-adv-x="1409" d="M1173 813 L1329 813 L1329 1022 L758 1022 L758 813 L912 813 L704 295 L496 813 L651 813 L651 1022 L80 1022 L80 813 L235 813 L583 0 L503 -191 C467 -268 431 -323 316 -323 L194 -323 L194 -532 L316 -532 C572 -532 639 -420 698 -295 L1173 813 Z " />
<glyph glyph-name="z" unicode="z" horiz-adv-x="1112" d="M112 680 L363 680 L363 813 L655 813 L80 125 L80 0 L1032 0 L1032 342 L781 342 L781 209 L457 209 L1032 897 L1032 1022 L112 1022 L112 680 Z " />
<glyph glyph-name="braceleft" unicode="&#x7b;" horiz-adv-x="832" d="M80 442 C182 432 296 392 296 197 C296 -241 486 -384 752 -384 L752 -135 C645 -135 566 -61 566 203 C566 391 509 501 402 555 C509 609 566 719 566 907 C566 1171 645 1245 752 1245 L752 1494 C486 1494 296 1351 296 913 C296 718 182 678 80 668 L80 442 Z " />
<glyph glyph-name="bar" unicode="&#x7c;" horiz-adv-x="469" d="M100 -532 L369 -532 L369 1434 L100 1434 L100 -532 Z " />
<glyph glyph-name="braceright" unicode="&#x7d;" horiz-adv-x="832" d="M752 668 C650 678 536 718 536 913 C536 1351 346 1494 80 1494 L80 1245 C187 1245 266 1171 266 907 C266 719 323 609 430 555 C323 501 266 391 266 203 C266 -61 187 -135 80 -135 L80 -384 C346 -384 536 -241 536 197 C536 392 650 432 752 442 L752 668 Z " />
<glyph glyph-name="asciitilde" unicode="&#x7e;" horiz-adv-x="1160" d="M647 822 C603 878 536 930 412 930 C114 930 80 628 80 570 L339 570 C339 609 353 681 412 681 C454 681 477 659 513 615 C557 559 624 507 748 507 C1046 507 1080 809 1080 867 L821 867 C821 828 807 756 748 756 C706 756 683 778 647 822 L647 822 Z " />
<glyph glyph-name="uni00A0" unicode="&#xa0;" horiz-adv-x="573" d="" />
<glyph glyph-name="exclamdown" unicode="&#xa1;" horiz-adv-x="497" d="M113 -532 L383 -532 L363 500 L133 500 L113 -532 Z M100 764 C100 682 166 615 248 615 C330 615 397 682 397 764 C397 846 330 912 248 912 C166 912 100 846 100 764 L100 764 Z " />
<glyph glyph-name="cent" unicode="&#xa2;" horiz-adv-x="1092" d="M801 680 L1052 680 L1052 962 C1052 962 926 1022 728 1038 L728 1265 L508 1265 L508 1032 C231 985 60 776 60 511 C60 246 231 37 508 -10 L508 -243 L728 -243 L728 -15 C852 -2 963 38 1052 127 L924 288 C835 218 738 189 630 189 C411 189 317 343 317 511 C317 679 411 833 630 833 C730 833 801 812 801 812 L801 680 Z " />
<glyph glyph-name="sterling" unicode="&#xa3;" horiz-adv-x="1381" d="M100 591 L298 591 C307 545 314 498 314 446 C314 299 205 173 205 173 L205 0 L1244 0 L1244 226 L526 226 C526 226 584 324 584 440 C584 490 577 540 567 591 L983 591 L983 816 L519 816 C510 865 504 915 504 966 C504 1128 593 1238 783 1238 C920 1238 1006 1178 1074 1066 L1281 1168 C1224 1314 1067 1464 783 1464 C391 1464 234 1229 234 966 C234 910 239 861 247 816 L100 816 L100 591 Z " />
<glyph glyph-name="currency" unicode="&#xa4;" horiz-adv-x="1141" d="M756 1469 C640 1531 500 1531 385 1469 L242 1612 L80 1449 L223 1307 C161 1191 161 1051 223 936 L80 793 L242 631 L385 773 C500 712 640 712 756 773 L899 631 L1061 793 L918 936 C980 1051 980 1191 918 1307 L1061 1449 L899 1612 L756 1469 Z M375 1121 C375 1229 462 1316 570 1316 C678 1316 765 1229 765 1121 C765 1013 678 926 570 926 C462 926 375 1013 375 1121 L375 1121 Z " />
<glyph glyph-name="yen" unicode="&#xa5;" horiz-adv-x="1628" d="M396 123 L679 123 L679 0 L949 0 L949 123 L1232 123 L1232 309 L949 309 L949 372 L1232 372 L1232 558 L956 558 L1398 1208 L1548 1208 L1548 1434 L958 1434 L958 1208 L1108 1208 L814 763 L519 1208 L670 1208 L670 1434 L80 1434 L80 1208 L230 1208 L672 558 L396 558 L396 372 L679 372 L679 309 L396 309 L396 123 Z " />
<glyph glyph-name="brokenbar" unicode="&#xa6;" horiz-adv-x="470" d="M102 619 L357 619 L357 1434 L102 1434 L102 619 Z M100 -532 L370 -532 L370 260 L100 260 L100 -532 Z " />
<glyph glyph-name="section" unicode="&#xa7;" horiz-adv-x="1402" d="M1282 392 C1282 641 1102 780 739 856 C533 900 434 953 434 1071 C434 1188 535 1238 697 1238 C832 1238 941 1213 941 1213 L941 1053 L1211 1053 L1211 1374 C1211 1374 992 1464 697 1464 C322 1464 162 1283 162 1071 C162 976 191 893 257 822 C189 755 150 663 150 540 C150 291 330 152 693 76 C899 32 998 -21 998 -139 C998 -256 897 -306 735 -306 C600 -306 491 -281 491 -281 L491 -121 L221 -121 L221 -442 C221 -442 440 -532 735 -532 C1110 -532 1270 -351 1270 -139 C1270 -44 1240 39 1175 110 C1243 177 1282 269 1282 392 L1282 392 Z M690 621 C920 573 1010 501 1010 392 C1010 327 991 281 953 250 C893 273 822 294 742 311 C512 359 422 431 422 540 C422 604 440 650 478 682 C539 658 609 638 690 621 L690 621 Z " />
<glyph glyph-name="dieresis" unicode="&#xa8;" horiz-adv-x="898" d="M80 1327 C80 1246 146 1180 227 1180 C308 1180 374 1246 374 1327 C374 1408 308 1474 227 1474 C146 1474 80 1408 80 1327 L80 1327 Z M524 1327 C524 1246 590 1180 671 1180 C752 1180 818 1246 818 1327 C818 1408 752 1474 671 1474 C590 1474 524 1408 524 1327 L524 1327 Z " />
<glyph glyph-name="copyright" unicode="&#xa9;" horiz-adv-x="1654" d="M638 717 C638 847 723 929 834 929 C923 929 974 907 1033 857 L1128 997 C1050 1074 943 1116 834 1116 C601 1116 429 951 429 717 C429 483 601 318 834 318 C943 318 1048 359 1126 436 L1031 576 C972 526 923 505 834 505 C723 505 638 587 638 717 L638 717 Z M80 717 C80 305 415 -30 827 -30 C1239 -30 1574 305 1574 717 C1574 1129 1239 1464 827 1464 C415 1464 80 1129 80 717 L80 717 Z M263 717 C263 1028 516 1281 827 1281 C1138 1281 1391 1028 1391 717 C1391 406 1138 153 827 153 C516 153 263 406 263 717 L263 717 Z " />
<glyph glyph-name="ordfeminine" unicode="&#xaa;" horiz-adv-x="864" d="M382 1290 C517 1290 549 1266 549 1183 C289 1200 50 1152 50 943 C50 782 159 704 346 704 C471 704 524 752 551 816 L551 714 L814 714 L814 868 L717 868 L717 1138 C717 1365 609 1444 382 1444 C233 1444 122 1390 122 1390 L182 1252 C182 1252 280 1290 382 1290 L382 1290 Z M216 943 C216 1046 352 1066 551 1057 L551 1039 C551 904 467 858 346 858 C256 858 216 896 216 943 L216 943 Z " />
<glyph glyph-name="guillemotleft" unicode="&#xab;" horiz-adv-x="1504" d="M762 959 L762 1262 L80 730 L80 584 L762 52 L762 355 L367 657 L762 959 Z M1404 959 L1404 1262 L722 730 L722 584 L1404 52 L1404 355 L1009 657 L1404 959 Z " />
<glyph glyph-name="logicalnot" unicode="&#xac;" horiz-adv-x="1160" d="M80 618 L810 618 L810 243 L1080 243 L1080 845 L80 845 L80 618 Z " />
<glyph glyph-name="uni00AD" unicode="&#xad;" horiz-adv-x="962" d="M80 524 L882 524 L882 734 L80 734 L80 524 Z " />
<glyph glyph-name="registered" unicode="&#xae;" horiz-adv-x="1018" d="M453 808 L453 959 L511 959 L589 808 L693 808 L607 974 C649 990 685 1030 685 1096 C685 1184 624 1232 543 1232 L355 1232 L355 808 L453 808 Z M543 1135 C572 1135 587 1121 587 1096 C587 1070 572 1057 543 1057 L453 1057 L453 1135 L543 1135 Z M170 1015 C170 1202 322 1354 509 1354 C696 1354 848 1202 848 1015 C848 828 696 676 509 676 C322 676 170 828 170 1015 L170 1015 Z M60 1015 C60 767 261 566 509 566 C757 566 958 767 958 1015 C958 1263 757 1464 509 1464 C261 1464 60 1263 60 1015 L60 1015 Z " />
<glyph glyph-name="macron" unicode="&#xaf;" horiz-adv-x="954" d="M80 1245 L874 1245 L874 1434 L80 1434 L80 1245 Z " />
<glyph glyph-name="degree" unicode="&#xb0;" horiz-adv-x="556" d="M10 1196 C10 1048 130 928 278 928 C426 928 546 1048 546 1196 C546 1344 426 1464 278 1464 C130 1464 10 1344 10 1196 L10 1196 Z M161 1196 C161 1261 213 1313 278 1313 C343 1313 395 1261 395 1196 C395 1131 343 1079 278 1079 C213 1079 161 1131 161 1196 L161 1196 Z " />
<glyph glyph-name="plusminus" unicode="&#xb1;" horiz-adv-x="1110" d="M1030 962 L672 962 L672 1323 L437 1323 L437 962 L80 962 L80 734 L437 734 L437 373 L672 373 L672 734 L1030 734 L1030 962 Z M1030 228 L80 228 L80 0 L1030 0 L1030 228 Z " />
<glyph glyph-name="twosuperior" unicode="&#xb2;" horiz-adv-x="639" d="M196 1182 C196 1182 228 1290 320 1290 C388 1290 413 1260 413 1219 C413 1164 370 1127 331 1088 L59 830 L59 714 L589 714 L589 926 L423 926 L423 868 L316 868 L445 990 C510 1052 579 1128 579 1219 C579 1354 487 1444 320 1444 C94 1444 50 1237 50 1237 L196 1182 Z " />
<glyph glyph-name="threesuperior" unicode="&#xb3;" horiz-adv-x="649" d="M64 1210 L230 1210 L230 1271 C248 1282 283 1290 328 1290 C392 1290 416 1263 416 1225 C416 1148 320 1148 219 1148 L219 994 C317 994 433 1001 433 930 C433 876 397 858 332 858 C276 858 239 864 216 879 L216 938 L50 938 L50 796 C50 796 115 704 332 704 C503 704 599 787 599 920 C599 1016 541 1064 472 1082 C535 1109 582 1161 582 1247 C582 1368 486 1444 328 1444 C142 1444 64 1342 64 1342 L64 1210 Z " />
<glyph glyph-name="acute" unicode="&#xb4;" horiz-adv-x="654" d="M60 1124 L280 1124 L594 1434 L311 1434 L60 1124 Z " />
<glyph glyph-name="mu" unicode="&#xb5;" horiz-adv-x="1518" d="M1278 209 L1278 1022 L867 1022 L867 813 L1027 813 L1027 495 C1027 309 934 189 759 189 C584 189 491 309 491 495 L491 1022 L80 1022 L80 813 L240 813 L240 -323 L80 -323 L80 -532 L651 -532 L651 -323 L491 -323 L491 156 C535 28 672 -20 759 -20 C846 -20 983 28 1027 156 L1027 0 L1438 0 L1438 209 L1278 209 Z " />
<glyph glyph-name="paragraph" unicode="&#xb6;" horiz-adv-x="1468" d="M1388 1434 L529 1434 C212 1434 80 1221 80 986 C80 752 212 537 529 537 L578 537 L578 0 L848 0 L848 1208 L947 1208 L947 0 L1217 0 L1217 1208 L1388 1208 L1388 1434 Z M578 1208 L578 764 L529 764 C407 764 350 863 350 986 C350 1109 407 1208 529 1208 L578 1208 Z " />
<glyph glyph-name="periodcentered" unicode="&#xb7;" horiz-adv-x="457" d="M80 726 C80 644 146 578 228 578 C310 578 377 644 377 726 C377 808 310 875 228 875 C146 875 80 808 80 726 L80 726 Z " />
<glyph glyph-name="cedilla" unicode="&#xb8;" horiz-adv-x="587" d="M60 -459 C246 -532 504 -521 525 -303 C539 -160 426 -113 316 -112 L378 73 L225 73 L124 -240 C256 -219 382 -209 372 -296 C361 -413 174 -366 106 -342 L60 -459 Z " />
<glyph glyph-name="onesuperior" unicode="&#xb9;" horiz-adv-x="515" d="M105 714 L465 714 L465 868 L368 868 L368 1434 L230 1434 L20 1234 L131 1116 L202 1184 L202 868 L105 868 L105 714 Z " />
<glyph glyph-name="ordmasculine" unicode="&#xba;" horiz-adv-x="820" d="M410 704 C612 704 770 839 770 1074 C770 1309 612 1444 410 1444 C208 1444 50 1309 50 1074 C50 839 208 704 410 704 L410 704 Z M410 858 C284 858 216 939 216 1074 C216 1209 284 1290 410 1290 C536 1290 604 1209 604 1074 C604 939 536 858 410 858 L410 858 Z " />
<glyph glyph-name="guillemotright" unicode="&#xbb;" horiz-adv-x="1504" d="M1137 657 L742 355 L742 52 L1424 584 L1424 730 L742 1262 L742 959 L1137 657 Z M495 657 L100 355 L100 52 L782 584 L782 730 L100 1262 L100 959 L495 657 Z " />
<glyph glyph-name="onequarter" unicode="&#xbc;" horiz-adv-x="1436" d="M214 0 L413 0 L1236 1434 L1037 1434 L214 0 Z M205 714 L565 714 L565 868 L468 868 L468 1434 L330 1434 L120 1234 L231 1116 L302 1184 L302 868 L205 868 L205 714 Z M1311 0 L1311 134 L1214 134 L1214 182 L1316 182 L1316 316 L1214 316 L1214 720 L1065 720 L706 284 L706 182 L1048 182 L1048 134 L951 134 L951 0 L1311 0 Z M905 316 L1048 489 L1048 316 L905 316 Z " />
<glyph glyph-name="onehalf" unicode="&#xbd;" horiz-adv-x="1522" d="M214 0 L413 0 L1236 1434 L1037 1434 L214 0 Z M1009 468 C1009 468 1041 576 1133 576 C1201 576 1226 546 1226 505 C1226 450 1183 413 1144 374 L872 116 L872 0 L1402 0 L1402 212 L1236 212 L1236 154 L1129 154 L1258 276 C1323 338 1392 414 1392 505 C1392 640 1300 730 1133 730 C907 730 863 523 863 523 L1009 468 Z M205 714 L565 714 L565 868 L468 868 L468 1434 L330 1434 L120 1234 L231 1116 L302 1184 L302 868 L205 868 L205 714 Z " />
<glyph glyph-name="threequarters" unicode="&#xbe;" horiz-adv-x="1522" d="M300 0 L499 0 L1322 1434 L1123 1434 L300 0 Z M134 1210 L300 1210 L300 1271 C318 1282 353 1290 398 1290 C462 1290 486 1263 486 1225 C486 1148 390 1148 289 1148 L289 994 C387 994 503 1001 503 930 C503 876 467 858 402 858 C346 858 309 864 286 879 L286 938 L120 938 L120 796 C120 796 185 704 402 704 C573 704 669 787 669 920 C669 1016 611 1064 542 1082 C605 1109 652 1161 652 1247 C652 1368 556 1444 398 1444 C212 1444 134 1342 134 1342 L134 1210 Z M1397 0 L1397 134 L1300 134 L1300 182 L1402 182 L1402 316 L1300 316 L1300 720 L1151 720 L792 284 L792 182 L1134 182 L1134 134 L1037 134 L1037 0 L1397 0 Z M991 316 L1134 489 L1134 316 L991 316 Z " />
<glyph glyph-name="questiondown" unicode="&#xbf;" horiz-adv-x="959" d="M768 -159 C711 -250 621 -326 482 -326 C322 -326 250 -240 250 -146 C250 4 366 94 649 98 L649 510 L379 510 L379 253 C81 208 -20 49 -20 -146 C-20 -366 131 -552 482 -552 C760 -552 913 -409 979 -276 L768 -159 Z M663 774 C663 856 597 922 515 922 C433 922 366 856 366 774 C366 692 433 625 515 625 C597 625 663 692 663 774 L663 774 Z " />
<glyph glyph-name="Agrave" unicode="&#xc0;" horiz-adv-x="1651" d="M674 1846 L391 1846 L705 1536 L925 1536 L674 1846 Z M1176 226 L1021 226 L1021 0 L1611 0 L1611 226 L1455 226 L936 1434 L460 1434 L460 1208 L620 1208 L196 226 L40 226 L40 0 L630 0 L630 226 L474 226 L553 414 L1097 414 L1176 226 Z M825 1063 L1002 641 L648 641 L825 1063 Z " />
<glyph glyph-name="Aacute" unicode="&#xc1;" horiz-adv-x="1651" d="M728 1536 L948 1536 L1262 1846 L979 1846 L728 1536 Z M1176 226 L1021 226 L1021 0 L1611 0 L1611 226 L1455 226 L936 1434 L460 1434 L460 1208 L620 1208 L196 226 L40 226 L40 0 L630 0 L630 226 L474 226 L553 414 L1097 414 L1176 226 Z M825 1063 L1002 641 L648 641 L825 1063 Z " />
<glyph glyph-name="Acircumflex" unicode="&#xc2;" horiz-adv-x="1651" d="M898 1827 L752 1827 L471 1536 L679 1536 L825 1665 L971 1536 L1179 1536 L898 1827 Z M1176 226 L1021 226 L1021 0 L1611 0 L1611 226 L1455 226 L936 1434 L460 1434 L460 1208 L620 1208 L196 226 L40 226 L40 0 L630 0 L630 226 L474 226 L553 414 L1097 414 L1176 226 Z M825 1063 L1002 641 L648 641 L825 1063 Z " />
<glyph glyph-name="Atilde" unicode="&#xc3;" horiz-adv-x="1651" d="M787 1600 C831 1565 881 1536 942 1536 C1186 1536 1177 1785 1177 1785 L992 1785 C992 1785 994 1707 937 1707 C910 1707 882 1730 864 1743 C820 1778 770 1807 709 1807 C465 1807 474 1558 474 1558 L659 1558 C659 1558 657 1636 714 1636 C741 1636 769 1613 787 1600 L787 1600 Z M1176 226 L1021 226 L1021 0 L1611 0 L1611 226 L1455 226 L936 1434 L460 1434 L460 1208 L620 1208 L196 226 L40 226 L40 0 L630 0 L630 226 L474 226 L553 414 L1097 414 L1176 226 Z M825 1063 L1002 641 L648 641 L825 1063 Z " />
<glyph glyph-name="Adieresis" unicode="&#xc4;" horiz-adv-x="1651" d="M456 1683 C456 1602 522 1536 603 1536 C684 1536 750 1602 750 1683 C750 1764 684 1830 603 1830 C522 1830 456 1764 456 1683 L456 1683 Z M900 1683 C900 1602 966 1536 1047 1536 C1128 1536 1194 1602 1194 1683 C1194 1764 1128 1830 1047 1830 C966 1830 900 1764 900 1683 L900 1683 Z M1176 226 L1021 226 L1021 0 L1611 0 L1611 226 L1455 226 L936 1434 L460 1434 L460 1208 L620 1208 L196 226 L40 226 L40 0 L630 0 L630 226 L474 226 L553 414 L1097 414 L1176 226 Z M825 1063 L1002 641 L648 641 L825 1063 Z " />
<glyph glyph-name="Aring" unicode="&#xc5;" horiz-adv-x="1651" d="M598 1763 C598 1638 700 1536 825 1536 C950 1536 1052 1638 1052 1763 C1052 1888 950 1990 825 1990 C700 1990 598 1888 598 1763 L598 1763 Z M747 1763 C747 1806 782 1841 825 1841 C868 1841 903 1806 903 1763 C903 1720 868 1685 825 1685 C782 1685 747 1720 747 1763 L747 1763 Z M1176 226 L1021 226 L1021 0 L1611 0 L1611 226 L1455 226 L936 1434 L460 1434 L460 1208 L620 1208 L196 226 L40 226 L40 0 L630 0 L630 226 L474 226 L553 414 L1097 414 L1176 226 Z M825 1063 L1002 641 L648 641 L825 1063 Z " />
<glyph glyph-name="AE" unicode="&#xc6;" horiz-adv-x="2208" d="M1041 0 L2108 0 L2108 381 L1838 381 L1838 226 L1311 226 L1311 618 L1868 618 L1868 844 L1311 844 L1311 1208 L1828 1208 L1828 1053 L2098 1053 L2098 1434 L726 1434 L726 1208 L886 1208 L240 226 L100 226 L100 0 L690 0 L690 226 L550 226 L658 391 L1041 391 L1041 0 Z M1041 971 L1041 618 L808 618 L1041 971 Z " />
<glyph glyph-name="Ccedilla" unicode="&#xc7;" horiz-adv-x="1476" d="M1106 1053 L1376 1053 L1376 1368 C1376 1368 1146 1464 842 1464 C350 1464 80 1149 80 717 C80 323 304 27 717 -22 L647 -240 C779 -219 905 -209 895 -296 C884 -413 697 -366 629 -342 L583 -459 C769 -532 1027 -521 1048 -303 C1062 -160 949 -113 839 -112 L866 -30 C1094 -26 1255 31 1376 136 L1247 314 C1152 250 1022 196 842 196 C511 196 354 417 354 717 C354 1017 511 1238 842 1238 C994 1238 1106 1207 1106 1207 L1106 1053 Z " />
<glyph glyph-name="Egrave" unicode="&#xc8;" horiz-adv-x="1427" d="M574 1846 L291 1846 L605 1536 L825 1536 L574 1846 Z M100 0 L1327 0 L1327 381 L1057 381 L1057 226 L530 226 L530 618 L1087 618 L1087 844 L530 844 L530 1208 L1047 1208 L1047 1053 L1317 1053 L1317 1434 L100 1434 L100 1208 L260 1208 L260 226 L100 226 L100 0 Z " />
<glyph glyph-name="Eacute" unicode="&#xc9;" horiz-adv-x="1427" d="M589 1536 L809 1536 L1123 1846 L840 1846 L589 1536 Z M100 0 L1327 0 L1327 381 L1057 381 L1057 226 L530 226 L530 618 L1087 618 L1087 844 L530 844 L530 1208 L1047 1208 L1047 1053 L1317 1053 L1317 1434 L100 1434 L100 1208 L260 1208 L260 226 L100 226 L100 0 Z " />
<glyph glyph-name="Ecircumflex" unicode="&#xca;" horiz-adv-x="1427" d="M786 1827 L640 1827 L359 1536 L567 1536 L713 1665 L859 1536 L1067 1536 L786 1827 Z M100 0 L1327 0 L1327 381 L1057 381 L1057 226 L530 226 L530 618 L1087 618 L1087 844 L530 844 L530 1208 L1047 1208 L1047 1053 L1317 1053 L1317 1434 L100 1434 L100 1208 L260 1208 L260 226 L100 226 L100 0 Z " />
<glyph glyph-name="Edieresis" unicode="&#xcb;" horiz-adv-x="1427" d="M344 1683 C344 1602 410 1536 491 1536 C572 1536 638 1602 638 1683 C638 1764 572 1830 491 1830 C410 1830 344 1764 344 1683 L344 1683 Z M788 1683 C788 1602 854 1536 935 1536 C1016 1536 1082 1602 1082 1683 C1082 1764 1016 1830 935 1830 C854 1830 788 1764 788 1683 L788 1683 Z M100 0 L1327 0 L1327 381 L1057 381 L1057 226 L530 226 L530 618 L1087 618 L1087 844 L530 844 L530 1208 L1047 1208 L1047 1053 L1317 1053 L1317 1434 L100 1434 L100 1208 L260 1208 L260 226 L100 226 L100 0 Z " />
<glyph glyph-name="Igrave" unicode="&#xcc;" horiz-adv-x="836" d="M343 1846 L60 1846 L374 1536 L594 1536 L343 1846 Z M616 1208 L776 1208 L776 1434 L186 1434 L186 1208 L346 1208 L346 226 L186 226 L186 0 L776 0 L776 226 L616 226 L616 1208 Z " />
<glyph glyph-name="Iacute" unicode="&#xcd;" horiz-adv-x="883" d="M289 1536 L509 1536 L823 1846 L540 1846 L289 1536 Z M530 1208 L690 1208 L690 1434 L100 1434 L100 1208 L260 1208 L260 226 L100 226 L100 0 L690 0 L690 226 L530 226 L530 1208 Z " />
<glyph glyph-name="Icircumflex" unicode="&#xce;" horiz-adv-x="828" d="M487 1827 L341 1827 L60 1536 L268 1536 L414 1665 L560 1536 L768 1536 L487 1827 Z M549 1208 L709 1208 L709 1434 L119 1434 L119 1208 L279 1208 L279 226 L119 226 L119 0 L709 0 L709 226 L549 226 L549 1208 Z " />
<glyph glyph-name="Idieresis" unicode="&#xcf;" horiz-adv-x="858" d="M564 1208 L724 1208 L724 1434 L134 1434 L134 1208 L294 1208 L294 226 L134 226 L134 0 L724 0 L724 226 L564 226 L564 1208 Z M60 1683 C60 1602 126 1536 207 1536 C288 1536 354 1602 354 1683 C354 1764 288 1830 207 1830 C126 1830 60 1764 60 1683 L60 1683 Z M504 1683 C504 1602 570 1536 651 1536 C732 1536 798 1602 798 1683 C798 1764 732 1830 651 1830 C570 1830 504 1764 504 1683 L504 1683 Z " />
<glyph glyph-name="Eth" unicode="&#xd0;" horiz-adv-x="1660" d="M1600 717 C1600 1120 1375 1434 893 1434 L168 1434 L168 1208 L328 1208 L328 830 L100 830 L100 604 L328 604 L328 226 L168 226 L168 0 L893 0 C1375 0 1600 313 1600 717 L1600 717 Z M598 1208 L893 1208 C1203 1208 1327 975 1327 717 C1327 459 1203 226 893 226 L598 226 L598 604 L900 604 L900 830 L598 830 L598 1208 Z " />
<glyph glyph-name="Ntilde" unicode="&#xd1;" horiz-adv-x="1777" d="M850 1600 C894 1565 944 1536 1005 1536 C1249 1536 1240 1785 1240 1785 L1055 1785 C1055 1785 1057 1707 1000 1707 C973 1707 945 1730 927 1743 C883 1778 833 1807 772 1807 C528 1807 537 1558 537 1558 L722 1558 C722 1558 720 1636 777 1636 C804 1636 832 1613 850 1600 L850 1600 Z M100 0 L690 0 L690 226 L530 226 L530 1059 L1173 0 L1517 0 L1517 1208 L1677 1208 L1677 1434 L1087 1434 L1087 1208 L1247 1208 L1247 375 L604 1434 L100 1434 L100 1208 L260 1208 L260 226 L100 226 L100 0 Z " />
<glyph glyph-name="Ograve" unicode="&#xd2;" horiz-adv-x="1684" d="M842 -30 C1334 -30 1604 285 1604 717 C1604 1148 1334 1464 842 1464 C350 1464 80 1148 80 717 C80 285 350 -30 842 -30 L842 -30 Z M842 196 C511 196 354 417 354 717 C354 1017 511 1238 842 1238 C1173 1238 1330 1017 1330 717 C1330 417 1173 196 842 196 L842 196 Z M722 1846 L439 1846 L753 1536 L973 1536 L722 1846 Z " />
<glyph glyph-name="Oacute" unicode="&#xd3;" horiz-adv-x="1684" d="M842 -30 C1334 -30 1604 285 1604 717 C1604 1148 1334 1464 842 1464 C350 1464 80 1148 80 717 C80 285 350 -30 842 -30 L842 -30 Z M842 196 C511 196 354 417 354 717 C354 1017 511 1238 842 1238 C1173 1238 1330 1017 1330 717 C1330 417 1173 196 842 196 L842 196 Z M738 1536 L958 1536 L1272 1846 L989 1846 L738 1536 Z " />
<glyph glyph-name="Ocircumflex" unicode="&#xd4;" horiz-adv-x="1684" d="M842 -30 C1334 -30 1604 285 1604 717 C1604 1148 1334 1464 842 1464 C350 1464 80 1148 80 717 C80 285 350 -30 842 -30 L842 -30 Z M842 196 C511 196 354 417 354 717 C354 1017 511 1238 842 1238 C1173 1238 1330 1017 1330 717 C1330 417 1173 196 842 196 L842 196 Z M924 1827 L778 1827 L497 1536 L705 1536 L851 1665 L997 1536 L1205 1536 L924 1827 Z " />
<glyph glyph-name="Otilde" unicode="&#xd5;" horiz-adv-x="1684" d="M842 -30 C1334 -30 1604 285 1604 717 C1604 1148 1334 1464 842 1464 C350 1464 80 1148 80 717 C80 285 350 -30 842 -30 L842 -30 Z M842 196 C511 196 354 417 354 717 C354 1017 511 1238 842 1238 C1173 1238 1330 1017 1330 717 C1330 417 1173 196 842 196 L842 196 Z M812 1600 C856 1565 906 1536 967 1536 C1211 1536 1202 1785 1202 1785 L1017 1785 C1017 1785 1019 1707 962 1707 C935 1707 907 1730 889 1743 C845 1778 795 1807 734 1807 C490 1807 499 1558 499 1558 L684 1558 C684 1558 682 1636 739 1636 C766 1636 794 1613 812 1600 L812 1600 Z " />
<glyph glyph-name="Odieresis" unicode="&#xd6;" horiz-adv-x="1684" d="M842 -30 C1334 -30 1604 285 1604 717 C1604 1148 1334 1464 842 1464 C350 1464 80 1148 80 717 C80 285 350 -30 842 -30 L842 -30 Z M842 196 C511 196 354 417 354 717 C354 1017 511 1238 842 1238 C1173 1238 1330 1017 1330 717 C1330 417 1173 196 842 196 L842 196 Z M482 1683 C482 1602 548 1536 629 1536 C710 1536 776 1602 776 1683 C776 1764 710 1830 629 1830 C548 1830 482 1764 482 1683 L482 1683 Z M926 1683 C926 1602 992 1536 1073 1536 C1154 1536 1220 1602 1220 1683 C1220 1764 1154 1830 1073 1830 C992 1830 926 1764 926 1683 L926 1683 Z " />
<glyph glyph-name="multiply" unicode="&#xd7;" horiz-adv-x="1049" d="M969 380 L686 663 L969 947 L808 1108 L524 825 L241 1108 L80 947 L363 663 L80 380 L241 219 L524 502 L808 219 L969 380 Z " />
<glyph glyph-name="Oslash" unicode="&#xd8;" horiz-adv-x="1684" d="M842 -30 C1334 -30 1604 285 1604 717 C1604 1001 1486 1235 1265 1362 L1330 1495 L1103 1495 L1075 1437 C1004 1454 926 1464 842 1464 C350 1464 80 1148 80 717 C80 434 196 201 414 74 L349 -61 L576 -61 L604 -2 C676 -20 756 -30 842 -30 L842 -30 Z M842 196 C793 196 748 201 707 210 L1158 1140 C1274 1047 1330 896 1330 717 C1330 417 1173 196 842 196 L842 196 Z M354 717 C354 1017 511 1238 842 1238 C889 1238 932 1233 972 1225 L522 297 C409 390 354 539 354 717 L354 717 Z " />
<glyph glyph-name="Ugrave" unicode="&#xd9;" horiz-adv-x="1775" d="M745 1846 L462 1846 L776 1536 L996 1536 L745 1846 Z M530 631 L530 1208 L690 1208 L690 1434 L100 1434 L100 1208 L260 1208 L260 631 C260 221 452 -30 887 -30 C1323 -30 1515 221 1515 631 L1515 1208 L1675 1208 L1675 1434 L1085 1434 L1085 1208 L1245 1208 L1245 631 C1245 364 1156 196 887 196 C618 196 530 364 530 631 L530 631 Z " />
<glyph glyph-name="Uacute" unicode="&#xda;" horiz-adv-x="1775" d="M777 1536 L997 1536 L1311 1846 L1028 1846 L777 1536 Z M530 631 L530 1208 L690 1208 L690 1434 L100 1434 L100 1208 L260 1208 L260 631 C260 221 452 -30 887 -30 C1323 -30 1515 221 1515 631 L1515 1208 L1675 1208 L1675 1434 L1085 1434 L1085 1208 L1245 1208 L1245 631 C1245 364 1156 196 887 196 C618 196 530 364 530 631 L530 631 Z " />
<glyph glyph-name="Ucircumflex" unicode="&#xdb;" horiz-adv-x="1775" d="M960 1827 L814 1827 L533 1536 L741 1536 L887 1665 L1033 1536 L1241 1536 L960 1827 Z M530 631 L530 1208 L690 1208 L690 1434 L100 1434 L100 1208 L260 1208 L260 631 C260 221 452 -30 887 -30 C1323 -30 1515 221 1515 631 L1515 1208 L1675 1208 L1675 1434 L1085 1434 L1085 1208 L1245 1208 L1245 631 C1245 364 1156 196 887 196 C618 196 530 364 530 631 L530 631 Z " />
<glyph glyph-name="Udieresis" unicode="&#xdc;" horiz-adv-x="1775" d="M518 1683 C518 1602 584 1536 665 1536 C746 1536 812 1602 812 1683 C812 1764 746 1830 665 1830 C584 1830 518 1764 518 1683 L518 1683 Z M962 1683 C962 1602 1028 1536 1109 1536 C1190 1536 1256 1602 1256 1683 C1256 1764 1190 1830 1109 1830 C1028 1830 962 1764 962 1683 L962 1683 Z M530 631 L530 1208 L690 1208 L690 1434 L100 1434 L100 1208 L260 1208 L260 631 C260 221 452 -30 887 -30 C1323 -30 1515 221 1515 631 L1515 1208 L1675 1208 L1675 1434 L1085 1434 L1085 1208 L1245 1208 L1245 631 C1245 364 1156 196 887 196 C618 196 530 364 530 631 L530 631 Z " />
<glyph glyph-name="Yacute" unicode="&#xdd;" horiz-adv-x="1548" d="M665 1536 L885 1536 L1199 1846 L916 1846 L665 1536 Z M639 548 L639 226 L479 226 L479 0 L1069 0 L1069 226 L909 226 L909 547 L1358 1208 L1508 1208 L1508 1434 L918 1434 L918 1208 L1068 1208 L774 763 L479 1208 L630 1208 L630 1434 L40 1434 L40 1208 L190 1208 L639 548 Z " />
<glyph glyph-name="Thorn" unicode="&#xde;" horiz-adv-x="1233" d="M510 1208 L670 1208 L670 1434 L80 1434 L80 1208 L240 1208 L240 226 L80 226 L80 0 L670 0 L670 226 L510 226 L510 290 L745 290 C1015 290 1173 495 1173 720 C1173 949 1015 1152 745 1152 L510 1152 L510 1208 Z M745 925 C853 925 903 829 903 720 C903 614 853 516 745 516 L510 516 L510 925 L745 925 Z " />
<glyph glyph-name="germandbls" unicode="&#xdf;" horiz-adv-x="1438" d="M260 861 L260 209 L100 209 L100 0 L511 0 L511 861 C511 1183 635 1255 787 1255 C968 1255 1058 1179 1058 1051 C1058 926 982 848 843 845 L682 845 L682 636 L847 636 C974 636 1107 578 1107 389 C1107 283 1036 193 870 193 C772 193 691 210 619 239 L619 32 C681 2 770 -16 870 -16 C1195 -16 1358 144 1358 389 C1358 574 1242 689 1101 739 C1215 776 1309 901 1309 1051 C1309 1294 1108 1464 787 1464 C594 1464 260 1424 260 861 L260 861 Z " />
<glyph glyph-name="agrave" unicode="&#xe0;" horiz-adv-x="1277" d="M451 1434 L168 1434 L482 1124 L702 1124 L451 1434 Z M786 0 L1197 0 L1197 209 L1037 209 L1037 580 C1037 905 943 1042 583 1042 C426 1042 266 1007 149 940 L244 761 C343 806 474 833 583 833 C741 833 786 794 786 666 C425 705 60 630 60 317 C60 79 232 -20 454 -20 C605 -20 730 32 785 161 L786 0 Z M312 327 C312 520 651 512 786 504 L786 400 C789 292 674 189 494 189 C397 189 312 221 312 327 L312 327 Z " />
<glyph glyph-name="aacute" unicode="&#xe1;" horiz-adv-x="1277" d="M445 1124 L665 1124 L979 1434 L696 1434 L445 1124 Z M786 0 L1197 0 L1197 209 L1037 209 L1037 580 C1037 905 943 1042 583 1042 C426 1042 266 1007 149 940 L244 761 C343 806 474 833 583 833 C741 833 786 794 786 666 C425 705 60 630 60 317 C60 79 232 -20 454 -20 C605 -20 730 32 785 161 L786 0 Z M312 327 C312 520 651 512 786 504 L786 400 C789 292 674 189 494 189 C397 189 312 221 312 327 L312 327 Z " />
<glyph glyph-name="acircumflex" unicode="&#xe2;" horiz-adv-x="1277" d="M667 1434 L521 1434 L240 1143 L448 1143 L594 1272 L740 1143 L948 1143 L667 1434 Z M786 0 L1197 0 L1197 209 L1037 209 L1037 580 C1037 905 943 1042 583 1042 C426 1042 266 1007 149 940 L244 761 C343 806 474 833 583 833 C741 833 786 794 786 666 C425 705 60 630 60 317 C60 79 232 -20 454 -20 C605 -20 730 32 785 161 L786 0 Z M312 327 C312 520 651 512 786 504 L786 400 C789 292 674 189 494 189 C397 189 312 221 312 327 L312 327 Z " />
<glyph glyph-name="atilde" unicode="&#xe3;" horiz-adv-x="1277" d="M563 1247 C607 1212 657 1183 718 1183 C962 1183 953 1432 953 1432 L768 1432 C768 1432 770 1354 713 1354 C686 1354 658 1377 640 1390 C596 1425 546 1454 485 1454 C241 1454 250 1205 250 1205 L435 1205 C435 1205 433 1283 490 1283 C517 1283 545 1260 563 1247 L563 1247 Z M786 0 L1197 0 L1197 209 L1037 209 L1037 580 C1037 905 943 1042 583 1042 C426 1042 266 1007 149 940 L244 761 C343 806 474 833 583 833 C741 833 786 794 786 666 C425 705 60 630 60 317 C60 79 232 -20 454 -20 C605 -20 730 32 785 161 L786 0 Z M312 327 C312 520 651 512 786 504 L786 400 C789 292 674 189 494 189 C397 189 312 221 312 327 L312 327 Z " />
<glyph glyph-name="adieresis" unicode="&#xe4;" horiz-adv-x="1277" d="M224 1327 C224 1246 290 1180 371 1180 C452 1180 518 1246 518 1327 C518 1408 452 1474 371 1474 C290 1474 224 1408 224 1327 L224 1327 Z M668 1327 C668 1246 734 1180 815 1180 C896 1180 962 1246 962 1327 C962 1408 896 1474 815 1474 C734 1474 668 1408 668 1327 L668 1327 Z M786 0 L1197 0 L1197 209 L1037 209 L1037 580 C1037 905 943 1042 583 1042 C426 1042 266 1007 149 940 L244 761 C343 806 474 833 583 833 C741 833 786 794 786 666 C425 705 60 630 60 317 C60 79 232 -20 454 -20 C605 -20 730 32 785 161 L786 0 Z M312 327 C312 520 651 512 786 504 L786 400 C789 292 674 189 494 189 C397 189 312 221 312 327 L312 327 Z " />
<glyph glyph-name="aring" unicode="&#xe5;" horiz-adv-x="1277" d="M355 1390 C355 1265 457 1163 582 1163 C707 1163 809 1265 809 1390 C809 1515 707 1617 582 1617 C457 1617 355 1515 355 1390 L355 1390 Z M504 1390 C504 1433 539 1468 582 1468 C625 1468 660 1433 660 1390 C660 1347 625 1312 582 1312 C539 1312 504 1347 504 1390 L504 1390 Z M786 0 L1197 0 L1197 209 L1037 209 L1037 580 C1037 905 943 1042 583 1042 C426 1042 266 1007 149 940 L244 761 C343 806 474 833 583 833 C741 833 786 794 786 666 C425 705 60 630 60 317 C60 79 232 -20 454 -20 C605 -20 730 32 785 161 L786 0 Z M312 327 C312 520 651 512 786 504 L786 400 C789 292 674 189 494 189 C397 189 312 221 312 327 L312 327 Z " />
<glyph glyph-name="ae" unicode="&#xe6;" horiz-adv-x="1928" d="M583 833 C741 833 786 794 786 666 C425 705 60 630 60 317 C60 79 232 -20 454 -20 C616 -20 777 11 915 141 C1006 40 1144 -20 1326 -20 C1516 -20 1674 24 1796 145 L1644 296 C1575 238 1480 190 1326 189 C1122 188 1057 341 1057 413 L1866 413 C1886 821 1678 1042 1326 1042 C1169 1042 1045 996 956 920 C889 1004 773 1042 583 1042 C426 1042 266 1007 149 940 L244 761 C343 806 474 833 583 833 L583 833 Z M312 327 C312 520 651 512 786 504 L786 400 C789 292 674 189 494 189 C397 189 312 221 312 327 L312 327 Z M1057 610 C1057 684 1120 833 1326 833 C1532 833 1595 684 1595 610 L1057 610 Z " />
<glyph glyph-name="ccedilla" unicode="&#xe7;" horiz-adv-x="1152" d="M801 680 L1052 680 L1052 962 C1052 962 884 1042 630 1042 C282 1042 60 813 60 511 C60 243 235 32 518 -11 L445 -240 C577 -219 703 -209 693 -296 C682 -413 495 -366 427 -342 L381 -459 C567 -532 825 -521 846 -303 C860 -160 747 -113 637 -112 L668 -19 C817 -14 948 24 1052 127 L924 288 C835 218 738 189 630 189 C411 189 317 343 317 511 C317 679 411 833 630 833 C730 833 801 812 801 812 L801 680 Z " />
<glyph glyph-name="egrave" unicode="&#xe8;" horiz-adv-x="1202" d="M600 189 C396 188 331 341 331 413 L1140 413 C1160 821 952 1042 600 1042 C248 1042 60 813 60 511 C60 208 248 -20 600 -20 C790 -20 948 24 1070 145 L918 296 C849 238 754 190 600 189 L600 189 Z M331 610 C331 684 394 833 600 833 C806 833 869 684 869 610 L331 610 Z M478 1434 L195 1434 L509 1124 L729 1124 L478 1434 Z " />
<glyph glyph-name="eacute" unicode="&#xe9;" horiz-adv-x="1202" d="M600 189 C396 188 331 341 331 413 L1140 413 C1160 821 952 1042 600 1042 C248 1042 60 813 60 511 C60 208 248 -20 600 -20 C790 -20 948 24 1070 145 L918 296 C849 238 754 190 600 189 L600 189 Z M331 610 C331 684 394 833 600 833 C806 833 869 684 869 610 L331 610 Z M480 1124 L700 1124 L1014 1434 L731 1434 L480 1124 Z " />
<glyph glyph-name="ecircumflex" unicode="&#xea;" horiz-adv-x="1202" d="M600 189 C396 188 331 341 331 413 L1140 413 C1160 821 952 1042 600 1042 C248 1042 60 813 60 511 C60 208 248 -20 600 -20 C790 -20 948 24 1070 145 L918 296 C849 238 754 190 600 189 L600 189 Z M331 610 C331 684 394 833 600 833 C806 833 869 684 869 610 L331 610 Z M673 1434 L527 1434 L246 1143 L454 1143 L600 1272 L746 1143 L954 1143 L673 1434 Z " />
<glyph glyph-name="edieresis" unicode="&#xeb;" horiz-adv-x="1202" d="M600 189 C396 188 331 341 331 413 L1140 413 C1160 821 952 1042 600 1042 C248 1042 60 813 60 511 C60 208 248 -20 600 -20 C790 -20 948 24 1070 145 L918 296 C849 238 754 190 600 189 L600 189 Z M331 610 C331 684 394 833 600 833 C806 833 869 684 869 610 L331 610 Z M231 1327 C231 1246 297 1180 378 1180 C459 1180 525 1246 525 1327 C525 1408 459 1474 378 1474 C297 1474 231 1408 231 1327 L231 1327 Z M675 1327 C675 1246 741 1180 822 1180 C903 1180 969 1246 969 1327 C969 1408 903 1474 822 1474 C741 1474 675 1408 675 1327 L675 1327 Z " />
<glyph glyph-name="igrave" unicode="&#xec;" horiz-adv-x="828" d="M323 1434 L40 1434 L354 1124 L574 1124 L323 1434 Z M337 813 L337 209 L177 209 L177 0 L748 0 L748 209 L588 209 L588 1022 L177 1022 L177 813 L337 813 Z " />
<glyph glyph-name="iacute" unicode="&#xed;" horiz-adv-x="828" d="M254 1124 L474 1124 L788 1434 L505 1434 L254 1124 Z M240 813 L240 209 L80 209 L80 0 L651 0 L651 209 L491 209 L491 1022 L80 1022 L80 813 L240 813 Z " />
<glyph glyph-name="icircumflex" unicode="&#xee;" horiz-adv-x="788" d="M467 1434 L321 1434 L40 1143 L248 1143 L394 1272 L540 1143 L748 1143 L467 1434 Z M270 813 L270 209 L110 209 L110 0 L681 0 L681 209 L521 209 L521 1022 L110 1022 L110 813 L270 813 Z " />
<glyph glyph-name="idieresis" unicode="&#xef;" horiz-adv-x="818" d="M40 1327 C40 1246 106 1180 187 1180 C268 1180 334 1246 334 1327 C334 1408 268 1474 187 1474 C106 1474 40 1408 40 1327 L40 1327 Z M484 1327 C484 1246 550 1180 631 1180 C712 1180 778 1246 778 1327 C778 1408 712 1474 631 1474 C550 1474 484 1408 484 1327 L484 1327 Z M284 813 L284 209 L124 209 L124 0 L695 0 L695 209 L535 209 L535 1022 L124 1022 L124 813 L284 813 Z " />
<glyph glyph-name="eth" unicode="&#xf0;" horiz-adv-x="1242" d="M601 1086 L749 1205 C843 1114 902 1003 921 841 C857 960 728 1042 562 1042 C246 1042 60 813 60 511 C60 209 246 -20 592 -20 C964 -20 1162 220 1162 666 C1162 986 1050 1197 913 1337 L1027 1428 L901 1584 L753 1465 C636 1540 489 1581 438 1592 L365 1397 C439 1376 508 1351 572 1320 L476 1242 L601 1086 Z M612 190 C403 190 317 344 317 511 C317 678 403 832 612 832 C824 832 911 678 911 511 C911 344 824 190 612 190 L612 190 Z " />
<glyph glyph-name="ntilde" unicode="&#xf1;" horiz-adv-x="1477" d="M700 1247 C744 1212 794 1183 855 1183 C1099 1183 1090 1432 1090 1432 L905 1432 C905 1432 907 1354 850 1354 C823 1354 795 1377 777 1390 C733 1425 683 1454 622 1454 C378 1454 387 1205 387 1205 L572 1205 C572 1205 570 1283 627 1283 C654 1283 682 1260 700 1247 L700 1247 Z M240 813 L240 209 L80 209 L80 0 L651 0 L651 209 L491 209 L491 547 C491 723 574 833 739 833 C903 833 986 723 986 547 L986 0 L1397 0 L1397 209 L1237 209 L1237 547 C1237 871 1062 1042 779 1042 C672 1042 535 994 491 866 L491 1022 L80 1022 L80 813 L240 813 Z " />
<glyph glyph-name="ograve" unicode="&#xf2;" horiz-adv-x="1260" d="M1200 511 C1200 815 977 1042 630 1042 C282 1042 60 813 60 511 C60 209 282 -20 630 -20 C977 -20 1200 207 1200 511 L1200 511 Z M943 511 C943 343 849 189 630 189 C411 189 317 343 317 511 C317 679 411 833 630 833 C849 833 943 679 943 511 L943 511 Z M487 1434 L204 1434 L518 1124 L738 1124 L487 1434 Z " />
<glyph glyph-name="oacute" unicode="&#xf3;" horiz-adv-x="1260" d="M1200 511 C1200 815 977 1042 630 1042 C282 1042 60 813 60 511 C60 209 282 -20 630 -20 C977 -20 1200 207 1200 511 L1200 511 Z M943 511 C943 343 849 189 630 189 C411 189 317 343 317 511 C317 679 411 833 630 833 C849 833 943 679 943 511 L943 511 Z M515 1124 L735 1124 L1049 1434 L766 1434 L515 1124 Z " />
<glyph glyph-name="ocircumflex" unicode="&#xf4;" horiz-adv-x="1260" d="M1200 511 C1200 815 977 1042 630 1042 C282 1042 60 813 60 511 C60 209 282 -20 630 -20 C977 -20 1200 207 1200 511 L1200 511 Z M943 511 C943 343 849 189 630 189 C411 189 317 343 317 511 C317 679 411 833 630 833 C849 833 943 679 943 511 L943 511 Z M703 1434 L557 1434 L276 1143 L484 1143 L630 1272 L776 1143 L984 1143 L703 1434 Z " />
<glyph glyph-name="otilde" unicode="&#xf5;" horiz-adv-x="1260" d="M1200 511 C1200 815 977 1042 630 1042 C282 1042 60 813 60 511 C60 209 282 -20 630 -20 C977 -20 1200 207 1200 511 L1200 511 Z M943 511 C943 343 849 189 630 189 C411 189 317 343 317 511 C317 679 411 833 630 833 C849 833 943 679 943 511 L943 511 Z M592 1247 C636 1212 686 1183 747 1183 C991 1183 982 1432 982 1432 L797 1432 C797 1432 799 1354 742 1354 C715 1354 687 1377 669 1390 C625 1425 575 1454 514 1454 C270 1454 279 1205 279 1205 L464 1205 C464 1205 462 1283 519 1283 C546 1283 574 1260 592 1247 L592 1247 Z " />
<glyph glyph-name="odieresis" unicode="&#xf6;" horiz-adv-x="1260" d="M1200 511 C1200 815 977 1042 630 1042 C282 1042 60 813 60 511 C60 209 282 -20 630 -20 C977 -20 1200 207 1200 511 L1200 511 Z M943 511 C943 343 849 189 630 189 C411 189 317 343 317 511 C317 679 411 833 630 833 C849 833 943 679 943 511 L943 511 Z M261 1327 C261 1246 327 1180 408 1180 C489 1180 555 1246 555 1327 C555 1408 489 1474 408 1474 C327 1474 261 1408 261 1327 L261 1327 Z M705 1327 C705 1246 771 1180 852 1180 C933 1180 999 1246 999 1327 C999 1408 933 1474 852 1474 C771 1474 705 1408 705 1327 L705 1327 Z " />
<glyph glyph-name="divide" unicode="&#xf7;" horiz-adv-x="999" d="M80 565 L919 565 L919 794 L80 794 L80 565 Z M351 1022 C351 940 417 874 499 874 C581 874 648 940 648 1022 C648 1104 581 1171 499 1171 C417 1171 351 1104 351 1022 L351 1022 Z M351 336 C351 254 417 188 499 188 C581 188 648 254 648 336 C648 418 581 485 499 485 C417 485 351 418 351 336 L351 336 Z " />
<glyph glyph-name="oslash" unicode="&#xf8;" horiz-adv-x="1300" d="M1220 511 C1220 708 1126 872 966 964 L1024 1083 L832 1083 L804 1025 C756 1036 704 1042 650 1042 C302 1042 80 813 80 511 C80 315 173 149 334 57 L277 -61 L468 -61 L496 -3 C544 -14 595 -20 650 -20 C997 -20 1220 207 1220 511 L1220 511 Z M337 511 C337 679 431 833 650 833 C671 833 690 831 709 829 L434 263 C367 323 337 415 337 511 L337 511 Z M963 511 C963 343 869 189 650 189 C629 189 610 190 591 193 L866 758 C932 698 963 606 963 511 L963 511 Z " />
<glyph glyph-name="ugrave" unicode="&#xf9;" horiz-adv-x="1477" d="M585 1434 L302 1434 L616 1124 L836 1124 L585 1434 Z M986 475 C986 299 903 189 738 189 C574 189 491 299 491 475 L491 1022 L80 1022 L80 813 L240 813 L240 475 C240 151 415 -20 698 -20 C805 -20 942 28 986 156 L986 0 L1397 0 L1397 209 L1237 209 L1237 1022 L826 1022 L826 813 L986 813 L986 475 Z " />
<glyph glyph-name="uacute" unicode="&#xfa;" horiz-adv-x="1477" d="M601 1124 L821 1124 L1135 1434 L852 1434 L601 1124 Z M986 475 C986 299 903 189 738 189 C574 189 491 299 491 475 L491 1022 L80 1022 L80 813 L240 813 L240 475 C240 151 415 -20 698 -20 C805 -20 942 28 986 156 L986 0 L1397 0 L1397 209 L1237 209 L1237 1022 L826 1022 L826 813 L986 813 L986 475 Z " />
<glyph glyph-name="ucircumflex" unicode="&#xfb;" horiz-adv-x="1477" d="M811 1434 L665 1434 L384 1143 L592 1143 L738 1272 L884 1143 L1092 1143 L811 1434 Z M986 475 C986 299 903 189 738 189 C574 189 491 299 491 475 L491 1022 L80 1022 L80 813 L240 813 L240 475 C240 151 415 -20 698 -20 C805 -20 942 28 986 156 L986 0 L1397 0 L1397 209 L1237 209 L1237 1022 L826 1022 L826 813 L986 813 L986 475 Z " />
<glyph glyph-name="udieresis" unicode="&#xfc;" horiz-adv-x="1477" d="M370 1327 C370 1246 436 1180 517 1180 C598 1180 664 1246 664 1327 C664 1408 598 1474 517 1474 C436 1474 370 1408 370 1327 L370 1327 Z M814 1327 C814 1246 880 1180 961 1180 C1042 1180 1108 1246 1108 1327 C1108 1408 1042 1474 961 1474 C880 1474 814 1408 814 1327 L814 1327 Z M986 475 C986 299 903 189 738 189 C574 189 491 299 491 475 L491 1022 L80 1022 L80 813 L240 813 L240 475 C240 151 415 -20 698 -20 C805 -20 942 28 986 156 L986 0 L1397 0 L1397 209 L1237 209 L1237 1022 L826 1022 L826 813 L986 813 L986 475 Z " />
<glyph glyph-name="yacute" unicode="&#xfd;" horiz-adv-x="1409" d="M593 1124 L813 1124 L1127 1434 L844 1434 L593 1124 Z M1173 813 L1329 813 L1329 1022 L758 1022 L758 813 L912 813 L704 295 L496 813 L651 813 L651 1022 L80 1022 L80 813 L235 813 L583 0 L503 -191 C467 -268 431 -323 316 -323 L194 -323 L194 -532 L316 -532 C572 -532 639 -420 698 -295 L1173 813 Z " />
<glyph glyph-name="thorn" unicode="&#xfe;" horiz-adv-x="1402" d="M491 851 L491 1516 L80 1516 L80 1307 L240 1307 L240 -323 L80 -323 L80 -532 L651 -532 L651 -323 L491 -323 L491 171 C555 42 714 -20 840 -20 C1156 -20 1342 209 1342 511 C1342 813 1156 1042 840 1042 C714 1042 555 980 491 851 L491 851 Z M788 190 C576 190 491 344 491 511 C491 678 576 832 788 832 C1000 832 1085 678 1085 511 C1085 344 1000 190 788 190 L788 190 Z " />
<glyph glyph-name="ydieresis" unicode="&#xff;" horiz-adv-x="1409" d="M335 1327 C335 1246 401 1180 482 1180 C563 1180 629 1246 629 1327 C629 1408 563 1474 482 1474 C401 1474 335 1408 335 1327 L335 1327 Z M779 1327 C779 1246 845 1180 926 1180 C1007 1180 1073 1246 1073 1327 C1073 1408 1007 1474 926 1474 C845 1474 779 1408 779 1327 L779 1327 Z M1173 813 L1329 813 L1329 1022 L758 1022 L758 813 L912 813 L704 295 L496 813 L651 813 L651 1022 L80 1022 L80 813 L235 813 L583 0 L503 -191 C467 -268 431 -323 316 -323 L194 -323 L194 -532 L316 -532 C572 -532 639 -420 698 -295 L1173 813 Z " />
<glyph glyph-name="Amacron" unicode="&#x100;" horiz-adv-x="1651" d="M428 1535 L1222 1535 L1222 1724 L428 1724 L428 1535 Z M1176 226 L1021 226 L1021 0 L1611 0 L1611 226 L1455 226 L936 1434 L460 1434 L460 1208 L620 1208 L196 226 L40 226 L40 0 L630 0 L630 226 L474 226 L553 414 L1097 414 L1176 226 Z M825 1063 L1002 641 L648 641 L825 1063 Z " />
<glyph glyph-name="amacron" unicode="&#x101;" horiz-adv-x="1277" d="M166 1245 L960 1245 L960 1434 L166 1434 L166 1245 Z M786 0 L1197 0 L1197 209 L1037 209 L1037 580 C1037 905 943 1042 583 1042 C426 1042 266 1007 149 940 L244 761 C343 806 474 833 583 833 C741 833 786 794 786 666 C425 705 60 630 60 317 C60 79 232 -20 454 -20 C605 -20 730 32 785 161 L786 0 Z M312 327 C312 520 651 512 786 504 L786 400 C789 292 674 189 494 189 C397 189 312 221 312 327 L312 327 Z " />
<glyph glyph-name="Abreve" unicode="&#x102;" horiz-adv-x="1651" d="M825 1536 C1063 1536 1167 1689 1189 1782 L1007 1782 C973 1723 913 1690 825 1690 C737 1690 677 1723 643 1782 L461 1782 C483 1689 587 1536 825 1536 L825 1536 Z M1176 226 L1021 226 L1021 0 L1611 0 L1611 226 L1455 226 L936 1434 L460 1434 L460 1208 L620 1208 L196 226 L40 226 L40 0 L630 0 L630 226 L474 226 L553 414 L1097 414 L1176 226 Z M825 1063 L1002 641 L648 641 L825 1063 Z " />
<glyph glyph-name="abreve" unicode="&#x103;" horiz-adv-x="1277" d="M598 1188 C836 1188 940 1341 962 1434 L780 1434 C746 1375 686 1342 598 1342 C510 1342 450 1375 416 1434 L234 1434 C256 1341 360 1188 598 1188 L598 1188 Z M786 0 L1197 0 L1197 209 L1037 209 L1037 580 C1037 905 943 1042 583 1042 C426 1042 266 1007 149 940 L244 761 C343 806 474 833 583 833 C741 833 786 794 786 666 C425 705 60 630 60 317 C60 79 232 -20 454 -20 C605 -20 730 32 785 161 L786 0 Z M312 327 C312 520 651 512 786 504 L786 400 C789 292 674 189 494 189 C397 189 312 221 312 327 L312 327 Z " />
<glyph glyph-name="Aogonek" unicode="&#x104;" horiz-adv-x="1703" d="M1176 226 L1021 226 L1021 0 L1426 0 C1413 -4 1282 -52 1282 -207 C1282 -438 1541 -468 1663 -458 L1663 -251 C1663 -251 1481 -251 1481 -141 C1481 -34 1611 0 1611 0 L1611 226 L1455 226 L936 1434 L460 1434 L460 1208 L620 1208 L196 226 L40 226 L40 0 L630 0 L630 226 L474 226 L553 414 L1097 414 L1176 226 Z M825 1063 L1002 641 L648 641 L825 1063 Z " />
<glyph glyph-name="aogonek" unicode="&#x105;" horiz-adv-x="1329" d="M786 0 L1012 0 C999 -4 868 -52 868 -207 C868 -438 1127 -468 1249 -458 L1249 -251 C1249 -251 1067 -251 1067 -141 C1067 -34 1197 0 1197 0 L1197 209 L1037 209 L1037 580 C1037 905 943 1042 583 1042 C426 1042 266 1007 149 940 L244 761 C343 806 474 833 583 833 C741 833 786 794 786 666 C425 705 60 630 60 317 C60 79 232 -20 454 -20 C605 -20 730 32 785 161 L786 0 Z M312 327 C312 520 651 512 786 504 L786 400 C789 292 674 189 494 189 C397 189 312 221 312 327 L312 327 Z " />
<glyph glyph-name="Cacute" unicode="&#x106;" horiz-adv-x="1476" d="M730 1536 L950 1536 L1264 1846 L981 1846 L730 1536 Z M1106 1053 L1376 1053 L1376 1368 C1376 1368 1146 1464 842 1464 C350 1464 80 1149 80 717 C80 285 350 -30 842 -30 C1083 -30 1251 28 1376 136 L1247 314 C1152 250 1022 196 842 196 C511 196 354 417 354 717 C354 1017 511 1238 842 1238 C994 1238 1106 1207 1106 1207 L1106 1053 Z " />
<glyph glyph-name="cacute" unicode="&#x107;" horiz-adv-x="1152" d="M512 1124 L732 1124 L1046 1434 L763 1434 L512 1124 Z M801 680 L1052 680 L1052 962 C1052 962 884 1042 630 1042 C282 1042 60 813 60 511 C60 209 282 -20 630 -20 C795 -20 940 16 1052 127 L924 288 C835 218 738 189 630 189 C411 189 317 343 317 511 C317 679 411 833 630 833 C730 833 801 812 801 812 L801 680 Z " />
<glyph glyph-name="Ccircumflex" unicode="&#x108;" horiz-adv-x="1476" d="M901 1827 L755 1827 L474 1536 L682 1536 L828 1665 L974 1536 L1182 1536 L901 1827 Z M1106 1053 L1376 1053 L1376 1368 C1376 1368 1146 1464 842 1464 C350 1464 80 1149 80 717 C80 285 350 -30 842 -30 C1083 -30 1251 28 1376 136 L1247 314 C1152 250 1022 196 842 196 C511 196 354 417 354 717 C354 1017 511 1238 842 1238 C994 1238 1106 1207 1106 1207 L1106 1053 Z " />
<glyph glyph-name="ccircumflex" unicode="&#x109;" horiz-adv-x="1152" d="M678 1434 L532 1434 L251 1143 L459 1143 L605 1272 L751 1143 L959 1143 L678 1434 Z M801 680 L1052 680 L1052 962 C1052 962 884 1042 630 1042 C282 1042 60 813 60 511 C60 209 282 -20 630 -20 C795 -20 940 16 1052 127 L924 288 C835 218 738 189 630 189 C411 189 317 343 317 511 C317 679 411 833 630 833 C730 833 801 812 801 812 L801 680 Z " />
<glyph glyph-name="Cdotaccent" unicode="&#x10a;" horiz-adv-x="1476" d="M686 1703 C686 1622 752 1556 833 1556 C914 1556 980 1622 980 1703 C980 1784 914 1850 833 1850 C752 1850 686 1784 686 1703 L686 1703 Z M1106 1053 L1376 1053 L1376 1368 C1376 1368 1146 1464 842 1464 C350 1464 80 1149 80 717 C80 285 350 -30 842 -30 C1083 -30 1251 28 1376 136 L1247 314 C1152 250 1022 196 842 196 C511 196 354 417 354 717 C354 1017 511 1238 842 1238 C994 1238 1106 1207 1106 1207 L1106 1053 Z " />
<glyph glyph-name="cdotaccent" unicode="&#x10b;" horiz-adv-x="1152" d="M463 1327 C463 1246 529 1180 610 1180 C691 1180 757 1246 757 1327 C757 1408 691 1474 610 1474 C529 1474 463 1408 463 1327 L463 1327 Z M801 680 L1052 680 L1052 962 C1052 962 884 1042 630 1042 C282 1042 60 813 60 511 C60 209 282 -20 630 -20 C795 -20 940 16 1052 127 L924 288 C835 218 738 189 630 189 C411 189 317 343 317 511 C317 679 411 833 630 833 C730 833 801 812 801 812 L801 680 Z " />
<glyph glyph-name="Ccaron" unicode="&#x10c;" horiz-adv-x="1476" d="M1180 1827 L972 1827 L826 1698 L680 1827 L472 1827 L753 1536 L899 1536 L1180 1827 Z M1106 1053 L1376 1053 L1376 1368 C1376 1368 1146 1464 842 1464 C350 1464 80 1149 80 717 C80 285 350 -30 842 -30 C1083 -30 1251 28 1376 136 L1247 314 C1152 250 1022 196 842 196 C511 196 354 417 354 717 C354 1017 511 1238 842 1238 C994 1238 1106 1207 1106 1207 L1106 1053 Z " />
<glyph glyph-name="ccaron" unicode="&#x10d;" horiz-adv-x="1152" d="M970 1434 L762 1434 L616 1305 L470 1434 L262 1434 L543 1143 L689 1143 L970 1434 Z M801 680 L1052 680 L1052 962 C1052 962 884 1042 630 1042 C282 1042 60 813 60 511 C60 209 282 -20 630 -20 C795 -20 940 16 1052 127 L924 288 C835 218 738 189 630 189 C411 189 317 343 317 511 C317 679 411 833 630 833 C730 833 801 812 801 812 L801 680 Z " />
<glyph glyph-name="Dcaron" unicode="&#x10e;" horiz-adv-x="1592" d="M1048 1827 L840 1827 L694 1698 L548 1827 L340 1827 L621 1536 L767 1536 L1048 1827 Z M1532 717 C1532 1120 1307 1434 825 1434 L100 1434 L100 1208 L260 1208 L260 226 L100 226 L100 0 L825 0 C1307 0 1532 313 1532 717 L1532 717 Z M530 1208 L825 1208 C1135 1208 1259 975 1259 717 C1259 459 1135 226 825 226 L530 226 L530 1208 Z " />
<glyph glyph-name="dcaron" unicode="&#x10f;" horiz-adv-x="1449" d="M911 0 L1322 0 L1322 209 L1162 209 L1162 1516 L751 1516 L751 1307 L911 1307 L911 851 C847 980 688 1042 562 1042 C246 1042 60 813 60 511 C60 209 246 -20 562 -20 C688 -20 847 42 911 171 L911 0 Z M614 190 C402 190 317 344 317 511 C317 678 402 832 614 832 C826 832 911 678 911 511 C911 344 826 190 614 190 L614 190 Z M1210 1054 L1441 1054 L1570 1516 L1301 1516 L1210 1054 Z " />
<glyph glyph-name="Dcroat" unicode="&#x110;" horiz-adv-x="1660" d="M1600 717 C1600 1120 1375 1434 893 1434 L168 1434 L168 1208 L328 1208 L328 830 L100 830 L100 604 L328 604 L328 226 L168 226 L168 0 L893 0 C1375 0 1600 313 1600 717 L1600 717 Z M598 1208 L893 1208 C1203 1208 1327 975 1327 717 C1327 459 1203 226 893 226 L598 226 L598 604 L900 604 L900 830 L598 830 L598 1208 Z " />
<glyph glyph-name="dcroat" unicode="&#x111;" horiz-adv-x="1392" d="M911 0 L1322 0 L1322 209 L1162 209 L1162 1065 L1352 1065 L1352 1265 L1162 1265 L1162 1516 L751 1516 L751 1307 L911 1307 L911 1265 L629 1265 L629 1065 L911 1065 L911 851 C847 980 688 1042 562 1042 C246 1042 60 813 60 511 C60 209 246 -20 562 -20 C688 -20 847 42 911 171 L911 0 Z M614 190 C402 190 317 344 317 511 C317 678 402 832 614 832 C826 832 911 678 911 511 C911 344 826 190 614 190 L614 190 Z " />
<glyph glyph-name="Emacron" unicode="&#x112;" horiz-adv-x="1427" d="M327 1536 L1121 1536 L1121 1725 L327 1725 L327 1536 Z M100 0 L1327 0 L1327 381 L1057 381 L1057 226 L530 226 L530 618 L1087 618 L1087 844 L530 844 L530 1208 L1047 1208 L1047 1053 L1317 1053 L1317 1434 L100 1434 L100 1208 L260 1208 L260 226 L100 226 L100 0 Z " />
<glyph glyph-name="emacron" unicode="&#x113;" horiz-adv-x="1202" d="M600 189 C396 188 331 341 331 413 L1140 413 C1160 821 952 1042 600 1042 C248 1042 60 813 60 511 C60 208 248 -20 600 -20 C790 -20 948 24 1070 145 L918 296 C849 238 754 190 600 189 L600 189 Z M331 610 C331 684 394 833 600 833 C806 833 869 684 869 610 L331 610 Z M203 1245 L997 1245 L997 1434 L203 1434 L203 1245 Z " />
<glyph glyph-name="Ebreve" unicode="&#x114;" horiz-adv-x="1427" d="M693 1536 C931 1536 1035 1689 1057 1782 L875 1782 C841 1723 781 1690 693 1690 C605 1690 545 1723 511 1782 L329 1782 C351 1689 455 1536 693 1536 L693 1536 Z M100 0 L1327 0 L1327 381 L1057 381 L1057 226 L530 226 L530 618 L1087 618 L1087 844 L530 844 L530 1208 L1047 1208 L1047 1053 L1317 1053 L1317 1434 L100 1434 L100 1208 L260 1208 L260 226 L100 226 L100 0 Z " />
<glyph glyph-name="ebreve" unicode="&#x115;" horiz-adv-x="1202" d="M600 189 C396 188 331 341 331 413 L1140 413 C1160 821 952 1042 600 1042 C248 1042 60 813 60 511 C60 208 248 -20 600 -20 C790 -20 948 24 1070 145 L918 296 C849 238 754 190 600 189 L600 189 Z M331 610 C331 684 394 833 600 833 C806 833 869 684 869 610 L331 610 Z M600 1188 C838 1188 942 1341 964 1434 L782 1434 C748 1375 688 1342 600 1342 C512 1342 452 1375 418 1434 L236 1434 C258 1341 362 1188 600 1188 L600 1188 Z " />
<glyph glyph-name="Edotaccent" unicode="&#x116;" horiz-adv-x="1427" d="M556 1683 C556 1602 622 1536 703 1536 C784 1536 850 1602 850 1683 C850 1764 784 1830 703 1830 C622 1830 556 1764 556 1683 L556 1683 Z M100 0 L1327 0 L1327 381 L1057 381 L1057 226 L530 226 L530 618 L1087 618 L1087 844 L530 844 L530 1208 L1047 1208 L1047 1053 L1317 1053 L1317 1434 L100 1434 L100 1208 L260 1208 L260 226 L100 226 L100 0 Z " />
<glyph glyph-name="edotaccent" unicode="&#x117;" horiz-adv-x="1202" d="M600 189 C396 188 331 341 331 413 L1140 413 C1160 821 952 1042 600 1042 C248 1042 60 813 60 511 C60 208 248 -20 600 -20 C790 -20 948 24 1070 145 L918 296 C849 238 754 190 600 189 L600 189 Z M331 610 C331 684 394 833 600 833 C806 833 869 684 869 610 L331 610 Z M453 1327 C453 1246 519 1180 600 1180 C681 1180 747 1246 747 1327 C747 1408 681 1474 600 1474 C519 1474 453 1408 453 1327 L453 1327 Z " />
<glyph glyph-name="Eogonek" unicode="&#x118;" horiz-adv-x="1479" d="M100 0 L1142 0 C1129 -4 998 -52 998 -207 C998 -438 1257 -468 1379 -458 L1379 -251 C1379 -251 1197 -251 1197 -141 C1197 -34 1327 0 1327 0 L1327 381 L1057 381 L1057 226 L530 226 L530 618 L1087 618 L1087 844 L530 844 L530 1208 L1047 1208 L1047 1053 L1317 1053 L1317 1434 L100 1434 L100 1208 L260 1208 L260 226 L100 226 L100 0 Z " />
<glyph glyph-name="eogonek" unicode="&#x119;" horiz-adv-x="1202" d="M600 189 C396 188 331 341 331 413 L1140 413 C1160 821 952 1042 600 1042 C248 1042 60 813 60 511 C60 215 239 -8 574 -19 C531 -45 469 -101 469 -207 C469 -438 728 -468 850 -458 L850 -251 C850 -251 668 -251 668 -141 C668 -45 772 -7 794 -1 C900 22 992 68 1070 145 L918 296 C849 238 754 190 600 189 L600 189 Z M331 610 C331 684 394 833 600 833 C806 833 869 684 869 610 L331 610 Z " />
<glyph glyph-name="Ecaron" unicode="&#x11a;" horiz-adv-x="1427" d="M1067 1827 L859 1827 L713 1698 L567 1827 L359 1827 L640 1536 L786 1536 L1067 1827 Z M100 0 L1327 0 L1327 381 L1057 381 L1057 226 L530 226 L530 618 L1087 618 L1087 844 L530 844 L530 1208 L1047 1208 L1047 1053 L1317 1053 L1317 1434 L100 1434 L100 1208 L260 1208 L260 226 L100 226 L100 0 Z " />
<glyph glyph-name="ecaron" unicode="&#x11b;" horiz-adv-x="1202" d="M600 189 C396 188 331 341 331 413 L1140 413 C1160 821 952 1042 600 1042 C248 1042 60 813 60 511 C60 208 248 -20 600 -20 C790 -20 948 24 1070 145 L918 296 C849 238 754 190 600 189 L600 189 Z M331 610 C331 684 394 833 600 833 C806 833 869 684 869 610 L331 610 Z M954 1434 L746 1434 L600 1305 L454 1434 L246 1434 L527 1143 L673 1143 L954 1434 Z " />
<glyph glyph-name="Gcircumflex" unicode="&#x11c;" horiz-adv-x="1527" d="M905 1827 L759 1827 L478 1536 L686 1536 L832 1665 L978 1536 L1186 1536 L905 1827 Z M1157 1053 L1427 1053 L1427 1354 C1427 1354 1198 1464 842 1464 C350 1464 80 1148 80 717 C80 285 350 -30 842 -30 C1032 -30 1278 4 1427 139 L1427 822 L862 822 L862 596 L1157 596 L1157 267 C1092 228 972 196 842 196 C511 196 354 417 354 717 C354 1017 511 1238 842 1238 C1028 1238 1157 1203 1157 1203 L1157 1053 Z " />
<glyph glyph-name="gcircumflex" unicode="&#x11d;" horiz-adv-x="1382" d="M664 1434 L518 1434 L237 1143 L445 1143 L591 1272 L737 1143 L945 1143 L664 1434 Z M1142 0 L1142 813 L1302 813 L1302 1022 L891 1022 L891 851 C827 980 668 1042 542 1042 C226 1042 40 813 40 511 C40 209 226 -20 542 -20 C668 -20 827 42 891 171 L891 0 C891 -253 765 -322 576 -322 C436 -322 320 -286 229 -231 L100 -399 C212 -480 380 -532 576 -532 C883 -532 1142 -414 1142 0 L1142 0 Z M594 190 C382 190 297 344 297 511 C297 678 382 832 594 832 C806 832 891 678 891 511 C891 344 806 190 594 190 L594 190 Z " />
<glyph glyph-name="Gbreve" unicode="&#x11e;" horiz-adv-x="1527" d="M829 1535 C1067 1535 1171 1688 1193 1781 L1011 1781 C977 1722 917 1689 829 1689 C741 1689 681 1722 647 1781 L465 1781 C487 1688 591 1535 829 1535 L829 1535 Z M1157 1053 L1427 1053 L1427 1354 C1427 1354 1198 1464 842 1464 C350 1464 80 1148 80 717 C80 285 350 -30 842 -30 C1032 -30 1278 4 1427 139 L1427 822 L862 822 L862 596 L1157 596 L1157 267 C1092 228 972 196 842 196 C511 196 354 417 354 717 C354 1017 511 1238 842 1238 C1028 1238 1157 1203 1157 1203 L1157 1053 Z " />
<glyph glyph-name="gbreve" unicode="&#x11f;" horiz-adv-x="1402" d="M610 1188 C848 1188 952 1341 974 1434 L792 1434 C758 1375 698 1342 610 1342 C522 1342 462 1375 428 1434 L246 1434 C268 1341 372 1188 610 1188 L610 1188 Z M1162 0 L1162 813 L1322 813 L1322 1022 L911 1022 L911 851 C847 980 688 1042 562 1042 C246 1042 60 813 60 511 C60 209 246 -20 562 -20 C688 -20 847 42 911 171 L911 0 C911 -253 785 -322 596 -322 C456 -322 340 -286 249 -231 L120 -399 C232 -480 400 -532 596 -532 C903 -532 1162 -414 1162 0 L1162 0 Z M614 190 C402 190 317 344 317 511 C317 678 402 832 614 832 C826 832 911 678 911 511 C911 344 826 190 614 190 L614 190 Z " />
<glyph glyph-name="Gdotaccent" unicode="&#x120;" horiz-adv-x="1527" d="M695 1703 C695 1622 761 1556 842 1556 C923 1556 989 1622 989 1703 C989 1784 923 1850 842 1850 C761 1850 695 1784 695 1703 L695 1703 Z M1157 1053 L1427 1053 L1427 1354 C1427 1354 1198 1464 842 1464 C350 1464 80 1148 80 717 C80 285 350 -30 842 -30 C1032 -30 1278 4 1427 139 L1427 822 L862 822 L862 596 L1157 596 L1157 267 C1092 228 972 196 842 196 C511 196 354 417 354 717 C354 1017 511 1238 842 1238 C1028 1238 1157 1203 1157 1203 L1157 1053 Z " />
<glyph glyph-name="gdotaccent" unicode="&#x121;" horiz-adv-x="1242" d="M911 1022 L911 851 C847 980 688 1042 562 1042 C246 1042 60 813 60 511 C60 209 246 -20 562 -20 C688 -20 847 42 911 171 L911 0 C911 -253 785 -322 596 -322 C456 -322 340 -286 249 -231 L120 -399 C232 -480 400 -532 596 -532 C903 -532 1162 -414 1162 0 L1162 1022 L911 1022 Z M614 190 C402 190 317 344 317 511 C317 678 402 832 614 832 C826 832 911 678 911 511 C911 344 826 190 614 190 L614 190 Z M464 1327 C464 1246 530 1180 611 1180 C692 1180 758 1246 758 1327 C758 1408 692 1474 611 1474 C530 1474 464 1408 464 1327 L464 1327 Z " />
<glyph glyph-name="Gcommaaccent" unicode="&#x122;" horiz-adv-x="1527" d="M548 -532 L779 -532 L968 -130 L699 -130 L548 -532 Z M1157 1053 L1427 1053 L1427 1354 C1427 1354 1198 1464 842 1464 C350 1464 80 1148 80 717 C80 285 350 -30 842 -30 C1032 -30 1278 4 1427 139 L1427 822 L862 822 L862 596 L1157 596 L1157 267 C1092 228 972 196 842 196 C511 196 354 417 354 717 C354 1017 511 1238 842 1238 C1028 1238 1157 1203 1157 1203 L1157 1053 Z " />
<glyph glyph-name="gcommaaccent" unicode="&#x123;" horiz-adv-x="1402" d="M865 1516 L634 1516 L445 1114 L714 1114 L865 1516 Z M1162 0 L1162 813 L1322 813 L1322 1022 L911 1022 L911 851 C847 980 688 1042 562 1042 C246 1042 60 813 60 511 C60 209 246 -20 562 -20 C688 -20 847 42 911 171 L911 0 C911 -253 785 -322 596 -322 C456 -322 340 -286 249 -231 L120 -399 C232 -480 400 -532 596 -532 C903 -532 1162 -414 1162 0 L1162 0 Z M614 190 C402 190 317 344 317 511 C317 678 402 832 614 832 C826 832 911 678 911 511 C911 344 826 190 614 190 L614 190 Z " />
<glyph glyph-name="Hcircumflex" unicode="&#x124;" horiz-adv-x="1743" d="M530 1208 L690 1208 L690 1434 L100 1434 L100 1208 L260 1208 L260 226 L100 226 L100 0 L690 0 L690 226 L530 226 L530 618 L1213 618 L1213 226 L1053 226 L1053 0 L1643 0 L1643 226 L1483 226 L1483 1208 L1643 1208 L1643 1434 L1053 1434 L1053 1208 L1213 1208 L1213 844 L530 844 L530 1208 Z M944 1827 L798 1827 L517 1536 L725 1536 L871 1665 L1017 1536 L1225 1536 L944 1827 Z " />
<glyph glyph-name="hcircumflex" unicode="&#x125;" horiz-adv-x="1477" d="M811 1827 L665 1827 L384 1536 L592 1536 L738 1665 L884 1536 L1092 1536 L811 1827 Z M240 1307 L240 209 L80 209 L80 0 L651 0 L651 209 L491 209 L491 547 C491 723 574 833 739 833 C903 833 986 723 986 547 L986 0 L1397 0 L1397 209 L1237 209 L1237 547 C1237 871 1062 1042 779 1042 C672 1042 535 994 491 866 L491 1516 L80 1516 L80 1307 L240 1307 Z " />
<glyph glyph-name="Hbar" unicode="&#x126;" horiz-adv-x="1859" d="M588 1208 L748 1208 L748 1434 L158 1434 L158 1208 L318 1208 L318 1138 L100 1138 L100 930 L318 930 L318 226 L158 226 L158 0 L748 0 L748 226 L588 226 L588 618 L1271 618 L1271 226 L1111 226 L1111 0 L1701 0 L1701 226 L1541 226 L1541 930 L1759 930 L1759 1138 L1541 1138 L1541 1208 L1701 1208 L1701 1434 L1111 1434 L1111 1208 L1271 1208 L1271 1138 L588 1138 L588 1208 Z M588 844 L588 930 L1271 930 L1271 844 L588 844 Z " />
<glyph glyph-name="hbar" unicode="&#x127;" horiz-adv-x="1507" d="M521 866 L521 1067 L803 1067 L803 1267 L521 1267 L521 1516 L110 1516 L110 1307 L270 1307 L270 1267 L80 1267 L80 1067 L270 1067 L270 209 L110 209 L110 0 L681 0 L681 209 L521 209 L521 547 C521 723 604 833 769 833 C933 833 1016 723 1016 547 L1016 0 L1427 0 L1427 209 L1267 209 L1267 547 C1267 871 1092 1042 809 1042 C702 1042 565 994 521 866 L521 866 Z " />
<glyph glyph-name="Itilde" unicode="&#x128;" horiz-adv-x="825" d="M374 1600 C418 1565 468 1536 529 1536 C773 1536 764 1785 764 1785 L579 1785 C579 1785 581 1707 524 1707 C497 1707 469 1730 451 1743 C407 1778 357 1807 296 1807 C52 1807 61 1558 61 1558 L246 1558 C246 1558 244 1636 301 1636 C328 1636 356 1613 374 1600 L374 1600 Z M547 1208 L707 1208 L707 1434 L117 1434 L117 1208 L277 1208 L277 226 L117 226 L117 0 L707 0 L707 226 L547 226 L547 1208 Z " />
<glyph glyph-name="itilde" unicode="&#x129;" horiz-adv-x="785" d="M354 1247 C398 1212 448 1183 509 1183 C753 1183 744 1432 744 1432 L559 1432 C559 1432 561 1354 504 1354 C477 1354 449 1377 431 1390 C387 1425 337 1454 276 1454 C32 1454 41 1205 41 1205 L226 1205 C226 1205 224 1283 281 1283 C308 1283 336 1260 354 1247 L354 1247 Z M266 813 L266 209 L106 209 L106 0 L677 0 L677 209 L517 209 L517 1022 L106 1022 L106 813 L266 813 Z " />
<glyph glyph-name="uni012A" unicode="&#x12a;" horiz-adv-x="914" d="M60 1536 L854 1536 L854 1725 L60 1725 L60 1536 Z M592 1208 L752 1208 L752 1434 L162 1434 L162 1208 L322 1208 L322 226 L162 226 L162 0 L752 0 L752 226 L592 226 L592 1208 Z " />
<glyph glyph-name="imacron" unicode="&#x12b;" horiz-adv-x="814" d="M10 1245 L804 1245 L804 1434 L10 1434 L10 1245 Z M282 813 L282 209 L122 209 L122 0 L693 0 L693 209 L533 209 L533 1022 L122 1022 L122 813 L282 813 Z " />
<glyph glyph-name="Ibreve" unicode="&#x12c;" horiz-adv-x="848" d="M424 1536 C662 1536 766 1689 788 1782 L606 1782 C572 1723 512 1690 424 1690 C336 1690 276 1723 242 1782 L60 1782 C82 1689 186 1536 424 1536 L424 1536 Z M559 1208 L719 1208 L719 1434 L129 1434 L129 1208 L289 1208 L289 226 L129 226 L129 0 L719 0 L719 226 L559 226 L559 1208 Z " />
<glyph glyph-name="uni012D" unicode="&#x12d;" horiz-adv-x="748" d="M374 1188 C612 1188 716 1341 738 1434 L556 1434 C522 1375 462 1342 374 1342 C286 1342 226 1375 192 1434 L10 1434 C32 1341 136 1188 374 1188 L374 1188 Z M249 813 L249 209 L89 209 L89 0 L660 0 L660 209 L500 209 L500 1022 L89 1022 L89 813 L249 813 Z " />
<glyph glyph-name="Iogonek" unicode="&#x12e;" horiz-adv-x="762" d="M490 1208 L650 1208 L650 1434 L60 1434 L60 1208 L220 1208 L220 226 L60 226 L60 0 L465 0 C452 -4 321 -52 321 -207 C321 -438 580 -468 702 -458 L702 -251 C702 -251 520 -251 520 -141 C520 -34 650 0 650 0 L650 226 L490 226 L490 1208 Z " />
<glyph glyph-name="iogonek" unicode="&#x12f;" horiz-adv-x="743" d="M240 813 L240 209 L80 209 L80 0 L466 0 C453 -4 322 -52 322 -207 C322 -438 581 -468 703 -458 L703 -251 C703 -251 521 -251 521 -141 C521 -34 651 0 651 0 L651 209 L491 209 L491 1022 L80 1022 L80 813 L240 813 Z M218 1327 C218 1246 284 1180 365 1180 C446 1180 512 1246 512 1327 C512 1408 446 1474 365 1474 C284 1474 218 1408 218 1327 L218 1327 Z " />
<glyph glyph-name="Idotaccent" unicode="&#x130;" horiz-adv-x="790" d="M248 1683 C248 1602 314 1536 395 1536 C476 1536 542 1602 542 1683 C542 1764 476 1830 395 1830 C314 1830 248 1764 248 1683 L248 1683 Z M530 1208 L690 1208 L690 1434 L100 1434 L100 1208 L260 1208 L260 226 L100 226 L100 0 L690 0 L690 226 L530 226 L530 1208 Z " />
<glyph glyph-name="dotlessi" unicode="&#x131;" horiz-adv-x="731" d="M240 813 L240 209 L80 209 L80 0 L651 0 L651 209 L491 209 L491 1022 L80 1022 L80 813 L240 813 Z " />
<glyph glyph-name="IJ" unicode="&#x132;" horiz-adv-x="2043" d="M804 294 C850 130 975 -30 1296 -30 C1623 -30 1783 133 1783 454 L1783 1208 L1943 1208 L1943 1434 L1353 1434 L1353 1208 L1513 1208 L1513 454 C1513 278 1454 196 1286 196 C1143 196 1083 286 1052 366 L804 294 Z M530 1208 L690 1208 L690 1434 L100 1434 L100 1208 L260 1208 L260 226 L100 226 L100 0 L690 0 L690 226 L530 226 L530 1208 Z " />
<glyph glyph-name="ij" unicode="&#x133;" horiz-adv-x="1305" d="M586 -485 C668 -524 757 -532 816 -532 C1123 -532 1184 -351 1184 0 L1184 1022 L773 1022 L773 813 L933 813 L933 0 C933 -175 929 -323 796 -323 C754 -323 710 -316 655 -294 L586 -485 Z M240 813 L240 209 L80 209 L80 0 L651 0 L651 209 L491 209 L491 1022 L80 1022 L80 813 L240 813 Z M218 1327 C218 1246 284 1180 365 1180 C446 1180 512 1246 512 1327 C512 1408 446 1474 365 1474 C284 1474 218 1408 218 1327 L218 1327 Z M911 1327 C911 1246 977 1180 1058 1180 C1139 1180 1205 1246 1205 1327 C1205 1408 1139 1474 1058 1474 C977 1474 911 1408 911 1327 L911 1327 Z " />
<glyph glyph-name="Jcircumflex" unicode="&#x134;" horiz-adv-x="1361" d="M980 1827 L834 1827 L553 1536 L761 1536 L907 1665 L1053 1536 L1261 1536 L980 1827 Z M1039 454 L1039 1208 L1199 1208 L1199 1434 L609 1434 L609 1208 L769 1208 L769 454 C769 278 710 196 542 196 C399 196 339 286 308 366 L60 294 C106 130 231 -30 552 -30 C879 -30 1039 133 1039 454 L1039 454 Z " />
<glyph glyph-name="jcircumflex" unicode="&#x135;" horiz-adv-x="661" d="M410 1434 L264 1434 L-17 1143 L191 1143 L337 1272 L483 1143 L691 1143 L410 1434 Z M-140 -485 C-58 -524 31 -532 90 -532 C397 -532 458 -351 458 0 L458 1022 L47 1022 L47 813 L207 813 L207 0 C207 -175 203 -323 70 -323 C28 -323 -16 -316 -71 -294 L-140 -485 Z " />
<glyph glyph-name="Kcommaaccent" unicode="&#x136;" horiz-adv-x="1572" d="M517 -532 L748 -532 L937 -130 L668 -130 L517 -532 Z M530 1208 L690 1208 L690 1434 L100 1434 L100 1208 L260 1208 L260 226 L100 226 L100 0 L690 0 L690 226 L530 226 L530 535 L691 667 L1131 0 L1472 0 L1472 226 L1312 226 L902 841 L1348 1208 L1472 1208 L1472 1434 L882 1434 L882 1208 L991 1208 L530 825 L530 1208 Z " />
<glyph glyph-name="kcommaaccent" unicode="&#x137;" horiz-adv-x="1361" d="M414 -532 L645 -532 L834 -130 L565 -130 L414 -532 Z M491 592 L491 1516 L80 1516 L80 1307 L240 1307 L240 209 L80 209 L80 0 L651 0 L651 209 L491 209 L491 325 L633 437 L994 0 L1281 0 L1281 209 L1129 209 L820 583 L1113 813 L1262 813 L1262 1022 L691 1022 L691 813 L773 813 L491 592 Z " />
<glyph glyph-name="kgreenlandic" unicode="&#x138;" horiz-adv-x="1564" d="M530 1208 L690 1208 L690 1434 L100 1434 L100 1208 L260 1208 L260 226 L100 226 L100 0 L690 0 L690 226 L530 226 L530 572 L632 658 C746 598 971 324 1064 0 L1464 0 L1464 226 L1304 226 C1170 510 986 736 820 832 C1003 989 1127 1178 1409 1181 L1409 1434 C987 1433 803 1134 530 898 L530 1208 Z " />
<glyph glyph-name="Lacute" unicode="&#x139;" horiz-adv-x="1353" d="M285 1536 L505 1536 L819 1846 L536 1846 L285 1536 Z M530 1208 L690 1208 L690 1434 L100 1434 L100 1208 L260 1208 L260 226 L100 226 L100 0 L1253 0 L1253 381 L983 381 L983 226 L530 226 L530 1208 Z " />
<glyph glyph-name="lacute" unicode="&#x13a;" horiz-adv-x="788" d="M214 1596 L434 1596 L748 1906 L465 1906 L214 1596 Z M200 1307 L200 209 L40 209 L40 0 L611 0 L611 209 L451 209 L451 1516 L40 1516 L40 1307 L200 1307 Z " />
<glyph glyph-name="Lcommaaccent" unicode="&#x13b;" horiz-adv-x="1353" d="M392 -532 L623 -532 L812 -130 L543 -130 L392 -532 Z M530 1208 L690 1208 L690 1434 L100 1434 L100 1208 L260 1208 L260 226 L100 226 L100 0 L1253 0 L1253 381 L983 381 L983 226 L530 226 L530 1208 Z " />
<glyph glyph-name="lcommaaccent" unicode="&#x13c;" horiz-adv-x="651" d="M41 -532 L272 -532 L461 -130 L192 -130 L41 -532 Z M200 1307 L200 209 L40 209 L40 0 L611 0 L611 209 L451 209 L451 1516 L40 1516 L40 1307 L200 1307 Z " />
<glyph glyph-name="Lcaron" unicode="&#x13d;" horiz-adv-x="1353" d="M530 1208 L690 1208 L690 1434 L100 1434 L100 1208 L260 1208 L260 226 L100 226 L100 0 L1253 0 L1253 381 L983 381 L983 226 L530 226 L530 1208 Z M702 972 L933 972 L1062 1434 L793 1434 L702 972 Z " />
<glyph glyph-name="lcaron" unicode="&#x13e;" horiz-adv-x="907" d="M200 1307 L200 209 L40 209 L40 0 L611 0 L611 209 L451 209 L451 1516 L40 1516 L40 1307 L200 1307 Z M499 1054 L730 1054 L859 1516 L590 1516 L499 1054 Z " />
<glyph glyph-name="Ldot" unicode="&#x13f;" horiz-adv-x="1353" d="M927 796 C927 714 993 648 1075 648 C1157 648 1224 714 1224 796 C1224 878 1157 945 1075 945 C993 945 927 878 927 796 L927 796 Z M530 1208 L690 1208 L690 1434 L100 1434 L100 1208 L260 1208 L260 226 L100 226 L100 0 L1253 0 L1253 381 L983 381 L983 226 L530 226 L530 1208 Z " />
<glyph glyph-name="ldot" unicode="&#x140;" horiz-adv-x="891" d="M240 1307 L240 209 L80 209 L80 0 L651 0 L651 209 L491 209 L491 1516 L80 1516 L80 1307 L240 1307 Z M648 803 C648 721 714 655 796 655 C878 655 945 721 945 803 C945 885 878 952 796 952 C714 952 648 885 648 803 L648 803 Z " />
<glyph glyph-name="Lslash" unicode="&#x141;" horiz-adv-x="1406" d="M583 1208 L743 1208 L743 1434 L153 1434 L153 1208 L313 1208 L313 796 L100 674 L100 411 L313 533 L313 226 L153 226 L153 0 L1306 0 L1306 381 L1036 381 L1036 226 L583 226 L583 687 L796 809 L796 1072 L583 950 L583 1208 Z " />
<glyph glyph-name="lslash" unicode="&#x142;" horiz-adv-x="796" d="M273 1307 L273 851 L80 712 L80 439 L273 578 L273 209 L113 209 L113 0 L684 0 L684 209 L524 209 L524 758 L716 897 L716 1170 L524 1031 L524 1516 L113 1516 L113 1307 L273 1307 Z " />
<glyph glyph-name="Nacute" unicode="&#x143;" horiz-adv-x="1777" d="M760 1536 L980 1536 L1294 1846 L1011 1846 L760 1536 Z M100 0 L690 0 L690 226 L530 226 L530 1059 L1173 0 L1517 0 L1517 1208 L1677 1208 L1677 1434 L1087 1434 L1087 1208 L1247 1208 L1247 375 L604 1434 L100 1434 L100 1208 L260 1208 L260 226 L100 226 L100 0 Z " />
<glyph glyph-name="nacute" unicode="&#x144;" horiz-adv-x="1477" d="M620 1124 L840 1124 L1154 1434 L871 1434 L620 1124 Z M240 813 L240 209 L80 209 L80 0 L651 0 L651 209 L491 209 L491 547 C491 723 574 833 739 833 C903 833 986 723 986 547 L986 0 L1397 0 L1397 209 L1237 209 L1237 547 C1237 871 1062 1042 779 1042 C672 1042 535 994 491 866 L491 1022 L80 1022 L80 813 L240 813 Z " />
<glyph glyph-name="Ncommaaccent" unicode="&#x145;" horiz-adv-x="1777" d="M606 -532 L837 -532 L1026 -130 L757 -130 L606 -532 Z M100 0 L690 0 L690 226 L530 226 L530 1059 L1173 0 L1517 0 L1517 1208 L1677 1208 L1677 1434 L1087 1434 L1087 1208 L1247 1208 L1247 375 L604 1434 L100 1434 L100 1208 L260 1208 L260 226 L100 226 L100 0 Z " />
<glyph glyph-name="ncommaaccent" unicode="&#x146;" horiz-adv-x="1477" d="M456 -532 L687 -532 L876 -130 L607 -130 L456 -532 Z M240 813 L240 209 L80 209 L80 0 L651 0 L651 209 L491 209 L491 547 C491 723 574 833 739 833 C903 833 986 723 986 547 L986 0 L1397 0 L1397 209 L1237 209 L1237 547 C1237 871 1062 1042 779 1042 C672 1042 535 994 491 866 L491 1022 L80 1022 L80 813 L240 813 Z " />
<glyph glyph-name="Ncaron" unicode="&#x147;" horiz-adv-x="1777" d="M1242 1827 L1034 1827 L888 1698 L742 1827 L534 1827 L815 1536 L961 1536 L1242 1827 Z M100 0 L690 0 L690 226 L530 226 L530 1059 L1173 0 L1517 0 L1517 1208 L1677 1208 L1677 1434 L1087 1434 L1087 1208 L1247 1208 L1247 375 L604 1434 L100 1434 L100 1208 L260 1208 L260 226 L100 226 L100 0 Z " />
<glyph glyph-name="ncaron" unicode="&#x148;" horiz-adv-x="1477" d="M1092 1434 L884 1434 L738 1305 L592 1434 L384 1434 L665 1143 L811 1143 L1092 1434 Z M240 813 L240 209 L80 209 L80 0 L651 0 L651 209 L491 209 L491 547 C491 723 574 833 739 833 C903 833 986 723 986 547 L986 0 L1397 0 L1397 209 L1237 209 L1237 547 C1237 871 1062 1042 779 1042 C672 1042 535 994 491 866 L491 1022 L80 1022 L80 813 L240 813 Z " />
<glyph glyph-name="napostrophe" unicode="&#x149;" horiz-adv-x="1648" d="M-20 1032 L211 1032 L400 1434 L131 1434 L-20 1032 Z M411 813 L411 209 L251 209 L251 0 L822 0 L822 209 L662 209 L662 547 C662 723 745 833 910 833 C1074 833 1157 723 1157 547 L1157 0 L1568 0 L1568 209 L1408 209 L1408 547 C1408 871 1233 1042 950 1042 C843 1042 706 994 662 866 L662 1022 L251 1022 L251 813 L411 813 Z " />
<glyph glyph-name="Eng" unicode="&#x14a;" horiz-adv-x="1777" d="M100 0 L690 0 L690 226 L530 226 L530 1059 L1173 0 L1247 0 L1247 -48 C1247 -184 1218 -306 1060 -306 C949 -306 884 -244 846 -196 L658 -333 C753 -476 885 -532 1070 -532 C1359 -532 1517 -369 1517 -48 L1517 1208 L1677 1208 L1677 1434 L1087 1434 L1087 1208 L1247 1208 L1247 375 L604 1434 L100 1434 L100 1208 L260 1208 L260 226 L100 226 L100 0 Z " />
<glyph glyph-name="eng" unicode="&#x14b;" horiz-adv-x="1337" d="M240 813 L240 209 L80 209 L80 0 L651 0 L651 209 L491 209 L491 547 C491 723 574 833 739 833 C903 833 986 723 986 547 L986 0 C986 -175 982 -323 849 -323 C807 -323 763 -316 708 -294 L639 -485 C721 -524 810 -532 869 -532 C1176 -532 1237 -351 1237 0 L1237 547 C1237 871 1062 1042 779 1042 C672 1042 535 994 491 866 L491 1022 L80 1022 L80 813 L240 813 Z " />
<glyph glyph-name="Omacron" unicode="&#x14c;" horiz-adv-x="1684" d="M842 -30 C1334 -30 1604 285 1604 717 C1604 1148 1334 1464 842 1464 C350 1464 80 1148 80 717 C80 285 350 -30 842 -30 L842 -30 Z M842 196 C511 196 354 417 354 717 C354 1017 511 1238 842 1238 C1173 1238 1330 1017 1330 717 C1330 417 1173 196 842 196 L842 196 Z M454 1536 L1248 1536 L1248 1725 L454 1725 L454 1536 Z " />
<glyph glyph-name="omacron" unicode="&#x14d;" horiz-adv-x="1260" d="M1200 511 C1200 815 977 1042 630 1042 C282 1042 60 813 60 511 C60 209 282 -20 630 -20 C977 -20 1200 207 1200 511 L1200 511 Z M943 511 C943 343 849 189 630 189 C411 189 317 343 317 511 C317 679 411 833 630 833 C849 833 943 679 943 511 L943 511 Z M233 1245 L1027 1245 L1027 1434 L233 1434 L233 1245 Z " />
<glyph glyph-name="Obreve" unicode="&#x14e;" horiz-adv-x="1684" d="M842 -30 C1334 -30 1604 285 1604 717 C1604 1148 1334 1464 842 1464 C350 1464 80 1148 80 717 C80 285 350 -30 842 -30 L842 -30 Z M842 196 C511 196 354 417 354 717 C354 1017 511 1238 842 1238 C1173 1238 1330 1017 1330 717 C1330 417 1173 196 842 196 L842 196 Z M851 1536 C1089 1536 1193 1689 1215 1782 L1033 1782 C999 1723 939 1690 851 1690 C763 1690 703 1723 669 1782 L487 1782 C509 1689 613 1536 851 1536 L851 1536 Z " />
<glyph glyph-name="obreve" unicode="&#x14f;" horiz-adv-x="1260" d="M1200 511 C1200 815 977 1042 630 1042 C282 1042 60 813 60 511 C60 209 282 -20 630 -20 C977 -20 1200 207 1200 511 L1200 511 Z M943 511 C943 343 849 189 630 189 C411 189 317 343 317 511 C317 679 411 833 630 833 C849 833 943 679 943 511 L943 511 Z M629 1188 C867 1188 971 1341 993 1434 L811 1434 C777 1375 717 1342 629 1342 C541 1342 481 1375 447 1434 L265 1434 C287 1341 391 1188 629 1188 L629 1188 Z " />
<glyph glyph-name="Ohungarumlaut" unicode="&#x150;" horiz-adv-x="1684" d="M842 -30 C1334 -30 1604 285 1604 717 C1604 1148 1334 1464 842 1464 C350 1464 80 1148 80 717 C80 285 350 -30 842 -30 L842 -30 Z M842 196 C511 196 354 417 354 717 C354 1017 511 1238 842 1238 C1173 1238 1330 1017 1330 717 C1330 417 1173 196 842 196 L842 196 Z M577 1536 L768 1536 L917 1878 L668 1878 L577 1536 Z M901 1536 L1092 1536 L1241 1878 L992 1878 L901 1536 Z " />
<glyph glyph-name="ohungarumlaut" unicode="&#x151;" horiz-adv-x="1260" d="M1200 511 C1200 815 977 1042 630 1042 C282 1042 60 813 60 511 C60 209 282 -20 630 -20 C977 -20 1200 207 1200 511 L1200 511 Z M943 511 C943 343 849 189 630 189 C411 189 317 343 317 511 C317 679 411 833 630 833 C849 833 943 679 943 511 L943 511 Z M375 1174 L566 1174 L715 1516 L466 1516 L375 1174 Z M699 1174 L890 1174 L1039 1516 L790 1516 L699 1174 Z " />
<glyph glyph-name="OE" unicode="&#x152;" horiz-adv-x="2213" d="M1067 0 L2133 0 L2133 381 L1863 381 L1863 226 L1336 226 L1336 618 L1893 618 L1893 844 L1336 844 L1336 1208 L1853 1208 L1853 1053 L2123 1053 L2123 1434 L1066 1434 C992 1453 911 1464 822 1464 C330 1464 60 1148 60 717 C60 285 330 -30 822 -30 C911 -30 993 -19 1067 0 L1067 0 Z M822 1238 C918 1238 999 1219 1066 1185 L1066 248 C999 215 918 196 822 196 C491 196 334 417 334 717 C334 1017 491 1238 822 1238 L822 1238 Z " />
<glyph glyph-name="oe" unicode="&#x153;" horiz-adv-x="2085" d="M1483 189 C1279 188 1214 341 1214 413 L2023 413 C2043 821 1835 1042 1483 1042 C1296 1042 1155 977 1064 871 C964 977 815 1042 630 1042 C282 1042 60 813 60 511 C60 209 282 -20 630 -20 C815 -20 964 44 1064 151 C1155 45 1295 -20 1483 -20 C1673 -20 1831 24 1953 145 L1801 296 C1732 238 1637 190 1483 189 L1483 189 Z M943 511 C943 343 849 189 630 189 C411 189 317 343 317 511 C317 679 411 833 630 833 C849 833 943 679 943 511 L943 511 Z M1214 610 C1214 684 1277 833 1483 833 C1689 833 1752 684 1752 610 L1214 610 Z " />
<glyph glyph-name="Racute" unicode="&#x154;" horiz-adv-x="1524" d="M603 1536 L823 1536 L1137 1846 L854 1846 L603 1536 Z M690 0 L690 226 L530 226 L530 530 L786 530 L1091 0 L1425 0 L1425 226 L1264 226 L1075 550 C1255 602 1405 729 1405 982 C1405 1259 1237 1434 867 1434 L100 1434 L100 1208 L260 1208 L260 226 L100 226 L100 0 L690 0 Z M530 1208 L867 1208 C1055 1208 1133 1140 1133 982 C1133 824 1055 756 867 756 L530 756 L530 1208 Z " />
<glyph glyph-name="racute" unicode="&#x155;" horiz-adv-x="1020" d="M476 1124 L696 1124 L1010 1434 L727 1434 L476 1124 Z M994 1001 C932 1029 860 1042 779 1042 C672 1042 535 994 491 866 L491 1022 L80 1022 L80 813 L240 813 L240 209 L80 209 L80 0 L651 0 L651 209 L491 209 L491 547 C491 723 564 833 739 833 C796 833 842 822 878 800 L994 1001 Z " />
<glyph glyph-name="Rcommaaccent" unicode="&#x156;" horiz-adv-x="1505" d="M488 -532 L719 -532 L908 -130 L639 -130 L488 -532 Z M690 0 L690 226 L530 226 L530 530 L786 530 L1091 0 L1425 0 L1425 226 L1264 226 L1075 550 C1255 602 1405 729 1405 982 C1405 1259 1237 1434 867 1434 L100 1434 L100 1208 L260 1208 L260 226 L100 226 L100 0 L690 0 Z M530 1208 L867 1208 C1055 1208 1133 1140 1133 982 C1133 824 1055 756 867 756 L530 756 L530 1208 Z " />
<glyph glyph-name="rcommaaccent" unicode="&#x157;" horiz-adv-x="1004" d="M86 -532 L317 -532 L506 -130 L237 -130 L86 -532 Z M994 1001 C932 1029 860 1042 779 1042 C672 1042 535 994 491 866 L491 1022 L80 1022 L80 813 L240 813 L240 209 L80 209 L80 0 L651 0 L651 209 L491 209 L491 547 C491 723 564 833 739 833 C796 833 842 822 878 800 L994 1001 Z " />
<glyph glyph-name="Rcaron" unicode="&#x158;" horiz-adv-x="1505" d="M1060 1827 L852 1827 L706 1698 L560 1827 L352 1827 L633 1536 L779 1536 L1060 1827 Z M690 0 L690 226 L530 226 L530 530 L786 530 L1091 0 L1425 0 L1425 226 L1264 226 L1075 550 C1255 602 1405 729 1405 982 C1405 1259 1237 1434 867 1434 L100 1434 L100 1208 L260 1208 L260 226 L100 226 L100 0 L690 0 Z M530 1208 L867 1208 C1055 1208 1133 1140 1133 982 C1133 824 1055 756 867 756 L530 756 L530 1208 Z " />
<glyph glyph-name="rcaron" unicode="&#x159;" horiz-adv-x="1004" d="M961 1434 L753 1434 L607 1305 L461 1434 L253 1434 L534 1143 L680 1143 L961 1434 Z M994 1001 C932 1029 860 1042 779 1042 C672 1042 535 994 491 866 L491 1022 L80 1022 L80 813 L240 813 L240 209 L80 209 L80 0 L651 0 L651 209 L491 209 L491 547 C491 723 564 833 739 833 C796 833 842 822 878 800 L994 1001 Z " />
<glyph glyph-name="Sacute" unicode="&#x15a;" horiz-adv-x="1372" d="M562 1536 L782 1536 L1096 1846 L813 1846 L562 1536 Z M390 398 L120 398 L120 124 C120 124 312 -30 701 -30 C1018 -30 1252 92 1252 392 C1252 641 1072 780 709 856 C503 900 404 953 404 1071 C404 1188 505 1238 667 1238 C802 1238 911 1213 911 1213 L911 1053 L1181 1053 L1181 1374 C1181 1374 962 1464 667 1464 C292 1464 132 1283 132 1071 C132 858 281 700 660 621 C890 573 980 501 980 392 C980 249 888 196 701 196 C508 196 390 250 390 250 L390 398 Z " />
<glyph glyph-name="sacute" unicode="&#x15b;" horiz-adv-x="1048" d="M393 1124 L613 1124 L927 1434 L644 1434 L393 1124 Z M668 712 L919 712 L919 974 C919 974 738 1042 501 1042 C193 1042 80 912 80 740 C80 562 199 466 489 412 C623 387 716 373 716 300 C716 228 668 189 523 189 C416 189 331 214 331 214 L331 320 L80 320 L80 80 C80 80 244 -20 523 -20 C793 -20 968 72 968 290 C968 507 808 571 534 623 C410 647 331 675 331 740 C331 803 384 833 501 833 C586 833 668 817 668 817 L668 712 Z " />
<glyph glyph-name="Scircumflex" unicode="&#x15c;" horiz-adv-x="1372" d="M742 1827 L596 1827 L315 1536 L523 1536 L669 1665 L815 1536 L1023 1536 L742 1827 Z M390 398 L120 398 L120 124 C120 124 312 -30 701 -30 C1018 -30 1252 92 1252 392 C1252 641 1072 780 709 856 C503 900 404 953 404 1071 C404 1188 505 1238 667 1238 C802 1238 911 1213 911 1213 L911 1053 L1181 1053 L1181 1374 C1181 1374 962 1464 667 1464 C292 1464 132 1283 132 1071 C132 858 281 700 660 621 C890 573 980 501 980 392 C980 249 888 196 701 196 C508 196 390 250 390 250 L390 398 Z " />
<glyph glyph-name="scircumflex" unicode="&#x15d;" horiz-adv-x="1048" d="M580 1434 L434 1434 L153 1143 L361 1143 L507 1272 L653 1143 L861 1143 L580 1434 Z M668 712 L919 712 L919 974 C919 974 738 1042 501 1042 C193 1042 80 912 80 740 C80 562 199 466 489 412 C623 387 716 373 716 300 C716 228 668 189 523 189 C416 189 331 214 331 214 L331 320 L80 320 L80 80 C80 80 244 -20 523 -20 C793 -20 968 72 968 290 C968 507 808 571 534 623 C410 647 331 675 331 740 C331 803 384 833 501 833 C586 833 668 817 668 817 L668 712 Z " />
<glyph glyph-name="Scedilla" unicode="&#x15e;" horiz-adv-x="1372" d="M390 398 L120 398 L120 124 C120 124 272 2 579 -24 L510 -240 C642 -219 768 -209 758 -296 C747 -413 560 -366 492 -342 L446 -459 C632 -532 890 -521 911 -303 C925 -160 812 -113 702 -112 L728 -30 C1031 -23 1252 100 1252 392 C1252 641 1072 780 709 856 C503 900 404 953 404 1071 C404 1188 505 1238 667 1238 C802 1238 911 1213 911 1213 L911 1053 L1181 1053 L1181 1374 C1181 1374 962 1464 667 1464 C292 1464 132 1283 132 1071 C132 858 281 700 660 621 C890 573 980 501 980 392 C980 249 888 196 701 196 C508 196 390 250 390 250 L390 398 Z " />
<glyph glyph-name="scedilla" unicode="&#x15f;" horiz-adv-x="1048" d="M668 712 L919 712 L919 974 C919 974 738 1042 501 1042 C193 1042 80 912 80 740 C80 562 199 466 489 412 C623 387 716 373 716 300 C716 228 668 189 523 189 C416 189 331 214 331 214 L331 320 L80 320 L80 80 C80 80 204 5 419 -15 L347 -240 C479 -219 605 -209 595 -296 C584 -413 397 -366 329 -342 L283 -459 C469 -532 727 -521 748 -303 C762 -160 649 -113 539 -112 L569 -19 C812 -9 968 84 968 290 C968 507 808 571 534 623 C410 647 331 675 331 740 C331 803 384 833 501 833 C586 833 668 817 668 817 L668 712 Z " />
<glyph glyph-name="Scaron" unicode="&#x160;" horiz-adv-x="1372" d="M1022 1827 L814 1827 L668 1698 L522 1827 L314 1827 L595 1536 L741 1536 L1022 1827 Z M390 398 L120 398 L120 124 C120 124 312 -30 701 -30 C1018 -30 1252 92 1252 392 C1252 641 1072 780 709 856 C503 900 404 953 404 1071 C404 1188 505 1238 667 1238 C802 1238 911 1213 911 1213 L911 1053 L1181 1053 L1181 1374 C1181 1374 962 1464 667 1464 C292 1464 132 1283 132 1071 C132 858 281 700 660 621 C890 573 980 501 980 392 C980 249 888 196 701 196 C508 196 390 250 390 250 L390 398 Z " />
<glyph glyph-name="scaron" unicode="&#x161;" horiz-adv-x="1048" d="M858 1434 L650 1434 L504 1305 L358 1434 L150 1434 L431 1143 L577 1143 L858 1434 Z M668 712 L919 712 L919 974 C919 974 738 1042 501 1042 C193 1042 80 912 80 740 C80 562 199 466 489 412 C623 387 716 373 716 300 C716 228 668 189 523 189 C416 189 331 214 331 214 L331 320 L80 320 L80 80 C80 80 244 -20 523 -20 C793 -20 968 72 968 290 C968 507 808 571 534 623 C410 647 331 675 331 740 C331 803 384 833 501 833 C586 833 668 817 668 817 L668 712 Z " />
<glyph glyph-name="Tcommaaccent" unicode="&#x162;" horiz-adv-x="1508" d="M467 -532 L698 -532 L887 -130 L618 -130 L467 -532 Z M889 1208 L1138 1208 L1138 1053 L1408 1053 L1408 1434 L100 1434 L100 1053 L370 1053 L370 1208 L619 1208 L619 226 L459 226 L459 0 L1049 0 L1049 226 L889 226 L889 1208 Z " />
<glyph glyph-name="tcommaaccent" unicode="&#x163;" horiz-adv-x="868" d="M40 813 L237 813 L237 451 C237 149 307 -20 595 -20 C664 -20 744 -12 828 25 L772 218 C729 198 687 189 635 189 C502 189 488 295 488 451 L488 813 L780 813 L780 1022 L488 1022 L488 1321 L237 1321 L237 1022 L40 1022 L40 813 Z M263 -532 L494 -532 L683 -130 L414 -130 L263 -532 Z " />
<glyph glyph-name="Tcaron" unicode="&#x164;" horiz-adv-x="1508" d="M1108 1827 L900 1827 L754 1698 L608 1827 L400 1827 L681 1536 L827 1536 L1108 1827 Z M889 1208 L1138 1208 L1138 1053 L1408 1053 L1408 1434 L100 1434 L100 1053 L370 1053 L370 1208 L619 1208 L619 226 L459 226 L459 0 L1049 0 L1049 226 L889 226 L889 1208 Z " />
<glyph glyph-name="tcaron" unicode="&#x165;" horiz-adv-x="1252" d="M40 813 L237 813 L237 451 C237 149 307 -20 595 -20 C664 -20 744 -12 828 25 L772 218 C729 198 687 189 635 189 C502 189 488 295 488 451 L488 813 L780 813 L780 1022 L488 1022 L488 1321 L237 1321 L237 1022 L40 1022 L40 813 Z M780 1054 L1011 1054 L1140 1516 L871 1516 L780 1054 Z " />
<glyph glyph-name="Tbar" unicode="&#x166;" horiz-adv-x="1508" d="M316 696 L619 696 L619 226 L459 226 L459 0 L1049 0 L1049 226 L889 226 L889 696 L1192 696 L1192 922 L889 922 L889 1208 L1138 1208 L1138 1053 L1408 1053 L1408 1434 L100 1434 L100 1053 L370 1053 L370 1208 L619 1208 L619 922 L316 922 L316 696 Z " />
<glyph glyph-name="tbar" unicode="&#x167;" horiz-adv-x="868" d="M40 452 L237 452 L237 451 C237 149 307 -20 595 -20 C664 -20 744 -12 828 25 L772 218 C729 198 687 189 635 189 C502 189 488 295 488 451 L488 452 L780 452 L780 661 L488 661 L488 813 L780 813 L780 1022 L488 1022 L488 1321 L237 1321 L237 1022 L40 1022 L40 813 L237 813 L237 661 L40 661 L40 452 Z " />
<glyph glyph-name="Utilde" unicode="&#x168;" horiz-adv-x="1775" d="M849 1600 C893 1565 943 1536 1004 1536 C1248 1536 1239 1785 1239 1785 L1054 1785 C1054 1785 1056 1707 999 1707 C972 1707 944 1730 926 1743 C882 1778 832 1807 771 1807 C527 1807 536 1558 536 1558 L721 1558 C721 1558 719 1636 776 1636 C803 1636 831 1613 849 1600 L849 1600 Z M530 631 L530 1208 L690 1208 L690 1434 L100 1434 L100 1208 L260 1208 L260 631 C260 221 452 -30 887 -30 C1323 -30 1515 221 1515 631 L1515 1208 L1675 1208 L1675 1434 L1085 1434 L1085 1208 L1245 1208 L1245 631 C1245 364 1156 196 887 196 C618 196 530 364 530 631 L530 631 Z " />
<glyph glyph-name="utilde" unicode="&#x169;" horiz-adv-x="1477" d="M700 1247 C744 1212 794 1183 855 1183 C1099 1183 1090 1432 1090 1432 L905 1432 C905 1432 907 1354 850 1354 C823 1354 795 1377 777 1390 C733 1425 683 1454 622 1454 C378 1454 387 1205 387 1205 L572 1205 C572 1205 570 1283 627 1283 C654 1283 682 1260 700 1247 L700 1247 Z M986 475 C986 299 903 189 738 189 C574 189 491 299 491 475 L491 1022 L80 1022 L80 813 L240 813 L240 475 C240 151 415 -20 698 -20 C805 -20 942 28 986 156 L986 0 L1397 0 L1397 209 L1237 209 L1237 1022 L826 1022 L826 813 L986 813 L986 475 Z " />
<glyph glyph-name="Umacron" unicode="&#x16a;" horiz-adv-x="1775" d="M490 1536 L1284 1536 L1284 1725 L490 1725 L490 1536 Z M530 631 L530 1208 L690 1208 L690 1434 L100 1434 L100 1208 L260 1208 L260 631 C260 221 452 -30 887 -30 C1323 -30 1515 221 1515 631 L1515 1208 L1675 1208 L1675 1434 L1085 1434 L1085 1208 L1245 1208 L1245 631 C1245 364 1156 196 887 196 C618 196 530 364 530 631 L530 631 Z " />
<glyph glyph-name="umacron" unicode="&#x16b;" horiz-adv-x="1477" d="M341 1245 L1135 1245 L1135 1434 L341 1434 L341 1245 Z M986 475 C986 299 903 189 738 189 C574 189 491 299 491 475 L491 1022 L80 1022 L80 813 L240 813 L240 475 C240 151 415 -20 698 -20 C805 -20 942 28 986 156 L986 0 L1397 0 L1397 209 L1237 209 L1237 1022 L826 1022 L826 813 L986 813 L986 475 Z " />
<glyph glyph-name="Ubreve" unicode="&#x16c;" horiz-adv-x="1775" d="M887 1536 C1125 1536 1229 1689 1251 1782 L1069 1782 C1035 1723 975 1690 887 1690 C799 1690 739 1723 705 1782 L523 1782 C545 1689 649 1536 887 1536 L887 1536 Z M530 631 L530 1208 L690 1208 L690 1434 L100 1434 L100 1208 L260 1208 L260 631 C260 221 452 -30 887 -30 C1323 -30 1515 221 1515 631 L1515 1208 L1675 1208 L1675 1434 L1085 1434 L1085 1208 L1245 1208 L1245 631 C1245 364 1156 196 887 196 C618 196 530 364 530 631 L530 631 Z " />
<glyph glyph-name="ubreve" unicode="&#x16d;" horiz-adv-x="1477" d="M738 1188 C976 1188 1080 1341 1102 1434 L920 1434 C886 1375 826 1342 738 1342 C650 1342 590 1375 556 1434 L374 1434 C396 1341 500 1188 738 1188 L738 1188 Z M986 475 C986 299 903 189 738 189 C574 189 491 299 491 475 L491 1022 L80 1022 L80 813 L240 813 L240 475 C240 151 415 -20 698 -20 C805 -20 942 28 986 156 L986 0 L1397 0 L1397 209 L1237 209 L1237 1022 L826 1022 L826 813 L986 813 L986 475 Z " />
<glyph glyph-name="Uring" unicode="&#x16e;" horiz-adv-x="1775" d="M660 1763 C660 1638 762 1536 887 1536 C1012 1536 1114 1638 1114 1763 C1114 1888 1012 1990 887 1990 C762 1990 660 1888 660 1763 L660 1763 Z M809 1763 C809 1806 844 1841 887 1841 C930 1841 965 1806 965 1763 C965 1720 930 1685 887 1685 C844 1685 809 1720 809 1763 L809 1763 Z M530 631 L530 1208 L690 1208 L690 1434 L100 1434 L100 1208 L260 1208 L260 631 C260 221 452 -30 887 -30 C1323 -30 1515 221 1515 631 L1515 1208 L1675 1208 L1675 1434 L1085 1434 L1085 1208 L1245 1208 L1245 631 C1245 364 1156 196 887 196 C618 196 530 364 530 631 L530 631 Z " />
<glyph glyph-name="uring" unicode="&#x16f;" horiz-adv-x="1477" d="M511 1390 C511 1265 613 1163 738 1163 C863 1163 965 1265 965 1390 C965 1515 863 1617 738 1617 C613 1617 511 1515 511 1390 L511 1390 Z M660 1390 C660 1433 695 1468 738 1468 C781 1468 816 1433 816 1390 C816 1347 781 1312 738 1312 C695 1312 660 1347 660 1390 L660 1390 Z M986 475 C986 299 903 189 738 189 C574 189 491 299 491 475 L491 1022 L80 1022 L80 813 L240 813 L240 475 C240 151 415 -20 698 -20 C805 -20 942 28 986 156 L986 0 L1397 0 L1397 209 L1237 209 L1237 1022 L826 1022 L826 813 L986 813 L986 475 Z " />
<glyph glyph-name="Uhungarumlaut" unicode="&#x170;" horiz-adv-x="1775" d="M603 1536 L794 1536 L943 1878 L694 1878 L603 1536 Z M927 1536 L1118 1536 L1267 1878 L1018 1878 L927 1536 Z M530 631 L530 1208 L690 1208 L690 1434 L100 1434 L100 1208 L260 1208 L260 631 C260 221 452 -30 887 -30 C1323 -30 1515 221 1515 631 L1515 1208 L1675 1208 L1675 1434 L1085 1434 L1085 1208 L1245 1208 L1245 631 C1245 364 1156 196 887 196 C618 196 530 364 530 631 L530 631 Z " />
<glyph glyph-name="uhungarumlaut" unicode="&#x171;" horiz-adv-x="1477" d="M453 1174 L644 1174 L793 1516 L544 1516 L453 1174 Z M777 1174 L968 1174 L1117 1516 L868 1516 L777 1174 Z M986 475 C986 299 903 189 738 189 C574 189 491 299 491 475 L491 1022 L80 1022 L80 813 L240 813 L240 475 C240 151 415 -20 698 -20 C805 -20 942 28 986 156 L986 0 L1397 0 L1397 209 L1237 209 L1237 1022 L826 1022 L826 813 L986 813 L986 475 Z " />
<glyph glyph-name="Uogonek" unicode="&#x172;" horiz-adv-x="1775" d="M530 631 L530 1208 L690 1208 L690 1434 L100 1434 L100 1208 L260 1208 L260 631 C260 234 440 -13 846 -29 C805 -58 756 -113 756 -207 C756 -438 1015 -468 1137 -458 L1137 -251 C1137 -251 955 -251 955 -141 C955 -76 1002 -38 1039 -18 C1368 35 1515 272 1515 631 L1515 1208 L1675 1208 L1675 1434 L1085 1434 L1085 1208 L1245 1208 L1245 631 C1245 364 1156 196 887 196 C618 196 530 364 530 631 L530 631 Z " />
<glyph glyph-name="uogonek" unicode="&#x173;" horiz-adv-x="1529" d="M986 475 C986 299 903 189 738 189 C574 189 491 299 491 475 L491 1022 L80 1022 L80 813 L240 813 L240 475 C240 151 415 -20 698 -20 C805 -20 942 28 986 156 L986 0 L1212 0 C1199 -4 1068 -52 1068 -207 C1068 -438 1327 -468 1449 -458 L1449 -251 C1449 -251 1267 -251 1267 -141 C1267 -34 1397 0 1397 0 L1397 209 L1237 209 L1237 1022 L826 1022 L826 813 L986 813 L986 475 Z " />
<glyph glyph-name="Wcircumflex" unicode="&#x174;" horiz-adv-x="2210" d="M1178 1827 L1032 1827 L751 1536 L959 1536 L1105 1665 L1251 1536 L1459 1536 L1178 1827 Z M692 452 L477 1208 L630 1208 L630 1434 L40 1434 L40 1208 L191 1208 L563 0 L823 0 L1105 1062 L1387 0 L1647 0 L2018 1208 L2170 1208 L2170 1434 L1580 1434 L1580 1208 L1733 1208 L1518 452 L1252 1434 L958 1434 L692 452 Z " />
<glyph glyph-name="wcircumflex" unicode="&#x175;" horiz-adv-x="1896" d="M1021 1434 L875 1434 L594 1143 L802 1143 L948 1272 L1094 1143 L1302 1143 L1021 1434 Z M1816 813 L1816 1022 L1245 1022 L1245 813 L1401 813 L1266 321 L1075 1022 L821 1022 L630 321 L494 813 L651 813 L651 1022 L80 1022 L80 813 L239 813 L501 0 L767 0 L948 671 L1129 0 L1395 0 L1656 813 L1816 813 Z " />
<glyph glyph-name="Ycircumflex" unicode="&#x176;" horiz-adv-x="1548" d="M847 1827 L701 1827 L420 1536 L628 1536 L774 1665 L920 1536 L1128 1536 L847 1827 Z M639 548 L639 226 L479 226 L479 0 L1069 0 L1069 226 L909 226 L909 547 L1358 1208 L1508 1208 L1508 1434 L918 1434 L918 1208 L1068 1208 L774 763 L479 1208 L630 1208 L630 1434 L40 1434 L40 1208 L190 1208 L639 548 Z " />
<glyph glyph-name="ycircumflex" unicode="&#x177;" horiz-adv-x="1409" d="M777 1434 L631 1434 L350 1143 L558 1143 L704 1272 L850 1143 L1058 1143 L777 1434 Z M1173 813 L1329 813 L1329 1022 L758 1022 L758 813 L912 813 L704 295 L496 813 L651 813 L651 1022 L80 1022 L80 813 L235 813 L583 0 L503 -191 C467 -268 431 -323 316 -323 L194 -323 L194 -532 L316 -532 C572 -532 639 -420 698 -295 L1173 813 Z " />
<glyph glyph-name="Ydieresis" unicode="&#x178;" horiz-adv-x="1548" d="M405 1683 C405 1602 471 1536 552 1536 C633 1536 699 1602 699 1683 C699 1764 633 1830 552 1830 C471 1830 405 1764 405 1683 L405 1683 Z M849 1683 C849 1602 915 1536 996 1536 C1077 1536 1143 1602 1143 1683 C1143 1764 1077 1830 996 1830 C915 1830 849 1764 849 1683 L849 1683 Z M639 548 L639 226 L479 226 L479 0 L1069 0 L1069 226 L909 226 L909 547 L1358 1208 L1508 1208 L1508 1434 L918 1434 L918 1208 L1068 1208 L774 763 L479 1208 L630 1208 L630 1434 L40 1434 L40 1208 L190 1208 L639 548 Z " />
<glyph glyph-name="Zacute" unicode="&#x179;" horiz-adv-x="1387" d="M580 1536 L800 1536 L1114 1846 L831 1846 L580 1536 Z M1287 1434 L142 1434 L142 1053 L412 1053 L412 1208 L907 1208 L100 134 L100 0 L1287 0 L1287 381 L1017 381 L1017 226 L480 226 L1287 1300 L1287 1434 Z " />
<glyph glyph-name="zacute" unicode="&#x17a;" horiz-adv-x="1112" d="M449 1124 L669 1124 L983 1434 L700 1434 L449 1124 Z M112 680 L363 680 L363 813 L655 813 L80 125 L80 0 L1032 0 L1032 342 L781 342 L781 209 L457 209 L1032 897 L1032 1022 L112 1022 L112 680 Z " />
<glyph glyph-name="Zdotaccent" unicode="&#x17b;" horiz-adv-x="1387" d="M551 1683 C551 1602 617 1536 698 1536 C779 1536 845 1602 845 1683 C845 1764 779 1830 698 1830 C617 1830 551 1764 551 1683 L551 1683 Z M1287 1434 L142 1434 L142 1053 L412 1053 L412 1208 L907 1208 L100 134 L100 0 L1287 0 L1287 381 L1017 381 L1017 226 L480 226 L1287 1300 L1287 1434 Z " />
<glyph glyph-name="zdotaccent" unicode="&#x17c;" horiz-adv-x="1112" d="M414 1327 C414 1246 480 1180 561 1180 C642 1180 708 1246 708 1327 C708 1408 642 1474 561 1474 C480 1474 414 1408 414 1327 L414 1327 Z M112 680 L363 680 L363 813 L655 813 L80 125 L80 0 L1032 0 L1032 342 L781 342 L781 209 L457 209 L1032 897 L1032 1022 L112 1022 L112 680 Z " />
<glyph glyph-name="Zcaron" unicode="&#x17d;" horiz-adv-x="1387" d="M1052 1827 L844 1827 L698 1698 L552 1827 L344 1827 L625 1536 L771 1536 L1052 1827 Z M1287 1434 L142 1434 L142 1053 L412 1053 L412 1208 L907 1208 L100 134 L100 0 L1287 0 L1287 381 L1017 381 L1017 226 L480 226 L1287 1300 L1287 1434 Z " />
<glyph glyph-name="zcaron" unicode="&#x17e;" horiz-adv-x="1112" d="M915 1434 L707 1434 L561 1305 L415 1434 L207 1434 L488 1143 L634 1143 L915 1434 Z M112 680 L363 680 L363 813 L655 813 L80 125 L80 0 L1032 0 L1032 342 L781 342 L781 209 L457 209 L1032 897 L1032 1022 L112 1022 L112 680 Z " />
<glyph glyph-name="longs" unicode="&#x17f;" horiz-adv-x="884" d="M261 209 L101 209 L101 0 L672 0 L672 209 L512 209 L512 1022 C513 1206 513 1327 657 1327 C701 1327 758 1319 802 1307 L874 1501 C803 1523 728 1536 637 1536 C338 1536 264 1356 261 1022 L261 209 Z " />
<glyph glyph-name="florin" unicode="&#x192;" horiz-adv-x="1102" d="M665 795 L908 795 L951 1022 L708 1022 L720 1086 C729 1129 739 1208 835 1208 L1021 1208 L1052 1434 L841 1434 C536 1434 488 1216 467 1114 L450 1022 L213 1022 L170 795 L405 795 L222 -184 C213 -227 203 -306 107 -306 L-79 -306 L-110 -532 L101 -532 C406 -532 454 -314 475 -212 L665 795 Z " />
<glyph glyph-name="Ohorn" unicode="&#x1a0;" horiz-adv-x="1713" d="M842 -30 C1334 -30 1604 285 1604 717 C1604 917 1545 1093 1433 1224 C1538 1275 1633 1375 1633 1568 L1364 1568 C1364 1427 1251 1401 1195 1397 C1095 1440 977 1464 842 1464 C350 1464 80 1148 80 717 C80 285 350 -30 842 -30 L842 -30 Z M842 196 C511 196 354 417 354 717 C354 1017 511 1238 842 1238 C1173 1238 1330 1017 1330 717 C1330 417 1173 196 842 196 L842 196 Z " />
<glyph glyph-name="ohorn" unicode="&#x1a1;" horiz-adv-x="1304" d="M1200 511 C1200 628 1167 733 1106 818 C1210 869 1294 970 1294 1172 L1043 1172 C1043 1043 990 995 909 983 C829 1021 735 1042 630 1042 C282 1042 60 813 60 511 C60 209 282 -20 630 -20 C977 -20 1200 207 1200 511 L1200 511 Z M943 511 C943 343 849 189 630 189 C411 189 317 343 317 511 C317 679 411 833 630 833 C849 833 943 679 943 511 L943 511 Z " />
<glyph glyph-name="Uhorn" unicode="&#x1af;" horiz-adv-x="1895" d="M530 631 L530 1208 L690 1208 L690 1434 L100 1434 L100 1208 L260 1208 L260 631 C260 221 452 -30 887 -30 C1323 -30 1515 221 1515 631 L1515 1208 C1584 1228 1795 1295 1795 1597 L1525 1597 C1525 1432 1438 1434 1407 1434 L1085 1434 L1085 1208 L1245 1208 L1245 631 C1245 364 1156 196 887 196 C618 196 530 364 530 631 L530 631 Z " />
<glyph glyph-name="uhorn" unicode="&#x1b0;" horiz-adv-x="1676" d="M986 475 C986 299 903 189 738 189 C574 189 491 299 491 475 L491 1022 L80 1022 L80 813 L240 813 L240 475 C240 151 415 -20 698 -20 C805 -20 942 28 986 156 L986 0 L1397 0 L1397 209 L1237 209 L1237 813 C1387 813 1596 893 1596 1173 L1357 1173 C1357 1020 1264 1022 1237 1022 L826 1022 L826 813 L986 813 L986 475 Z " />
<glyph glyph-name="uni01CD" unicode="&#x1cd;" horiz-adv-x="1651" d="M1179 1827 L971 1827 L825 1698 L679 1827 L471 1827 L752 1536 L898 1536 L1179 1827 Z M1176 226 L1021 226 L1021 0 L1611 0 L1611 226 L1455 226 L936 1434 L460 1434 L460 1208 L620 1208 L196 226 L40 226 L40 0 L630 0 L630 226 L474 226 L553 414 L1097 414 L1176 226 Z M825 1063 L1002 641 L648 641 L825 1063 Z " />
<glyph glyph-name="uni01CE" unicode="&#x1ce;" horiz-adv-x="1277" d="M932 1434 L724 1434 L578 1305 L432 1434 L224 1434 L505 1143 L651 1143 L932 1434 Z M786 0 L1197 0 L1197 209 L1037 209 L1037 580 C1037 905 943 1042 583 1042 C426 1042 266 1007 149 940 L244 761 C343 806 474 833 583 833 C741 833 786 794 786 666 C425 705 60 630 60 317 C60 79 232 -20 454 -20 C605 -20 730 32 785 161 L786 0 Z M312 327 C312 520 651 512 786 504 L786 400 C789 292 674 189 494 189 C397 189 312 221 312 327 L312 327 Z " />
<glyph glyph-name="uni01CF" unicode="&#x1cf;" horiz-adv-x="828" d="M768 1827 L560 1827 L414 1698 L268 1827 L60 1827 L341 1536 L487 1536 L768 1827 Z M548 1208 L708 1208 L708 1434 L118 1434 L118 1208 L278 1208 L278 226 L118 226 L118 0 L708 0 L708 226 L548 226 L548 1208 Z " />
<glyph glyph-name="uni01D0" unicode="&#x1d0;" horiz-adv-x="788" d="M748 1434 L540 1434 L394 1305 L248 1434 L40 1434 L321 1143 L467 1143 L748 1434 Z M269 813 L269 209 L109 209 L109 0 L680 0 L680 209 L520 209 L520 1022 L109 1022 L109 813 L269 813 Z " />
<glyph glyph-name="uni01D1" unicode="&#x1d1;" horiz-adv-x="1684" d="M842 -30 C1334 -30 1604 285 1604 717 C1604 1148 1334 1464 842 1464 C350 1464 80 1148 80 717 C80 285 350 -30 842 -30 L842 -30 Z M842 196 C511 196 354 417 354 717 C354 1017 511 1238 842 1238 C1173 1238 1330 1017 1330 717 C1330 417 1173 196 842 196 L842 196 Z M1205 1827 L997 1827 L851 1698 L705 1827 L497 1827 L778 1536 L924 1536 L1205 1827 Z " />
<glyph glyph-name="uni01D2" unicode="&#x1d2;" horiz-adv-x="1260" d="M1200 511 C1200 815 977 1042 630 1042 C282 1042 60 813 60 511 C60 209 282 -20 630 -20 C977 -20 1200 207 1200 511 L1200 511 Z M943 511 C943 343 849 189 630 189 C411 189 317 343 317 511 C317 679 411 833 630 833 C849 833 943 679 943 511 L943 511 Z M984 1434 L776 1434 L630 1305 L484 1434 L276 1434 L557 1143 L703 1143 L984 1434 Z " />
<glyph glyph-name="uni01D3" unicode="&#x1d3;" horiz-adv-x="1775" d="M1241 1827 L1033 1827 L887 1698 L741 1827 L533 1827 L814 1536 L960 1536 L1241 1827 Z M530 631 L530 1208 L690 1208 L690 1434 L100 1434 L100 1208 L260 1208 L260 631 C260 221 452 -30 887 -30 C1323 -30 1515 221 1515 631 L1515 1208 L1675 1208 L1675 1434 L1085 1434 L1085 1208 L1245 1208 L1245 631 C1245 364 1156 196 887 196 C618 196 530 364 530 631 L530 631 Z " />
<glyph glyph-name="uni01D4" unicode="&#x1d4;" horiz-adv-x="1477" d="M1092 1434 L884 1434 L738 1305 L592 1434 L384 1434 L665 1143 L811 1143 L1092 1434 Z M986 475 C986 299 903 189 738 189 C574 189 491 299 491 475 L491 1022 L80 1022 L80 813 L240 813 L240 475 C240 151 415 -20 698 -20 C805 -20 942 28 986 156 L986 0 L1397 0 L1397 209 L1237 209 L1237 1022 L826 1022 L826 813 L986 813 L986 475 Z " />
<glyph glyph-name="uni01D5" unicode="&#x1d5;" horiz-adv-x="1775" d="M517 1683 C517 1602 583 1536 664 1536 C745 1536 811 1602 811 1683 C811 1764 745 1830 664 1830 C583 1830 517 1764 517 1683 L517 1683 Z M961 1683 C961 1602 1027 1536 1108 1536 C1189 1536 1255 1602 1255 1683 C1255 1764 1189 1830 1108 1830 C1027 1830 961 1764 961 1683 L961 1683 Z M489 1892 L1283 1892 L1283 2081 L489 2081 L489 1892 Z M530 631 L530 1208 L690 1208 L690 1434 L100 1434 L100 1208 L260 1208 L260 631 C260 221 452 -30 887 -30 C1323 -30 1515 221 1515 631 L1515 1208 L1675 1208 L1675 1434 L1085 1434 L1085 1208 L1245 1208 L1245 631 C1245 364 1156 196 887 196 C618 196 530 364 530 631 L530 631 Z " />
<glyph glyph-name="uni01D6" unicode="&#x1d6;" horiz-adv-x="1477" d="M369 1327 C369 1246 435 1180 516 1180 C597 1180 663 1246 663 1327 C663 1408 597 1474 516 1474 C435 1474 369 1408 369 1327 L369 1327 Z M813 1327 C813 1246 879 1180 960 1180 C1041 1180 1107 1246 1107 1327 C1107 1408 1041 1474 960 1474 C879 1474 813 1408 813 1327 L813 1327 Z M341 1536 L1135 1536 L1135 1725 L341 1725 L341 1536 Z M986 475 C986 299 903 189 738 189 C574 189 491 299 491 475 L491 1022 L80 1022 L80 813 L240 813 L240 475 C240 151 415 -20 698 -20 C805 -20 942 28 986 156 L986 0 L1397 0 L1397 209 L1237 209 L1237 1022 L826 1022 L826 813 L986 813 L986 475 Z " />
<glyph glyph-name="uni01D7" unicode="&#x1d7;" horiz-adv-x="1775" d="M518 1683 C518 1602 584 1536 665 1536 C746 1536 812 1602 812 1683 C812 1764 746 1830 665 1830 C584 1830 518 1764 518 1683 L518 1683 Z M962 1683 C962 1602 1028 1536 1109 1536 C1190 1536 1256 1602 1256 1683 C1256 1764 1190 1830 1109 1830 C1028 1830 962 1764 962 1683 L962 1683 Z M763 1890 L983 1890 L1297 2200 L1014 2200 L763 1890 Z M530 631 L530 1208 L690 1208 L690 1434 L100 1434 L100 1208 L260 1208 L260 631 C260 221 452 -30 887 -30 C1323 -30 1515 221 1515 631 L1515 1208 L1675 1208 L1675 1434 L1085 1434 L1085 1208 L1245 1208 L1245 631 C1245 364 1156 196 887 196 C618 196 530 364 530 631 L530 631 Z " />
<glyph glyph-name="uni01D8" unicode="&#x1d8;" horiz-adv-x="1477" d="M370 1327 C370 1246 436 1180 517 1180 C598 1180 664 1246 664 1327 C664 1408 598 1474 517 1474 C436 1474 370 1408 370 1327 L370 1327 Z M814 1327 C814 1246 880 1180 961 1180 C1042 1180 1108 1246 1108 1327 C1108 1408 1042 1474 961 1474 C880 1474 814 1408 814 1327 L814 1327 Z M615 1534 L835 1534 L1149 1844 L866 1844 L615 1534 Z M986 475 C986 299 903 189 738 189 C574 189 491 299 491 475 L491 1022 L80 1022 L80 813 L240 813 L240 475 C240 151 415 -20 698 -20 C805 -20 942 28 986 156 L986 0 L1397 0 L1397 209 L1237 209 L1237 1022 L826 1022 L826 813 L986 813 L986 475 Z " />
<glyph glyph-name="uni01D9" unicode="&#x1d9;" horiz-adv-x="1775" d="M518 1683 C518 1602 584 1536 665 1536 C746 1536 812 1602 812 1683 C812 1764 746 1830 665 1830 C584 1830 518 1764 518 1683 L518 1683 Z M962 1683 C962 1602 1028 1536 1109 1536 C1190 1536 1256 1602 1256 1683 C1256 1764 1190 1830 1109 1830 C1028 1830 962 1764 962 1683 L962 1683 Z M530 631 L530 1208 L690 1208 L690 1434 L100 1434 L100 1208 L260 1208 L260 631 C260 221 452 -30 887 -30 C1323 -30 1515 221 1515 631 L1515 1208 L1675 1208 L1675 1434 L1085 1434 L1085 1208 L1245 1208 L1245 631 C1245 364 1156 196 887 196 C618 196 530 364 530 631 L530 631 Z " />
<glyph glyph-name="uni01DA" unicode="&#x1da;" horiz-adv-x="1477" d="M369 1327 C369 1246 435 1180 516 1180 C597 1180 663 1246 663 1327 C663 1408 597 1474 516 1474 C435 1474 369 1408 369 1327 L369 1327 Z M813 1327 C813 1246 879 1180 960 1180 C1041 1180 1107 1246 1107 1327 C1107 1408 1041 1474 960 1474 C879 1474 813 1408 813 1327 L813 1327 Z M986 475 C986 299 903 189 738 189 C574 189 491 299 491 475 L491 1022 L80 1022 L80 813 L240 813 L240 475 C240 151 415 -20 698 -20 C805 -20 942 28 986 156 L986 0 L1397 0 L1397 209 L1237 209 L1237 1022 L826 1022 L826 813 L986 813 L986 475 Z " />
<glyph glyph-name="uni01DB" unicode="&#x1db;" horiz-adv-x="1775" d="M752 2200 L469 2200 L783 1890 L1003 1890 L752 2200 Z M518 1683 C518 1602 584 1536 665 1536 C746 1536 812 1602 812 1683 C812 1764 746 1830 665 1830 C584 1830 518 1764 518 1683 L518 1683 Z M962 1683 C962 1602 1028 1536 1109 1536 C1190 1536 1256 1602 1256 1683 C1256 1764 1190 1830 1109 1830 C1028 1830 962 1764 962 1683 L962 1683 Z M530 631 L530 1208 L690 1208 L690 1434 L100 1434 L100 1208 L260 1208 L260 631 C260 221 452 -30 887 -30 C1323 -30 1515 221 1515 631 L1515 1208 L1675 1208 L1675 1434 L1085 1434 L1085 1208 L1245 1208 L1245 631 C1245 364 1156 196 887 196 C618 196 530 364 530 631 L530 631 Z " />
<glyph glyph-name="uni01DC" unicode="&#x1dc;" horiz-adv-x="1477" d="M603 1844 L320 1844 L634 1534 L854 1534 L603 1844 Z M369 1327 C369 1246 435 1180 516 1180 C597 1180 663 1246 663 1327 C663 1408 597 1474 516 1474 C435 1474 369 1408 369 1327 L369 1327 Z M813 1327 C813 1246 879 1180 960 1180 C1041 1180 1107 1246 1107 1327 C1107 1408 1041 1474 960 1474 C879 1474 813 1408 813 1327 L813 1327 Z M986 475 C986 299 903 189 738 189 C574 189 491 299 491 475 L491 1022 L80 1022 L80 813 L240 813 L240 475 C240 151 415 -20 698 -20 C805 -20 942 28 986 156 L986 0 L1397 0 L1397 209 L1237 209 L1237 1022 L826 1022 L826 813 L986 813 L986 475 Z " />
<glyph glyph-name="uni01DE" unicode="&#x1de;" horiz-adv-x="1651" d="M456 1683 C456 1602 522 1536 603 1536 C684 1536 750 1602 750 1683 C750 1764 684 1830 603 1830 C522 1830 456 1764 456 1683 L456 1683 Z M900 1683 C900 1602 966 1536 1047 1536 C1128 1536 1194 1602 1194 1683 C1194 1764 1128 1830 1047 1830 C966 1830 900 1764 900 1683 L900 1683 Z M428 1892 L1222 1892 L1222 2081 L428 2081 L428 1892 Z M1176 226 L1021 226 L1021 0 L1611 0 L1611 226 L1455 226 L936 1434 L460 1434 L460 1208 L620 1208 L196 226 L40 226 L40 0 L630 0 L630 226 L474 226 L553 414 L1097 414 L1176 226 Z M825 1063 L1002 641 L648 641 L825 1063 Z " />
<glyph glyph-name="uni01DF" unicode="&#x1df;" horiz-adv-x="1277" d="M224 1327 C224 1246 290 1180 371 1180 C452 1180 518 1246 518 1327 C518 1408 452 1474 371 1474 C290 1474 224 1408 224 1327 L224 1327 Z M668 1327 C668 1246 734 1180 815 1180 C896 1180 962 1246 962 1327 C962 1408 896 1474 815 1474 C734 1474 668 1408 668 1327 L668 1327 Z M196 1536 L990 1536 L990 1725 L196 1725 L196 1536 Z M786 0 L1197 0 L1197 209 L1037 209 L1037 580 C1037 905 943 1042 583 1042 C426 1042 266 1007 149 940 L244 761 C343 806 474 833 583 833 C741 833 786 794 786 666 C425 705 60 630 60 317 C60 79 232 -20 454 -20 C605 -20 730 32 785 161 L786 0 Z M312 327 C312 520 651 512 786 504 L786 400 C789 292 674 189 494 189 C397 189 312 221 312 327 L312 327 Z " />
<glyph glyph-name="uni01E0" unicode="&#x1e0;" horiz-adv-x="1651" d="M678 1683 C678 1602 744 1536 825 1536 C906 1536 972 1602 972 1683 C972 1764 906 1830 825 1830 C744 1830 678 1764 678 1683 L678 1683 Z M428 1892 L1222 1892 L1222 2081 L428 2081 L428 1892 Z M1176 226 L1021 226 L1021 0 L1611 0 L1611 226 L1455 226 L936 1434 L460 1434 L460 1208 L620 1208 L196 226 L40 226 L40 0 L630 0 L630 226 L474 226 L553 414 L1097 414 L1176 226 Z M825 1063 L1002 641 L648 641 L825 1063 Z " />
<glyph glyph-name="uni01E1" unicode="&#x1e1;" horiz-adv-x="1277" d="M446 1327 C446 1246 512 1180 593 1180 C674 1180 740 1246 740 1327 C740 1408 674 1474 593 1474 C512 1474 446 1408 446 1327 L446 1327 Z M196 1536 L990 1536 L990 1725 L196 1725 L196 1536 Z M786 0 L1197 0 L1197 209 L1037 209 L1037 580 C1037 905 943 1042 583 1042 C426 1042 266 1007 149 940 L244 761 C343 806 474 833 583 833 C741 833 786 794 786 666 C425 705 60 630 60 317 C60 79 232 -20 454 -20 C605 -20 730 32 785 161 L786 0 Z M312 327 C312 520 651 512 786 504 L786 400 C789 292 674 189 494 189 C397 189 312 221 312 327 L312 327 Z " />
<glyph glyph-name="uni01E2" unicode="&#x1e2;" horiz-adv-x="2208" d="M1013 1536 L1807 1536 L1807 1725 L1013 1725 L1013 1536 Z M1041 0 L2108 0 L2108 381 L1838 381 L1838 226 L1311 226 L1311 618 L1868 618 L1868 844 L1311 844 L1311 1208 L1828 1208 L1828 1053 L2098 1053 L2098 1434 L726 1434 L726 1208 L886 1208 L240 226 L100 226 L100 0 L690 0 L690 226 L550 226 L658 391 L1041 391 L1041 0 Z M1041 971 L1041 618 L808 618 L1041 971 Z " />
<glyph glyph-name="uni01E3" unicode="&#x1e3;" horiz-adv-x="1928" d="M583 833 C741 833 786 794 786 666 C425 705 60 630 60 317 C60 79 232 -20 454 -20 C616 -20 777 11 915 141 C1006 40 1144 -20 1326 -20 C1516 -20 1674 24 1796 145 L1644 296 C1575 238 1480 190 1326 189 C1122 188 1057 341 1057 413 L1866 413 C1886 821 1678 1042 1326 1042 C1169 1042 1045 996 956 920 C889 1004 773 1042 583 1042 C426 1042 266 1007 149 940 L244 761 C343 806 474 833 583 833 L583 833 Z M312 327 C312 520 651 512 786 504 L786 400 C789 292 674 189 494 189 C397 189 312 221 312 327 L312 327 Z M1057 610 C1057 684 1120 833 1326 833 C1532 833 1595 684 1595 610 L1057 610 Z M559 1245 L1353 1245 L1353 1434 L559 1434 L559 1245 Z " />
<glyph glyph-name="uni01E4" unicode="&#x1e4;" horiz-adv-x="1642" d="M1157 1053 L1427 1053 L1427 1354 C1427 1354 1198 1464 842 1464 C350 1464 80 1148 80 717 C80 285 350 -30 842 -30 C1032 -30 1278 4 1427 139 L1427 332 L1582 332 L1582 518 L1427 518 L1427 822 L862 822 L862 596 L1157 596 L1157 518 L862 518 L862 332 L1157 332 L1157 267 C1092 228 972 196 842 196 C511 196 354 417 354 717 C354 1017 511 1238 842 1238 C1028 1238 1157 1203 1157 1203 L1157 1053 Z " />
<glyph glyph-name="uni01E5" unicode="&#x1e5;" horiz-adv-x="1413" d="M1162 0 L1162 813 L1322 813 L1322 1022 L911 1022 L911 851 C847 980 688 1042 562 1042 C246 1042 60 813 60 511 C60 209 246 -20 562 -20 C688 -20 847 42 911 171 L911 0 C911 -23 910 -44 908 -64 L650 -64 L650 -234 L845 -234 C790 -299 703 -322 596 -322 C456 -322 340 -286 249 -231 L120 -399 C232 -480 400 -532 596 -532 C835 -532 1044 -460 1126 -234 L1333 -234 L1333 -64 L1159 -64 C1161 -43 1162 -22 1162 0 L1162 0 Z M614 190 C402 190 317 344 317 511 C317 678 402 832 614 832 C826 832 911 678 911 511 C911 344 826 190 614 190 L614 190 Z " />
<glyph glyph-name="Gcaron" unicode="&#x1e6;" horiz-adv-x="1527" d="M1192 1827 L984 1827 L838 1698 L692 1827 L484 1827 L765 1536 L911 1536 L1192 1827 Z M1157 1053 L1427 1053 L1427 1354 C1427 1354 1198 1464 842 1464 C350 1464 80 1148 80 717 C80 285 350 -30 842 -30 C1032 -30 1278 4 1427 139 L1427 822 L862 822 L862 596 L1157 596 L1157 267 C1092 228 972 196 842 196 C511 196 354 417 354 717 C354 1017 511 1238 842 1238 C1028 1238 1157 1203 1157 1203 L1157 1053 Z " />
<glyph glyph-name="gcaron" unicode="&#x1e7;" horiz-adv-x="1402" d="M965 1434 L757 1434 L611 1305 L465 1434 L257 1434 L538 1143 L684 1143 L965 1434 Z M1162 0 L1162 813 L1322 813 L1322 1022 L911 1022 L911 851 C847 980 688 1042 562 1042 C246 1042 60 813 60 511 C60 209 246 -20 562 -20 C688 -20 847 42 911 171 L911 0 C911 -253 785 -322 596 -322 C456 -322 340 -286 249 -231 L120 -399 C232 -480 400 -532 596 -532 C903 -532 1162 -414 1162 0 L1162 0 Z M614 190 C402 190 317 344 317 511 C317 678 402 832 614 832 C826 832 911 678 911 511 C911 344 826 190 614 190 L614 190 Z " />
<glyph glyph-name="uni01E8" unicode="&#x1e8;" horiz-adv-x="1572" d="M1141 1827 L933 1827 L787 1698 L641 1827 L433 1827 L714 1536 L860 1536 L1141 1827 Z M530 1208 L690 1208 L690 1434 L100 1434 L100 1208 L260 1208 L260 226 L100 226 L100 0 L690 0 L690 226 L530 226 L530 535 L691 667 L1131 0 L1472 0 L1472 226 L1312 226 L902 841 L1348 1208 L1472 1208 L1472 1434 L882 1434 L882 1208 L991 1208 L530 825 L530 1208 Z " />
<glyph glyph-name="uni01E9" unicode="&#x1e9;" horiz-adv-x="1361" d="M1038 1827 L830 1827 L684 1698 L538 1827 L330 1827 L611 1536 L757 1536 L1038 1827 Z M491 592 L491 1516 L80 1516 L80 1307 L240 1307 L240 209 L80 209 L80 0 L651 0 L651 209 L491 209 L491 325 L633 437 L994 0 L1281 0 L1281 209 L1129 209 L820 583 L1113 813 L1262 813 L1262 1022 L691 1022 L691 813 L773 813 L491 592 Z " />
<glyph glyph-name="uni01EA" unicode="&#x1ea;" horiz-adv-x="1684" d="M1087 0 C1422 88 1604 363 1604 717 C1604 1148 1334 1464 842 1464 C350 1464 80 1148 80 717 C80 285 350 -30 842 -30 L847 -30 C806 -59 758 -113 758 -207 C758 -438 1017 -468 1139 -458 L1139 -251 C1139 -251 957 -251 957 -141 C957 -45 1061 -7 1083 -1 C1083 -1 1084 0 1085 0 L1087 0 Z M842 196 C511 196 354 417 354 717 C354 1017 511 1238 842 1238 C1173 1238 1330 1017 1330 717 C1330 417 1173 196 842 196 L842 196 Z " />
<glyph glyph-name="uni01EB" unicode="&#x1eb;" horiz-adv-x="1260" d="M1200 511 C1200 815 977 1042 630 1042 C282 1042 60 813 60 511 C60 224 260 3 578 -18 C535 -44 471 -99 471 -207 C471 -438 730 -468 852 -458 L852 -251 C852 -251 670 -251 670 -141 C670 -42 779 -6 797 0 C1047 60 1200 259 1200 511 L1200 511 Z M943 511 C943 343 849 189 630 189 C411 189 317 343 317 511 C317 679 411 833 630 833 C849 833 943 679 943 511 L943 511 Z " />
<glyph glyph-name="uni01EC" unicode="&#x1ec;" horiz-adv-x="1684" d="M1087 0 C1422 88 1604 363 1604 717 C1604 1148 1334 1464 842 1464 C350 1464 80 1148 80 717 C80 285 350 -30 842 -30 L847 -30 C806 -59 758 -113 758 -207 C758 -438 1017 -468 1139 -458 L1139 -251 C1139 -251 957 -251 957 -141 C957 -34 1087 0 1087 0 L1087 0 Z M842 196 C511 196 354 417 354 717 C354 1017 511 1238 842 1238 C1173 1238 1330 1017 1330 717 C1330 417 1173 196 842 196 L842 196 Z M454 1536 L1248 1536 L1248 1725 L454 1725 L454 1536 Z " />
<glyph glyph-name="uni01ED" unicode="&#x1ed;" horiz-adv-x="1260" d="M1200 511 C1200 815 977 1042 630 1042 C282 1042 60 813 60 511 C60 224 260 3 578 -18 C535 -44 471 -99 471 -207 C471 -438 730 -468 852 -458 L852 -251 C852 -251 670 -251 670 -141 C670 -38 789 -3 799 0 C1048 61 1200 259 1200 511 L1200 511 Z M943 511 C943 343 849 189 630 189 C411 189 317 343 317 511 C317 679 411 833 630 833 C849 833 943 679 943 511 L943 511 Z M233 1245 L1027 1245 L1027 1434 L233 1434 L233 1245 Z " />
<glyph glyph-name="uni01F0" unicode="&#x1f0;" horiz-adv-x="666" d="M686 1434 L478 1434 L332 1305 L186 1434 L-22 1434 L259 1143 L405 1143 L686 1434 Z M-140 -485 C-58 -524 31 -532 90 -532 C397 -532 458 -351 458 0 L458 1022 L47 1022 L47 813 L207 813 L207 0 C207 -175 203 -323 70 -323 C28 -323 -16 -316 -71 -294 L-140 -485 Z " />
<glyph glyph-name="uni01F4" unicode="&#x1f4;" horiz-adv-x="1527" d="M738 1536 L958 1536 L1272 1846 L989 1846 L738 1536 Z M1157 1053 L1427 1053 L1427 1354 C1427 1354 1198 1464 842 1464 C350 1464 80 1148 80 717 C80 285 350 -30 842 -30 C1032 -30 1278 4 1427 139 L1427 822 L862 822 L862 596 L1157 596 L1157 267 C1092 228 972 196 842 196 C511 196 354 417 354 717 C354 1017 511 1238 842 1238 C1028 1238 1157 1203 1157 1203 L1157 1053 Z " />
<glyph glyph-name="uni01F5" unicode="&#x1f5;" horiz-adv-x="1402" d="M460 1124 L680 1124 L994 1434 L711 1434 L460 1124 Z M1162 0 L1162 813 L1322 813 L1322 1022 L911 1022 L911 851 C847 980 688 1042 562 1042 C246 1042 60 813 60 511 C60 209 246 -20 562 -20 C688 -20 847 42 911 171 L911 0 C911 -253 785 -322 596 -322 C456 -322 340 -286 249 -231 L120 -399 C232 -480 400 -532 596 -532 C903 -532 1162 -414 1162 0 L1162 0 Z M614 190 C402 190 317 344 317 511 C317 678 402 832 614 832 C826 832 911 678 911 511 C911 344 826 190 614 190 L614 190 Z " />
<glyph glyph-name="uni01F8" unicode="&#x1f8;" horiz-adv-x="1777" d="M776 1846 L493 1846 L807 1536 L1027 1536 L776 1846 Z M100 0 L690 0 L690 226 L530 226 L530 1059 L1173 0 L1517 0 L1517 1208 L1677 1208 L1677 1434 L1087 1434 L1087 1208 L1247 1208 L1247 375 L604 1434 L100 1434 L100 1208 L260 1208 L260 226 L100 226 L100 0 Z " />
<glyph glyph-name="uni01F9" unicode="&#x1f9;" horiz-adv-x="1477" d="M635 1434 L352 1434 L666 1124 L886 1124 L635 1434 Z M240 813 L240 209 L80 209 L80 0 L651 0 L651 209 L491 209 L491 547 C491 723 574 833 739 833 C903 833 986 723 986 547 L986 0 L1397 0 L1397 209 L1237 209 L1237 547 C1237 871 1062 1042 779 1042 C672 1042 535 994 491 866 L491 1022 L80 1022 L80 813 L240 813 Z " />
<glyph glyph-name="Aringacute" unicode="&#x1fa;" horiz-adv-x="1651" d="M599 1762 C599 1637 700 1536 825 1536 C950 1536 1052 1637 1052 1762 C1052 1842 1010 1912 948 1952 L1156 2152 L873 2152 L656 1913 C621 1873 599 1820 599 1762 L599 1762 Z M747 1762 C747 1805 782 1840 825 1840 C868 1840 903 1805 903 1762 C903 1719 868 1684 825 1684 C782 1684 747 1719 747 1762 L747 1762 Z M1176 226 L1021 226 L1021 0 L1611 0 L1611 226 L1455 226 L936 1434 L460 1434 L460 1208 L620 1208 L196 226 L40 226 L40 0 L630 0 L630 226 L474 226 L553 414 L1097 414 L1176 226 Z M825 1063 L1002 641 L648 641 L825 1063 Z " />
<glyph glyph-name="aringacute" unicode="&#x1fb;" horiz-adv-x="1277" d="M340 1389 C340 1264 441 1163 566 1163 C691 1163 793 1264 793 1389 C793 1469 751 1539 689 1579 L897 1779 L614 1779 L397 1540 C362 1500 340 1447 340 1389 L340 1389 Z M488 1389 C488 1432 523 1467 566 1467 C609 1467 644 1432 644 1389 C644 1346 609 1311 566 1311 C523 1311 488 1346 488 1389 L488 1389 Z M786 0 L1197 0 L1197 209 L1037 209 L1037 580 C1037 905 943 1042 583 1042 C426 1042 266 1007 149 940 L244 761 C343 806 474 833 583 833 C741 833 786 794 786 666 C425 705 60 630 60 317 C60 79 232 -20 454 -20 C605 -20 730 32 785 161 L786 0 Z M312 327 C312 520 651 512 786 504 L786 400 C789 292 674 189 494 189 C397 189 312 221 312 327 L312 327 Z " />
<glyph glyph-name="AEacute" unicode="&#x1fc;" horiz-adv-x="2208" d="M1078 1536 L1298 1536 L1612 1846 L1329 1846 L1078 1536 Z M1041 0 L2108 0 L2108 381 L1838 381 L1838 226 L1311 226 L1311 618 L1868 618 L1868 844 L1311 844 L1311 1208 L1828 1208 L1828 1053 L2098 1053 L2098 1434 L726 1434 L726 1208 L886 1208 L240 226 L100 226 L100 0 L690 0 L690 226 L550 226 L658 391 L1041 391 L1041 0 Z M1041 971 L1041 618 L808 618 L1041 971 Z " />
<glyph glyph-name="aeacute" unicode="&#x1fd;" horiz-adv-x="1928" d="M583 833 C741 833 786 794 786 666 C425 705 60 630 60 317 C60 79 232 -20 454 -20 C616 -20 777 11 915 141 C1006 40 1144 -20 1326 -20 C1516 -20 1674 24 1796 145 L1644 296 C1575 238 1480 190 1326 189 C1122 188 1057 341 1057 413 L1866 413 C1886 821 1678 1042 1326 1042 C1169 1042 1045 996 956 920 C889 1004 773 1042 583 1042 C426 1042 266 1007 149 940 L244 761 C343 806 474 833 583 833 L583 833 Z M312 327 C312 520 651 512 786 504 L786 400 C789 292 674 189 494 189 C397 189 312 221 312 327 L312 327 Z M1057 610 C1057 684 1120 833 1326 833 C1532 833 1595 684 1595 610 L1057 610 Z M860 1124 L1080 1124 L1394 1434 L1111 1434 L860 1124 Z " />
<glyph glyph-name="Oslashacute" unicode="&#x1fe;" horiz-adv-x="1684" d="M752 1536 L972 1536 L1286 1846 L1003 1846 L752 1536 Z M842 -30 C1334 -30 1604 285 1604 717 C1604 1001 1486 1235 1265 1362 L1330 1495 L1103 1495 L1075 1437 C1004 1454 926 1464 842 1464 C350 1464 80 1148 80 717 C80 434 196 201 414 74 L349 -61 L576 -61 L604 -2 C676 -20 756 -30 842 -30 L842 -30 Z M842 196 C793 196 748 201 707 210 L1158 1140 C1274 1047 1330 896 1330 717 C1330 417 1173 196 842 196 L842 196 Z M354 717 C354 1017 511 1238 842 1238 C889 1238 932 1233 972 1225 L522 297 C409 390 354 539 354 717 L354 717 Z " />
<glyph glyph-name="oslashacute" unicode="&#x1ff;" horiz-adv-x="1300" d="M537 1124 L757 1124 L1071 1434 L788 1434 L537 1124 Z M1220 511 C1220 708 1126 872 966 964 L1024 1083 L832 1083 L804 1025 C756 1036 704 1042 650 1042 C302 1042 80 813 80 511 C80 315 173 149 334 57 L277 -61 L468 -61 L496 -3 C544 -14 595 -20 650 -20 C997 -20 1220 207 1220 511 L1220 511 Z M337 511 C337 679 431 833 650 833 C671 833 690 831 709 829 L434 263 C367 323 337 415 337 511 L337 511 Z M963 511 C963 343 869 189 650 189 C629 189 610 190 591 193 L866 758 C932 698 963 606 963 511 L963 511 Z " />
<glyph glyph-name="uni0200" unicode="&#x200;" horiz-adv-x="1651" d="M1176 226 L1021 226 L1021 0 L1611 0 L1611 226 L1455 226 L936 1434 L460 1434 L460 1208 L620 1208 L196 226 L40 226 L40 0 L630 0 L630 226 L474 226 L553 414 L1097 414 L1176 226 Z M825 1063 L1002 641 L648 641 L825 1063 Z M472 1846 L189 1846 L503 1536 L723 1536 L472 1846 Z M820 1846 L537 1846 L851 1536 L1071 1536 L820 1846 Z " />
<glyph glyph-name="uni0201" unicode="&#x201;" horiz-adv-x="1360" d="M869 0 L1280 0 L1280 209 L1120 209 L1120 580 C1120 905 1026 1042 666 1042 C509 1042 349 1007 232 940 L327 761 C426 806 557 833 666 833 C824 833 869 794 869 666 C508 705 143 630 143 317 C143 79 315 -20 537 -20 C688 -20 813 32 868 161 L869 0 Z M395 327 C395 520 734 512 869 504 L869 400 C872 292 757 189 577 189 C480 189 395 221 395 327 L395 327 Z M343 1434 L60 1434 L374 1124 L594 1124 L343 1434 Z M691 1434 L408 1434 L722 1124 L942 1124 L691 1434 Z " />
<glyph glyph-name="uni0202" unicode="&#x202;" horiz-adv-x="1651" d="M825 1782 C587 1782 483 1629 461 1536 L643 1536 C677 1595 737 1628 825 1628 C913 1628 973 1595 1007 1536 L1189 1536 C1167 1629 1063 1782 825 1782 L825 1782 Z M1176 226 L1021 226 L1021 0 L1611 0 L1611 226 L1455 226 L936 1434 L460 1434 L460 1208 L620 1208 L196 226 L40 226 L40 0 L630 0 L630 226 L474 226 L553 414 L1097 414 L1176 226 Z M825 1063 L1002 641 L648 641 L825 1063 Z " />
<glyph glyph-name="uni0203" unicode="&#x203;" horiz-adv-x="1277" d="M572 1434 C334 1434 230 1281 208 1188 L390 1188 C424 1247 484 1280 572 1280 C660 1280 720 1247 754 1188 L936 1188 C914 1281 810 1434 572 1434 L572 1434 Z M786 0 L1197 0 L1197 209 L1037 209 L1037 580 C1037 905 943 1042 583 1042 C426 1042 266 1007 149 940 L244 761 C343 806 474 833 583 833 C741 833 786 794 786 666 C425 705 60 630 60 317 C60 79 232 -20 454 -20 C605 -20 730 32 785 161 L786 0 Z M312 327 C312 520 651 512 786 504 L786 400 C789 292 674 189 494 189 C397 189 312 221 312 327 L312 327 Z " />
<glyph glyph-name="uni0204" unicode="&#x204;" horiz-adv-x="1427" d="M100 0 L1327 0 L1327 381 L1057 381 L1057 226 L530 226 L530 618 L1087 618 L1087 844 L530 844 L530 1208 L1047 1208 L1047 1053 L1317 1053 L1317 1434 L100 1434 L100 1208 L260 1208 L260 226 L100 226 L100 0 Z M402 1846 L119 1846 L433 1536 L653 1536 L402 1846 Z M750 1846 L467 1846 L781 1536 L1001 1536 L750 1846 Z " />
<glyph glyph-name="uni0205" unicode="&#x205;" horiz-adv-x="1259" d="M657 189 C453 188 388 341 388 413 L1197 413 C1217 821 1009 1042 657 1042 C305 1042 117 813 117 511 C117 208 305 -20 657 -20 C847 -20 1005 24 1127 145 L975 296 C906 238 811 190 657 189 L657 189 Z M388 610 C388 684 451 833 657 833 C863 833 926 684 926 610 L388 610 Z M343 1434 L60 1434 L374 1124 L594 1124 L343 1434 Z M691 1434 L408 1434 L722 1124 L942 1124 L691 1434 Z " />
<glyph glyph-name="uni0206" unicode="&#x206;" horiz-adv-x="1427" d="M693 1792 C455 1792 351 1639 329 1546 L511 1546 C545 1605 605 1638 693 1638 C781 1638 841 1605 875 1546 L1057 1546 C1035 1639 931 1792 693 1792 L693 1792 Z M100 0 L1327 0 L1327 381 L1057 381 L1057 226 L530 226 L530 618 L1087 618 L1087 844 L530 844 L530 1208 L1047 1208 L1047 1053 L1317 1053 L1317 1434 L100 1434 L100 1208 L260 1208 L260 226 L100 226 L100 0 Z " />
<glyph glyph-name="uni0207" unicode="&#x207;" horiz-adv-x="1202" d="M600 189 C396 188 331 341 331 413 L1140 413 C1160 821 952 1042 600 1042 C248 1042 60 813 60 511 C60 208 248 -20 600 -20 C790 -20 948 24 1070 145 L918 296 C849 238 754 190 600 189 L600 189 Z M331 610 C331 684 394 833 600 833 C806 833 869 684 869 610 L331 610 Z M600 1434 C362 1434 258 1281 236 1188 L418 1188 C452 1247 512 1280 600 1280 C688 1280 748 1247 782 1188 L964 1188 C942 1281 838 1434 600 1434 L600 1434 Z " />
<glyph glyph-name="uni0208" unicode="&#x208;" horiz-adv-x="924" d="M620 1208 L780 1208 L780 1434 L190 1434 L190 1208 L350 1208 L350 226 L190 226 L190 0 L780 0 L780 226 L620 226 L620 1208 Z M172 1846 L-111 1846 L203 1536 L423 1536 L172 1846 Z M520 1846 L237 1846 L551 1536 L771 1536 L520 1846 Z " />
<glyph glyph-name="uni0209" unicode="&#x209;" horiz-adv-x="805" d="M336 813 L336 209 L176 209 L176 0 L747 0 L747 209 L587 209 L587 1022 L176 1022 L176 813 L336 813 Z M130 1434 L-153 1434 L161 1124 L381 1124 L130 1434 Z M478 1434 L195 1434 L509 1124 L729 1124 L478 1434 Z " />
<glyph glyph-name="uni020A" unicode="&#x20a;" horiz-adv-x="848" d="M424 1782 C186 1782 82 1629 60 1536 L242 1536 C276 1595 336 1628 424 1628 C512 1628 572 1595 606 1536 L788 1536 C766 1629 662 1782 424 1782 L424 1782 Z M559 1208 L719 1208 L719 1434 L129 1434 L129 1208 L289 1208 L289 226 L129 226 L129 0 L719 0 L719 226 L559 226 L559 1208 Z " />
<glyph glyph-name="uni020B" unicode="&#x20b;" horiz-adv-x="808" d="M404 1434 C166 1434 62 1281 40 1188 L222 1188 C256 1247 316 1280 404 1280 C492 1280 552 1247 586 1188 L768 1188 C746 1281 642 1434 404 1434 L404 1434 Z M279 813 L279 209 L119 209 L119 0 L690 0 L690 209 L530 209 L530 1022 L119 1022 L119 813 L279 813 Z " />
<glyph glyph-name="uni020C" unicode="&#x20c;" horiz-adv-x="1684" d="M842 -30 C1334 -30 1604 285 1604 717 C1604 1148 1334 1464 842 1464 C350 1464 80 1148 80 717 C80 285 350 -30 842 -30 L842 -30 Z M842 196 C511 196 354 417 354 717 C354 1017 511 1238 842 1238 C1173 1238 1330 1017 1330 717 C1330 417 1173 196 842 196 L842 196 Z M523 1846 L240 1846 L554 1536 L774 1536 L523 1846 Z M871 1846 L588 1846 L902 1536 L1122 1536 L871 1846 Z " />
<glyph glyph-name="uni020D" unicode="&#x20d;" horiz-adv-x="1297" d="M1237 511 C1237 815 1014 1042 667 1042 C319 1042 97 813 97 511 C97 209 319 -20 667 -20 C1014 -20 1237 207 1237 511 L1237 511 Z M980 511 C980 343 886 189 667 189 C448 189 354 343 354 511 C354 679 448 833 667 833 C886 833 980 679 980 511 L980 511 Z M343 1434 L60 1434 L374 1124 L594 1124 L343 1434 Z M691 1434 L408 1434 L722 1124 L942 1124 L691 1434 Z " />
<glyph glyph-name="uni020E" unicode="&#x20e;" horiz-adv-x="1684" d="M842 -30 C1334 -30 1604 285 1604 717 C1604 1148 1334 1464 842 1464 C350 1464 80 1148 80 717 C80 285 350 -30 842 -30 L842 -30 Z M842 196 C511 196 354 417 354 717 C354 1017 511 1238 842 1238 C1173 1238 1330 1017 1330 717 C1330 417 1173 196 842 196 L842 196 Z M851 1782 C613 1782 509 1629 487 1536 L669 1536 C703 1595 763 1628 851 1628 C939 1628 999 1595 1033 1536 L1215 1536 C1193 1629 1089 1782 851 1782 L851 1782 Z " />
<glyph glyph-name="uni020F" unicode="&#x20f;" horiz-adv-x="1260" d="M1200 511 C1200 815 977 1042 630 1042 C282 1042 60 813 60 511 C60 209 282 -20 630 -20 C977 -20 1200 207 1200 511 L1200 511 Z M943 511 C943 343 849 189 630 189 C411 189 317 343 317 511 C317 679 411 833 630 833 C849 833 943 679 943 511 L943 511 Z M629 1434 C391 1434 287 1281 265 1188 L447 1188 C481 1247 541 1280 629 1280 C717 1280 777 1247 811 1188 L993 1188 C971 1281 867 1434 629 1434 L629 1434 Z " />
<glyph glyph-name="uni0210" unicode="&#x210;" horiz-adv-x="1505" d="M393 1846 L110 1846 L424 1536 L644 1536 L393 1846 Z M741 1846 L458 1846 L772 1536 L992 1536 L741 1846 Z M690 0 L690 226 L530 226 L530 530 L786 530 L1091 0 L1425 0 L1425 226 L1264 226 L1075 550 C1255 602 1405 729 1405 982 C1405 1259 1237 1434 867 1434 L100 1434 L100 1208 L260 1208 L260 226 L100 226 L100 0 L690 0 Z M530 1208 L867 1208 C1055 1208 1133 1140 1133 982 C1133 824 1055 756 867 756 L530 756 L530 1208 Z " />
<glyph glyph-name="uni0211" unicode="&#x211;" horiz-adv-x="1133" d="M1123 1001 C1061 1029 989 1042 908 1042 C801 1042 664 994 620 866 L620 1022 L209 1022 L209 813 L369 813 L369 209 L209 209 L209 0 L780 0 L780 209 L620 209 L620 547 C620 723 693 833 868 833 C925 833 971 822 1007 800 L1123 1001 Z M363 1434 L80 1434 L394 1124 L614 1124 L363 1434 Z M711 1434 L428 1434 L742 1124 L962 1124 L711 1434 Z " />
<glyph glyph-name="uni0212" unicode="&#x212;" horiz-adv-x="1505" d="M732 1782 C494 1782 390 1629 368 1536 L550 1536 C584 1595 644 1628 732 1628 C820 1628 880 1595 914 1536 L1096 1536 C1074 1629 970 1782 732 1782 L732 1782 Z M690 0 L690 226 L530 226 L530 530 L786 530 L1091 0 L1425 0 L1425 226 L1264 226 L1075 550 C1255 602 1405 729 1405 982 C1405 1259 1237 1434 867 1434 L100 1434 L100 1208 L260 1208 L260 226 L100 226 L100 0 L690 0 Z M530 1208 L867 1208 C1055 1208 1133 1140 1133 982 C1133 824 1055 756 867 756 L530 756 L530 1208 Z " />
<glyph glyph-name="uni0213" unicode="&#x213;" horiz-adv-x="1004" d="M596 1434 C358 1434 254 1281 232 1188 L414 1188 C448 1247 508 1280 596 1280 C684 1280 744 1247 778 1188 L960 1188 C938 1281 834 1434 596 1434 L596 1434 Z M994 1001 C932 1029 860 1042 779 1042 C672 1042 535 994 491 866 L491 1022 L80 1022 L80 813 L240 813 L240 209 L80 209 L80 0 L651 0 L651 209 L491 209 L491 547 C491 723 564 833 739 833 C796 833 842 822 878 800 L994 1001 Z " />
<glyph glyph-name="uni0214" unicode="&#x214;" horiz-adv-x="1775" d="M530 631 L530 1208 L690 1208 L690 1434 L100 1434 L100 1208 L260 1208 L260 631 C260 221 452 -30 887 -30 C1323 -30 1515 221 1515 631 L1515 1208 L1675 1208 L1675 1434 L1085 1434 L1085 1208 L1245 1208 L1245 631 C1245 364 1156 196 887 196 C618 196 530 364 530 631 L530 631 Z M573 1846 L290 1846 L604 1536 L824 1536 L573 1846 Z M921 1846 L638 1846 L952 1536 L1172 1536 L921 1846 Z " />
<glyph glyph-name="uni0215" unicode="&#x215;" horiz-adv-x="1477" d="M986 475 C986 299 903 189 738 189 C574 189 491 299 491 475 L491 1022 L80 1022 L80 813 L240 813 L240 475 C240 151 415 -20 698 -20 C805 -20 942 28 986 156 L986 0 L1397 0 L1397 209 L1237 209 L1237 1022 L826 1022 L826 813 L986 813 L986 475 Z M394 1434 L111 1434 L425 1124 L645 1124 L394 1434 Z M742 1434 L459 1434 L773 1124 L993 1124 L742 1434 Z " />
<glyph glyph-name="uni0216" unicode="&#x216;" horiz-adv-x="1775" d="M887 1782 C649 1782 545 1629 523 1536 L705 1536 C739 1595 799 1628 887 1628 C975 1628 1035 1595 1069 1536 L1251 1536 C1229 1629 1125 1782 887 1782 L887 1782 Z M530 631 L530 1208 L690 1208 L690 1434 L100 1434 L100 1208 L260 1208 L260 631 C260 221 452 -30 887 -30 C1323 -30 1515 221 1515 631 L1515 1208 L1675 1208 L1675 1434 L1085 1434 L1085 1208 L1245 1208 L1245 631 C1245 364 1156 196 887 196 C618 196 530 364 530 631 L530 631 Z " />
<glyph glyph-name="uni0217" unicode="&#x217;" horiz-adv-x="1477" d="M738 1434 C500 1434 396 1281 374 1188 L556 1188 C590 1247 650 1280 738 1280 C826 1280 886 1247 920 1188 L1102 1188 C1080 1281 976 1434 738 1434 L738 1434 Z M986 475 C986 299 903 189 738 189 C574 189 491 299 491 475 L491 1022 L80 1022 L80 813 L240 813 L240 475 C240 151 415 -20 698 -20 C805 -20 942 28 986 156 L986 0 L1397 0 L1397 209 L1237 209 L1237 1022 L826 1022 L826 813 L986 813 L986 475 Z " />
<glyph glyph-name="Scommaaccent" unicode="&#x218;" horiz-adv-x="1372" d="M386 -532 L617 -532 L806 -130 L537 -130 L386 -532 Z M390 398 L120 398 L120 124 C120 124 312 -30 701 -30 C1018 -30 1252 92 1252 392 C1252 641 1072 780 709 856 C503 900 404 953 404 1071 C404 1188 505 1238 667 1238 C802 1238 911 1213 911 1213 L911 1053 L1181 1053 L1181 1374 C1181 1374 962 1464 667 1464 C292 1464 132 1283 132 1071 C132 858 281 700 660 621 C890 573 980 501 980 392 C980 249 888 196 701 196 C508 196 390 250 390 250 L390 398 Z " />
<glyph glyph-name="scommaaccent" unicode="&#x219;" horiz-adv-x="1048" d="M207 -532 L438 -532 L627 -130 L358 -130 L207 -532 Z M668 712 L919 712 L919 974 C919 974 738 1042 501 1042 C193 1042 80 912 80 740 C80 562 199 466 489 412 C623 387 716 373 716 300 C716 228 668 189 523 189 C416 189 331 214 331 214 L331 320 L80 320 L80 80 C80 80 244 -20 523 -20 C793 -20 968 72 968 290 C968 507 808 571 534 623 C410 647 331 675 331 740 C331 803 384 833 501 833 C586 833 668 817 668 817 L668 712 Z " />
<glyph glyph-name="uni021A" unicode="&#x21a;" horiz-adv-x="1508" d="M889 1208 L1138 1208 L1138 1053 L1408 1053 L1408 1434 L100 1434 L100 1053 L370 1053 L370 1208 L619 1208 L619 226 L459 226 L459 0 L1049 0 L1049 226 L889 226 L889 1208 Z M468 -532 L699 -532 L888 -130 L619 -130 L468 -532 Z " />
<glyph glyph-name="uni021B" unicode="&#x21b;" horiz-adv-x="868" d="M40 813 L237 813 L237 451 C237 149 307 -20 595 -20 C664 -20 744 -12 828 25 L772 218 C729 198 687 189 635 189 C502 189 488 295 488 451 L488 813 L780 813 L780 1022 L488 1022 L488 1321 L237 1321 L237 1022 L40 1022 L40 813 Z M284 -532 L515 -532 L704 -130 L435 -130 L284 -532 Z " />
<glyph glyph-name="uni021E" unicode="&#x21e;" horiz-adv-x="1743" d="M1225 1827 L1017 1827 L871 1698 L725 1827 L517 1827 L798 1536 L944 1536 L1225 1827 Z M530 1208 L690 1208 L690 1434 L100 1434 L100 1208 L260 1208 L260 226 L100 226 L100 0 L690 0 L690 226 L530 226 L530 618 L1213 618 L1213 226 L1053 226 L1053 0 L1643 0 L1643 226 L1483 226 L1483 1208 L1643 1208 L1643 1434 L1053 1434 L1053 1208 L1213 1208 L1213 844 L530 844 L530 1208 Z " />
<glyph glyph-name="uni021F" unicode="&#x21f;" horiz-adv-x="1477" d="M1092 1827 L884 1827 L738 1698 L592 1827 L384 1827 L665 1536 L811 1536 L1092 1827 Z M240 1307 L240 209 L80 209 L80 0 L651 0 L651 209 L491 209 L491 547 C491 723 574 833 739 833 C903 833 986 723 986 547 L986 0 L1397 0 L1397 209 L1237 209 L1237 547 C1237 871 1062 1042 779 1042 C672 1042 535 994 491 866 L491 1516 L80 1516 L80 1307 L240 1307 Z " />
<glyph glyph-name="uni0224" unicode="&#x224;" horiz-adv-x="1439" d="M1287 1434 L142 1434 L142 1053 L412 1053 L412 1208 L907 1208 L100 134 L100 0 L1102 0 C1089 -4 958 -52 958 -207 C958 -438 1217 -468 1339 -458 L1339 -251 C1339 -251 1157 -251 1157 -141 C1157 -34 1287 0 1287 0 L1287 381 L1017 381 L1017 226 L480 226 L1287 1300 L1287 1434 Z " />
<glyph glyph-name="uni0225" unicode="&#x225;" horiz-adv-x="1164" d="M112 680 L363 680 L363 813 L655 813 L80 125 L80 0 L847 0 C834 -4 703 -52 703 -207 C703 -438 962 -468 1084 -458 L1084 -251 C1084 -251 902 -251 902 -141 C902 -34 1032 0 1032 0 L1032 342 L781 342 L781 209 L457 209 L1032 897 L1032 1022 L112 1022 L112 680 Z " />
<glyph glyph-name="uni0226" unicode="&#x226;" horiz-adv-x="1651" d="M678 1683 C676 1492 972 1492 972 1683 C972 1764 906 1830 825 1830 C744 1830 678 1764 678 1683 L678 1683 Z M1176 226 L1021 226 L1021 0 L1611 0 L1611 226 L1455 226 L936 1434 L460 1434 L460 1208 L620 1208 L196 226 L40 226 L40 0 L630 0 L630 226 L474 226 L553 414 L1097 414 L1176 226 Z M825 1063 L1002 641 L648 641 L825 1063 Z " />
<glyph glyph-name="uni0227" unicode="&#x227;" horiz-adv-x="1277" d="M446 1327 C446 1246 512 1180 593 1180 C674 1180 740 1246 740 1327 C740 1408 674 1474 593 1474 C512 1474 446 1408 446 1327 L446 1327 Z M786 0 L1197 0 L1197 209 L1037 209 L1037 580 C1037 905 943 1042 583 1042 C426 1042 266 1007 149 940 L244 761 C343 806 474 833 583 833 C741 833 786 794 786 666 C425 705 60 630 60 317 C60 79 232 -20 454 -20 C605 -20 730 32 785 161 L786 0 Z M312 327 C312 520 651 512 786 504 L786 400 C789 292 674 189 494 189 C397 189 312 221 312 327 L312 327 Z " />
<glyph glyph-name="uni0228" unicode="&#x228;" horiz-adv-x="1427" d="M100 0 L642 0 L565 -240 C697 -219 823 -209 813 -296 C802 -413 615 -366 547 -342 L501 -459 C687 -532 945 -521 966 -303 C980 -160 867 -113 757 -112 L794 0 L1327 0 L1327 381 L1057 381 L1057 226 L530 226 L530 618 L1087 618 L1087 844 L530 844 L530 1208 L1047 1208 L1047 1053 L1317 1053 L1317 1434 L100 1434 L100 1208 L260 1208 L260 226 L100 226 L100 0 Z " />
<glyph glyph-name="uni0229" unicode="&#x229;" horiz-adv-x="1202" d="M392 -459 C578 -532 836 -521 857 -303 C871 -160 758 -113 648 -112 L679 -17 C834 -6 965 41 1070 145 L918 296 C849 238 754 190 600 189 C396 188 331 341 331 413 L1140 413 C1160 821 952 1042 600 1042 C248 1042 60 813 60 511 C60 229 222 12 528 -16 L456 -240 C588 -219 714 -209 704 -296 C693 -413 506 -366 438 -342 L392 -459 Z M331 610 C331 684 394 833 600 833 C806 833 869 684 869 610 L331 610 Z " />
<glyph glyph-name="uni022A" unicode="&#x22a;" horiz-adv-x="1684" d="M842 -30 C1334 -30 1604 285 1604 717 C1604 1148 1334 1464 842 1464 C350 1464 80 1148 80 717 C80 285 350 -30 842 -30 L842 -30 Z M842 196 C511 196 354 417 354 717 C354 1017 511 1238 842 1238 C1173 1238 1330 1017 1330 717 C1330 417 1173 196 842 196 L842 196 Z M482 1683 C482 1602 548 1536 629 1536 C710 1536 776 1602 776 1683 C776 1764 710 1830 629 1830 C548 1830 482 1764 482 1683 L482 1683 Z M926 1683 C926 1602 992 1536 1073 1536 C1154 1536 1220 1602 1220 1683 C1220 1764 1154 1830 1073 1830 C992 1830 926 1764 926 1683 L926 1683 Z M454 1892 L1248 1892 L1248 2081 L454 2081 L454 1892 Z " />
<glyph glyph-name="uni022B" unicode="&#x22b;" horiz-adv-x="1260" d="M1200 511 C1200 815 977 1042 630 1042 C282 1042 60 813 60 511 C60 209 282 -20 630 -20 C977 -20 1200 207 1200 511 L1200 511 Z M943 511 C943 343 849 189 630 189 C411 189 317 343 317 511 C317 679 411 833 630 833 C849 833 943 679 943 511 L943 511 Z M261 1327 C261 1246 327 1180 408 1180 C489 1180 555 1246 555 1327 C555 1408 489 1474 408 1474 C327 1474 261 1408 261 1327 L261 1327 Z M705 1327 C705 1246 771 1180 852 1180 C933 1180 999 1246 999 1327 C999 1408 933 1474 852 1474 C771 1474 705 1408 705 1327 L705 1327 Z M233 1536 L1027 1536 L1027 1725 L233 1725 L233 1536 Z " />
<glyph glyph-name="uni022C" unicode="&#x22c;" horiz-adv-x="1684" d="M842 -30 C1334 -30 1604 285 1604 717 C1604 1148 1334 1464 842 1464 C350 1464 80 1148 80 717 C80 285 350 -30 842 -30 L842 -30 Z M842 196 C511 196 354 417 354 717 C354 1017 511 1238 842 1238 C1173 1238 1330 1017 1330 717 C1330 417 1173 196 842 196 L842 196 Z M813 1600 C857 1565 907 1536 968 1536 C1212 1536 1203 1785 1203 1785 L1018 1785 C1018 1785 1020 1707 963 1707 C936 1707 908 1730 890 1743 C846 1778 796 1807 735 1807 C491 1807 500 1558 500 1558 L685 1558 C685 1558 683 1636 740 1636 C767 1636 795 1613 813 1600 L813 1600 Z M454 1857 L1248 1857 L1248 2046 L454 2046 L454 1857 Z " />
<glyph glyph-name="uni022D" unicode="&#x22d;" horiz-adv-x="1260" d="M1200 511 C1200 815 977 1042 630 1042 C282 1042 60 813 60 511 C60 209 282 -20 630 -20 C977 -20 1200 207 1200 511 L1200 511 Z M943 511 C943 343 849 189 630 189 C411 189 317 343 317 511 C317 679 411 833 630 833 C849 833 943 679 943 511 L943 511 Z M583 1247 C627 1212 677 1183 738 1183 C982 1183 973 1432 973 1432 L788 1432 C788 1432 790 1354 733 1354 C706 1354 678 1377 660 1390 C616 1425 566 1454 505 1454 C261 1454 270 1205 270 1205 L455 1205 C455 1205 453 1283 510 1283 C537 1283 565 1260 583 1247 L583 1247 Z M224 1504 L1018 1504 L1018 1693 L224 1693 L224 1504 Z " />
<glyph glyph-name="uni022E" unicode="&#x22e;" horiz-adv-x="1684" d="M842 -30 C1334 -30 1604 285 1604 717 C1604 1148 1334 1464 842 1464 C350 1464 80 1148 80 717 C80 285 350 -30 842 -30 L842 -30 Z M842 196 C511 196 354 417 354 717 C354 1017 511 1238 842 1238 C1173 1238 1330 1017 1330 717 C1330 417 1173 196 842 196 L842 196 Z M704 1683 C704 1602 770 1536 851 1536 C932 1536 998 1602 998 1683 C998 1764 932 1830 851 1830 C770 1830 704 1764 704 1683 L704 1683 Z " />
<glyph glyph-name="uni022F" unicode="&#x22f;" horiz-adv-x="1260" d="M1200 511 C1200 815 977 1042 630 1042 C282 1042 60 813 60 511 C60 209 282 -20 630 -20 C977 -20 1200 207 1200 511 L1200 511 Z M943 511 C943 343 849 189 630 189 C411 189 317 343 317 511 C317 679 411 833 630 833 C849 833 943 679 943 511 L943 511 Z M483 1327 C483 1246 549 1180 630 1180 C711 1180 777 1246 777 1327 C777 1408 711 1474 630 1474 C549 1474 483 1408 483 1327 L483 1327 Z " />
<glyph glyph-name="uni0230" unicode="&#x230;" horiz-adv-x="1684" d="M842 -30 C1334 -30 1604 285 1604 717 C1604 1148 1334 1464 842 1464 C350 1464 80 1148 80 717 C80 285 350 -30 842 -30 L842 -30 Z M842 196 C511 196 354 417 354 717 C354 1017 511 1238 842 1238 C1173 1238 1330 1017 1330 717 C1330 417 1173 196 842 196 L842 196 Z M704 1683 C704 1602 770 1536 851 1536 C932 1536 998 1602 998 1683 C998 1764 932 1830 851 1830 C770 1830 704 1764 704 1683 L704 1683 Z M455 1892 L1249 1892 L1249 2081 L455 2081 L455 1892 Z " />
<glyph glyph-name="uni0231" unicode="&#x231;" horiz-adv-x="1260" d="M1200 511 C1200 815 977 1042 630 1042 C282 1042 60 813 60 511 C60 209 282 -20 630 -20 C977 -20 1200 207 1200 511 L1200 511 Z M943 511 C943 343 849 189 630 189 C411 189 317 343 317 511 C317 679 411 833 630 833 C849 833 943 679 943 511 L943 511 Z M488 1327 C488 1246 554 1180 635 1180 C716 1180 782 1246 782 1327 C782 1408 716 1474 635 1474 C554 1474 488 1408 488 1327 L488 1327 Z M239 1536 L1033 1536 L1033 1725 L239 1725 L239 1536 Z " />
<glyph glyph-name="uni0232" unicode="&#x232;" horiz-adv-x="1548" d="M377 1536 L1171 1536 L1171 1725 L377 1725 L377 1536 Z M639 548 L639 226 L479 226 L479 0 L1069 0 L1069 226 L909 226 L909 547 L1358 1208 L1508 1208 L1508 1434 L918 1434 L918 1208 L1068 1208 L774 763 L479 1208 L630 1208 L630 1434 L40 1434 L40 1208 L190 1208 L639 548 Z " />
<glyph glyph-name="uni0233" unicode="&#x233;" horiz-adv-x="1409" d="M307 1245 L1101 1245 L1101 1434 L307 1434 L307 1245 Z M1173 813 L1329 813 L1329 1022 L758 1022 L758 813 L912 813 L704 295 L496 813 L651 813 L651 1022 L80 1022 L80 813 L235 813 L583 0 L503 -191 C467 -268 431 -323 316 -323 L194 -323 L194 -532 L316 -532 C572 -532 639 -420 698 -295 L1173 813 Z " />
<glyph glyph-name="uni0238" unicode="&#x238;" horiz-adv-x="2073" d="M911 851 C847 980 688 1042 562 1042 C246 1042 60 813 60 511 C60 209 246 -20 562 -20 C688 -20 847 42 911 171 L911 0 L1162 0 L1162 171 C1226 42 1385 -20 1511 -20 C1827 -20 2013 209 2013 511 C2013 813 1827 1042 1511 1042 C1385 1042 1226 980 1162 851 L1162 1307 L1322 1307 L1322 1516 L751 1516 L751 1307 L911 1307 L911 851 Z M614 190 C402 190 317 344 317 511 C317 678 402 832 614 832 C826 832 911 678 911 511 C911 344 826 190 614 190 L614 190 Z M1459 190 C1247 190 1162 344 1162 511 C1162 678 1247 832 1459 832 C1671 832 1756 678 1756 511 C1756 344 1671 190 1459 190 L1459 190 Z " />
<glyph glyph-name="uni0239" unicode="&#x239;" horiz-adv-x="2073" d="M911 171 L911 -323 L751 -323 L751 -532 L1322 -532 L1322 -323 L1162 -323 L1162 171 C1226 42 1385 -20 1511 -20 C1827 -20 2013 209 2013 511 C2013 813 1827 1042 1511 1042 C1385 1042 1226 980 1162 851 L1162 1022 L911 1022 L911 851 C847 980 688 1042 562 1042 C246 1042 60 813 60 511 C60 209 246 -20 562 -20 C688 -20 847 42 911 171 L911 171 Z M1459 832 C1671 832 1756 678 1756 511 C1756 344 1671 190 1459 190 C1247 190 1162 344 1162 511 C1162 678 1247 832 1459 832 L1459 832 Z M614 832 C826 832 911 678 911 511 C911 344 826 190 614 190 C402 190 317 344 317 511 C317 678 402 832 614 832 L614 832 Z " />
<glyph glyph-name="uni024C" unicode="&#x24c;" horiz-adv-x="1606" d="M791 0 L791 226 L631 226 L631 530 L887 530 L1192 0 L1526 0 L1526 226 L1365 226 L1176 550 C1356 602 1506 729 1506 982 C1506 1259 1338 1434 968 1434 L201 1434 L201 1208 L361 1208 L361 756 L100 756 L100 530 L361 530 L361 226 L201 226 L201 0 L791 0 Z M631 1208 L968 1208 C1156 1208 1234 1140 1234 982 C1234 824 1156 756 968 756 L631 756 L631 1208 Z " />
<glyph glyph-name="uni024D" unicode="&#x24d;" horiz-adv-x="1046" d="M1036 1001 C974 1029 902 1042 821 1042 C714 1042 577 994 533 866 L533 1022 L122 1022 L122 813 L282 813 L282 578 L80 578 L80 369 L282 369 L282 209 L122 209 L122 0 L693 0 L693 209 L533 209 L533 369 L735 369 L735 578 L533 578 C542 736 616 833 781 833 C838 833 884 822 920 800 L1036 1001 Z " />
<glyph glyph-name="uni024E" unicode="&#x24e;" horiz-adv-x="1548" d="M169 893 L404 893 L639 548 L639 226 L479 226 L479 0 L1069 0 L1069 226 L909 226 L909 547 L1144 893 L1379 893 L1379 1099 L1284 1099 L1358 1208 L1508 1208 L1508 1434 L918 1434 L918 1208 L1068 1208 L996 1099 L551 1099 L479 1208 L630 1208 L630 1434 L40 1434 L40 1208 L190 1208 L264 1099 L169 1099 L169 893 Z M688 893 L860 893 L774 763 L688 893 Z " />
<glyph glyph-name="uni024F" unicode="&#x24f;" horiz-adv-x="1409" d="M1173 813 L1329 813 L1329 1022 L758 1022 L758 813 L912 813 L846 650 L561 650 L496 813 L651 813 L651 1022 L80 1022 L80 813 L235 813 L305 650 L129 650 L129 441 L394 441 L583 0 L503 -191 C467 -268 431 -323 316 -323 L194 -323 L194 -532 L316 -532 C572 -532 639 -420 698 -295 L1013 441 L1279 441 L1279 650 L1103 650 L1173 813 Z M645 441 L762 441 L704 295 L645 441 Z " />
<glyph glyph-name="circumflex" unicode="&#x2c6;" horiz-adv-x="868" d="M507 1434 L361 1434 L80 1143 L288 1143 L434 1272 L580 1143 L788 1143 L507 1434 Z " />
<glyph glyph-name="caron" unicode="&#x2c7;" horiz-adv-x="828" d="M768 1434 L560 1434 L414 1305 L268 1434 L60 1434 L341 1143 L487 1143 L768 1434 Z " />
<glyph glyph-name="uni02C8" unicode="&#x2c8;" horiz-adv-x="411" d="M80 965 L331 965 L331 1434 L80 1434 L80 965 Z " />
<glyph glyph-name="uni02C9" unicode="&#x2c9;" horiz-adv-x="994" d="M100 1245 L894 1245 L894 1434 L100 1434 L100 1245 Z " />
<glyph glyph-name="uni02CA" unicode="&#x2ca;" horiz-adv-x="694" d="M80 1124 L300 1124 L614 1434 L331 1434 L80 1124 Z " />
<glyph glyph-name="uni02CB" unicode="&#x2cb;" horiz-adv-x="694" d="M363 1434 L80 1434 L394 1124 L614 1124 L363 1434 Z " />
<glyph glyph-name="uni02CC" unicode="&#x2cc;" horiz-adv-x="411" d="M80 -532 L331 -532 L331 -63 L80 -63 L80 -532 Z " />
<glyph glyph-name="uni02CD" unicode="&#x2cd;" horiz-adv-x="954" d="M80 -532 L874 -532 L874 -343 L80 -343 L80 -532 Z " />
<glyph glyph-name="uni02CE" unicode="&#x2ce;" horiz-adv-x="694" d="M363 -222 L80 -222 L394 -532 L614 -532 L363 -222 Z " />
<glyph glyph-name="uni02CF" unicode="&#x2cf;" horiz-adv-x="694" d="M80 -532 L300 -532 L614 -222 L331 -222 L80 -532 Z " />
<glyph glyph-name="uni02D0" unicode="&#x2d0;" horiz-adv-x="578" d="M80 1022 L289 654 L498 1022 L80 1022 Z M498 0 L289 368 L80 0 L498 0 Z " />
<glyph glyph-name="uni02D1" unicode="&#x2d1;" horiz-adv-x="578" d="M80 1022 L289 654 L498 1022 L80 1022 Z " />
<glyph glyph-name="uni02D2" unicode="&#x2d2;" horiz-adv-x="473" d="M269 715 C269 791 308 849 393 849 L393 1014 C205 1014 80 885 80 715 C80 545 205 416 393 416 L393 581 C308 581 269 639 269 715 L269 715 Z " />
<glyph glyph-name="uni02D3" unicode="&#x2d3;" horiz-adv-x="473" d="M204 715 C204 639 165 581 80 581 L80 416 C268 416 393 545 393 715 C393 885 268 1014 80 1014 L80 849 C165 849 204 791 204 715 L204 715 Z " />
<glyph glyph-name="uni02D4" unicode="&#x2d4;" horiz-adv-x="837" d="M80 569 L757 569 L757 774 L533 774 L533 1022 L304 1022 L304 774 L80 774 L80 569 Z " />
<glyph glyph-name="uni02D5" unicode="&#x2d5;" horiz-adv-x="837" d="M80 248 L304 248 L304 0 L533 0 L533 248 L757 248 L757 453 L80 453 L80 248 Z " />
<glyph glyph-name="uni02D6" unicode="&#x2d6;" horiz-adv-x="1043" d="M150 547 L417 547 L417 281 L626 281 L626 547 L893 547 L893 756 L626 756 L626 1022 L417 1022 L417 756 L150 756 L150 547 Z " />
<glyph glyph-name="uni02D7" unicode="&#x2d7;" horiz-adv-x="823" d="M80 547 L743 547 L743 756 L80 756 L80 547 Z " />
<glyph glyph-name="breve" unicode="&#x2d8;" horiz-adv-x="848" d="M424 1188 C662 1188 766 1341 788 1434 L606 1434 C572 1375 512 1342 424 1342 C336 1342 276 1375 242 1434 L60 1434 C82 1341 186 1188 424 1188 L424 1188 Z " />
<glyph glyph-name="dotaccent" unicode="&#x2d9;" horiz-adv-x="374" d="M40 1327 C40 1246 106 1180 187 1180 C268 1180 334 1246 334 1327 C334 1408 268 1474 187 1474 C106 1474 40 1408 40 1327 L40 1327 Z " />
<glyph glyph-name="ring" unicode="&#x2da;" horiz-adv-x="614" d="M80 1390 C80 1265 182 1163 307 1163 C432 1163 534 1265 534 1390 C534 1515 432 1617 307 1617 C182 1617 80 1515 80 1390 L80 1390 Z M229 1390 C229 1433 264 1468 307 1468 C350 1468 385 1433 385 1390 C385 1347 350 1312 307 1312 C264 1312 229 1347 229 1390 L229 1390 Z " />
<glyph glyph-name="ogonek" unicode="&#x2db;" horiz-adv-x="501" d="M206 0 C206 0 60 -44 60 -207 C60 -438 319 -468 441 -458 L441 -251 C441 -251 259 -251 259 -141 C259 -34 389 0 389 0 L206 0 Z " />
<glyph glyph-name="tilde" unicode="&#x2dc;" horiz-adv-x="865" d="M394 1247 C438 1212 488 1183 549 1183 C793 1183 784 1432 784 1432 L599 1432 C599 1432 601 1354 544 1354 C517 1354 489 1377 471 1390 C427 1425 377 1454 316 1454 C72 1454 81 1205 81 1205 L266 1205 C266 1205 264 1283 321 1283 C348 1283 376 1260 394 1247 L394 1247 Z " />
<glyph glyph-name="hungarumlaut" unicode="&#x2dd;" horiz-adv-x="824" d="M80 1174 L271 1174 L420 1516 L171 1516 L80 1174 Z M404 1174 L595 1174 L744 1516 L495 1516 L404 1174 Z " />
<glyph glyph-name="gravecomb" unicode="&#x300;" horiz-adv-x="734" d="M383 1434 L100 1434 L414 1124 L634 1124 L383 1434 Z " />
<glyph glyph-name="acutecomb" unicode="&#x301;" horiz-adv-x="734" d="M100 1124 L320 1124 L634 1434 L351 1434 L100 1124 Z " />
<glyph glyph-name="uni0302" unicode="&#x302;" horiz-adv-x="868" d="M507 1434 L361 1434 L80 1143 L288 1143 L434 1272 L580 1143 L788 1143 L507 1434 Z " />
<glyph glyph-name="tildecomb" unicode="&#x303;" horiz-adv-x="905" d="M414 1247 C458 1212 508 1183 569 1183 C813 1183 804 1432 804 1432 L619 1432 C619 1432 621 1354 564 1354 C537 1354 509 1377 491 1390 C447 1425 397 1454 336 1454 C92 1454 101 1205 101 1205 L286 1205 C286 1205 284 1283 341 1283 C368 1283 396 1260 414 1247 L414 1247 Z " />
<glyph glyph-name="uni0304" unicode="&#x304;" horiz-adv-x="954" d="M80 1245 L874 1245 L874 1434 L80 1434 L80 1245 Z " />
<glyph glyph-name="uni0305" unicode="&#x305;" horiz-adv-x="954" d="M80 1245 L874 1245 L874 1434 L80 1434 L80 1245 Z " />
<glyph glyph-name="uni0306" unicode="&#x306;" horiz-adv-x="888" d="M444 1188 C682 1188 786 1341 808 1434 L626 1434 C592 1375 532 1342 444 1342 C356 1342 296 1375 262 1434 L80 1434 C102 1341 206 1188 444 1188 L444 1188 Z " />
<glyph glyph-name="uni0307" unicode="&#x307;" horiz-adv-x="454" d="M80 1327 C80 1246 146 1180 227 1180 C308 1180 374 1246 374 1327 C374 1408 308 1474 227 1474 C146 1474 80 1408 80 1327 L80 1327 Z " />
<glyph glyph-name="uni0308" unicode="&#x308;" horiz-adv-x="898" d="M80 1327 C80 1246 146 1180 227 1180 C308 1180 374 1246 374 1327 C374 1408 308 1474 227 1474 C146 1474 80 1408 80 1327 L80 1327 Z M524 1327 C524 1246 590 1180 671 1180 C752 1180 818 1246 818 1327 C818 1408 752 1474 671 1474 C590 1474 524 1408 524 1327 L524 1327 Z " />
<glyph glyph-name="hookabovecomb" unicode="&#x309;" horiz-adv-x="633" d="M100 1033 C217 1033 533 1064 533 1434 L289 1434 C289 1283 187 1249 100 1249 L100 1033 Z " />
<glyph glyph-name="uni030A" unicode="&#x30a;" horiz-adv-x="614" d="M80 1390 C80 1265 182 1163 307 1163 C432 1163 534 1265 534 1390 C534 1515 432 1617 307 1617 C182 1617 80 1515 80 1390 L80 1390 Z M229 1390 C229 1433 264 1468 307 1468 C350 1468 385 1433 385 1390 C385 1347 350 1312 307 1312 C264 1312 229 1347 229 1390 L229 1390 Z " />
<glyph glyph-name="uni030B" unicode="&#x30b;" horiz-adv-x="931" d="M431 972 L662 972 L851 1434 L582 1434 L431 972 Z M80 972 L311 972 L500 1434 L231 1434 L80 972 Z " />
<glyph glyph-name="uni030C" unicode="&#x30c;" horiz-adv-x="868" d="M788 1434 L580 1434 L434 1305 L288 1434 L80 1434 L361 1143 L507 1143 L788 1434 Z " />
<glyph glyph-name="uni030D" unicode="&#x30d;" horiz-adv-x="411" d="M80 965 L331 965 L331 1434 L80 1434 L80 965 Z " />
<glyph glyph-name="uni030E" unicode="&#x30e;" horiz-adv-x="750" d="M80 965 L331 965 L331 1434 L80 1434 L80 965 Z M419 965 L670 965 L670 1434 L419 1434 L419 965 Z " />
<glyph glyph-name="uni030F" unicode="&#x30f;" horiz-adv-x="931" d="M349 1434 L80 1434 L269 972 L500 972 L349 1434 Z M700 1434 L431 1434 L620 972 L851 972 L700 1434 Z " />
<glyph glyph-name="uni0310" unicode="&#x310;" horiz-adv-x="888" d="M317 1562 C317 1492 374 1434 444 1434 C515 1434 572 1492 572 1562 C572 1632 515 1689 444 1689 C374 1689 317 1632 317 1562 L317 1562 Z M444 1188 C682 1188 786 1341 808 1434 L626 1434 C592 1375 532 1342 444 1342 C356 1342 296 1375 262 1434 L80 1434 C102 1341 206 1188 444 1188 L444 1188 Z " />
<glyph glyph-name="uni0311" unicode="&#x311;" horiz-adv-x="888" d="M444 1434 C206 1434 102 1281 80 1188 L262 1188 C296 1247 356 1280 444 1280 C532 1280 592 1247 626 1188 L808 1188 C786 1281 682 1434 444 1434 L444 1434 Z " />
<glyph glyph-name="uni0312" unicode="&#x312;" horiz-adv-x="580" d="M500 1434 L269 1434 L80 972 L349 972 L500 1434 Z " />
<glyph glyph-name="uni0313" unicode="&#x313;" horiz-adv-x="580" d="M80 972 L311 972 L500 1434 L231 1434 L80 972 Z " />
<glyph glyph-name="uni0314" unicode="&#x314;" horiz-adv-x="580" d="M349 1434 L80 1434 L269 972 L500 972 L349 1434 Z " />
<glyph glyph-name="uni0315" unicode="&#x315;" horiz-adv-x="580" d="M80 972 L311 972 L500 1434 L231 1434 L80 972 Z " />
<glyph glyph-name="uni0316" unicode="&#x316;" horiz-adv-x="694" d="M363 -222 L80 -222 L394 -532 L614 -532 L363 -222 Z " />
<glyph glyph-name="uni0317" unicode="&#x317;" horiz-adv-x="694" d="M80 -532 L300 -532 L614 -222 L331 -222 L80 -532 Z " />
<glyph glyph-name="uni0318" unicode="&#x318;" horiz-adv-x="533" d="M265 -110 L265 -237 L80 -237 L80 -405 L265 -405 L265 -532 L453 -532 L453 -110 L265 -110 Z " />
<glyph glyph-name="uni0319" unicode="&#x319;" horiz-adv-x="533" d="M80 -110 L80 -532 L268 -532 L268 -405 L453 -405 L453 -237 L268 -237 L268 -110 L80 -110 Z " />
<glyph glyph-name="uni031A" unicode="&#x31a;" horiz-adv-x="559" d="M80 1434 L80 1266 L291 1266 L291 1062 L479 1062 L479 1434 L80 1434 Z " />
<glyph glyph-name="uni031B" unicode="&#x31b;" horiz-adv-x="562" d="M255 1434 C255 1358 232 1255 80 1255 L80 1051 C490 1051 481 1379 481 1434 L255 1434 Z " />
<glyph glyph-name="uni031C" unicode="&#x31c;" horiz-adv-x="473" d="M269 0 C269 76 308 134 393 134 L393 299 C205 299 80 170 80 0 C80 -170 205 -299 393 -299 L393 -134 C308 -134 269 -76 269 0 L269 0 Z " />
<glyph glyph-name="uni031D" unicode="&#x31d;" horiz-adv-x="638" d="M225 -217 L225 -364 L80 -364 L80 -532 L558 -532 L558 -364 L413 -364 L413 -217 L225 -217 Z " />
<glyph glyph-name="uni031E" unicode="&#x31e;" horiz-adv-x="638" d="M413 -532 L413 -385 L558 -385 L558 -217 L80 -217 L80 -385 L225 -385 L225 -532 L413 -532 Z " />
<glyph glyph-name="uni031F" unicode="&#x31f;" horiz-adv-x="614" d="M534 70 L381 70 L381 234 L233 234 L233 70 L80 70 L80 -67 L233 -67 L233 -231 L381 -231 L381 -67 L534 -67 L534 70 Z " />
<glyph glyph-name="uni0320" unicode="&#x320;" horiz-adv-x="554" d="M474 70 L80 70 L80 -67 L474 -67 L474 70 Z " />
<glyph glyph-name="uni0321" unicode="&#x321;" horiz-adv-x="668" d="M377 206 C377 -53 311 -157 80 -157 L80 -345 C462 -345 588 -180 588 206 L377 206 Z " />
<glyph glyph-name="uni0322" unicode="&#x322;" horiz-adv-x="668" d="M80 206 C80 -180 206 -345 588 -345 L588 -157 C357 -157 291 -53 291 206 L80 206 Z " />
<glyph glyph-name="dotbelowcomb" unicode="&#x323;" horiz-adv-x="494" d="M100 -289 C100 -370 166 -436 247 -436 C328 -436 394 -370 394 -289 C394 -208 328 -142 247 -142 C166 -142 100 -208 100 -289 L100 -289 Z " />
<glyph glyph-name="uni0324" unicode="&#x324;" horiz-adv-x="898" d="M80 -315 C80 -396 146 -462 227 -462 C308 -462 374 -396 374 -315 C374 -234 308 -168 227 -168 C146 -168 80 -234 80 -315 L80 -315 Z M524 -315 C524 -396 590 -462 671 -462 C752 -462 818 -396 818 -315 C818 -234 752 -168 671 -168 C590 -168 524 -234 524 -315 L524 -315 Z " />
<glyph glyph-name="uni0325" unicode="&#x325;" horiz-adv-x="614" d="M80 -325 C80 -450 182 -552 307 -552 C432 -552 534 -450 534 -325 C534 -200 432 -98 307 -98 C182 -98 80 -200 80 -325 L80 -325 Z M229 -325 C229 -282 264 -247 307 -247 C350 -247 385 -282 385 -325 C385 -368 350 -403 307 -403 C264 -403 229 -368 229 -325 L229 -325 Z " />
<glyph glyph-name="commaaccent" unicode="&#x326;" horiz-adv-x="620" d="M100 -532 L331 -532 L520 -130 L251 -130 L100 -532 Z " />
<glyph glyph-name="uni0327" unicode="&#x327;" horiz-adv-x="627" d="M80 -459 C266 -532 524 -521 545 -303 C559 -160 446 -113 336 -112 L398 73 L245 73 L144 -240 C276 -219 402 -209 392 -296 C381 -413 194 -366 126 -342 L80 -459 Z " />
<glyph glyph-name="uni0328" unicode="&#x328;" horiz-adv-x="541" d="M226 0 C226 0 80 -44 80 -207 C80 -438 339 -468 461 -458 L461 -251 C461 -251 279 -251 279 -141 C279 -34 409 0 409 0 L226 0 Z " />
<glyph glyph-name="uni0329" unicode="&#x329;" horiz-adv-x="411" d="M80 -532 L331 -532 L331 -63 L80 -63 L80 -532 Z " />
<glyph glyph-name="uni032A" unicode="&#x32a;" horiz-adv-x="866" d="M80 -532 L292 -532 L292 -394 L574 -394 L574 -532 L786 -532 L786 -225 L80 -225 L80 -532 Z " />
<glyph glyph-name="uni032B" unicode="&#x32b;" horiz-adv-x="806" d="M403 -458 C418 -514 485 -552 540 -552 C681 -552 726 -440 726 -309 L726 -173 L567 -173 L567 -309 C567 -361 548 -380 520 -380 C481 -380 470 -336 470 -237 L336 -237 C336 -336 325 -380 286 -380 C258 -380 239 -361 239 -309 L239 -173 L80 -173 L80 -309 C80 -440 125 -552 266 -552 C321 -552 388 -514 403 -458 L403 -458 Z " />
<glyph glyph-name="uni032C" unicode="&#x32c;" horiz-adv-x="868" d="M788 -241 L580 -241 L434 -370 L288 -241 L80 -241 L361 -532 L507 -532 L788 -241 Z " />
<glyph glyph-name="uni032D" unicode="&#x32d;" horiz-adv-x="868" d="M507 -241 L361 -241 L80 -532 L288 -532 L434 -403 L580 -532 L788 -532 L507 -241 Z " />
<glyph glyph-name="uni032E" unicode="&#x32e;" horiz-adv-x="888" d="M444 -532 C682 -532 786 -379 808 -286 L626 -286 C592 -345 532 -378 444 -378 C356 -378 296 -345 262 -286 L80 -286 C102 -379 206 -532 444 -532 L444 -532 Z " />
<glyph glyph-name="uni032F" unicode="&#x32f;" horiz-adv-x="888" d="M444 -286 C206 -286 102 -439 80 -532 L262 -532 C296 -473 356 -440 444 -440 C532 -440 592 -473 626 -532 L808 -532 C786 -439 682 -286 444 -286 L444 -286 Z " />
<glyph glyph-name="uni0330" unicode="&#x330;" horiz-adv-x="865" d="M394 -390 C438 -425 488 -454 549 -454 C793 -454 784 -205 784 -205 L599 -205 C599 -205 601 -283 544 -283 C517 -283 489 -260 471 -247 C427 -212 377 -183 316 -183 C72 -183 81 -432 81 -432 L266 -432 C266 -432 264 -354 321 -354 C348 -354 376 -377 394 -390 L394 -390 Z " />
<glyph glyph-name="uni0331" unicode="&#x331;" horiz-adv-x="954" d="M80 -532 L874 -532 L874 -343 L80 -343 L80 -532 Z " />
<glyph glyph-name="uni0332" unicode="&#x332;" horiz-adv-x="1185" d="M100 -318 L1085 -318 L1085 -109 L100 -109 L100 -318 Z " />
<glyph glyph-name="uni0333" unicode="&#x333;" horiz-adv-x="1185" d="M100 -318 L1085 -318 L1085 -109 L100 -109 L100 -318 Z M100 -599 L1085 -599 L1085 -390 L100 -390 L100 -599 Z " />
<glyph glyph-name="uni0334" unicode="&#x334;" horiz-adv-x="865" d="M394 662 C438 627 488 598 549 598 C793 598 784 847 784 847 L599 847 C599 847 601 769 544 769 C517 769 489 792 471 805 C427 840 377 869 316 869 C72 869 81 620 81 620 L266 620 C266 620 264 698 321 698 C348 698 376 675 394 662 L394 662 Z " />
<glyph glyph-name="uni0335" unicode="&#x335;" horiz-adv-x="846" d="M80 469 L766 469 L766 678 L80 678 L80 469 Z " />
<glyph glyph-name="uni0336" unicode="&#x336;" horiz-adv-x="1073" d="M80 497 L993 497 L993 706 L80 706 L80 497 Z " />
<glyph glyph-name="uni0337" unicode="&#x337;" horiz-adv-x="1303" d="M894 1143 L80 194 L409 194 L1223 1143 L894 1143 Z " />
<glyph glyph-name="uni0338" unicode="&#x338;" horiz-adv-x="1295" d="M80 0 L356 0 L1215 1434 L940 1434 L80 0 Z " />
<glyph glyph-name="uni0339" unicode="&#x339;" horiz-adv-x="473" d="M204 0 C204 -76 165 -134 80 -134 L80 -299 C268 -299 393 -170 393 0 C393 170 268 299 80 299 L80 134 C165 134 204 76 204 0 L204 0 Z " />
<glyph glyph-name="uni033A" unicode="&#x33a;" horiz-adv-x="866" d="M80 -532 L786 -532 L786 -225 L574 -225 L574 -363 L292 -363 L292 -225 L80 -225 L80 -532 Z " />
<glyph glyph-name="uni033B" unicode="&#x33b;" horiz-adv-x="578" d="M80 -532 L498 -532 L498 -124 L80 -124 L80 -532 Z M230 -274 L348 -274 L348 -382 L230 -382 L230 -274 Z " />
<glyph glyph-name="uni033C" unicode="&#x33c;" horiz-adv-x="806" d="M239 -496 L239 -460 C239 -408 258 -389 286 -389 C325 -389 336 -433 336 -532 L470 -532 C470 -433 481 -389 520 -389 C548 -389 567 -408 567 -460 L567 -496 L726 -496 L726 -460 C726 -329 681 -217 540 -217 C485 -217 418 -255 403 -311 C388 -255 321 -217 266 -217 C125 -217 80 -329 80 -460 L80 -496 L239 -496 Z " />
<glyph glyph-name="uni033D" unicode="&#x33d;" horiz-adv-x="951" d="M614 1207 L871 1434 L594 1434 L475 1329 L357 1434 L80 1434 L337 1207 L80 981 L357 981 L475 1085 L594 981 L871 981 L614 1207 Z " />
<glyph glyph-name="uni033E" unicode="&#x33e;" horiz-adv-x="431" d="M287 1427 C322 1471 351 1521 351 1582 C351 1826 102 1817 102 1817 L102 1632 C102 1632 180 1634 180 1577 C180 1550 157 1522 144 1504 C109 1460 80 1410 80 1349 C80 1105 329 1114 329 1114 L329 1299 C329 1299 251 1297 251 1354 C251 1381 274 1409 287 1427 L287 1427 Z " />
<glyph glyph-name="uni033F" unicode="&#x33f;" horiz-adv-x="1185" d="M100 1797 L1085 1797 L1085 2006 L100 2006 L100 1797 Z M100 1516 L1085 1516 L1085 1725 L100 1725 L100 1516 Z " />
<glyph glyph-name="uni0340" unicode="&#x340;" horiz-adv-x="694" d="M363 1434 L80 1434 L394 1124 L614 1124 L363 1434 Z " />
<glyph glyph-name="uni0341" unicode="&#x341;" horiz-adv-x="694" d="M80 1124 L300 1124 L614 1434 L331 1434 L80 1124 Z " />
<glyph glyph-name="uni0342" unicode="&#x342;" horiz-adv-x="865" d="M394 1247 C438 1212 488 1183 549 1183 C793 1183 784 1432 784 1432 L599 1432 C599 1432 601 1354 544 1354 C517 1354 489 1377 471 1390 C427 1425 377 1454 316 1454 C72 1454 81 1205 81 1205 L266 1205 C266 1205 264 1283 321 1283 C348 1283 376 1260 394 1247 L394 1247 Z " />
<glyph glyph-name="uni0343" unicode="&#x343;" horiz-adv-x="580" d="M80 972 L311 972 L500 1434 L231 1434 L80 972 Z " />
<glyph glyph-name="uni0344" unicode="&#x344;" horiz-adv-x="694" d="M80 1124 L300 1124 L614 1434 L331 1434 L80 1124 Z " />
<glyph glyph-name="uni0345" unicode="&#x345;" horiz-adv-x="662" d="M473 -148 C438 -183 414 -204 369 -204 C316 -204 302 -174 302 -126 L302 56 L80 56 L80 -96 C80 -300 142 -414 348 -414 C424 -414 518 -387 582 -300 L473 -148 Z " />
<glyph glyph-name="uni0346" unicode="&#x346;" horiz-adv-x="866" d="M80 1127 L292 1127 L292 1265 L574 1265 L574 1127 L786 1127 L786 1434 L80 1434 L80 1127 Z " />
<glyph glyph-name="uni0347" unicode="&#x347;" horiz-adv-x="554" d="M474 -30 L80 -30 L80 -167 L474 -167 L474 -30 Z M474 167 L80 167 L80 30 L474 30 L474 167 Z " />
<glyph glyph-name="uni0348" unicode="&#x348;" horiz-adv-x="750" d="M80 -532 L331 -532 L331 -63 L80 -63 L80 -532 Z M419 -532 L670 -532 L670 -63 L419 -63 L419 -532 Z " />
<glyph glyph-name="uni0349" unicode="&#x349;" horiz-adv-x="559" d="M80 -160 L80 -328 L291 -328 L291 -532 L479 -532 L479 -160 L80 -160 Z " />
<glyph glyph-name="uni034A" unicode="&#x34a;" horiz-adv-x="865" d="M439 1533 L398 1436 C373 1447 346 1454 316 1454 C72 1454 81 1205 81 1205 L266 1205 C266 1205 264 1283 321 1283 C325 1283 328 1282 332 1281 L257 1104 L426 1104 L467 1201 C492 1190 519 1183 549 1183 C793 1183 784 1432 784 1432 L599 1432 C599 1432 601 1354 544 1354 C540 1354 536 1354 532 1355 L608 1533 L439 1533 Z " />
<glyph glyph-name="uni034B" unicode="&#x34b;" horiz-adv-x="865" d="M239 1058 C239 988 296 930 366 930 C437 930 494 988 494 1058 C494 1128 437 1185 366 1185 C296 1185 239 1128 239 1058 L239 1058 Z M372 1580 C372 1510 429 1452 499 1452 C570 1452 627 1510 627 1580 C627 1650 570 1707 499 1707 C429 1707 372 1650 372 1580 L372 1580 Z M394 1247 C438 1212 488 1183 549 1183 C793 1183 784 1432 784 1432 L599 1432 C599 1432 601 1354 544 1354 C517 1354 489 1377 471 1390 C427 1425 377 1454 316 1454 C72 1454 81 1205 81 1205 L266 1205 C266 1205 264 1283 321 1283 C348 1283 376 1260 394 1247 L394 1247 Z " />
<glyph glyph-name="uni034C" unicode="&#x34c;" horiz-adv-x="962" d="M425 1152 C476 1113 550 1077 636 1077 C744 1077 830 1120 882 1195 L882 1434 C801 1338 735 1306 656 1306 C613 1306 576 1319 537 1343 C486 1382 412 1418 326 1418 C218 1418 132 1375 80 1300 L80 1061 C161 1157 227 1189 306 1189 C349 1189 386 1176 425 1152 L425 1152 Z M425 765 C476 726 550 690 636 690 C744 690 830 733 882 808 L882 1047 C801 951 735 919 656 919 C613 919 576 932 537 956 C486 995 412 1031 326 1031 C218 1031 132 988 80 913 L80 674 C161 770 227 802 306 802 C349 802 386 789 425 765 L425 765 Z " />
<glyph glyph-name="uni034D" unicode="&#x34d;" horiz-adv-x="2396" d="M524 -161 L726 -29 L726 235 L80 -275 L726 -785 L726 -521 L524 -389 L1872 -389 L1670 -521 L1670 -785 L2316 -275 L1670 235 L1670 -29 L1872 -161 L524 -161 Z " />
<glyph glyph-name="uni034E" unicode="&#x34e;" horiz-adv-x="1180" d="M704 -532 L704 -161 L836 -363 L1100 -363 L590 283 L80 -363 L344 -363 L476 -161 L476 -532 L704 -532 Z " />
<glyph glyph-name="tonos" unicode="&#x384;" horiz-adv-x="492" d="M80 1056 L293 1056 L412 1434 L154 1434 L80 1056 Z " />
<glyph glyph-name="dieresistonos" unicode="&#x385;" horiz-adv-x="938" d="M357 1534 L570 1534 L689 1912 L431 1912 L357 1534 Z M100 1327 C100 1246 166 1180 247 1180 C328 1180 394 1246 394 1327 C394 1408 328 1474 247 1474 C166 1474 100 1408 100 1327 L100 1327 Z M544 1327 C544 1246 610 1180 691 1180 C772 1180 838 1246 838 1327 C838 1408 772 1474 691 1474 C610 1474 544 1408 544 1327 L544 1327 Z " />
<glyph glyph-name="Alphatonos" unicode="&#x386;" horiz-adv-x="1651" d="M108 1056 L321 1056 L440 1434 L182 1434 L108 1056 Z M1176 226 L1021 226 L1021 0 L1611 0 L1611 226 L1455 226 L936 1434 L460 1434 L460 1208 L620 1208 L196 226 L40 226 L40 0 L630 0 L630 226 L474 226 L553 414 L1097 414 L1176 226 Z M825 1063 L1002 641 L648 641 L825 1063 Z " />
<glyph glyph-name="Epsilontonos" unicode="&#x388;" horiz-adv-x="1799" d="M100 1056 L313 1056 L432 1434 L174 1434 L100 1056 Z M472 0 L1699 0 L1699 381 L1429 381 L1429 226 L902 226 L902 618 L1459 618 L1459 844 L902 844 L902 1208 L1419 1208 L1419 1053 L1689 1053 L1689 1434 L472 1434 L472 1208 L632 1208 L632 226 L472 226 L472 0 Z " />
<glyph glyph-name="Etatonos" unicode="&#x389;" horiz-adv-x="2045" d="M30 1056 L243 1056 L362 1434 L104 1434 L30 1056 Z M832 1208 L992 1208 L992 1434 L402 1434 L402 1208 L562 1208 L562 226 L402 226 L402 0 L992 0 L992 226 L832 226 L832 618 L1515 618 L1515 226 L1355 226 L1355 0 L1945 0 L1945 226 L1785 226 L1785 1208 L1945 1208 L1945 1434 L1355 1434 L1355 1208 L1515 1208 L1515 844 L832 844 L832 1208 Z " />
<glyph glyph-name="Iotatonos" unicode="&#x38a;" horiz-adv-x="1092" d="M30 1056 L243 1056 L362 1434 L104 1434 L30 1056 Z M832 1208 L992 1208 L992 1434 L402 1434 L402 1208 L562 1208 L562 226 L402 226 L402 0 L992 0 L992 226 L832 226 L832 1208 Z " />
<glyph glyph-name="Omicrontonos" unicode="&#x38c;" horiz-adv-x="1894" d="M80 1056 L293 1056 L412 1434 L154 1434 L80 1056 Z M1052 -30 C1544 -30 1814 285 1814 717 C1814 1148 1544 1464 1052 1464 C560 1464 290 1148 290 717 C290 285 560 -30 1052 -30 L1052 -30 Z M1052 196 C721 196 564 417 564 717 C564 1017 721 1238 1052 1238 C1383 1238 1540 1017 1540 717 C1540 417 1383 196 1052 196 L1052 196 Z " />
<glyph glyph-name="Upsilontonos" unicode="&#x38e;" horiz-adv-x="1908" d="M40 1056 L253 1056 L372 1434 L114 1434 L40 1056 Z M999 548 L999 226 L839 226 L839 0 L1429 0 L1429 226 L1269 226 L1269 547 L1718 1208 L1868 1208 L1868 1434 L1278 1434 L1278 1208 L1428 1208 L1134 763 L839 1208 L990 1208 L990 1434 L400 1434 L400 1208 L550 1208 L999 548 Z " />
<glyph glyph-name="Omegatonos" unicode="&#x38f;" horiz-adv-x="1871" d="M1122 0 L1791 0 L1791 290 L1521 290 L1521 226 L1381 226 C1607 313 1791 556 1791 815 C1791 1191 1516 1464 1053 1464 C590 1464 315 1191 315 815 C315 556 499 313 725 226 L585 226 L585 290 L315 290 L315 0 L984 0 L984 206 C744 330 585 543 585 795 C585 1064 747 1238 1053 1238 C1359 1238 1521 1064 1521 795 C1521 543 1362 330 1122 206 L1122 0 Z M80 1056 L293 1056 L412 1434 L154 1434 L80 1056 Z " />
<glyph glyph-name="iotadieresistonos" unicode="&#x390;" horiz-adv-x="818" d="M297 1534 L510 1534 L629 1912 L371 1912 L297 1534 Z M40 1327 C40 1246 106 1180 187 1180 C268 1180 334 1246 334 1327 C334 1408 268 1474 187 1474 C106 1474 40 1408 40 1327 L40 1327 Z M484 1327 C484 1246 550 1180 631 1180 C712 1180 778 1246 778 1327 C778 1408 712 1474 631 1474 C550 1474 484 1408 484 1327 L484 1327 Z M535 364 L535 1022 L124 1022 L124 813 L284 813 L284 360 C284 198 284 0 501 0 L630 0 L630 209 L597 209 C535 209 535 280 535 364 L535 364 Z " />
<glyph glyph-name="Alpha" unicode="&#x391;" horiz-adv-x="1651" d="M1176 226 L1021 226 L1021 0 L1611 0 L1611 226 L1455 226 L936 1434 L460 1434 L460 1208 L620 1208 L196 226 L40 226 L40 0 L630 0 L630 226 L474 226 L553 414 L1097 414 L1176 226 Z M825 1063 L1002 641 L648 641 L825 1063 Z " />
<glyph glyph-name="Beta" unicode="&#x392;" horiz-adv-x="1551" d="M932 0 C1309 0 1471 182 1471 415 C1471 603 1358 710 1198 751 C1295 781 1426 877 1426 1059 C1426 1267 1298 1434 932 1434 L100 1434 L100 1208 L260 1208 L260 226 L100 226 L100 0 L932 0 Z M932 625 C1130 625 1200 549 1200 425 C1200 302 1140 226 932 226 L530 226 L530 625 L932 625 Z M530 852 L530 1208 L932 1208 C1080 1208 1155 1150 1155 1030 C1155 910 1080 852 932 852 L530 852 Z " />
<glyph glyph-name="Gamma" unicode="&#x393;" horiz-adv-x="1400" d="M100 1434 L100 1208 L260 1208 L260 226 L100 226 L100 0 L690 0 L690 226 L530 226 L530 1208 L1030 1208 L1030 1053 L1300 1053 L1300 1434 L100 1434 Z " />
<glyph glyph-name="uni0394" unicode="&#x394;" horiz-adv-x="1651" d="M1611 0 L1611 226 L1455 226 L936 1434 L460 1434 L460 1208 L620 1208 L196 226 L40 226 L40 0 L1611 0 Z M825 1063 L1176 226 L474 226 L825 1063 Z " />
<glyph glyph-name="Epsilon" unicode="&#x395;" horiz-adv-x="1427" d="M100 0 L1327 0 L1327 381 L1057 381 L1057 226 L530 226 L530 618 L1087 618 L1087 844 L530 844 L530 1208 L1047 1208 L1047 1053 L1317 1053 L1317 1434 L100 1434 L100 1208 L260 1208 L260 226 L100 226 L100 0 Z " />
<glyph glyph-name="Zeta" unicode="&#x396;" horiz-adv-x="1387" d="M1287 1434 L142 1434 L142 1053 L412 1053 L412 1208 L907 1208 L100 134 L100 0 L1287 0 L1287 381 L1017 381 L1017 226 L480 226 L1287 1300 L1287 1434 Z " />
<glyph glyph-name="Eta" unicode="&#x397;" horiz-adv-x="1743" d="M530 1208 L690 1208 L690 1434 L100 1434 L100 1208 L260 1208 L260 226 L100 226 L100 0 L690 0 L690 226 L530 226 L530 618 L1213 618 L1213 226 L1053 226 L1053 0 L1643 0 L1643 226 L1483 226 L1483 1208 L1643 1208 L1643 1434 L1053 1434 L1053 1208 L1213 1208 L1213 844 L530 844 L530 1208 Z " />
<glyph glyph-name="Theta" unicode="&#x398;" horiz-adv-x="1684" d="M526 604 L1176 604 L1176 830 L526 830 L526 604 Z M842 -30 C1334 -30 1604 285 1604 717 C1604 1148 1334 1464 842 1464 C350 1464 80 1148 80 717 C80 285 350 -30 842 -30 L842 -30 Z M842 196 C511 196 354 417 354 717 C354 1017 511 1238 842 1238 C1173 1238 1330 1017 1330 717 C1330 417 1173 196 842 196 L842 196 Z " />
<glyph glyph-name="Iota" unicode="&#x399;" horiz-adv-x="730" d="M500 1208 L660 1208 L660 1434 L70 1434 L70 1208 L230 1208 L230 226 L70 226 L70 0 L660 0 L660 226 L500 226 L500 1208 Z " />
<glyph glyph-name="Kappa" unicode="&#x39a;" horiz-adv-x="1572" d="M530 1208 L690 1208 L690 1434 L100 1434 L100 1208 L260 1208 L260 226 L100 226 L100 0 L690 0 L690 226 L530 226 L530 535 L691 667 L1131 0 L1472 0 L1472 226 L1312 226 L902 841 L1348 1208 L1472 1208 L1472 1434 L882 1434 L882 1208 L991 1208 L530 825 L530 1208 Z " />
<glyph glyph-name="Lambda" unicode="&#x39b;" horiz-adv-x="1651" d="M825 1063 L1176 226 L1021 226 L1021 0 L1611 0 L1611 226 L1455 226 L936 1434 L460 1434 L460 1208 L620 1208 L196 226 L40 226 L40 0 L630 0 L630 226 L474 226 L825 1063 Z " />
<glyph glyph-name="Mu" unicode="&#x39c;" horiz-adv-x="2104" d="M1844 1208 L2004 1208 L2004 1434 L1472 1434 L1052 420 L632 1434 L100 1434 L100 1208 L260 1208 L260 226 L100 226 L100 0 L690 0 L690 226 L530 226 L530 1024 L954 0 L1150 0 L1574 1024 L1574 226 L1414 226 L1414 0 L2004 0 L2004 226 L1844 226 L1844 1208 Z " />
<glyph glyph-name="Nu" unicode="&#x39d;" horiz-adv-x="1777" d="M100 0 L690 0 L690 226 L530 226 L530 1059 L1173 0 L1517 0 L1517 1208 L1677 1208 L1677 1434 L1087 1434 L1087 1208 L1247 1208 L1247 375 L604 1434 L100 1434 L100 1208 L260 1208 L260 226 L100 226 L100 0 Z " />
<glyph glyph-name="Xi" unicode="&#x39e;" horiz-adv-x="1220" d="M80 1208 L1140 1208 L1140 1434 L80 1434 L80 1208 Z M80 0 L1140 0 L1140 226 L80 226 L80 0 Z M184 618 L1036 618 L1036 845 L184 845 L184 618 Z " />
<glyph glyph-name="Omicron" unicode="&#x39f;" horiz-adv-x="1684" d="M842 -30 C1334 -30 1604 285 1604 717 C1604 1148 1334 1464 842 1464 C350 1464 80 1148 80 717 C80 285 350 -30 842 -30 L842 -30 Z M842 196 C511 196 354 417 354 717 C354 1017 511 1238 842 1238 C1173 1238 1330 1017 1330 717 C1330 417 1173 196 842 196 L842 196 Z " />
<glyph glyph-name="Pi" unicode="&#x3a0;" horiz-adv-x="1737" d="M1207 226 L1047 226 L1047 0 L1637 0 L1637 226 L1477 226 L1477 1208 L1637 1208 L1637 1434 L100 1434 L100 1208 L260 1208 L260 226 L100 226 L100 0 L690 0 L690 226 L530 226 L530 1208 L1207 1208 L1207 226 Z " />
<glyph glyph-name="Rho" unicode="&#x3a1;" horiz-adv-x="1509" d="M690 0 L690 226 L530 226 L530 474 L896 474 C1230 474 1429 642 1429 954 C1429 1266 1230 1434 896 1434 L100 1434 L100 1208 L260 1208 L260 226 L100 226 L100 0 L690 0 Z M530 1208 L896 1208 C1082 1208 1157 1108 1157 954 C1157 800 1082 700 896 700 L530 700 L530 1208 Z " />
<glyph glyph-name="Sigma" unicode="&#x3a3;" horiz-adv-x="1311" d="M100 0 L1211 0 L1211 381 L941 381 L941 226 L493 226 L832 718 L494 1208 L941 1208 L941 1053 L1211 1053 L1211 1434 L108 1434 L108 1302 L516 718 L100 134 L100 0 Z " />
<glyph glyph-name="Tau" unicode="&#x3a4;" horiz-adv-x="1508" d="M889 1208 L1138 1208 L1138 1053 L1408 1053 L1408 1434 L100 1434 L100 1053 L370 1053 L370 1208 L619 1208 L619 226 L459 226 L459 0 L1049 0 L1049 226 L889 226 L889 1208 Z " />
<glyph glyph-name="Upsilon" unicode="&#x3a5;" horiz-adv-x="1548" d="M639 548 L639 226 L479 226 L479 0 L1069 0 L1069 226 L909 226 L909 547 L1358 1208 L1508 1208 L1508 1434 L918 1434 L918 1208 L1068 1208 L774 763 L479 1208 L630 1208 L630 1434 L40 1434 L40 1208 L190 1208 L639 548 Z " />
<glyph glyph-name="Phi" unicode="&#x3a6;" horiz-adv-x="1552" d="M1071 0 L1071 226 L911 226 L911 275 C1242 295 1472 419 1472 717 C1472 1015 1242 1139 911 1159 L911 1208 L1071 1208 L1071 1434 L481 1434 L481 1208 L641 1208 L641 1159 C310 1139 80 1015 80 717 C80 419 310 295 641 275 L641 226 L481 226 L481 0 L1071 0 Z M911 933 C1080 921 1202 876 1202 717 C1202 558 1080 513 911 501 L911 933 Z M641 501 C472 513 350 558 350 717 C350 876 472 921 641 933 L641 501 Z " />
<glyph glyph-name="Chi" unicode="&#x3a7;" horiz-adv-x="1475" d="M894 748 L1229 1208 L1370 1208 L1370 1434 L780 1434 L780 1208 L916 1208 L727 946 L375 1434 L65 1434 L65 1208 L225 1208 L560 748 L180 226 L40 226 L40 0 L630 0 L630 226 L492 226 L727 551 L1126 0 L1435 0 L1435 226 L1275 226 L894 748 Z " />
<glyph glyph-name="Psi" unicode="&#x3a8;" horiz-adv-x="1720" d="M1530 1208 L1680 1208 L1680 1434 L1270 1434 C1270 1014 1187 734 995 685 L995 1208 L1155 1208 L1155 1434 L565 1434 L565 1208 L725 1208 L725 685 C533 734 450 1014 450 1434 L40 1434 L40 1208 L190 1208 C239 694 460 504 725 458 L725 226 L565 226 L565 0 L1155 0 L1155 226 L995 226 L995 458 C1260 504 1481 694 1530 1208 L1530 1208 Z " />
<glyph glyph-name="uni03A9" unicode="&#x3a9;" horiz-adv-x="1636" d="M749 206 C509 330 350 543 350 795 C350 1064 512 1238 818 1238 C1124 1238 1286 1064 1286 795 C1286 543 1127 330 887 206 L887 0 L1556 0 L1556 290 L1286 290 L1286 226 L1146 226 C1372 313 1556 556 1556 815 C1556 1191 1281 1464 818 1464 C355 1464 80 1191 80 815 C80 556 264 313 490 226 L350 226 L350 290 L80 290 L80 0 L749 0 L749 206 Z " />
<glyph glyph-name="Iotadieresis" unicode="&#x3aa;" horiz-adv-x="858" d="M564 1208 L724 1208 L724 1434 L134 1434 L134 1208 L294 1208 L294 226 L134 226 L134 0 L724 0 L724 226 L564 226 L564 1208 Z M60 1683 C60 1602 126 1536 207 1536 C288 1536 354 1602 354 1683 C354 1764 288 1830 207 1830 C126 1830 60 1764 60 1683 L60 1683 Z M504 1683 C504 1602 570 1536 651 1536 C732 1536 798 1602 798 1683 C798 1764 732 1830 651 1830 C570 1830 504 1764 504 1683 L504 1683 Z " />
<glyph glyph-name="Upsilondieresis" unicode="&#x3ab;" horiz-adv-x="1548" d="M405 1683 C405 1602 471 1536 552 1536 C633 1536 699 1602 699 1683 C699 1764 633 1830 552 1830 C471 1830 405 1764 405 1683 L405 1683 Z M849 1683 C849 1602 915 1536 996 1536 C1077 1536 1143 1602 1143 1683 C1143 1764 1077 1830 996 1830 C915 1830 849 1764 849 1683 L849 1683 Z M639 548 L639 226 L479 226 L479 0 L1069 0 L1069 226 L909 226 L909 547 L1358 1208 L1508 1208 L1508 1434 L918 1434 L918 1208 L1068 1208 L774 763 L479 1208 L630 1208 L630 1434 L40 1434 L40 1208 L190 1208 L639 548 Z " />
<glyph glyph-name="alphatonos" unicode="&#x3ac;" horiz-adv-x="1419" d="M562 -20 C724 -20 884 32 965 214 C1002 93 1069 0 1069 0 L1359 0 C1359 0 1162 209 1162 511 C1162 813 1359 1022 1359 1022 L1069 1022 C1069 1022 1002 929 965 808 C884 990 724 1042 562 1042 C246 1042 60 813 60 511 C60 209 246 -20 562 -20 L562 -20 Z M614 190 C402 190 317 344 317 511 C317 678 402 832 614 832 C826 832 911 678 911 511 C911 344 826 190 614 190 L614 190 Z M495 1138 L708 1138 L827 1516 L569 1516 L495 1138 Z " />
<glyph glyph-name="epsilontonos" unicode="&#x3ad;" horiz-adv-x="1055" d="M402 1138 L615 1138 L734 1516 L476 1516 L402 1138 Z M824 270 C749 221 657 189 512 189 C381 189 311 233 311 309 C311 394 420 418 680 418 L680 627 C421 627 340 659 340 740 C340 793 390 833 512 833 C571 833 631 822 682 804 L682 700 L933 700 L933 929 C933 929 755 1042 512 1042 C287 1042 89 946 89 740 C89 666 133 574 234 530 C138 499 60 423 60 309 C60 76 259 -20 512 -20 C789 -20 919 60 975 114 L824 270 Z " />
</font>
</svg>
