<?xml version="1.0" encoding="UTF-8"?>
<svg xmlns="http://www.w3.org/2000/svg" xmlns:xlink="http://www.w3.org/1999/xlink" version="1.2" >
<font id="Artegra Slab Black">
<font-face  font-family="Artegra Slab" units-per-em="2048" ascent="1516" descent="-532" font-style="normal" font-weight="900" font-stretch="normal" cap-height="1434" x-height="1046" underline-position="-154" underline-thickness="102" />
<missing-glyph  horiz-adv-x="922" d="" />
<glyph glyph-name="NULL" d="" />
<glyph glyph-name="CR" unicode="&#xd;" horiz-adv-x="922" d="" />
<glyph glyph-name="space" unicode="&#x20;" horiz-adv-x="573" d="" />
<glyph glyph-name="exclam" unicode="&#x21;" horiz-adv-x="673" d="M150 482 L523 482 L553 1434 L120 1434 L150 482 Z M126 190 C126 74 220 -20 336 -20 C452 -20 546 74 546 190 C546 306 452 400 336 400 C220 400 126 306 126 190 L126 190 Z " />
<glyph glyph-name="quotedbl" unicode="&#x22;" horiz-adv-x="878" d="M31 927 L383 927 L403 1434 L10 1434 L31 927 Z M496 927 L848 927 L868 1434 L475 1434 L496 927 Z " />
<glyph glyph-name="numbersign" unicode="&#x23;" horiz-adv-x="1721" d="M1031 1191 L843 1191 L882 1434 L464 1434 L425 1191 L154 1191 L154 826 L366 826 L331 608 L60 608 L60 243 L273 243 L234 0 L652 0 L691 243 L879 243 L840 0 L1257 0 L1296 243 L1567 243 L1567 608 L1354 608 L1389 826 L1661 826 L1661 1191 L1448 1191 L1487 1434 L1070 1434 L1031 1191 Z M784 826 L972 826 L937 608 L749 608 L784 826 Z " />
<glyph glyph-name="dollar" unicode="&#x24;" horiz-adv-x="1446" d="M861 1674 L579 1674 L579 1468 C238 1435 100 1246 100 1020 C100 768 292 631 675 551 C819 522 919 497 919 422 C919 330 813 312 671 312 C590 312 523 326 523 326 L523 467 L100 467 L100 105 C100 105 257 -12 579 -36 L579 -240 L861 -240 L861 -30 C1148 3 1346 133 1346 422 C1346 718 1122 818 757 894 C629 921 527 942 527 1020 C527 1096 598 1122 711 1122 C776 1122 828 1117 878 1110 L878 975 L1301 975 L1301 1374 C1301 1374 1121 1443 861 1466 L861 1674 Z " />
<glyph glyph-name="ampersand" unicode="&#x26;" horiz-adv-x="1661" d="M746 1474 C460 1474 229 1323 229 1052 C229 907 282 810 328 753 C178 661 60 550 60 350 C60 71 289 -40 607 -40 C805 -40 939 -1 1021 57 C1021 57 1117 0 1333 0 L1601 0 L1601 352 L1340 352 C1364 381 1392 425 1410 454 L1511 454 L1511 806 L1182 806 C1115 698 1034 599 996 561 C946 608 944 602 907 644 C1052 734 1245 883 1245 1092 C1245 1310 1039 1474 746 1474 L746 1474 Z M822 1054 C822 1001 780 958 694 908 C678 932 652 974 652 1032 C652 1102 700 1122 746 1122 C797 1122 822 1090 822 1054 L822 1054 Z M483 376 C483 416 509 440 552 466 C604 409 643 373 694 333 C680 324 647 312 604 312 C518 312 483 334 483 376 L483 376 Z " />
<glyph glyph-name="quotesingle" unicode="&#x27;" horiz-adv-x="413" d="M31 927 L383 927 L403 1434 L10 1434 L31 927 Z " />
<glyph glyph-name="parenleft" unicode="&#x28;" horiz-adv-x="898" d="M518 580 C518 1082 858 1179 858 1179 L703 1537 C703 1537 80 1356 80 580 C80 -196 703 -377 703 -377 L858 -19 C858 -19 518 78 518 580 L518 580 Z " />
<glyph glyph-name="parenright" unicode="&#x29;" horiz-adv-x="898" d="M380 580 C380 78 40 -19 40 -19 L195 -377 C195 -377 818 -196 818 580 C818 1356 195 1537 195 1537 L40 1179 C40 1179 380 1082 380 580 L380 580 Z " />
<glyph glyph-name="asterisk" unicode="&#x2a;" horiz-adv-x="1108" d="M350 1434 L365 1213 L152 1290 L40 898 L252 852 L111 691 L435 444 L554 625 L673 444 L997 691 L855 852 L1068 898 L956 1290 L742 1212 L758 1434 L350 1434 Z " />
<glyph glyph-name="plus" unicode="&#x2b;" horiz-adv-x="1210" d="M1150 854 L797 854 L797 1193 L412 1193 L412 854 L60 854 L60 502 L412 502 L412 163 L797 163 L797 502 L1150 502 L1150 854 Z " />
<glyph glyph-name="comma" unicode="&#x2c;" horiz-adv-x="740" d="M40 -278 L431 -278 L680 264 L251 264 L40 -278 Z " />
<glyph glyph-name="hyphen" unicode="&#x2d;" horiz-adv-x="958" d="M60 436 L898 436 L898 719 L60 719 L60 436 Z " />
<glyph glyph-name="period" unicode="&#x2e;" horiz-adv-x="540" d="M60 190 C60 74 154 -20 270 -20 C386 -20 480 74 480 190 C480 306 386 400 270 400 C154 400 60 306 60 190 L60 190 Z " />
<glyph glyph-name="slash" unicode="&#x2f;" horiz-adv-x="1273" d="M80 0 L534 0 L1193 1434 L740 1434 L80 0 Z " />
<glyph glyph-name="zero" unicode="0" horiz-adv-x="1492" d="M1432 717 C1432 1177 1200 1474 746 1474 C292 1474 60 1177 60 717 C60 257 292 -40 746 -40 C1200 -40 1432 257 1432 717 L1432 717 Z M1009 717 C1009 451 937 312 746 312 C555 312 483 451 483 717 C483 983 555 1122 746 1122 C937 1122 1009 983 1009 717 L1009 717 Z " />
<glyph glyph-name="one" unicode="1" horiz-adv-x="1037" d="M395 879 L395 352 L236 352 L236 0 L977 0 L977 352 L818 352 L818 1434 L463 1434 L10 1035 L263 763 L395 879 Z " />
<glyph glyph-name="two" unicode="2" horiz-adv-x="1331" d="M441 947 C482 1032 547 1122 655 1122 C766 1122 810 1074 810 1000 C810 934 764 871 675 792 L85 281 L85 0 L1251 0 L1251 407 L898 407 L898 352 L735 352 L993 575 C1143 703 1233 818 1233 1000 C1233 1312 995 1474 655 1474 C293 1474 144 1244 80 1076 L441 947 Z " />
<glyph glyph-name="three" unicode="3" horiz-adv-x="1360" d="M90 987 L513 987 L513 1073 C545 1098 594 1122 669 1122 C789 1122 837 1083 837 1023 C837 906 694 902 477 902 L477 559 C743 559 887 542 887 432 C887 366 832 312 669 312 C528 312 483 350 483 350 L483 440 L60 440 L60 250 C60 250 150 -40 669 -40 C1064 -47 1300 121 1300 412 C1300 601 1180 709 1062 745 C1167 796 1260 886 1260 1043 C1260 1341 989 1474 669 1474 C195 1474 90 1176 90 1176 L90 987 Z " />
<glyph glyph-name="four" unicode="4" horiz-adv-x="1423" d="M1346 0 L1346 292 L1187 292 L1187 351 L1363 351 L1363 701 L1187 701 L1187 1434 L799 1434 L80 665 L80 351 L764 351 L764 292 L605 292 L605 0 L1346 0 Z M575 701 L764 904 L764 701 L575 701 Z " />
<glyph glyph-name="five" unicode="5" horiz-adv-x="1395" d="M1199 1434 L160 1434 L106 513 C106 513 338 597 675 597 C823 597 872 547 872 453 C872 352 803 312 655 312 C597 312 547 317 503 327 L503 423 L80 423 L80 139 C183 40 375 -40 655 -40 C1081 -40 1315 118 1315 453 C1315 802 1081 949 675 949 C634 949 592 945 563 941 L571 1082 L1199 1082 L1199 1434 Z " />
<glyph glyph-name="six" unicode="6" horiz-adv-x="1424" d="M1212 1395 C709 1574 -1 1444 88 473 C131 135 340 -40 716 -40 C1113 -40 1344 145 1344 473 C1344 801 1113 986 716 986 C643 986 584 971 560 959 C597 1080 694 1120 789 1120 L789 1052 L1212 1052 L1212 1395 Z M921 473 C921 367 843 312 716 312 C588 312 511 367 511 473 C511 579 589 634 716 634 C843 634 921 579 921 473 L921 473 Z " />
<glyph glyph-name="seven" unicode="7" horiz-adv-x="1321" d="M1241 1434 L80 1434 L80 945 L503 945 L503 1082 L761 1082 L444 352 L293 352 L293 0 L1034 0 L1034 352 L884 352 L1241 1176 L1241 1434 Z " />
<glyph glyph-name="eight" unicode="8" horiz-adv-x="1374" d="M687 -40 C1056 -40 1314 111 1314 425 C1314 590 1223 694 1111 741 C1207 784 1281 881 1281 1027 C1281 1283 1092 1474 687 1474 C282 1474 93 1283 93 1027 C93 881 167 784 263 741 C151 694 60 590 60 425 C60 111 318 -40 687 -40 L687 -40 Z M687 312 C554 312 483 351 483 445 C483 539 554 578 687 578 C820 578 891 539 891 445 C891 351 820 312 687 312 L687 312 Z M858 1007 C858 925 798 892 687 892 C576 892 516 925 516 1007 C516 1089 576 1122 687 1122 C798 1122 858 1089 858 1007 L858 1007 Z " />
<glyph glyph-name="nine" unicode="9" horiz-adv-x="1424" d="M212 39 C715 -140 1425 -10 1336 961 C1293 1299 1084 1474 708 1474 C311 1474 80 1289 80 961 C80 633 311 448 708 448 C781 448 840 463 864 475 C827 354 730 314 635 314 L635 382 L212 382 L212 39 Z M503 961 C503 1067 581 1122 708 1122 C836 1122 913 1067 913 961 C913 855 835 800 708 800 C581 800 503 855 503 961 L503 961 Z " />
<glyph glyph-name="colon" unicode="&#x3a;" horiz-adv-x="540" d="M60 190 C60 74 154 -20 270 -20 C386 -20 480 74 480 190 C480 306 386 400 270 400 C154 400 60 306 60 190 L60 190 Z M60 856 C60 740 154 646 270 646 C386 646 480 740 480 856 C480 972 386 1066 270 1066 C154 1066 60 972 60 856 L60 856 Z " />
<glyph glyph-name="semicolon" unicode="&#x3b;" horiz-adv-x="660" d="M174 856 C174 740 268 646 384 646 C500 646 594 740 594 856 C594 972 500 1066 384 1066 C268 1066 174 972 174 856 L174 856 Z M-40 -278 L351 -278 L600 264 L171 264 L-40 -278 Z " />
<glyph glyph-name="less" unicode="&#x3c;" horiz-adv-x="1086" d="M60 802 L60 572 L1006 76 L1006 497 L600 687 L1006 877 L1006 1298 L60 802 Z " />
<glyph glyph-name="equal" unicode="&#x3d;" horiz-adv-x="1050" d="M990 622 L60 622 L60 270 L990 270 L990 622 Z M990 1086 L60 1086 L60 734 L990 734 L990 1086 Z " />
<glyph glyph-name="greater" unicode="&#x3e;" horiz-adv-x="1086" d="M80 1298 L80 877 L486 687 L80 497 L80 76 L1026 572 L1026 802 L80 1298 Z " />
<glyph glyph-name="question" unicode="&#x3f;" horiz-adv-x="1264" d="M370 1001 C433 1071 514 1122 633 1122 C737 1122 801 1078 801 1008 C801 888 645 848 402 844 L402 482 L825 482 L825 639 C1143 694 1224 873 1224 1028 C1224 1278 1014 1474 633 1474 C255 1474 93 1266 40 1183 L370 1001 Z M403 190 C403 74 497 -20 613 -20 C729 -20 823 74 823 190 C823 306 729 400 613 400 C497 400 403 306 403 190 L403 190 Z " />
<glyph glyph-name="at" unicode="&#x40;" horiz-adv-x="1700" d="M1295 185 C1526 185 1640 321 1640 517 C1640 963 1295 1264 850 1264 C405 1264 60 963 60 517 C60 71 405 -230 850 -230 C1149 -230 1335 -154 1469 -57 L1300 112 C1188 44 1046 -4 850 -4 C551 -4 319 188 319 517 C319 846 551 1038 850 1038 C1148 1038 1381 846 1381 517 C1381 433 1336 381 1255 381 C1185 381 1148 436 1150 527 C1152 619 1160 727 1169 839 C1077 885 982 908 870 908 C754 908 494 844 457 527 C428 220 635 127 783 127 C935 127 1034 226 1059 329 C1079 256 1187 185 1295 185 L1295 185 Z M673 516 C696 707 849 749 972 708 L953 542 C935 394 885 323 795 323 C700 323 657 384 673 516 L673 516 Z " />
<glyph glyph-name="A" unicode="A" horiz-adv-x="1696" d="M1086 352 L935 352 L935 0 L1676 0 L1676 352 L1525 352 L1062 1434 L331 1434 L331 1082 L490 1082 L171 352 L20 352 L20 0 L761 0 L761 352 L609 352 L644 434 L1051 434 L1086 352 Z M848 915 L932 716 L763 716 L848 915 Z " />
<glyph glyph-name="B" unicode="B" horiz-adv-x="1638" d="M995 0 C1458 0 1578 235 1578 429 C1578 543 1535 694 1326 760 C1457 802 1529 915 1529 1039 C1529 1219 1443 1434 980 1434 L80 1434 L80 1082 L239 1082 L239 352 L80 352 L80 0 L995 0 Z M662 352 L662 573 L995 573 C1112 573 1168 541 1168 462 C1168 383 1112 352 995 352 L662 352 Z M662 874 L662 1082 L980 1082 C1089 1082 1123 1035 1123 978 C1123 921 1089 874 980 874 L662 874 Z " />
<glyph glyph-name="C" unicode="C" horiz-adv-x="1543" d="M1040 945 L1463 945 L1463 1334 C1463 1334 1222 1474 846 1474 C309 1474 60 1136 60 717 C60 298 309 -40 846 -40 C1182 -40 1350 67 1463 166 L1258 438 C1177 384 1066 312 846 312 C587 312 487 514 487 717 C487 920 587 1122 846 1122 C923 1122 986 1113 1040 1099 L1040 945 Z " />
<glyph glyph-name="D" unicode="D" horiz-adv-x="1664" d="M1624 717 C1624 1120 1416 1434 863 1434 L80 1434 L80 1082 L239 1082 L239 352 L80 352 L80 0 L863 0 C1416 0 1624 313 1624 717 L1624 717 Z M662 1082 L863 1082 C1090 1082 1189 960 1189 717 C1189 474 1090 352 863 352 L662 352 L662 1082 Z " />
<glyph glyph-name="E" unicode="E" horiz-adv-x="1560" d="M80 0 L1480 0 L1480 489 L1057 489 L1057 352 L662 352 L662 554 L1027 554 L1027 897 L662 897 L662 1082 L1047 1082 L1047 945 L1470 945 L1470 1434 L80 1434 L80 1082 L239 1082 L239 352 L80 352 L80 0 Z " />
<glyph glyph-name="F" unicode="F" horiz-adv-x="1550" d="M821 352 L662 352 L662 520 L1027 520 L1027 863 L662 863 L662 1082 L1047 1082 L1047 945 L1470 945 L1470 1434 L80 1434 L80 1082 L239 1082 L239 352 L80 352 L80 0 L821 0 L821 352 Z " />
<glyph glyph-name="G" unicode="G" horiz-adv-x="1532" d="M1029 945 L1452 945 L1452 1354 C1452 1354 1200 1474 846 1474 C309 1474 60 1136 60 717 C60 298 309 -40 846 -40 C1068 -40 1260 -10 1452 129 L1452 851 L826 851 L826 538 L1029 538 L1029 345 C1029 345 960 312 846 312 C587 312 487 514 487 717 C487 920 587 1122 846 1122 C912 1122 972 1117 1029 1107 L1029 945 Z " />
<glyph glyph-name="H" unicode="H" horiz-adv-x="1856" d="M239 1082 L239 352 L80 352 L80 0 L821 0 L821 352 L662 352 L662 554 L1194 554 L1194 352 L1035 352 L1035 0 L1776 0 L1776 352 L1617 352 L1617 1082 L1776 1082 L1776 1434 L1035 1434 L1035 1082 L1194 1082 L1194 906 L662 906 L662 1082 L821 1082 L821 1434 L80 1434 L80 1082 L239 1082 Z " />
<glyph glyph-name="I" unicode="I" horiz-adv-x="901" d="M662 1082 L821 1082 L821 1434 L80 1434 L80 1082 L239 1082 L239 352 L80 352 L80 0 L821 0 L821 352 L662 352 L662 1082 Z " />
<glyph glyph-name="J" unicode="J" horiz-adv-x="1423" d="M40 343 C97 112 266 -40 611 -40 C959 -40 1184 119 1184 499 L1184 1082 L1343 1082 L1343 1434 L602 1434 L602 1082 L761 1082 L761 499 C761 396 719 312 591 312 C510 312 453 354 416 443 L40 343 Z " />
<glyph glyph-name="K" unicode="K" horiz-adv-x="1675" d="M1449 1082 L1595 1082 L1595 1434 L900 1434 L900 1082 L964 1082 L662 866 L662 1082 L781 1082 L781 1434 L80 1434 L80 1082 L239 1082 L239 352 L80 352 L80 0 L781 0 L781 352 L662 352 L662 484 L766 563 L1128 0 L1595 0 L1595 352 L1420 352 L1101 818 L1449 1082 Z " />
<glyph glyph-name="L" unicode="L" horiz-adv-x="1469" d="M662 1082 L821 1082 L821 1434 L80 1434 L80 1082 L239 1082 L239 352 L80 352 L80 0 L1389 0 L1389 489 L966 489 L966 352 L662 352 L662 1082 Z " />
<glyph glyph-name="M" unicode="M" horiz-adv-x="2238" d="M1576 352 L1477 352 L1477 0 L2158 0 L2158 352 L1999 352 L1999 1082 L2158 1082 L2158 1434 L1434 1434 L1119 623 L805 1434 L80 1434 L80 1082 L239 1082 L239 352 L80 352 L80 0 L761 0 L761 352 L662 352 L662 777 L964 0 L1274 0 L1576 777 L1576 352 Z " />
<glyph glyph-name="N" unicode="N" horiz-adv-x="1871" d="M80 0 L821 0 L821 352 L662 352 L662 807 L1137 0 L1632 0 L1632 1082 L1791 1082 L1791 1434 L1050 1434 L1050 1082 L1209 1082 L1209 627 L734 1434 L80 1434 L80 1082 L239 1082 L239 352 L80 352 L80 0 Z " />
<glyph glyph-name="O" unicode="O" horiz-adv-x="1692" d="M846 1474 C309 1474 60 1136 60 717 C60 298 309 -40 846 -40 C1383 -40 1632 298 1632 717 C1632 1136 1383 1474 846 1474 L846 1474 Z M846 1122 C1105 1122 1205 920 1205 717 C1205 514 1105 312 846 312 C587 312 487 514 487 717 C487 920 587 1122 846 1122 L846 1122 Z " />
<glyph glyph-name="P" unicode="P" horiz-adv-x="1580" d="M821 0 L821 352 L662 352 L662 456 L892 456 C1284 456 1520 603 1520 945 C1520 1287 1284 1434 892 1434 L80 1434 L80 1082 L239 1082 L239 352 L80 352 L80 0 L821 0 Z M892 1081 C1024 1081 1093 1045 1093 945 C1093 845 1024 809 892 809 L662 809 L662 1081 L892 1081 Z " />
<glyph glyph-name="Q" unicode="Q" horiz-adv-x="1692" d="M846 1474 C309 1474 60 1136 60 717 C60 298 309 -40 846 -40 C956 -40 1054 -25 1140 0 L1219 -88 L1621 -88 L1404 146 C1558 285 1632 489 1632 717 C1632 1136 1383 1474 846 1474 L846 1474 Z M846 1122 C1105 1122 1205 920 1205 717 C1205 618 1181 520 1127 445 L1058 521 L681 521 L865 312 L846 312 C587 312 487 514 487 717 C487 920 587 1122 846 1122 L846 1122 Z " />
<glyph glyph-name="R" unicode="R" horiz-adv-x="1600" d="M761 0 L761 352 L662 352 L662 513 L771 513 L1058 0 L1520 0 L1520 352 L1361 352 L1228 573 C1360 614 1520 724 1520 958 C1520 1320 1244 1434 872 1434 L80 1434 L80 1082 L239 1082 L239 352 L80 352 L80 0 L761 0 Z M872 1082 C1024 1082 1093 1061 1093 958 C1093 854 1024 834 872 834 L662 834 L662 1082 L872 1082 Z " />
<glyph glyph-name="S" unicode="S" horiz-adv-x="1446" d="M691 1474 C268 1474 100 1270 100 1020 C100 768 292 631 675 551 C819 522 919 497 919 422 C919 330 813 312 671 312 C590 312 523 326 523 326 L523 467 L100 467 L100 105 C100 105 294 -40 691 -40 C1068 -40 1346 79 1346 422 C1346 718 1122 818 757 894 C629 921 527 942 527 1020 C527 1096 598 1122 711 1122 C776 1122 828 1117 878 1110 L878 975 L1301 975 L1301 1374 C1301 1374 1040 1474 691 1474 L691 1474 Z " />
<glyph glyph-name="T" unicode="T" horiz-adv-x="1641" d="M1561 1434 L80 1434 L80 945 L503 945 L503 1082 L609 1082 L609 352 L450 352 L450 0 L1191 0 L1191 352 L1032 352 L1032 1082 L1138 1082 L1138 945 L1561 945 L1561 1434 Z " />
<glyph glyph-name="U" unicode="U" horiz-adv-x="1840" d="M920 -40 C1413 -40 1601 236 1601 661 L1601 1082 L1760 1082 L1760 1434 L1019 1434 L1019 1082 L1178 1082 L1178 661 C1178 444 1142 312 920 312 C698 312 662 444 662 661 L662 1082 L821 1082 L821 1434 L80 1434 L80 1082 L239 1082 L239 661 C239 236 427 -40 920 -40 L920 -40 Z " />
<glyph glyph-name="V" unicode="V" horiz-adv-x="1668" d="M1496 1082 L1648 1082 L1648 1434 L927 1434 L927 1082 L1060 1082 L834 519 L608 1082 L741 1082 L741 1434 L20 1434 L20 1082 L172 1082 L620 0 L1048 0 L1496 1082 Z " />
<glyph glyph-name="W" unicode="W" horiz-adv-x="2180" d="M2002 1082 L2160 1082 L2160 1434 L1449 1434 L1449 1082 L1575 1082 L1455 679 L1238 1434 L942 1434 L725 679 L604 1082 L731 1082 L731 1434 L20 1434 L20 1082 L177 1082 L555 0 L877 0 L1090 741 L1303 0 L1625 0 L2002 1082 Z " />
<glyph glyph-name="X" unicode="X" horiz-adv-x="1504" d="M433 1434 L58 1434 L58 1082 L217 1082 L478 745 L179 352 L20 352 L20 0 L701 0 L701 352 L654 352 L752 481 L1110 0 L1484 0 L1484 352 L1324 352 L1025 745 L1286 1082 L1436 1082 L1436 1434 L756 1434 L756 1082 L806 1082 L752 1013 L433 1434 Z " />
<glyph glyph-name="Y" unicode="Y" horiz-adv-x="1606" d="M1423 1082 L1586 1082 L1586 1434 L885 1434 L885 1082 L970 1082 L802 838 L634 1082 L721 1082 L721 1434 L20 1434 L20 1082 L182 1082 L591 489 L591 352 L432 352 L432 0 L1173 0 L1173 352 L1014 352 L1014 489 L1423 1082 Z " />
<glyph glyph-name="Z" unicode="Z" horiz-adv-x="1445" d="M1365 1434 L100 1434 L100 945 L523 945 L523 1082 L743 1082 L80 190 L80 0 L1365 0 L1365 489 L942 489 L942 352 L701 352 L1365 1245 L1365 1434 Z " />
<glyph glyph-name="bracketleft" unicode="&#x5b;" horiz-adv-x="846" d="M533 1082 L776 1082 L776 1434 L110 1434 L110 -427 L776 -427 L776 -75 L533 -75 L533 1082 Z " />
<glyph glyph-name="backslash" unicode="&#x5c;" horiz-adv-x="1236" d="M533 1434 L80 1434 L702 0 L1156 0 L533 1434 Z " />
<glyph glyph-name="bracketright" unicode="&#x5d;" horiz-adv-x="846" d="M313 -75 L70 -75 L70 -427 L736 -427 L736 1434 L70 1434 L70 1082 L313 1082 L313 -75 Z " />
<glyph glyph-name="asciicircum" unicode="&#x5e;" horiz-adv-x="1242" d="M752 1434 L490 1434 L60 810 L405 810 L621 1080 L837 810 L1182 810 L752 1434 Z " />
<glyph glyph-name="underscore" unicode="&#x5f;" horiz-adv-x="1229" d="M80 -392 L1149 -392 L1149 -109 L80 -109 L80 -392 Z " />
<glyph glyph-name="grave" unicode="&#x60;" horiz-adv-x="784" d="M493 1434 L40 1434 L354 1124 L744 1124 L493 1434 Z " />
<glyph glyph-name="a" unicode="a" horiz-adv-x="1367" d="M745 0 L1307 0 L1307 303 L1148 303 L1148 623 C1148 969 977 1076 598 1076 C394 1076 224 1038 116 983 L245 737 C338 772 440 793 560 793 C726 793 745 757 745 677 C415 703 40 630 40 323 C40 107 190 -24 426 -24 C558 -24 680 9 745 121 L745 0 Z M443 344 C443 458 622 465 745 455 L745 400 C745 350 699 259 558 259 C492 259 443 280 443 344 L443 344 Z " />
<glyph glyph-name="b" unicode="b" horiz-adv-x="1549" d="M60 1213 L219 1213 L219 0 L622 0 L622 125 C704 10 835 -30 956 -30 C1301 -30 1509 183 1509 523 C1509 863 1301 1076 956 1076 C835 1076 704 1036 622 921 L622 1516 L60 1516 L60 1213 Z M864 773 C1012 773 1106 671 1106 523 C1106 375 1012 273 864 273 C716 273 622 375 622 523 C622 671 716 773 864 773 L864 773 Z " />
<glyph glyph-name="c" unicode="c" horiz-adv-x="1233" d="M1153 627 L1153 986 C1153 986 956 1076 690 1076 C294 1076 40 874 40 523 C40 172 294 -30 690 -30 C931 -30 1073 50 1153 136 L963 362 C901 318 811 273 690 273 C546 273 443 362 443 523 C443 684 546 773 690 773 C711 773 731 771 750 769 L750 627 L1153 627 Z " />
<glyph glyph-name="d" unicode="d" horiz-adv-x="1549" d="M768 1213 L927 1213 L927 921 C845 1036 714 1076 593 1076 C248 1076 40 863 40 523 C40 183 248 -30 593 -30 C714 -30 845 10 927 125 L927 0 L1489 0 L1489 303 L1330 303 L1330 1516 L768 1516 L768 1213 Z M685 773 C833 773 927 671 927 523 C927 375 833 273 685 273 C537 273 443 375 443 523 C443 671 537 773 685 773 L685 773 Z " />
<glyph glyph-name="e" unicode="e" horiz-adv-x="1237" d="M629 -30 C845 -30 1011 14 1145 117 L958 332 C883 290 791 263 678 263 C510 263 443 330 443 376 L1195 376 C1213 813 1017 1076 629 1076 C238 1076 40 814 40 523 C40 242 210 -30 629 -30 L629 -30 Z M443 630 C443 700 500 783 629 783 C758 783 815 700 815 630 L443 630 Z " />
<glyph glyph-name="f" unicode="f" horiz-adv-x="973" d="M69 0 L790 0 L790 303 L631 303 L631 743 L909 743 L909 1046 L631 1046 C631 1193 651 1243 768 1243 C809 1243 857 1234 884 1227 L983 1501 C904 1528 806 1546 681 1546 C326 1546 228 1323 228 1046 L40 1046 L40 743 L228 743 L228 303 L69 303 L69 0 Z " />
<glyph glyph-name="g" unicode="g" horiz-adv-x="1549" d="M1330 743 L1489 743 L1489 1046 L927 1046 L927 921 C845 1036 714 1076 593 1076 C248 1076 40 863 40 523 C40 183 248 -30 593 -30 C714 -30 845 10 927 125 L927 0 C927 -164 801 -229 628 -229 C489 -229 354 -196 260 -147 L113 -400 C238 -482 434 -528 668 -532 C1030 -538 1323 -408 1330 0 L1330 743 Z M685 273 C537 273 443 375 443 523 C443 671 537 773 685 773 C833 773 927 671 927 523 C927 375 833 273 685 273 L685 273 Z " />
<glyph glyph-name="h" unicode="h" horiz-adv-x="1593" d="M971 0 L1533 0 L1533 303 L1374 303 L1374 579 C1374 877 1220 1076 905 1076 C795 1076 673 1031 622 939 L622 1516 L60 1516 L60 1213 L219 1213 L219 303 L60 303 L60 0 L781 0 L781 303 L622 303 L622 579 C622 704 672 773 796 773 C921 773 971 704 971 579 L971 0 Z " />
<glyph glyph-name="i" unicode="i" horiz-adv-x="841" d="M224 1344 C224 1236 312 1148 420 1148 C528 1148 616 1236 616 1344 C616 1452 528 1540 420 1540 C312 1540 224 1452 224 1344 L224 1344 Z M622 1046 L60 1046 L60 743 L219 743 L219 303 L60 303 L60 0 L781 0 L781 303 L622 303 L622 1046 Z " />
<glyph glyph-name="j" unicode="j" horiz-adv-x="645" d="M565 0 L565 1046 L3 1046 L3 743 L162 743 L162 0 C162 -97 162 -229 47 -229 C4 -229 -34 -218 -64 -206 L-160 -475 C-79 -513 16 -532 125 -532 C457 -532 565 -307 565 0 L565 0 Z M167 1344 C167 1236 255 1148 363 1148 C471 1148 559 1236 559 1344 C559 1452 471 1540 363 1540 C255 1540 167 1452 167 1344 L167 1344 Z " />
<glyph glyph-name="k" unicode="k" horiz-adv-x="1449" d="M1389 743 L1389 1046 L727 1046 L727 743 L800 743 L622 627 L622 1516 L60 1516 L60 1213 L219 1213 L219 303 L60 303 L60 0 L721 0 L721 303 L622 303 L622 340 L717 401 L962 0 L1389 0 L1389 303 L1250 303 L1048 614 L1248 743 L1389 743 Z " />
<glyph glyph-name="l" unicode="l" horiz-adv-x="841" d="M622 1516 L60 1516 L60 1213 L219 1213 L219 303 L60 303 L60 0 L781 0 L781 303 L622 303 L622 1516 Z " />
<glyph glyph-name="m" unicode="m" horiz-adv-x="2203" d="M900 0 L1462 0 L1462 303 L1303 303 L1303 622 C1303 697 1334 773 1443 773 C1550 773 1581 697 1581 622 L1581 0 L2143 0 L2143 303 L1984 303 L1984 592 C1984 880 1843 1076 1565 1076 C1407 1076 1282 1011 1216 922 C1152 1018 1041 1076 884 1076 C753 1076 661 1022 622 947 L622 1046 L60 1046 L60 743 L219 743 L219 303 L60 303 L60 0 L781 0 L781 303 L622 303 L622 622 C622 697 653 773 761 773 C869 773 900 697 900 622 L900 0 Z " />
<glyph glyph-name="n" unicode="n" horiz-adv-x="1593" d="M971 0 L1533 0 L1533 303 L1374 303 L1374 579 C1374 877 1220 1076 905 1076 C795 1076 673 1031 622 939 L622 1046 L60 1046 L60 743 L219 743 L219 303 L60 303 L60 0 L781 0 L781 303 L622 303 L622 579 C622 704 672 773 796 773 C921 773 971 704 971 579 L971 0 Z " />
<glyph glyph-name="o" unicode="o" horiz-adv-x="1380" d="M690 -30 C1086 -30 1340 172 1340 523 C1340 874 1086 1076 690 1076 C294 1076 40 874 40 523 C40 172 294 -30 690 -30 L690 -30 Z M690 273 C546 273 443 362 443 523 C443 684 546 773 690 773 C834 773 937 684 937 523 C937 362 834 273 690 273 L690 273 Z " />
<glyph glyph-name="p" unicode="p" horiz-adv-x="1549" d="M60 -532 L781 -532 L781 -229 L622 -229 L622 125 C704 10 835 -30 956 -30 C1301 -30 1509 183 1509 523 C1509 863 1301 1076 956 1076 C835 1076 704 1036 622 921 L622 1046 L60 1046 L60 743 L219 743 L219 -229 L60 -229 L60 -532 Z M864 273 C716 273 622 375 622 523 C622 671 716 773 864 773 C1012 773 1106 671 1106 523 C1106 375 1012 273 864 273 L864 273 Z " />
<glyph glyph-name="q" unicode="q" horiz-adv-x="1549" d="M1489 -229 L1330 -229 L1330 743 L1489 743 L1489 1046 L927 1046 L927 921 C845 1036 714 1076 593 1076 C248 1076 40 863 40 523 C40 183 248 -30 593 -30 C714 -30 845 10 927 125 L927 -229 L768 -229 L768 -532 L1489 -532 L1489 -229 Z M685 273 C537 273 443 375 443 523 C443 671 537 773 685 773 C833 773 927 671 927 523 C927 375 833 273 685 273 L685 273 Z " />
<glyph glyph-name="r" unicode="r" horiz-adv-x="1173" d="M60 0 L781 0 L781 303 L622 303 L622 569 C622 694 672 773 796 773 C887 773 956 746 1011 716 L1183 1001 C1112 1049 1020 1076 905 1076 C795 1076 673 1031 622 939 L622 1046 L60 1046 L60 743 L219 743 L219 303 L60 303 L60 0 Z " />
<glyph glyph-name="s" unicode="s" horiz-adv-x="1185" d="M1084 697 L1084 1006 C1084 1006 850 1076 564 1076 C243 1076 73 956 73 745 C73 546 243 445 558 397 C662 381 722 369 722 333 C722 301 698 273 544 273 C508 273 479 276 463 280 L463 359 L60 359 L60 99 C190 0 400 -30 554 -30 C863 -30 1125 42 1125 305 C1125 539 944 616 628 670 C558 681 476 693 476 729 C476 766 521 773 604 773 C628 773 654 772 681 769 L681 697 L1084 697 Z " />
<glyph glyph-name="t" unicode="t" horiz-adv-x="951" d="M20 743 L204 743 L204 460 C204 135 313 -30 669 -30 C775 -30 867 -6 931 22 L852 284 C810 269 773 263 737 263 C632 263 607 319 607 460 L607 743 L877 743 L877 1046 L607 1046 L607 1344 L204 1344 L204 1046 L20 1046 L20 743 Z " />
<glyph glyph-name="u" unicode="u" horiz-adv-x="1593" d="M1374 303 L1374 1046 L812 1046 L812 743 L971 743 L971 467 C971 342 921 273 797 273 C672 273 622 342 622 467 L622 1046 L60 1046 L60 743 L219 743 L219 467 C219 169 373 -30 688 -30 C798 -30 920 15 971 107 L971 0 L1533 0 L1533 303 L1374 303 Z " />
<glyph glyph-name="v" unicode="v" horiz-adv-x="1450" d="M621 743 L681 743 L681 1046 L60 1046 L60 743 L220 743 L517 0 L933 0 L1230 743 L1390 743 L1390 1046 L769 1046 L769 743 L828 743 L725 433 L621 743 Z " />
<glyph glyph-name="w" unicode="w" horiz-adv-x="2028" d="M1807 743 L1968 743 L1968 1046 L1327 1046 L1327 743 L1408 743 L1329 462 L1150 1046 L878 1046 L699 462 L620 743 L701 743 L701 1046 L60 1046 L60 743 L220 743 L482 0 L868 0 L1014 475 L1160 0 L1546 0 L1807 743 Z " />
<glyph glyph-name="x" unicode="x" horiz-adv-x="1335" d="M1094 743 L1263 743 L1263 1046 L725 1046 L725 892 L667 805 L476 1046 L72 1046 L72 743 L241 743 L417 530 L229 303 L60 303 L60 0 L597 0 L597 154 L667 255 L873 0 L1275 0 L1275 303 L1106 303 L917 530 L1094 743 Z " />
<glyph glyph-name="y" unicode="y" horiz-adv-x="1450" d="M618 743 L681 743 L681 1046 L60 1046 L60 743 L226 743 L537 0 L510 -71 C467 -185 437 -229 322 -229 L179 -229 L179 -532 L381 -532 C640 -532 731 -425 794 -282 L1224 743 L1390 743 L1390 1046 L769 1046 L769 743 L832 743 L725 443 L618 743 Z " />
<glyph glyph-name="z" unicode="z" horiz-adv-x="1165" d="M439 667 L439 743 L562 743 L60 173 L60 0 L1105 0 L1105 379 L742 379 L742 303 L603 303 L1105 871 L1105 1046 L76 1046 L76 667 L439 667 Z " />
<glyph glyph-name="braceleft" unicode="&#x7b;" horiz-adv-x="931" d="M491 525 C618 579 700 709 700 897 C700 1111 764 1159 871 1159 L871 1524 C565 1524 262 1411 262 943 C262 748 162 708 60 698 L60 352 C162 342 262 302 262 107 C262 -361 565 -474 871 -474 L871 -109 C764 -109 700 -61 700 153 C700 341 618 471 491 525 L491 525 Z " />
<glyph glyph-name="bar" unicode="&#x7c;" horiz-adv-x="583" d="M80 -532 L503 -532 L503 1434 L80 1434 L80 -532 Z " />
<glyph glyph-name="braceright" unicode="&#x7d;" horiz-adv-x="931" d="M440 525 C313 471 231 341 231 153 C231 -61 167 -109 60 -109 L60 -474 C366 -474 669 -361 669 107 C669 302 769 342 871 352 L871 698 C769 708 669 748 669 943 C669 1411 366 1524 60 1524 L60 1159 C167 1159 231 1111 231 897 C231 709 313 579 440 525 L440 525 Z " />
<glyph glyph-name="asciitilde" unicode="&#x7e;" horiz-adv-x="1450" d="M797 892 C735 951 646 1020 492 1020 C154 1020 60 728 60 530 L429 530 C429 569 453 641 512 641 C564 641 607 602 653 555 C715 496 804 427 958 427 C1296 427 1390 719 1390 917 L1021 917 C1021 878 997 806 938 806 C886 806 843 845 797 892 L797 892 Z " />
<glyph glyph-name="uni00A0" unicode="&#xa0;" horiz-adv-x="573" d="" />
<glyph glyph-name="exclamdown" unicode="&#xa1;" horiz-adv-x="593" d="M80 -532 L513 -532 L483 420 L110 420 L80 -532 Z M86 712 C86 596 180 502 296 502 C412 502 506 596 506 712 C506 828 412 922 296 922 C180 922 86 828 86 712 L86 712 Z " />
<glyph glyph-name="cent" unicode="&#xa2;" horiz-adv-x="1173" d="M1153 627 L1153 986 C1153 986 1022 1045 830 1067 L830 1316 L484 1316 L484 1055 C208 995 40 808 40 523 C40 237 208 51 484 -9 L484 -270 L830 -270 L830 -20 C988 4 1090 68 1153 136 L963 362 C901 318 811 273 690 273 C546 273 443 362 443 523 C443 684 546 773 690 773 C711 773 731 771 750 769 L750 627 L1153 627 Z " />
<glyph glyph-name="sterling" unicode="&#xa3;" horiz-adv-x="1505" d="M80 547 L302 547 L302 536 C302 389 173 299 173 299 L173 0 L1365 0 L1365 352 L637 352 C637 352 725 404 725 530 L725 547 L1012 547 L1012 890 L646 890 C645 898 645 907 645 916 C645 1048 714 1122 864 1122 C1001 1122 1054 1066 1103 992 L1425 1143 C1336 1328 1168 1474 864 1474 C472 1474 222 1279 222 916 L222 890 L80 890 L80 547 Z " />
<glyph glyph-name="currency" unicode="&#xa4;" horiz-adv-x="1252" d="M456 601 C565 557 687 557 796 602 L948 450 L1192 695 L1040 847 C1084 955 1084 1077 1040 1185 L1192 1338 L949 1582 L796 1430 C688 1474 565 1475 456 1431 L304 1583 L60 1339 L211 1188 C166 1079 166 955 211 845 L61 695 L305 450 L456 601 Z M531 1112 C584 1164 668 1164 721 1112 C773 1059 773 974 721 922 C668 870 584 870 531 922 C479 974 479 1059 531 1112 L531 1112 Z " />
<glyph glyph-name="yen" unicode="&#xa5;" horiz-adv-x="1686" d="M1463 1082 L1626 1082 L1626 1434 L925 1434 L925 1082 L1010 1082 L842 838 L674 1082 L761 1082 L761 1434 L60 1434 L60 1082 L222 1082 L589 549 L330 549 L330 323 L631 323 L631 286 L330 286 L330 60 L631 60 L631 0 L1054 0 L1054 60 L1354 60 L1354 286 L1054 286 L1054 323 L1354 323 L1354 549 L1095 549 L1463 1082 Z " />
<glyph glyph-name="brokenbar" unicode="&#xa6;" horiz-adv-x="583" d="M80 555 L503 555 L503 1434 L80 1434 L80 555 Z M80 -532 L503 -532 L503 347 L80 347 L80 -532 Z " />
<glyph glyph-name="section" unicode="&#xa7;" horiz-adv-x="1446" d="M1346 422 C1346 718 1122 818 757 894 C629 921 527 942 527 1020 C527 1096 598 1122 711 1122 C776 1122 828 1117 878 1110 L878 975 L1301 975 L1301 1374 C1301 1374 1040 1474 691 1474 C268 1474 100 1270 100 1020 C100 926 126 848 179 783 C128 716 100 629 100 520 C100 224 324 124 689 48 C817 21 919 0 919 -78 C919 -154 848 -180 735 -180 C670 -180 618 -175 568 -168 L568 -33 L145 -33 L145 -432 C145 -432 406 -532 755 -532 C1178 -532 1346 -328 1346 -78 C1346 15 1319 93 1266 158 C1317 225 1346 312 1346 422 L1346 422 Z M675 551 C819 522 919 497 919 422 C919 396 910 376 895 361 C856 372 815 382 771 391 C627 420 527 445 527 520 C527 546 535 566 550 581 C589 570 631 560 675 551 L675 551 Z " />
<glyph glyph-name="dieresis" unicode="&#xa8;" horiz-adv-x="1003" d="M60 1344 C60 1236 148 1148 256 1148 C364 1148 452 1236 452 1344 C452 1452 364 1540 256 1540 C148 1540 60 1452 60 1344 L60 1344 Z M551 1344 C551 1236 639 1148 747 1148 C855 1148 943 1236 943 1344 C943 1452 855 1540 747 1540 C639 1540 551 1452 551 1344 L551 1344 Z " />
<glyph glyph-name="copyright" unicode="&#xa9;" horiz-adv-x="1634" d="M672 717 C672 817 727 889 828 889 C907 889 958 875 1017 825 L1132 987 C1054 1064 947 1106 828 1106 C605 1106 433 951 433 717 C433 483 605 328 828 328 C947 328 1054 370 1132 447 L1017 609 C958 559 907 545 828 545 C727 545 672 617 672 717 L672 717 Z M60 717 C60 299 399 -40 817 -40 C1235 -40 1574 299 1574 717 C1574 1135 1235 1474 817 1474 C399 1474 60 1135 60 717 L60 717 Z M340 717 C340 980 554 1194 817 1194 C1080 1194 1294 980 1294 717 C1294 454 1080 240 817 240 C554 240 340 454 340 717 L340 717 Z " />
<glyph glyph-name="ordfeminine" unicode="&#xaa;" horiz-adv-x="923" d="M412 1260 C527 1260 559 1246 559 1183 C299 1200 50 1160 50 933 C50 782 179 704 356 704 C487 704 540 752 561 790 L561 714 L873 714 L873 898 L777 898 L777 1138 C777 1365 669 1444 412 1444 C253 1444 121 1393 121 1393 L189 1227 C189 1227 300 1260 412 1260 L412 1260 Z M266 953 C266 1026 362 1040 561 1031 C561 934 507 888 386 888 C296 888 266 916 266 953 L266 953 Z " />
<glyph glyph-name="guillemotleft" unicode="&#xab;" horiz-adv-x="1664" d="M60 795 L60 591 L802 12 L802 493 L521 693 L802 893 L802 1374 L60 795 Z M842 795 L842 591 L1584 12 L1584 493 L1303 693 L1584 893 L1584 1374 L842 795 Z " />
<glyph glyph-name="logicalnot" unicode="&#xac;" horiz-adv-x="1130" d="M60 508 L647 508 L647 231 L1070 231 L1070 894 L60 894 L60 508 Z " />
<glyph glyph-name="uni00AD" unicode="&#xad;" horiz-adv-x="937" d="M60 531 L877 531 L877 835 L60 835 L60 531 Z " />
<glyph glyph-name="registered" unicode="&#xae;" horiz-adv-x="1160" d="M522 713 L522 852 L573 852 L649 713 L797 713 L711 867 C753 883 800 920 800 1005 C800 1103 739 1167 618 1167 L384 1167 L384 713 L522 713 Z M618 1044 C647 1044 662 1032 662 1005 C662 977 647 966 618 966 L522 966 L522 1044 L618 1044 Z M40 934 C40 636 282 394 580 394 C878 394 1120 636 1120 934 C1120 1232 878 1474 580 1474 C282 1474 40 1232 40 934 L40 934 Z M215 934 C215 1136 378 1300 580 1300 C782 1300 946 1136 946 934 C946 732 782 569 580 569 C378 569 215 732 215 934 L215 934 Z " />
<glyph glyph-name="macron" unicode="&#xaf;" horiz-adv-x="1050" d="M60 1131 L990 1131 L990 1434 L60 1434 L60 1131 Z " />
<glyph glyph-name="degree" unicode="&#xb0;" horiz-adv-x="595" d="M-10 1166 C-10 996 127 859 297 859 C467 859 605 996 605 1166 C605 1336 467 1474 297 1474 C127 1474 -10 1336 -10 1166 L-10 1166 Z M213 1166 C213 1212 251 1250 297 1250 C343 1250 381 1212 381 1166 C381 1120 343 1082 297 1082 C251 1082 213 1120 213 1166 L213 1166 Z " />
<glyph glyph-name="plusminus" unicode="&#xb1;" horiz-adv-x="1210" d="M1150 1126 L797 1126 L797 1465 L412 1465 L412 1126 L60 1126 L60 774 L412 774 L412 435 L797 435 L797 774 L1150 774 L1150 1126 Z M1150 352 L60 352 L60 0 L1150 0 L1150 352 Z " />
<glyph glyph-name="twosuperior" unicode="&#xb2;" horiz-adv-x="705" d="M242 1160 C257 1193 287 1240 356 1240 C406 1240 434 1219 434 1183 C434 1148 401 1125 351 1087 L69 880 L69 714 L655 714 L655 958 L530 958 L530 918 L429 918 L525 989 C579 1030 650 1089 650 1193 C650 1358 523 1444 356 1444 C188 1444 89 1339 50 1226 L242 1160 Z " />
<glyph glyph-name="threesuperior" unicode="&#xb3;" horiz-adv-x="738" d="M70 1191 L286 1191 L286 1230 C304 1236 328 1240 361 1240 C424 1240 455 1225 455 1200 C455 1160 353 1157 248 1157 L248 993 C376 993 472 990 472 951 C472 924 442 908 361 908 C324 908 292 913 266 922 L266 957 L50 957 L50 825 C50 825 129 704 361 704 C552 704 688 776 688 929 C688 1035 618 1070 569 1086 C628 1106 671 1148 671 1234 C671 1375 543 1444 361 1444 C145 1444 70 1323 70 1323 L70 1191 Z " />
<glyph glyph-name="acute" unicode="&#xb4;" horiz-adv-x="784" d="M40 1124 L430 1124 L744 1434 L291 1434 L40 1124 Z " />
<glyph glyph-name="mu" unicode="&#xb5;" horiz-adv-x="1730" d="M219 -229 L60 -229 L60 -532 L781 -532 L781 -229 L622 -229 L622 107 C673 15 755 -30 865 -30 C975 -30 1057 15 1108 107 L1108 0 L1670 0 L1670 303 L1511 303 L1511 1046 L949 1046 L949 743 L1108 743 L1108 597 C1108 382 1019 273 865 273 C711 273 622 382 622 597 L622 1046 L60 1046 L60 743 L219 743 L219 -229 Z " />
<glyph glyph-name="paragraph" unicode="&#xb6;" horiz-adv-x="1813" d="M1753 1434 L642 1434 C245 1434 60 1190 60 925 C60 661 245 416 642 416 L691 416 L691 0 L1114 0 L1114 1082 L1180 1082 L1180 0 L1603 0 L1603 1082 L1753 1082 L1753 1434 Z M691 1082 L691 768 L642 768 C530 768 483 842 483 925 C483 1008 530 1082 642 1082 L691 1082 Z " />
<glyph glyph-name="periodcentered" unicode="&#xb7;" horiz-adv-x="512" d="M60 757 C60 649 148 561 256 561 C364 561 452 649 452 757 C452 865 364 953 256 953 C148 953 60 865 60 757 L60 757 Z " />
<glyph glyph-name="cedilla" unicode="&#xb8;" horiz-adv-x="739" d="M40 -565 C315 -666 669 -627 697 -359 C714 -197 591 -126 426 -126 L484 63 L231 63 L112 -306 C230 -290 434 -261 424 -352 C414 -454 166 -408 100 -386 L40 -565 Z " />
<glyph glyph-name="onesuperior" unicode="&#xb9;" horiz-adv-x="609" d="M151 714 L559 714 L559 898 L463 898 L463 1434 L265 1434 L20 1209 L163 1060 L247 1135 L247 898 L151 898 L151 714 Z " />
<glyph glyph-name="ordmasculine" unicode="&#xba;" horiz-adv-x="870" d="M435 704 C661 704 820 839 820 1074 C820 1309 661 1444 435 1444 C209 1444 50 1309 50 1074 C50 839 209 704 435 704 L435 704 Z M435 888 C329 888 266 959 266 1074 C266 1189 329 1260 435 1260 C541 1260 604 1189 604 1074 C604 959 541 888 435 888 L435 888 Z " />
<glyph glyph-name="guillemotright" unicode="&#xbb;" horiz-adv-x="1664" d="M862 1374 L862 893 L1143 693 L862 493 L862 12 L1604 591 L1604 795 L862 1374 Z M80 1374 L80 893 L361 693 L80 493 L80 12 L822 591 L822 795 L80 1374 Z " />
<glyph glyph-name="onequarter" unicode="&#xbc;" horiz-adv-x="1701" d="M324 0 L613 0 L1436 1434 L1147 1434 L324 0 Z M251 714 L659 714 L659 898 L563 898 L563 1434 L365 1434 L120 1209 L263 1060 L347 1135 L347 898 L251 898 L251 714 Z M1263 196 L1263 144 L1167 144 L1167 0 L1575 0 L1575 144 L1479 144 L1479 196 L1581 196 L1581 340 L1479 340 L1479 720 L1260 720 L921 308 L921 196 L1263 196 Z M1164 340 L1263 459 L1263 340 L1164 340 Z " />
<glyph glyph-name="onehalf" unicode="&#xbd;" horiz-adv-x="1770" d="M324 0 L613 0 L1436 1434 L1147 1434 L324 0 Z M251 714 L659 714 L659 898 L563 898 L563 1434 L365 1434 L120 1209 L263 1060 L347 1135 L347 898 L251 898 L251 714 Z M1237 446 C1252 479 1282 526 1351 526 C1401 526 1429 505 1429 469 C1429 434 1396 411 1346 373 L1064 166 L1064 0 L1650 0 L1650 244 L1525 244 L1525 204 L1424 204 L1520 275 C1574 316 1645 375 1645 479 C1645 644 1518 730 1351 730 C1183 730 1084 625 1045 512 L1237 446 Z " />
<glyph glyph-name="threequarters" unicode="&#xbe;" horiz-adv-x="1746" d="M369 0 L658 0 L1481 1434 L1192 1434 L369 0 Z M140 1191 L356 1191 L356 1230 C374 1236 398 1240 431 1240 C494 1240 525 1225 525 1200 C525 1160 423 1157 318 1157 L318 993 C446 993 542 990 542 951 C542 924 512 908 431 908 C394 908 362 913 336 922 L336 957 L120 957 L120 825 C120 825 199 704 431 704 C622 704 758 776 758 929 C758 1035 688 1070 639 1086 C698 1106 741 1148 741 1234 C741 1375 613 1444 431 1444 C215 1444 140 1323 140 1323 L140 1191 Z M1308 196 L1308 144 L1212 144 L1212 0 L1620 0 L1620 144 L1524 144 L1524 196 L1626 196 L1626 340 L1524 340 L1524 720 L1305 720 L966 308 L966 196 L1308 196 Z M1209 340 L1308 459 L1308 340 L1209 340 Z " />
<glyph glyph-name="questiondown" unicode="&#xbf;" horiz-adv-x="1104" d="M814 -99 C751 -169 670 -220 551 -220 C447 -220 383 -176 383 -106 C383 14 539 54 782 58 L782 420 L359 420 L359 263 C41 208 -40 29 -40 -126 C-40 -376 170 -572 551 -572 C929 -572 1091 -364 1144 -281 L814 -99 Z M781 712 C781 828 687 922 571 922 C455 922 361 828 361 712 C361 596 455 502 571 502 C687 502 781 596 781 712 L781 712 Z " />
<glyph glyph-name="Agrave" unicode="&#xc0;" horiz-adv-x="1696" d="M792 1846 L339 1846 L653 1536 L1043 1536 L792 1846 Z M1086 352 L935 352 L935 0 L1676 0 L1676 352 L1525 352 L1062 1434 L331 1434 L331 1082 L490 1082 L171 352 L20 352 L20 0 L761 0 L761 352 L609 352 L644 434 L1051 434 L1086 352 Z M848 915 L932 716 L763 716 L848 915 Z " />
<glyph glyph-name="Aacute" unicode="&#xc1;" horiz-adv-x="1696" d="M662 1536 L1052 1536 L1366 1846 L913 1846 L662 1536 Z M1086 352 L935 352 L935 0 L1676 0 L1676 352 L1525 352 L1062 1434 L331 1434 L331 1082 L490 1082 L171 352 L20 352 L20 0 L761 0 L761 352 L609 352 L644 434 L1051 434 L1086 352 Z M848 915 L932 716 L763 716 L848 915 Z " />
<glyph glyph-name="Acircumflex" unicode="&#xc2;" horiz-adv-x="1696" d="M1001 1827 L695 1827 L384 1536 L702 1536 L848 1635 L994 1536 L1312 1536 L1001 1827 Z M1086 352 L935 352 L935 0 L1676 0 L1676 352 L1525 352 L1062 1434 L331 1434 L331 1082 L490 1082 L171 352 L20 352 L20 0 L761 0 L761 352 L609 352 L644 434 L1051 434 L1086 352 Z M848 915 L932 716 L763 716 L848 915 Z " />
<glyph glyph-name="Atilde" unicode="&#xc3;" horiz-adv-x="1696" d="M820 1590 C854 1561 904 1536 985 1536 C1299 1536 1320 1885 1320 1885 L1045 1885 C1045 1885 1037 1807 970 1807 C923 1807 905 1830 877 1853 C843 1882 793 1907 712 1907 C398 1907 377 1558 377 1558 L652 1558 C652 1558 660 1636 727 1636 C774 1636 792 1613 820 1590 L820 1590 Z M1086 352 L935 352 L935 0 L1676 0 L1676 352 L1525 352 L1062 1434 L331 1434 L331 1082 L490 1082 L171 352 L20 352 L20 0 L761 0 L761 352 L609 352 L644 434 L1051 434 L1086 352 Z M848 915 L932 716 L763 716 L848 915 Z " />
<glyph glyph-name="Adieresis" unicode="&#xc4;" horiz-adv-x="1696" d="M407 1732 C407 1624 495 1536 603 1536 C711 1536 799 1624 799 1732 C799 1840 711 1928 603 1928 C495 1928 407 1840 407 1732 L407 1732 Z M898 1732 C898 1624 986 1536 1094 1536 C1202 1536 1290 1624 1290 1732 C1290 1840 1202 1928 1094 1928 C986 1928 898 1840 898 1732 L898 1732 Z M1086 352 L935 352 L935 0 L1676 0 L1676 352 L1525 352 L1062 1434 L331 1434 L331 1082 L490 1082 L171 352 L20 352 L20 0 L761 0 L761 352 L609 352 L644 434 L1051 434 L1086 352 Z M848 915 L932 716 L763 716 L848 915 Z " />
<glyph glyph-name="Aring" unicode="&#xc5;" horiz-adv-x="1696" d="M585 1799 C585 1654 703 1536 848 1536 C993 1536 1111 1654 1111 1799 C1111 1944 993 2062 848 2062 C703 2062 585 1944 585 1799 L585 1799 Z M775 1799 C775 1839 808 1872 848 1872 C888 1872 921 1839 921 1799 C921 1759 888 1726 848 1726 C808 1726 775 1759 775 1799 L775 1799 Z M1086 352 L935 352 L935 0 L1676 0 L1676 352 L1525 352 L1062 1434 L331 1434 L331 1082 L490 1082 L171 352 L20 352 L20 0 L761 0 L761 352 L609 352 L644 434 L1051 434 L1086 352 Z M848 915 L932 716 L763 716 L848 915 Z " />
<glyph glyph-name="AE" unicode="&#xc6;" horiz-adv-x="2444" d="M2364 0 L2364 489 L1941 489 L1941 352 L1546 352 L1546 554 L1911 554 L1911 897 L1546 897 L1546 1082 L1931 1082 L1931 945 L2354 945 L2354 1434 L558 1434 L558 1082 L716 1082 L225 352 L80 352 L80 0 L821 0 L821 352 L715 352 L767 432 L1123 432 L1123 0 L2364 0 Z M1123 972 L1123 724 L959 724 L1123 972 Z " />
<glyph glyph-name="Ccedilla" unicode="&#xc7;" horiz-adv-x="1543" d="M1040 945 L1463 945 L1463 1334 C1463 1334 1222 1474 846 1474 C309 1474 60 1136 60 717 C60 341 260 30 690 -29 L601 -306 C719 -290 923 -261 913 -352 C903 -454 655 -408 589 -386 L529 -565 C804 -666 1158 -627 1186 -359 C1203 -197 1080 -126 915 -126 L942 -37 C1215 -19 1361 77 1463 166 L1258 438 C1177 384 1066 312 846 312 C587 312 487 514 487 717 C487 920 587 1122 846 1122 C923 1122 986 1113 1040 1099 L1040 945 Z " />
<glyph glyph-name="Egrave" unicode="&#xc8;" horiz-adv-x="1560" d="M739 1846 L286 1846 L600 1536 L990 1536 L739 1846 Z M80 0 L1480 0 L1480 489 L1057 489 L1057 352 L662 352 L662 554 L1027 554 L1027 897 L662 897 L662 1082 L1047 1082 L1047 945 L1470 945 L1470 1434 L80 1434 L80 1082 L239 1082 L239 352 L80 352 L80 0 Z " />
<glyph glyph-name="Eacute" unicode="&#xc9;" horiz-adv-x="1560" d="M546 1536 L936 1536 L1250 1846 L797 1846 L546 1536 Z M80 0 L1480 0 L1480 489 L1057 489 L1057 352 L662 352 L662 554 L1027 554 L1027 897 L662 897 L662 1082 L1047 1082 L1047 945 L1470 945 L1470 1434 L80 1434 L80 1082 L239 1082 L239 352 L80 352 L80 0 Z " />
<glyph glyph-name="Ecircumflex" unicode="&#xca;" horiz-adv-x="1560" d="M927 1827 L621 1827 L310 1536 L628 1536 L774 1635 L920 1536 L1238 1536 L927 1827 Z M80 0 L1480 0 L1480 489 L1057 489 L1057 352 L662 352 L662 554 L1027 554 L1027 897 L662 897 L662 1082 L1047 1082 L1047 945 L1470 945 L1470 1434 L80 1434 L80 1082 L239 1082 L239 352 L80 352 L80 0 Z " />
<glyph glyph-name="Edieresis" unicode="&#xcb;" horiz-adv-x="1560" d="M338 1732 C338 1624 426 1536 534 1536 C642 1536 730 1624 730 1732 C730 1840 642 1928 534 1928 C426 1928 338 1840 338 1732 L338 1732 Z M829 1732 C829 1624 917 1536 1025 1536 C1133 1536 1221 1624 1221 1732 C1221 1840 1133 1928 1025 1928 C917 1928 829 1840 829 1732 L829 1732 Z M80 0 L1480 0 L1480 489 L1057 489 L1057 352 L662 352 L662 554 L1027 554 L1027 897 L662 897 L662 1082 L1047 1082 L1047 945 L1470 945 L1470 1434 L80 1434 L80 1082 L239 1082 L239 352 L80 352 L80 0 Z " />
<glyph glyph-name="Igrave" unicode="&#xcc;" horiz-adv-x="963" d="M493 1846 L40 1846 L354 1536 L744 1536 L493 1846 Z M764 1082 L923 1082 L923 1434 L182 1434 L182 1082 L341 1082 L341 352 L182 352 L182 0 L923 0 L923 352 L764 352 L764 1082 Z " />
<glyph glyph-name="Iacute" unicode="&#xcd;" horiz-adv-x="998" d="M254 1536 L644 1536 L958 1846 L505 1846 L254 1536 Z M662 1082 L821 1082 L821 1434 L80 1434 L80 1082 L239 1082 L239 352 L80 352 L80 0 L821 0 L821 352 L662 352 L662 1082 Z " />
<glyph glyph-name="Icircumflex" unicode="&#xce;" horiz-adv-x="1008" d="M657 1827 L351 1827 L40 1536 L358 1536 L504 1635 L650 1536 L968 1536 L657 1827 Z M716 1082 L875 1082 L875 1434 L134 1434 L134 1082 L293 1082 L293 352 L134 352 L134 0 L875 0 L875 352 L716 352 L716 1082 Z " />
<glyph glyph-name="Idieresis" unicode="&#xcf;" horiz-adv-x="963" d="M40 1732 C40 1624 128 1536 236 1536 C344 1536 432 1624 432 1732 C432 1840 344 1928 236 1928 C128 1928 40 1840 40 1732 L40 1732 Z M531 1732 C531 1624 619 1536 727 1536 C835 1536 923 1624 923 1732 C923 1840 835 1928 727 1928 C619 1928 531 1840 531 1732 L531 1732 Z M693 1082 L852 1082 L852 1434 L111 1434 L111 1082 L270 1082 L270 352 L111 352 L111 0 L852 0 L852 352 L693 352 L693 1082 Z " />
<glyph glyph-name="Eth" unicode="&#xd0;" horiz-adv-x="1706" d="M1666 717 C1666 1120 1458 1434 905 1434 L122 1434 L122 1082 L281 1082 L281 893 L80 893 L80 541 L281 541 L281 352 L122 352 L122 0 L905 0 C1458 0 1666 313 1666 717 L1666 717 Z M704 1082 L905 1082 C1132 1082 1231 960 1231 717 C1231 474 1132 352 905 352 L704 352 L704 541 L968 541 L968 893 L704 893 L704 1082 Z " />
<glyph glyph-name="Ntilde" unicode="&#xd1;" horiz-adv-x="1871" d="M907 1590 C941 1561 991 1536 1072 1536 C1386 1536 1407 1885 1407 1885 L1132 1885 C1132 1885 1124 1807 1057 1807 C1010 1807 992 1830 964 1853 C930 1882 880 1907 799 1907 C485 1907 464 1558 464 1558 L739 1558 C739 1558 747 1636 814 1636 C861 1636 879 1613 907 1590 L907 1590 Z M80 0 L821 0 L821 352 L662 352 L662 807 L1137 0 L1632 0 L1632 1082 L1791 1082 L1791 1434 L1050 1434 L1050 1082 L1209 1082 L1209 627 L734 1434 L80 1434 L80 1082 L239 1082 L239 352 L80 352 L80 0 Z " />
<glyph glyph-name="Ograve" unicode="&#xd2;" horiz-adv-x="1692" d="M846 1474 C309 1474 60 1136 60 717 C60 298 309 -40 846 -40 C1383 -40 1632 298 1632 717 C1632 1136 1383 1474 846 1474 L846 1474 Z M846 1122 C1105 1122 1205 920 1205 717 C1205 514 1105 312 846 312 C587 312 487 514 487 717 C487 920 587 1122 846 1122 L846 1122 Z M806 1846 L353 1846 L667 1536 L1057 1536 L806 1846 Z " />
<glyph glyph-name="Oacute" unicode="&#xd3;" horiz-adv-x="1692" d="M846 1474 C309 1474 60 1136 60 717 C60 298 309 -40 846 -40 C1383 -40 1632 298 1632 717 C1632 1136 1383 1474 846 1474 L846 1474 Z M846 1122 C1105 1122 1205 920 1205 717 C1205 514 1105 312 846 312 C587 312 487 514 487 717 C487 920 587 1122 846 1122 L846 1122 Z M643 1536 L1033 1536 L1347 1846 L894 1846 L643 1536 Z " />
<glyph glyph-name="Ocircumflex" unicode="&#xd4;" horiz-adv-x="1692" d="M846 1474 C309 1474 60 1136 60 717 C60 298 309 -40 846 -40 C1383 -40 1632 298 1632 717 C1632 1136 1383 1474 846 1474 L846 1474 Z M846 1122 C1105 1122 1205 920 1205 717 C1205 514 1105 312 846 312 C587 312 487 514 487 717 C487 920 587 1122 846 1122 L846 1122 Z M999 1827 L693 1827 L382 1536 L700 1536 L846 1635 L992 1536 L1310 1536 L999 1827 Z " />
<glyph glyph-name="Otilde" unicode="&#xd5;" horiz-adv-x="1692" d="M846 1474 C309 1474 60 1136 60 717 C60 298 309 -40 846 -40 C1383 -40 1632 298 1632 717 C1632 1136 1383 1474 846 1474 L846 1474 Z M846 1122 C1105 1122 1205 920 1205 717 C1205 514 1105 312 846 312 C587 312 487 514 487 717 C487 920 587 1122 846 1122 L846 1122 Z M817 1590 C851 1561 901 1536 982 1536 C1296 1536 1317 1885 1317 1885 L1042 1885 C1042 1885 1034 1807 967 1807 C920 1807 902 1830 874 1853 C840 1882 790 1907 709 1907 C395 1907 374 1558 374 1558 L649 1558 C649 1558 657 1636 724 1636 C771 1636 789 1613 817 1590 L817 1590 Z " />
<glyph glyph-name="Odieresis" unicode="&#xd6;" horiz-adv-x="1692" d="M846 1474 C309 1474 60 1136 60 717 C60 298 309 -40 846 -40 C1383 -40 1632 298 1632 717 C1632 1136 1383 1474 846 1474 L846 1474 Z M846 1122 C1105 1122 1205 920 1205 717 C1205 514 1105 312 846 312 C587 312 487 514 487 717 C487 920 587 1122 846 1122 L846 1122 Z M405 1732 C405 1624 493 1536 601 1536 C709 1536 797 1624 797 1732 C797 1840 709 1928 601 1928 C493 1928 405 1840 405 1732 L405 1732 Z M896 1732 C896 1624 984 1536 1092 1536 C1200 1536 1288 1624 1288 1732 C1288 1840 1200 1928 1092 1928 C984 1928 896 1840 896 1732 L896 1732 Z " />
<glyph glyph-name="multiply" unicode="&#xd7;" horiz-adv-x="1210" d="M60 973 L356 676 L60 380 L308 131 L605 428 L902 131 L1150 380 L853 676 L1150 973 L901 1221 L605 925 L309 1221 L60 973 Z " />
<glyph glyph-name="Oslash" unicode="&#xd8;" horiz-adv-x="1692" d="M846 1474 C309 1474 60 1136 60 717 C60 439 170 197 400 65 L338 -61 L585 -61 L608 -14 C680 -31 759 -40 846 -40 C1383 -40 1632 298 1632 717 C1632 995 1522 1237 1291 1368 L1354 1495 L1107 1495 L1084 1448 C1012 1465 933 1474 846 1474 L846 1474 Z M846 1122 C872 1122 896 1120 919 1116 L579 426 C514 503 487 610 487 717 C487 920 587 1122 846 1122 L846 1122 Z M1205 717 C1205 514 1105 312 846 312 C820 312 795 314 772 318 L1113 1008 C1177 931 1205 824 1205 717 L1205 717 Z " />
<glyph glyph-name="Ugrave" unicode="&#xd9;" horiz-adv-x="1840" d="M855 1846 L402 1846 L716 1536 L1106 1536 L855 1846 Z M920 -40 C1413 -40 1601 236 1601 661 L1601 1082 L1760 1082 L1760 1434 L1019 1434 L1019 1082 L1178 1082 L1178 661 C1178 444 1142 312 920 312 C698 312 662 444 662 661 L662 1082 L821 1082 L821 1434 L80 1434 L80 1082 L239 1082 L239 661 C239 236 427 -40 920 -40 L920 -40 Z " />
<glyph glyph-name="Uacute" unicode="&#xda;" horiz-adv-x="1840" d="M725 1536 L1115 1536 L1429 1846 L976 1846 L725 1536 Z M920 -40 C1413 -40 1601 236 1601 661 L1601 1082 L1760 1082 L1760 1434 L1019 1434 L1019 1082 L1178 1082 L1178 661 C1178 444 1142 312 920 312 C698 312 662 444 662 661 L662 1082 L821 1082 L821 1434 L80 1434 L80 1082 L239 1082 L239 661 C239 236 427 -40 920 -40 L920 -40 Z " />
<glyph glyph-name="Ucircumflex" unicode="&#xdb;" horiz-adv-x="1840" d="M1073 1827 L767 1827 L456 1536 L774 1536 L920 1635 L1066 1536 L1384 1536 L1073 1827 Z M920 -40 C1413 -40 1601 236 1601 661 L1601 1082 L1760 1082 L1760 1434 L1019 1434 L1019 1082 L1178 1082 L1178 661 C1178 444 1142 312 920 312 C698 312 662 444 662 661 L662 1082 L821 1082 L821 1434 L80 1434 L80 1082 L239 1082 L239 661 C239 236 427 -40 920 -40 L920 -40 Z " />
<glyph glyph-name="Udieresis" unicode="&#xdc;" horiz-adv-x="1840" d="M479 1732 C479 1624 567 1536 675 1536 C783 1536 871 1624 871 1732 C871 1840 783 1928 675 1928 C567 1928 479 1840 479 1732 L479 1732 Z M970 1732 C970 1624 1058 1536 1166 1536 C1274 1536 1362 1624 1362 1732 C1362 1840 1274 1928 1166 1928 C1058 1928 970 1840 970 1732 L970 1732 Z M920 -40 C1413 -40 1601 236 1601 661 L1601 1082 L1760 1082 L1760 1434 L1019 1434 L1019 1082 L1178 1082 L1178 661 C1178 444 1142 312 920 312 C698 312 662 444 662 661 L662 1082 L821 1082 L821 1434 L80 1434 L80 1082 L239 1082 L239 661 C239 236 427 -40 920 -40 L920 -40 Z " />
<glyph glyph-name="Yacute" unicode="&#xdd;" horiz-adv-x="1606" d="M606 1536 L996 1536 L1310 1846 L857 1846 L606 1536 Z M1423 1082 L1586 1082 L1586 1434 L885 1434 L885 1082 L970 1082 L802 838 L634 1082 L721 1082 L721 1434 L20 1434 L20 1082 L182 1082 L591 489 L591 352 L432 352 L432 0 L1173 0 L1173 352 L1014 352 L1014 489 L1423 1082 Z " />
<glyph glyph-name="Thorn" unicode="&#xde;" horiz-adv-x="1445" d="M642 1192 L801 1192 L801 1434 L60 1434 L60 1192 L219 1192 L219 242 L60 242 L60 0 L801 0 L801 242 L642 242 L642 284 L850 284 C1229 284 1405 444 1405 717 C1405 990 1229 1150 850 1150 L642 1150 L642 1192 Z M850 798 C930 798 982 780 982 717 C982 654 930 636 850 636 L642 636 L642 798 L850 798 Z " />
<glyph glyph-name="germandbls" unicode="&#xdf;" horiz-adv-x="1631" d="M239 861 L239 352 L80 352 L80 0 L642 0 L642 861 C642 1123 756 1161 898 1161 C1059 1161 1119 1099 1119 1021 C1119 926 1073 893 954 890 L793 890 L793 587 L958 587 C1085 587 1168 548 1168 429 C1168 333 1127 273 981 273 C893 273 804 290 730 319 L730 12 C790 -10 888 -30 981 -30 C1306 -30 1571 56 1571 399 C1571 574 1448 699 1307 739 C1421 776 1522 891 1522 1041 C1522 1324 1229 1464 898 1464 C625 1464 239 1424 239 861 L239 861 Z " />
<glyph glyph-name="agrave" unicode="&#xe0;" horiz-adv-x="1367" d="M583 1434 L130 1434 L444 1124 L834 1124 L583 1434 Z M745 0 L1307 0 L1307 303 L1148 303 L1148 623 C1148 969 977 1076 598 1076 C394 1076 224 1038 116 983 L245 737 C338 772 440 793 560 793 C726 793 745 757 745 677 C415 703 40 630 40 323 C40 107 190 -24 426 -24 C558 -24 680 9 745 121 L745 0 Z M443 344 C443 458 622 465 745 455 L745 400 C745 350 699 259 558 259 C492 259 443 280 443 344 L443 344 Z " />
<glyph glyph-name="aacute" unicode="&#xe1;" horiz-adv-x="1367" d="M391 1124 L781 1124 L1095 1434 L642 1434 L391 1124 Z M745 0 L1307 0 L1307 303 L1148 303 L1148 623 C1148 969 977 1076 598 1076 C394 1076 224 1038 116 983 L245 737 C338 772 440 793 560 793 C726 793 745 757 745 677 C415 703 40 630 40 323 C40 107 190 -24 426 -24 C558 -24 680 9 745 121 L745 0 Z M443 344 C443 458 622 465 745 455 L745 400 C745 350 699 259 558 259 C492 259 443 280 443 344 L443 344 Z " />
<glyph glyph-name="acircumflex" unicode="&#xe2;" horiz-adv-x="1367" d="M757 1434 L451 1434 L140 1143 L458 1143 L604 1242 L750 1143 L1068 1143 L757 1434 Z M745 0 L1307 0 L1307 303 L1148 303 L1148 623 C1148 969 977 1076 598 1076 C394 1076 224 1038 116 983 L245 737 C338 772 440 793 560 793 C726 793 745 757 745 677 C415 703 40 630 40 323 C40 107 190 -24 426 -24 C558 -24 680 9 745 121 L745 0 Z M443 344 C443 458 622 465 745 455 L745 400 C745 350 699 259 558 259 C492 259 443 280 443 344 L443 344 Z " />
<glyph glyph-name="atilde" unicode="&#xe3;" horiz-adv-x="1367" d="M619 1217 C653 1188 703 1163 784 1163 C1098 1163 1119 1512 1119 1512 L844 1512 C844 1512 836 1434 769 1434 C722 1434 704 1457 676 1480 C642 1509 592 1534 511 1534 C197 1534 176 1185 176 1185 L451 1185 C451 1185 459 1263 526 1263 C573 1263 591 1240 619 1217 L619 1217 Z M745 0 L1307 0 L1307 303 L1148 303 L1148 623 C1148 969 977 1076 598 1076 C394 1076 224 1038 116 983 L245 737 C338 772 440 793 560 793 C726 793 745 757 745 677 C415 703 40 630 40 323 C40 107 190 -24 426 -24 C558 -24 680 9 745 121 L745 0 Z M443 344 C443 458 622 465 745 455 L745 400 C745 350 699 259 558 259 C492 259 443 280 443 344 L443 344 Z " />
<glyph glyph-name="adieresis" unicode="&#xe4;" horiz-adv-x="1367" d="M199 1344 C199 1236 287 1148 395 1148 C503 1148 591 1236 591 1344 C591 1452 503 1540 395 1540 C287 1540 199 1452 199 1344 L199 1344 Z M690 1344 C690 1236 778 1148 886 1148 C994 1148 1082 1236 1082 1344 C1082 1452 994 1540 886 1540 C778 1540 690 1452 690 1344 L690 1344 Z M745 0 L1307 0 L1307 303 L1148 303 L1148 623 C1148 969 977 1076 598 1076 C394 1076 224 1038 116 983 L245 737 C338 772 440 793 560 793 C726 793 745 757 745 677 C415 703 40 630 40 323 C40 107 190 -24 426 -24 C558 -24 680 9 745 121 L745 0 Z M443 344 C443 458 622 465 745 455 L745 400 C745 350 699 259 558 259 C492 259 443 280 443 344 L443 344 Z " />
<glyph glyph-name="aring" unicode="&#xe5;" horiz-adv-x="1367" d="M379 1387 C379 1242 497 1124 642 1124 C787 1124 905 1242 905 1387 C905 1532 787 1650 642 1650 C497 1650 379 1532 379 1387 L379 1387 Z M569 1387 C569 1427 602 1460 642 1460 C682 1460 715 1427 715 1387 C715 1347 682 1314 642 1314 C602 1314 569 1347 569 1387 L569 1387 Z M745 0 L1307 0 L1307 303 L1148 303 L1148 623 C1148 969 977 1076 598 1076 C394 1076 224 1038 116 983 L245 737 C338 772 440 793 560 793 C726 793 745 757 745 677 C415 703 40 630 40 323 C40 107 190 -24 426 -24 C558 -24 680 9 745 121 L745 0 Z M443 344 C443 458 622 465 745 455 L745 400 C745 350 699 259 558 259 C492 259 443 280 443 344 L443 344 Z " />
<glyph glyph-name="ae" unicode="&#xe6;" horiz-adv-x="1942" d="M1334 -30 C1550 -30 1716 14 1850 117 L1663 332 C1588 290 1496 263 1383 263 C1215 263 1148 330 1148 376 L1900 376 C1918 813 1722 1076 1334 1076 C1199 1076 1087 1044 998 991 C908 1052 776 1076 598 1076 C394 1076 224 1038 116 983 L245 737 C338 772 440 793 560 793 C726 793 745 757 745 677 C415 703 40 630 40 323 C40 107 190 -24 466 -24 C589 -24 766 -19 943 85 C1036 14 1165 -30 1334 -30 L1334 -30 Z M443 344 C443 458 622 465 745 455 L745 400 C745 350 699 259 558 259 C492 259 443 280 443 344 L443 344 Z M1148 630 C1148 700 1205 783 1334 783 C1463 783 1520 700 1520 630 L1148 630 Z " />
<glyph glyph-name="ccedilla" unicode="&#xe7;" horiz-adv-x="1233" d="M1153 627 L1153 986 C1153 986 956 1076 690 1076 C294 1076 40 874 40 523 C40 230 216 41 505 -13 L411 -306 C529 -290 733 -261 723 -352 C713 -454 465 -408 399 -386 L339 -565 C614 -666 968 -627 996 -359 C1013 -197 890 -126 725 -126 L755 -28 C957 -15 1080 58 1153 136 L963 362 C901 318 811 273 690 273 C546 273 443 362 443 523 C443 684 546 773 690 773 C711 773 731 771 750 769 L750 627 L1153 627 Z " />
<glyph glyph-name="egrave" unicode="&#xe8;" horiz-adv-x="1237" d="M629 -30 C845 -30 1011 14 1145 117 L958 332 C883 290 791 263 678 263 C510 263 443 330 443 376 L1195 376 C1213 813 1017 1076 629 1076 C238 1076 40 814 40 523 C40 242 210 -30 629 -30 L629 -30 Z M443 630 C443 700 500 783 629 783 C758 783 815 700 815 630 L443 630 Z M586 1434 L133 1434 L447 1124 L837 1124 L586 1434 Z " />
<glyph glyph-name="eacute" unicode="&#xe9;" horiz-adv-x="1237" d="M629 -30 C845 -30 1011 14 1145 117 L958 332 C883 290 791 263 678 263 C510 263 443 330 443 376 L1195 376 C1213 813 1017 1076 629 1076 C238 1076 40 814 40 523 C40 242 210 -30 629 -30 L629 -30 Z M443 630 C443 700 500 783 629 783 C758 783 815 700 815 630 L443 630 Z M418 1124 L808 1124 L1122 1434 L669 1434 L418 1124 Z " />
<glyph glyph-name="ecircumflex" unicode="&#xea;" horiz-adv-x="1237" d="M629 -30 C845 -30 1011 14 1145 117 L958 332 C883 290 791 263 678 263 C510 263 443 330 443 376 L1195 376 C1213 813 1017 1076 629 1076 C238 1076 40 814 40 523 C40 242 210 -30 629 -30 L629 -30 Z M443 630 C443 700 500 783 629 783 C758 783 815 700 815 630 L443 630 Z M779 1434 L473 1434 L162 1143 L480 1143 L626 1242 L772 1143 L1090 1143 L779 1434 Z " />
<glyph glyph-name="edieresis" unicode="&#xeb;" horiz-adv-x="1237" d="M629 -30 C845 -30 1011 14 1145 117 L958 332 C883 290 791 263 678 263 C510 263 443 330 443 376 L1195 376 C1213 813 1017 1076 629 1076 C238 1076 40 814 40 523 C40 242 210 -30 629 -30 L629 -30 Z M443 630 C443 700 500 783 629 783 C758 783 815 700 815 630 L443 630 Z M185 1344 C185 1236 273 1148 381 1148 C489 1148 577 1236 577 1344 C577 1452 489 1540 381 1540 C273 1540 185 1452 185 1344 L185 1344 Z M676 1344 C676 1236 764 1148 872 1148 C980 1148 1068 1236 1068 1344 C1068 1452 980 1540 872 1540 C764 1540 676 1452 676 1344 L676 1344 Z " />
<glyph glyph-name="igrave" unicode="&#xec;" horiz-adv-x="950" d="M473 1434 L20 1434 L334 1124 L724 1124 L473 1434 Z M731 1046 L169 1046 L169 743 L328 743 L328 303 L169 303 L169 0 L890 0 L890 303 L731 303 L731 1046 Z " />
<glyph glyph-name="iacute" unicode="&#xed;" horiz-adv-x="949" d="M225 1124 L615 1124 L929 1434 L476 1434 L225 1124 Z M622 1046 L60 1046 L60 743 L219 743 L219 303 L60 303 L60 0 L781 0 L781 303 L622 303 L622 1046 Z " />
<glyph glyph-name="icircumflex" unicode="&#xee;" horiz-adv-x="968" d="M637 1434 L331 1434 L20 1143 L338 1143 L484 1242 L630 1143 L948 1143 L637 1434 Z M686 1046 L124 1046 L124 743 L283 743 L283 303 L124 303 L124 0 L845 0 L845 303 L686 303 L686 1046 Z " />
<glyph glyph-name="idieresis" unicode="&#xef;" horiz-adv-x="923" d="M20 1344 C20 1236 108 1148 216 1148 C324 1148 412 1236 412 1344 C412 1452 324 1540 216 1540 C108 1540 20 1452 20 1344 L20 1344 Z M511 1344 C511 1236 599 1148 707 1148 C815 1148 903 1236 903 1344 C903 1452 815 1540 707 1540 C599 1540 511 1452 511 1344 L511 1344 Z M663 1046 L101 1046 L101 743 L260 743 L260 303 L101 303 L101 0 L822 0 L822 303 L663 303 L663 1046 Z " />
<glyph glyph-name="eth" unicode="&#xf0;" horiz-adv-x="1379" d="M926 921 C844 1036 713 1076 592 1076 C267 1076 40 863 40 523 C40 183 267 -30 662 -30 C1013 -30 1319 157 1319 703 C1319 1088 1154 1327 912 1477 L981 1564 L759 1740 L648 1600 C565 1628 479 1650 391 1668 L310 1321 C328 1318 364 1312 410 1301 L377 1259 L599 1083 L690 1198 C802 1137 900 1048 926 921 L926 921 Z M685 273 C537 273 443 375 443 523 C443 671 537 773 685 773 C833 773 927 671 927 523 C927 375 833 273 685 273 L685 273 Z " />
<glyph glyph-name="ntilde" unicode="&#xf1;" horiz-adv-x="1593" d="M768 1217 C802 1188 852 1163 933 1163 C1247 1163 1268 1512 1268 1512 L993 1512 C993 1512 985 1434 918 1434 C871 1434 853 1457 825 1480 C791 1509 741 1534 660 1534 C346 1534 325 1185 325 1185 L600 1185 C600 1185 608 1263 675 1263 C722 1263 740 1240 768 1217 L768 1217 Z M971 0 L1533 0 L1533 303 L1374 303 L1374 579 C1374 877 1220 1076 905 1076 C795 1076 673 1031 622 939 L622 1046 L60 1046 L60 743 L219 743 L219 303 L60 303 L60 0 L781 0 L781 303 L622 303 L622 579 C622 704 672 773 796 773 C921 773 971 704 971 579 L971 0 Z " />
<glyph glyph-name="ograve" unicode="&#xf2;" horiz-adv-x="1380" d="M690 -30 C1086 -30 1340 172 1340 523 C1340 874 1086 1076 690 1076 C294 1076 40 874 40 523 C40 172 294 -30 690 -30 L690 -30 Z M690 273 C546 273 443 362 443 523 C443 684 546 773 690 773 C834 773 937 684 937 523 C937 362 834 273 690 273 L690 273 Z M638 1434 L185 1434 L499 1124 L889 1124 L638 1434 Z " />
<glyph glyph-name="oacute" unicode="&#xf3;" horiz-adv-x="1380" d="M690 -30 C1086 -30 1340 172 1340 523 C1340 874 1086 1076 690 1076 C294 1076 40 874 40 523 C40 172 294 -30 690 -30 L690 -30 Z M690 273 C546 273 443 362 443 523 C443 684 546 773 690 773 C834 773 937 684 937 523 C937 362 834 273 690 273 L690 273 Z M494 1124 L884 1124 L1198 1434 L745 1434 L494 1124 Z " />
<glyph glyph-name="ocircumflex" unicode="&#xf4;" horiz-adv-x="1380" d="M690 -30 C1086 -30 1340 172 1340 523 C1340 874 1086 1076 690 1076 C294 1076 40 874 40 523 C40 172 294 -30 690 -30 L690 -30 Z M690 273 C546 273 443 362 443 523 C443 684 546 773 690 773 C834 773 937 684 937 523 C937 362 834 273 690 273 L690 273 Z M843 1434 L537 1434 L226 1143 L544 1143 L690 1242 L836 1143 L1154 1143 L843 1434 Z " />
<glyph glyph-name="otilde" unicode="&#xf5;" horiz-adv-x="1380" d="M690 -30 C1086 -30 1340 172 1340 523 C1340 874 1086 1076 690 1076 C294 1076 40 874 40 523 C40 172 294 -30 690 -30 L690 -30 Z M690 273 C546 273 443 362 443 523 C443 684 546 773 690 773 C834 773 937 684 937 523 C937 362 834 273 690 273 L690 273 Z M662 1217 C696 1188 746 1163 827 1163 C1141 1163 1162 1512 1162 1512 L887 1512 C887 1512 879 1434 812 1434 C765 1434 747 1457 719 1480 C685 1509 635 1534 554 1534 C240 1534 219 1185 219 1185 L494 1185 C494 1185 502 1263 569 1263 C616 1263 634 1240 662 1217 L662 1217 Z " />
<glyph glyph-name="odieresis" unicode="&#xf6;" horiz-adv-x="1380" d="M690 -30 C1086 -30 1340 172 1340 523 C1340 874 1086 1076 690 1076 C294 1076 40 874 40 523 C40 172 294 -30 690 -30 L690 -30 Z M690 273 C546 273 443 362 443 523 C443 684 546 773 690 773 C834 773 937 684 937 523 C937 362 834 273 690 273 L690 273 Z M249 1324 C249 1216 337 1128 445 1128 C553 1128 641 1216 641 1324 C641 1432 553 1520 445 1520 C337 1520 249 1432 249 1324 L249 1324 Z M740 1324 C740 1216 828 1128 936 1128 C1044 1128 1132 1216 1132 1324 C1132 1432 1044 1520 936 1520 C828 1520 740 1432 740 1324 L740 1324 Z " />
<glyph glyph-name="divide" unicode="&#xf7;" horiz-adv-x="1090" d="M60 502 L1030 502 L1030 854 L60 854 L60 502 Z M331 1128 C331 1010 427 914 545 914 C663 914 759 1010 759 1128 C759 1246 663 1342 545 1342 C427 1342 331 1246 331 1128 L331 1128 Z M331 228 C331 110 427 14 545 14 C663 14 759 110 759 228 C759 346 663 442 545 442 C427 442 331 346 331 228 L331 228 Z " />
<glyph glyph-name="oslash" unicode="&#xf8;" horiz-adv-x="1420" d="M710 -30 C1106 -30 1360 172 1360 523 C1360 760 1244 929 1047 1014 L1093 1107 L901 1107 L879 1062 C826 1071 770 1076 710 1076 C314 1076 60 874 60 523 C60 286 175 117 372 32 L327 -61 L519 -61 L541 -16 C594 -25 650 -30 710 -30 L710 -30 Z M463 523 C463 684 566 773 710 773 C719 773 728 772 736 772 L526 344 C486 386 463 446 463 523 L463 523 Z M710 273 C701 273 692 273 683 274 L894 702 C934 660 957 599 957 523 C957 362 854 273 710 273 L710 273 Z " />
<glyph glyph-name="ugrave" unicode="&#xf9;" horiz-adv-x="1593" d="M744 1434 L291 1434 L605 1124 L995 1124 L744 1434 Z M1374 303 L1374 1046 L812 1046 L812 743 L971 743 L971 467 C971 342 921 273 797 273 C672 273 622 342 622 467 L622 1046 L60 1046 L60 743 L219 743 L219 467 C219 169 373 -30 688 -30 C798 -30 920 15 971 107 L971 0 L1533 0 L1533 303 L1374 303 Z " />
<glyph glyph-name="uacute" unicode="&#xfa;" horiz-adv-x="1593" d="M598 1124 L988 1124 L1302 1434 L849 1434 L598 1124 Z M1374 303 L1374 1046 L812 1046 L812 743 L971 743 L971 467 C971 342 921 273 797 273 C672 273 622 342 622 467 L622 1046 L60 1046 L60 743 L219 743 L219 467 C219 169 373 -30 688 -30 C798 -30 920 15 971 107 L971 0 L1533 0 L1533 303 L1374 303 Z " />
<glyph glyph-name="ucircumflex" unicode="&#xfb;" horiz-adv-x="1593" d="M951 1434 L645 1434 L334 1143 L652 1143 L798 1242 L944 1143 L1262 1143 L951 1434 Z M1374 303 L1374 1046 L812 1046 L812 743 L971 743 L971 467 C971 342 921 273 797 273 C672 273 622 342 622 467 L622 1046 L60 1046 L60 743 L219 743 L219 467 C219 169 373 -30 688 -30 C798 -30 920 15 971 107 L971 0 L1533 0 L1533 303 L1374 303 Z " />
<glyph glyph-name="udieresis" unicode="&#xfc;" horiz-adv-x="1593" d="M356 1344 C356 1236 444 1148 552 1148 C660 1148 748 1236 748 1344 C748 1452 660 1540 552 1540 C444 1540 356 1452 356 1344 L356 1344 Z M847 1344 C847 1236 935 1148 1043 1148 C1151 1148 1239 1236 1239 1344 C1239 1452 1151 1540 1043 1540 C935 1540 847 1452 847 1344 L847 1344 Z M1374 303 L1374 1046 L812 1046 L812 743 L971 743 L971 467 C971 342 921 273 797 273 C672 273 622 342 622 467 L622 1046 L60 1046 L60 743 L219 743 L219 467 C219 169 373 -30 688 -30 C798 -30 920 15 971 107 L971 0 L1533 0 L1533 303 L1374 303 Z " />
<glyph glyph-name="yacute" unicode="&#xfd;" horiz-adv-x="1450" d="M528 1124 L918 1124 L1232 1434 L779 1434 L528 1124 Z M618 743 L681 743 L681 1046 L60 1046 L60 743 L226 743 L537 0 L510 -71 C467 -185 437 -229 322 -229 L179 -229 L179 -532 L381 -532 C640 -532 731 -425 794 -282 L1224 743 L1390 743 L1390 1046 L769 1046 L769 743 L832 743 L725 443 L618 743 Z " />
<glyph glyph-name="thorn" unicode="&#xfe;" horiz-adv-x="1549" d="M60 -532 L781 -532 L781 -229 L622 -229 L622 125 C704 10 835 -30 956 -30 C1301 -30 1509 183 1509 523 C1509 863 1301 1076 956 1076 C835 1076 704 1036 622 921 L622 1516 L60 1516 L60 1213 L219 1213 L219 -229 L60 -229 L60 -532 Z M864 773 C1012 773 1106 671 1106 523 C1106 375 1012 273 864 273 C716 273 622 375 622 523 C622 671 716 773 864 773 L864 773 Z " />
<glyph glyph-name="ydieresis" unicode="&#xff;" horiz-adv-x="1450" d="M284 1344 C284 1236 372 1148 480 1148 C588 1148 676 1236 676 1344 C676 1452 588 1540 480 1540 C372 1540 284 1452 284 1344 L284 1344 Z M775 1344 C775 1236 863 1148 971 1148 C1079 1148 1167 1236 1167 1344 C1167 1452 1079 1540 971 1540 C863 1540 775 1452 775 1344 L775 1344 Z M618 743 L681 743 L681 1046 L60 1046 L60 743 L226 743 L537 0 L510 -71 C467 -185 437 -229 322 -229 L179 -229 L179 -532 L381 -532 C640 -532 731 -425 794 -282 L1224 743 L1390 743 L1390 1046 L769 1046 L769 743 L832 743 L725 443 L618 743 Z " />
<glyph glyph-name="Amacron" unicode="&#x100;" horiz-adv-x="1696" d="M383 1536 L1313 1536 L1313 1839 L383 1839 L383 1536 Z M1086 352 L935 352 L935 0 L1676 0 L1676 352 L1525 352 L1062 1434 L331 1434 L331 1082 L490 1082 L171 352 L20 352 L20 0 L761 0 L761 352 L609 352 L644 434 L1051 434 L1086 352 Z M848 915 L932 716 L763 716 L848 915 Z " />
<glyph glyph-name="amacron" unicode="&#x101;" horiz-adv-x="1367" d="M173 1171 L1103 1171 L1103 1474 L173 1474 L173 1171 Z M745 0 L1307 0 L1307 303 L1148 303 L1148 623 C1148 969 977 1076 598 1076 C394 1076 224 1038 116 983 L245 737 C338 772 440 793 560 793 C726 793 745 757 745 677 C415 703 40 630 40 323 C40 107 190 -24 426 -24 C558 -24 680 9 745 121 L745 0 Z M443 344 C443 458 622 465 745 455 L745 400 C745 350 699 259 558 259 C492 259 443 280 443 344 L443 344 Z " />
<glyph glyph-name="Abreve" unicode="&#x102;" horiz-adv-x="1696" d="M848 1744 C774 1744 710 1763 686 1822 L434 1822 C456 1709 540 1536 848 1536 C1156 1536 1240 1709 1262 1822 L1010 1822 C986 1763 922 1744 848 1744 L848 1744 Z M1086 352 L935 352 L935 0 L1676 0 L1676 352 L1525 352 L1062 1434 L331 1434 L331 1082 L490 1082 L171 352 L20 352 L20 0 L761 0 L761 352 L609 352 L644 434 L1051 434 L1086 352 Z M848 915 L932 716 L763 716 L848 915 Z " />
<glyph glyph-name="abreve" unicode="&#x103;" horiz-adv-x="1367" d="M639 1356 C565 1356 501 1375 477 1434 L225 1434 C247 1321 331 1148 639 1148 C947 1148 1031 1321 1053 1434 L801 1434 C777 1375 713 1356 639 1356 L639 1356 Z M745 0 L1307 0 L1307 303 L1148 303 L1148 623 C1148 969 977 1076 598 1076 C394 1076 224 1038 116 983 L245 737 C338 772 440 793 560 793 C726 793 745 757 745 677 C415 703 40 630 40 323 C40 107 190 -24 426 -24 C558 -24 680 9 745 121 L745 0 Z M443 344 C443 458 622 465 745 455 L745 400 C745 350 699 259 558 259 C492 259 443 280 443 344 L443 344 Z " />
<glyph glyph-name="Aogonek" unicode="&#x104;" horiz-adv-x="1748" d="M1086 352 L935 352 L935 0 L1423 0 C1183 -124 1211 -600 1728 -532 L1728 -261 C1480 -284 1511 -73 1676 0 L1676 352 L1525 352 L1062 1434 L331 1434 L331 1082 L490 1082 L171 352 L20 352 L20 0 L761 0 L761 352 L609 352 L644 434 L1051 434 L1086 352 Z M848 915 L932 716 L763 716 L848 915 Z " />
<glyph glyph-name="aogonek" unicode="&#x105;" horiz-adv-x="1419" d="M745 0 L1054 0 C814 -124 842 -600 1359 -532 L1359 -261 C1111 -284 1142 -73 1307 0 L1307 303 L1148 303 L1148 623 C1148 969 977 1076 598 1076 C394 1076 224 1038 116 983 L245 737 C338 772 440 793 560 793 C726 793 745 757 745 677 C415 703 40 630 40 323 C40 107 190 -24 426 -24 C558 -24 680 9 745 121 L745 0 Z M443 344 C443 458 622 465 745 455 L745 400 C745 350 699 259 558 259 C492 259 443 280 443 344 L443 344 Z " />
<glyph glyph-name="Cacute" unicode="&#x106;" horiz-adv-x="1543" d="M647 1536 L1037 1536 L1351 1846 L898 1846 L647 1536 Z M1040 945 L1463 945 L1463 1334 C1463 1334 1222 1474 846 1474 C309 1474 60 1136 60 717 C60 298 309 -40 846 -40 C1182 -40 1350 67 1463 166 L1258 438 C1177 384 1066 312 846 312 C587 312 487 514 487 717 C487 920 587 1122 846 1122 C923 1122 986 1113 1040 1099 L1040 945 Z " />
<glyph glyph-name="cacute" unicode="&#x107;" horiz-adv-x="1270" d="M486 1124 L876 1124 L1190 1434 L737 1434 L486 1124 Z M1153 627 L1153 986 C1153 986 956 1076 690 1076 C294 1076 40 874 40 523 C40 172 294 -30 690 -30 C931 -30 1073 50 1153 136 L963 362 C901 318 811 273 690 273 C546 273 443 362 443 523 C443 684 546 773 690 773 C711 773 731 771 750 769 L750 627 L1153 627 Z " />
<glyph glyph-name="Ccircumflex" unicode="&#x108;" horiz-adv-x="1543" d="M992 1827 L686 1827 L375 1536 L693 1536 L839 1635 L985 1536 L1303 1536 L992 1827 Z M1040 945 L1463 945 L1463 1334 C1463 1334 1222 1474 846 1474 C309 1474 60 1136 60 717 C60 298 309 -40 846 -40 C1182 -40 1350 67 1463 166 L1258 438 C1177 384 1066 312 846 312 C587 312 487 514 487 717 C487 920 587 1122 846 1122 C923 1122 986 1113 1040 1099 L1040 945 Z " />
<glyph glyph-name="ccircumflex" unicode="&#x109;" horiz-adv-x="1233" d="M815 1434 L509 1434 L198 1143 L516 1143 L662 1242 L808 1143 L1126 1143 L815 1434 Z M1153 627 L1153 986 C1153 986 956 1076 690 1076 C294 1076 40 874 40 523 C40 172 294 -30 690 -30 C931 -30 1073 50 1153 136 L963 362 C901 318 811 273 690 273 C546 273 443 362 443 523 C443 684 546 773 690 773 C711 773 731 771 750 769 L750 627 L1153 627 Z " />
<glyph glyph-name="Cdotaccent" unicode="&#x10a;" horiz-adv-x="1543" d="M659 1732 C659 1624 747 1536 855 1536 C963 1536 1051 1624 1051 1732 C1051 1840 963 1928 855 1928 C747 1928 659 1840 659 1732 L659 1732 Z M1040 945 L1463 945 L1463 1334 C1463 1334 1222 1474 846 1474 C309 1474 60 1136 60 717 C60 298 309 -40 846 -40 C1182 -40 1350 67 1463 166 L1258 438 C1177 384 1066 312 846 312 C587 312 487 514 487 717 C487 920 587 1122 846 1122 C923 1122 986 1113 1040 1099 L1040 945 Z " />
<glyph glyph-name="cdotaccent" unicode="&#x10b;" horiz-adv-x="1233" d="M462 1344 C462 1236 550 1148 658 1148 C766 1148 854 1236 854 1344 C854 1452 766 1540 658 1540 C550 1540 462 1452 462 1344 L462 1344 Z M1153 627 L1153 986 C1153 986 956 1076 690 1076 C294 1076 40 874 40 523 C40 172 294 -30 690 -30 C931 -30 1073 50 1153 136 L963 362 C901 318 811 273 690 273 C546 273 443 362 443 523 C443 684 546 773 690 773 C711 773 731 771 750 769 L750 627 L1153 627 Z " />
<glyph glyph-name="Ccaron" unicode="&#x10c;" horiz-adv-x="1543" d="M1310 1827 L992 1827 L846 1728 L700 1827 L382 1827 L693 1536 L999 1536 L1310 1827 Z M1040 945 L1463 945 L1463 1334 C1463 1334 1222 1474 846 1474 C309 1474 60 1136 60 717 C60 298 309 -40 846 -40 C1182 -40 1350 67 1463 166 L1258 438 C1177 384 1066 312 846 312 C587 312 487 514 487 717 C487 920 587 1122 846 1122 C923 1122 986 1113 1040 1099 L1040 945 Z " />
<glyph glyph-name="ccaron" unicode="&#x10d;" horiz-adv-x="1233" d="M1135 1434 L817 1434 L671 1335 L525 1434 L207 1434 L518 1143 L824 1143 L1135 1434 Z M1153 627 L1153 986 C1153 986 956 1076 690 1076 C294 1076 40 874 40 523 C40 172 294 -30 690 -30 C931 -30 1073 50 1153 136 L963 362 C901 318 811 273 690 273 C546 273 443 362 443 523 C443 684 546 773 690 773 C711 773 731 771 750 769 L750 627 L1153 627 Z " />
<glyph glyph-name="Dcaron" unicode="&#x10e;" horiz-adv-x="1664" d="M1223 1827 L905 1827 L759 1728 L613 1827 L295 1827 L606 1536 L912 1536 L1223 1827 Z M1624 717 C1624 1120 1416 1434 863 1434 L80 1434 L80 1082 L239 1082 L239 352 L80 352 L80 0 L863 0 C1416 0 1624 313 1624 717 L1624 717 Z M662 1082 L863 1082 C1090 1082 1189 960 1189 717 C1189 474 1090 352 863 352 L662 352 L662 1082 Z " />
<glyph glyph-name="dcaron" unicode="&#x10f;" horiz-adv-x="1659" d="M768 1213 L927 1213 L927 921 C845 1036 714 1076 593 1076 C248 1076 40 863 40 523 C40 183 248 -30 593 -30 C714 -30 845 10 927 125 L927 0 L1489 0 L1489 303 L1330 303 L1330 1516 L768 1516 L768 1213 Z M685 773 C833 773 927 671 927 523 C927 375 833 273 685 273 C537 273 443 375 443 523 C443 671 537 773 685 773 L685 773 Z M1360 1084 L1701 1084 L1800 1516 L1421 1516 L1360 1084 Z " />
<glyph glyph-name="Dcroat" unicode="&#x110;" horiz-adv-x="1706" d="M1666 717 C1666 1120 1458 1434 905 1434 L122 1434 L122 1082 L281 1082 L281 893 L80 893 L80 541 L281 541 L281 352 L122 352 L122 0 L905 0 C1458 0 1666 313 1666 717 L1666 717 Z M704 1082 L905 1082 C1132 1082 1231 960 1231 717 C1231 474 1132 352 905 352 L704 352 L704 541 L968 541 L968 893 L704 893 L704 1082 Z " />
<glyph glyph-name="dcroat" unicode="&#x111;" horiz-adv-x="1530" d="M1330 303 L1330 1088 L1510 1088 L1510 1241 L1330 1241 L1330 1516 L768 1516 L768 1279 L927 1279 L927 1241 L622 1241 L622 1088 L927 1088 L927 921 C845 1036 714 1076 593 1076 C248 1076 40 863 40 523 C40 183 248 -30 593 -30 C714 -30 845 10 927 125 L927 0 L1489 0 L1489 303 L1330 303 Z M685 773 C833 773 927 671 927 523 C927 375 833 273 685 273 C537 273 443 375 443 523 C443 671 537 773 685 773 L685 773 Z " />
<glyph glyph-name="Emacron" unicode="&#x112;" horiz-adv-x="1560" d="M304 1536 L1234 1536 L1234 1839 L304 1839 L304 1536 Z M80 0 L1480 0 L1480 489 L1057 489 L1057 352 L662 352 L662 554 L1027 554 L1027 897 L662 897 L662 1082 L1047 1082 L1047 945 L1470 945 L1470 1434 L80 1434 L80 1082 L239 1082 L239 352 L80 352 L80 0 Z " />
<glyph glyph-name="emacron" unicode="&#x113;" horiz-adv-x="1237" d="M629 -30 C845 -30 1011 14 1145 117 L958 332 C883 290 791 263 678 263 C510 263 443 330 443 376 L1195 376 C1213 813 1017 1076 629 1076 C238 1076 40 814 40 523 C40 242 210 -30 629 -30 L629 -30 Z M443 630 C443 700 500 783 629 783 C758 783 815 700 815 630 L443 630 Z M161 1171 L1091 1171 L1091 1474 L161 1474 L161 1171 Z " />
<glyph glyph-name="Ebreve" unicode="&#x114;" horiz-adv-x="1560" d="M779 1744 C705 1744 641 1763 617 1822 L365 1822 C387 1709 471 1536 779 1536 C1087 1536 1171 1709 1193 1822 L941 1822 C917 1763 853 1744 779 1744 L779 1744 Z M80 0 L1480 0 L1480 489 L1057 489 L1057 352 L662 352 L662 554 L1027 554 L1027 897 L662 897 L662 1082 L1047 1082 L1047 945 L1470 945 L1470 1434 L80 1434 L80 1082 L239 1082 L239 352 L80 352 L80 0 Z " />
<glyph glyph-name="ebreve" unicode="&#x115;" horiz-adv-x="1237" d="M629 -30 C845 -30 1011 14 1145 117 L958 332 C883 290 791 263 678 263 C510 263 443 330 443 376 L1195 376 C1213 813 1017 1076 629 1076 C238 1076 40 814 40 523 C40 242 210 -30 629 -30 L629 -30 Z M443 630 C443 700 500 783 629 783 C758 783 815 700 815 630 L443 630 Z M626 1356 C552 1356 488 1375 464 1434 L212 1434 C234 1321 318 1148 626 1148 C934 1148 1018 1321 1040 1434 L788 1434 C764 1375 700 1356 626 1356 L626 1356 Z " />
<glyph glyph-name="Edotaccent" unicode="&#x116;" horiz-adv-x="1560" d="M583 1732 C583 1624 671 1536 779 1536 C887 1536 975 1624 975 1732 C975 1840 887 1928 779 1928 C671 1928 583 1840 583 1732 L583 1732 Z M80 0 L1480 0 L1480 489 L1057 489 L1057 352 L662 352 L662 554 L1027 554 L1027 897 L662 897 L662 1082 L1047 1082 L1047 945 L1470 945 L1470 1434 L80 1434 L80 1082 L239 1082 L239 352 L80 352 L80 0 Z " />
<glyph glyph-name="edotaccent" unicode="&#x117;" horiz-adv-x="1237" d="M629 -30 C845 -30 1011 14 1145 117 L958 332 C883 290 791 263 678 263 C510 263 443 330 443 376 L1195 376 C1213 813 1017 1076 629 1076 C238 1076 40 814 40 523 C40 242 210 -30 629 -30 L629 -30 Z M443 630 C443 700 500 783 629 783 C758 783 815 700 815 630 L443 630 Z M430 1344 C430 1236 518 1148 626 1148 C734 1148 822 1236 822 1344 C822 1452 734 1540 626 1540 C518 1540 430 1452 430 1344 L430 1344 Z " />
<glyph glyph-name="Eogonek" unicode="&#x118;" horiz-adv-x="1612" d="M80 0 L1227 0 C987 -124 1015 -600 1532 -532 L1532 -261 C1284 -284 1315 -73 1480 0 L1480 489 L1057 489 L1057 352 L662 352 L662 554 L1027 554 L1027 897 L662 897 L662 1082 L1047 1082 L1047 945 L1470 945 L1470 1434 L80 1434 L80 1082 L239 1082 L239 352 L80 352 L80 0 Z " />
<glyph glyph-name="eogonek" unicode="&#x119;" horiz-adv-x="1237" d="M40 523 C40 248 202 -18 601 -29 C412 -185 468 -595 951 -532 L951 -261 C703 -284 734 -74 898 0 C992 23 1073 61 1145 117 L958 332 C883 290 791 263 678 263 C510 263 443 330 443 376 L1195 376 C1213 813 1017 1076 629 1076 C238 1076 40 814 40 523 L40 523 Z M443 630 C443 700 500 783 629 783 C758 783 815 700 815 630 L443 630 Z " />
<glyph glyph-name="Ecaron" unicode="&#x11a;" horiz-adv-x="1560" d="M1243 1827 L925 1827 L779 1728 L633 1827 L315 1827 L626 1536 L932 1536 L1243 1827 Z M80 0 L1480 0 L1480 489 L1057 489 L1057 352 L662 352 L662 554 L1027 554 L1027 897 L662 897 L662 1082 L1047 1082 L1047 945 L1470 945 L1470 1434 L80 1434 L80 1082 L239 1082 L239 352 L80 352 L80 0 Z " />
<glyph glyph-name="ecaron" unicode="&#x11b;" horiz-adv-x="1237" d="M629 -30 C845 -30 1011 14 1145 117 L958 332 C883 290 791 263 678 263 C510 263 443 330 443 376 L1195 376 C1213 813 1017 1076 629 1076 C238 1076 40 814 40 523 C40 242 210 -30 629 -30 L629 -30 Z M443 630 C443 700 500 783 629 783 C758 783 815 700 815 630 L443 630 Z M1090 1434 L772 1434 L626 1335 L480 1434 L162 1434 L473 1143 L779 1143 L1090 1434 Z " />
<glyph glyph-name="Gcircumflex" unicode="&#x11c;" horiz-adv-x="1532" d="M979 1827 L673 1827 L362 1536 L680 1536 L826 1635 L972 1536 L1290 1536 L979 1827 Z M1029 945 L1452 945 L1452 1354 C1452 1354 1200 1474 846 1474 C309 1474 60 1136 60 717 C60 298 309 -40 846 -40 C1068 -40 1260 -10 1452 129 L1452 851 L826 851 L826 538 L1029 538 L1029 345 C1029 345 960 312 846 312 C587 312 487 514 487 717 C487 920 587 1122 846 1122 C912 1122 972 1117 1029 1107 L1029 945 Z " />
<glyph glyph-name="gcircumflex" unicode="&#x11d;" horiz-adv-x="1529" d="M818 1434 L512 1434 L201 1143 L519 1143 L665 1242 L811 1143 L1129 1143 L818 1434 Z M1310 743 L1469 743 L1469 1046 L907 1046 L907 921 C825 1036 694 1076 573 1076 C228 1076 20 863 20 523 C20 183 228 -30 573 -30 C694 -30 825 10 907 125 L907 0 C907 -164 781 -229 608 -229 C469 -229 334 -196 240 -147 L93 -400 C218 -482 414 -528 648 -532 C1010 -538 1303 -408 1310 0 L1310 743 Z M665 273 C517 273 423 375 423 523 C423 671 517 773 665 773 C813 773 907 671 907 523 C907 375 813 273 665 273 L665 273 Z " />
<glyph glyph-name="Gbreve" unicode="&#x11e;" horiz-adv-x="1532" d="M839 1743 C765 1743 701 1762 677 1821 L425 1821 C447 1708 531 1535 839 1535 C1147 1535 1231 1708 1253 1821 L1001 1821 C977 1762 913 1743 839 1743 L839 1743 Z M1029 945 L1452 945 L1452 1354 C1452 1354 1200 1474 846 1474 C309 1474 60 1136 60 717 C60 298 309 -40 846 -40 C1068 -40 1260 -10 1452 129 L1452 851 L826 851 L826 538 L1029 538 L1029 345 C1029 345 960 312 846 312 C587 312 487 514 487 717 C487 920 587 1122 846 1122 C912 1122 972 1117 1029 1107 L1029 945 Z " />
<glyph glyph-name="gbreve" unicode="&#x11f;" horiz-adv-x="1549" d="M685 1356 C611 1356 547 1375 523 1434 L271 1434 C293 1321 377 1148 685 1148 C993 1148 1077 1321 1099 1434 L847 1434 C823 1375 759 1356 685 1356 L685 1356 Z M1330 743 L1489 743 L1489 1046 L927 1046 L927 921 C845 1036 714 1076 593 1076 C248 1076 40 863 40 523 C40 183 248 -30 593 -30 C714 -30 845 10 927 125 L927 0 C927 -164 801 -229 628 -229 C489 -229 354 -196 260 -147 L113 -400 C238 -482 434 -528 668 -532 C1030 -538 1323 -408 1330 0 L1330 743 Z M685 273 C537 273 443 375 443 523 C443 671 537 773 685 773 C833 773 927 671 927 523 C927 375 833 273 685 273 L685 273 Z " />
<glyph glyph-name="Gdotaccent" unicode="&#x120;" horiz-adv-x="1532" d="M642 1732 C642 1624 730 1536 838 1536 C946 1536 1034 1624 1034 1732 C1034 1840 946 1928 838 1928 C730 1928 642 1840 642 1732 L642 1732 Z M1029 945 L1452 945 L1452 1354 C1452 1354 1200 1474 846 1474 C309 1474 60 1136 60 717 C60 298 309 -40 846 -40 C1068 -40 1260 -10 1452 129 L1452 851 L826 851 L826 538 L1029 538 L1029 345 C1029 345 960 312 846 312 C587 312 487 514 487 717 C487 920 587 1122 846 1122 C912 1122 972 1117 1029 1107 L1029 945 Z " />
<glyph glyph-name="gdotaccent" unicode="&#x121;" horiz-adv-x="1549" d="M489 1344 C489 1236 577 1148 685 1148 C793 1148 881 1236 881 1344 C881 1452 793 1540 685 1540 C577 1540 489 1452 489 1344 L489 1344 Z M1330 743 L1489 743 L1489 1046 L927 1046 L927 921 C845 1036 714 1076 593 1076 C248 1076 40 863 40 523 C40 183 248 -30 593 -30 C714 -30 845 10 927 125 L927 0 C927 -164 801 -229 628 -229 C489 -229 354 -196 260 -147 L113 -400 C238 -482 434 -528 668 -532 C1030 -538 1323 -408 1330 0 L1330 743 Z M685 273 C537 273 443 375 443 523 C443 671 537 773 685 773 C833 773 927 671 927 523 C927 375 833 273 685 273 L685 273 Z " />
<glyph glyph-name="Gcommaaccent" unicode="&#x122;" horiz-adv-x="1532" d="M501 -532 L862 -532 L1053 -108 L654 -108 L501 -532 Z M1029 945 L1452 945 L1452 1354 C1452 1354 1200 1474 846 1474 C309 1474 60 1136 60 717 C60 298 309 -40 846 -40 C1068 -40 1260 -10 1452 129 L1452 851 L826 851 L826 538 L1029 538 L1029 345 C1029 345 960 312 846 312 C587 312 487 514 487 717 C487 920 587 1122 846 1122 C912 1122 972 1117 1029 1107 L1029 945 Z " />
<glyph glyph-name="gcommaaccent" unicode="&#x123;" horiz-adv-x="1549" d="M1004 1555 L643 1555 L452 1131 L851 1131 L1004 1555 Z M1330 743 L1489 743 L1489 1046 L927 1046 L927 921 C845 1036 714 1076 593 1076 C248 1076 40 863 40 523 C40 183 248 -30 593 -30 C714 -30 845 10 927 125 L927 0 C927 -164 801 -229 628 -229 C489 -229 354 -196 260 -147 L113 -400 C238 -482 434 -528 668 -532 C1030 -538 1323 -408 1330 0 L1330 743 Z M685 273 C537 273 443 375 443 523 C443 671 537 773 685 773 C833 773 927 671 927 523 C927 375 833 273 685 273 L685 273 Z " />
<glyph glyph-name="Hcircumflex" unicode="&#x124;" horiz-adv-x="1856" d="M1081 1827 L775 1827 L464 1536 L782 1536 L928 1635 L1074 1536 L1392 1536 L1081 1827 Z M239 1082 L239 352 L80 352 L80 0 L821 0 L821 352 L662 352 L662 554 L1194 554 L1194 352 L1035 352 L1035 0 L1776 0 L1776 352 L1617 352 L1617 1082 L1776 1082 L1776 1434 L1035 1434 L1035 1082 L1194 1082 L1194 906 L662 906 L662 1082 L821 1082 L821 1434 L80 1434 L80 1082 L239 1082 Z " />
<glyph glyph-name="hcircumflex" unicode="&#x125;" horiz-adv-x="1593" d="M949 1827 L643 1827 L332 1536 L650 1536 L796 1635 L942 1536 L1260 1536 L949 1827 Z M971 0 L1533 0 L1533 303 L1374 303 L1374 579 C1374 877 1220 1076 905 1076 C795 1076 673 1031 622 939 L622 1516 L60 1516 L60 1213 L219 1213 L219 303 L60 303 L60 0 L781 0 L781 303 L622 303 L622 579 C622 704 672 773 796 773 C921 773 971 704 971 579 L971 0 Z " />
<glyph glyph-name="Hbar" unicode="&#x126;" horiz-adv-x="1944" d="M80 930 L283 930 L283 352 L124 352 L124 0 L865 0 L865 352 L706 352 L706 554 L1238 554 L1238 352 L1079 352 L1079 0 L1820 0 L1820 352 L1661 352 L1661 930 L1864 930 L1864 1062 L1661 1062 L1661 1082 L1820 1082 L1820 1434 L1079 1434 L1079 1082 L1238 1082 L1238 1062 L706 1062 L706 1082 L865 1082 L865 1434 L124 1434 L124 1082 L283 1082 L283 1062 L80 1062 L80 930 Z M1238 930 L1238 906 L706 906 L706 930 L1238 930 Z " />
<glyph glyph-name="hbar" unicode="&#x127;" horiz-adv-x="1614" d="M992 579 L992 0 L1554 0 L1554 303 L1395 303 L1395 579 C1395 877 1241 1076 926 1076 C816 1076 694 1031 643 939 L643 1088 L948 1088 L948 1241 L643 1241 L643 1516 L81 1516 L81 1279 L240 1279 L240 1241 L60 1241 L60 1088 L240 1088 L240 303 L81 303 L81 0 L802 0 L802 303 L643 303 L643 579 C643 704 693 773 817 773 C942 773 992 704 992 579 L992 579 Z " />
<glyph glyph-name="Itilde" unicode="&#x128;" horiz-adv-x="1023" d="M483 1590 C517 1561 567 1536 648 1536 C962 1536 983 1885 983 1885 L708 1885 C708 1885 700 1807 633 1807 C586 1807 568 1830 540 1853 C506 1882 456 1907 375 1907 C61 1907 40 1558 40 1558 L315 1558 C315 1558 323 1636 390 1636 C437 1636 455 1613 483 1590 L483 1590 Z M723 1082 L882 1082 L882 1434 L141 1434 L141 1082 L300 1082 L300 352 L141 352 L141 0 L882 0 L882 352 L723 352 L723 1082 Z " />
<glyph glyph-name="itilde" unicode="&#x129;" horiz-adv-x="983" d="M463 1217 C497 1188 547 1163 628 1163 C942 1163 963 1512 963 1512 L688 1512 C688 1512 680 1434 613 1434 C566 1434 548 1457 520 1480 C486 1509 436 1534 355 1534 C41 1534 20 1185 20 1185 L295 1185 C295 1185 303 1263 370 1263 C417 1263 435 1240 463 1217 L463 1217 Z M693 1046 L131 1046 L131 743 L290 743 L290 303 L131 303 L131 0 L852 0 L852 303 L693 303 L693 1046 Z " />
<glyph glyph-name="uni012A" unicode="&#x12a;" horiz-adv-x="1010" d="M40 1536 L970 1536 L970 1839 L40 1839 L40 1536 Z M717 1082 L876 1082 L876 1434 L135 1434 L135 1082 L294 1082 L294 352 L135 352 L135 0 L876 0 L876 352 L717 352 L717 1082 Z " />
<glyph glyph-name="imacron" unicode="&#x12b;" horiz-adv-x="910" d="M-10 1171 L920 1171 L920 1474 L-10 1474 L-10 1171 Z M658 1046 L96 1046 L96 743 L255 743 L255 303 L96 303 L96 0 L817 0 L817 303 L658 303 L658 1046 Z " />
<glyph glyph-name="Ibreve" unicode="&#x12c;" horiz-adv-x="908" d="M454 1744 C380 1744 316 1763 292 1822 L40 1822 C62 1709 146 1536 454 1536 C762 1536 846 1709 868 1822 L616 1822 C592 1763 528 1744 454 1744 L454 1744 Z M666 1082 L825 1082 L825 1434 L84 1434 L84 1082 L243 1082 L243 352 L84 352 L84 0 L825 0 L825 352 L666 352 L666 1082 Z " />
<glyph glyph-name="uni012D" unicode="&#x12d;" horiz-adv-x="808" d="M404 1356 C330 1356 266 1375 242 1434 L-10 1434 C12 1321 96 1148 404 1148 C712 1148 796 1321 818 1434 L566 1434 C542 1375 478 1356 404 1356 L404 1356 Z M606 1046 L44 1046 L44 743 L203 743 L203 303 L44 303 L44 0 L765 0 L765 303 L606 303 L606 1046 Z " />
<glyph glyph-name="Iogonek" unicode="&#x12e;" horiz-adv-x="873" d="M622 1082 L781 1082 L781 1434 L40 1434 L40 1082 L199 1082 L199 352 L40 352 L40 0 L528 0 C288 -124 316 -600 833 -532 L833 -261 C585 -284 616 -73 781 0 L781 352 L622 352 L622 1082 Z " />
<glyph glyph-name="iogonek" unicode="&#x12f;" horiz-adv-x="853" d="M622 1046 L60 1046 L60 743 L219 743 L219 303 L60 303 L60 0 L528 0 C288 -124 316 -600 833 -532 L833 -261 C585 -284 616 -73 781 0 L781 303 L622 303 L622 1046 Z M224 1344 C224 1236 312 1148 420 1148 C528 1148 616 1236 616 1344 C616 1452 528 1540 420 1540 C312 1540 224 1452 224 1344 L224 1344 Z " />
<glyph glyph-name="Idotaccent" unicode="&#x130;" horiz-adv-x="901" d="M254 1732 C254 1624 342 1536 450 1536 C558 1536 646 1624 646 1732 C646 1840 558 1928 450 1928 C342 1928 254 1840 254 1732 L254 1732 Z M662 1082 L821 1082 L821 1434 L80 1434 L80 1082 L239 1082 L239 352 L80 352 L80 0 L821 0 L821 352 L662 352 L662 1082 Z " />
<glyph glyph-name="dotlessi" unicode="&#x131;" horiz-adv-x="841" d="M622 1046 L60 1046 L60 743 L219 743 L219 303 L60 303 L60 0 L781 0 L781 303 L622 303 L622 1046 Z " />
<glyph glyph-name="IJ" unicode="&#x132;" horiz-adv-x="2311" d="M928 343 C985 112 1154 -40 1499 -40 C1847 -40 2072 119 2072 499 L2072 1082 L2231 1082 L2231 1434 L1490 1434 L1490 1082 L1649 1082 L1649 499 C1649 396 1607 312 1479 312 C1398 312 1341 354 1304 443 L928 343 Z M662 1082 L821 1082 L821 1434 L80 1434 L80 1082 L239 1082 L239 352 L80 352 L80 0 L821 0 L821 352 L662 352 L662 1082 Z " />
<glyph glyph-name="ij" unicode="&#x133;" horiz-adv-x="1506" d="M1426 0 L1426 1046 L864 1046 L864 743 L1023 743 L1023 0 C1023 -97 1023 -229 908 -229 C865 -229 827 -218 797 -206 L701 -475 C782 -513 877 -532 986 -532 C1318 -532 1426 -307 1426 0 L1426 0 Z M622 1046 L60 1046 L60 743 L219 743 L219 303 L60 303 L60 0 L781 0 L781 303 L622 303 L622 1046 Z M1028 1344 C1028 1236 1116 1148 1224 1148 C1332 1148 1420 1236 1420 1344 C1420 1452 1332 1540 1224 1540 C1116 1540 1028 1452 1028 1344 L1028 1344 Z M224 1344 C224 1236 312 1148 420 1148 C528 1148 616 1236 616 1344 C616 1452 528 1540 420 1540 C312 1540 224 1452 224 1344 L224 1344 Z " />
<glyph glyph-name="Jcircumflex" unicode="&#x134;" horiz-adv-x="1522" d="M1131 1827 L825 1827 L514 1536 L832 1536 L978 1635 L1124 1536 L1442 1536 L1131 1827 Z M40 343 C97 112 266 -40 611 -40 C959 -40 1184 119 1184 499 L1184 1082 L1343 1082 L1343 1434 L602 1434 L602 1082 L761 1082 L761 499 C761 396 719 312 591 312 C510 312 453 354 416 443 L40 343 Z " />
<glyph glyph-name="jcircumflex" unicode="&#x135;" horiz-adv-x="772" d="M511 1434 L205 1434 L-106 1143 L212 1143 L358 1242 L504 1143 L822 1143 L511 1434 Z M565 0 L565 1046 L3 1046 L3 743 L162 743 L162 0 C162 -97 162 -229 47 -229 C4 -229 -34 -218 -64 -206 L-160 -475 C-79 -513 16 -532 125 -532 C457 -532 565 -307 565 0 L565 0 Z " />
<glyph glyph-name="Kcommaaccent" unicode="&#x136;" horiz-adv-x="1675" d="M482 -532 L843 -532 L1034 -108 L635 -108 L482 -532 Z M1449 1082 L1595 1082 L1595 1434 L900 1434 L900 1082 L964 1082 L662 866 L662 1082 L781 1082 L781 1434 L80 1434 L80 1082 L239 1082 L239 352 L80 352 L80 0 L781 0 L781 352 L662 352 L662 484 L766 563 L1128 0 L1595 0 L1595 352 L1420 352 L1101 818 L1449 1082 Z " />
<glyph glyph-name="kcommaaccent" unicode="&#x137;" horiz-adv-x="1449" d="M409 -532 L770 -532 L961 -108 L562 -108 L409 -532 Z M1389 743 L1389 1046 L727 1046 L727 743 L800 743 L622 627 L622 1516 L60 1516 L60 1213 L219 1213 L219 303 L60 303 L60 0 L721 0 L721 303 L622 303 L622 340 L717 401 L962 0 L1389 0 L1389 303 L1250 303 L1048 614 L1248 743 L1389 743 Z " />
<glyph glyph-name="kgreenlandic" unicode="&#x138;" horiz-adv-x="1613" d="M662 1082 L781 1082 L781 1434 L80 1434 L80 1082 L239 1082 L239 352 L80 352 L80 0 L781 0 L781 352 L662 352 L662 484 L770 566 L1101 0 L1533 0 L1533 352 L1363 352 L1066 824 C1244 993 1333 1072 1496 1072 L1496 1434 C1164 1434 1048 1278 662 933 L662 1082 Z " />
<glyph glyph-name="Lacute" unicode="&#x139;" horiz-adv-x="1469" d="M256 1536 L646 1536 L960 1846 L507 1846 L256 1536 Z M662 1082 L821 1082 L821 1434 L80 1434 L80 1082 L239 1082 L239 352 L80 352 L80 0 L1389 0 L1389 489 L966 489 L966 352 L662 352 L662 1082 Z " />
<glyph glyph-name="lacute" unicode="&#x13a;" horiz-adv-x="909" d="M185 1596 L575 1596 L889 1906 L436 1906 L185 1596 Z M582 1516 L20 1516 L20 1213 L179 1213 L179 303 L20 303 L20 0 L741 0 L741 303 L582 303 L582 1516 Z " />
<glyph glyph-name="Lcommaaccent" unicode="&#x13b;" horiz-adv-x="1469" d="M376 -532 L737 -532 L928 -108 L529 -108 L376 -532 Z M662 1082 L821 1082 L821 1434 L80 1434 L80 1082 L239 1082 L239 352 L80 352 L80 0 L1389 0 L1389 489 L966 489 L966 352 L662 352 L662 1082 Z " />
<glyph glyph-name="lcommaaccent" unicode="&#x13c;" horiz-adv-x="761" d="M35 -532 L396 -532 L587 -108 L188 -108 L35 -532 Z M582 1516 L20 1516 L20 1213 L179 1213 L179 303 L20 303 L20 0 L741 0 L741 303 L582 303 L582 1516 Z " />
<glyph glyph-name="Lcaron" unicode="&#x13d;" horiz-adv-x="1469" d="M662 1082 L821 1082 L821 1434 L80 1434 L80 1082 L239 1082 L239 352 L80 352 L80 0 L1389 0 L1389 489 L966 489 L966 352 L662 352 L662 1082 Z M879 1002 L1220 1002 L1319 1434 L940 1434 L879 1002 Z " />
<glyph glyph-name="lcaron" unicode="&#x13e;" horiz-adv-x="1080" d="M582 1516 L20 1516 L20 1213 L179 1213 L179 303 L20 303 L20 0 L741 0 L741 303 L582 303 L582 1516 Z M612 1084 L953 1084 L1052 1516 L673 1516 L612 1084 Z " />
<glyph glyph-name="Ldot" unicode="&#x13f;" horiz-adv-x="1469" d="M979 787 C979 679 1067 591 1175 591 C1283 591 1371 679 1371 787 C1371 895 1283 983 1175 983 C1067 983 979 895 979 787 L979 787 Z M662 1082 L821 1082 L821 1434 L80 1434 L80 1082 L239 1082 L239 352 L80 352 L80 0 L1389 0 L1389 489 L966 489 L966 352 L662 352 L662 1082 Z " />
<glyph glyph-name="ldot" unicode="&#x140;" horiz-adv-x="1043" d="M622 1516 L60 1516 L60 1213 L219 1213 L219 303 L60 303 L60 0 L781 0 L781 303 L622 303 L622 1516 Z M752 802 C752 694 839 607 947 607 C1055 607 1143 694 1143 802 C1143 910 1055 998 947 998 C839 998 752 910 752 802 L752 802 Z " />
<glyph glyph-name="Lslash" unicode="&#x141;" horiz-adv-x="1536" d="M729 1082 L888 1082 L888 1434 L147 1434 L147 1082 L306 1082 L306 797 L80 707 L80 380 L306 470 L306 352 L147 352 L147 0 L1456 0 L1456 489 L1033 489 L1033 352 L729 352 L729 639 L955 730 L955 1056 L729 966 L729 1082 Z " />
<glyph glyph-name="lslash" unicode="&#x142;" horiz-adv-x="955" d="M895 857 L895 1223 L679 1107 L679 1516 L117 1516 L117 1213 L276 1213 L276 890 L60 774 L60 407 L276 523 L276 303 L117 303 L117 0 L838 0 L838 303 L679 303 L679 740 L895 857 Z " />
<glyph glyph-name="Nacute" unicode="&#x143;" horiz-adv-x="1871" d="M692 1536 L1082 1536 L1396 1846 L943 1846 L692 1536 Z M80 0 L821 0 L821 352 L662 352 L662 807 L1137 0 L1632 0 L1632 1082 L1791 1082 L1791 1434 L1050 1434 L1050 1082 L1209 1082 L1209 627 L734 1434 L80 1434 L80 1082 L239 1082 L239 352 L80 352 L80 0 Z " />
<glyph glyph-name="nacute" unicode="&#x144;" horiz-adv-x="1593" d="M557 1124 L947 1124 L1261 1434 L808 1434 L557 1124 Z M971 0 L1533 0 L1533 303 L1374 303 L1374 579 C1374 877 1220 1076 905 1076 C795 1076 673 1031 622 939 L622 1046 L60 1046 L60 743 L219 743 L219 303 L60 303 L60 0 L781 0 L781 303 L622 303 L622 579 C622 704 672 773 796 773 C921 773 971 704 971 579 L971 0 Z " />
<glyph glyph-name="Ncommaaccent" unicode="&#x145;" horiz-adv-x="1871" d="M611 -532 L972 -532 L1163 -108 L764 -108 L611 -532 Z M80 0 L821 0 L821 352 L662 352 L662 807 L1137 0 L1632 0 L1632 1082 L1791 1082 L1791 1434 L1050 1434 L1050 1082 L1209 1082 L1209 627 L734 1434 L80 1434 L80 1082 L239 1082 L239 352 L80 352 L80 0 Z " />
<glyph glyph-name="ncommaaccent" unicode="&#x146;" horiz-adv-x="1593" d="M448 -532 L809 -532 L1000 -108 L601 -108 L448 -532 Z M971 0 L1533 0 L1533 303 L1374 303 L1374 579 C1374 877 1220 1076 905 1076 C795 1076 673 1031 622 939 L622 1046 L60 1046 L60 743 L219 743 L219 303 L60 303 L60 0 L781 0 L781 303 L622 303 L622 579 C622 704 672 773 796 773 C921 773 971 704 971 579 L971 0 Z " />
<glyph glyph-name="Ncaron" unicode="&#x147;" horiz-adv-x="1871" d="M1399 1827 L1081 1827 L935 1728 L789 1827 L471 1827 L782 1536 L1088 1536 L1399 1827 Z M80 0 L821 0 L821 352 L662 352 L662 807 L1137 0 L1632 0 L1632 1082 L1791 1082 L1791 1434 L1050 1434 L1050 1082 L1209 1082 L1209 627 L734 1434 L80 1434 L80 1082 L239 1082 L239 352 L80 352 L80 0 Z " />
<glyph glyph-name="ncaron" unicode="&#x148;" horiz-adv-x="1593" d="M1260 1434 L942 1434 L796 1335 L650 1434 L332 1434 L643 1143 L949 1143 L1260 1434 Z M971 0 L1533 0 L1533 303 L1374 303 L1374 579 C1374 877 1220 1076 905 1076 C795 1076 673 1031 622 939 L622 1046 L60 1046 L60 743 L219 743 L219 303 L60 303 L60 0 L781 0 L781 303 L622 303 L622 579 C622 704 672 773 796 773 C921 773 971 704 971 579 L971 0 Z " />
<glyph glyph-name="napostrophe" unicode="&#x149;" horiz-adv-x="1859" d="M-40 1092 L321 1092 L512 1516 L113 1516 L-40 1092 Z M1237 0 L1799 0 L1799 303 L1640 303 L1640 579 C1640 877 1486 1076 1171 1076 C1061 1076 939 1031 888 939 L888 1046 L326 1046 L326 743 L485 743 L485 303 L326 303 L326 0 L1047 0 L1047 303 L888 303 L888 579 C888 704 938 773 1062 773 C1187 773 1237 704 1237 579 L1237 0 Z " />
<glyph glyph-name="Eng" unicode="&#x14a;" horiz-adv-x="1871" d="M80 0 L821 0 L821 352 L662 352 L662 807 L1137 0 L1209 0 C1208 -100 1184 -180 1059 -180 C998 -180 947 -160 894 -99 L604 -314 C737 -496 914 -532 1109 -532 C1435 -532 1629 -375 1632 0 L1632 1082 L1791 1082 L1791 1434 L1050 1434 L1050 1082 L1209 1082 L1209 627 L734 1434 L80 1434 L80 1082 L239 1082 L239 352 L80 352 L80 0 Z " />
<glyph glyph-name="eng" unicode="&#x14b;" horiz-adv-x="1454" d="M971 0 C971 -97 971 -229 856 -229 C813 -229 775 -218 745 -206 L649 -475 C730 -513 825 -532 934 -532 C1266 -532 1374 -307 1374 0 L1374 579 C1374 877 1220 1076 905 1076 C795 1076 673 1031 622 939 L622 1046 L60 1046 L60 743 L219 743 L219 303 L60 303 L60 0 L781 0 L781 303 L622 303 L622 579 C622 704 672 773 796 773 C921 773 971 704 971 579 L971 0 Z " />
<glyph glyph-name="Omacron" unicode="&#x14c;" horiz-adv-x="1692" d="M846 1474 C309 1474 60 1136 60 717 C60 298 309 -40 846 -40 C1383 -40 1632 298 1632 717 C1632 1136 1383 1474 846 1474 L846 1474 Z M846 1122 C1105 1122 1205 920 1205 717 C1205 514 1105 312 846 312 C587 312 487 514 487 717 C487 920 587 1122 846 1122 L846 1122 Z M381 1536 L1311 1536 L1311 1839 L381 1839 L381 1536 Z " />
<glyph glyph-name="omacron" unicode="&#x14d;" horiz-adv-x="1380" d="M690 -30 C1086 -30 1340 172 1340 523 C1340 874 1086 1076 690 1076 C294 1076 40 874 40 523 C40 172 294 -30 690 -30 L690 -30 Z M690 273 C546 273 443 362 443 523 C443 684 546 773 690 773 C834 773 937 684 937 523 C937 362 834 273 690 273 L690 273 Z M226 1171 L1156 1171 L1156 1474 L226 1474 L226 1171 Z " />
<glyph glyph-name="Obreve" unicode="&#x14e;" horiz-adv-x="1692" d="M846 1474 C309 1474 60 1136 60 717 C60 298 309 -40 846 -40 C1383 -40 1632 298 1632 717 C1632 1136 1383 1474 846 1474 L846 1474 Z M846 1122 C1105 1122 1205 920 1205 717 C1205 514 1105 312 846 312 C587 312 487 514 487 717 C487 920 587 1122 846 1122 L846 1122 Z M846 1744 C772 1744 708 1763 684 1822 L432 1822 C454 1709 538 1536 846 1536 C1154 1536 1238 1709 1260 1822 L1008 1822 C984 1763 920 1744 846 1744 L846 1744 Z " />
<glyph glyph-name="obreve" unicode="&#x14f;" horiz-adv-x="1380" d="M690 -30 C1086 -30 1340 172 1340 523 C1340 874 1086 1076 690 1076 C294 1076 40 874 40 523 C40 172 294 -30 690 -30 L690 -30 Z M690 273 C546 273 443 362 443 523 C443 684 546 773 690 773 C834 773 937 684 937 523 C937 362 834 273 690 273 L690 273 Z M690 1356 C616 1356 552 1375 528 1434 L276 1434 C298 1321 382 1148 690 1148 C998 1148 1082 1321 1104 1434 L852 1434 C828 1375 764 1356 690 1356 L690 1356 Z " />
<glyph glyph-name="Ohungarumlaut" unicode="&#x150;" horiz-adv-x="1692" d="M846 1474 C309 1474 60 1136 60 717 C60 298 309 -40 846 -40 C1383 -40 1632 298 1632 717 C1632 1136 1383 1474 846 1474 L846 1474 Z M846 1122 C1105 1122 1205 920 1205 717 C1205 514 1105 312 846 312 C587 312 487 514 487 717 C487 920 587 1122 846 1122 L846 1122 Z M492 1536 L783 1536 L932 1878 L583 1878 L492 1536 Z M896 1536 L1187 1536 L1336 1878 L987 1878 L896 1536 Z " />
<glyph glyph-name="ohungarumlaut" unicode="&#x151;" horiz-adv-x="1380" d="M690 -30 C1086 -30 1340 172 1340 523 C1340 874 1086 1076 690 1076 C294 1076 40 874 40 523 C40 172 294 -30 690 -30 L690 -30 Z M690 273 C546 273 443 362 443 523 C443 684 546 773 690 773 C834 773 937 684 937 523 C937 362 834 273 690 273 L690 273 Z M347 1174 L638 1174 L787 1516 L438 1516 L347 1174 Z M751 1174 L1042 1174 L1191 1516 L842 1516 L751 1174 Z " />
<glyph glyph-name="OE" unicode="&#x152;" horiz-adv-x="2419" d="M1118 1434 C1032 1460 935 1474 826 1474 C289 1474 40 1136 40 717 C40 298 289 -40 826 -40 C935 -40 1033 -26 1119 0 L2359 0 L2359 489 L1936 489 L1936 352 L1541 352 L1541 554 L1906 554 L1906 897 L1541 897 L1541 1082 L1926 1082 L1926 945 L2349 945 L2349 1434 L1118 1434 Z M826 1122 C967 1122 1061 1062 1118 974 L1118 460 C1062 372 967 312 826 312 C567 312 467 514 467 717 C467 920 567 1122 826 1122 L826 1122 Z " />
<glyph glyph-name="oe" unicode="&#x153;" horiz-adv-x="2134" d="M1526 -30 C1742 -30 1908 14 2042 117 L1855 332 C1780 290 1688 263 1575 263 C1407 263 1340 330 1340 376 L2092 376 C2110 813 1914 1076 1526 1076 C1361 1076 1230 1029 1134 953 C1023 1033 871 1076 690 1076 C294 1076 40 874 40 523 C40 172 294 -30 690 -30 C869 -30 1019 11 1130 89 C1223 16 1354 -30 1526 -30 L1526 -30 Z M690 273 C546 273 443 362 443 523 C443 684 546 773 690 773 C834 773 937 684 937 523 C937 362 834 273 690 273 L690 273 Z M1340 630 C1340 700 1397 783 1526 783 C1655 783 1712 700 1712 630 L1340 630 Z " />
<glyph glyph-name="Racute" unicode="&#x154;" horiz-adv-x="1600" d="M561 1536 L951 1536 L1265 1846 L812 1846 L561 1536 Z M761 0 L761 352 L662 352 L662 513 L771 513 L1058 0 L1520 0 L1520 352 L1361 352 L1228 573 C1360 614 1520 724 1520 958 C1520 1320 1244 1434 872 1434 L80 1434 L80 1082 L239 1082 L239 352 L80 352 L80 0 L761 0 Z M872 1082 C1024 1082 1093 1061 1093 958 C1093 854 1024 834 872 834 L662 834 L662 1082 L872 1082 Z " />
<glyph glyph-name="racute" unicode="&#x155;" horiz-adv-x="1173" d="M409 1124 L799 1124 L1113 1434 L660 1434 L409 1124 Z M60 0 L781 0 L781 303 L622 303 L622 569 C622 694 672 773 796 773 C887 773 956 746 1011 716 L1183 1001 C1112 1049 1020 1076 905 1076 C795 1076 673 1031 622 939 L622 1046 L60 1046 L60 743 L219 743 L219 303 L60 303 L60 0 Z " />
<glyph glyph-name="Rcommaaccent" unicode="&#x156;" horiz-adv-x="1600" d="M466 -532 L827 -532 L1018 -108 L619 -108 L466 -532 Z M761 0 L761 352 L662 352 L662 513 L771 513 L1058 0 L1520 0 L1520 352 L1361 352 L1228 573 C1360 614 1520 724 1520 958 C1520 1320 1244 1434 872 1434 L80 1434 L80 1082 L239 1082 L239 352 L80 352 L80 0 L761 0 Z M872 1082 C1024 1082 1093 1061 1093 958 C1093 854 1024 834 872 834 L662 834 L662 1082 L872 1082 Z " />
<glyph glyph-name="rcommaaccent" unicode="&#x157;" horiz-adv-x="1173" d="M70 -532 L431 -532 L622 -108 L223 -108 L70 -532 Z M60 0 L781 0 L781 303 L622 303 L622 569 C622 694 672 773 796 773 C887 773 956 746 1011 716 L1183 1001 C1112 1049 1020 1076 905 1076 C795 1076 673 1031 622 939 L622 1046 L60 1046 L60 743 L219 743 L219 303 L60 303 L60 0 Z " />
<glyph glyph-name="Rcaron" unicode="&#x158;" horiz-adv-x="1600" d="M1244 1827 L926 1827 L780 1728 L634 1827 L316 1827 L627 1536 L933 1536 L1244 1827 Z M761 0 L761 352 L662 352 L662 513 L771 513 L1058 0 L1520 0 L1520 352 L1361 352 L1228 573 C1360 614 1520 724 1520 958 C1520 1320 1244 1434 872 1434 L80 1434 L80 1082 L239 1082 L239 352 L80 352 L80 0 L761 0 Z M872 1082 C1024 1082 1093 1061 1093 958 C1093 854 1024 834 872 834 L662 834 L662 1082 L872 1082 Z " />
<glyph glyph-name="rcaron" unicode="&#x159;" horiz-adv-x="1173" d="M1070 1434 L752 1434 L606 1335 L460 1434 L142 1434 L453 1143 L759 1143 L1070 1434 Z M60 0 L781 0 L781 303 L622 303 L622 569 C622 694 672 773 796 773 C887 773 956 746 1011 716 L1183 1001 C1112 1049 1020 1076 905 1076 C795 1076 673 1031 622 939 L622 1046 L60 1046 L60 743 L219 743 L219 303 L60 303 L60 0 Z " />
<glyph glyph-name="Sacute" unicode="&#x15a;" horiz-adv-x="1446" d="M499 1536 L889 1536 L1203 1846 L750 1846 L499 1536 Z M691 1474 C268 1474 100 1270 100 1020 C100 768 292 631 675 551 C819 522 919 497 919 422 C919 330 813 312 671 312 C590 312 523 326 523 326 L523 467 L100 467 L100 105 C100 105 294 -40 691 -40 C1068 -40 1346 79 1346 422 C1346 718 1122 818 757 894 C629 921 527 942 527 1020 C527 1096 598 1122 711 1122 C776 1122 828 1117 878 1110 L878 975 L1301 975 L1301 1374 C1301 1374 1040 1474 691 1474 L691 1474 Z " />
<glyph glyph-name="sacute" unicode="&#x15b;" horiz-adv-x="1185" d="M374 1124 L764 1124 L1078 1434 L625 1434 L374 1124 Z M1084 697 L1084 1006 C1084 1006 850 1076 564 1076 C243 1076 73 956 73 745 C73 546 243 445 558 397 C662 381 722 369 722 333 C722 301 698 273 544 273 C508 273 479 276 463 280 L463 359 L60 359 L60 99 C190 0 400 -30 554 -30 C863 -30 1125 42 1125 305 C1125 539 944 616 628 670 C558 681 476 693 476 729 C476 766 521 773 604 773 C628 773 654 772 681 769 L681 697 L1084 697 Z " />
<glyph glyph-name="Scircumflex" unicode="&#x15c;" horiz-adv-x="1446" d="M850 1827 L544 1827 L233 1536 L551 1536 L697 1635 L843 1536 L1161 1536 L850 1827 Z M691 1474 C268 1474 100 1270 100 1020 C100 768 292 631 675 551 C819 522 919 497 919 422 C919 330 813 312 671 312 C590 312 523 326 523 326 L523 467 L100 467 L100 105 C100 105 294 -40 691 -40 C1068 -40 1346 79 1346 422 C1346 718 1122 818 757 894 C629 921 527 942 527 1020 C527 1096 598 1122 711 1122 C776 1122 828 1117 878 1110 L878 975 L1301 975 L1301 1374 C1301 1374 1040 1474 691 1474 L691 1474 Z " />
<glyph glyph-name="scircumflex" unicode="&#x15d;" horiz-adv-x="1185" d="M734 1434 L428 1434 L117 1143 L435 1143 L581 1242 L727 1143 L1045 1143 L734 1434 Z M1084 697 L1084 1006 C1084 1006 850 1076 564 1076 C243 1076 73 956 73 745 C73 546 243 445 558 397 C662 381 722 369 722 333 C722 301 698 273 544 273 C508 273 479 276 463 280 L463 359 L60 359 L60 99 C190 0 400 -30 554 -30 C863 -30 1125 42 1125 305 C1125 539 944 616 628 670 C558 681 476 693 476 729 C476 766 521 773 604 773 C628 773 654 772 681 769 L681 697 L1084 697 Z " />
<glyph glyph-name="Scedilla" unicode="&#x15e;" horiz-adv-x="1446" d="M691 1474 C268 1474 100 1270 100 1020 C100 768 292 631 675 551 C819 522 919 497 919 422 C919 330 813 312 671 312 C590 312 523 326 523 326 L523 467 L100 467 L100 105 C100 105 250 -7 557 -34 L470 -306 C588 -290 792 -261 782 -352 C772 -454 524 -408 458 -386 L398 -565 C673 -666 1027 -627 1055 -359 C1072 -197 949 -126 784 -126 L811 -35 C1125 -11 1346 116 1346 422 C1346 718 1122 818 757 894 C629 921 527 942 527 1020 C527 1096 598 1122 711 1122 C776 1122 828 1117 878 1110 L878 975 L1301 975 L1301 1374 C1301 1374 1040 1474 691 1474 L691 1474 Z " />
<glyph glyph-name="scedilla" unicode="&#x15f;" horiz-adv-x="1185" d="M1084 697 L1084 1006 C1084 1006 850 1076 564 1076 C243 1076 73 956 73 745 C73 546 243 445 558 397 C662 381 722 369 722 333 C722 301 698 273 544 273 C508 273 479 276 463 280 L463 359 L60 359 L60 99 C156 26 295 -10 424 -23 L334 -306 C452 -290 656 -261 646 -352 C636 -454 388 -408 322 -386 L262 -565 C537 -666 891 -627 919 -359 C936 -197 813 -126 648 -126 L678 -25 C930 -6 1125 78 1125 305 C1125 539 944 616 628 670 C558 681 476 693 476 729 C476 766 521 773 604 773 C628 773 654 772 681 769 L681 697 L1084 697 Z " />
<glyph glyph-name="Scaron" unicode="&#x160;" horiz-adv-x="1446" d="M1169 1827 L851 1827 L705 1728 L559 1827 L241 1827 L552 1536 L858 1536 L1169 1827 Z M691 1474 C268 1474 100 1270 100 1020 C100 768 292 631 675 551 C819 522 919 497 919 422 C919 330 813 312 671 312 C590 312 523 326 523 326 L523 467 L100 467 L100 105 C100 105 294 -40 691 -40 C1068 -40 1346 79 1346 422 C1346 718 1122 818 757 894 C629 921 527 942 527 1020 C527 1096 598 1122 711 1122 C776 1122 828 1117 878 1110 L878 975 L1301 975 L1301 1374 C1301 1374 1040 1474 691 1474 L691 1474 Z " />
<glyph glyph-name="scaron" unicode="&#x161;" horiz-adv-x="1185" d="M1051 1434 L733 1434 L587 1335 L441 1434 L123 1434 L434 1143 L740 1143 L1051 1434 Z M1084 697 L1084 1006 C1084 1006 850 1076 564 1076 C243 1076 73 956 73 745 C73 546 243 445 558 397 C662 381 722 369 722 333 C722 301 698 273 544 273 C508 273 479 276 463 280 L463 359 L60 359 L60 99 C190 0 400 -30 554 -30 C863 -30 1125 42 1125 305 C1125 539 944 616 628 670 C558 681 476 693 476 729 C476 766 521 773 604 773 C628 773 654 772 681 769 L681 697 L1084 697 Z " />
<glyph glyph-name="Tcommaaccent" unicode="&#x162;" horiz-adv-x="1641" d="M470 -532 L831 -532 L1022 -108 L623 -108 L470 -532 Z M1561 1434 L80 1434 L80 945 L503 945 L503 1082 L609 1082 L609 352 L450 352 L450 0 L1191 0 L1191 352 L1032 352 L1032 1082 L1138 1082 L1138 945 L1561 945 L1561 1434 Z " />
<glyph glyph-name="tcommaaccent" unicode="&#x163;" horiz-adv-x="951" d="M20 743 L204 743 L204 460 C204 135 313 -30 669 -30 C775 -30 867 -6 931 22 L852 284 C810 269 773 263 737 263 C632 263 607 319 607 460 L607 743 L877 743 L877 1046 L607 1046 L607 1344 L204 1344 L204 1046 L20 1046 L20 743 Z M241 -532 L602 -532 L793 -108 L394 -108 L241 -532 Z " />
<glyph glyph-name="Tcaron" unicode="&#x164;" horiz-adv-x="1641" d="M1284 1827 L966 1827 L820 1728 L674 1827 L356 1827 L667 1536 L973 1536 L1284 1827 Z M1561 1434 L80 1434 L80 945 L503 945 L503 1082 L609 1082 L609 352 L450 352 L450 0 L1191 0 L1191 352 L1032 352 L1032 1082 L1138 1082 L1138 945 L1561 945 L1561 1434 Z " />
<glyph glyph-name="tcaron" unicode="&#x165;" horiz-adv-x="1409" d="M20 743 L204 743 L204 460 C204 135 313 -30 669 -30 C775 -30 867 -6 931 22 L852 284 C810 269 773 263 737 263 C632 263 607 319 607 460 L607 743 L877 743 L877 1046 L607 1046 L607 1344 L204 1344 L204 1046 L20 1046 L20 743 Z M877 1084 L1218 1084 L1317 1516 L938 1516 L877 1084 Z " />
<glyph glyph-name="Tbar" unicode="&#x166;" horiz-adv-x="1641" d="M1561 1434 L80 1434 L80 945 L503 945 L503 1082 L609 1082 L609 838 L330 838 L330 570 L609 570 L609 352 L450 352 L450 0 L1191 0 L1191 352 L1032 352 L1032 570 L1311 570 L1311 838 L1032 838 L1032 1082 L1138 1082 L1138 945 L1561 945 L1561 1434 Z " />
<glyph glyph-name="tbar" unicode="&#x167;" horiz-adv-x="951" d="M20 387 L206 387 C222 110 340 -30 669 -30 C775 -30 867 -6 931 22 L852 284 C810 269 773 263 737 263 C652 263 620 299 610 387 L877 387 L877 690 L607 690 L607 743 L877 743 L877 1046 L607 1046 L607 1344 L204 1344 L204 1046 L20 1046 L20 743 L204 743 L204 690 L20 690 L20 387 Z " />
<glyph glyph-name="Utilde" unicode="&#x168;" horiz-adv-x="1840" d="M892 1590 C926 1561 976 1536 1057 1536 C1371 1536 1392 1885 1392 1885 L1117 1885 C1117 1885 1109 1807 1042 1807 C995 1807 977 1830 949 1853 C915 1882 865 1907 784 1907 C470 1907 449 1558 449 1558 L724 1558 C724 1558 732 1636 799 1636 C846 1636 864 1613 892 1590 L892 1590 Z M920 -40 C1413 -40 1601 236 1601 661 L1601 1082 L1760 1082 L1760 1434 L1019 1434 L1019 1082 L1178 1082 L1178 661 C1178 444 1142 312 920 312 C698 312 662 444 662 661 L662 1082 L821 1082 L821 1434 L80 1434 L80 1082 L239 1082 L239 661 C239 236 427 -40 920 -40 L920 -40 Z " />
<glyph glyph-name="utilde" unicode="&#x169;" horiz-adv-x="1593" d="M770 1217 C804 1188 854 1163 935 1163 C1249 1163 1270 1512 1270 1512 L995 1512 C995 1512 987 1434 920 1434 C873 1434 855 1457 827 1480 C793 1509 743 1534 662 1534 C348 1534 327 1185 327 1185 L602 1185 C602 1185 610 1263 677 1263 C724 1263 742 1240 770 1217 L770 1217 Z M1374 303 L1374 1046 L812 1046 L812 743 L971 743 L971 467 C971 342 921 273 797 273 C672 273 622 342 622 467 L622 1046 L60 1046 L60 743 L219 743 L219 467 C219 169 373 -30 688 -30 C798 -30 920 15 971 107 L971 0 L1533 0 L1533 303 L1374 303 Z " />
<glyph glyph-name="Umacron" unicode="&#x16a;" horiz-adv-x="1840" d="M455 1536 L1385 1536 L1385 1839 L455 1839 L455 1536 Z M920 -40 C1413 -40 1601 236 1601 661 L1601 1082 L1760 1082 L1760 1434 L1019 1434 L1019 1082 L1178 1082 L1178 661 C1178 444 1142 312 920 312 C698 312 662 444 662 661 L662 1082 L821 1082 L821 1434 L80 1434 L80 1082 L239 1082 L239 661 C239 236 427 -40 920 -40 L920 -40 Z " />
<glyph glyph-name="umacron" unicode="&#x16b;" horiz-adv-x="1593" d="M333 1171 L1263 1171 L1263 1474 L333 1474 L333 1171 Z M1374 303 L1374 1046 L812 1046 L812 743 L971 743 L971 467 C971 342 921 273 797 273 C672 273 622 342 622 467 L622 1046 L60 1046 L60 743 L219 743 L219 467 C219 169 373 -30 688 -30 C798 -30 920 15 971 107 L971 0 L1533 0 L1533 303 L1374 303 Z " />
<glyph glyph-name="Ubreve" unicode="&#x16c;" horiz-adv-x="1840" d="M920 1743 C846 1743 782 1762 758 1821 L506 1821 C528 1708 612 1535 920 1535 C1228 1535 1312 1708 1334 1821 L1082 1821 C1058 1762 994 1743 920 1743 L920 1743 Z M920 -40 C1413 -40 1601 236 1601 661 L1601 1082 L1760 1082 L1760 1434 L1019 1434 L1019 1082 L1178 1082 L1178 661 C1178 444 1142 312 920 312 C698 312 662 444 662 661 L662 1082 L821 1082 L821 1434 L80 1434 L80 1082 L239 1082 L239 661 C239 236 427 -40 920 -40 L920 -40 Z " />
<glyph glyph-name="ubreve" unicode="&#x16d;" horiz-adv-x="1593" d="M798 1356 C724 1356 660 1375 636 1434 L384 1434 C406 1321 490 1148 798 1148 C1106 1148 1190 1321 1212 1434 L960 1434 C936 1375 872 1356 798 1356 L798 1356 Z M1374 303 L1374 1046 L812 1046 L812 743 L971 743 L971 467 C971 342 921 273 797 273 C672 273 622 342 622 467 L622 1046 L60 1046 L60 743 L219 743 L219 467 C219 169 373 -30 688 -30 C798 -30 920 15 971 107 L971 0 L1533 0 L1533 303 L1374 303 Z " />
<glyph glyph-name="Uring" unicode="&#x16e;" horiz-adv-x="1840" d="M657 1799 C657 1654 775 1536 920 1536 C1065 1536 1183 1654 1183 1799 C1183 1944 1065 2062 920 2062 C775 2062 657 1944 657 1799 L657 1799 Z M847 1799 C847 1839 880 1872 920 1872 C960 1872 993 1839 993 1799 C993 1759 960 1726 920 1726 C880 1726 847 1759 847 1799 L847 1799 Z M920 -40 C1413 -40 1601 236 1601 661 L1601 1082 L1760 1082 L1760 1434 L1019 1434 L1019 1082 L1178 1082 L1178 661 C1178 444 1142 312 920 312 C698 312 662 444 662 661 L662 1082 L821 1082 L821 1434 L80 1434 L80 1082 L239 1082 L239 661 C239 236 427 -40 920 -40 L920 -40 Z " />
<glyph glyph-name="uring" unicode="&#x16f;" horiz-adv-x="1593" d="M535 1387 C535 1242 653 1124 798 1124 C943 1124 1061 1242 1061 1387 C1061 1532 943 1650 798 1650 C653 1650 535 1532 535 1387 L535 1387 Z M725 1387 C725 1427 758 1460 798 1460 C838 1460 871 1427 871 1387 C871 1347 838 1314 798 1314 C758 1314 725 1347 725 1387 L725 1387 Z M1374 303 L1374 1046 L812 1046 L812 743 L971 743 L971 467 C971 342 921 273 797 273 C672 273 622 342 622 467 L622 1046 L60 1046 L60 743 L219 743 L219 467 C219 169 373 -30 688 -30 C798 -30 920 15 971 107 L971 0 L1533 0 L1533 303 L1374 303 Z " />
<glyph glyph-name="Uhungarumlaut" unicode="&#x170;" horiz-adv-x="1840" d="M574 1536 L865 1536 L1014 1878 L665 1878 L574 1536 Z M978 1536 L1269 1536 L1418 1878 L1069 1878 L978 1536 Z M920 -40 C1413 -40 1601 236 1601 661 L1601 1082 L1760 1082 L1760 1434 L1019 1434 L1019 1082 L1178 1082 L1178 661 C1178 444 1142 312 920 312 C698 312 662 444 662 661 L662 1082 L821 1082 L821 1434 L80 1434 L80 1082 L239 1082 L239 661 C239 236 427 -40 920 -40 L920 -40 Z " />
<glyph glyph-name="uhungarumlaut" unicode="&#x171;" horiz-adv-x="1593" d="M454 1174 L745 1174 L894 1516 L545 1516 L454 1174 Z M858 1174 L1149 1174 L1298 1516 L949 1516 L858 1174 Z M1374 303 L1374 1046 L812 1046 L812 743 L971 743 L971 467 C971 342 921 273 797 273 C672 273 622 342 622 467 L622 1046 L60 1046 L60 743 L219 743 L219 467 C219 169 373 -30 688 -30 C798 -30 920 15 971 107 L971 0 L1533 0 L1533 303 L1374 303 Z " />
<glyph glyph-name="Uogonek" unicode="&#x172;" horiz-adv-x="1840" d="M1601 661 L1601 1082 L1760 1082 L1760 1434 L1019 1434 L1019 1082 L1178 1082 L1178 661 C1178 444 1142 312 920 312 C698 312 662 444 662 661 L662 1082 L821 1082 L821 1434 L80 1434 L80 1082 L239 1082 L239 661 C239 242 421 -31 897 -39 C721 -202 785 -594 1258 -532 L1258 -261 C1010 -284 1041 -74 1205 0 C1487 90 1601 330 1601 661 L1601 661 Z " />
<glyph glyph-name="uogonek" unicode="&#x173;" horiz-adv-x="1645" d="M1374 303 L1374 1046 L812 1046 L812 743 L971 743 L971 467 C971 342 921 273 797 273 C672 273 622 342 622 467 L622 1046 L60 1046 L60 743 L219 743 L219 467 C219 169 373 -30 688 -30 C798 -30 920 15 971 107 L971 0 L1280 0 C1040 -124 1068 -600 1585 -532 L1585 -261 C1337 -284 1368 -73 1533 0 L1533 303 L1374 303 Z " />
<glyph glyph-name="Wcircumflex" unicode="&#x174;" horiz-adv-x="2180" d="M1243 1827 L937 1827 L626 1536 L944 1536 L1090 1635 L1236 1536 L1554 1536 L1243 1827 Z M2002 1082 L2160 1082 L2160 1434 L1449 1434 L1449 1082 L1575 1082 L1455 679 L1238 1434 L942 1434 L725 679 L604 1082 L731 1082 L731 1434 L20 1434 L20 1082 L177 1082 L555 0 L877 0 L1090 741 L1303 0 L1625 0 L2002 1082 Z " />
<glyph glyph-name="wcircumflex" unicode="&#x175;" horiz-adv-x="2028" d="M1167 1434 L861 1434 L550 1143 L868 1143 L1014 1242 L1160 1143 L1478 1143 L1167 1434 Z M1807 743 L1968 743 L1968 1046 L1327 1046 L1327 743 L1408 743 L1329 462 L1150 1046 L878 1046 L699 462 L620 743 L701 743 L701 1046 L60 1046 L60 743 L220 743 L482 0 L868 0 L1014 475 L1160 0 L1546 0 L1807 743 Z " />
<glyph glyph-name="Ycircumflex" unicode="&#x176;" horiz-adv-x="1606" d="M955 1827 L649 1827 L338 1536 L656 1536 L802 1635 L948 1536 L1266 1536 L955 1827 Z M1423 1082 L1586 1082 L1586 1434 L885 1434 L885 1082 L970 1082 L802 838 L634 1082 L721 1082 L721 1434 L20 1434 L20 1082 L182 1082 L591 489 L591 352 L432 352 L432 0 L1173 0 L1173 352 L1014 352 L1014 489 L1423 1082 Z " />
<glyph glyph-name="ycircumflex" unicode="&#x177;" horiz-adv-x="1450" d="M878 1434 L572 1434 L261 1143 L579 1143 L725 1242 L871 1143 L1189 1143 L878 1434 Z M618 743 L681 743 L681 1046 L60 1046 L60 743 L226 743 L537 0 L510 -71 C467 -185 437 -229 322 -229 L179 -229 L179 -532 L381 -532 C640 -532 731 -425 794 -282 L1224 743 L1390 743 L1390 1046 L769 1046 L769 743 L832 743 L725 443 L618 743 Z " />
<glyph glyph-name="Ydieresis" unicode="&#x178;" horiz-adv-x="1606" d="M361 1732 C361 1624 449 1536 557 1536 C665 1536 753 1624 753 1732 C753 1840 665 1928 557 1928 C449 1928 361 1840 361 1732 L361 1732 Z M852 1732 C852 1624 940 1536 1048 1536 C1156 1536 1244 1624 1244 1732 C1244 1840 1156 1928 1048 1928 C940 1928 852 1840 852 1732 L852 1732 Z M1423 1082 L1586 1082 L1586 1434 L885 1434 L885 1082 L970 1082 L802 838 L634 1082 L721 1082 L721 1434 L20 1434 L20 1082 L182 1082 L591 489 L591 352 L432 352 L432 0 L1173 0 L1173 352 L1014 352 L1014 489 L1423 1082 Z " />
<glyph glyph-name="Zacute" unicode="&#x179;" horiz-adv-x="1445" d="M504 1536 L894 1536 L1208 1846 L755 1846 L504 1536 Z M1365 1434 L100 1434 L100 945 L523 945 L523 1082 L743 1082 L80 190 L80 0 L1365 0 L1365 489 L942 489 L942 352 L701 352 L1365 1245 L1365 1434 Z " />
<glyph glyph-name="zacute" unicode="&#x17a;" horiz-adv-x="1165" d="M378 1124 L768 1124 L1082 1434 L629 1434 L378 1124 Z M439 667 L439 743 L562 743 L60 173 L60 0 L1105 0 L1105 379 L742 379 L742 303 L603 303 L1105 871 L1105 1046 L76 1046 L76 667 L439 667 Z " />
<glyph glyph-name="Zdotaccent" unicode="&#x17b;" horiz-adv-x="1445" d="M525 1732 C525 1624 613 1536 721 1536 C829 1536 917 1624 917 1732 C917 1840 829 1928 721 1928 C613 1928 525 1840 525 1732 L525 1732 Z M1365 1434 L100 1434 L100 945 L523 945 L523 1082 L743 1082 L80 190 L80 0 L1365 0 L1365 489 L942 489 L942 352 L701 352 L1365 1245 L1365 1434 Z " />
<glyph glyph-name="zdotaccent" unicode="&#x17c;" horiz-adv-x="1165" d="M383 1344 C383 1236 471 1148 579 1148 C687 1148 775 1236 775 1344 C775 1452 687 1540 579 1540 C471 1540 383 1452 383 1344 L383 1344 Z M439 667 L439 743 L562 743 L60 173 L60 0 L1105 0 L1105 379 L742 379 L742 303 L603 303 L1105 871 L1105 1046 L76 1046 L76 667 L439 667 Z " />
<glyph glyph-name="Zcaron" unicode="&#x17d;" horiz-adv-x="1445" d="M1185 1827 L867 1827 L721 1728 L575 1827 L257 1827 L568 1536 L874 1536 L1185 1827 Z M1365 1434 L100 1434 L100 945 L523 945 L523 1082 L743 1082 L80 190 L80 0 L1365 0 L1365 489 L942 489 L942 352 L701 352 L1365 1245 L1365 1434 Z " />
<glyph glyph-name="zcaron" unicode="&#x17e;" horiz-adv-x="1165" d="M1041 1434 L723 1434 L577 1335 L431 1434 L113 1434 L424 1143 L730 1143 L1041 1434 Z M439 667 L439 743 L562 743 L60 173 L60 0 L1105 0 L1105 379 L742 379 L742 303 L603 303 L1105 871 L1105 1046 L76 1046 L76 667 L439 667 Z " />
<glyph glyph-name="longs" unicode="&#x17f;" horiz-adv-x="985" d="M81 0 L802 0 L802 303 L643 303 L643 1046 C643 1193 663 1243 780 1243 C821 1243 869 1234 896 1227 L995 1501 C916 1528 818 1546 693 1546 C338 1546 240 1323 240 1046 L240 303 L81 303 L81 0 Z " />
<glyph glyph-name="florin" unicode="&#x192;" horiz-adv-x="1263" d="M813 694 L1081 694 L1145 1046 L877 1046 L884 1084 C893 1134 904 1179 983 1179 L1169 1179 L1233 1531 L929 1531 C549 1531 468 1299 435 1107 L424 1046 L156 1046 L92 694 L360 694 L219 -85 C210 -135 199 -180 120 -180 L-66 -180 L-130 -532 L174 -532 C554 -532 635 -300 668 -108 L813 694 Z " />
<glyph glyph-name="Ohorn" unicode="&#x1a0;" horiz-adv-x="1785" d="M846 1474 C309 1474 60 1136 60 717 C60 298 309 -40 846 -40 C1383 -40 1632 298 1632 717 C1632 888 1590 1046 1504 1173 C1644 1243 1725 1379 1725 1624 L1332 1624 C1332 1515 1302 1432 1218 1405 C1115 1449 991 1474 846 1474 L846 1474 Z M846 1122 C1105 1122 1205 920 1205 717 C1205 514 1105 312 846 312 C587 312 487 514 487 717 C487 920 587 1122 846 1122 L846 1122 Z " />
<glyph glyph-name="ohorn" unicode="&#x1a1;" horiz-adv-x="1442" d="M690 -30 C1086 -30 1340 172 1340 523 C1340 632 1315 727 1269 806 C1370 876 1452 1002 1452 1225 L1088 1225 C1088 1117 1057 1052 967 1036 C886 1062 793 1076 690 1076 C294 1076 40 874 40 523 C40 172 294 -30 690 -30 L690 -30 Z M690 273 C546 273 443 362 443 523 C443 684 546 773 690 773 C834 773 937 684 937 523 C937 362 834 273 690 273 L690 273 Z " />
<glyph glyph-name="Uhorn" unicode="&#x1af;" horiz-adv-x="2163" d="M920 -40 C1413 -40 1601 236 1601 661 L1601 1082 C1912 1082 2083 1288 2083 1596 L1685 1596 C1685 1481 1637 1434 1538 1434 L1019 1434 L1019 1082 L1178 1082 L1178 661 C1178 444 1142 312 920 312 C698 312 662 444 662 661 L662 1082 L821 1082 L821 1434 L80 1434 L80 1082 L239 1082 L239 661 C239 236 427 -40 920 -40 L920 -40 Z " />
<glyph glyph-name="uhorn" unicode="&#x1b0;" horiz-adv-x="1867" d="M1374 303 L1374 743 C1566 750 1807 819 1807 1179 L1472 1179 C1472 1078 1427 1048 1346 1046 L812 1046 L812 743 L971 743 L971 467 C971 342 921 273 797 273 C672 273 622 342 622 467 L622 1046 L60 1046 L60 743 L219 743 L219 467 C219 169 373 -30 688 -30 C798 -30 920 15 971 107 L971 0 L1533 0 L1533 303 L1374 303 Z " />
<glyph glyph-name="uni01CD" unicode="&#x1cd;" horiz-adv-x="1696" d="M1312 1827 L994 1827 L848 1728 L702 1827 L384 1827 L695 1536 L1001 1536 L1312 1827 Z M1086 352 L935 352 L935 0 L1676 0 L1676 352 L1525 352 L1062 1434 L331 1434 L331 1082 L490 1082 L171 352 L20 352 L20 0 L761 0 L761 352 L609 352 L644 434 L1051 434 L1086 352 Z M848 915 L932 716 L763 716 L848 915 Z " />
<glyph glyph-name="uni01CE" unicode="&#x1ce;" horiz-adv-x="1367" d="M1102 1434 L784 1434 L638 1335 L492 1434 L174 1434 L485 1143 L791 1143 L1102 1434 Z M745 0 L1307 0 L1307 303 L1148 303 L1148 623 C1148 969 977 1076 598 1076 C394 1076 224 1038 116 983 L245 737 C338 772 440 793 560 793 C726 793 745 757 745 677 C415 703 40 630 40 323 C40 107 190 -24 426 -24 C558 -24 680 9 745 121 L745 0 Z M443 344 C443 458 622 465 745 455 L745 400 C745 350 699 259 558 259 C492 259 443 280 443 344 L443 344 Z " />
<glyph glyph-name="uni01CF" unicode="&#x1cf;" horiz-adv-x="1008" d="M968 1827 L650 1827 L504 1728 L358 1827 L40 1827 L351 1536 L657 1536 L968 1827 Z M716 1082 L875 1082 L875 1434 L134 1434 L134 1082 L293 1082 L293 352 L134 352 L134 0 L875 0 L875 352 L716 352 L716 1082 Z " />
<glyph glyph-name="uni01D0" unicode="&#x1d0;" horiz-adv-x="968" d="M948 1434 L630 1434 L484 1335 L338 1434 L20 1434 L331 1143 L637 1143 L948 1434 Z M686 1046 L124 1046 L124 743 L283 743 L283 303 L124 303 L124 0 L845 0 L845 303 L686 303 L686 1046 Z " />
<glyph glyph-name="uni01D1" unicode="&#x1d1;" horiz-adv-x="1692" d="M846 1474 C309 1474 60 1136 60 717 C60 298 309 -40 846 -40 C1383 -40 1632 298 1632 717 C1632 1136 1383 1474 846 1474 L846 1474 Z M846 1122 C1105 1122 1205 920 1205 717 C1205 514 1105 312 846 312 C587 312 487 514 487 717 C487 920 587 1122 846 1122 L846 1122 Z M1309 1827 L991 1827 L845 1728 L699 1827 L381 1827 L692 1536 L998 1536 L1309 1827 Z " />
<glyph glyph-name="uni01D2" unicode="&#x1d2;" horiz-adv-x="1380" d="M690 -30 C1086 -30 1340 172 1340 523 C1340 874 1086 1076 690 1076 C294 1076 40 874 40 523 C40 172 294 -30 690 -30 L690 -30 Z M690 273 C546 273 443 362 443 523 C443 684 546 773 690 773 C834 773 937 684 937 523 C937 362 834 273 690 273 L690 273 Z M1154 1434 L836 1434 L690 1335 L544 1434 L226 1434 L537 1143 L843 1143 L1154 1434 Z " />
<glyph glyph-name="uni01D3" unicode="&#x1d3;" horiz-adv-x="1840" d="M1383 1827 L1065 1827 L919 1728 L773 1827 L455 1827 L766 1536 L1072 1536 L1383 1827 Z M920 -40 C1413 -40 1601 236 1601 661 L1601 1082 L1760 1082 L1760 1434 L1019 1434 L1019 1082 L1178 1082 L1178 661 C1178 444 1142 312 920 312 C698 312 662 444 662 661 L662 1082 L821 1082 L821 1434 L80 1434 L80 1082 L239 1082 L239 661 C239 236 427 -40 920 -40 L920 -40 Z " />
<glyph glyph-name="uni01D4" unicode="&#x1d4;" horiz-adv-x="1593" d="M1261 1434 L943 1434 L797 1335 L651 1434 L333 1434 L644 1143 L950 1143 L1261 1434 Z M1374 303 L1374 1046 L812 1046 L812 743 L971 743 L971 467 C971 342 921 273 797 273 C672 273 622 342 622 467 L622 1046 L60 1046 L60 743 L219 743 L219 467 C219 169 373 -30 688 -30 C798 -30 920 15 971 107 L971 0 L1533 0 L1533 303 L1374 303 Z " />
<glyph glyph-name="uni01D5" unicode="&#x1d5;" horiz-adv-x="1840" d="M479 1731 C479 1623 567 1535 675 1535 C783 1535 871 1623 871 1731 C871 1839 783 1927 675 1927 C567 1927 479 1839 479 1731 L479 1731 Z M970 1731 C970 1623 1058 1535 1166 1535 C1274 1535 1362 1623 1362 1731 C1362 1839 1274 1927 1166 1927 C1058 1927 970 1839 970 1731 L970 1731 Z M455 1947 L1385 1947 L1385 2250 L455 2250 L455 1947 Z M920 -40 C1413 -40 1601 236 1601 661 L1601 1082 L1760 1082 L1760 1434 L1019 1434 L1019 1082 L1178 1082 L1178 661 C1178 444 1142 312 920 312 C698 312 662 444 662 661 L662 1082 L821 1082 L821 1434 L80 1434 L80 1082 L239 1082 L239 661 C239 236 427 -40 920 -40 L920 -40 Z " />
<glyph glyph-name="uni01D6" unicode="&#x1d6;" horiz-adv-x="1593" d="M356 1344 C356 1236 444 1148 552 1148 C660 1148 748 1236 748 1344 C748 1452 660 1540 552 1540 C444 1540 356 1452 356 1344 L356 1344 Z M847 1344 C847 1236 935 1148 1043 1148 C1151 1148 1239 1236 1239 1344 C1239 1452 1151 1540 1043 1540 C935 1540 847 1452 847 1344 L847 1344 Z M332 1560 L1262 1560 L1262 1863 L332 1863 L332 1560 Z M1374 303 L1374 1046 L812 1046 L812 743 L971 743 L971 467 C971 342 921 273 797 273 C672 273 622 342 622 467 L622 1046 L60 1046 L60 743 L219 743 L219 467 C219 169 373 -30 688 -30 C798 -30 920 15 971 107 L971 0 L1533 0 L1533 303 L1374 303 Z " />
<glyph glyph-name="uni01D7" unicode="&#x1d7;" horiz-adv-x="1840" d="M479 1732 C479 1624 567 1536 675 1536 C783 1536 871 1624 871 1732 C871 1840 783 1928 675 1928 C567 1928 479 1840 479 1732 L479 1732 Z M970 1732 C970 1624 1058 1536 1166 1536 C1274 1536 1362 1624 1362 1732 C1362 1840 1274 1928 1166 1928 C1058 1928 970 1840 970 1732 L970 1732 Z M725 1968 L1115 1968 L1429 2278 L976 2278 L725 1968 Z M920 -40 C1413 -40 1601 236 1601 661 L1601 1082 L1760 1082 L1760 1434 L1019 1434 L1019 1082 L1178 1082 L1178 661 C1178 444 1142 312 920 312 C698 312 662 444 662 661 L662 1082 L821 1082 L821 1434 L80 1434 L80 1082 L239 1082 L239 661 C239 236 427 -40 920 -40 L920 -40 Z " />
<glyph glyph-name="uni01D8" unicode="&#x1d8;" horiz-adv-x="1593" d="M357 1344 C357 1236 445 1148 553 1148 C661 1148 749 1236 749 1344 C749 1452 661 1540 553 1540 C445 1540 357 1452 357 1344 L357 1344 Z M848 1344 C848 1236 936 1148 1044 1148 C1152 1148 1240 1236 1240 1344 C1240 1452 1152 1540 1044 1540 C936 1540 848 1452 848 1344 L848 1344 Z M603 1580 L993 1580 L1307 1890 L854 1890 L603 1580 Z M1374 303 L1374 1046 L812 1046 L812 743 L971 743 L971 467 C971 342 921 273 797 273 C672 273 622 342 622 467 L622 1046 L60 1046 L60 743 L219 743 L219 467 C219 169 373 -30 688 -30 C798 -30 920 15 971 107 L971 0 L1533 0 L1533 303 L1374 303 Z " />
<glyph glyph-name="uni01D9" unicode="&#x1d9;" horiz-adv-x="1840" d="M479 1732 C479 1624 567 1536 675 1536 C783 1536 871 1624 871 1732 C871 1840 783 1928 675 1928 C567 1928 479 1840 479 1732 L479 1732 Z M970 1732 C970 1624 1058 1536 1166 1536 C1274 1536 1362 1624 1362 1732 C1362 1840 1274 1928 1166 1928 C1058 1928 970 1840 970 1732 L970 1732 Z M920 -40 C1413 -40 1601 236 1601 661 L1601 1082 L1760 1082 L1760 1434 L1019 1434 L1019 1082 L1178 1082 L1178 661 C1178 444 1142 312 920 312 C698 312 662 444 662 661 L662 1082 L821 1082 L821 1434 L80 1434 L80 1082 L239 1082 L239 661 C239 236 427 -40 920 -40 L920 -40 Z " />
<glyph glyph-name="uni01DA" unicode="&#x1da;" horiz-adv-x="1593" d="M357 1344 C357 1236 445 1148 553 1148 C661 1148 749 1236 749 1344 C749 1452 661 1540 553 1540 C445 1540 357 1452 357 1344 L357 1344 Z M848 1344 C848 1236 936 1148 1044 1148 C1152 1148 1240 1236 1240 1344 C1240 1452 1152 1540 1044 1540 C936 1540 848 1452 848 1344 L848 1344 Z M1374 303 L1374 1046 L812 1046 L812 743 L971 743 L971 467 C971 342 921 273 797 273 C672 273 622 342 622 467 L622 1046 L60 1046 L60 743 L219 743 L219 467 C219 169 373 -30 688 -30 C798 -30 920 15 971 107 L971 0 L1533 0 L1533 303 L1374 303 Z " />
<glyph glyph-name="uni01DB" unicode="&#x1db;" horiz-adv-x="1840" d="M479 1732 C479 1624 567 1536 675 1536 C783 1536 871 1624 871 1732 C871 1840 783 1928 675 1928 C567 1928 479 1840 479 1732 L479 1732 Z M970 1732 C970 1624 1058 1536 1166 1536 C1274 1536 1362 1624 1362 1732 C1362 1840 1274 1928 1166 1928 C1058 1928 970 1840 970 1732 L970 1732 Z M887 2278 L434 2278 L748 1968 L1138 1968 L887 2278 Z M920 -40 C1413 -40 1601 236 1601 661 L1601 1082 L1760 1082 L1760 1434 L1019 1434 L1019 1082 L1178 1082 L1178 661 C1178 444 1142 312 920 312 C698 312 662 444 662 661 L662 1082 L821 1082 L821 1434 L80 1434 L80 1082 L239 1082 L239 661 C239 236 427 -40 920 -40 L920 -40 Z " />
<glyph glyph-name="uni01DC" unicode="&#x1dc;" horiz-adv-x="1593" d="M357 1344 C357 1236 445 1148 553 1148 C661 1148 749 1236 749 1344 C749 1452 661 1540 553 1540 C445 1540 357 1452 357 1344 L357 1344 Z M848 1344 C848 1236 936 1148 1044 1148 C1152 1148 1240 1236 1240 1344 C1240 1452 1152 1540 1044 1540 C936 1540 848 1452 848 1344 L848 1344 Z M765 1890 L312 1890 L626 1580 L1016 1580 L765 1890 Z M1374 303 L1374 1046 L812 1046 L812 743 L971 743 L971 467 C971 342 921 273 797 273 C672 273 622 342 622 467 L622 1046 L60 1046 L60 743 L219 743 L219 467 C219 169 373 -30 688 -30 C798 -30 920 15 971 107 L971 0 L1533 0 L1533 303 L1374 303 Z " />
<glyph glyph-name="uni01DE" unicode="&#x1de;" horiz-adv-x="1696" d="M407 1732 C407 1624 495 1536 603 1536 C711 1536 799 1624 799 1732 C799 1840 711 1928 603 1928 C495 1928 407 1840 407 1732 L407 1732 Z M898 1732 C898 1624 986 1536 1094 1536 C1202 1536 1290 1624 1290 1732 C1290 1840 1202 1928 1094 1928 C986 1928 898 1840 898 1732 L898 1732 Z M383 1968 L1313 1968 L1313 2271 L383 2271 L383 1968 Z M1086 352 L935 352 L935 0 L1676 0 L1676 352 L1525 352 L1062 1434 L331 1434 L331 1082 L490 1082 L171 352 L20 352 L20 0 L761 0 L761 352 L609 352 L644 434 L1051 434 L1086 352 Z M848 915 L932 716 L763 716 L848 915 Z " />
<glyph glyph-name="uni01DF" unicode="&#x1df;" horiz-adv-x="1367" d="M199 1344 C199 1236 287 1148 395 1148 C503 1148 591 1236 591 1344 C591 1452 503 1540 395 1540 C287 1540 199 1452 199 1344 L199 1344 Z M690 1344 C690 1236 778 1148 886 1148 C994 1148 1082 1236 1082 1344 C1082 1452 994 1540 886 1540 C778 1540 690 1452 690 1344 L690 1344 Z M175 1580 L1105 1580 L1105 1883 L175 1883 L175 1580 Z M745 0 L1307 0 L1307 303 L1148 303 L1148 623 C1148 969 977 1076 598 1076 C394 1076 224 1038 116 983 L245 737 C338 772 440 793 560 793 C726 793 745 757 745 677 C415 703 40 630 40 323 C40 107 190 -24 426 -24 C558 -24 680 9 745 121 L745 0 Z M443 344 C443 458 622 465 745 455 L745 400 C745 350 699 259 558 259 C492 259 443 280 443 344 L443 344 Z " />
<glyph glyph-name="uni01E0" unicode="&#x1e0;" horiz-adv-x="1696" d="M652 1732 C652 1624 740 1536 848 1536 C956 1536 1044 1624 1044 1732 C1044 1840 956 1928 848 1928 C740 1928 652 1840 652 1732 L652 1732 Z M383 1968 L1313 1968 L1313 2271 L383 2271 L383 1968 Z M1086 352 L935 352 L935 0 L1676 0 L1676 352 L1525 352 L1062 1434 L331 1434 L331 1082 L490 1082 L171 352 L20 352 L20 0 L761 0 L761 352 L609 352 L644 434 L1051 434 L1086 352 Z M848 915 L932 716 L763 716 L848 915 Z " />
<glyph glyph-name="uni01E1" unicode="&#x1e1;" horiz-adv-x="1367" d="M444 1344 C444 1236 532 1148 640 1148 C748 1148 836 1236 836 1344 C836 1452 748 1540 640 1540 C532 1540 444 1452 444 1344 L444 1344 Z M175 1580 L1105 1580 L1105 1883 L175 1883 L175 1580 Z M745 0 L1307 0 L1307 303 L1148 303 L1148 623 C1148 969 977 1076 598 1076 C394 1076 224 1038 116 983 L245 737 C338 772 440 793 560 793 C726 793 745 757 745 677 C415 703 40 630 40 323 C40 107 190 -24 426 -24 C558 -24 680 9 745 121 L745 0 Z M443 344 C443 458 622 465 745 455 L745 400 C745 350 699 259 558 259 C492 259 443 280 443 344 L443 344 Z " />
<glyph glyph-name="uni01E2" unicode="&#x1e2;" horiz-adv-x="2444" d="M947 1536 L1877 1536 L1877 1839 L947 1839 L947 1536 Z M2364 0 L2364 489 L1941 489 L1941 352 L1546 352 L1546 554 L1911 554 L1911 897 L1546 897 L1546 1082 L1931 1082 L1931 945 L2354 945 L2354 1434 L558 1434 L558 1082 L716 1082 L225 352 L80 352 L80 0 L821 0 L821 352 L715 352 L767 432 L1123 432 L1123 0 L2364 0 Z M1123 972 L1123 724 L959 724 L1123 972 Z " />
<glyph glyph-name="uni01E3" unicode="&#x1e3;" horiz-adv-x="1942" d="M1334 -30 C1550 -30 1716 14 1850 117 L1663 332 C1588 290 1496 263 1383 263 C1215 263 1148 330 1148 376 L1900 376 C1918 813 1722 1076 1334 1076 C1199 1076 1087 1044 998 991 C908 1052 776 1076 598 1076 C394 1076 224 1038 116 983 L245 737 C338 772 440 793 560 793 C726 793 745 757 745 677 C415 703 40 630 40 323 C40 107 190 -24 466 -24 C589 -24 766 -19 943 85 C1036 14 1165 -30 1334 -30 L1334 -30 Z M443 344 C443 458 622 465 745 455 L745 400 C745 350 699 259 558 259 C492 259 443 280 443 344 L443 344 Z M1148 630 C1148 700 1205 783 1334 783 C1463 783 1520 700 1520 630 L1148 630 Z M541 1171 L1471 1171 L1471 1474 L541 1474 L541 1171 Z " />
<glyph glyph-name="uni01E4" unicode="&#x1e4;" horiz-adv-x="1659" d="M1029 945 L1452 945 L1452 1354 C1452 1354 1200 1474 846 1474 C309 1474 60 1136 60 717 C60 298 309 -40 846 -40 C1068 -40 1260 -10 1452 129 L1452 386 L1619 386 L1619 477 L1452 477 L1452 851 L826 851 L826 538 L1029 538 L1029 477 L826 477 L826 386 L1029 386 L1029 345 C1029 345 960 312 846 312 C587 312 487 514 487 717 C487 920 587 1122 846 1122 C912 1122 972 1117 1029 1107 L1029 945 Z " />
<glyph glyph-name="uni01E5" unicode="&#x1e5;" horiz-adv-x="1549" d="M1330 743 L1489 743 L1489 1046 L927 1046 L927 921 C845 1036 714 1076 593 1076 C248 1076 40 863 40 523 C40 183 248 -30 593 -30 C714 -30 845 10 927 125 L927 0 C927 -16 926 -31 923 -45 L722 -45 L722 -221 C693 -226 661 -229 628 -229 C489 -229 354 -196 260 -147 L113 -400 C238 -482 434 -528 668 -532 C895 -536 1094 -486 1214 -348 L1440 -348 L1440 -45 L1328 -45 L1330 0 L1330 743 Z M685 273 C537 273 443 375 443 523 C443 671 537 773 685 773 C833 773 927 671 927 523 C927 375 833 273 685 273 L685 273 Z " />
<glyph glyph-name="Gcaron" unicode="&#x1e6;" horiz-adv-x="1532" d="M1308 1827 L990 1827 L844 1728 L698 1827 L380 1827 L691 1536 L997 1536 L1308 1827 Z M1029 945 L1452 945 L1452 1354 C1452 1354 1200 1474 846 1474 C309 1474 60 1136 60 717 C60 298 309 -40 846 -40 C1068 -40 1260 -10 1452 129 L1452 851 L826 851 L826 538 L1029 538 L1029 345 C1029 345 960 312 846 312 C587 312 487 514 487 717 C487 920 587 1122 846 1122 C912 1122 972 1117 1029 1107 L1029 945 Z " />
<glyph glyph-name="gcaron" unicode="&#x1e7;" horiz-adv-x="1549" d="M1149 1434 L831 1434 L685 1335 L539 1434 L221 1434 L532 1143 L838 1143 L1149 1434 Z M1330 743 L1489 743 L1489 1046 L927 1046 L927 921 C845 1036 714 1076 593 1076 C248 1076 40 863 40 523 C40 183 248 -30 593 -30 C714 -30 845 10 927 125 L927 0 C927 -164 801 -229 628 -229 C489 -229 354 -196 260 -147 L113 -400 C238 -482 434 -528 668 -532 C1030 -538 1323 -408 1330 0 L1330 743 Z M685 273 C537 273 443 375 443 523 C443 671 537 773 685 773 C833 773 927 671 927 523 C927 375 833 273 685 273 L685 273 Z " />
<glyph glyph-name="uni01E8" unicode="&#x1e8;" horiz-adv-x="1675" d="M1286 1827 L968 1827 L822 1728 L676 1827 L358 1827 L669 1536 L975 1536 L1286 1827 Z M1449 1082 L1595 1082 L1595 1434 L900 1434 L900 1082 L964 1082 L662 866 L662 1082 L781 1082 L781 1434 L80 1434 L80 1082 L239 1082 L239 352 L80 352 L80 0 L781 0 L781 352 L662 352 L662 484 L766 563 L1128 0 L1595 0 L1595 352 L1420 352 L1101 818 L1449 1082 Z " />
<glyph glyph-name="uni01E9" unicode="&#x1e9;" horiz-adv-x="1449" d="M1229 1827 L911 1827 L765 1728 L619 1827 L301 1827 L612 1536 L918 1536 L1229 1827 Z M1389 743 L1389 1046 L727 1046 L727 743 L800 743 L622 627 L622 1516 L60 1516 L60 1213 L219 1213 L219 303 L60 303 L60 0 L721 0 L721 303 L622 303 L622 340 L717 401 L962 0 L1389 0 L1389 303 L1250 303 L1048 614 L1248 743 L1389 743 Z " />
<glyph glyph-name="uni01EA" unicode="&#x1ea;" horiz-adv-x="1692" d="M1138 0 C1474 101 1632 383 1632 717 C1632 1136 1383 1474 846 1474 C309 1474 60 1136 60 717 C60 302 304 -33 830 -40 C655 -203 719 -594 1191 -532 L1191 -261 C943 -284 974 -73 1139 0 L1138 0 Z M846 1122 C1105 1122 1205 920 1205 717 C1205 514 1105 312 846 312 C587 312 487 514 487 717 C487 920 587 1122 846 1122 L846 1122 Z " />
<glyph glyph-name="uni01EB" unicode="&#x1eb;" horiz-adv-x="1380" d="M40 523 C40 187 271 -11 637 -28 C446 -184 502 -595 986 -532 L986 -261 C738 -284 769 -74 933 0 C1187 67 1340 250 1340 523 C1340 874 1086 1076 690 1076 C294 1076 40 874 40 523 L40 523 Z M690 273 C546 273 443 362 443 523 C443 684 546 773 690 773 C834 773 937 684 937 523 C937 362 834 273 690 273 L690 273 Z " />
<glyph glyph-name="uni01EC" unicode="&#x1ec;" horiz-adv-x="1692" d="M1138 0 C1474 101 1632 383 1632 717 C1632 1136 1383 1474 846 1474 C309 1474 60 1136 60 717 C60 302 304 -33 830 -40 C655 -203 719 -594 1191 -532 L1191 -261 C943 -284 974 -73 1139 0 L1138 0 Z M846 1122 C1105 1122 1205 920 1205 717 C1205 514 1105 312 846 312 C587 312 487 514 487 717 C487 920 587 1122 846 1122 L846 1122 Z M381 1516 L1311 1516 L1311 1819 L381 1819 L381 1516 Z " />
<glyph glyph-name="uni01ED" unicode="&#x1ed;" horiz-adv-x="1380" d="M40 523 C40 187 271 -11 637 -28 C446 -184 502 -595 986 -532 L986 -261 C738 -284 769 -74 933 0 C1187 67 1340 250 1340 523 C1340 874 1086 1076 690 1076 C294 1076 40 874 40 523 L40 523 Z M225 1131 L1155 1131 L1155 1434 L225 1434 L225 1131 Z M690 273 C546 273 443 362 443 523 C443 684 546 773 690 773 C834 773 937 684 937 523 C937 362 834 273 690 273 L690 273 Z " />
<glyph glyph-name="uni01F0" unicode="&#x1f0;" horiz-adv-x="787" d="M827 1434 L509 1434 L363 1335 L217 1434 L-101 1434 L210 1143 L516 1143 L827 1434 Z M565 0 L565 1046 L3 1046 L3 743 L162 743 L162 0 C162 -97 162 -229 47 -229 C4 -229 -34 -218 -64 -206 L-160 -475 C-79 -513 16 -532 125 -532 C457 -532 565 -307 565 0 L565 0 Z " />
<glyph glyph-name="uni01F4" unicode="&#x1f4;" horiz-adv-x="1532" d="M653 1536 L1043 1536 L1357 1846 L904 1846 L653 1536 Z M1029 945 L1452 945 L1452 1354 C1452 1354 1200 1474 846 1474 C309 1474 60 1136 60 717 C60 298 309 -40 846 -40 C1068 -40 1260 -10 1452 129 L1452 851 L826 851 L826 538 L1029 538 L1029 345 C1029 345 960 312 846 312 C587 312 487 514 487 717 C487 920 587 1122 846 1122 C912 1122 972 1117 1029 1107 L1029 945 Z " />
<glyph glyph-name="uni01F5" unicode="&#x1f5;" horiz-adv-x="1549" d="M483 1124 L873 1124 L1187 1434 L734 1434 L483 1124 Z M1330 743 L1489 743 L1489 1046 L927 1046 L927 921 C845 1036 714 1076 593 1076 C248 1076 40 863 40 523 C40 183 248 -30 593 -30 C714 -30 845 10 927 125 L927 0 C927 -164 801 -229 628 -229 C489 -229 354 -196 260 -147 L113 -400 C238 -482 434 -528 668 -532 C1030 -538 1323 -408 1330 0 L1330 743 Z M685 273 C537 273 443 375 443 523 C443 671 537 773 685 773 C833 773 927 671 927 523 C927 375 833 273 685 273 L685 273 Z " />
<glyph glyph-name="uni01F8" unicode="&#x1f8;" horiz-adv-x="1871" d="M902 1846 L449 1846 L763 1536 L1153 1536 L902 1846 Z M80 0 L821 0 L821 352 L662 352 L662 807 L1137 0 L1632 0 L1632 1082 L1791 1082 L1791 1434 L1050 1434 L1050 1082 L1209 1082 L1209 627 L734 1434 L80 1434 L80 1082 L239 1082 L239 352 L80 352 L80 0 Z " />
<glyph glyph-name="uni01F9" unicode="&#x1f9;" horiz-adv-x="1593" d="M762 1434 L309 1434 L623 1124 L1013 1124 L762 1434 Z M971 0 L1533 0 L1533 303 L1374 303 L1374 579 C1374 877 1220 1076 905 1076 C795 1076 673 1031 622 939 L622 1046 L60 1046 L60 743 L219 743 L219 303 L60 303 L60 0 L781 0 L781 303 L622 303 L622 579 C622 704 672 773 796 773 C921 773 971 704 971 579 L971 0 Z " />
<glyph glyph-name="Aringacute" unicode="&#x1fa;" horiz-adv-x="1696" d="M585 1799 C585 1654 703 1536 848 1536 C993 1536 1111 1654 1111 1799 C1111 1879 1074 1951 1017 1999 L1251 2230 L858 2230 L649 1971 C609 1925 585 1865 585 1799 L585 1799 Z M775 1799 C775 1839 808 1872 848 1872 C888 1872 921 1839 921 1799 C921 1759 888 1726 848 1726 C808 1726 775 1759 775 1799 L775 1799 Z M1086 352 L935 352 L935 0 L1676 0 L1676 352 L1525 352 L1062 1434 L331 1434 L331 1082 L490 1082 L171 352 L20 352 L20 0 L761 0 L761 352 L609 352 L644 434 L1051 434 L1086 352 Z M848 915 L932 716 L763 716 L848 915 Z " />
<glyph glyph-name="aringacute" unicode="&#x1fb;" horiz-adv-x="1367" d="M399 1387 C399 1242 517 1124 662 1124 C807 1124 925 1242 925 1387 C925 1467 888 1539 831 1587 L1065 1818 L672 1818 L463 1559 C423 1513 399 1453 399 1387 L399 1387 Z M589 1387 C589 1427 622 1460 662 1460 C702 1460 735 1427 735 1387 C735 1347 702 1314 662 1314 C622 1314 589 1347 589 1387 L589 1387 Z M745 0 L1307 0 L1307 303 L1148 303 L1148 623 C1148 969 977 1076 598 1076 C394 1076 224 1038 116 983 L245 737 C338 772 440 793 560 793 C726 793 745 757 745 677 C415 703 40 630 40 323 C40 107 190 -24 426 -24 C558 -24 680 9 745 121 L745 0 Z M443 344 C443 458 622 465 745 455 L745 400 C745 350 699 259 558 259 C492 259 443 280 443 344 L443 344 Z " />
<glyph glyph-name="AEacute" unicode="&#x1fc;" horiz-adv-x="2444" d="M1010 1536 L1400 1536 L1714 1846 L1261 1846 L1010 1536 Z M2364 0 L2364 489 L1941 489 L1941 352 L1546 352 L1546 554 L1911 554 L1911 897 L1546 897 L1546 1082 L1931 1082 L1931 945 L2354 945 L2354 1434 L558 1434 L558 1082 L716 1082 L225 352 L80 352 L80 0 L821 0 L821 352 L715 352 L767 432 L1123 432 L1123 0 L2364 0 Z M1123 972 L1123 724 L959 724 L1123 972 Z " />
<glyph glyph-name="aeacute" unicode="&#x1fd;" horiz-adv-x="1942" d="M1334 -30 C1550 -30 1716 14 1850 117 L1663 332 C1588 290 1496 263 1383 263 C1215 263 1148 330 1148 376 L1900 376 C1918 813 1722 1076 1334 1076 C1199 1076 1087 1044 998 991 C908 1052 776 1076 598 1076 C394 1076 224 1038 116 983 L245 737 C338 772 440 793 560 793 C726 793 745 757 745 677 C415 703 40 630 40 323 C40 107 190 -24 466 -24 C589 -24 766 -19 943 85 C1036 14 1165 -30 1334 -30 L1334 -30 Z M443 344 C443 458 622 465 745 455 L745 400 C745 350 699 259 558 259 C492 259 443 280 443 344 L443 344 Z M1148 630 C1148 700 1205 783 1334 783 C1463 783 1520 700 1520 630 L1148 630 Z M799 1124 L1189 1124 L1503 1434 L1050 1434 L799 1124 Z " />
<glyph glyph-name="Oslashacute" unicode="&#x1fe;" horiz-adv-x="1692" d="M668 1536 L1058 1536 L1372 1846 L919 1846 L668 1536 Z M846 1474 C309 1474 60 1136 60 717 C60 439 170 197 400 65 L338 -61 L585 -61 L608 -14 C680 -31 759 -40 846 -40 C1383 -40 1632 298 1632 717 C1632 995 1522 1237 1291 1368 L1354 1495 L1107 1495 L1084 1448 C1012 1465 933 1474 846 1474 L846 1474 Z M846 1122 C872 1122 896 1120 919 1116 L579 426 C514 503 487 610 487 717 C487 920 587 1122 846 1122 L846 1122 Z M1205 717 C1205 514 1105 312 846 312 C820 312 795 314 772 318 L1113 1008 C1177 931 1205 824 1205 717 L1205 717 Z " />
<glyph glyph-name="oslashacute" unicode="&#x1ff;" horiz-adv-x="1420" d="M486 1124 L876 1124 L1190 1434 L737 1434 L486 1124 Z M710 -30 C1106 -30 1360 172 1360 523 C1360 760 1244 929 1047 1014 L1093 1107 L901 1107 L879 1062 C826 1071 770 1076 710 1076 C314 1076 60 874 60 523 C60 286 175 117 372 32 L327 -61 L519 -61 L541 -16 C594 -25 650 -30 710 -30 L710 -30 Z M463 523 C463 684 566 773 710 773 C719 773 728 772 736 772 L526 344 C486 386 463 446 463 523 L463 523 Z M710 273 C701 273 692 273 683 274 L894 702 C934 660 957 599 957 523 C957 362 854 273 710 273 L710 273 Z " />
<glyph glyph-name="uni0200" unicode="&#x200;" horiz-adv-x="1696" d="M1086 352 L935 352 L935 0 L1676 0 L1676 352 L1525 352 L1062 1434 L331 1434 L331 1082 L490 1082 L171 352 L20 352 L20 0 L761 0 L761 352 L609 352 L644 434 L1051 434 L1086 352 Z M848 915 L932 716 L763 716 L848 915 Z M522 1846 L69 1846 L383 1536 L773 1536 L522 1846 Z M1015 1846 L562 1846 L876 1536 L1266 1536 L1015 1846 Z " />
<glyph glyph-name="uni0201" unicode="&#x201;" horiz-adv-x="1554" d="M932 0 L1494 0 L1494 303 L1335 303 L1335 623 C1335 969 1164 1076 785 1076 C581 1076 411 1038 303 983 L432 737 C525 772 627 793 747 793 C913 793 932 757 932 677 C602 703 227 630 227 323 C227 107 377 -24 613 -24 C745 -24 867 9 932 121 L932 0 Z M630 344 C630 458 809 465 932 455 L932 400 C932 350 886 259 745 259 C679 259 630 280 630 344 L630 344 Z M493 1434 L40 1434 L354 1124 L744 1124 L493 1434 Z M986 1434 L533 1434 L847 1124 L1237 1124 L986 1434 Z " />
<glyph glyph-name="uni0202" unicode="&#x202;" horiz-adv-x="1696" d="M848 1614 C922 1614 986 1595 1010 1536 L1262 1536 C1240 1649 1156 1822 848 1822 C540 1822 456 1649 434 1536 L686 1536 C710 1595 774 1614 848 1614 L848 1614 Z M1086 352 L935 352 L935 0 L1676 0 L1676 352 L1525 352 L1062 1434 L331 1434 L331 1082 L490 1082 L171 352 L20 352 L20 0 L761 0 L761 352 L609 352 L644 434 L1051 434 L1086 352 Z M848 915 L932 716 L763 716 L848 915 Z " />
<glyph glyph-name="uni0203" unicode="&#x203;" horiz-adv-x="1367" d="M642 1226 C716 1226 780 1207 804 1148 L1056 1148 C1034 1261 950 1434 642 1434 C334 1434 250 1261 228 1148 L480 1148 C504 1207 568 1226 642 1226 L642 1226 Z M745 0 L1307 0 L1307 303 L1148 303 L1148 623 C1148 969 977 1076 598 1076 C394 1076 224 1038 116 983 L245 737 C338 772 440 793 560 793 C726 793 745 757 745 677 C415 703 40 630 40 323 C40 107 190 -24 426 -24 C558 -24 680 9 745 121 L745 0 Z M443 344 C443 458 622 465 745 455 L745 400 C745 350 699 259 558 259 C492 259 443 280 443 344 L443 344 Z " />
<glyph glyph-name="uni0204" unicode="&#x204;" horiz-adv-x="1611" d="M533 1846 L80 1846 L394 1536 L784 1536 L533 1846 Z M1026 1846 L573 1846 L887 1536 L1277 1536 L1026 1846 Z M131 0 L1531 0 L1531 489 L1108 489 L1108 352 L713 352 L713 554 L1078 554 L1078 897 L713 897 L713 1082 L1098 1082 L1098 945 L1521 945 L1521 1434 L131 1434 L131 1082 L290 1082 L290 352 L131 352 L131 0 Z " />
<glyph glyph-name="uni0205" unicode="&#x205;" horiz-adv-x="1404" d="M796 -30 C1012 -30 1178 14 1312 117 L1125 332 C1050 290 958 263 845 263 C677 263 610 330 610 376 L1362 376 C1380 813 1184 1076 796 1076 C405 1076 207 814 207 523 C207 242 377 -30 796 -30 L796 -30 Z M610 630 C610 700 667 783 796 783 C925 783 982 700 982 630 L610 630 Z M493 1434 L40 1434 L354 1124 L744 1124 L493 1434 Z M986 1434 L533 1434 L847 1124 L1237 1124 L986 1434 Z " />
<glyph glyph-name="uni0206" unicode="&#x206;" horiz-adv-x="1560" d="M779 1614 C853 1614 917 1595 941 1536 L1193 1536 C1171 1649 1087 1822 779 1822 C471 1822 387 1649 365 1536 L617 1536 C641 1595 705 1614 779 1614 L779 1614 Z M80 0 L1480 0 L1480 489 L1057 489 L1057 352 L662 352 L662 554 L1027 554 L1027 897 L662 897 L662 1082 L1047 1082 L1047 945 L1470 945 L1470 1434 L80 1434 L80 1082 L239 1082 L239 352 L80 352 L80 0 Z " />
<glyph glyph-name="uni0207" unicode="&#x207;" horiz-adv-x="1237" d="M629 -30 C845 -30 1011 14 1145 117 L958 332 C883 290 791 263 678 263 C510 263 443 330 443 376 L1195 376 C1213 813 1017 1076 629 1076 C238 1076 40 814 40 523 C40 242 210 -30 629 -30 L629 -30 Z M443 630 C443 700 500 783 629 783 C758 783 815 700 815 630 L443 630 Z M646 1226 C720 1226 784 1207 808 1148 L1060 1148 C1038 1261 954 1434 646 1434 C338 1434 254 1261 232 1148 L484 1148 C508 1207 572 1226 646 1226 L646 1226 Z " />
<glyph glyph-name="uni0208" unicode="&#x208;" horiz-adv-x="1190" d="M832 1082 L991 1082 L991 1434 L250 1434 L250 1082 L409 1082 L409 352 L250 352 L250 0 L991 0 L991 352 L832 352 L832 1082 Z M322 1846 L-131 1846 L183 1536 L573 1536 L322 1846 Z M815 1846 L362 1846 L676 1536 L1066 1536 L815 1846 Z " />
<glyph glyph-name="uni0209" unicode="&#x209;" horiz-adv-x="1062" d="M800 1046 L238 1046 L238 743 L397 743 L397 303 L238 303 L238 0 L959 0 L959 303 L800 303 L800 1046 Z M280 1434 L-173 1434 L141 1124 L531 1124 L280 1434 Z M773 1434 L320 1434 L634 1124 L1024 1124 L773 1434 Z " />
<glyph glyph-name="uni020A" unicode="&#x20a;" horiz-adv-x="908" d="M454 1614 C528 1614 592 1595 616 1536 L868 1536 C846 1649 762 1822 454 1822 C146 1822 62 1649 40 1536 L292 1536 C316 1595 380 1614 454 1614 L454 1614 Z M666 1082 L825 1082 L825 1434 L84 1434 L84 1082 L243 1082 L243 352 L84 352 L84 0 L825 0 L825 352 L666 352 L666 1082 Z " />
<glyph glyph-name="uni020B" unicode="&#x20b;" horiz-adv-x="868" d="M434 1226 C508 1226 572 1207 596 1148 L848 1148 C826 1261 742 1434 434 1434 C126 1434 42 1261 20 1148 L272 1148 C296 1207 360 1226 434 1226 L434 1226 Z M636 1046 L74 1046 L74 743 L233 743 L233 303 L74 303 L74 0 L795 0 L795 303 L636 303 L636 1046 Z " />
<glyph glyph-name="uni020C" unicode="&#x20c;" horiz-adv-x="1692" d="M846 1474 C309 1474 60 1136 60 717 C60 298 309 -40 846 -40 C1383 -40 1632 298 1632 717 C1632 1136 1383 1474 846 1474 L846 1474 Z M846 1122 C1105 1122 1205 920 1205 717 C1205 514 1105 312 846 312 C587 312 487 514 487 717 C487 920 587 1122 846 1122 L846 1122 Z M536 1846 L83 1846 L397 1536 L787 1536 L536 1846 Z M1029 1846 L576 1846 L890 1536 L1280 1536 L1029 1846 Z " />
<glyph glyph-name="uni020D" unicode="&#x20d;" horiz-adv-x="1479" d="M789 -30 C1185 -30 1439 172 1439 523 C1439 874 1185 1076 789 1076 C393 1076 139 874 139 523 C139 172 393 -30 789 -30 L789 -30 Z M789 273 C645 273 542 362 542 523 C542 684 645 773 789 773 C933 773 1036 684 1036 523 C1036 362 933 273 789 273 L789 273 Z M493 1434 L40 1434 L354 1124 L744 1124 L493 1434 Z M986 1434 L533 1434 L847 1124 L1237 1124 L986 1434 Z " />
<glyph glyph-name="uni020E" unicode="&#x20e;" horiz-adv-x="1692" d="M846 1474 C309 1474 60 1136 60 717 C60 298 309 -40 846 -40 C1383 -40 1632 298 1632 717 C1632 1136 1383 1474 846 1474 L846 1474 Z M846 1122 C1105 1122 1205 920 1205 717 C1205 514 1105 312 846 312 C587 312 487 514 487 717 C487 920 587 1122 846 1122 L846 1122 Z M846 1614 C920 1614 984 1595 1008 1536 L1260 1536 C1238 1649 1154 1822 846 1822 C538 1822 454 1649 432 1536 L684 1536 C708 1595 772 1614 846 1614 L846 1614 Z " />
<glyph glyph-name="uni020F" unicode="&#x20f;" horiz-adv-x="1380" d="M690 -30 C1086 -30 1340 172 1340 523 C1340 874 1086 1076 690 1076 C294 1076 40 874 40 523 C40 172 294 -30 690 -30 L690 -30 Z M690 273 C546 273 443 362 443 523 C443 684 546 773 690 773 C834 773 937 684 937 523 C937 362 834 273 690 273 L690 273 Z M690 1226 C764 1226 828 1207 852 1148 L1104 1148 C1082 1261 998 1434 690 1434 C382 1434 298 1261 276 1148 L528 1148 C552 1207 616 1226 690 1226 L690 1226 Z " />
<glyph glyph-name="uni0210" unicode="&#x210;" horiz-adv-x="1677" d="M533 1846 L80 1846 L394 1536 L784 1536 L533 1846 Z M1026 1846 L573 1846 L887 1536 L1277 1536 L1026 1846 Z M838 0 L838 352 L739 352 L739 513 L848 513 L1135 0 L1597 0 L1597 352 L1438 352 L1305 573 C1437 614 1597 724 1597 958 C1597 1320 1321 1434 949 1434 L157 1434 L157 1082 L316 1082 L316 352 L157 352 L157 0 L838 0 Z M949 1082 C1101 1082 1170 1061 1170 958 C1170 854 1101 834 949 834 L739 834 L739 1082 L949 1082 Z " />
<glyph glyph-name="uni0211" unicode="&#x211;" horiz-adv-x="1382" d="M269 0 L990 0 L990 303 L831 303 L831 569 C831 694 881 773 1005 773 C1096 773 1165 746 1220 716 L1392 1001 C1321 1049 1229 1076 1114 1076 C1004 1076 882 1031 831 939 L831 1046 L269 1046 L269 743 L428 743 L428 303 L269 303 L269 0 Z M513 1434 L60 1434 L374 1124 L764 1124 L513 1434 Z M1006 1434 L553 1434 L867 1124 L1257 1124 L1006 1434 Z " />
<glyph glyph-name="uni0212" unicode="&#x212;" horiz-adv-x="1600" d="M784 1614 C858 1614 922 1595 946 1536 L1198 1536 C1176 1649 1092 1822 784 1822 C476 1822 392 1649 370 1536 L622 1536 C646 1595 710 1614 784 1614 L784 1614 Z M761 0 L761 352 L662 352 L662 513 L771 513 L1058 0 L1520 0 L1520 352 L1361 352 L1228 573 C1360 614 1520 724 1520 958 C1520 1320 1244 1434 872 1434 L80 1434 L80 1082 L239 1082 L239 352 L80 352 L80 0 L761 0 Z M872 1082 C1024 1082 1093 1061 1093 958 C1093 854 1024 834 872 834 L662 834 L662 1082 L872 1082 Z " />
<glyph glyph-name="uni0213" unicode="&#x213;" horiz-adv-x="1173" d="M606 1226 C680 1226 744 1207 768 1148 L1020 1148 C998 1261 914 1434 606 1434 C298 1434 214 1261 192 1148 L444 1148 C468 1207 532 1226 606 1226 L606 1226 Z M60 0 L781 0 L781 303 L622 303 L622 569 C622 694 672 773 796 773 C887 773 956 746 1011 716 L1183 1001 C1112 1049 1020 1076 905 1076 C795 1076 673 1031 622 939 L622 1046 L60 1046 L60 743 L219 743 L219 303 L60 303 L60 0 Z " />
<glyph glyph-name="uni0214" unicode="&#x214;" horiz-adv-x="1840" d="M920 -40 C1413 -40 1601 236 1601 661 L1601 1082 L1760 1082 L1760 1434 L1019 1434 L1019 1082 L1178 1082 L1178 661 C1178 444 1142 312 920 312 C698 312 662 444 662 661 L662 1082 L821 1082 L821 1434 L80 1434 L80 1082 L239 1082 L239 661 C239 236 427 -40 920 -40 L920 -40 Z M616 1846 L163 1846 L477 1536 L867 1536 L616 1846 Z M1109 1846 L656 1846 L970 1536 L1360 1536 L1109 1846 Z " />
<glyph glyph-name="uni0215" unicode="&#x215;" horiz-adv-x="1652" d="M1433 303 L1433 1046 L871 1046 L871 743 L1030 743 L1030 467 C1030 342 980 273 856 273 C731 273 681 342 681 467 L681 1046 L119 1046 L119 743 L278 743 L278 467 C278 169 432 -30 747 -30 C857 -30 979 15 1030 107 L1030 0 L1592 0 L1592 303 L1433 303 Z M513 1434 L60 1434 L374 1124 L764 1124 L513 1434 Z M1006 1434 L553 1434 L867 1124 L1257 1124 L1006 1434 Z " />
<glyph glyph-name="uni0216" unicode="&#x216;" horiz-adv-x="1840" d="M920 1614 C994 1614 1058 1595 1082 1536 L1334 1536 C1312 1649 1228 1822 920 1822 C612 1822 528 1649 506 1536 L758 1536 C782 1595 846 1614 920 1614 L920 1614 Z M920 -40 C1413 -40 1601 236 1601 661 L1601 1082 L1760 1082 L1760 1434 L1019 1434 L1019 1082 L1178 1082 L1178 661 C1178 444 1142 312 920 312 C698 312 662 444 662 661 L662 1082 L821 1082 L821 1434 L80 1434 L80 1082 L239 1082 L239 661 C239 236 427 -40 920 -40 L920 -40 Z " />
<glyph glyph-name="uni0217" unicode="&#x217;" horiz-adv-x="1593" d="M798 1226 C872 1226 936 1207 960 1148 L1212 1148 C1190 1261 1106 1434 798 1434 C490 1434 406 1261 384 1148 L636 1148 C660 1207 724 1226 798 1226 L798 1226 Z M1374 303 L1374 1046 L812 1046 L812 743 L971 743 L971 467 C971 342 921 273 797 273 C672 273 622 342 622 467 L622 1046 L60 1046 L60 743 L219 743 L219 467 C219 169 373 -30 688 -30 C798 -30 920 15 971 107 L971 0 L1533 0 L1533 303 L1374 303 Z " />
<glyph glyph-name="Scommaaccent" unicode="&#x218;" horiz-adv-x="1446" d="M338 -532 L699 -532 L890 -108 L491 -108 L338 -532 Z M691 1474 C268 1474 100 1270 100 1020 C100 768 292 631 675 551 C819 522 919 497 919 422 C919 330 813 312 671 312 C590 312 523 326 523 326 L523 467 L100 467 L100 105 C100 105 294 -40 691 -40 C1068 -40 1346 79 1346 422 C1346 718 1122 818 757 894 C629 921 527 942 527 1020 C527 1096 598 1122 711 1122 C776 1122 828 1117 878 1110 L878 975 L1301 975 L1301 1374 C1301 1374 1040 1474 691 1474 L691 1474 Z " />
<glyph glyph-name="scommaaccent" unicode="&#x219;" horiz-adv-x="1185" d="M231 -532 L592 -532 L783 -108 L384 -108 L231 -532 Z M1084 697 L1084 1006 C1084 1006 850 1076 564 1076 C243 1076 73 956 73 745 C73 546 243 445 558 397 C662 381 722 369 722 333 C722 301 698 273 544 273 C508 273 479 276 463 280 L463 359 L60 359 L60 99 C190 0 400 -30 554 -30 C863 -30 1125 42 1125 305 C1125 539 944 616 628 670 C558 681 476 693 476 729 C476 766 521 773 604 773 C628 773 654 772 681 769 L681 697 L1084 697 Z " />
<glyph glyph-name="uni021A" unicode="&#x21a;" horiz-adv-x="1641" d="M471 -532 L832 -532 L1023 -108 L624 -108 L471 -532 Z M1561 1434 L80 1434 L80 945 L503 945 L503 1082 L609 1082 L609 352 L450 352 L450 0 L1191 0 L1191 352 L1032 352 L1032 1082 L1138 1082 L1138 945 L1561 945 L1561 1434 Z " />
<glyph glyph-name="uni021B" unicode="&#x21b;" horiz-adv-x="951" d="M20 743 L204 743 L204 460 C204 135 313 -30 669 -30 C775 -30 867 -6 931 22 L852 284 C810 269 773 263 737 263 C632 263 607 319 607 460 L607 743 L877 743 L877 1046 L607 1046 L607 1344 L204 1344 L204 1046 L20 1046 L20 743 Z M227 -532 L588 -532 L779 -108 L380 -108 L227 -532 Z " />
<glyph glyph-name="uni021E" unicode="&#x21e;" horiz-adv-x="1856" d="M1392 1827 L1074 1827 L928 1728 L782 1827 L464 1827 L775 1536 L1081 1536 L1392 1827 Z M239 1082 L239 352 L80 352 L80 0 L821 0 L821 352 L662 352 L662 554 L1194 554 L1194 352 L1035 352 L1035 0 L1776 0 L1776 352 L1617 352 L1617 1082 L1776 1082 L1776 1434 L1035 1434 L1035 1082 L1194 1082 L1194 906 L662 906 L662 1082 L821 1082 L821 1434 L80 1434 L80 1082 L239 1082 Z " />
<glyph glyph-name="uni021F" unicode="&#x21f;" horiz-adv-x="1593" d="M1260 1827 L942 1827 L796 1728 L650 1827 L332 1827 L643 1536 L949 1536 L1260 1827 Z M971 0 L1533 0 L1533 303 L1374 303 L1374 579 C1374 877 1220 1076 905 1076 C795 1076 673 1031 622 939 L622 1516 L60 1516 L60 1213 L219 1213 L219 303 L60 303 L60 0 L781 0 L781 303 L622 303 L622 579 C622 704 672 773 796 773 C921 773 971 704 971 579 L971 0 Z " />
<glyph glyph-name="uni0224" unicode="&#x224;" horiz-adv-x="1497" d="M1365 1434 L100 1434 L100 945 L523 945 L523 1082 L743 1082 L80 190 L80 0 L1112 0 C872 -124 900 -600 1417 -532 L1417 -261 C1169 -284 1200 -73 1365 0 L1365 489 L942 489 L942 352 L701 352 L1365 1245 L1365 1434 Z " />
<glyph glyph-name="uni0225" unicode="&#x225;" horiz-adv-x="1217" d="M439 667 L439 743 L562 743 L60 173 L60 0 L852 0 C612 -124 640 -600 1157 -532 L1157 -261 C909 -284 940 -73 1105 0 L1105 379 L742 379 L742 303 L603 303 L1105 871 L1105 1046 L76 1046 L76 667 L439 667 Z " />
<glyph glyph-name="uni0226" unicode="&#x226;" horiz-adv-x="1696" d="M652 1732 C652 1624 740 1536 848 1536 C956 1536 1044 1624 1044 1732 C1044 1840 956 1928 848 1928 C740 1928 652 1840 652 1732 L652 1732 Z M1086 352 L935 352 L935 0 L1676 0 L1676 352 L1525 352 L1062 1434 L331 1434 L331 1082 L490 1082 L171 352 L20 352 L20 0 L761 0 L761 352 L609 352 L644 434 L1051 434 L1086 352 Z M848 915 L932 716 L763 716 L848 915 Z " />
<glyph glyph-name="uni0227" unicode="&#x227;" horiz-adv-x="1367" d="M440 1344 C440 1236 528 1148 636 1148 C744 1148 832 1236 832 1344 C832 1452 744 1540 636 1540 C528 1540 440 1452 440 1344 L440 1344 Z M745 0 L1307 0 L1307 303 L1148 303 L1148 623 C1148 969 977 1076 598 1076 C394 1076 224 1038 116 983 L245 737 C338 772 440 793 560 793 C726 793 745 757 745 677 C415 703 40 630 40 323 C40 107 190 -24 426 -24 C558 -24 680 9 745 121 L745 0 Z M443 344 C443 458 622 465 745 455 L745 400 C745 350 699 259 558 259 C492 259 443 280 443 344 L443 344 Z " />
<glyph glyph-name="uni0228" unicode="&#x228;" horiz-adv-x="1560" d="M80 0 L641 0 L543 -306 C661 -290 865 -261 855 -352 C845 -454 597 -408 531 -386 L471 -565 C746 -666 1100 -627 1128 -359 C1145 -197 1022 -126 857 -126 L895 0 L1480 0 L1480 489 L1057 489 L1057 352 L662 352 L662 554 L1027 554 L1027 897 L662 897 L662 1082 L1047 1082 L1047 945 L1470 945 L1470 1434 L80 1434 L80 1082 L239 1082 L239 352 L80 352 L80 0 Z " />
<glyph glyph-name="uni0229" unicode="&#x229;" horiz-adv-x="1237" d="M339 -565 C614 -666 968 -627 996 -359 C1013 -197 890 -126 725 -126 L756 -24 C912 -9 1038 35 1145 117 L958 332 C883 290 791 263 678 263 C510 263 443 330 443 376 L1195 376 C1213 813 1017 1076 629 1076 C238 1076 40 814 40 523 C40 272 175 28 503 -21 L411 -306 C529 -290 733 -261 723 -352 C713 -454 465 -408 399 -386 L339 -565 Z M443 630 C443 700 500 783 629 783 C758 783 815 700 815 630 L443 630 Z " />
<glyph glyph-name="uni022A" unicode="&#x22a;" horiz-adv-x="1692" d="M846 1474 C309 1474 60 1136 60 717 C60 298 309 -40 846 -40 C1383 -40 1632 298 1632 717 C1632 1136 1383 1474 846 1474 L846 1474 Z M846 1122 C1105 1122 1205 920 1205 717 C1205 514 1105 312 846 312 C587 312 487 514 487 717 C487 920 587 1122 846 1122 L846 1122 Z M405 1731 C405 1623 493 1535 601 1535 C709 1535 797 1623 797 1731 C797 1839 709 1927 601 1927 C493 1927 405 1839 405 1731 L405 1731 Z M896 1731 C896 1623 984 1535 1092 1535 C1200 1535 1288 1623 1288 1731 C1288 1839 1200 1927 1092 1927 C984 1927 896 1839 896 1731 L896 1731 Z M381 1967 L1311 1967 L1311 2270 L381 2270 L381 1967 Z " />
<glyph glyph-name="uni022B" unicode="&#x22b;" horiz-adv-x="1380" d="M690 -30 C1086 -30 1340 172 1340 523 C1340 874 1086 1076 690 1076 C294 1076 40 874 40 523 C40 172 294 -30 690 -30 L690 -30 Z M690 273 C546 273 443 362 443 523 C443 684 546 773 690 773 C834 773 937 684 937 523 C937 362 834 273 690 273 L690 273 Z M249 1344 C249 1236 337 1148 445 1148 C553 1148 641 1236 641 1344 C641 1452 553 1540 445 1540 C337 1540 249 1452 249 1344 L249 1344 Z M740 1344 C740 1236 828 1148 936 1148 C1044 1148 1132 1236 1132 1344 C1132 1452 1044 1540 936 1540 C828 1540 740 1452 740 1344 L740 1344 Z M225 1580 L1155 1580 L1155 1883 L225 1883 L225 1580 Z " />
<glyph glyph-name="uni022C" unicode="&#x22c;" horiz-adv-x="1692" d="M846 1474 C309 1474 60 1136 60 717 C60 298 309 -40 846 -40 C1383 -40 1632 298 1632 717 C1632 1136 1383 1474 846 1474 L846 1474 Z M846 1122 C1105 1122 1205 920 1205 717 C1205 514 1105 312 846 312 C587 312 487 514 487 717 C487 920 587 1122 846 1122 L846 1122 Z M818 1590 C852 1561 902 1536 983 1536 C1297 1536 1318 1885 1318 1885 L1043 1885 C1043 1885 1035 1807 968 1807 C921 1807 903 1830 875 1853 C841 1882 791 1907 710 1907 C396 1907 375 1558 375 1558 L650 1558 C650 1558 658 1636 725 1636 C772 1636 790 1613 818 1590 L818 1590 Z M381 1948 L1311 1948 L1311 2251 L381 2251 L381 1948 Z " />
<glyph glyph-name="uni022D" unicode="&#x22d;" horiz-adv-x="1380" d="M690 -30 C1086 -30 1340 172 1340 523 C1340 874 1086 1076 690 1076 C294 1076 40 874 40 523 C40 172 294 -30 690 -30 L690 -30 Z M690 273 C546 273 443 362 443 523 C443 684 546 773 690 773 C834 773 937 684 937 523 C937 362 834 273 690 273 L690 273 Z M662 1217 C696 1188 746 1163 827 1163 C1141 1163 1162 1512 1162 1512 L887 1512 C887 1512 879 1434 812 1434 C765 1434 747 1457 719 1480 C685 1509 635 1534 554 1534 C240 1534 219 1185 219 1185 L494 1185 C494 1185 502 1263 569 1263 C616 1263 634 1240 662 1217 L662 1217 Z M225 1575 L1155 1575 L1155 1878 L225 1878 L225 1575 Z " />
<glyph glyph-name="uni022E" unicode="&#x22e;" horiz-adv-x="1692" d="M846 1474 C309 1474 60 1136 60 717 C60 298 309 -40 846 -40 C1383 -40 1632 298 1632 717 C1632 1136 1383 1474 846 1474 L846 1474 Z M846 1122 C1105 1122 1205 920 1205 717 C1205 514 1105 312 846 312 C587 312 487 514 487 717 C487 920 587 1122 846 1122 L846 1122 Z M650 1732 C650 1624 738 1536 846 1536 C954 1536 1042 1624 1042 1732 C1042 1840 954 1928 846 1928 C738 1928 650 1840 650 1732 L650 1732 Z " />
<glyph glyph-name="uni022F" unicode="&#x22f;" horiz-adv-x="1380" d="M690 -30 C1086 -30 1340 172 1340 523 C1340 874 1086 1076 690 1076 C294 1076 40 874 40 523 C40 172 294 -30 690 -30 L690 -30 Z M690 273 C546 273 443 362 443 523 C443 684 546 773 690 773 C834 773 937 684 937 523 C937 362 834 273 690 273 L690 273 Z M494 1344 C494 1236 582 1148 690 1148 C798 1148 886 1236 886 1344 C886 1452 798 1540 690 1540 C582 1540 494 1452 494 1344 L494 1344 Z " />
<glyph glyph-name="uni0230" unicode="&#x230;" horiz-adv-x="1692" d="M846 1474 C309 1474 60 1136 60 717 C60 298 309 -40 846 -40 C1383 -40 1632 298 1632 717 C1632 1136 1383 1474 846 1474 L846 1474 Z M846 1122 C1105 1122 1205 920 1205 717 C1205 514 1105 312 846 312 C587 312 487 514 487 717 C487 920 587 1122 846 1122 L846 1122 Z M650 1732 C650 1624 738 1536 846 1536 C954 1536 1042 1624 1042 1732 C1042 1840 954 1928 846 1928 C738 1928 650 1840 650 1732 L650 1732 Z M381 1967 L1311 1967 L1311 2270 L381 2270 L381 1967 Z " />
<glyph glyph-name="uni0231" unicode="&#x231;" horiz-adv-x="1380" d="M690 -30 C1086 -30 1340 172 1340 523 C1340 874 1086 1076 690 1076 C294 1076 40 874 40 523 C40 172 294 -30 690 -30 L690 -30 Z M690 273 C546 273 443 362 443 523 C443 684 546 773 690 773 C834 773 937 684 937 523 C937 362 834 273 690 273 L690 273 Z M495 1344 C495 1236 583 1148 691 1148 C799 1148 887 1236 887 1344 C887 1452 799 1540 691 1540 C583 1540 495 1452 495 1344 L495 1344 Z M226 1579 L1156 1579 L1156 1882 L226 1882 L226 1579 Z " />
<glyph glyph-name="uni0232" unicode="&#x232;" horiz-adv-x="1606" d="M337 1536 L1267 1536 L1267 1839 L337 1839 L337 1536 Z M1423 1082 L1586 1082 L1586 1434 L885 1434 L885 1082 L970 1082 L802 838 L634 1082 L721 1082 L721 1434 L20 1434 L20 1082 L182 1082 L591 489 L591 352 L432 352 L432 0 L1173 0 L1173 352 L1014 352 L1014 489 L1423 1082 Z " />
<glyph glyph-name="uni0233" unicode="&#x233;" horiz-adv-x="1450" d="M260 1131 L1190 1131 L1190 1434 L260 1434 L260 1131 Z M618 743 L681 743 L681 1046 L60 1046 L60 743 L226 743 L537 0 L510 -71 C467 -185 437 -229 322 -229 L179 -229 L179 -532 L381 -532 C640 -532 731 -425 794 -282 L1224 743 L1390 743 L1390 1046 L769 1046 L769 743 L832 743 L725 443 L618 743 Z " />
<glyph glyph-name="uni0238" unicode="&#x238;" horiz-adv-x="2257" d="M927 921 C845 1036 714 1076 593 1076 C248 1076 40 863 40 523 C40 183 248 -30 593 -30 C714 -30 845 10 927 125 L927 0 L1330 0 L1330 125 C1412 10 1543 -30 1664 -30 C2009 -30 2217 183 2217 523 C2217 863 2009 1076 1664 1076 C1543 1076 1412 1036 1330 921 L1330 1213 L1489 1213 L1489 1516 L768 1516 L768 1213 L927 1213 L927 921 Z M685 773 C833 773 927 671 927 523 C927 375 833 273 685 273 C537 273 443 375 443 523 C443 671 537 773 685 773 L685 773 Z M1572 773 C1720 773 1814 671 1814 523 C1814 375 1720 273 1572 273 C1424 273 1330 375 1330 523 C1330 671 1424 773 1572 773 L1572 773 Z " />
<glyph glyph-name="uni0239" unicode="&#x239;" horiz-adv-x="2257" d="M1330 125 C1412 10 1543 -30 1664 -30 C2009 -30 2217 183 2217 523 C2217 863 2009 1076 1664 1076 C1543 1076 1412 1036 1330 921 L1330 1046 L927 1046 L927 921 C845 1036 714 1076 593 1076 C248 1076 40 863 40 523 C40 183 248 -30 593 -30 C714 -30 845 10 927 125 L927 -229 L768 -229 L768 -532 L1489 -532 L1489 -229 L1330 -229 L1330 125 Z M1572 773 C1720 773 1814 671 1814 523 C1814 375 1720 273 1572 273 C1424 273 1330 375 1330 523 C1330 671 1424 773 1572 773 L1572 773 Z M685 773 C833 773 927 671 927 523 C927 375 833 273 685 273 C537 273 443 375 443 523 C443 671 537 773 685 773 L685 773 Z " />
<glyph glyph-name="uni024C" unicode="&#x24c;" horiz-adv-x="1690" d="M851 0 L851 352 L752 352 L752 513 L861 513 L1148 0 L1610 0 L1610 352 L1451 352 L1318 573 C1450 614 1610 724 1610 958 C1610 1320 1334 1434 962 1434 L170 1434 L170 1082 L329 1082 L329 835 L80 835 L80 513 L329 513 L329 352 L170 352 L170 0 L851 0 Z M962 1082 C1114 1082 1183 1061 1183 958 C1183 854 1114 834 962 834 L752 834 L752 1082 L962 1082 Z " />
<glyph glyph-name="uni024D" unicode="&#x24d;" horiz-adv-x="1237" d="M60 392 L283 392 L283 303 L124 303 L124 0 L845 0 L845 303 L686 303 L686 392 L909 392 L909 635 L691 635 C707 721 759 773 860 773 C951 773 1020 746 1075 716 L1247 1001 C1176 1049 1084 1076 969 1076 C859 1076 737 1031 686 939 L686 1046 L124 1046 L124 743 L283 743 L283 635 L60 635 L60 392 Z " />
<glyph glyph-name="uni024E" unicode="&#x24e;" horiz-adv-x="1606" d="M1423 1082 L1586 1082 L1586 1434 L885 1434 L885 1082 L970 1082 L877 947 L727 947 L634 1082 L721 1082 L721 1434 L20 1434 L20 1082 L182 1082 L275 947 L110 947 L110 679 L460 679 L591 489 L591 352 L432 352 L432 0 L1173 0 L1173 352 L1014 352 L1014 489 L1145 679 L1494 679 L1494 947 L1330 947 L1423 1082 Z " />
<glyph glyph-name="uni024F" unicode="&#x24f;" horiz-adv-x="1450" d="M618 743 L681 743 L681 1046 L60 1046 L60 743 L226 743 L271 635 L121 635 L121 367 L383 367 L537 0 L510 -71 C467 -185 437 -229 322 -229 L179 -229 L179 -532 L381 -532 C640 -532 731 -425 794 -282 L1066 367 L1328 367 L1328 635 L1179 635 L1224 743 L1390 743 L1390 1046 L769 1046 L769 743 L832 743 L793 635 L656 635 L618 743 Z " />
<glyph glyph-name="circumflex" unicode="&#x2c6;" horiz-adv-x="1048" d="M677 1434 L371 1434 L60 1143 L378 1143 L524 1242 L670 1143 L988 1143 L677 1434 Z " />
<glyph glyph-name="caron" unicode="&#x2c7;" horiz-adv-x="1008" d="M968 1434 L650 1434 L504 1335 L358 1434 L40 1434 L351 1143 L657 1143 L968 1434 Z " />
<glyph glyph-name="uni02C8" unicode="&#x2c8;" horiz-adv-x="523" d="M60 928 L463 928 L463 1434 L60 1434 L60 928 Z " />
<glyph glyph-name="uni02C9" unicode="&#x2c9;" horiz-adv-x="1090" d="M80 1131 L1010 1131 L1010 1434 L80 1434 L80 1131 Z " />
<glyph glyph-name="uni02CA" unicode="&#x2ca;" horiz-adv-x="824" d="M60 1124 L450 1124 L764 1434 L311 1434 L60 1124 Z " />
<glyph glyph-name="uni02CB" unicode="&#x2cb;" horiz-adv-x="824" d="M513 1434 L60 1434 L374 1124 L764 1124 L513 1434 Z " />
<glyph glyph-name="uni02CC" unicode="&#x2cc;" horiz-adv-x="523" d="M60 -532 L463 -532 L463 -26 L60 -26 L60 -532 Z " />
<glyph glyph-name="uni02CD" unicode="&#x2cd;" horiz-adv-x="1050" d="M60 -532 L990 -532 L990 -229 L60 -229 L60 -532 Z " />
<glyph glyph-name="uni02CE" unicode="&#x2ce;" horiz-adv-x="824" d="M513 -222 L60 -222 L374 -532 L764 -532 L513 -222 Z " />
<glyph glyph-name="uni02CF" unicode="&#x2cf;" horiz-adv-x="824" d="M60 -532 L450 -532 L764 -222 L311 -222 L60 -532 Z " />
<glyph glyph-name="uni02D0" unicode="&#x2d0;" horiz-adv-x="658" d="M60 1046 L329 598 L598 1046 L60 1046 Z M598 0 L329 448 L60 0 L598 0 Z " />
<glyph glyph-name="uni02D1" unicode="&#x2d1;" horiz-adv-x="658" d="M60 1046 L329 598 L598 1046 L60 1046 Z " />
<glyph glyph-name="uni02D2" unicode="&#x2d2;" horiz-adv-x="493" d="M309 715 C309 791 348 849 433 849 L433 1064 C165 1064 60 895 60 715 C60 535 165 366 433 366 L433 581 C348 581 309 639 309 715 L309 715 Z " />
<glyph glyph-name="uni02D3" unicode="&#x2d3;" horiz-adv-x="493" d="M184 715 C184 639 145 581 60 581 L60 366 C328 366 433 535 433 715 C433 895 328 1064 60 1064 L60 849 C145 849 184 791 184 715 L184 715 Z " />
<glyph glyph-name="uni02D4" unicode="&#x2d4;" horiz-adv-x="897" d="M60 513 L837 513 L837 798 L613 798 L613 1046 L284 1046 L284 798 L60 798 L60 513 Z " />
<glyph glyph-name="uni02D5" unicode="&#x2d5;" horiz-adv-x="897" d="M60 248 L284 248 L284 0 L613 0 L613 248 L837 248 L837 533 L60 533 L60 248 Z " />
<glyph glyph-name="uni02D6" unicode="&#x2d6;" horiz-adv-x="1103" d="M130 497 L397 497 L397 231 L706 231 L706 497 L973 497 L973 806 L706 806 L706 1072 L397 1072 L397 806 L130 806 L130 497 Z " />
<glyph glyph-name="uni02D7" unicode="&#x2d7;" horiz-adv-x="883" d="M60 497 L823 497 L823 806 L60 806 L60 497 Z " />
<glyph glyph-name="breve" unicode="&#x2d8;" horiz-adv-x="908" d="M454 1356 C380 1356 316 1375 292 1434 L40 1434 C62 1321 146 1148 454 1148 C762 1148 846 1321 868 1434 L616 1434 C592 1375 528 1356 454 1356 L454 1356 Z " />
<glyph glyph-name="dotaccent" unicode="&#x2d9;" horiz-adv-x="432" d="M20 1344 C20 1236 108 1148 216 1148 C324 1148 412 1236 412 1344 C412 1452 324 1540 216 1540 C108 1540 20 1452 20 1344 L20 1344 Z " />
<glyph glyph-name="ring" unicode="&#x2da;" horiz-adv-x="646" d="M60 1387 C60 1242 178 1124 323 1124 C468 1124 586 1242 586 1387 C586 1532 468 1650 323 1650 C178 1650 60 1532 60 1387 L60 1387 Z M250 1387 C250 1427 283 1460 323 1460 C363 1460 396 1427 396 1387 C396 1347 363 1314 323 1314 C283 1314 250 1347 250 1387 L250 1387 Z " />
<glyph glyph-name="ogonek" unicode="&#x2db;" horiz-adv-x="531" d="M186 0 C-54 -124 -26 -600 491 -532 L491 -261 C243 -284 274 -73 439 0 L186 0 Z " />
<glyph glyph-name="tilde" unicode="&#x2dc;" horiz-adv-x="1063" d="M503 1217 C537 1188 587 1163 668 1163 C982 1163 1003 1512 1003 1512 L728 1512 C728 1512 720 1434 653 1434 C606 1434 588 1457 560 1480 C526 1509 476 1534 395 1534 C81 1534 60 1185 60 1185 L335 1185 C335 1185 343 1263 410 1263 C457 1263 475 1240 503 1217 L503 1217 Z " />
<glyph glyph-name="hungarumlaut" unicode="&#x2dd;" horiz-adv-x="964" d="M60 1174 L351 1174 L500 1516 L151 1516 L60 1174 Z M464 1174 L755 1174 L904 1516 L555 1516 L464 1174 Z " />
<glyph glyph-name="gravecomb" unicode="&#x300;" horiz-adv-x="864" d="M533 1434 L80 1434 L394 1124 L784 1124 L533 1434 Z " />
<glyph glyph-name="acutecomb" unicode="&#x301;" horiz-adv-x="864" d="M80 1124 L470 1124 L784 1434 L331 1434 L80 1124 Z " />
<glyph glyph-name="uni0302" unicode="&#x302;" horiz-adv-x="1048" d="M677 1434 L371 1434 L60 1143 L378 1143 L524 1242 L670 1143 L988 1143 L677 1434 Z " />
<glyph glyph-name="tildecomb" unicode="&#x303;" horiz-adv-x="1103" d="M523 1217 C557 1188 607 1163 688 1163 C1002 1163 1023 1512 1023 1512 L748 1512 C748 1512 740 1434 673 1434 C626 1434 608 1457 580 1480 C546 1509 496 1534 415 1534 C101 1534 80 1185 80 1185 L355 1185 C355 1185 363 1263 430 1263 C477 1263 495 1240 523 1217 L523 1217 Z " />
<glyph glyph-name="uni0304" unicode="&#x304;" horiz-adv-x="1050" d="M60 1131 L990 1131 L990 1434 L60 1434 L60 1131 Z " />
<glyph glyph-name="uni0305" unicode="&#x305;" horiz-adv-x="1050" d="M60 1131 L990 1131 L990 1434 L60 1434 L60 1131 Z " />
<glyph glyph-name="uni0306" unicode="&#x306;" horiz-adv-x="948" d="M474 1356 C400 1356 336 1375 312 1434 L60 1434 C82 1321 166 1148 474 1148 C782 1148 866 1321 888 1434 L636 1434 C612 1375 548 1356 474 1356 L474 1356 Z " />
<glyph glyph-name="uni0307" unicode="&#x307;" horiz-adv-x="512" d="M60 1344 C60 1236 148 1148 256 1148 C364 1148 452 1236 452 1344 C452 1452 364 1540 256 1540 C148 1540 60 1452 60 1344 L60 1344 Z " />
<glyph glyph-name="uni0308" unicode="&#x308;" horiz-adv-x="1003" d="M60 1344 C60 1236 148 1148 256 1148 C364 1148 452 1236 452 1344 C452 1452 364 1540 256 1540 C148 1540 60 1452 60 1344 L60 1344 Z M551 1344 C551 1236 639 1148 747 1148 C855 1148 943 1236 943 1344 C943 1452 855 1540 747 1540 C639 1540 551 1452 551 1344 L551 1344 Z " />
<glyph glyph-name="hookabovecomb" unicode="&#x309;" horiz-adv-x="696" d="M80 937 C328 937 616 1029 616 1434 L256 1434 C256 1304 178 1240 80 1240 L80 937 Z " />
<glyph glyph-name="uni030A" unicode="&#x30a;" horiz-adv-x="646" d="M60 1387 C60 1242 178 1124 323 1124 C468 1124 586 1242 586 1387 C586 1532 468 1650 323 1650 C178 1650 60 1532 60 1387 L60 1387 Z M250 1387 C250 1427 283 1460 323 1460 C363 1460 396 1427 396 1387 C396 1347 363 1314 323 1314 C283 1314 250 1347 250 1387 L250 1387 Z " />
<glyph glyph-name="uni030B" unicode="&#x30b;" horiz-adv-x="1251" d="M60 892 L451 892 L700 1434 L271 1434 L60 892 Z M551 892 L942 892 L1191 1434 L762 1434 L551 892 Z " />
<glyph glyph-name="uni030C" unicode="&#x30c;" horiz-adv-x="1048" d="M988 1434 L670 1434 L524 1335 L378 1434 L60 1434 L371 1143 L677 1143 L988 1434 Z " />
<glyph glyph-name="uni030D" unicode="&#x30d;" horiz-adv-x="523" d="M60 928 L463 928 L463 1434 L60 1434 L60 928 Z " />
<glyph glyph-name="uni030E" unicode="&#x30e;" horiz-adv-x="1000" d="M60 928 L463 928 L463 1434 L60 1434 L60 928 Z M537 928 L940 928 L940 1434 L537 1434 L537 928 Z " />
<glyph glyph-name="uni030F" unicode="&#x30f;" horiz-adv-x="1251" d="M980 1434 L551 1434 L800 892 L1191 892 L980 1434 Z M489 1434 L60 1434 L309 892 L700 892 L489 1434 Z " />
<glyph glyph-name="uni0310" unicode="&#x310;" horiz-adv-x="948" d="M318 1590 C318 1504 388 1434 474 1434 C560 1434 630 1504 630 1590 C630 1676 560 1746 474 1746 C388 1746 318 1676 318 1590 L318 1590 Z M474 1356 C400 1356 336 1375 312 1434 L60 1434 C82 1321 166 1148 474 1148 C782 1148 866 1321 888 1434 L636 1434 C612 1375 548 1356 474 1356 L474 1356 Z " />
<glyph glyph-name="uni0311" unicode="&#x311;" horiz-adv-x="948" d="M474 1226 C548 1226 612 1207 636 1148 L888 1148 C866 1261 782 1434 474 1434 C166 1434 82 1261 60 1148 L312 1148 C336 1207 400 1226 474 1226 L474 1226 Z " />
<glyph glyph-name="uni0312" unicode="&#x312;" horiz-adv-x="760" d="M700 1434 L309 1434 L60 892 L489 892 L700 1434 Z " />
<glyph glyph-name="uni0313" unicode="&#x313;" horiz-adv-x="760" d="M60 892 L451 892 L700 1434 L271 1434 L60 892 Z " />
<glyph glyph-name="uni0314" unicode="&#x314;" horiz-adv-x="760" d="M489 1434 L60 1434 L309 892 L700 892 L489 1434 Z " />
<glyph glyph-name="uni0315" unicode="&#x315;" horiz-adv-x="760" d="M60 892 L451 892 L700 1434 L271 1434 L60 892 Z " />
<glyph glyph-name="uni0316" unicode="&#x316;" horiz-adv-x="824" d="M513 -222 L60 -222 L374 -532 L764 -532 L513 -222 Z " />
<glyph glyph-name="uni0317" unicode="&#x317;" horiz-adv-x="824" d="M60 -532 L450 -532 L764 -222 L311 -222 L60 -532 Z " />
<glyph glyph-name="uni0318" unicode="&#x318;" horiz-adv-x="553" d="M245 -10 L245 -157 L60 -157 L60 -405 L245 -405 L245 -532 L493 -532 L493 -10 L245 -10 Z " />
<glyph glyph-name="uni0319" unicode="&#x319;" horiz-adv-x="553" d="M60 -10 L60 -532 L308 -532 L308 -405 L493 -405 L493 -157 L308 -157 L308 -10 L60 -10 Z " />
<glyph glyph-name="uni031A" unicode="&#x31a;" horiz-adv-x="553" d="M60 1434 L60 1186 L245 1186 L245 1059 L493 1059 L493 1434 L60 1434 Z " />
<glyph glyph-name="uni031B" unicode="&#x31b;" horiz-adv-x="581" d="M235 1434 C235 1358 212 1255 60 1255 L60 991 C500 991 521 1339 521 1434 L235 1434 Z " />
<glyph glyph-name="uni031C" unicode="&#x31c;" horiz-adv-x="493" d="M309 0 C309 76 348 134 433 134 L433 349 C155 349 60 190 60 0 C60 -190 155 -349 433 -349 L433 -134 C348 -134 309 -76 309 0 L309 0 Z " />
<glyph glyph-name="uni031D" unicode="&#x31d;" horiz-adv-x="738" d="M245 -137 L245 -284 L60 -284 L60 -532 L678 -532 L678 -284 L493 -284 L493 -137 L245 -137 Z " />
<glyph glyph-name="uni031E" unicode="&#x31e;" horiz-adv-x="738" d="M493 -532 L493 -385 L678 -385 L678 -137 L60 -137 L60 -385 L245 -385 L245 -532 L493 -532 Z " />
<glyph glyph-name="uni031F" unicode="&#x31f;" horiz-adv-x="573" d="M375 -224 L375 -86 L513 -86 L513 91 L375 91 L375 229 L198 229 L198 91 L60 91 L60 -86 L198 -86 L198 -224 L375 -224 Z " />
<glyph glyph-name="uni0320" unicode="&#x320;" horiz-adv-x="513" d="M60 -86 L453 -86 L453 91 L60 91 L60 -86 Z " />
<glyph glyph-name="uni0321" unicode="&#x321;" horiz-adv-x="688" d="M357 206 C357 -53 291 -157 60 -157 L60 -405 C472 -405 628 -210 628 206 L357 206 Z " />
<glyph glyph-name="uni0322" unicode="&#x322;" horiz-adv-x="688" d="M60 206 C60 -210 216 -405 628 -405 L628 -157 C397 -157 331 -53 331 206 L60 206 Z " />
<glyph glyph-name="dotbelowcomb" unicode="&#x323;" horiz-adv-x="552" d="M80 -336 C80 -444 168 -532 276 -532 C384 -532 472 -444 472 -336 C472 -228 384 -140 276 -140 C168 -140 80 -228 80 -336 L80 -336 Z " />
<glyph glyph-name="uni0324" unicode="&#x324;" horiz-adv-x="1003" d="M60 -336 C60 -444 148 -532 256 -532 C364 -532 452 -444 452 -336 C452 -228 364 -140 256 -140 C148 -140 60 -228 60 -336 L60 -336 Z M551 -336 C551 -444 639 -532 747 -532 C855 -532 943 -444 943 -336 C943 -228 855 -140 747 -140 C639 -140 551 -228 551 -336 L551 -336 Z " />
<glyph glyph-name="uni0325" unicode="&#x325;" horiz-adv-x="646" d="M60 -357 C60 -502 178 -620 323 -620 C468 -620 586 -502 586 -357 C586 -212 468 -94 323 -94 C178 -94 60 -212 60 -357 L60 -357 Z M250 -357 C250 -317 283 -284 323 -284 C363 -284 396 -317 396 -357 C396 -397 363 -430 323 -430 C283 -430 250 -397 250 -357 L250 -357 Z " />
<glyph glyph-name="commaaccent" unicode="&#x326;" horiz-adv-x="712" d="M80 -532 L441 -532 L632 -108 L233 -108 L80 -532 Z " />
<glyph glyph-name="uni0327" unicode="&#x327;" horiz-adv-x="779" d="M60 -565 C335 -666 689 -627 717 -359 C734 -197 611 -126 446 -126 L504 63 L251 63 L132 -306 C250 -290 454 -261 444 -352 C434 -454 186 -408 120 -386 L60 -565 Z " />
<glyph glyph-name="uni0328" unicode="&#x328;" horiz-adv-x="571" d="M206 0 C-34 -124 -6 -600 511 -532 L511 -261 C263 -284 294 -73 459 0 L206 0 Z " />
<glyph glyph-name="uni0329" unicode="&#x329;" horiz-adv-x="523" d="M60 -532 L463 -532 L463 -26 L60 -26 L60 -532 Z " />
<glyph glyph-name="uni032A" unicode="&#x32a;" horiz-adv-x="946" d="M60 -532 L332 -532 L332 -424 L614 -424 L614 -532 L886 -532 L886 -195 L60 -195 L60 -532 Z " />
<glyph glyph-name="uni032B" unicode="&#x32b;" horiz-adv-x="926" d="M463 -508 C488 -564 555 -602 630 -602 C801 -602 866 -500 866 -309 L866 -173 L647 -173 L647 -309 C647 -350 638 -370 610 -370 C571 -370 560 -336 560 -237 L366 -237 C366 -336 355 -370 316 -370 C288 -370 279 -350 279 -309 L279 -173 L60 -173 L60 -309 C60 -500 125 -602 296 -602 C371 -602 438 -564 463 -508 L463 -508 Z " />
<glyph glyph-name="uni032C" unicode="&#x32c;" horiz-adv-x="1048" d="M988 -241 L670 -241 L524 -340 L378 -241 L60 -241 L371 -532 L677 -532 L988 -241 Z " />
<glyph glyph-name="uni032D" unicode="&#x32d;" horiz-adv-x="1048" d="M677 -241 L371 -241 L60 -532 L378 -532 L524 -433 L670 -532 L988 -532 L677 -241 Z " />
<glyph glyph-name="uni032E" unicode="&#x32e;" horiz-adv-x="948" d="M474 -324 C400 -324 336 -305 312 -246 L60 -246 C82 -359 166 -532 474 -532 C782 -532 866 -359 888 -246 L636 -246 C612 -305 548 -324 474 -324 L474 -324 Z " />
<glyph glyph-name="uni032F" unicode="&#x32f;" horiz-adv-x="948" d="M474 -454 C548 -454 612 -473 636 -532 L888 -532 C866 -419 782 -246 474 -246 C166 -246 82 -419 60 -532 L312 -532 C336 -473 400 -454 474 -454 L474 -454 Z " />
<glyph glyph-name="uni0330" unicode="&#x330;" horiz-adv-x="1063" d="M503 -478 C537 -507 587 -532 668 -532 C982 -532 1003 -183 1003 -183 L728 -183 C728 -183 720 -261 653 -261 C606 -261 588 -238 560 -215 C526 -186 476 -161 395 -161 C81 -161 60 -510 60 -510 L335 -510 C335 -510 343 -432 410 -432 C457 -432 475 -455 503 -478 L503 -478 Z " />
<glyph glyph-name="uni0331" unicode="&#x331;" horiz-adv-x="1050" d="M60 -532 L990 -532 L990 -229 L60 -229 L60 -532 Z " />
<glyph glyph-name="uni0332" unicode="&#x332;" horiz-adv-x="1229" d="M80 -392 L1149 -392 L1149 -109 L80 -109 L80 -392 Z " />
<glyph glyph-name="uni0333" unicode="&#x333;" horiz-adv-x="1229" d="M80 -739 L1149 -739 L1149 -456 L80 -456 L80 -739 Z M80 -392 L1149 -392 L1149 -109 L80 -109 L80 -392 Z " />
<glyph glyph-name="uni0334" unicode="&#x334;" horiz-adv-x="1063" d="M503 592 C537 563 587 538 668 538 C982 538 1003 887 1003 887 L728 887 C728 887 720 809 653 809 C606 809 588 832 560 855 C526 884 476 909 395 909 C81 909 60 560 60 560 L335 560 C335 560 343 638 410 638 C457 638 475 615 503 592 L503 592 Z " />
<glyph glyph-name="uni0335" unicode="&#x335;" horiz-adv-x="958" d="M60 436 L898 436 L898 719 L60 719 L60 436 Z " />
<glyph glyph-name="uni0336" unicode="&#x336;" horiz-adv-x="1691" d="M60 436 L1631 436 L1631 719 L60 719 L60 436 Z " />
<glyph glyph-name="uni0337" unicode="&#x337;" horiz-adv-x="1383" d="M874 1143 L60 194 L509 194 L1323 1143 L874 1143 Z " />
<glyph glyph-name="uni0338" unicode="&#x338;" horiz-adv-x="1468" d="M60 0 L503 0 L1408 1434 L965 1434 L60 0 Z " />
<glyph glyph-name="uni0339" unicode="&#x339;" horiz-adv-x="493" d="M184 0 C184 -76 145 -134 60 -134 L60 -349 C338 -349 433 -190 433 0 C433 190 338 349 60 349 L60 134 C145 134 184 76 184 0 L184 0 Z " />
<glyph glyph-name="uni033A" unicode="&#x33a;" horiz-adv-x="946" d="M60 -532 L886 -532 L886 -195 L614 -195 L614 -303 L332 -303 L332 -195 L60 -195 L60 -532 Z " />
<glyph glyph-name="uni033B" unicode="&#x33b;" horiz-adv-x="598" d="M60 -572 L538 -572 L538 -104 L60 -104 L60 -572 Z M240 -284 L358 -284 L358 -392 L240 -392 L240 -284 Z " />
<glyph glyph-name="uni033C" unicode="&#x33c;" horiz-adv-x="926" d="M463 -261 C438 -205 371 -167 296 -167 C125 -167 60 -269 60 -460 L60 -495 L279 -495 L279 -460 C279 -419 288 -399 316 -399 C355 -399 366 -433 366 -532 L560 -532 C560 -433 571 -399 610 -399 C638 -399 647 -419 647 -460 L647 -495 L866 -495 L866 -460 C866 -269 801 -167 630 -167 C555 -167 488 -205 463 -261 L463 -261 Z " />
<glyph glyph-name="uni033D" unicode="&#x33d;" horiz-adv-x="1109" d="M554 1352 L463 1434 L60 1434 L353 1173 L60 912 L463 912 L554 993 L646 912 L1049 912 L756 1173 L1049 1434 L646 1434 L554 1352 Z " />
<glyph glyph-name="uni033E" unicode="&#x33e;" horiz-adv-x="491" d="M377 1309 C406 1343 431 1393 431 1474 C431 1788 82 1809 82 1809 L82 1534 C82 1534 160 1526 160 1459 C160 1412 137 1394 114 1366 C85 1332 60 1282 60 1201 C60 887 409 866 409 866 L409 1141 C409 1141 331 1149 331 1216 C331 1263 354 1281 377 1309 L377 1309 Z " />
<glyph glyph-name="uni033F" unicode="&#x33f;" horiz-adv-x="1229" d="M80 1516 L1149 1516 L1149 1799 L80 1799 L80 1516 Z M80 1863 L1149 1863 L1149 2146 L80 2146 L80 1863 Z " />
<glyph glyph-name="uni0340" unicode="&#x340;" horiz-adv-x="824" d="M513 1434 L60 1434 L374 1124 L764 1124 L513 1434 Z " />
<glyph glyph-name="uni0341" unicode="&#x341;" horiz-adv-x="824" d="M60 1124 L450 1124 L764 1434 L311 1434 L60 1124 Z " />
<glyph glyph-name="uni0342" unicode="&#x342;" horiz-adv-x="1063" d="M503 1217 C537 1188 587 1163 668 1163 C982 1163 1003 1512 1003 1512 L728 1512 C728 1512 720 1434 653 1434 C606 1434 588 1457 560 1480 C526 1509 476 1534 395 1534 C81 1534 60 1185 60 1185 L335 1185 C335 1185 343 1263 410 1263 C457 1263 475 1240 503 1217 L503 1217 Z " />
<glyph glyph-name="uni0343" unicode="&#x343;" horiz-adv-x="760" d="M60 892 L451 892 L700 1434 L271 1434 L60 892 Z " />
<glyph glyph-name="uni0344" unicode="&#x344;" horiz-adv-x="1003" d="M311 1580 L684 1580 L833 1958 L415 1958 L311 1580 Z M60 1344 C60 1236 148 1148 256 1148 C364 1148 452 1236 452 1344 C452 1452 364 1540 256 1540 C148 1540 60 1452 60 1344 L60 1344 Z M551 1344 C551 1236 639 1148 747 1148 C855 1148 943 1236 943 1344 C943 1452 855 1540 747 1540 C639 1540 551 1452 551 1344 L551 1344 Z " />
<glyph glyph-name="uni0345" unicode="&#x345;" horiz-adv-x="776" d="M561 -131 C536 -154 506 -174 469 -174 C426 -174 412 -144 412 -86 L412 56 L60 56 L60 -66 C60 -360 162 -494 398 -494 C544 -494 648 -436 716 -358 L561 -131 Z " />
<glyph glyph-name="uni0346" unicode="&#x346;" horiz-adv-x="946" d="M60 1097 L332 1097 L332 1205 L614 1205 L614 1097 L886 1097 L886 1434 L60 1434 L60 1097 Z " />
<glyph glyph-name="uni0347" unicode="&#x347;" horiz-adv-x="533" d="M60 26 L473 26 L473 203 L60 203 L60 26 Z M60 -204 L473 -204 L473 -27 L60 -27 L60 -204 Z " />
<glyph glyph-name="uni0348" unicode="&#x348;" horiz-adv-x="1000" d="M60 -532 L463 -532 L463 -26 L60 -26 L60 -532 Z M537 -532 L940 -532 L940 -26 L537 -26 L537 -532 Z " />
<glyph glyph-name="uni0349" unicode="&#x349;" horiz-adv-x="553" d="M60 -157 L60 -405 L245 -405 L245 -532 L493 -532 L493 -157 L60 -157 Z " />
<glyph glyph-name="uni034A" unicode="&#x34a;" horiz-adv-x="1063" d="M550 1635 L481 1522 C457 1529 428 1534 395 1534 C81 1534 60 1185 60 1185 L274 1185 L199 1062 L513 1062 L582 1174 C606 1167 634 1163 668 1163 C982 1163 1003 1512 1003 1512 L788 1512 L864 1635 L550 1635 Z " />
<glyph glyph-name="uni034B" unicode="&#x34b;" horiz-adv-x="1063" d="M462 1678 C462 1592 532 1522 618 1522 C704 1522 774 1592 774 1678 C774 1764 704 1834 618 1834 C532 1834 462 1764 462 1678 L462 1678 Z M289 1019 C289 933 359 863 445 863 C531 863 601 933 601 1019 C601 1105 531 1175 445 1175 C359 1175 289 1105 289 1019 L289 1019 Z M503 1217 C537 1188 587 1163 668 1163 C982 1163 1003 1512 1003 1512 L728 1512 C728 1512 720 1434 653 1434 C606 1434 588 1457 560 1480 C526 1509 476 1534 395 1534 C81 1534 60 1185 60 1185 L335 1185 C335 1185 343 1263 410 1263 C457 1263 475 1240 503 1217 L503 1217 Z " />
<glyph glyph-name="uni034C" unicode="&#x34c;" horiz-adv-x="922" d="M405 625 C456 586 520 550 616 550 C724 550 810 593 862 668 L862 987 C791 891 715 859 636 859 C583 859 552 872 517 896 C466 935 402 971 306 971 C198 971 112 928 60 853 L60 534 C131 630 207 662 286 662 C339 662 370 649 405 625 L405 625 Z M405 1072 C456 1033 520 997 616 997 C724 997 810 1040 862 1115 L862 1434 C791 1338 715 1306 636 1306 C583 1306 552 1319 517 1343 C466 1382 402 1418 306 1418 C198 1418 112 1375 60 1300 L60 981 C131 1077 207 1109 286 1109 C339 1109 370 1096 405 1072 L405 1072 Z " />
<glyph glyph-name="uni034D" unicode="&#x34d;" horiz-adv-x="2356" d="M574 -114 L706 8 L706 342 L60 -268 L706 -878 L706 -544 L574 -422 L1782 -422 L1650 -544 L1650 -878 L2296 -268 L1650 342 L1650 8 L1782 -114 L574 -114 Z " />
<glyph glyph-name="uni034E" unicode="&#x34e;" horiz-adv-x="1340" d="M824 -532 L824 -230 L946 -362 L1280 -362 L670 284 L60 -362 L394 -362 L516 -230 L516 -532 L824 -532 Z " />
<glyph glyph-name="tonos" unicode="&#x384;" horiz-adv-x="642" d="M60 1056 L433 1056 L582 1434 L164 1434 L60 1056 Z " />
<glyph glyph-name="dieresistonos" unicode="&#x385;" horiz-adv-x="1043" d="M331 1580 L704 1580 L853 1958 L435 1958 L331 1580 Z M80 1344 C80 1236 168 1148 276 1148 C384 1148 472 1236 472 1344 C472 1452 384 1540 276 1540 C168 1540 80 1452 80 1344 L80 1344 Z M571 1344 C571 1236 659 1148 767 1148 C875 1148 963 1236 963 1344 C963 1452 875 1540 767 1540 C659 1540 571 1452 571 1344 L571 1344 Z " />
<glyph glyph-name="Alphatonos" unicode="&#x386;" horiz-adv-x="1924" d="M20 1056 L393 1056 L542 1434 L124 1434 L20 1056 Z M1314 352 L1163 352 L1163 0 L1904 0 L1904 352 L1753 352 L1290 1434 L559 1434 L559 1082 L718 1082 L399 352 L248 352 L248 0 L989 0 L989 352 L837 352 L872 434 L1279 434 L1314 352 Z M1076 915 L1160 716 L991 716 L1076 915 Z " />
<glyph glyph-name="Epsilontonos" unicode="&#x388;" horiz-adv-x="2102" d="M80 1056 L453 1056 L602 1434 L184 1434 L80 1056 Z M622 0 L2022 0 L2022 489 L1599 489 L1599 352 L1204 352 L1204 554 L1569 554 L1569 897 L1204 897 L1204 1082 L1589 1082 L1589 945 L2012 945 L2012 1434 L622 1434 L622 1082 L781 1082 L781 352 L622 352 L622 0 Z " />
<glyph glyph-name="Etatonos" unicode="&#x389;" horiz-adv-x="2328" d="M10 1056 L383 1056 L532 1434 L114 1434 L10 1056 Z M711 1082 L711 352 L552 352 L552 0 L1293 0 L1293 352 L1134 352 L1134 554 L1666 554 L1666 352 L1507 352 L1507 0 L2248 0 L2248 352 L2089 352 L2089 1082 L2248 1082 L2248 1434 L1507 1434 L1507 1082 L1666 1082 L1666 906 L1134 906 L1134 1082 L1293 1082 L1293 1434 L552 1434 L552 1082 L711 1082 Z " />
<glyph glyph-name="Iotatonos" unicode="&#x38a;" horiz-adv-x="1373" d="M10 1056 L383 1056 L532 1434 L114 1434 L10 1056 Z M1134 1082 L1293 1082 L1293 1434 L552 1434 L552 1082 L711 1082 L711 352 L552 352 L552 0 L1293 0 L1293 352 L1134 352 L1134 1082 Z " />
<glyph glyph-name="Omicrontonos" unicode="&#x38c;" horiz-adv-x="2036" d="M60 1056 L433 1056 L582 1434 L164 1434 L60 1056 Z M1190 1474 C653 1474 404 1136 404 717 C404 298 653 -40 1190 -40 C1727 -40 1976 298 1976 717 C1976 1136 1727 1474 1190 1474 L1190 1474 Z M1190 1122 C1449 1122 1549 920 1549 717 C1549 514 1449 312 1190 312 C931 312 831 514 831 717 C831 920 931 1122 1190 1122 L1190 1122 Z " />
<glyph glyph-name="Upsilontonos" unicode="&#x38e;" horiz-adv-x="2140" d="M20 1056 L393 1056 L542 1434 L124 1434 L20 1056 Z M1957 1082 L2120 1082 L2120 1434 L1419 1434 L1419 1082 L1504 1082 L1336 838 L1168 1082 L1255 1082 L1255 1434 L554 1434 L554 1082 L716 1082 L1125 489 L1125 352 L966 352 L966 0 L1707 0 L1707 352 L1548 352 L1548 489 L1957 1082 Z " />
<glyph glyph-name="Omegatonos" unicode="&#x38f;" horiz-adv-x="2155" d="M60 1056 L433 1056 L582 1434 L164 1434 L60 1056 Z M1264 1474 C721 1474 433 1211 433 835 C433 586 620 419 816 352 L514 352 L514 0 L1195 0 L1195 332 C965 456 856 583 856 785 C856 984 998 1122 1264 1122 C1530 1122 1672 984 1672 785 C1672 583 1563 456 1333 332 L1333 0 L2014 0 L2014 352 L1712 352 C1908 419 2095 586 2095 835 C2095 1211 1807 1474 1264 1474 L1264 1474 Z " />
<glyph glyph-name="iotadieresistonos" unicode="&#x390;" horiz-adv-x="923" d="M271 1580 L644 1580 L793 1958 L375 1958 L271 1580 Z M20 1344 C20 1236 108 1148 216 1148 C324 1148 412 1236 412 1344 C412 1452 324 1540 216 1540 C108 1540 20 1452 20 1344 L20 1344 Z M511 1344 C511 1236 599 1148 707 1148 C815 1148 903 1236 903 1344 C903 1452 815 1540 707 1540 C599 1540 511 1452 511 1344 L511 1344 Z M663 441 L663 1046 L101 1046 L101 743 L260 743 L260 415 C260 216 276 0 637 0 L769 0 L769 303 L737 303 C663 303 663 364 663 441 L663 441 Z " />
<glyph glyph-name="Alpha" unicode="&#x391;" horiz-adv-x="1696" d="M1086 352 L935 352 L935 0 L1676 0 L1676 352 L1525 352 L1062 1434 L331 1434 L331 1082 L490 1082 L171 352 L20 352 L20 0 L761 0 L761 352 L609 352 L644 434 L1051 434 L1086 352 Z M848 915 L932 716 L763 716 L848 915 Z " />
<glyph glyph-name="Beta" unicode="&#x392;" horiz-adv-x="1638" d="M995 0 C1458 0 1578 235 1578 429 C1578 543 1535 694 1326 760 C1457 802 1529 915 1529 1039 C1529 1219 1443 1434 980 1434 L80 1434 L80 1082 L239 1082 L239 352 L80 352 L80 0 L995 0 Z M662 352 L662 573 L995 573 C1112 573 1168 541 1168 462 C1168 383 1112 352 995 352 L662 352 Z M662 874 L662 1082 L980 1082 C1089 1082 1123 1035 1123 978 C1123 921 1089 874 980 874 L662 874 Z " />
<glyph glyph-name="Gamma" unicode="&#x393;" horiz-adv-x="1557" d="M662 1082 L1054 1082 L1054 945 L1477 945 L1477 1434 L80 1434 L80 1082 L239 1082 L239 352 L80 352 L80 0 L821 0 L821 352 L662 352 L662 1082 Z " />
<glyph glyph-name="uni0394" unicode="&#x394;" horiz-adv-x="1696" d="M1676 0 L1676 352 L1525 352 L1062 1434 L331 1434 L331 1082 L490 1082 L171 352 L20 352 L20 0 L1676 0 Z M848 915 L1086 352 L609 352 L848 915 Z " />
<glyph glyph-name="Epsilon" unicode="&#x395;" horiz-adv-x="1560" d="M80 0 L1480 0 L1480 489 L1057 489 L1057 352 L662 352 L662 554 L1027 554 L1027 897 L662 897 L662 1082 L1047 1082 L1047 945 L1470 945 L1470 1434 L80 1434 L80 1082 L239 1082 L239 352 L80 352 L80 0 Z " />
<glyph glyph-name="Zeta" unicode="&#x396;" horiz-adv-x="1445" d="M1365 1434 L100 1434 L100 945 L523 945 L523 1082 L743 1082 L80 190 L80 0 L1365 0 L1365 489 L942 489 L942 352 L701 352 L1365 1245 L1365 1434 Z " />
<glyph glyph-name="Eta" unicode="&#x397;" horiz-adv-x="1856" d="M239 1082 L239 352 L80 352 L80 0 L821 0 L821 352 L662 352 L662 554 L1194 554 L1194 352 L1035 352 L1035 0 L1776 0 L1776 352 L1617 352 L1617 1082 L1776 1082 L1776 1434 L1035 1434 L1035 1082 L1194 1082 L1194 906 L662 906 L662 1082 L821 1082 L821 1434 L80 1434 L80 1082 L239 1082 Z " />
<glyph glyph-name="Theta" unicode="&#x398;" horiz-adv-x="1692" d="M592 541 L1101 541 L1101 893 L592 893 L592 541 Z M846 1474 C309 1474 60 1136 60 717 C60 298 309 -40 846 -40 C1383 -40 1632 298 1632 717 C1632 1136 1383 1474 846 1474 L846 1474 Z M846 1122 C1105 1122 1205 920 1205 717 C1205 514 1105 312 846 312 C587 312 487 514 487 717 C487 920 587 1122 846 1122 L846 1122 Z " />
<glyph glyph-name="Iota" unicode="&#x399;" horiz-adv-x="841" d="M632 1082 L791 1082 L791 1434 L50 1434 L50 1082 L209 1082 L209 352 L50 352 L50 0 L791 0 L791 352 L632 352 L632 1082 Z " />
<glyph glyph-name="Kappa" unicode="&#x39a;" horiz-adv-x="1675" d="M1449 1082 L1595 1082 L1595 1434 L900 1434 L900 1082 L964 1082 L662 866 L662 1082 L781 1082 L781 1434 L80 1434 L80 1082 L239 1082 L239 352 L80 352 L80 0 L781 0 L781 352 L662 352 L662 484 L766 563 L1128 0 L1595 0 L1595 352 L1420 352 L1101 818 L1449 1082 Z " />
<glyph glyph-name="Lambda" unicode="&#x39b;" horiz-adv-x="1696" d="M848 915 L1086 352 L935 352 L935 0 L1676 0 L1676 352 L1525 352 L1062 1434 L331 1434 L331 1082 L490 1082 L171 352 L20 352 L20 0 L761 0 L761 352 L609 352 L848 915 Z " />
<glyph glyph-name="Mu" unicode="&#x39c;" horiz-adv-x="2238" d="M1576 352 L1477 352 L1477 0 L2158 0 L2158 352 L1999 352 L1999 1082 L2158 1082 L2158 1434 L1434 1434 L1119 623 L805 1434 L80 1434 L80 1082 L239 1082 L239 352 L80 352 L80 0 L761 0 L761 352 L662 352 L662 777 L964 0 L1274 0 L1576 777 L1576 352 Z " />
<glyph glyph-name="Nu" unicode="&#x39d;" horiz-adv-x="1871" d="M80 0 L821 0 L821 352 L662 352 L662 807 L1137 0 L1632 0 L1632 1082 L1791 1082 L1791 1434 L1050 1434 L1050 1082 L1209 1082 L1209 627 L734 1434 L80 1434 L80 1082 L239 1082 L239 352 L80 352 L80 0 Z " />
<glyph glyph-name="Xi" unicode="&#x39e;" horiz-adv-x="1304" d="M60 1082 L1244 1082 L1244 1434 L60 1434 L60 1082 Z M60 0 L1244 0 L1244 352 L60 352 L60 0 Z M150 554 L1154 554 L1154 897 L150 897 L150 554 Z " />
<glyph glyph-name="Omicron" unicode="&#x39f;" horiz-adv-x="1692" d="M846 1474 C309 1474 60 1136 60 717 C60 298 309 -40 846 -40 C1383 -40 1632 298 1632 717 C1632 1136 1383 1474 846 1474 L846 1474 Z M846 1122 C1105 1122 1205 920 1205 717 C1205 514 1105 312 846 312 C587 312 487 514 487 717 C487 920 587 1122 846 1122 L846 1122 Z " />
<glyph glyph-name="Pi" unicode="&#x3a0;" horiz-adv-x="1839" d="M1600 1082 L1759 1082 L1759 1434 L80 1434 L80 1082 L239 1082 L239 352 L80 352 L80 0 L821 0 L821 352 L662 352 L662 1082 L1177 1082 L1177 352 L1018 352 L1018 0 L1759 0 L1759 352 L1600 352 L1600 1082 Z " />
<glyph glyph-name="Rho" unicode="&#x3a1;" horiz-adv-x="1580" d="M821 0 L821 352 L662 352 L662 456 L892 456 C1284 456 1520 603 1520 945 C1520 1287 1284 1434 892 1434 L80 1434 L80 1082 L239 1082 L239 352 L80 352 L80 0 L821 0 Z M892 1081 C1024 1081 1093 1045 1093 945 C1093 845 1024 809 892 809 L662 809 L662 1081 L892 1081 Z " />
<glyph glyph-name="Sigma" unicode="&#x3a3;" horiz-adv-x="1386" d="M80 0 L1306 0 L1306 489 L883 489 L883 352 L632 352 L921 717 L633 1082 L873 1082 L873 945 L1296 945 L1296 1434 L80 1434 L80 1176 L446 717 L80 259 L80 0 Z " />
<glyph glyph-name="Tau" unicode="&#x3a4;" horiz-adv-x="1641" d="M1561 1434 L80 1434 L80 945 L503 945 L503 1082 L609 1082 L609 352 L450 352 L450 0 L1191 0 L1191 352 L1032 352 L1032 1082 L1138 1082 L1138 945 L1561 945 L1561 1434 Z " />
<glyph glyph-name="Upsilon" unicode="&#x3a5;" horiz-adv-x="1606" d="M1423 1082 L1586 1082 L1586 1434 L885 1434 L885 1082 L970 1082 L802 838 L634 1082 L721 1082 L721 1434 L20 1434 L20 1082 L182 1082 L591 489 L591 352 L432 352 L432 0 L1173 0 L1173 352 L1014 352 L1014 489 L1423 1082 Z " />
<glyph glyph-name="Phi" unicode="&#x3a6;" horiz-adv-x="1789" d="M683 231 L524 231 L524 0 L1265 0 L1265 231 L1106 231 L1106 275 C1412 275 1729 367 1729 717 C1729 1067 1412 1159 1106 1159 L1106 1203 L1265 1203 L1265 1434 L524 1434 L524 1203 L683 1203 L683 1159 C377 1159 60 1067 60 717 C60 367 377 275 683 275 L683 231 Z M1106 537 L1106 897 C1234 897 1306 849 1306 717 C1306 585 1234 537 1106 537 L1106 537 Z M683 537 C555 537 483 585 483 717 C483 849 555 897 683 897 L683 537 Z " />
<glyph glyph-name="Chi" unicode="&#x3a7;" horiz-adv-x="1504" d="M433 1434 L58 1434 L58 1082 L217 1082 L478 745 L179 352 L20 352 L20 0 L701 0 L701 352 L654 352 L752 481 L1110 0 L1484 0 L1484 352 L1324 352 L1025 745 L1286 1082 L1436 1082 L1436 1434 L756 1434 L756 1082 L806 1082 L752 1013 L433 1434 Z " />
<glyph glyph-name="Psi" unicode="&#x3a8;" horiz-adv-x="2029" d="M644 1434 L644 1082 L803 1082 L803 786 C636 862 574 1070 574 1434 L20 1434 L20 1082 L183 1082 C271 650 545 487 803 429 L803 352 L644 352 L644 0 L1385 0 L1385 352 L1226 352 L1226 429 C1484 487 1758 650 1846 1082 L2009 1082 L2009 1434 L1455 1434 C1455 1070 1393 862 1226 786 L1226 1082 L1385 1082 L1385 1434 L644 1434 Z " />
<glyph glyph-name="uni03A9" unicode="&#x3a9;" horiz-adv-x="1782" d="M891 1474 C348 1474 60 1211 60 835 C60 586 247 419 443 352 L141 352 L141 0 L822 0 L822 332 C592 456 483 583 483 785 C483 984 625 1122 891 1122 C1157 1122 1299 984 1299 785 C1299 583 1190 456 960 332 L960 0 L1641 0 L1641 352 L1339 352 C1535 419 1722 586 1722 835 C1722 1211 1434 1474 891 1474 L891 1474 Z " />
<glyph glyph-name="Iotadieresis" unicode="&#x3aa;" horiz-adv-x="963" d="M40 1732 C40 1624 128 1536 236 1536 C344 1536 432 1624 432 1732 C432 1840 344 1928 236 1928 C128 1928 40 1840 40 1732 L40 1732 Z M531 1732 C531 1624 619 1536 727 1536 C835 1536 923 1624 923 1732 C923 1840 835 1928 727 1928 C619 1928 531 1840 531 1732 L531 1732 Z M693 1082 L852 1082 L852 1434 L111 1434 L111 1082 L270 1082 L270 352 L111 352 L111 0 L852 0 L852 352 L693 352 L693 1082 Z " />
<glyph glyph-name="Upsilondieresis" unicode="&#x3ab;" horiz-adv-x="1606" d="M361 1732 C361 1624 449 1536 557 1536 C665 1536 753 1624 753 1732 C753 1840 665 1928 557 1928 C449 1928 361 1840 361 1732 L361 1732 Z M852 1732 C852 1624 940 1536 1048 1536 C1156 1536 1244 1624 1244 1732 C1244 1840 1156 1928 1048 1928 C940 1928 852 1840 852 1732 L852 1732 Z M1423 1082 L1586 1082 L1586 1434 L885 1434 L885 1082 L970 1082 L802 838 L634 1082 L721 1082 L721 1434 L20 1434 L20 1082 L182 1082 L591 489 L591 352 L432 352 L432 0 L1173 0 L1173 352 L1014 352 L1014 489 L1423 1082 Z " />
<glyph glyph-name="alphatonos" unicode="&#x3ac;" horiz-adv-x="1531" d="M1330 523 C1330 852 1491 1046 1491 1046 L1038 1046 C1008 1003 985 942 970 873 C885 1042 713 1076 593 1076 C248 1076 40 863 40 523 C40 183 248 -30 593 -30 C713 -30 885 4 970 173 C985 104 1008 43 1038 0 L1491 0 C1491 0 1330 194 1330 523 L1330 523 Z M685 773 C833 773 927 671 927 523 C927 375 833 273 685 273 C537 273 443 375 443 523 C443 671 537 773 685 773 L685 773 Z M507 1138 L880 1138 L1029 1516 L611 1516 L507 1138 Z " />
<glyph glyph-name="epsilontonos" unicode="&#x3ad;" horiz-adv-x="1140" d="M397 1138 L770 1138 L919 1516 L501 1516 L397 1138 Z M657 711 L1060 711 L1060 958 C1060 958 868 1076 604 1076 C319 1076 69 993 69 747 C69 673 113 576 214 532 C118 501 40 408 40 304 C40 61 261 -30 604 -30 C791 -30 966 12 1080 117 L874 344 C800 294 709 273 604 273 C477 273 443 292 443 334 C443 381 522 385 782 385 L782 666 C523 666 472 684 472 724 C472 753 502 773 604 773 C622 773 640 772 657 771 L657 711 Z " />
<glyph glyph-name="etatonos" unicode="&#x3ae;" horiz-adv-x="1493" d="M602 1138 L975 1138 L1124 1516 L706 1516 L602 1138 Z M971 -229 L812 -229 L812 -532 L1533 -532 L1533 -229 L1374 -229 L1374 579 C1374 877 1220 1076 905 1076 C795 1076 673 1031 622 939 L622 1046 L60 1046 L60 743 L219 743 L219 303 L60 303 L60 0 L781 0 L781 303 L622 303 L622 579 C622 704 672 773 796 773 C921 773 971 704 971 579 L971 -229 Z " />
<glyph glyph-name="iotatonos" unicode="&#x3af;" horiz-adv-x="773" d="M191 1138 L564 1138 L713 1516 L295 1516 L191 1138 Z M582 441 L582 1046 L20 1046 L20 743 L179 743 L179 415 C179 216 195 0 556 0 L688 0 L688 303 L656 303 C582 303 582 364 582 441 L582 441 Z " />
<glyph glyph-name="upsilondieresistonos" unicode="&#x3b0;" horiz-adv-x="1465" d="M1385 509 L1385 1046 L823 1046 L823 743 L982 743 L982 509 C982 377 949 273 802 273 C655 273 622 377 622 509 L622 1046 L60 1046 L60 743 L219 743 L219 509 C219 147 437 -30 802 -30 C1167 -30 1385 147 1385 509 L1385 509 Z M612 1580 L985 1580 L1134 1958 L716 1958 L612 1580 Z M361 1344 C361 1236 449 1148 557 1148 C665 1148 753 1236 753 1344 C753 1452 665 1540 557 1540 C449 1540 361 1452 361 1344 L361 1344 Z M852 1344 C852 1236 940 1148 1048 1148 C1156 1148 1244 1236 1244 1344 C1244 1452 1156 1540 1048 1540 C940 1540 852 1452 852 1344 L852 1344 Z " />
</font>
</svg>
