<?xml version="1.0" encoding="UTF-8"?>
<svg xmlns="http://www.w3.org/2000/svg" xmlns:xlink="http://www.w3.org/1999/xlink" version="1.2" >
<font id="Artegra Slab ExtraLight It">
<font-face  font-family="Artegra Slab" units-per-em="2048" ascent="1516" descent="-532" font-style="italic" font-weight="100" font-stretch="normal" cap-height="1434" x-height="990" underline-position="-154" underline-thickness="102" />
<missing-glyph  horiz-adv-x="922" d="" />
<glyph glyph-name="NULL" d="" />
<glyph glyph-name="CR" unicode="&#xd;" horiz-adv-x="922" d="" />
<glyph glyph-name="space" unicode="&#x20;" horiz-adv-x="573" d="" />
<glyph glyph-name="exclam" unicode="&#x21;" horiz-adv-x="494" d="M256 300 L342 300 L547 1434 L451 1434 L256 300 Z M181 67 C174 24 202 -10 245 -10 C294 -10 328 24 335 67 C343 110 315 144 272 144 C223 144 189 110 181 67 L181 67 Z " />
<glyph glyph-name="quotedbl" unicode="&#x22;" horiz-adv-x="470" d="M258 1036 L342 1036 L428 1434 L312 1434 L258 1036 Z M492 1036 L577 1036 L662 1434 L546 1434 L492 1036 Z " />
<glyph glyph-name="numbersign" unicode="&#x23;" horiz-adv-x="1292" d="M695 0 L791 0 L939 444 L1187 444 L1202 529 L968 529 L1094 905 L1341 905 L1356 990 L1122 990 L1271 1434 L1176 1434 L1027 990 L701 990 L850 1434 L755 1434 L606 990 L359 990 L344 905 L577 905 L451 529 L203 529 L188 444 L423 444 L274 0 L370 0 L518 444 L844 444 L695 0 Z M673 905 L998 905 L872 529 L547 529 L673 905 Z " />
<glyph glyph-name="dollar" unicode="&#x24;" horiz-adv-x="1309" d="M1201 1170 L1297 1170 L1328 1349 C1328 1349 1174 1439 956 1452 L990 1650 L900 1650 L866 1453 C539 1444 393 1297 364 1098 C337 914 445 771 780 699 C1121 626 1166 523 1138 360 C1106 173 934 68 695 68 C450 68 278 169 278 169 L301 305 L205 305 L173 122 C173 122 322 1 606 -17 L571 -216 L661 -216 L696 -20 C969 -15 1197 101 1238 360 C1274 587 1152 717 812 789 C513 852 443 957 468 1098 C501 1283 658 1366 885 1366 C1023 1366 1134 1341 1223 1296 L1201 1170 Z " />
<glyph glyph-name="ampersand" unicode="&#x26;" horiz-adv-x="1474" d="M1364 0 L1379 88 L1364 88 C1243 88 1106 175 1053 226 C1124 323 1192 480 1236 620 L1412 620 L1427 708 L1163 708 C1120 554 1044 383 983 293 C855 413 738 583 651 734 L843 854 C991 947 1052 1056 1066 1167 C1088 1343 998 1454 814 1454 C624 1454 492 1340 453 1120 C433 1004 460 890 522 769 C401 682 200 572 166 330 C132 86 310 -20 539 -20 C691 -20 855 28 987 150 C1082 68 1208 0 1350 0 L1364 0 Z M266 330 C303 540 499 636 563 681 C659 520 792 345 919 218 C819 120 686 68 548 68 C374 68 234 149 266 330 L266 330 Z M610 820 C558 920 533 1029 549 1120 C581 1304 697 1365 804 1365 C943 1365 992 1286 972 1167 C958 1083 907 1004 792 933 L610 820 Z " />
<glyph glyph-name="quotesingle" unicode="&#x27;" horiz-adv-x="236" d="M258 1036 L343 1036 L428 1434 L312 1434 L258 1036 Z " />
<glyph glyph-name="parenleft" unicode="&#x28;" horiz-adv-x="734" d="M610 -233 C610 -233 199 -139 330 590 C457 1298 893 1403 893 1403 L878 1495 C878 1495 375 1392 234 590 C92 -213 565 -315 565 -315 L610 -233 Z " />
<glyph glyph-name="parenright" unicode="&#x29;" horiz-adv-x="734" d="M331 1413 C331 1413 742 1319 611 590 C484 -118 48 -223 48 -223 L63 -315 C63 -315 566 -212 707 590 C849 1393 376 1495 376 1495 L331 1413 Z " />
<glyph glyph-name="asterisk" unicode="&#x2a;" horiz-adv-x="886" d="M745 761 L829 817 L691 1050 L998 1130 L981 1230 L688 1140 L741 1434 L636 1434 L597 1140 L335 1230 L292 1143 L559 1052 L341 817 L429 761 L623 995 L745 761 Z " />
<glyph glyph-name="plus" unicode="&#x2b;" horiz-adv-x="1150" d="M1172 753 L754 753 L828 1173 L734 1173 L660 753 L242 753 L226 663 L644 663 L570 243 L664 243 L738 663 L1156 663 L1172 753 Z " />
<glyph glyph-name="comma" unicode="&#x2c;" horiz-adv-x="465" d="M52 -211 L136 -211 L387 186 L274 186 L52 -211 Z " />
<glyph glyph-name="hyphen" unicode="&#x2d;" horiz-adv-x="836" d="M197 499 L813 499 L829 589 L213 589 L197 499 Z " />
<glyph glyph-name="period" unicode="&#x2e;" horiz-adv-x="374" d="M121 67 C114 24 142 -10 185 -10 C234 -10 268 24 275 67 C283 110 255 144 212 144 C163 144 129 110 121 67 L121 67 Z " />
<glyph glyph-name="slash" unicode="&#x2f;" horiz-adv-x="1025" d="M130 0 L236 0 L1147 1434 L1041 1434 L130 0 Z " />
<glyph glyph-name="zero" unicode="0" horiz-adv-x="1300" d="M235 717 C165 319 281 -20 651 -20 C1040 -20 1247 319 1317 717 C1387 1114 1272 1454 903 1454 C513 1454 305 1114 235 717 L235 717 Z M334 717 C395 1064 583 1366 891 1366 C1208 1366 1281 1064 1220 717 C1159 370 969 68 662 68 C344 68 273 370 334 717 L334 717 Z " />
<glyph glyph-name="one" unicode="1" horiz-adv-x="752" d="M596 1285 L385 88 L209 88 L194 0 L642 0 L657 88 L481 88 L718 1434 L643 1434 L259 1131 L312 1060 L596 1285 Z " />
<glyph glyph-name="two" unicode="2" horiz-adv-x="1174" d="M444 1127 C483 1194 597 1366 838 1366 C1065 1366 1143 1254 1114 1091 C1090 954 999 863 861 732 C789 665 143 76 143 76 L130 0 L1046 0 L1092 264 L996 264 L965 88 L295 88 C295 88 868 611 925 664 C1075 806 1183 918 1211 1091 C1248 1323 1101 1454 844 1454 C524 1454 386 1224 351 1159 L444 1127 Z " />
<glyph glyph-name="three" unicode="3" horiz-adv-x="1140" d="M145 205 C145 205 201 -20 561 -20 C831 -20 1055 99 1099 384 C1138 635 949 717 842 741 C916 758 1143 818 1186 1076 C1225 1307 1069 1454 807 1454 C467 1454 356 1235 356 1235 L330 1085 L426 1085 L446 1200 C450 1208 542 1366 795 1366 C1021 1366 1118 1248 1088 1082 C1045 835 784 782 597 782 L582 696 C823 696 1046 641 1001 390 C962 168 805 68 566 68 C315 68 255 192 244 223 L266 349 L170 349 L145 205 Z " />
<glyph glyph-name="four" unicode="4" horiz-adv-x="1286" d="M926 401 L871 88 L695 88 L680 0 L1128 0 L1143 88 L967 88 L1022 401 L1246 401 L1262 489 L1038 489 L1204 1434 L1108 1434 L214 480 L200 401 L926 401 Z M343 489 L1080 1276 L942 489 L343 489 Z " />
<glyph glyph-name="five" unicode="5" horiz-adv-x="1176" d="M1210 1434 L444 1434 L272 689 C272 689 458 823 725 823 C1001 823 1059 642 1024 444 C989 248 867 68 591 68 C415 68 309 130 255 176 L280 320 L184 320 L154 149 C185 109 306 -20 586 -20 C909 -20 1079 191 1124 444 C1169 699 1043 911 740 911 C566 911 448 862 401 839 L516 1346 L1195 1346 L1210 1434 Z " />
<glyph glyph-name="six" unicode="6" horiz-adv-x="1226" d="M1215 1416 C635 1600 261 1126 218 457 C208 298 234 -20 617 -20 C1013 -20 1146 283 1176 459 C1212 671 1144 938 778 938 C606 938 431 860 337 679 C449 1182 722 1440 1107 1347 L1087 1235 L1183 1235 L1215 1416 Z M1080 459 C1048 279 915 68 629 68 C341 68 283 279 315 459 C346 638 479 850 767 850 C1073 850 1111 638 1080 459 L1080 459 Z " />
<glyph glyph-name="seven" unicode="7" horiz-adv-x="1172" d="M273 88 L258 0 L706 0 L721 88 L544 88 L1282 1364 L1294 1434 L382 1434 L336 1170 L432 1170 L463 1346 L1164 1346 L436 88 L273 88 Z " />
<glyph glyph-name="eight" unicode="8" horiz-adv-x="1192" d="M178 391 C128 108 370 -20 596 -20 C852 -20 1100 94 1150 387 C1182 575 1069 695 945 744 C1095 799 1203 908 1232 1073 C1274 1312 1086 1454 848 1454 C591 1454 380 1316 338 1077 C309 912 399 811 511 756 C359 707 211 579 178 391 L178 391 Z M278 389 C314 592 497 707 720 707 C942 707 1086 592 1050 389 C1013 180 823 68 607 68 C391 68 241 180 278 389 L278 389 Z M438 1075 C472 1265 663 1366 836 1366 C1020 1366 1166 1265 1132 1075 C1099 885 908 787 734 787 C551 787 405 885 438 1075 L438 1075 Z " />
<glyph glyph-name="nine" unicode="9" horiz-adv-x="1226" d="M263 18 C843 -166 1217 308 1260 977 C1270 1136 1244 1454 861 1454 C465 1454 332 1151 302 975 C266 763 334 496 700 496 C872 496 1047 574 1141 755 C1029 252 756 -6 371 87 L391 199 L295 199 L263 18 Z M398 975 C430 1155 563 1366 849 1366 C1137 1366 1195 1155 1163 975 C1132 796 999 584 711 584 C405 584 367 796 398 975 L398 975 Z " />
<glyph glyph-name="colon" unicode="&#x3a;" horiz-adv-x="374" d="M121 67 C114 24 142 -10 185 -10 C234 -10 268 24 275 67 C283 110 255 144 212 144 C163 144 129 110 121 67 L121 67 Z M272 923 C265 880 293 846 336 846 C385 846 419 880 426 923 C434 966 406 1000 363 1000 C314 1000 280 966 272 923 L272 923 Z " />
<glyph glyph-name="semicolon" unicode="&#x3b;" horiz-adv-x="397" d="M-27 -211 L57 -211 L308 186 L195 186 L-27 -211 Z M295 923 C288 880 316 846 359 846 C408 846 442 880 449 923 C457 966 429 1000 386 1000 C337 1000 303 966 295 923 L295 923 Z " />
<glyph glyph-name="less" unicode="&#x3c;" horiz-adv-x="1146" d="M222 639 L212 579 L1035 113 L1053 212 L357 601 L1193 996 L1210 1105 L222 639 Z " />
<glyph glyph-name="equal" unicode="&#x3d;" horiz-adv-x="993" d="M201 518 L974 518 L989 606 L216 606 L201 518 Z M252 808 L1025 808 L1040 896 L267 896 L252 808 Z " />
<glyph glyph-name="greater" unicode="&#x3e;" horiz-adv-x="1146" d="M324 1105 L307 1006 L1003 617 L167 222 L149 113 L1138 579 L1148 639 L324 1105 Z " />
<glyph glyph-name="question" unicode="&#x3f;" horiz-adv-x="1077" d="M430 67 C423 24 451 -10 494 -10 C543 -10 577 24 584 67 C592 110 564 144 521 144 C472 144 438 110 430 67 L430 67 Z M596 300 L660 666 C1038 705 1149 919 1175 1069 C1205 1239 1119 1454 781 1454 C527 1454 364 1308 303 1210 L379 1162 C442 1252 573 1366 771 1366 C1013 1366 1109 1242 1079 1069 C1037 830 821 739 578 734 L502 300 L596 300 Z " />
<glyph glyph-name="at" unicode="&#x40;" horiz-adv-x="1626" d="M1291 26 C1149 -84 956 -132 794 -132 C420 -132 238 132 306 517 C374 902 669 1166 1023 1166 C1417 1166 1580 902 1512 517 C1488 379 1397 289 1305 289 C1197 289 1175 388 1203 522 C1224 625 1250 729 1275 837 C1203 880 1119 904 1020 904 C887 904 622 834 526 517 C464 321 537 123 765 123 C953 123 1084 306 1123 415 C1119 376 1118 200 1289 201 C1462 202 1579 332 1612 517 C1689 954 1453 1254 1039 1254 C615 1254 283 962 206 517 C130 77 365 -220 779 -220 C969 -220 1183 -180 1348 -51 L1291 26 Z M1006 816 C1066 816 1147 804 1175 789 C1175 789 1143 656 1114 561 C1047 332 918 209 783 209 C620 209 577 354 624 517 C699 759 892 820 1006 816 L1006 816 Z " />
<glyph glyph-name="A" unicode="A" horiz-adv-x="1700" d="M1197 88 L1182 0 L1630 0 L1645 88 L1472 88 L1145 1434 L843 1434 L828 1346 L1005 1346 L256 88 L85 88 L70 0 L518 0 L533 88 L367 88 L595 475 L1282 475 L1374 88 L1197 88 Z M1261 563 L647 563 L1085 1306 L1261 563 Z " />
<glyph glyph-name="B" unicode="B" horiz-adv-x="1475" d="M881 0 C1261 0 1403 201 1435 399 C1460 556 1411 695 1231 753 C1393 811 1473 940 1495 1072 C1523 1239 1441 1434 1113 1434 L382 1434 L367 1346 L542 1346 L321 88 L145 88 L130 0 L881 0 Z M417 88 L527 710 L1066 710 C1321 710 1361 558 1333 399 C1305 239 1181 88 896 88 L417 88 Z M542 798 L639 1346 L1098 1346 C1353 1346 1420 1230 1393 1072 C1368 924 1256 798 1081 798 L542 798 Z " />
<glyph glyph-name="C" unicode="C" horiz-adv-x="1376" d="M826 68 C438 68 274 365 336 717 C398 1069 687 1366 1055 1366 C1268 1366 1379 1299 1379 1299 L1356 1170 L1452 1170 L1483 1349 C1483 1349 1350 1454 1071 1454 C632 1454 303 1130 234 717 C165 304 392 -20 811 -20 C1004 -20 1156 12 1301 102 L1252 178 C1123 107 1006 68 826 68 L826 68 Z " />
<glyph glyph-name="D" unicode="D" horiz-adv-x="1502" d="M1542 717 C1606 1120 1454 1434 965 1434 L382 1434 L367 1346 L542 1346 L321 88 L145 88 L130 0 L713 0 C1212 0 1475 295 1542 717 L1542 717 Z M639 1346 L950 1346 C1398 1346 1502 1068 1440 717 C1378 366 1176 88 728 88 L417 88 L639 1346 Z " />
<glyph glyph-name="E" unicode="E" horiz-adv-x="1374" d="M1344 1170 L1440 1170 L1486 1434 L382 1434 L367 1346 L543 1346 L321 88 L145 88 L130 0 L1244 0 L1290 264 L1194 264 L1163 88 L417 88 L523 690 L1237 690 L1253 778 L539 778 L639 1346 L1375 1346 L1344 1170 Z " />
<glyph glyph-name="F" unicode="F" horiz-adv-x="1364" d="M593 88 L417 88 L523 690 L1237 690 L1253 778 L539 778 L639 1346 L1375 1346 L1344 1170 L1440 1170 L1486 1434 L382 1434 L367 1346 L543 1346 L321 88 L145 88 L130 0 L578 0 L593 88 Z " />
<glyph glyph-name="G" unicode="G" horiz-adv-x="1475" d="M826 68 C438 68 274 365 336 717 C398 1069 687 1366 1055 1366 C1332 1366 1462 1275 1462 1275 L1444 1170 L1540 1170 L1567 1327 C1567 1327 1396 1454 1071 1454 C632 1454 303 1130 234 717 C165 304 392 -20 811 -20 C984 -20 1206 20 1369 140 L1480 771 L991 771 L976 681 L1369 681 L1282 192 C1167 110 971 68 826 68 L826 68 Z " />
<glyph glyph-name="H" unicode="H" horiz-adv-x="1668" d="M130 0 L578 0 L593 88 L417 88 L523 690 L1387 690 L1281 88 L1105 88 L1090 0 L1538 0 L1553 88 L1377 88 L1599 1346 L1775 1346 L1790 1434 L1342 1434 L1327 1346 L1503 1346 L1403 778 L539 778 L639 1346 L815 1346 L830 1434 L382 1434 L367 1346 L543 1346 L321 88 L145 88 L130 0 Z " />
<glyph glyph-name="I" unicode="I" horiz-adv-x="708" d="M130 0 L578 0 L593 88 L417 88 L639 1346 L815 1346 L830 1434 L382 1434 L367 1346 L543 1346 L321 88 L145 88 L130 0 Z " />
<glyph glyph-name="J" unicode="J" horiz-adv-x="1157" d="M123 192 C158 66 264 -20 452 -20 C728 -20 872 123 927 432 L1087 1346 L1264 1346 L1279 1434 L831 1434 L816 1346 L991 1346 L831 432 C792 212 708 68 457 68 C293 68 237 147 205 226 L123 192 Z " />
<glyph glyph-name="K" unicode="K" horiz-adv-x="1536" d="M130 0 L578 0 L593 88 L417 88 L497 539 L753 752 L1198 0 L1406 0 L1421 88 L1257 88 L827 813 L1471 1346 L1633 1346 L1648 1434 L1200 1434 L1185 1346 L1338 1346 L519 670 L639 1346 L815 1346 L830 1434 L382 1434 L367 1346 L543 1346 L321 88 L145 88 L130 0 Z " />
<glyph glyph-name="L" unicode="L" horiz-adv-x="1285" d="M130 0 L1155 0 L1201 264 L1105 264 L1074 88 L417 88 L639 1346 L815 1346 L830 1434 L382 1434 L367 1346 L543 1346 L321 88 L145 88 L130 0 Z " />
<glyph glyph-name="M" unicode="M" horiz-adv-x="1990" d="M130 0 L578 0 L593 88 L417 88 L631 1302 L950 0 L1040 0 L1817 1302 L1603 88 L1427 88 L1412 0 L1860 0 L1875 88 L1699 88 L1921 1346 L2097 1346 L2112 1434 L1790 1434 L1013 132 L694 1434 L382 1434 L367 1346 L543 1346 L321 88 L145 88 L130 0 Z " />
<glyph glyph-name="N" unicode="N" horiz-adv-x="1678" d="M145 88 L130 0 L578 0 L593 88 L418 88 L632 1302 L1263 0 L1373 0 L1609 1346 L1785 1346 L1800 1434 L1352 1434 L1337 1346 L1513 1346 L1300 132 L669 1434 L382 1434 L367 1346 L543 1346 L322 88 L145 88 Z " />
<glyph glyph-name="O" unicode="O" horiz-adv-x="1629" d="M234 717 C165 304 392 -20 811 -20 C1260 -20 1580 294 1648 717 C1716 1140 1480 1454 1071 1454 C632 1454 303 1130 234 717 L234 717 Z M336 717 C398 1069 687 1366 1055 1366 C1443 1366 1606 1069 1546 717 C1484 355 1214 68 826 68 C438 68 274 365 336 717 L336 717 Z " />
<glyph glyph-name="P" unicode="P" horiz-adv-x="1442" d="M145 88 L130 0 L578 0 L593 88 L417 88 L506 590 L1002 590 C1238 590 1465 731 1512 1012 C1557 1281 1366 1434 1150 1434 L382 1434 L367 1346 L542 1346 L321 88 L145 88 Z M1135 1346 C1337 1346 1449 1221 1412 1012 C1375 803 1219 678 1017 678 L521 678 L639 1346 L1135 1346 Z " />
<glyph glyph-name="Q" unicode="Q" horiz-adv-x="1629" d="M234 717 C165 304 392 -20 811 -20 C952 -20 1080 11 1192 67 L1283 -70 L1412 -70 L1278 116 C1475 247 1607 462 1648 717 C1716 1140 1480 1454 1071 1454 C632 1454 303 1130 234 717 L234 717 Z M336 717 C398 1069 687 1366 1055 1366 C1443 1366 1606 1069 1546 717 C1508 498 1394 306 1225 189 L1114 344 L1008 344 L1143 141 C1050 94 943 68 826 68 C438 68 274 365 336 717 L336 717 Z " />
<glyph glyph-name="R" unicode="R" horiz-adv-x="1474" d="M130 0 L578 0 L593 88 L417 88 L513 630 L943 630 L1140 0 L1364 0 L1379 88 L1208 88 L1039 630 C1289 636 1468 790 1505 1032 C1538 1248 1445 1434 1190 1434 L382 1434 L367 1346 L543 1346 L321 88 L145 88 L130 0 Z M1175 1346 C1377 1346 1434 1194 1405 1032 C1377 870 1266 718 1064 718 L528 718 L639 1346 L1175 1346 Z " />
<glyph glyph-name="S" unicode="S" horiz-adv-x="1309" d="M1201 1170 L1297 1170 L1328 1349 C1328 1349 1148 1454 901 1454 C550 1454 394 1304 364 1098 C337 914 445 771 780 699 C1121 626 1166 523 1138 360 C1106 173 934 68 695 68 C450 68 278 169 278 169 L301 305 L205 305 L173 122 C173 122 348 -20 680 -20 C960 -20 1196 96 1238 360 C1274 587 1152 717 812 789 C513 852 443 957 468 1098 C501 1283 658 1366 885 1366 C1023 1366 1134 1341 1223 1296 L1201 1170 Z " />
<glyph glyph-name="T" unicode="T" horiz-adv-x="1436" d="M1003 1346 L1447 1346 L1416 1170 L1512 1170 L1558 1434 L382 1434 L336 1170 L432 1170 L463 1346 L907 1346 L685 88 L509 88 L494 0 L942 0 L957 88 L781 88 L1003 1346 Z " />
<glyph glyph-name="U" unicode="U" horiz-adv-x="1693" d="M1800 1346 L1815 1434 L1367 1434 L1352 1346 L1527 1346 L1391 571 C1333 243 1139 68 858 68 C586 68 446 255 502 571 L638 1346 L815 1346 L830 1434 L382 1434 L367 1346 L542 1346 L406 571 C338 183 557 -20 843 -20 C1137 -20 1409 127 1487 571 L1623 1346 L1800 1346 Z " />
<glyph glyph-name="V" unicode="V" horiz-adv-x="1662" d="M1829 1346 L1844 1434 L1396 1434 L1381 1346 L1549 1346 L850 128 L579 1346 L755 1346 L770 1434 L322 1434 L307 1346 L480 1346 L784 0 L882 0 L1657 1346 L1829 1346 Z " />
<glyph glyph-name="W" unicode="W" horiz-adv-x="2252" d="M1494 0 L1590 0 L2244 1346 L2419 1346 L2434 1434 L1986 1434 L1971 1346 L2144 1346 L1568 148 L1437 1434 L1317 1434 L734 148 L580 1346 L755 1346 L770 1434 L322 1434 L307 1346 L482 1346 L662 0 L760 0 L1359 1317 L1494 0 Z " />
<glyph glyph-name="X" unicode="X" horiz-adv-x="1574" d="M925 822 L587 1434 L375 1434 L360 1346 L526 1346 L860 752 L251 88 L85 88 L70 0 L518 0 L533 88 L373 88 L913 683 L1292 0 L1504 0 L1519 88 L1353 88 L978 752 L1522 1346 L1688 1346 L1703 1434 L1255 1434 L1240 1346 L1400 1346 L925 822 Z " />
<glyph glyph-name="Y" unicode="Y" horiz-adv-x="1578" d="M580 88 L565 0 L1013 0 L1028 88 L852 88 L939 581 L1576 1346 L1745 1346 L1760 1434 L1312 1434 L1297 1346 L1451 1346 L900 681 L586 1346 L755 1346 L770 1434 L322 1434 L307 1346 L475 1346 L843 581 L756 88 L580 88 Z " />
<glyph glyph-name="Z" unicode="Z" horiz-adv-x="1324" d="M130 0 L1194 0 L1240 264 L1144 264 L1113 88 L291 88 L1437 1380 L1446 1434 L430 1434 L384 1170 L480 1170 L511 1346 L1284 1346 L139 54 L130 0 Z " />
<glyph glyph-name="bracketleft" unicode="&#x5b;" horiz-adv-x="700" d="M495 1346 L817 1346 L832 1434 L414 1434 L103 -323 L521 -323 L537 -235 L215 -235 L495 1346 Z " />
<glyph glyph-name="backslash" unicode="&#x5c;" horiz-adv-x="1021" d="M484 1434 L382 1434 L789 0 L891 0 L484 1434 Z " />
<glyph glyph-name="bracketright" unicode="&#x5d;" horiz-adv-x="700" d="M400 -235 L78 -235 L63 -323 L481 -323 L792 1434 L374 1434 L358 1346 L680 1346 L400 -235 Z " />
<glyph glyph-name="asciicircum" unicode="&#x5e;" horiz-adv-x="958" d="M766 1434 L688 1434 L265 880 L378 880 L713 1299 L904 880 L1003 880 L766 1434 Z " />
<glyph glyph-name="underscore" unicode="&#x5f;" horiz-adv-x="1153" d="M89 -229 L982 -229 L998 -141 L105 -141 L89 -229 Z " />
<glyph glyph-name="grave" unicode="&#x60;" horiz-adv-x="538" d="M478 1434 L342 1434 L549 1163 L653 1163 L478 1434 Z " />
<glyph glyph-name="a" unicode="a" horiz-adv-x="1308" d="M1102 990 L1062 761 C1027 899 906 1010 719 1010 C419 1010 197 809 145 495 C93 181 253 -20 537 -20 C754 -20 884 85 965 214 L928 0 L1198 0 L1211 78 L1033 78 L1180 912 L1358 912 L1372 990 L1102 990 Z M705 932 C981 932 1054 720 1015 495 C975 270 817 58 551 58 C275 58 201 270 241 495 C280 720 439 932 705 932 L705 932 Z " />
<glyph glyph-name="b" unicode="b" horiz-adv-x="1339" d="M647 1516 L377 1516 L363 1438 L540 1438 L288 0 L380 0 L420 229 C455 91 576 -20 763 -20 C1063 -20 1285 181 1337 495 C1389 809 1229 1010 945 1010 C728 1010 598 905 517 776 L647 1516 Z M777 58 C501 58 428 270 467 495 C507 720 665 932 931 932 C1207 932 1281 720 1241 495 C1202 270 1043 58 777 58 L777 58 Z " />
<glyph glyph-name="c" unicode="c" horiz-adv-x="1062" d="M605 58 C340 58 226 248 270 495 C313 742 500 932 759 932 C922 932 1014 876 1014 876 L989 736 L1081 736 L1113 915 C1113 915 1006 1010 773 1010 C449 1010 225 790 176 495 C126 193 289 -20 591 -20 C727 -20 868 6 973 79 L927 149 C829 85 726 58 605 58 L605 58 Z " />
<glyph glyph-name="d" unicode="d" horiz-adv-x="1339" d="M1318 1516 L1048 1516 L1034 1438 L1212 1438 L1093 761 C1058 899 937 1010 750 1010 C450 1010 228 809 176 495 C124 181 284 -20 568 -20 C785 -20 915 85 996 214 L959 0 L1229 0 L1242 78 L1064 78 L1318 1516 Z M736 932 C1012 932 1085 720 1046 495 C1006 270 848 58 582 58 C306 58 232 270 272 495 C311 720 470 932 736 932 L736 932 Z " />
<glyph glyph-name="e" unicode="e" horiz-adv-x="1107" d="M563 58 C330 58 238 238 266 455 L1097 455 C1165 840 979 1010 727 1010 C443 1010 229 796 176 495 C123 194 279 -20 553 -20 C757 -20 881 24 971 76 L930 150 C844 100 726 58 563 58 L563 58 Z M279 533 C329 752 500 932 717 932 C966 932 1041 753 1013 533 L279 533 Z " />
<glyph glyph-name="f" unicode="f" horiz-adv-x="820" d="M250 912 L464 912 L317 78 L139 78 L126 0 L574 0 L587 78 L409 78 L556 912 L869 912 L883 990 L570 990 L585 1075 C627 1314 650 1459 880 1459 C929 1459 971 1451 1006 1438 L1045 1508 C1003 1525 950 1536 893 1536 C610 1536 548 1389 493 1075 L478 990 L264 990 L250 912 Z " />
<glyph glyph-name="g" unicode="g" horiz-adv-x="1334" d="M1384 912 L1398 990 L1128 990 L1088 761 C1053 899 932 1010 745 1010 C445 1010 223 809 171 495 C119 181 299 -20 563 -20 C780 -20 910 85 991 214 L954 0 C899 -304 749 -452 480 -452 C366 -452 250 -417 165 -352 L116 -426 C209 -498 338 -532 466 -532 C743 -532 971 -424 1046 0 L1206 912 L1384 912 Z M731 932 C1007 932 1080 720 1041 495 C1001 270 853 58 577 58 C321 58 227 270 267 495 C306 720 465 932 731 932 L731 932 Z " />
<glyph glyph-name="h" unicode="h" horiz-adv-x="1408" d="M474 538 C516 775 637 932 868 932 C1099 932 1164 775 1122 538 L1028 0 L1298 0 L1311 78 L1133 78 L1214 538 C1268 840 1146 1010 882 1010 C720 1010 583 925 520 795 L647 1516 L377 1516 L363 1438 L541 1438 L301 78 L123 78 L110 0 L558 0 L571 78 L393 78 L474 538 Z " />
<glyph glyph-name="i" unicode="i" horiz-adv-x="666" d="M448 912 L301 78 L123 78 L110 0 L558 0 L571 78 L393 78 L554 990 L284 990 L270 912 L448 912 Z M480 1270 C473 1229 501 1195 542 1195 C589 1195 623 1229 630 1270 C638 1311 610 1345 569 1345 C522 1345 488 1311 480 1270 L480 1270 Z " />
<glyph glyph-name="j" unicode="j" horiz-adv-x="473" d="M488 990 L218 990 L204 912 L382 912 L209 -72 C172 -281 129 -454 -35 -454 C-86 -454 -126 -446 -160 -431 L-198 -504 C-162 -523 -111 -532 -48 -532 C180 -532 249 -366 301 -72 L488 990 Z M416 1270 C409 1229 437 1195 478 1195 C525 1195 559 1229 566 1270 C574 1311 546 1345 505 1345 C458 1345 424 1311 416 1270 L416 1270 Z " />
<glyph glyph-name="k" unicode="k" horiz-adv-x="1305" d="M468 501 L647 1516 L377 1516 L363 1438 L541 1438 L301 78 L123 78 L110 0 L558 0 L571 78 L393 78 L446 376 L636 521 L996 0 L1195 0 L1208 78 L1049 78 L706 574 L1150 912 L1314 912 L1328 990 L880 990 L866 912 L1008 912 L468 501 Z " />
<glyph glyph-name="l" unicode="l" horiz-adv-x="668" d="M541 1438 L301 78 L123 78 L110 0 L558 0 L571 78 L393 78 L647 1516 L377 1516 L363 1438 L541 1438 Z " />
<glyph glyph-name="m" unicode="m" horiz-adv-x="2022" d="M301 78 L123 78 L110 0 L558 0 L571 78 L393 78 L470 512 C510 742 612 932 836 932 C1063 932 1095 742 1055 512 L965 0 L1235 0 L1248 78 L1070 78 L1147 512 C1187 742 1289 932 1513 932 C1740 932 1772 742 1732 512 L1642 0 L1912 0 L1925 78 L1747 78 L1824 512 C1879 825 1788 1010 1527 1010 C1313 1010 1200 856 1155 751 C1141 828 1111 1010 850 1010 C703 1010 598 940 522 810 L554 990 L284 990 L270 912 L448 912 L301 78 Z " />
<glyph glyph-name="n" unicode="n" horiz-adv-x="1408" d="M474 538 C516 775 637 932 868 932 C1099 932 1164 775 1122 538 L1028 0 L1298 0 L1311 78 L1133 78 L1214 538 C1268 840 1156 1010 882 1010 C720 1010 583 925 520 795 L554 990 L284 990 L270 912 L448 912 L301 78 L123 78 L110 0 L558 0 L571 78 L393 78 L474 538 Z " />
<glyph glyph-name="o" unicode="o" horiz-adv-x="1192" d="M177 495 C124 193 290 -20 592 -20 C904 -20 1136 193 1189 495 C1242 797 1076 1010 774 1010 C460 1010 230 796 177 495 L177 495 Z M271 495 C314 742 505 932 760 932 C1044 932 1138 742 1095 495 C1051 248 860 58 606 58 C331 58 227 248 271 495 L271 495 Z " />
<glyph glyph-name="p" unicode="p" horiz-adv-x="1339" d="M554 990 L284 990 L270 912 L448 912 L207 -454 L29 -454 L16 -532 L464 -532 L477 -454 L299 -454 L420 229 C455 91 576 -20 763 -20 C1063 -20 1285 181 1337 495 C1389 809 1229 1010 945 1010 C728 1010 598 905 517 776 L554 990 Z M777 58 C501 58 428 270 467 495 C507 720 665 932 931 932 C1207 932 1281 720 1241 495 C1202 270 1043 58 777 58 L777 58 Z " />
<glyph glyph-name="q" unicode="q" horiz-adv-x="1339" d="M1133 990 L1093 761 C1058 899 937 1010 750 1010 C450 1010 228 809 176 495 C124 181 284 -20 568 -20 C785 -20 915 85 996 214 L878 -454 L700 -454 L687 -532 L1135 -532 L1148 -454 L971 -454 L1211 912 L1389 912 L1403 990 L1133 990 Z M736 932 C1012 932 1085 720 1046 495 C1006 270 848 58 582 58 C306 58 232 270 272 495 C311 720 470 932 736 932 L736 932 Z " />
<glyph glyph-name="r" unicode="r" horiz-adv-x="943" d="M301 78 L123 78 L110 0 L558 0 L571 78 L393 78 L474 538 C516 775 637 932 868 932 C929 932 978 921 1017 901 L1074 971 C1022 997 959 1010 882 1010 C720 1010 583 925 520 795 L554 990 L284 990 L270 912 L448 912 L301 78 Z " />
<glyph glyph-name="s" unicode="s" horiz-adv-x="992" d="M876 736 L968 736 L1003 935 C1003 935 854 1010 666 1010 C390 1010 282 886 260 753 C238 620 312 527 576 475 C796 432 855 374 835 258 C816 148 706 58 524 58 C424 58 314 80 224 128 L251 280 L159 280 L125 89 C225 12 374 -20 510 -20 C733 -20 894 73 927 258 C954 413 851 505 606 552 C387 594 335 653 352 753 C371 860 467 932 652 932 C766 932 840 912 902 884 L876 736 Z " />
<glyph glyph-name="t" unicode="t" horiz-adv-x="786" d="M230 912 L444 912 L349 373 C305 123 339 -20 566 -20 C613 -20 675 -14 727 4 L707 80 C663 64 619 58 580 58 C381 58 413 215 453 441 L536 912 L849 912 L863 990 L550 990 L603 1288 L511 1288 L458 990 L244 990 L230 912 Z " />
<glyph glyph-name="u" unicode="u" horiz-adv-x="1408" d="M459 452 L554 990 L284 990 L270 912 L448 912 L367 452 C314 150 426 -20 700 -20 C862 -20 999 65 1062 195 L1028 0 L1298 0 L1311 78 L1133 78 L1294 990 L1024 990 L1010 912 L1188 912 L1107 452 C1065 215 945 58 714 58 C483 58 417 215 459 452 L459 452 Z " />
<glyph glyph-name="v" unicode="v" horiz-adv-x="1418" d="M718 912 L732 990 L284 990 L270 912 L437 912 L659 0 L760 0 L1300 912 L1468 912 L1482 990 L1034 990 L1020 912 L1186 912 L723 111 L539 912 L718 912 Z " />
<glyph glyph-name="w" unicode="w" horiz-adv-x="1906" d="M587 0 L690 0 L1102 845 L1224 0 L1325 0 L1786 912 L1956 912 L1970 990 L1522 990 L1508 912 L1685 912 L1295 117 L1171 990 L1079 990 L653 117 L543 912 L718 912 L732 990 L284 990 L270 912 L446 912 L587 0 Z " />
<glyph glyph-name="x" unicode="x" horiz-adv-x="1390" d="M1394 912 L1408 990 L960 990 L946 912 L1102 912 L797 602 L551 990 L330 990 L316 912 L484 912 L727 529 L283 78 L123 78 L110 0 L558 0 L571 78 L418 78 L781 446 L1064 0 L1280 0 L1293 78 L1130 78 L851 519 L1237 912 L1394 912 Z " />
<glyph glyph-name="y" unicode="y" horiz-adv-x="1420" d="M1470 912 L1484 990 L1036 990 L1022 912 L1189 912 L725 111 L542 912 L718 912 L732 990 L284 990 L270 912 L442 912 L664 0 L513 -255 C446 -368 394 -454 260 -454 L168 -454 L155 -532 L247 -532 C430 -532 488 -450 582 -291 L1297 912 L1470 912 Z " />
<glyph glyph-name="z" unicode="z" horiz-adv-x="1030" d="M110 0 L920 0 L964 254 L872 254 L841 78 L272 78 L1086 946 L1094 990 L318 990 L273 736 L365 736 L396 912 L932 912 L117 44 L110 0 Z " />
<glyph glyph-name="braceleft" unicode="&#x7b;" horiz-adv-x="816" d="M208 558 C369 529 464 451 414 165 C365 -113 458 -274 664 -274 L680 -187 C513 -187 470 -53 510 172 C564 478 463 560 373 595 C475 630 605 722 658 1028 C697 1253 793 1385 950 1385 L965 1474 C749 1474 613 1323 564 1035 C515 749 394 671 223 642 L208 558 Z " />
<glyph glyph-name="bar" unicode="&#x7c;" horiz-adv-x="358" d="M36 -532 L134 -532 L480 1434 L382 1434 L36 -532 Z " />
<glyph glyph-name="braceright" unicode="&#x7d;" horiz-adv-x="815" d="M818 642 C657 671 562 749 612 1035 C661 1313 568 1474 362 1474 L346 1387 C513 1387 556 1253 516 1028 C462 722 563 640 653 605 C551 570 421 478 368 172 C329 -53 233 -185 76 -185 L61 -274 C277 -274 413 -123 462 165 C511 451 632 529 803 558 L818 642 Z " />
<glyph glyph-name="asciitilde" unicode="&#x7e;" horiz-adv-x="1024" d="M619 703 C662 648 710 594 802 594 C1014 594 1057 813 1057 813 L961 813 C961 813 925 681 818 681 C741 681 707 735 666 787 C622 842 575 895 483 895 C271 895 229 676 229 676 L325 676 C325 676 361 808 468 808 C545 808 577 756 619 703 L619 703 Z " />
<glyph glyph-name="uni00A0" unicode="&#xa0;" horiz-adv-x="573" d="" />
<glyph glyph-name="exclamdown" unicode="&#xa1;" horiz-adv-x="414" d="M356 602 L270 602 L65 -532 L161 -532 L356 602 Z M431 835 C438 878 410 912 367 912 C318 912 284 878 277 835 C269 792 297 758 340 758 C389 758 423 792 431 835 L431 835 Z " />
<glyph glyph-name="cent" unicode="&#xa2;" horiz-adv-x="1022" d="M540 -18 L507 -206 L597 -206 L630 -19 C753 -14 878 13 973 79 L927 149 C829 85 726 58 605 58 C340 58 226 248 270 495 C313 742 500 932 759 932 C922 932 1014 876 1014 876 L989 736 L1081 736 L1113 915 C1113 915 1017 1000 811 1009 L846 1204 L756 1204 L721 1008 C425 986 222 774 176 495 C129 210 271 5 540 -18 L540 -18 Z " />
<glyph glyph-name="sterling" unicode="&#xa3;" horiz-adv-x="1290" d="M248 671 L409 671 C413 535 417 463 405 393 C375 224 221 74 221 74 L208 0 L1125 0 L1140 88 L347 88 C347 88 467 207 499 386 C514 475 510 569 507 671 L993 671 L1008 759 L504 759 C504 759 500 890 515 975 C553 1188 690 1366 963 1366 C1199 1366 1262 1242 1290 1170 L1373 1213 C1351 1286 1259 1454 969 1454 C583 1454 455 1185 418 975 C404 896 408 796 407 759 L263 759 L248 671 Z " />
<glyph glyph-name="currency" unicode="&#xa4;" horiz-adv-x="929" d="M284 1082 C284 998 312 921 359 859 L240 740 L313 668 L431 786 C493 739 570 712 654 712 C737 712 814 739 876 786 L995 668 L1068 740 L949 859 C996 921 1024 998 1024 1082 C1024 1165 996 1243 949 1305 L1067 1423 L994 1496 L876 1378 C814 1424 737 1452 654 1452 C570 1452 493 1424 431 1377 L313 1496 L241 1423 L358 1304 C311 1242 284 1165 284 1082 L284 1082 Z M367 1080 C367 1238 496 1367 654 1367 C812 1367 941 1238 941 1080 C941 922 812 793 654 793 C496 793 367 922 367 1080 L367 1080 Z " />
<glyph glyph-name="yen" unicode="&#xa5;" horiz-adv-x="1658" d="M508 369 L492 281 L830 281 L796 88 L620 88 L605 0 L1053 0 L1068 88 L892 88 L926 281 L1264 281 L1280 369 L941 369 L963 493 L1301 493 L1317 581 L979 581 L1616 1346 L1785 1346 L1800 1434 L1352 1434 L1337 1346 L1491 1346 L940 681 L626 1346 L795 1346 L810 1434 L362 1434 L347 1346 L515 1346 L883 581 L545 581 L529 493 L867 493 L845 369 L508 369 Z " />
<glyph glyph-name="brokenbar" unicode="&#xa6;" horiz-adv-x="356" d="M247 665 L343 665 L478 1434 L382 1434 L247 665 Z M36 -532 L132 -532 L267 238 L171 238 L36 -532 Z " />
<glyph glyph-name="section" unicode="&#xa7;" horiz-adv-x="1301" d="M1230 360 C1266 587 1144 717 804 789 C505 852 435 957 460 1098 C493 1283 650 1366 877 1366 C1015 1366 1126 1341 1215 1296 L1193 1170 L1289 1170 L1320 1349 C1320 1349 1140 1454 893 1454 C542 1454 386 1304 356 1098 C342 1006 363 924 429 856 C325 794 253 697 232 562 C196 335 318 205 658 133 C957 70 1027 -35 1002 -176 C969 -361 812 -444 585 -444 C447 -444 336 -419 247 -374 L269 -248 L173 -248 L142 -427 C142 -427 322 -532 569 -532 C920 -532 1076 -382 1106 -176 C1119 -83 1099 -1 1033 66 C1136 128 1209 225 1230 360 L1230 360 Z M772 699 C1113 626 1158 523 1130 360 C1112 254 1050 175 956 126 C891 165 804 198 690 223 C349 296 304 399 332 562 C349 667 412 746 506 795 C571 756 658 723 772 699 L772 699 Z " />
<glyph glyph-name="dieresis" unicode="&#xa8;" horiz-adv-x="695" d="M333 1270 C326 1229 354 1195 395 1195 C442 1195 476 1229 483 1270 C491 1311 463 1345 422 1345 C375 1345 341 1311 333 1270 L333 1270 Z M658 1270 C651 1229 679 1195 720 1195 C767 1195 801 1229 808 1270 C816 1311 788 1345 747 1345 C700 1345 666 1311 658 1270 L658 1270 Z " />
<glyph glyph-name="copyright" unicode="&#xa9;" horiz-adv-x="1670" d="M642 716 C642 911 758 1055 954 1055 C1043 1055 1099 1046 1189 981 L1238 1058 C1145 1127 1061 1153 954 1153 C693 1153 538 956 538 716 C538 476 693 279 954 279 C1061 279 1145 305 1238 374 L1189 451 C1099 386 1042 377 954 377 C758 377 642 521 642 716 L642 716 Z M224 717 C224 310 554 -20 961 -20 C1368 -20 1698 310 1698 717 C1698 1124 1368 1454 961 1454 C554 1454 224 1124 224 717 L224 717 Z M312 717 C312 1075 603 1366 961 1366 C1319 1366 1610 1075 1610 717 C1610 359 1319 68 961 68 C603 68 312 359 312 717 L312 717 Z " />
<glyph glyph-name="ordfeminine" unicode="&#xaa;" horiz-adv-x="785" d="M596 1361 C751 1361 762 1295 741 1177 C544 1190 260 1168 223 935 C197 774 310 704 441 704 C566 704 643 765 686 852 L661 714 L850 714 L865 797 L761 797 L822 1142 C857 1339 810 1444 605 1444 C456 1444 359 1385 359 1385 L387 1310 C387 1310 476 1361 596 1361 L596 1361 Z M312 935 C340 1094 542 1114 730 1104 L719 1039 C690 879 594 787 449 787 C349 787 294 829 312 935 L312 935 Z " />
<glyph glyph-name="guillemotleft" unicode="&#xab;" horiz-adv-x="1325" d="M222 638 L213 586 L741 109 L762 232 L341 604 L896 978 L918 1115 L222 638 Z M695 638 L686 586 L1214 109 L1235 232 L814 604 L1369 978 L1391 1115 L695 638 Z " />
<glyph glyph-name="logicalnot" unicode="&#xac;" horiz-adv-x="1168" d="M235 711 L1087 711 L1014 300 L1110 300 L1198 799 L250 799 L235 711 Z " />
<glyph glyph-name="uni00AD" unicode="&#xad;" horiz-adv-x="974" d="M214 591 L968 591 L983 679 L229 679 L214 591 Z " />
<glyph glyph-name="registered" unicode="&#xae;" horiz-adv-x="1050" d="M261 1012 C261 768 459 570 703 570 C947 570 1145 768 1145 1012 C1145 1256 947 1454 703 1454 C459 1454 261 1256 261 1012 L261 1012 Z M313 1012 C313 1227 488 1402 703 1402 C918 1402 1093 1227 1093 1012 C1093 797 918 622 703 622 C488 622 313 797 313 1012 L313 1012 Z M556 752 L596 979 L712 979 L807 752 L859 752 L762 985 C825 990 893 1038 908 1126 C924 1215 875 1272 791 1272 L597 1272 L505 752 L556 752 Z M782 1223 C842 1223 865 1185 855 1126 C844 1066 808 1028 748 1028 L605 1028 L639 1223 L782 1223 Z " />
<glyph glyph-name="macron" unicode="&#xaf;" horiz-adv-x="896" d="M349 1356 L1025 1356 L1038 1434 L362 1434 L349 1356 Z " />
<glyph glyph-name="degree" unicode="&#xb0;" horiz-adv-x="520" d="M254 1214 C232 1093 314 994 435 994 C574 994 672 1093 694 1214 C715 1335 633 1434 512 1434 C373 1434 275 1335 254 1214 L254 1214 Z M325 1214 C339 1296 408 1363 500 1363 C592 1363 637 1296 623 1214 C608 1132 539 1065 447 1065 C355 1065 310 1132 325 1214 L325 1214 Z " />
<glyph glyph-name="plusminus" unicode="&#xb1;" horiz-adv-x="1150" d="M1084 252 L154 252 L138 162 L1068 162 L1084 252 Z M1196 887 L778 887 L852 1307 L758 1307 L684 887 L266 887 L250 797 L668 797 L594 377 L688 377 L762 797 L1180 797 L1196 887 Z " />
<glyph glyph-name="twosuperior" unicode="&#xb2;" horiz-adv-x="578" d="M369 1252 C388 1282 438 1361 536 1361 C625 1361 651 1317 641 1262 C629 1191 572 1130 516 1077 C501 1062 196 774 196 774 L185 714 L644 714 L675 886 L588 886 L572 797 L339 797 C339 797 542 991 577 1024 C648 1091 716 1170 728 1262 C743 1373 674 1444 545 1444 C389 1444 318 1323 298 1282 L369 1252 Z " />
<glyph glyph-name="threesuperior" unicode="&#xb3;" horiz-adv-x="577" d="M200 809 C200 809 245 704 417 704 C544 704 651 756 678 911 C697 1016 641 1068 581 1089 C631 1108 703 1156 720 1252 C740 1363 673 1444 535 1444 C374 1444 310 1326 310 1326 L294 1235 L381 1235 L393 1304 C417 1327 462 1361 526 1361 C617 1361 645 1320 634 1258 C618 1167 538 1132 413 1132 L399 1050 C527 1050 612 1030 592 917 C577 833 521 787 425 787 C345 787 307 821 292 840 L303 903 L216 903 L200 809 Z " />
<glyph glyph-name="acute" unicode="&#xb4;" horiz-adv-x="538" d="M295 1163 L399 1163 L700 1434 L564 1434 L295 1163 Z " />
<glyph glyph-name="mu" unicode="&#xb5;" horiz-adv-x="1408" d="M448 912 L207 -454 L29 -454 L16 -532 L464 -532 L477 -454 L299 -454 L416 205 C433 75 538 -20 700 -20 C862 -20 1001 75 1064 205 L1028 0 L1298 0 L1311 78 L1133 78 L1294 990 L1024 990 L1010 912 L1188 912 L1107 452 C1065 215 925 58 714 58 C503 58 417 215 459 452 L554 990 L284 990 L270 912 L448 912 Z " />
<glyph glyph-name="paragraph" unicode="&#xb6;" horiz-adv-x="1169" d="M732 1434 C488 1434 329 1249 293 1046 C257 842 371 657 595 657 L752 657 L637 0 L733 0 L970 1346 L1090 1346 L853 0 L949 0 L1186 1346 L1296 1346 L1311 1434 L732 1434 Z M874 1346 L768 745 L611 745 C423 745 364 896 391 1046 C417 1195 529 1346 717 1346 L874 1346 Z " />
<glyph glyph-name="periodcentered" unicode="&#xb7;" horiz-adv-x="374" d="M227 664 C220 621 248 587 291 587 C340 587 374 621 381 664 C389 707 361 741 318 741 C269 741 235 707 227 664 L227 664 Z " />
<glyph glyph-name="cedilla" unicode="&#xb8;" horiz-adv-x="555" d="M18 -404 C138 -480 381 -481 416 -285 C436 -176 348 -127 256 -125 L341 36 L255 36 L133 -196 C243 -186 352 -192 329 -281 C297 -400 160 -384 65 -342 L18 -404 Z " />
<glyph glyph-name="onesuperior" unicode="&#xb9;" horiz-adv-x="438" d="M412 1282 L326 796 L221 796 L206 714 L503 714 L518 796 L413 796 L525 1434 L464 1434 L252 1261 L303 1194 L412 1282 Z " />
<glyph glyph-name="ordmasculine" unicode="&#xba;" horiz-adv-x="756" d="M887 1074 C917 1285 837 1444 626 1444 C415 1444 278 1293 247 1074 C217 863 297 704 508 704 C719 704 856 855 887 1074 L887 1074 Z M800 1074 C769 899 678 787 516 787 C354 787 303 899 334 1074 C365 1249 455 1361 617 1361 C779 1361 831 1249 800 1074 L800 1074 Z " />
<glyph glyph-name="guillemotright" unicode="&#xbb;" horiz-adv-x="1325" d="M326 1115 L304 992 L725 620 L170 246 L149 109 L845 586 L854 638 L326 1115 Z M799 1115 L777 992 L1198 620 L643 246 L622 109 L1318 586 L1327 638 L799 1115 Z " />
<glyph glyph-name="onequarter" unicode="&#xbc;" horiz-adv-x="1313" d="M180 0 L282 0 L1358 1434 L1256 1434 L180 0 Z M886 0 L1183 0 L1197 82 L1092 82 L1110 182 L1215 182 L1229 264 L1124 264 L1204 720 L1123 720 L695 246 L684 182 L1023 182 L1005 82 L900 82 L886 0 Z M813 264 L1091 571 L1037 264 L813 264 Z M512 1282 L426 796 L321 796 L306 714 L603 714 L618 796 L513 796 L625 1434 L564 1434 L352 1261 L403 1194 L512 1282 Z " />
<glyph glyph-name="onehalf" unicode="&#xbd;" horiz-adv-x="1398" d="M180 0 L282 0 L1358 1434 L1256 1434 L180 0 Z M512 1282 L426 796 L321 796 L306 714 L603 714 L618 796 L513 796 L625 1434 L564 1434 L352 1261 L403 1194 L512 1282 Z M993 538 C1012 568 1062 647 1160 647 C1249 647 1275 603 1265 548 C1253 477 1196 416 1140 363 C1125 348 820 60 820 60 L809 0 L1268 0 L1299 172 L1212 172 L1196 83 L963 83 C963 83 1166 277 1201 310 C1272 377 1340 456 1352 548 C1367 659 1298 730 1169 730 C1013 730 942 609 922 568 L993 538 Z " />
<glyph glyph-name="threequarters" unicode="&#xbe;" horiz-adv-x="1405" d="M272 0 L374 0 L1450 1434 L1348 1434 L272 0 Z M978 0 L1275 0 L1289 82 L1184 82 L1202 182 L1307 182 L1321 264 L1216 264 L1296 720 L1215 720 L787 246 L776 182 L1115 182 L1097 82 L992 82 L978 0 Z M905 264 L1183 571 L1129 264 L905 264 Z M270 809 C270 809 315 704 487 704 C614 704 721 756 748 911 C767 1016 711 1068 651 1089 C701 1108 773 1156 790 1252 C810 1363 743 1444 605 1444 C444 1444 380 1326 380 1326 L364 1235 L451 1235 L463 1304 C487 1327 532 1361 596 1361 C687 1361 715 1320 704 1258 C688 1167 608 1132 483 1132 L469 1050 C597 1050 682 1030 662 917 C647 833 591 787 495 787 C415 787 377 821 362 840 L373 903 L286 903 L270 809 Z " />
<glyph glyph-name="questiondown" unicode="&#xbf;" horiz-adv-x="917" d="M725 835 C732 878 704 912 661 912 C612 912 578 878 571 835 C563 792 591 758 634 758 C683 758 717 792 725 835 L725 835 Z M559 602 L495 236 C117 197 6 -17 -20 -167 C-50 -337 36 -552 374 -552 C628 -552 791 -406 852 -308 L776 -260 C713 -350 582 -464 384 -464 C142 -464 46 -340 76 -167 C118 72 334 163 577 168 L653 602 L559 602 Z " />
<glyph glyph-name="Agrave" unicode="&#xc0;" horiz-adv-x="1700" d="M973 1807 L837 1807 L1043 1536 L1147 1536 L973 1807 Z M1197 88 L1182 0 L1630 0 L1645 88 L1472 88 L1145 1434 L843 1434 L828 1346 L1005 1346 L256 88 L85 88 L70 0 L518 0 L533 88 L367 88 L595 475 L1282 475 L1374 88 L1197 88 Z M1261 563 L647 563 L1085 1306 L1261 563 Z " />
<glyph glyph-name="Aacute" unicode="&#xc1;" horiz-adv-x="1700" d="M1071 1536 L1175 1536 L1477 1807 L1341 1807 L1071 1536 Z M1197 88 L1182 0 L1630 0 L1645 88 L1472 88 L1145 1434 L843 1434 L828 1346 L1005 1346 L256 88 L85 88 L70 0 L518 0 L533 88 L367 88 L595 475 L1282 475 L1374 88 L1197 88 Z M1261 563 L647 563 L1085 1306 L1261 563 Z " />
<glyph glyph-name="Acircumflex" unicode="&#xc2;" horiz-adv-x="1700" d="M1197 88 L1182 0 L1630 0 L1645 88 L1472 88 L1145 1434 L843 1434 L828 1346 L1005 1346 L256 88 L85 88 L70 0 L518 0 L533 88 L367 88 L595 475 L1282 475 L1374 88 L1197 88 Z M1261 563 L647 563 L1085 1306 L1261 563 Z M1186 1837 L1140 1837 L843 1536 L948 1536 L1152 1734 L1286 1536 L1377 1536 L1186 1837 Z " />
<glyph glyph-name="Atilde" unicode="&#xc3;" horiz-adv-x="1700" d="M1197 88 L1182 0 L1630 0 L1645 88 L1472 88 L1145 1434 L843 1434 L828 1346 L1005 1346 L256 88 L85 88 L70 0 L518 0 L533 88 L367 88 L595 475 L1282 475 L1374 88 L1197 88 Z M1261 563 L647 563 L1085 1306 L1261 563 Z M1111 1615 C1141 1579 1170 1536 1241 1536 C1411 1536 1426 1705 1426 1705 L1337 1705 C1337 1705 1330 1619 1256 1619 C1215 1619 1195 1650 1172 1679 C1142 1715 1112 1758 1041 1758 C871 1758 857 1589 857 1589 L946 1589 C946 1589 953 1675 1027 1675 C1068 1675 1087 1644 1111 1615 L1111 1615 Z " />
<glyph glyph-name="Adieresis" unicode="&#xc4;" horiz-adv-x="1700" d="M1197 88 L1182 0 L1630 0 L1645 88 L1472 88 L1145 1434 L843 1434 L828 1346 L1005 1346 L256 88 L85 88 L70 0 L518 0 L533 88 L367 88 L595 475 L1282 475 L1374 88 L1197 88 Z M1261 563 L647 563 L1085 1306 L1261 563 Z M896 1631 C889 1590 917 1556 958 1556 C1005 1556 1039 1590 1046 1631 C1054 1672 1026 1706 985 1706 C938 1706 904 1672 896 1631 L896 1631 Z M1221 1631 C1214 1590 1242 1556 1283 1556 C1330 1556 1364 1590 1371 1631 C1379 1672 1351 1706 1310 1706 C1263 1706 1229 1672 1221 1631 L1221 1631 Z " />
<glyph glyph-name="Aring" unicode="&#xc5;" horiz-adv-x="1700" d="M1197 88 L1182 0 L1630 0 L1645 88 L1472 88 L1145 1434 L843 1434 L828 1346 L1005 1346 L256 88 L85 88 L70 0 L518 0 L533 88 L367 88 L595 475 L1282 475 L1374 88 L1197 88 Z M1261 563 L647 563 L1085 1306 L1261 563 Z M970 1706 C955 1614 1010 1536 1112 1536 C1225 1536 1294 1610 1310 1706 C1326 1799 1281 1876 1168 1876 C1066 1876 986 1803 970 1706 L970 1706 Z M1036 1706 C1046 1763 1091 1810 1158 1810 C1235 1810 1254 1763 1244 1706 C1234 1649 1189 1602 1122 1602 C1045 1602 1026 1649 1036 1706 L1036 1706 Z " />
<glyph glyph-name="AE" unicode="&#xc6;" horiz-adv-x="2290" d="M1222 0 L2160 0 L2206 264 L2110 264 L2079 88 L1333 88 L1439 690 L2153 690 L2169 778 L1455 778 L1555 1346 L2291 1346 L2260 1170 L2356 1170 L2402 1434 L1218 1434 L1203 1346 L1373 1346 L306 88 L145 88 L130 0 L578 0 L593 88 L426 88 L799 528 L1315 528 L1222 0 Z M1451 1299 L1330 616 L873 616 L1451 1299 Z " />
<glyph glyph-name="Ccedilla" unicode="&#xc7;" horiz-adv-x="1376" d="M826 68 C438 68 274 365 336 717 C398 1069 687 1366 1055 1366 C1268 1366 1379 1299 1379 1299 L1356 1170 L1452 1170 L1483 1349 C1483 1349 1350 1454 1071 1454 C632 1454 303 1130 234 717 C168 322 372 8 757 -18 L664 -196 C774 -186 883 -192 860 -281 C828 -400 691 -384 596 -342 L549 -404 C669 -480 912 -481 947 -285 C967 -176 879 -127 787 -125 L841 -20 C1020 -16 1164 17 1301 102 L1252 178 C1123 107 1006 68 826 68 L826 68 Z " />
<glyph glyph-name="Egrave" unicode="&#xc8;" horiz-adv-x="1374" d="M851 1807 L715 1807 L921 1536 L1025 1536 L851 1807 Z M1344 1170 L1440 1170 L1486 1434 L382 1434 L367 1346 L543 1346 L321 88 L145 88 L130 0 L1244 0 L1290 264 L1194 264 L1163 88 L417 88 L523 690 L1237 690 L1253 778 L539 778 L639 1346 L1375 1346 L1344 1170 Z " />
<glyph glyph-name="Eacute" unicode="&#xc9;" horiz-adv-x="1374" d="M892 1536 L996 1536 L1298 1807 L1162 1807 L892 1536 Z M1344 1170 L1440 1170 L1486 1434 L382 1434 L367 1346 L543 1346 L321 88 L145 88 L130 0 L1244 0 L1290 264 L1194 264 L1163 88 L417 88 L523 690 L1237 690 L1253 778 L539 778 L639 1346 L1375 1346 L1344 1170 Z " />
<glyph glyph-name="Ecircumflex" unicode="&#xca;" horiz-adv-x="1374" d="M1344 1170 L1440 1170 L1486 1434 L382 1434 L367 1346 L543 1346 L321 88 L145 88 L130 0 L1244 0 L1290 264 L1194 264 L1163 88 L417 88 L523 690 L1237 690 L1253 778 L539 778 L639 1346 L1375 1346 L1344 1170 Z M1038 1837 L992 1837 L695 1536 L800 1536 L1004 1734 L1138 1536 L1229 1536 L1038 1837 Z " />
<glyph glyph-name="Edieresis" unicode="&#xcb;" horiz-adv-x="1374" d="M1344 1170 L1440 1170 L1486 1434 L382 1434 L367 1346 L543 1346 L321 88 L145 88 L130 0 L1244 0 L1290 264 L1194 264 L1163 88 L417 88 L523 690 L1237 690 L1253 778 L539 778 L639 1346 L1375 1346 L1344 1170 Z M738 1631 C731 1590 759 1556 800 1556 C847 1556 881 1590 888 1631 C896 1672 868 1706 827 1706 C780 1706 746 1672 738 1631 L738 1631 Z M1063 1631 C1056 1590 1084 1556 1125 1556 C1172 1556 1206 1590 1213 1631 C1221 1672 1193 1706 1152 1706 C1105 1706 1071 1672 1063 1631 L1063 1631 Z " />
<glyph glyph-name="Igrave" unicode="&#xcc;" horiz-adv-x="711" d="M544 1807 L408 1807 L614 1536 L718 1536 L544 1807 Z M173 0 L621 0 L636 88 L460 88 L682 1346 L858 1346 L873 1434 L425 1434 L410 1346 L586 1346 L364 88 L188 88 L173 0 Z " />
<glyph glyph-name="Iacute" unicode="&#xcd;" horiz-adv-x="752" d="M574 1536 L678 1536 L980 1807 L844 1807 L574 1536 Z M130 0 L578 0 L593 88 L417 88 L639 1346 L815 1346 L830 1434 L382 1434 L367 1346 L543 1346 L321 88 L145 88 L130 0 Z " />
<glyph glyph-name="Icircumflex" unicode="&#xce;" horiz-adv-x="708" d="M133 0 L581 0 L596 88 L420 88 L642 1346 L818 1346 L833 1434 L385 1434 L370 1346 L546 1346 L324 88 L148 88 L133 0 Z M697 1837 L651 1837 L354 1536 L459 1536 L663 1734 L797 1536 L888 1536 L697 1837 Z " />
<glyph glyph-name="Idieresis" unicode="&#xcf;" horiz-adv-x="652" d="M103 0 L551 0 L566 88 L390 88 L612 1346 L788 1346 L803 1434 L355 1434 L340 1346 L516 1346 L294 88 L118 88 L103 0 Z M374 1631 C367 1590 395 1556 436 1556 C483 1556 517 1590 524 1631 C532 1672 504 1706 463 1706 C416 1706 382 1672 374 1631 L374 1631 Z M699 1631 C692 1590 720 1556 761 1556 C808 1556 842 1590 849 1631 C857 1672 829 1706 788 1706 C741 1706 707 1672 699 1631 L699 1631 Z " />
<glyph glyph-name="Eth" unicode="&#xd0;" horiz-adv-x="1557" d="M1597 717 C1661 1120 1509 1434 1020 1434 L437 1434 L422 1346 L597 1346 L494 760 L264 760 L248 672 L478 672 L376 88 L200 88 L185 0 L768 0 C1267 0 1530 295 1597 717 L1597 717 Z M694 1346 L1005 1346 C1453 1346 1557 1068 1495 717 C1433 366 1231 88 783 88 L472 88 L575 672 L913 672 L929 760 L590 760 L694 1346 Z " />
<glyph glyph-name="Ntilde" unicode="&#xd1;" horiz-adv-x="1678" d="M145 88 L130 0 L578 0 L593 88 L418 88 L632 1302 L1263 0 L1373 0 L1609 1346 L1785 1346 L1800 1434 L1352 1434 L1337 1346 L1513 1346 L1300 132 L669 1434 L382 1434 L367 1346 L543 1346 L322 88 L145 88 Z M1099 1615 C1129 1579 1158 1536 1229 1536 C1399 1536 1414 1705 1414 1705 L1325 1705 C1325 1705 1318 1619 1244 1619 C1203 1619 1183 1650 1160 1679 C1130 1715 1100 1758 1029 1758 C859 1758 845 1589 845 1589 L934 1589 C934 1589 941 1675 1015 1675 C1056 1675 1075 1644 1099 1615 L1099 1615 Z " />
<glyph glyph-name="Ograve" unicode="&#xd2;" horiz-adv-x="1629" d="M969 1807 L833 1807 L1039 1536 L1143 1536 L969 1807 Z M234 717 C165 304 392 -20 811 -20 C1260 -20 1580 294 1648 717 C1716 1140 1480 1454 1071 1454 C632 1454 303 1130 234 717 L234 717 Z M336 717 C398 1069 687 1366 1055 1366 C1443 1366 1606 1069 1546 717 C1484 355 1214 68 826 68 C438 68 274 365 336 717 L336 717 Z " />
<glyph glyph-name="Oacute" unicode="&#xd3;" horiz-adv-x="1629" d="M1051 1536 L1155 1536 L1457 1807 L1321 1807 L1051 1536 Z M234 717 C165 304 392 -20 811 -20 C1260 -20 1580 294 1648 717 C1716 1140 1480 1454 1071 1454 C632 1454 303 1130 234 717 L234 717 Z M336 717 C398 1069 687 1366 1055 1366 C1443 1366 1606 1069 1546 717 C1484 355 1214 68 826 68 C438 68 274 365 336 717 L336 717 Z " />
<glyph glyph-name="Ocircumflex" unicode="&#xd4;" horiz-adv-x="1629" d="M234 717 C165 304 392 -20 811 -20 C1260 -20 1580 294 1648 717 C1716 1140 1480 1454 1071 1454 C632 1454 303 1130 234 717 L234 717 Z M336 717 C398 1069 687 1366 1055 1366 C1443 1366 1606 1069 1546 717 C1484 355 1214 68 826 68 C438 68 274 365 336 717 L336 717 Z M1164 1837 L1118 1837 L821 1536 L926 1536 L1130 1734 L1264 1536 L1355 1536 L1164 1837 Z " />
<glyph glyph-name="Otilde" unicode="&#xd5;" horiz-adv-x="1629" d="M234 717 C165 304 392 -20 811 -20 C1260 -20 1580 294 1648 717 C1716 1140 1480 1454 1071 1454 C632 1454 303 1130 234 717 L234 717 Z M336 717 C398 1069 687 1366 1055 1366 C1443 1366 1606 1069 1546 717 C1484 355 1214 68 826 68 C438 68 274 365 336 717 L336 717 Z M1071 1615 C1101 1579 1130 1536 1201 1536 C1371 1536 1386 1705 1386 1705 L1297 1705 C1297 1705 1290 1619 1216 1619 C1175 1619 1155 1650 1132 1679 C1102 1715 1072 1758 1001 1758 C831 1758 817 1589 817 1589 L906 1589 C906 1589 913 1675 987 1675 C1028 1675 1047 1644 1071 1615 L1071 1615 Z " />
<glyph glyph-name="Odieresis" unicode="&#xd6;" horiz-adv-x="1629" d="M864 1631 C857 1590 885 1556 926 1556 C973 1556 1007 1590 1014 1631 C1022 1672 994 1706 953 1706 C906 1706 872 1672 864 1631 L864 1631 Z M1189 1631 C1182 1590 1210 1556 1251 1556 C1298 1556 1332 1590 1339 1631 C1347 1672 1319 1706 1278 1706 C1231 1706 1197 1672 1189 1631 L1189 1631 Z M234 717 C165 304 392 -20 811 -20 C1260 -20 1580 294 1648 717 C1716 1140 1480 1454 1071 1454 C632 1454 303 1130 234 717 L234 717 Z M336 717 C398 1069 687 1366 1055 1366 C1443 1366 1606 1069 1546 717 C1484 355 1214 68 826 68 C438 68 274 365 336 717 L336 717 Z " />
<glyph glyph-name="multiply" unicode="&#xd7;" horiz-adv-x="1040" d="M642 734 L364 1072 L292 1015 L572 674 L168 331 L227 259 L631 603 L909 266 L981 323 L701 662 L1108 1008 L1049 1080 L642 734 Z " />
<glyph glyph-name="Oslash" unicode="&#xd8;" horiz-adv-x="1629" d="M234 717 C188 442 273 206 459 80 L366 -61 L480 -61 L542 33 C620 -1 709 -20 811 -20 C1260 -20 1580 294 1648 717 C1693 997 1605 1229 1421 1354 L1515 1495 L1401 1495 L1338 1400 C1261 1435 1171 1454 1071 1454 C632 1454 303 1130 234 717 L234 717 Z M826 68 C737 68 660 83 594 112 L1369 1275 C1527 1161 1586 951 1546 717 C1484 355 1214 68 826 68 L826 68 Z M336 717 C398 1069 687 1366 1055 1366 C1143 1366 1221 1350 1286 1322 L512 159 C353 273 294 482 336 717 L336 717 Z " />
<glyph glyph-name="Ugrave" unicode="&#xd9;" horiz-adv-x="1693" d="M991 1807 L855 1807 L1061 1536 L1165 1536 L991 1807 Z M1800 1346 L1815 1434 L1367 1434 L1352 1346 L1527 1346 L1391 571 C1333 243 1139 68 858 68 C586 68 446 255 502 571 L638 1346 L815 1346 L830 1434 L382 1434 L367 1346 L542 1346 L406 571 C338 183 557 -20 843 -20 C1137 -20 1409 127 1487 571 L1623 1346 L1800 1346 Z " />
<glyph glyph-name="Uacute" unicode="&#xda;" horiz-adv-x="1693" d="M1052 1536 L1156 1536 L1458 1807 L1322 1807 L1052 1536 Z M1800 1346 L1815 1434 L1367 1434 L1352 1346 L1527 1346 L1391 571 C1333 243 1139 68 858 68 C586 68 446 255 502 571 L638 1346 L815 1346 L830 1434 L382 1434 L367 1346 L542 1346 L406 571 C338 183 557 -20 843 -20 C1137 -20 1409 127 1487 571 L1623 1346 L1800 1346 Z " />
<glyph glyph-name="Ucircumflex" unicode="&#xdb;" horiz-adv-x="1693" d="M1800 1346 L1815 1434 L1367 1434 L1352 1346 L1527 1346 L1391 571 C1333 243 1139 68 858 68 C586 68 446 255 502 571 L638 1346 L815 1346 L830 1434 L382 1434 L367 1346 L542 1346 L406 571 C338 183 557 -20 843 -20 C1137 -20 1409 127 1487 571 L1623 1346 L1800 1346 Z M1188 1837 L1142 1837 L845 1536 L950 1536 L1154 1734 L1288 1536 L1379 1536 L1188 1837 Z " />
<glyph glyph-name="Udieresis" unicode="&#xdc;" horiz-adv-x="1693" d="M1800 1346 L1815 1434 L1367 1434 L1352 1346 L1527 1346 L1391 571 C1333 243 1139 68 858 68 C586 68 446 255 502 571 L638 1346 L815 1346 L830 1434 L382 1434 L367 1346 L542 1346 L406 571 C338 183 557 -20 843 -20 C1137 -20 1409 127 1487 571 L1623 1346 L1800 1346 Z M896 1631 C889 1590 917 1556 958 1556 C1005 1556 1039 1590 1046 1631 C1054 1672 1026 1706 985 1706 C938 1706 904 1672 896 1631 L896 1631 Z M1221 1631 C1214 1590 1242 1556 1283 1556 C1330 1556 1364 1590 1371 1631 C1379 1672 1351 1706 1310 1706 C1263 1706 1229 1672 1221 1631 L1221 1631 Z " />
<glyph glyph-name="Yacute" unicode="&#xdd;" horiz-adv-x="1578" d="M992 1535 L1096 1535 L1398 1806 L1262 1806 L992 1535 Z M580 88 L565 0 L1013 0 L1028 88 L852 88 L939 581 L1576 1346 L1745 1346 L1760 1434 L1312 1434 L1297 1346 L1451 1346 L900 681 L586 1346 L755 1346 L770 1434 L322 1434 L307 1346 L475 1346 L843 581 L756 88 L580 88 Z " />
<glyph glyph-name="Thorn" unicode="&#xde;" horiz-adv-x="1126" d="M523 1346 L301 88 L125 88 L110 0 L558 0 L573 88 L397 88 L440 331 L718 331 C985 331 1123 496 1163 721 C1203 948 1123 1113 856 1113 L578 1113 L619 1346 L795 1346 L810 1434 L362 1434 L347 1346 L523 1346 Z M840 1025 C1061 1025 1097 894 1067 721 C1036 550 954 419 733 419 L455 419 L562 1025 L840 1025 Z " />
<glyph glyph-name="germandbls" unicode="&#xdf;" horiz-adv-x="1382" d="M463 893 L321 88 L145 88 L130 0 L402 0 L559 893 C635 1324 845 1366 1004 1366 C1245 1366 1340 1266 1307 1079 C1276 905 1143 809 954 800 L790 800 L774 712 L939 712 C1171 712 1280 590 1244 391 C1208 182 1056 68 853 68 C768 68 680 80 592 141 L575 41 C646 -8 751 -20 848 -20 C1100 -20 1294 114 1340 385 C1370 561 1292 710 1112 756 C1254 796 1375 913 1403 1073 C1443 1300 1300 1454 1010 1454 C831 1454 554 1409 463 893 L463 893 Z " />
<glyph glyph-name="agrave" unicode="&#xe0;" horiz-adv-x="1308" d="M605 1434 L469 1434 L676 1163 L780 1163 L605 1434 Z M1102 990 L1062 761 C1027 899 906 1010 719 1010 C419 1010 197 809 145 495 C93 181 253 -20 537 -20 C754 -20 884 85 965 214 L928 0 L1198 0 L1211 78 L1033 78 L1180 912 L1358 912 L1372 990 L1102 990 Z M705 932 C981 932 1054 720 1015 495 C975 270 817 58 551 58 C275 58 201 270 241 495 C280 720 439 932 705 932 L705 932 Z " />
<glyph glyph-name="aacute" unicode="&#xe1;" horiz-adv-x="1308" d="M704 1163 L808 1163 L1109 1434 L973 1434 L704 1163 Z M1102 990 L1062 761 C1027 899 906 1010 719 1010 C419 1010 197 809 145 495 C93 181 253 -20 537 -20 C754 -20 884 85 965 214 L928 0 L1198 0 L1211 78 L1033 78 L1180 912 L1358 912 L1372 990 L1102 990 Z M705 932 C981 932 1054 720 1015 495 C975 270 817 58 551 58 C275 58 201 270 241 495 C280 720 439 932 705 932 L705 932 Z " />
<glyph glyph-name="acircumflex" unicode="&#xe2;" horiz-adv-x="1308" d="M1102 990 L1062 761 C1027 899 906 1010 719 1010 C419 1010 197 809 145 495 C93 181 253 -20 537 -20 C754 -20 884 85 965 214 L928 0 L1198 0 L1211 78 L1033 78 L1180 912 L1358 912 L1372 990 L1102 990 Z M705 932 C981 932 1054 720 1015 495 C975 270 817 58 551 58 C275 58 201 270 241 495 C280 720 439 932 705 932 L705 932 Z M824 1434 L778 1434 L481 1133 L586 1133 L790 1331 L924 1133 L1015 1133 L824 1434 Z " />
<glyph glyph-name="atilde" unicode="&#xe3;" horiz-adv-x="1308" d="M1102 990 L1062 761 C1027 899 906 1010 719 1010 C419 1010 197 809 145 495 C93 181 253 -20 537 -20 C754 -20 884 85 965 214 L928 0 L1198 0 L1211 78 L1033 78 L1180 912 L1358 912 L1372 990 L1102 990 Z M705 932 C981 932 1054 720 1015 495 C975 270 817 58 551 58 C275 58 201 270 241 495 C280 720 439 932 705 932 L705 932 Z M782 1291 C812 1255 841 1212 912 1212 C1082 1212 1097 1381 1097 1381 L1008 1381 C1008 1381 1001 1295 927 1295 C886 1295 866 1326 843 1355 C813 1391 783 1434 712 1434 C542 1434 528 1265 528 1265 L617 1265 C617 1265 624 1351 698 1351 C739 1351 758 1320 782 1291 L782 1291 Z " />
<glyph glyph-name="adieresis" unicode="&#xe4;" horiz-adv-x="1308" d="M1102 990 L1062 761 C1027 899 906 1010 719 1010 C419 1010 197 809 145 495 C93 181 253 -20 537 -20 C754 -20 884 85 965 214 L928 0 L1198 0 L1211 78 L1033 78 L1180 912 L1358 912 L1372 990 L1102 990 Z M705 932 C981 932 1054 720 1015 495 C975 270 817 58 551 58 C275 58 201 270 241 495 C280 720 439 932 705 932 L705 932 Z M554 1270 C547 1229 575 1195 616 1195 C663 1195 697 1229 704 1270 C712 1311 684 1345 643 1345 C596 1345 562 1311 554 1270 L554 1270 Z M879 1270 C872 1229 900 1195 941 1195 C988 1195 1022 1229 1029 1270 C1037 1311 1009 1345 968 1345 C921 1345 887 1311 879 1270 L879 1270 Z " />
<glyph glyph-name="aring" unicode="&#xe5;" horiz-adv-x="1308" d="M1102 990 L1062 761 C1027 899 906 1010 719 1010 C419 1010 197 809 145 495 C93 181 253 -20 537 -20 C754 -20 884 85 965 214 L928 0 L1198 0 L1211 78 L1033 78 L1180 912 L1358 912 L1372 990 L1102 990 Z M705 932 C981 932 1054 720 1015 495 C975 270 817 58 551 58 C275 58 201 270 241 495 C280 720 439 932 705 932 L705 932 Z M626 1284 C611 1192 666 1114 768 1114 C881 1114 950 1188 966 1284 C982 1377 937 1454 824 1454 C722 1454 642 1381 626 1284 L626 1284 Z M692 1284 C702 1341 747 1388 814 1388 C891 1388 910 1341 900 1284 C890 1227 845 1180 778 1180 C701 1180 682 1227 692 1284 L692 1284 Z " />
<glyph glyph-name="ae" unicode="&#xe6;" horiz-adv-x="1836" d="M1292 58 C1059 58 967 238 995 455 L1826 455 C1894 840 1708 1010 1456 1010 C1279 1010 1129 927 1028 791 C1016 910 945 1010 713 1010 C573 1010 433 986 330 932 L358 856 C447 902 599 932 699 932 C969 932 956 788 929 630 C656 656 190 633 140 293 C108 78 255 -20 449 -20 C607 -20 764 39 916 233 C966 77 1097 -20 1282 -20 C1486 -20 1610 24 1700 76 L1659 150 C1573 100 1455 58 1292 58 L1292 58 Z M236 293 C283 548 665 577 916 557 L893 429 C867 282 708 68 464 68 C283 68 212 162 236 293 L236 293 Z M1008 533 C1058 752 1229 932 1446 932 C1695 932 1770 753 1742 533 L1008 533 Z " />
<glyph glyph-name="ccedilla" unicode="&#xe7;" horiz-adv-x="1082" d="M605 58 C340 58 226 248 270 495 C313 742 500 932 759 932 C922 932 1014 876 1014 876 L989 736 L1081 736 L1113 915 C1113 915 1006 1010 773 1010 C449 1010 225 790 176 495 C129 212 270 7 536 -17 L443 -196 C553 -186 662 -192 639 -281 C607 -400 470 -384 375 -342 L328 -404 C448 -480 691 -481 726 -285 C746 -176 658 -127 566 -125 L620 -19 C747 -16 875 11 973 79 L927 149 C829 85 726 58 605 58 L605 58 Z " />
<glyph glyph-name="egrave" unicode="&#xe8;" horiz-adv-x="1107" d="M623 1434 L487 1434 L694 1163 L798 1163 L623 1434 Z M563 58 C330 58 238 238 266 455 L1097 455 C1165 840 979 1010 727 1010 C443 1010 229 796 176 495 C123 194 279 -20 553 -20 C757 -20 881 24 971 76 L930 150 C844 100 726 58 563 58 L563 58 Z M279 533 C329 752 500 932 717 932 C966 932 1041 753 1013 533 L279 533 Z " />
<glyph glyph-name="eacute" unicode="&#xe9;" horiz-adv-x="1107" d="M692 1163 L796 1163 L1097 1434 L961 1434 L692 1163 Z M563 58 C330 58 238 238 266 455 L1097 455 C1165 840 979 1010 727 1010 C443 1010 229 796 176 495 C123 194 279 -20 553 -20 C757 -20 881 24 971 76 L930 150 C844 100 726 58 563 58 L563 58 Z M279 533 C329 752 500 932 717 932 C966 932 1041 753 1013 533 L279 533 Z " />
<glyph glyph-name="ecircumflex" unicode="&#xea;" horiz-adv-x="1107" d="M563 58 C330 58 238 238 266 455 L1097 455 C1165 840 979 1010 727 1010 C443 1010 229 796 176 495 C123 194 279 -20 553 -20 C757 -20 881 24 971 76 L930 150 C844 100 726 58 563 58 L563 58 Z M279 533 C329 752 500 932 717 932 C966 932 1041 753 1013 533 L279 533 Z M825 1434 L779 1434 L482 1133 L587 1133 L791 1331 L925 1133 L1016 1133 L825 1434 Z " />
<glyph glyph-name="edieresis" unicode="&#xeb;" horiz-adv-x="1107" d="M563 58 C330 58 238 238 266 455 L1097 455 C1165 840 979 1010 727 1010 C443 1010 229 796 176 495 C123 194 279 -20 553 -20 C757 -20 881 24 971 76 L930 150 C844 100 726 58 563 58 L563 58 Z M279 533 C329 752 500 932 717 932 C966 932 1041 753 1013 533 L279 533 Z M539 1270 C532 1229 560 1195 601 1195 C648 1195 682 1229 689 1270 C697 1311 669 1345 628 1345 C581 1345 547 1311 539 1270 L539 1270 Z M864 1270 C857 1229 885 1195 926 1195 C973 1195 1007 1229 1014 1270 C1022 1311 994 1345 953 1345 C906 1345 872 1311 864 1270 L864 1270 Z " />
<glyph glyph-name="igrave" unicode="&#xec;" horiz-adv-x="726" d="M458 1434 L322 1434 L529 1163 L633 1163 L458 1434 Z M506 912 L359 78 L181 78 L168 0 L616 0 L629 78 L451 78 L612 990 L342 990 L328 912 L506 912 Z " />
<glyph glyph-name="iacute" unicode="&#xed;" horiz-adv-x="707" d="M484 1163 L588 1163 L889 1434 L753 1434 L484 1163 Z M448 912 L301 78 L123 78 L110 0 L558 0 L571 78 L393 78 L554 990 L284 990 L270 912 L448 912 Z " />
<glyph glyph-name="icircumflex" unicode="&#xee;" horiz-adv-x="659" d="M451 912 L304 78 L126 78 L113 0 L561 0 L574 78 L396 78 L557 990 L287 990 L273 912 L451 912 Z M597 1434 L551 1434 L254 1133 L359 1133 L563 1331 L697 1133 L788 1133 L597 1434 Z " />
<glyph glyph-name="idieresis" unicode="&#xef;" horiz-adv-x="607" d="M421 912 L274 78 L96 78 L83 0 L531 0 L544 78 L366 78 L527 990 L257 990 L243 912 L421 912 Z M285 1270 C278 1229 306 1195 347 1195 C394 1195 428 1229 435 1270 C443 1311 415 1345 374 1345 C327 1345 293 1311 285 1270 L285 1270 Z M610 1270 C603 1229 631 1195 672 1195 C719 1195 753 1229 760 1270 C768 1311 740 1345 699 1345 C652 1345 618 1311 610 1270 L610 1270 Z " />
<glyph glyph-name="eth" unicode="&#xf0;" horiz-adv-x="1170" d="M810 1153 L1001 1279 C1093 1156 1139 973 1112 713 C1079 895 941 1010 754 1010 C440 1010 229 809 176 495 C125 191 292 -20 572 -20 C809 -20 1051 134 1142 495 C1222 814 1210 1125 1074 1327 L1250 1443 L1209 1514 L1026 1392 C952 1475 856 1525 726 1548 L690 1468 C791 1446 877 1410 948 1341 L770 1224 L810 1153 Z M740 932 C1016 932 1089 720 1050 495 C1010 270 862 58 586 58 C330 58 236 270 276 495 C315 720 464 932 740 932 L740 932 Z " />
<glyph glyph-name="ntilde" unicode="&#xf1;" horiz-adv-x="1408" d="M474 538 C516 775 637 932 868 932 C1099 932 1164 775 1122 538 L1028 0 L1298 0 L1311 78 L1133 78 L1214 538 C1268 840 1156 1010 882 1010 C720 1010 583 925 520 795 L554 990 L284 990 L270 912 L448 912 L301 78 L123 78 L110 0 L558 0 L571 78 L393 78 L474 538 Z M902 1291 C932 1255 961 1212 1032 1212 C1202 1212 1217 1381 1217 1381 L1128 1381 C1128 1381 1121 1295 1047 1295 C1006 1295 986 1326 963 1355 C933 1391 903 1434 832 1434 C662 1434 648 1265 648 1265 L737 1265 C737 1265 744 1351 818 1351 C859 1351 878 1320 902 1291 L902 1291 Z " />
<glyph glyph-name="ograve" unicode="&#xf2;" horiz-adv-x="1192" d="M670 1434 L534 1434 L741 1163 L845 1163 L670 1434 Z M177 495 C124 193 290 -20 592 -20 C904 -20 1136 193 1189 495 C1242 797 1076 1010 774 1010 C460 1010 230 796 177 495 L177 495 Z M271 495 C314 742 505 932 760 932 C1044 932 1138 742 1095 495 C1051 248 860 58 606 58 C331 58 227 248 271 495 L271 495 Z " />
<glyph glyph-name="oacute" unicode="&#xf3;" horiz-adv-x="1192" d="M746 1163 L850 1163 L1151 1434 L1015 1434 L746 1163 Z M177 495 C124 193 290 -20 592 -20 C904 -20 1136 193 1189 495 C1242 797 1076 1010 774 1010 C460 1010 230 796 177 495 L177 495 Z M271 495 C314 742 505 932 760 932 C1044 932 1138 742 1095 495 C1051 248 860 58 606 58 C331 58 227 248 271 495 L271 495 Z " />
<glyph glyph-name="ocircumflex" unicode="&#xf4;" horiz-adv-x="1192" d="M177 495 C124 193 290 -20 592 -20 C904 -20 1136 193 1189 495 C1242 797 1076 1010 774 1010 C460 1010 230 796 177 495 L177 495 Z M271 495 C314 742 505 932 760 932 C1044 932 1138 742 1095 495 C1051 248 860 58 606 58 C331 58 227 248 271 495 L271 495 Z M871 1434 L825 1434 L528 1133 L633 1133 L837 1331 L971 1133 L1062 1133 L871 1434 Z " />
<glyph glyph-name="otilde" unicode="&#xf5;" horiz-adv-x="1192" d="M177 495 C124 193 290 -20 592 -20 C904 -20 1136 193 1189 495 C1242 797 1076 1010 774 1010 C460 1010 230 796 177 495 L177 495 Z M271 495 C314 742 505 932 760 932 C1044 932 1138 742 1095 495 C1051 248 860 58 606 58 C331 58 227 248 271 495 L271 495 Z M802 1291 C832 1255 861 1212 932 1212 C1102 1212 1117 1381 1117 1381 L1028 1381 C1028 1381 1021 1295 947 1295 C906 1295 886 1326 863 1355 C833 1391 803 1434 732 1434 C562 1434 548 1265 548 1265 L637 1265 C637 1265 644 1351 718 1351 C759 1351 778 1320 802 1291 L802 1291 Z " />
<glyph glyph-name="odieresis" unicode="&#xf6;" horiz-adv-x="1192" d="M177 495 C124 193 290 -20 592 -20 C904 -20 1136 193 1189 495 C1242 797 1076 1010 774 1010 C460 1010 230 796 177 495 L177 495 Z M271 495 C314 742 505 932 760 932 C1044 932 1138 742 1095 495 C1051 248 860 58 606 58 C331 58 227 248 271 495 L271 495 Z M583 1270 C576 1229 604 1195 645 1195 C692 1195 726 1229 733 1270 C741 1311 713 1345 672 1345 C625 1345 591 1311 583 1270 L583 1270 Z M908 1270 C901 1229 929 1195 970 1195 C1017 1195 1051 1229 1058 1270 C1066 1311 1038 1345 997 1345 C950 1345 916 1311 908 1270 L908 1270 Z " />
<glyph glyph-name="divide" unicode="&#xf7;" horiz-adv-x="922" d="M219 621 L921 621 L937 713 L235 713 L219 621 Z M461 441 C454 398 482 364 525 364 C574 364 608 398 615 441 C623 484 595 518 552 518 C503 518 469 484 461 441 L461 441 Z M540 893 C533 850 561 816 604 816 C653 816 687 850 694 893 C702 936 674 970 631 970 C582 970 548 936 540 893 L540 893 Z " />
<glyph glyph-name="oslash" unicode="&#xf8;" horiz-adv-x="1231" d="M196 495 C161 298 220 139 349 52 L274 -61 L381 -61 L429 11 C482 -9 543 -20 611 -20 C923 -20 1155 193 1208 495 C1243 695 1182 856 1048 942 L1121 1051 L1014 1051 L968 981 C916 1000 858 1010 793 1010 C479 1010 249 796 196 495 L196 495 Z M625 58 C568 58 518 66 476 81 L1002 873 C1110 798 1142 659 1114 495 C1070 248 879 58 625 58 L625 58 Z M290 495 C333 742 524 932 779 932 C833 932 880 925 921 912 L396 123 C295 199 261 335 290 495 L290 495 Z " />
<glyph glyph-name="ugrave" unicode="&#xf9;" horiz-adv-x="1408" d="M778 1434 L642 1434 L849 1163 L953 1163 L778 1434 Z M1107 452 C1065 215 945 58 714 58 C483 58 417 215 459 452 L554 990 L284 990 L270 912 L448 912 L367 452 C314 150 426 -20 700 -20 C862 -20 999 65 1062 195 L1028 0 L1298 0 L1311 78 L1133 78 L1294 990 L1024 990 L1010 912 L1188 912 L1107 452 Z " />
<glyph glyph-name="uacute" unicode="&#xfa;" horiz-adv-x="1408" d="M835 1163 L939 1163 L1240 1434 L1104 1434 L835 1163 Z M459 452 L554 990 L284 990 L270 912 L448 912 L367 452 C314 150 426 -20 700 -20 C862 -20 999 65 1062 195 L1028 0 L1298 0 L1311 78 L1133 78 L1294 990 L1024 990 L1010 912 L1188 912 L1107 452 C1065 215 945 58 714 58 C483 58 417 215 459 452 L459 452 Z " />
<glyph glyph-name="ucircumflex" unicode="&#xfb;" horiz-adv-x="1408" d="M459 452 L554 990 L284 990 L270 912 L448 912 L367 452 C314 150 426 -20 700 -20 C862 -20 999 65 1062 195 L1028 0 L1298 0 L1311 78 L1133 78 L1294 990 L1024 990 L1010 912 L1188 912 L1107 452 C1065 215 945 58 714 58 C483 58 417 215 459 452 L459 452 Z M976 1434 L930 1434 L633 1133 L738 1133 L942 1331 L1076 1133 L1167 1133 L976 1434 Z " />
<glyph glyph-name="udieresis" unicode="&#xfc;" horiz-adv-x="1408" d="M459 452 L554 990 L284 990 L270 912 L448 912 L367 452 C314 150 426 -20 700 -20 C862 -20 999 65 1062 195 L1028 0 L1298 0 L1311 78 L1133 78 L1294 990 L1024 990 L1010 912 L1188 912 L1107 452 C1065 215 945 58 714 58 C483 58 417 215 459 452 L459 452 Z M690 1270 C683 1229 711 1195 752 1195 C799 1195 833 1229 840 1270 C848 1311 820 1345 779 1345 C732 1345 698 1311 690 1270 L690 1270 Z M1015 1270 C1008 1229 1036 1195 1077 1195 C1124 1195 1158 1229 1165 1270 C1173 1311 1145 1345 1104 1345 C1057 1345 1023 1311 1015 1270 L1015 1270 Z " />
<glyph glyph-name="yacute" unicode="&#xfd;" horiz-adv-x="1420" d="M858 1163 L962 1163 L1263 1434 L1127 1434 L858 1163 Z M1470 912 L1484 990 L1036 990 L1022 912 L1189 912 L725 111 L542 912 L718 912 L732 990 L284 990 L270 912 L442 912 L664 0 L513 -255 C446 -368 394 -454 260 -454 L168 -454 L155 -532 L247 -532 C430 -532 488 -450 582 -291 L1297 912 L1470 912 Z " />
<glyph glyph-name="thorn" unicode="&#xfe;" horiz-adv-x="1339" d="M647 1516 L377 1516 L363 1438 L540 1438 L207 -454 L29 -454 L16 -532 L464 -532 L477 -454 L299 -454 L420 229 C455 91 576 -20 763 -20 C1063 -20 1285 181 1337 495 C1389 809 1229 1010 945 1010 C728 1010 598 905 517 776 L647 1516 Z M777 58 C501 58 428 270 467 495 C507 720 665 932 931 932 C1207 932 1281 720 1241 495 C1202 270 1043 58 777 58 L777 58 Z " />
<glyph glyph-name="ydieresis" unicode="&#xff;" horiz-adv-x="1420" d="M1470 912 L1484 990 L1036 990 L1022 912 L1189 912 L725 111 L542 912 L718 912 L732 990 L284 990 L270 912 L442 912 L664 0 L513 -255 C446 -368 394 -454 260 -454 L168 -454 L155 -532 L247 -532 C430 -532 488 -450 582 -291 L1297 912 L1470 912 Z M693 1270 C686 1229 714 1195 755 1195 C802 1195 836 1229 843 1270 C851 1311 823 1345 782 1345 C735 1345 701 1311 693 1270 L693 1270 Z M1018 1270 C1011 1229 1039 1195 1080 1195 C1127 1195 1161 1229 1168 1270 C1176 1311 1148 1345 1107 1345 C1060 1345 1026 1311 1018 1270 L1018 1270 Z " />
<glyph glyph-name="Amacron" unicode="&#x100;" horiz-adv-x="1700" d="M778 1536 L1454 1536 L1468 1614 L792 1614 L778 1536 Z M1197 88 L1182 0 L1630 0 L1645 88 L1472 88 L1145 1434 L843 1434 L828 1346 L1005 1346 L256 88 L85 88 L70 0 L518 0 L533 88 L367 88 L595 475 L1282 475 L1374 88 L1197 88 Z M1261 563 L647 563 L1085 1306 L1261 563 Z " />
<glyph glyph-name="amacron" unicode="&#x101;" horiz-adv-x="1308" d="M479 1356 L1155 1356 L1168 1434 L492 1434 L479 1356 Z M1102 990 L1062 761 C1027 899 906 1010 719 1010 C419 1010 197 809 145 495 C93 181 253 -20 537 -20 C754 -20 884 85 965 214 L928 0 L1198 0 L1211 78 L1033 78 L1180 912 L1358 912 L1372 990 L1102 990 Z M705 932 C981 932 1054 720 1015 495 C975 270 817 58 551 58 C275 58 201 270 241 495 C280 720 439 932 705 932 L705 932 Z " />
<glyph glyph-name="Abreve" unicode="&#x102;" horiz-adv-x="1700" d="M1197 88 L1182 0 L1630 0 L1645 88 L1472 88 L1145 1434 L843 1434 L828 1346 L1005 1346 L256 88 L85 88 L70 0 L518 0 L533 88 L367 88 L595 475 L1282 475 L1374 88 L1197 88 Z M1261 563 L647 563 L1085 1306 L1261 563 Z M1110 1536 C1340 1536 1433 1688 1458 1754 L1362 1754 C1301 1652 1215 1619 1116 1619 C1017 1619 950 1652 925 1754 L838 1754 C841 1688 880 1536 1110 1536 L1110 1536 Z " />
<glyph glyph-name="abreve" unicode="&#x103;" horiz-adv-x="1308" d="M1102 990 L1062 761 C1027 899 906 1010 719 1010 C419 1010 197 809 145 495 C93 181 253 -20 537 -20 C754 -20 884 85 965 214 L928 0 L1198 0 L1211 78 L1033 78 L1180 912 L1358 912 L1372 990 L1102 990 Z M705 932 C981 932 1054 720 1015 495 C975 270 817 58 551 58 C275 58 201 270 241 495 C280 720 439 932 705 932 L705 932 Z M764 1216 C994 1216 1087 1368 1112 1434 L1016 1434 C955 1332 869 1299 770 1299 C671 1299 604 1332 579 1434 L492 1434 C495 1368 534 1216 764 1216 L764 1216 Z " />
<glyph glyph-name="Aogonek" unicode="&#x104;" horiz-adv-x="1700" d="M1197 88 L1182 0 L1564 0 C1545 -3 1357 -34 1335 -172 C1309 -336 1488 -365 1555 -365 L1572 -272 C1572 -272 1402 -278 1423 -163 C1446 -36 1621 -1 1630 0 L1645 88 L1472 88 L1145 1434 L843 1434 L828 1346 L1005 1346 L256 88 L85 88 L70 0 L518 0 L533 88 L367 88 L595 475 L1282 475 L1374 88 L1197 88 Z M1261 563 L647 563 L1085 1306 L1261 563 Z " />
<glyph glyph-name="aogonek" unicode="&#x105;" horiz-adv-x="1308" d="M1102 990 L1062 761 C1027 899 906 1010 719 1010 C419 1010 197 809 145 495 C93 181 253 -20 537 -20 C754 -20 884 85 965 214 L928 0 L1132 0 C1113 -3 925 -34 903 -172 C877 -336 1056 -365 1123 -365 L1140 -272 C1140 -272 970 -278 991 -163 C1014 -36 1189 -1 1198 0 L1211 78 L1033 78 L1180 912 L1358 912 L1372 990 L1102 990 Z M705 932 C981 932 1054 720 1015 495 C975 270 817 58 551 58 C275 58 201 270 241 495 C280 720 439 932 705 932 L705 932 Z " />
<glyph glyph-name="Cacute" unicode="&#x106;" horiz-adv-x="1376" d="M1029 1536 L1133 1536 L1435 1807 L1299 1807 L1029 1536 Z M826 68 C438 68 274 365 336 717 C398 1069 687 1366 1055 1366 C1268 1366 1379 1299 1379 1299 L1356 1170 L1452 1170 L1483 1349 C1483 1349 1350 1454 1071 1454 C632 1454 303 1130 234 717 C165 304 392 -20 811 -20 C1004 -20 1156 12 1301 102 L1252 178 C1123 107 1006 68 826 68 L826 68 Z " />
<glyph glyph-name="cacute" unicode="&#x107;" horiz-adv-x="1082" d="M740 1163 L844 1163 L1145 1434 L1009 1434 L740 1163 Z M605 58 C340 58 226 248 270 495 C313 742 500 932 759 932 C922 932 1014 876 1014 876 L989 736 L1081 736 L1113 915 C1113 915 1006 1010 773 1010 C449 1010 225 790 176 495 C126 193 289 -20 591 -20 C727 -20 868 6 973 79 L927 149 C829 85 726 58 605 58 L605 58 Z " />
<glyph glyph-name="Ccircumflex" unicode="&#x108;" horiz-adv-x="1376" d="M1154 1837 L1108 1837 L811 1536 L916 1536 L1120 1734 L1254 1536 L1345 1536 L1154 1837 Z M826 68 C438 68 274 365 336 717 C398 1069 687 1366 1055 1366 C1268 1366 1379 1299 1379 1299 L1356 1170 L1452 1170 L1483 1349 C1483 1349 1350 1454 1071 1454 C632 1454 303 1130 234 717 C165 304 392 -20 811 -20 C1004 -20 1156 12 1301 102 L1252 178 C1123 107 1006 68 826 68 L826 68 Z " />
<glyph glyph-name="ccircumflex" unicode="&#x109;" horiz-adv-x="1082" d="M865 1434 L819 1434 L522 1133 L627 1133 L831 1331 L965 1133 L1056 1133 L865 1434 Z M605 58 C340 58 226 248 270 495 C313 742 500 932 759 932 C922 932 1014 876 1014 876 L989 736 L1081 736 L1113 915 C1113 915 1006 1010 773 1010 C449 1010 225 790 176 495 C126 193 289 -20 591 -20 C727 -20 868 6 973 79 L927 149 C829 85 726 58 605 58 L605 58 Z " />
<glyph glyph-name="Cdotaccent" unicode="&#x10a;" horiz-adv-x="1376" d="M1027 1631 C1020 1590 1048 1556 1089 1556 C1136 1556 1170 1590 1177 1631 C1185 1672 1157 1706 1116 1706 C1069 1706 1035 1672 1027 1631 L1027 1631 Z M826 68 C438 68 274 365 336 717 C398 1069 687 1366 1055 1366 C1268 1366 1379 1299 1379 1299 L1356 1170 L1452 1170 L1483 1349 C1483 1349 1350 1454 1071 1454 C632 1454 303 1130 234 717 C165 304 392 -20 811 -20 C1004 -20 1156 12 1301 102 L1252 178 C1123 107 1006 68 826 68 L826 68 Z " />
<glyph glyph-name="cdotaccent" unicode="&#x10b;" horiz-adv-x="1082" d="M743 1270 C736 1229 764 1195 805 1195 C852 1195 886 1229 893 1270 C901 1311 873 1345 832 1345 C785 1345 751 1311 743 1270 L743 1270 Z M605 58 C340 58 226 248 270 495 C313 742 500 932 759 932 C922 932 1014 876 1014 876 L989 736 L1081 736 L1113 915 C1113 915 1006 1010 773 1010 C449 1010 225 790 176 495 C126 193 289 -20 591 -20 C727 -20 868 6 973 79 L927 149 C829 85 726 58 605 58 L605 58 Z " />
<glyph glyph-name="Ccaron" unicode="&#x10c;" horiz-adv-x="1376" d="M1054 1536 L1100 1536 L1397 1837 L1292 1837 L1088 1639 L954 1837 L863 1837 L1054 1536 Z M826 68 C438 68 274 365 336 717 C398 1069 687 1366 1055 1366 C1268 1366 1379 1299 1379 1299 L1356 1170 L1452 1170 L1483 1349 C1483 1349 1350 1454 1071 1454 C632 1454 303 1130 234 717 C165 304 392 -20 811 -20 C1004 -20 1156 12 1301 102 L1252 178 C1123 107 1006 68 826 68 L826 68 Z " />
<glyph glyph-name="ccaron" unicode="&#x10d;" horiz-adv-x="1082" d="M763 1133 L809 1133 L1106 1434 L1001 1434 L797 1236 L663 1434 L572 1434 L763 1133 Z M605 58 C340 58 226 248 270 495 C313 742 500 932 759 932 C922 932 1014 876 1014 876 L989 736 L1081 736 L1113 915 C1113 915 1006 1010 773 1010 C449 1010 225 790 176 495 C126 193 289 -20 591 -20 C727 -20 868 6 973 79 L927 149 C829 85 726 58 605 58 L605 58 Z " />
<glyph glyph-name="Dcaron" unicode="&#x10e;" horiz-adv-x="1502" d="M1542 717 C1606 1120 1454 1434 965 1434 L382 1434 L367 1346 L542 1346 L321 88 L145 88 L130 0 L713 0 C1212 0 1475 295 1542 717 L1542 717 Z M639 1346 L950 1346 C1398 1346 1502 1068 1440 717 C1378 366 1176 88 728 88 L417 88 L639 1346 Z M914 1536 L960 1536 L1257 1837 L1152 1837 L948 1639 L814 1837 L723 1837 L914 1536 Z " />
<glyph glyph-name="dcaron" unicode="&#x10f;" horiz-adv-x="1240" d="M1323 1119 L1407 1119 L1598 1516 L1485 1516 L1323 1119 Z M1318 1516 L1048 1516 L1034 1438 L1212 1438 L1093 761 C1058 899 937 1010 750 1010 C450 1010 228 809 176 495 C124 181 284 -20 568 -20 C785 -20 915 85 996 214 L959 0 L1229 0 L1242 78 L1064 78 L1318 1516 Z M736 932 C1012 932 1085 720 1046 495 C1006 270 848 58 582 58 C306 58 232 270 272 495 C311 720 470 932 736 932 L736 932 Z " />
<glyph glyph-name="Dcroat" unicode="&#x110;" horiz-adv-x="1557" d="M1597 717 C1661 1120 1509 1434 1020 1434 L437 1434 L422 1346 L597 1346 L494 760 L264 760 L248 672 L478 672 L376 88 L200 88 L185 0 L768 0 C1267 0 1530 295 1597 717 L1597 717 Z M694 1346 L1005 1346 C1453 1346 1557 1068 1495 717 C1433 366 1231 88 783 88 L472 88 L575 672 L913 672 L929 760 L590 760 L694 1346 Z " />
<glyph glyph-name="dcroat" unicode="&#x111;" horiz-adv-x="1309" d="M1318 1516 L1048 1516 L1034 1438 L1212 1438 L1179 1255 L883 1255 L869 1177 L1166 1177 L1093 761 C1058 899 937 1010 750 1010 C450 1010 228 809 176 495 C124 181 284 -20 568 -20 C785 -20 915 85 996 214 L959 0 L1229 0 L1242 78 L1064 78 L1258 1177 L1446 1177 L1460 1255 L1272 1255 L1318 1516 Z M736 932 C1012 932 1085 720 1046 495 C1006 270 848 58 582 58 C306 58 232 270 272 495 C311 720 470 932 736 932 L736 932 Z " />
<glyph glyph-name="Emacron" unicode="&#x112;" horiz-adv-x="1374" d="M627 1536 L1303 1536 L1317 1614 L641 1614 L627 1536 Z M1344 1170 L1440 1170 L1486 1434 L382 1434 L367 1346 L543 1346 L321 88 L145 88 L130 0 L1244 0 L1290 264 L1194 264 L1163 88 L417 88 L523 690 L1237 690 L1253 778 L539 778 L639 1346 L1375 1346 L1344 1170 Z " />
<glyph glyph-name="emacron" unicode="&#x113;" horiz-adv-x="1107" d="M454 1356 L1130 1356 L1143 1434 L467 1434 L454 1356 Z M563 58 C330 58 238 238 266 455 L1097 455 C1165 840 979 1010 727 1010 C443 1010 229 796 176 495 C123 194 279 -20 553 -20 C757 -20 881 24 971 76 L930 150 C844 100 726 58 563 58 L563 58 Z M279 533 C329 752 500 932 717 932 C966 932 1041 753 1013 533 L279 533 Z " />
<glyph glyph-name="Ebreve" unicode="&#x114;" horiz-adv-x="1374" d="M1344 1170 L1440 1170 L1486 1434 L382 1434 L367 1346 L543 1346 L321 88 L145 88 L130 0 L1244 0 L1290 264 L1194 264 L1163 88 L417 88 L523 690 L1237 690 L1253 778 L539 778 L639 1346 L1375 1346 L1344 1170 Z M960 1536 C1190 1536 1283 1688 1308 1754 L1212 1754 C1151 1652 1065 1619 966 1619 C867 1619 800 1652 775 1754 L688 1754 C691 1688 730 1536 960 1536 L960 1536 Z " />
<glyph glyph-name="ebreve" unicode="&#x115;" horiz-adv-x="1107" d="M563 58 C330 58 238 238 266 455 L1097 455 C1165 840 979 1010 727 1010 C443 1010 229 796 176 495 C123 194 279 -20 553 -20 C757 -20 881 24 971 76 L930 150 C844 100 726 58 563 58 L563 58 Z M279 533 C329 752 500 932 717 932 C966 932 1041 753 1013 533 L279 533 Z M766 1216 C996 1216 1089 1368 1114 1434 L1018 1434 C957 1332 871 1299 772 1299 C673 1299 606 1332 581 1434 L494 1434 C497 1368 536 1216 766 1216 L766 1216 Z " />
<glyph glyph-name="Edotaccent" unicode="&#x116;" horiz-adv-x="1374" d="M1344 1170 L1440 1170 L1486 1434 L382 1434 L367 1346 L543 1346 L321 88 L145 88 L130 0 L1244 0 L1290 264 L1194 264 L1163 88 L417 88 L523 690 L1237 690 L1253 778 L539 778 L639 1346 L1375 1346 L1344 1170 Z M919 1631 C912 1590 940 1556 981 1556 C1028 1556 1062 1590 1069 1631 C1077 1672 1049 1706 1008 1706 C961 1706 927 1672 919 1631 L919 1631 Z " />
<glyph glyph-name="edotaccent" unicode="&#x117;" horiz-adv-x="1107" d="M563 58 C330 58 238 238 266 455 L1097 455 C1165 840 979 1010 727 1010 C443 1010 229 796 176 495 C123 194 279 -20 553 -20 C757 -20 881 24 971 76 L930 150 C844 100 726 58 563 58 L563 58 Z M279 533 C329 752 500 932 717 932 C966 932 1041 753 1013 533 L279 533 Z M701 1270 C694 1229 722 1195 763 1195 C810 1195 844 1229 851 1270 C859 1311 831 1345 790 1345 C743 1345 709 1311 701 1270 L701 1270 Z " />
<glyph glyph-name="Eogonek" unicode="&#x118;" horiz-adv-x="1374" d="M1344 1170 L1440 1170 L1486 1434 L382 1434 L367 1346 L543 1346 L321 88 L145 88 L130 0 L1178 0 C1159 -3 971 -34 949 -172 C923 -336 1102 -365 1169 -365 L1186 -272 C1186 -272 1016 -278 1037 -163 C1060 -36 1235 -1 1244 0 L1290 264 L1194 264 L1163 88 L417 88 L523 690 L1237 690 L1253 778 L539 778 L639 1346 L1375 1346 L1344 1170 Z " />
<glyph glyph-name="eogonek" unicode="&#x119;" horiz-adv-x="1107" d="M563 58 C330 58 238 238 266 455 L1097 455 C1165 840 979 1010 727 1010 C443 1010 229 796 176 495 C123 194 279 -20 553 -20 C580 -20 606 -19 630 -17 C568 -39 485 -83 471 -172 C445 -336 624 -365 691 -365 L708 -272 C708 -272 538 -278 559 -163 C578 -58 701 -16 747 -4 C843 13 914 43 971 76 L930 150 C844 100 726 58 563 58 L563 58 Z M279 533 C329 752 500 932 717 932 C966 932 1041 753 1013 533 L279 533 Z " />
<glyph glyph-name="Ecaron" unicode="&#x11a;" horiz-adv-x="1374" d="M1344 1170 L1440 1170 L1486 1434 L382 1434 L367 1346 L543 1346 L321 88 L145 88 L130 0 L1244 0 L1290 264 L1194 264 L1163 88 L417 88 L523 690 L1237 690 L1253 778 L539 778 L639 1346 L1375 1346 L1344 1170 Z M936 1536 L982 1536 L1279 1837 L1174 1837 L970 1639 L836 1837 L745 1837 L936 1536 Z " />
<glyph glyph-name="ecaron" unicode="&#x11b;" horiz-adv-x="1107" d="M563 58 C330 58 238 238 266 455 L1097 455 C1165 840 979 1010 727 1010 C443 1010 229 796 176 495 C123 194 279 -20 553 -20 C757 -20 881 24 971 76 L930 150 C844 100 726 58 563 58 L563 58 Z M279 533 C329 752 500 932 717 932 C966 932 1041 753 1013 533 L279 533 Z M723 1133 L769 1133 L1066 1434 L961 1434 L757 1236 L623 1434 L532 1434 L723 1133 Z " />
<glyph glyph-name="Gcircumflex" unicode="&#x11c;" horiz-adv-x="1475" d="M1164 1837 L1118 1837 L821 1536 L926 1536 L1130 1734 L1264 1536 L1355 1536 L1164 1837 Z M826 68 C438 68 274 365 336 717 C398 1069 687 1366 1055 1366 C1332 1366 1462 1275 1462 1275 L1444 1170 L1540 1170 L1567 1327 C1567 1327 1396 1454 1071 1454 C632 1454 303 1130 234 717 C165 304 392 -20 811 -20 C984 -20 1206 20 1369 140 L1480 771 L991 771 L976 681 L1369 681 L1282 192 C1167 110 971 68 826 68 L826 68 Z " />
<glyph glyph-name="gcircumflex" unicode="&#x11d;" horiz-adv-x="1314" d="M1364 912 L1378 990 L1108 990 L1068 761 C1033 899 912 1010 725 1010 C425 1010 203 809 151 495 C99 181 279 -20 543 -20 C760 -20 890 85 971 214 L934 0 C879 -304 729 -452 460 -452 C346 -452 230 -417 145 -352 L96 -426 C189 -498 318 -532 446 -532 C723 -532 951 -424 1026 0 L1186 912 L1364 912 Z M711 932 C987 932 1060 720 1021 495 C981 270 833 58 557 58 C301 58 207 270 247 495 C286 720 445 932 711 932 L711 932 Z M830 1434 L784 1434 L487 1133 L592 1133 L796 1331 L930 1133 L1021 1133 L830 1434 Z " />
<glyph glyph-name="Gbreve" unicode="&#x11e;" horiz-adv-x="1475" d="M1086 1536 C1316 1536 1409 1688 1434 1754 L1338 1754 C1277 1652 1191 1619 1092 1619 C993 1619 926 1652 901 1754 L814 1754 C817 1688 856 1536 1086 1536 L1086 1536 Z M826 68 C438 68 274 365 336 717 C398 1069 687 1366 1055 1366 C1332 1366 1462 1275 1462 1275 L1444 1170 L1540 1170 L1567 1327 C1567 1327 1396 1454 1071 1454 C632 1454 303 1130 234 717 C165 304 392 -20 811 -20 C984 -20 1206 20 1369 140 L1480 771 L991 771 L976 681 L1369 681 L1282 192 C1167 110 971 68 826 68 L826 68 Z " />
<glyph glyph-name="gbreve" unicode="&#x11f;" horiz-adv-x="1334" d="M1384 912 L1398 990 L1128 990 L1088 761 C1053 899 932 1010 745 1010 C445 1010 223 809 171 495 C119 181 299 -20 563 -20 C780 -20 910 85 991 214 L954 0 C899 -304 749 -452 480 -452 C366 -452 250 -417 165 -352 L116 -426 C209 -498 338 -532 466 -532 C743 -532 971 -424 1046 0 L1206 912 L1384 912 Z M731 932 C1007 932 1080 720 1041 495 C1001 270 853 58 577 58 C321 58 227 270 267 495 C306 720 465 932 731 932 L731 932 Z M790 1216 C1020 1216 1113 1368 1138 1434 L1042 1434 C981 1332 895 1299 796 1299 C697 1299 630 1332 605 1434 L518 1434 C521 1368 560 1216 790 1216 L790 1216 Z " />
<glyph glyph-name="Gdotaccent" unicode="&#x120;" horiz-adv-x="1475" d="M1027 1631 C1020 1590 1048 1556 1089 1556 C1136 1556 1170 1590 1177 1631 C1185 1672 1157 1706 1116 1706 C1069 1706 1035 1672 1027 1631 L1027 1631 Z M826 68 C438 68 274 365 336 717 C398 1069 687 1366 1055 1366 C1332 1366 1462 1275 1462 1275 L1444 1170 L1540 1170 L1567 1327 C1567 1327 1396 1454 1071 1454 C632 1454 303 1130 234 717 C165 304 392 -20 811 -20 C984 -20 1206 20 1369 140 L1480 771 L991 771 L976 681 L1369 681 L1282 192 C1167 110 971 68 826 68 L826 68 Z " />
<glyph glyph-name="gdotaccent" unicode="&#x121;" horiz-adv-x="1334" d="M1384 912 L1398 990 L1128 990 L1088 761 C1053 899 932 1010 745 1010 C445 1010 223 809 171 495 C119 181 299 -20 563 -20 C780 -20 910 85 991 214 L954 0 C899 -304 749 -452 480 -452 C366 -452 250 -417 165 -352 L116 -426 C209 -498 338 -532 466 -532 C743 -532 971 -424 1046 0 L1206 912 L1384 912 Z M731 932 C1007 932 1080 720 1041 495 C1001 270 853 58 577 58 C321 58 227 270 267 495 C306 720 465 932 731 932 L731 932 Z M742 1270 C735 1229 763 1195 804 1195 C851 1195 885 1229 892 1270 C900 1311 872 1345 831 1345 C784 1345 750 1311 742 1270 L742 1270 Z " />
<glyph glyph-name="Gcommaaccent" unicode="&#x122;" horiz-adv-x="1475" d="M520 -532 L604 -532 L854 -134 L742 -134 L520 -532 Z M826 68 C438 68 274 365 336 717 C398 1069 687 1366 1055 1366 C1332 1366 1462 1275 1462 1275 L1444 1170 L1540 1170 L1567 1327 C1567 1327 1396 1454 1071 1454 C632 1454 303 1130 234 717 C165 304 392 -20 811 -20 C984 -20 1206 20 1369 140 L1480 771 L991 771 L976 681 L1369 681 L1282 192 C1167 110 971 68 826 68 L826 68 Z " />
<glyph glyph-name="gcommaaccent" unicode="&#x123;" horiz-adv-x="1334" d="M1036 1516 L952 1516 L702 1118 L814 1118 L1036 1516 Z M1384 912 L1398 990 L1128 990 L1088 761 C1053 899 932 1010 745 1010 C445 1010 223 809 171 495 C119 181 299 -20 563 -20 C780 -20 910 85 991 214 L954 0 C899 -304 749 -452 480 -452 C366 -452 250 -417 165 -352 L116 -426 C209 -498 338 -532 466 -532 C743 -532 971 -424 1046 0 L1206 912 L1384 912 Z M731 932 C1007 932 1080 720 1041 495 C1001 270 853 58 577 58 C321 58 227 270 267 495 C306 720 465 932 731 932 L731 932 Z " />
<glyph glyph-name="Hcircumflex" unicode="&#x124;" horiz-adv-x="1668" d="M130 0 L578 0 L593 88 L417 88 L523 690 L1387 690 L1281 88 L1105 88 L1090 0 L1538 0 L1553 88 L1377 88 L1599 1346 L1775 1346 L1790 1434 L1342 1434 L1327 1346 L1503 1346 L1403 778 L539 778 L639 1346 L815 1346 L830 1434 L382 1434 L367 1346 L543 1346 L321 88 L145 88 L130 0 Z M1181 1837 L1135 1837 L838 1536 L943 1536 L1147 1734 L1281 1536 L1372 1536 L1181 1837 Z " />
<glyph glyph-name="hcircumflex" unicode="&#x125;" horiz-adv-x="1408" d="M474 538 C516 775 637 932 868 932 C1099 932 1164 775 1122 538 L1028 0 L1298 0 L1311 78 L1133 78 L1214 538 C1268 840 1146 1010 882 1010 C720 1010 583 925 520 795 L647 1516 L377 1516 L363 1438 L541 1438 L301 78 L123 78 L110 0 L558 0 L571 78 L393 78 L474 538 Z M1042 1837 L996 1837 L699 1536 L804 1536 L1008 1734 L1142 1536 L1233 1536 L1042 1837 Z " />
<glyph glyph-name="Hbar" unicode="&#x126;" horiz-adv-x="1734" d="M163 0 L611 0 L626 88 L450 88 L556 690 L1420 690 L1314 88 L1138 88 L1123 0 L1571 0 L1586 88 L1410 88 L1575 1026 L1784 1026 L1799 1110 L1590 1110 L1632 1346 L1808 1346 L1823 1434 L1375 1434 L1360 1346 L1536 1346 L1494 1110 L630 1110 L672 1346 L848 1346 L863 1434 L415 1434 L400 1346 L576 1346 L534 1110 L325 1110 L310 1026 L519 1026 L354 88 L178 88 L163 0 Z M1479 1026 L1436 778 L572 778 L615 1026 L1479 1026 Z " />
<glyph glyph-name="hbar" unicode="&#x127;" horiz-adv-x="1439" d="M505 538 C547 775 668 932 899 932 C1130 932 1195 775 1153 538 L1059 0 L1329 0 L1342 78 L1164 78 L1245 538 C1299 840 1177 1010 913 1010 C751 1010 614 925 551 795 L618 1177 L915 1177 L929 1255 L632 1255 L678 1516 L408 1516 L394 1438 L572 1438 L539 1255 L352 1255 L338 1177 L526 1177 L332 78 L154 78 L141 0 L589 0 L602 78 L424 78 L505 538 Z " />
<glyph glyph-name="Itilde" unicode="&#x128;" horiz-adv-x="726" d="M140 0 L588 0 L603 88 L427 88 L649 1346 L825 1346 L840 1434 L392 1434 L377 1346 L553 1346 L331 88 L155 88 L140 0 Z M621 1615 C651 1579 680 1536 751 1536 C921 1536 936 1705 936 1705 L847 1705 C847 1705 840 1619 766 1619 C725 1619 705 1650 682 1679 C652 1715 622 1758 551 1758 C381 1758 367 1589 367 1589 L456 1589 C456 1589 463 1675 537 1675 C578 1675 597 1644 621 1615 L621 1615 Z " />
<glyph glyph-name="itilde" unicode="&#x129;" horiz-adv-x="684" d="M458 912 L311 78 L133 78 L120 0 L568 0 L581 78 L403 78 L564 990 L294 990 L280 912 L458 912 Z M542 1291 C572 1255 601 1212 672 1212 C842 1212 857 1381 857 1381 L768 1381 C768 1381 761 1295 687 1295 C646 1295 626 1326 603 1355 C573 1391 543 1434 472 1434 C302 1434 288 1265 288 1265 L377 1265 C377 1265 384 1351 458 1351 C499 1351 518 1320 542 1291 L542 1291 Z " />
<glyph glyph-name="uni012A" unicode="&#x12a;" horiz-adv-x="856" d="M360 1536 L1036 1536 L1050 1614 L374 1614 L360 1536 Z M204 0 L652 0 L667 88 L491 88 L713 1346 L889 1346 L904 1434 L456 1434 L441 1346 L617 1346 L395 88 L219 88 L204 0 Z " />
<glyph glyph-name="imacron" unicode="&#x12b;" horiz-adv-x="756" d="M279 1356 L955 1356 L968 1434 L292 1434 L279 1356 Z M492 912 L345 78 L167 78 L154 0 L602 0 L615 78 L437 78 L598 990 L328 990 L314 912 L492 912 Z " />
<glyph glyph-name="Ibreve" unicode="&#x12c;" horiz-adv-x="797" d="M176 0 L624 0 L639 88 L463 88 L685 1346 L861 1346 L876 1434 L428 1434 L413 1346 L589 1346 L367 88 L191 88 L176 0 Z M671 1536 C901 1536 994 1688 1019 1754 L923 1754 C862 1652 776 1619 677 1619 C578 1619 511 1652 486 1754 L399 1754 C402 1688 441 1536 671 1536 L671 1536 Z " />
<glyph glyph-name="uni012D" unicode="&#x12d;" horiz-adv-x="702" d="M464 912 L317 78 L139 78 L126 0 L574 0 L587 78 L409 78 L570 990 L300 990 L286 912 L464 912 Z M566 1216 C796 1216 889 1368 914 1434 L818 1434 C757 1332 671 1299 572 1299 C473 1299 406 1332 381 1434 L294 1434 C297 1368 336 1216 566 1216 L566 1216 Z " />
<glyph glyph-name="Iogonek" unicode="&#x12e;" horiz-adv-x="628" d="M90 0 L472 0 C453 -3 265 -34 243 -172 C217 -336 396 -365 463 -365 L480 -272 C480 -272 310 -278 331 -163 C353 -39 520 -2 538 0 L553 88 L377 88 L599 1346 L775 1346 L790 1434 L342 1434 L327 1346 L503 1346 L281 88 L105 88 L90 0 Z " />
<glyph glyph-name="iogonek" unicode="&#x12f;" horiz-adv-x="628" d="M448 912 L301 78 L123 78 L110 0 L492 0 C473 -3 285 -34 263 -172 C237 -336 416 -365 483 -365 L500 -272 C500 -272 330 -278 351 -163 C375 -33 558 0 558 0 L571 78 L393 78 L554 990 L284 990 L270 912 L448 912 Z M482 1270 C475 1229 503 1195 544 1195 C591 1195 625 1229 632 1270 C640 1311 612 1345 571 1345 C524 1345 490 1311 482 1270 L482 1270 Z " />
<glyph glyph-name="Idotaccent" unicode="&#x130;" horiz-adv-x="708" d="M130 0 L578 0 L593 88 L417 88 L639 1346 L815 1346 L830 1434 L382 1434 L367 1346 L543 1346 L321 88 L145 88 L130 0 Z M566 1631 C559 1590 587 1556 628 1556 C675 1556 709 1590 716 1631 C724 1672 696 1706 655 1706 C608 1706 574 1672 566 1631 L566 1631 Z " />
<glyph glyph-name="dotlessi" unicode="&#x131;" horiz-adv-x="668" d="M448 912 L301 78 L123 78 L110 0 L558 0 L571 78 L393 78 L554 990 L284 990 L270 912 L448 912 Z " />
<glyph glyph-name="IJ" unicode="&#x132;" horiz-adv-x="1785" d="M130 0 L578 0 L593 88 L417 88 L639 1346 L815 1346 L830 1434 L382 1434 L367 1346 L543 1346 L321 88 L145 88 L130 0 Z M751 192 C786 66 892 -20 1080 -20 C1356 -20 1500 123 1555 432 L1715 1346 L1892 1346 L1907 1434 L1459 1434 L1444 1346 L1619 1346 L1459 432 C1420 212 1336 68 1085 68 C921 68 865 147 833 226 L751 192 Z " />
<glyph glyph-name="ij" unicode="&#x133;" horiz-adv-x="1044" d="M448 912 L301 78 L123 78 L110 0 L558 0 L571 78 L393 78 L554 990 L284 990 L270 912 L448 912 Z M480 1270 C473 1229 501 1195 542 1195 C589 1195 623 1229 630 1270 C638 1311 610 1345 569 1345 C522 1345 488 1311 480 1270 L480 1270 Z M1059 990 L789 990 L775 912 L953 912 L780 -72 C743 -281 700 -454 536 -454 C485 -454 445 -446 411 -431 L373 -504 C409 -523 460 -532 523 -532 C751 -532 820 -366 872 -72 L1059 990 Z M987 1270 C980 1229 1008 1195 1049 1195 C1096 1195 1130 1229 1137 1270 C1145 1311 1117 1345 1076 1345 C1029 1345 995 1311 987 1270 L987 1270 Z " />
<glyph glyph-name="Jcircumflex" unicode="&#x134;" horiz-adv-x="1193" d="M123 192 C158 66 264 -20 452 -20 C728 -20 872 123 927 432 L1087 1346 L1264 1346 L1279 1434 L831 1434 L816 1346 L991 1346 L831 432 C792 212 708 68 457 68 C293 68 237 147 205 226 L123 192 Z M1142 1837 L1096 1837 L799 1536 L904 1536 L1108 1734 L1242 1536 L1333 1536 L1142 1837 Z " />
<glyph glyph-name="jcircumflex" unicode="&#x135;" horiz-adv-x="520" d="M488 990 L218 990 L204 912 L382 912 L209 -72 C172 -281 129 -454 -35 -454 C-86 -454 -126 -446 -160 -431 L-198 -504 C-162 -523 -111 -532 -48 -532 C180 -532 249 -366 301 -72 L488 990 Z M528 1434 L482 1434 L185 1133 L290 1133 L494 1331 L628 1133 L719 1133 L528 1434 Z " />
<glyph glyph-name="Kcommaaccent" unicode="&#x136;" horiz-adv-x="1536" d="M477 -532 L561 -532 L811 -134 L699 -134 L477 -532 Z M130 0 L578 0 L593 88 L417 88 L497 539 L753 752 L1198 0 L1406 0 L1421 88 L1257 88 L827 813 L1471 1346 L1633 1346 L1648 1434 L1200 1434 L1185 1346 L1338 1346 L519 670 L639 1346 L815 1346 L830 1434 L382 1434 L367 1346 L543 1346 L321 88 L145 88 L130 0 Z " />
<glyph glyph-name="kcommaaccent" unicode="&#x137;" horiz-adv-x="1305" d="M354 -532 L438 -532 L688 -134 L576 -134 L354 -532 Z M468 501 L647 1516 L377 1516 L363 1438 L541 1438 L301 78 L123 78 L110 0 L558 0 L571 78 L393 78 L446 376 L636 521 L996 0 L1195 0 L1208 78 L1049 78 L706 574 L1150 912 L1314 912 L1328 990 L880 990 L866 912 L1008 912 L468 501 Z " />
<glyph glyph-name="kgreenlandic" unicode="&#x138;" horiz-adv-x="1403" d="M543 1346 L321 88 L145 88 L130 0 L578 0 L593 88 L417 88 L516 650 L652 751 C807 661 1006 462 1118 0 L1351 0 L1366 88 L1195 88 C1096 485 883 714 726 810 C962 988 1243 1329 1499 1344 L1515 1434 C1210 1442 912 1045 537 768 L639 1346 L815 1346 L830 1434 L382 1434 L367 1346 L543 1346 Z " />
<glyph glyph-name="Lacute" unicode="&#x139;" horiz-adv-x="1285" d="M571 1536 L675 1536 L977 1807 L841 1807 L571 1536 Z M130 0 L1155 0 L1201 264 L1105 264 L1074 88 L417 88 L639 1346 L815 1346 L830 1434 L382 1434 L367 1346 L543 1346 L321 88 L145 88 L130 0 Z " />
<glyph glyph-name="lacute" unicode="&#x13a;" horiz-adv-x="670" d="M519 1576 L623 1576 L925 1847 L789 1847 L519 1576 Z M501 1438 L261 78 L83 78 L70 0 L518 0 L531 78 L353 78 L607 1516 L337 1516 L323 1438 L501 1438 Z " />
<glyph glyph-name="Lcommaaccent" unicode="&#x13b;" horiz-adv-x="1285" d="M358 -532 L442 -532 L692 -134 L580 -134 L358 -532 Z M130 0 L1155 0 L1201 264 L1105 264 L1074 88 L417 88 L639 1346 L815 1346 L830 1434 L382 1434 L367 1346 L543 1346 L321 88 L145 88 L130 0 Z " />
<glyph glyph-name="lcommaaccent" unicode="&#x13c;" horiz-adv-x="588" d="M-4 -532 L79 -532 L329 -134 L217 -134 L-4 -532 Z M501 1438 L261 78 L83 78 L70 0 L518 0 L531 78 L353 78 L607 1516 L337 1516 L323 1438 L501 1438 Z " />
<glyph glyph-name="Lcaron" unicode="&#x13d;" horiz-adv-x="1285" d="M130 0 L1155 0 L1201 264 L1105 264 L1074 88 L417 88 L639 1346 L815 1346 L830 1434 L382 1434 L367 1346 L543 1346 L321 88 L145 88 L130 0 Z M801 1037 L885 1037 L1076 1434 L963 1434 L801 1037 Z " />
<glyph glyph-name="lcaron" unicode="&#x13e;" horiz-adv-x="698" d="M501 1438 L261 78 L83 78 L70 0 L518 0 L531 78 L353 78 L607 1516 L337 1516 L323 1438 L501 1438 Z M612 1119 L696 1119 L887 1516 L774 1516 L612 1119 Z " />
<glyph glyph-name="Ldot" unicode="&#x13f;" horiz-adv-x="1285" d="M130 0 L1155 0 L1201 264 L1105 264 L1074 88 L417 88 L639 1346 L815 1346 L830 1434 L382 1434 L367 1346 L543 1346 L321 88 L145 88 L130 0 Z M1068 734 C1061 693 1089 659 1130 659 C1177 659 1211 693 1218 734 C1226 775 1198 809 1157 809 C1110 809 1076 775 1068 734 L1068 734 Z " />
<glyph glyph-name="ldot" unicode="&#x140;" horiz-adv-x="688" d="M541 1438 L301 78 L123 78 L110 0 L558 0 L571 78 L393 78 L647 1516 L377 1516 L363 1438 L541 1438 Z M728 794 C721 753 749 719 790 719 C837 719 871 753 878 794 C886 835 858 869 817 869 C770 869 736 835 728 794 L728 794 Z " />
<glyph glyph-name="Lslash" unicode="&#x141;" horiz-adv-x="1331" d="M176 0 L1201 0 L1247 264 L1151 264 L1120 88 L463 88 L571 701 L821 861 L842 976 L591 816 L685 1346 L861 1346 L876 1434 L428 1434 L413 1346 L589 1346 L483 747 L233 588 L213 473 L463 632 L367 88 L191 88 L176 0 Z " />
<glyph glyph-name="lslash" unicode="&#x142;" horiz-adv-x="674" d="M544 1438 L434 816 L229 679 L210 568 L415 705 L304 78 L126 78 L113 0 L561 0 L574 78 L396 78 L519 775 L724 913 L744 1024 L539 886 L650 1516 L380 1516 L366 1438 L544 1438 Z " />
<glyph glyph-name="Nacute" unicode="&#x143;" horiz-adv-x="1678" d="M1026 1536 L1130 1536 L1432 1807 L1296 1807 L1026 1536 Z M145 88 L130 0 L578 0 L593 88 L418 88 L632 1302 L1263 0 L1373 0 L1609 1346 L1785 1346 L1800 1434 L1352 1434 L1337 1346 L1513 1346 L1300 132 L669 1434 L382 1434 L367 1346 L543 1346 L322 88 L145 88 Z " />
<glyph glyph-name="nacute" unicode="&#x144;" horiz-adv-x="1408" d="M842 1163 L946 1163 L1247 1434 L1111 1434 L842 1163 Z M474 538 C516 775 637 932 868 932 C1099 932 1164 775 1122 538 L1028 0 L1298 0 L1311 78 L1133 78 L1214 538 C1268 840 1156 1010 882 1010 C720 1010 583 925 520 795 L554 990 L284 990 L270 912 L448 912 L301 78 L123 78 L110 0 L558 0 L571 78 L393 78 L474 538 Z " />
<glyph glyph-name="Ncommaaccent" unicode="&#x145;" horiz-adv-x="1678" d="M540 -532 L624 -532 L874 -134 L762 -134 L540 -532 Z M145 88 L130 0 L578 0 L593 88 L418 88 L632 1302 L1263 0 L1373 0 L1609 1346 L1785 1346 L1800 1434 L1352 1434 L1337 1346 L1513 1346 L1300 132 L669 1434 L382 1434 L367 1346 L543 1346 L322 88 L145 88 Z " />
<glyph glyph-name="ncommaaccent" unicode="&#x146;" horiz-adv-x="1408" d="M405 -532 L489 -532 L739 -134 L627 -134 L405 -532 Z M474 538 C516 775 637 932 868 932 C1099 932 1164 775 1122 538 L1028 0 L1298 0 L1311 78 L1133 78 L1214 538 C1268 840 1156 1010 882 1010 C720 1010 583 925 520 795 L554 990 L284 990 L270 912 L448 912 L301 78 L123 78 L110 0 L558 0 L571 78 L393 78 L474 538 Z " />
<glyph glyph-name="Ncaron" unicode="&#x147;" horiz-adv-x="1678" d="M1066 1536 L1112 1536 L1409 1837 L1304 1837 L1100 1639 L966 1837 L875 1837 L1066 1536 Z M145 88 L130 0 L578 0 L593 88 L418 88 L632 1302 L1263 0 L1373 0 L1609 1346 L1785 1346 L1800 1434 L1352 1434 L1337 1346 L1513 1346 L1300 132 L669 1434 L382 1434 L367 1346 L543 1346 L322 88 L145 88 Z " />
<glyph glyph-name="ncaron" unicode="&#x148;" horiz-adv-x="1408" d="M474 538 C516 775 637 932 868 932 C1099 932 1164 775 1122 538 L1028 0 L1298 0 L1311 78 L1133 78 L1214 538 C1268 840 1156 1010 882 1010 C720 1010 583 925 520 795 L554 990 L284 990 L270 912 L448 912 L301 78 L123 78 L110 0 L558 0 L571 78 L393 78 L474 538 Z M873 1133 L919 1133 L1216 1434 L1111 1434 L907 1236 L773 1434 L682 1434 L873 1133 Z " />
<glyph glyph-name="napostrophe" unicode="&#x149;" horiz-adv-x="1460" d="M192 1036 L276 1036 L526 1434 L414 1434 L192 1036 Z M526 538 C568 775 689 932 920 932 C1151 932 1216 775 1174 538 L1080 0 L1350 0 L1363 78 L1185 78 L1266 538 C1320 840 1208 1010 934 1010 C772 1010 635 925 572 795 L606 990 L336 990 L322 912 L500 912 L353 78 L175 78 L162 0 L610 0 L623 78 L445 78 L526 538 Z " />
<glyph glyph-name="Eng" unicode="&#x14a;" horiz-adv-x="1678" d="M1300 132 L669 1434 L382 1434 L367 1346 L543 1346 L322 88 L145 88 L130 0 L578 0 L593 88 L418 88 L632 1302 L1263 0 L1277 0 L1263 -80 C1224 -300 1140 -444 889 -444 C725 -444 669 -365 637 -286 L555 -320 C590 -446 696 -532 884 -532 C1160 -532 1304 -389 1359 -80 L1609 1346 L1785 1346 L1800 1434 L1352 1434 L1337 1346 L1513 1346 L1300 132 Z " />
<glyph glyph-name="eng" unicode="&#x14b;" horiz-adv-x="1250" d="M1214 538 C1268 840 1156 1010 882 1010 C720 1010 583 925 520 795 L554 990 L284 990 L270 912 L448 912 L301 78 L123 78 L110 0 L558 0 L571 78 L393 78 L474 538 C516 775 637 932 868 932 C1099 932 1164 775 1122 538 L1015 -72 C978 -281 935 -454 771 -454 C720 -454 680 -446 646 -431 L608 -504 C644 -523 695 -532 758 -532 C986 -532 1055 -366 1107 -72 L1214 538 Z " />
<glyph glyph-name="Omacron" unicode="&#x14c;" horiz-adv-x="1629" d="M747 1536 L1423 1536 L1437 1614 L761 1614 L747 1536 Z M234 717 C165 304 392 -20 811 -20 C1260 -20 1580 294 1648 717 C1716 1140 1480 1454 1071 1454 C632 1454 303 1130 234 717 L234 717 Z M336 717 C398 1069 687 1366 1055 1366 C1443 1366 1606 1069 1546 717 C1484 355 1214 68 826 68 C438 68 274 365 336 717 L336 717 Z " />
<glyph glyph-name="omacron" unicode="&#x14d;" horiz-adv-x="1192" d="M497 1356 L1173 1356 L1186 1434 L510 1434 L497 1356 Z M177 495 C124 193 290 -20 592 -20 C904 -20 1136 193 1189 495 C1242 797 1076 1010 774 1010 C460 1010 230 796 177 495 L177 495 Z M271 495 C314 742 505 932 760 932 C1044 932 1138 742 1095 495 C1051 248 860 58 606 58 C331 58 227 248 271 495 L271 495 Z " />
<glyph glyph-name="Obreve" unicode="&#x14e;" horiz-adv-x="1629" d="M1088 1536 C1318 1536 1411 1688 1436 1754 L1340 1754 C1279 1652 1193 1619 1094 1619 C995 1619 928 1652 903 1754 L816 1754 C819 1688 858 1536 1088 1536 L1088 1536 Z M234 717 C165 304 392 -20 811 -20 C1260 -20 1580 294 1648 717 C1716 1140 1480 1454 1071 1454 C632 1454 303 1130 234 717 L234 717 Z M336 717 C398 1069 687 1366 1055 1366 C1443 1366 1606 1069 1546 717 C1484 355 1214 68 826 68 C438 68 274 365 336 717 L336 717 Z " />
<glyph glyph-name="obreve" unicode="&#x14f;" horiz-adv-x="1192" d="M177 495 C124 193 290 -20 592 -20 C904 -20 1136 193 1189 495 C1242 797 1076 1010 774 1010 C460 1010 230 796 177 495 L177 495 Z M271 495 C314 742 505 932 760 932 C1044 932 1138 742 1095 495 C1051 248 860 58 606 58 C331 58 227 248 271 495 L271 495 Z M810 1216 C1040 1216 1133 1368 1158 1434 L1062 1434 C1001 1332 915 1299 816 1299 C717 1299 650 1332 625 1434 L538 1434 C541 1368 580 1216 810 1216 L810 1216 Z " />
<glyph glyph-name="Ohungarumlaut" unicode="&#x150;" horiz-adv-x="1629" d="M1165 1536 L1247 1536 L1482 1895 L1369 1895 L1165 1536 Z M929 1536 L1013 1536 L1247 1895 L1134 1895 L929 1536 Z M234 717 C165 304 392 -20 811 -20 C1260 -20 1580 294 1648 717 C1716 1140 1480 1454 1071 1454 C632 1454 303 1130 234 717 L234 717 Z M336 717 C398 1069 687 1366 1055 1366 C1443 1366 1606 1069 1546 717 C1484 355 1214 68 826 68 C438 68 274 365 336 717 L336 717 Z " />
<glyph glyph-name="ohungarumlaut" unicode="&#x151;" horiz-adv-x="1192" d="M867 1156 L949 1156 L1184 1515 L1071 1515 L867 1156 Z M631 1156 L715 1156 L949 1515 L836 1515 L631 1156 Z M177 495 C124 193 290 -20 592 -20 C904 -20 1136 193 1189 495 C1242 797 1076 1010 774 1010 C460 1010 230 796 177 495 L177 495 Z M271 495 C314 742 505 932 760 932 C1044 932 1138 742 1095 495 C1051 248 860 58 606 58 C331 58 227 248 271 495 L271 495 Z " />
<glyph glyph-name="OE" unicode="&#x152;" horiz-adv-x="2161" d="M1113 0 L2051 0 L2097 264 L2001 264 L1970 88 L1224 88 L1330 690 L2044 690 L2060 778 L1346 778 L1446 1346 L2182 1346 L2151 1170 L2247 1170 L2293 1434 L1365 1434 L1356 1382 C1270 1428 1168 1454 1051 1454 C612 1454 283 1130 214 717 C145 304 372 -20 791 -20 C911 -20 1021 2 1120 43 L1113 0 Z M806 68 C418 68 254 365 316 717 C378 1069 667 1366 1035 1366 C1159 1366 1260 1335 1338 1283 L1139 149 C1042 97 930 68 806 68 L806 68 Z " />
<glyph glyph-name="oe" unicode="&#x153;" horiz-adv-x="2026" d="M1482 58 C1249 58 1157 238 1185 455 L2016 455 C2084 840 1898 1010 1646 1010 C1445 1010 1280 903 1181 735 C1133 904 987 1010 774 1010 C460 1010 230 796 177 495 C124 193 290 -20 592 -20 C813 -20 994 87 1100 257 C1143 87 1277 -20 1472 -20 C1676 -20 1800 24 1890 76 L1849 150 C1763 100 1645 58 1482 58 L1482 58 Z M271 495 C314 742 505 932 760 932 C1044 932 1138 742 1095 495 C1051 248 860 58 606 58 C331 58 227 248 271 495 L271 495 Z M1198 533 C1248 752 1419 932 1636 932 C1885 932 1960 753 1932 533 L1198 533 Z " />
<glyph glyph-name="Racute" unicode="&#x154;" horiz-adv-x="1474" d="M896 1536 L1000 1536 L1302 1807 L1166 1807 L896 1536 Z M130 0 L578 0 L593 88 L417 88 L513 630 L943 630 L1140 0 L1364 0 L1379 88 L1208 88 L1039 630 C1289 636 1468 790 1505 1032 C1538 1248 1445 1434 1190 1434 L382 1434 L367 1346 L543 1346 L321 88 L145 88 L130 0 Z M1175 1346 C1377 1346 1434 1194 1405 1032 C1377 870 1266 718 1064 718 L528 718 L639 1346 L1175 1346 Z " />
<glyph glyph-name="racute" unicode="&#x155;" horiz-adv-x="943" d="M734 1163 L838 1163 L1139 1434 L1003 1434 L734 1163 Z M1074 971 C1022 997 959 1010 882 1010 C720 1010 583 925 520 795 L554 990 L284 990 L270 912 L448 912 L301 78 L123 78 L110 0 L558 0 L571 78 L393 78 L474 538 C516 775 637 932 868 932 C929 932 978 919 1017 901 L1074 971 Z " />
<glyph glyph-name="Rcommaaccent" unicode="&#x156;" horiz-adv-x="1474" d="M439 -532 L523 -532 L773 -134 L661 -134 L439 -532 Z M130 0 L578 0 L593 88 L417 88 L513 630 L943 630 L1140 0 L1364 0 L1379 88 L1208 88 L1039 630 C1289 636 1468 790 1505 1032 C1538 1248 1445 1434 1190 1434 L382 1434 L367 1346 L543 1346 L321 88 L145 88 L130 0 Z M1175 1346 C1377 1346 1434 1194 1405 1032 C1377 870 1266 718 1064 718 L528 718 L639 1346 L1175 1346 Z " />
<glyph glyph-name="rcommaaccent" unicode="&#x157;" horiz-adv-x="943" d="M29 -532 L113 -532 L363 -134 L251 -134 L29 -532 Z M1074 971 C1022 997 959 1010 882 1010 C720 1010 583 925 520 795 L554 990 L284 990 L270 912 L448 912 L301 78 L123 78 L110 0 L558 0 L571 78 L393 78 L474 538 C516 775 637 932 868 932 C929 932 978 919 1017 901 L1074 971 Z " />
<glyph glyph-name="Rcaron" unicode="&#x158;" horiz-adv-x="1474" d="M932 1536 L978 1536 L1275 1837 L1170 1837 L966 1639 L832 1837 L741 1837 L932 1536 Z M130 0 L578 0 L593 88 L417 88 L513 630 L943 630 L1140 0 L1364 0 L1379 88 L1208 88 L1039 630 C1289 636 1468 790 1505 1032 C1538 1248 1445 1434 1190 1434 L382 1434 L367 1346 L543 1346 L321 88 L145 88 L130 0 Z M1175 1346 C1377 1346 1434 1194 1405 1032 C1377 870 1266 718 1064 718 L528 718 L639 1346 L1175 1346 Z " />
<glyph glyph-name="rcaron" unicode="&#x159;" horiz-adv-x="931" d="M1074 971 C1022 997 959 1010 882 1010 C720 1010 583 925 520 795 L554 990 L284 990 L270 912 L448 912 L301 78 L123 78 L110 0 L558 0 L571 78 L393 78 L474 538 C516 775 637 932 868 932 C929 932 978 919 1017 901 L1074 971 Z M759 1133 L805 1133 L1102 1434 L997 1434 L793 1236 L659 1434 L568 1434 L759 1133 Z " />
<glyph glyph-name="Sacute" unicode="&#x15a;" horiz-adv-x="1309" d="M853 1536 L957 1536 L1259 1807 L1123 1807 L853 1536 Z M1201 1170 L1297 1170 L1328 1349 C1328 1349 1148 1454 901 1454 C550 1454 394 1304 364 1098 C337 914 445 771 780 699 C1121 626 1166 523 1138 360 C1106 173 934 68 695 68 C450 68 278 169 278 169 L301 305 L205 305 L173 122 C173 122 348 -20 680 -20 C960 -20 1196 96 1238 360 C1274 587 1152 717 812 789 C513 852 443 957 468 1098 C501 1283 658 1366 885 1366 C1023 1366 1134 1341 1223 1296 L1201 1170 Z " />
<glyph glyph-name="sacute" unicode="&#x15b;" horiz-adv-x="992" d="M636 1163 L740 1163 L1041 1434 L905 1434 L636 1163 Z M876 736 L968 736 L1003 935 C1003 935 854 1010 666 1010 C390 1010 282 886 260 753 C238 620 312 527 576 475 C796 432 855 374 835 258 C816 148 706 58 524 58 C424 58 314 80 224 128 L251 280 L159 280 L125 89 C225 12 374 -20 510 -20 C733 -20 894 73 927 258 C954 413 851 505 606 552 C387 594 335 653 352 753 C371 860 467 932 652 932 C766 932 840 912 902 884 L876 736 Z " />
<glyph glyph-name="Scircumflex" unicode="&#x15c;" horiz-adv-x="1309" d="M998 1837 L952 1837 L655 1536 L760 1536 L964 1734 L1098 1536 L1189 1536 L998 1837 Z M1201 1170 L1297 1170 L1328 1349 C1328 1349 1148 1454 901 1454 C550 1454 394 1304 364 1098 C337 914 445 771 780 699 C1121 626 1166 523 1138 360 C1106 173 934 68 695 68 C450 68 278 169 278 169 L301 305 L205 305 L173 122 C173 122 348 -20 680 -20 C960 -20 1196 96 1238 360 C1274 587 1152 717 812 789 C513 852 443 957 468 1098 C501 1283 658 1366 885 1366 C1023 1366 1134 1341 1223 1296 L1201 1170 Z " />
<glyph glyph-name="scircumflex" unicode="&#x15d;" horiz-adv-x="992" d="M766 1434 L720 1434 L423 1133 L528 1133 L732 1331 L866 1133 L957 1133 L766 1434 Z M876 736 L968 736 L1003 935 C1003 935 854 1010 666 1010 C390 1010 282 886 260 753 C238 620 312 527 576 475 C796 432 855 374 835 258 C816 148 706 58 524 58 C424 58 314 80 224 128 L251 280 L159 280 L125 89 C225 12 374 -20 510 -20 C733 -20 894 73 927 258 C954 413 851 505 606 552 C387 594 335 653 352 753 C371 860 467 932 652 932 C766 932 840 912 902 884 L876 736 Z " />
<glyph glyph-name="Scedilla" unicode="&#x15e;" horiz-adv-x="1309" d="M1201 1170 L1297 1170 L1328 1349 C1328 1349 1148 1454 901 1454 C550 1454 394 1304 364 1098 C337 914 445 771 780 699 C1121 626 1166 523 1138 360 C1106 173 934 68 695 68 C450 68 278 169 278 169 L301 305 L205 305 L173 122 C173 122 329 -4 626 -18 L533 -196 C643 -186 752 -192 729 -281 C697 -400 560 -384 465 -342 L418 -404 C538 -480 781 -481 816 -285 C836 -176 748 -127 656 -125 L710 -19 C977 -11 1197 105 1238 360 C1274 587 1152 717 812 789 C513 852 443 957 468 1098 C501 1283 658 1366 885 1366 C1023 1366 1134 1341 1223 1296 L1201 1170 Z " />
<glyph glyph-name="scedilla" unicode="&#x15f;" horiz-adv-x="992" d="M876 736 L968 736 L1003 935 C1003 935 854 1010 666 1010 C390 1010 282 886 260 753 C238 620 312 527 576 475 C796 432 855 374 835 258 C816 148 706 58 524 58 C424 58 314 80 224 128 L251 280 L159 280 L125 89 C212 21 337 -11 458 -18 L366 -196 C476 -186 585 -192 562 -281 C530 -400 393 -384 298 -342 L251 -404 C371 -480 614 -481 649 -285 C669 -176 581 -127 489 -125 L545 -19 C749 -10 896 83 927 258 C954 413 851 505 606 552 C387 594 335 653 352 753 C371 860 467 932 652 932 C766 932 840 912 902 884 L876 736 Z " />
<glyph glyph-name="Scaron" unicode="&#x160;" horiz-adv-x="1309" d="M887 1536 L933 1536 L1230 1837 L1125 1837 L921 1639 L787 1837 L696 1837 L887 1536 Z M1201 1170 L1297 1170 L1328 1349 C1328 1349 1148 1454 901 1454 C550 1454 394 1304 364 1098 C337 914 445 771 780 699 C1121 626 1166 523 1138 360 C1106 173 934 68 695 68 C450 68 278 169 278 169 L301 305 L205 305 L173 122 C173 122 348 -20 680 -20 C960 -20 1196 96 1238 360 C1274 587 1152 717 812 789 C513 852 443 957 468 1098 C501 1283 658 1366 885 1366 C1023 1366 1134 1341 1223 1296 L1201 1170 Z " />
<glyph glyph-name="scaron" unicode="&#x161;" horiz-adv-x="991" d="M669 1133 L715 1133 L1012 1434 L907 1434 L703 1236 L569 1434 L478 1434 L669 1133 Z M876 736 L968 736 L1003 935 C1003 935 854 1010 666 1010 C390 1010 282 886 260 753 C238 620 312 527 576 475 C796 432 855 374 835 258 C816 148 706 58 524 58 C424 58 314 80 224 128 L251 280 L159 280 L125 89 C225 12 374 -20 510 -20 C733 -20 894 73 927 258 C954 413 851 505 606 552 C387 594 335 653 352 753 C371 860 467 932 652 932 C766 932 840 912 902 884 L876 736 Z " />
<glyph glyph-name="Tcommaaccent" unicode="&#x162;" horiz-adv-x="1436" d="M419 -532 L503 -532 L754 -135 L641 -135 L419 -532 Z M1003 1346 L1447 1346 L1416 1170 L1512 1170 L1558 1434 L382 1434 L336 1170 L432 1170 L463 1346 L907 1346 L685 88 L509 88 L494 0 L942 0 L957 88 L781 88 L1003 1346 Z " />
<glyph glyph-name="tcommaaccent" unicode="&#x163;" horiz-adv-x="797" d="M230 -532 L314 -532 L564 -134 L452 -134 L230 -532 Z M241 912 L455 912 L360 373 C316 123 350 -20 577 -20 C624 -20 686 -14 738 4 L718 80 C674 64 630 58 591 58 C392 58 424 215 464 441 L547 912 L860 912 L874 990 L561 990 L614 1288 L522 1288 L469 990 L255 990 L241 912 Z " />
<glyph glyph-name="Tcaron" unicode="&#x164;" horiz-adv-x="1436" d="M1003 1346 L1447 1346 L1416 1170 L1512 1170 L1558 1434 L382 1434 L336 1170 L432 1170 L463 1346 L907 1346 L685 88 L509 88 L494 0 L942 0 L957 88 L781 88 L1003 1346 Z M952 1536 L998 1536 L1295 1837 L1190 1837 L986 1639 L852 1837 L761 1837 L952 1536 Z " />
<glyph glyph-name="tcaron" unicode="&#x165;" horiz-adv-x="1036" d="M886 1119 L970 1119 L1161 1516 L1048 1516 L886 1119 Z M230 912 L444 912 L349 373 C305 123 339 -20 566 -20 C613 -20 675 -14 727 4 L707 80 C663 64 619 58 580 58 C381 58 413 215 453 441 L536 912 L849 912 L863 990 L550 990 L603 1288 L511 1288 L458 990 L244 990 L230 912 Z " />
<glyph glyph-name="Tbar" unicode="&#x166;" horiz-adv-x="1436" d="M497 870 L823 870 L685 88 L509 88 L494 0 L942 0 L957 88 L781 88 L919 870 L1245 870 L1260 958 L934 958 L1003 1346 L1447 1346 L1416 1170 L1512 1170 L1558 1434 L382 1434 L336 1170 L432 1170 L463 1346 L907 1346 L838 958 L512 958 L497 870 Z " />
<glyph glyph-name="tbar" unicode="&#x167;" horiz-adv-x="786" d="M230 912 L444 912 L396 641 L183 641 L169 563 L382 563 L349 373 C305 123 339 -20 566 -20 C613 -20 675 -14 727 4 L707 80 C663 64 619 58 580 58 C381 58 413 215 453 441 L474 563 L788 563 L802 641 L488 641 L536 912 L849 912 L863 990 L550 990 L603 1288 L511 1288 L458 990 L244 990 L230 912 Z " />
<glyph glyph-name="Utilde" unicode="&#x168;" horiz-adv-x="1693" d="M1800 1346 L1815 1434 L1367 1434 L1352 1346 L1527 1346 L1391 571 C1333 243 1139 68 858 68 C586 68 446 255 502 571 L638 1346 L815 1346 L830 1434 L382 1434 L367 1346 L542 1346 L406 571 C338 183 557 -20 843 -20 C1137 -20 1409 127 1487 571 L1623 1346 L1800 1346 Z M1102 1615 C1132 1579 1161 1536 1232 1536 C1402 1536 1417 1705 1417 1705 L1328 1705 C1328 1705 1321 1619 1247 1619 C1206 1619 1186 1650 1163 1679 C1133 1715 1103 1758 1032 1758 C862 1758 848 1589 848 1589 L937 1589 C937 1589 944 1675 1018 1675 C1059 1675 1078 1644 1102 1615 L1102 1615 Z " />
<glyph glyph-name="utilde" unicode="&#x169;" horiz-adv-x="1408" d="M459 452 L554 990 L284 990 L270 912 L448 912 L367 452 C314 150 426 -20 700 -20 C862 -20 999 65 1062 195 L1028 0 L1298 0 L1311 78 L1133 78 L1294 990 L1024 990 L1010 912 L1188 912 L1107 452 C1065 215 945 58 714 58 C483 58 417 215 459 452 L459 452 Z M907 1291 C937 1255 966 1212 1037 1212 C1207 1212 1222 1381 1222 1381 L1133 1381 C1133 1381 1126 1295 1052 1295 C1011 1295 991 1326 968 1355 C938 1391 908 1434 837 1434 C667 1434 653 1265 653 1265 L742 1265 C742 1265 749 1351 823 1351 C864 1351 883 1320 907 1291 L907 1291 Z " />
<glyph glyph-name="Umacron" unicode="&#x16a;" horiz-adv-x="1693" d="M778 1536 L1454 1536 L1468 1614 L792 1614 L778 1536 Z M1800 1346 L1815 1434 L1367 1434 L1352 1346 L1527 1346 L1391 571 C1333 243 1139 68 858 68 C586 68 446 255 502 571 L638 1346 L815 1346 L830 1434 L382 1434 L367 1346 L542 1346 L406 571 C338 183 557 -20 843 -20 C1137 -20 1409 127 1487 571 L1623 1346 L1800 1346 Z " />
<glyph glyph-name="umacron" unicode="&#x16b;" horiz-adv-x="1408" d="M605 1356 L1281 1356 L1294 1434 L618 1434 L605 1356 Z M459 452 L554 990 L284 990 L270 912 L448 912 L367 452 C314 150 426 -20 700 -20 C862 -20 999 65 1062 195 L1028 0 L1298 0 L1311 78 L1133 78 L1294 990 L1024 990 L1010 912 L1188 912 L1107 452 C1065 215 945 58 714 58 C483 58 417 215 459 452 L459 452 Z " />
<glyph glyph-name="Ubreve" unicode="&#x16c;" horiz-adv-x="1693" d="M1800 1346 L1815 1434 L1367 1434 L1352 1346 L1527 1346 L1391 571 C1333 243 1139 68 858 68 C586 68 446 255 502 571 L638 1346 L815 1346 L830 1434 L382 1434 L367 1346 L542 1346 L406 571 C338 183 557 -20 843 -20 C1137 -20 1409 127 1487 571 L1623 1346 L1800 1346 Z M1116 1536 C1346 1536 1439 1688 1464 1754 L1368 1754 C1307 1652 1221 1619 1122 1619 C1023 1619 956 1652 931 1754 L844 1754 C847 1688 886 1536 1116 1536 L1116 1536 Z " />
<glyph glyph-name="ubreve" unicode="&#x16d;" horiz-adv-x="1408" d="M459 452 L554 990 L284 990 L270 912 L448 912 L367 452 C314 150 426 -20 700 -20 C862 -20 999 65 1062 195 L1028 0 L1298 0 L1311 78 L1133 78 L1294 990 L1024 990 L1010 912 L1188 912 L1107 452 C1065 215 945 58 714 58 C483 58 417 215 459 452 L459 452 Z M918 1216 C1148 1216 1241 1368 1266 1434 L1170 1434 C1109 1332 1023 1299 924 1299 C825 1299 758 1332 733 1434 L646 1434 C649 1368 688 1216 918 1216 L918 1216 Z " />
<glyph glyph-name="Uring" unicode="&#x16e;" horiz-adv-x="1693" d="M1800 1346 L1815 1434 L1367 1434 L1352 1346 L1527 1346 L1391 571 C1333 243 1139 68 858 68 C586 68 446 255 502 571 L638 1346 L815 1346 L830 1434 L382 1434 L367 1346 L542 1346 L406 571 C338 183 557 -20 843 -20 C1137 -20 1409 127 1487 571 L1623 1346 L1800 1346 Z M976 1706 C961 1614 1016 1536 1118 1536 C1231 1536 1300 1610 1316 1706 C1332 1799 1287 1876 1174 1876 C1072 1876 992 1803 976 1706 L976 1706 Z M1042 1706 C1052 1763 1097 1810 1164 1810 C1241 1810 1260 1763 1250 1706 C1240 1649 1195 1602 1128 1602 C1051 1602 1032 1649 1042 1706 L1042 1706 Z " />
<glyph glyph-name="uring" unicode="&#x16f;" horiz-adv-x="1408" d="M459 452 L554 990 L284 990 L270 912 L448 912 L367 452 C314 150 426 -20 700 -20 C862 -20 999 65 1062 195 L1028 0 L1298 0 L1311 78 L1133 78 L1294 990 L1024 990 L1010 912 L1188 912 L1107 452 C1065 215 945 58 714 58 C483 58 417 215 459 452 L459 452 Z M760 1284 C745 1192 800 1114 902 1114 C1015 1114 1084 1188 1100 1284 C1116 1377 1071 1454 958 1454 C856 1454 776 1381 760 1284 L760 1284 Z M826 1284 C836 1341 881 1388 948 1388 C1025 1388 1044 1341 1034 1284 C1024 1227 979 1180 912 1180 C835 1180 816 1227 826 1284 L826 1284 Z " />
<glyph glyph-name="Uhungarumlaut" unicode="&#x170;" horiz-adv-x="1693" d="M1189 1536 L1271 1536 L1506 1895 L1393 1895 L1189 1536 Z M953 1536 L1037 1536 L1271 1895 L1158 1895 L953 1536 Z M1800 1346 L1815 1434 L1367 1434 L1352 1346 L1527 1346 L1391 571 C1333 243 1139 68 858 68 C586 68 446 255 502 571 L638 1346 L815 1346 L830 1434 L382 1434 L367 1346 L542 1346 L406 571 C338 183 557 -20 843 -20 C1137 -20 1409 127 1487 571 L1623 1346 L1800 1346 Z " />
<glyph glyph-name="uhungarumlaut" unicode="&#x171;" horiz-adv-x="1408" d="M968 1157 L1050 1157 L1284 1516 L1171 1516 L968 1157 Z M732 1157 L816 1157 L1049 1516 L936 1516 L732 1157 Z M459 452 L554 990 L284 990 L270 912 L448 912 L367 452 C314 150 426 -20 700 -20 C862 -20 999 65 1062 195 L1028 0 L1298 0 L1311 78 L1133 78 L1294 990 L1024 990 L1010 912 L1188 912 L1107 452 C1065 215 945 58 714 58 C483 58 417 215 459 452 L459 452 Z " />
<glyph glyph-name="Uogonek" unicode="&#x172;" horiz-adv-x="1693" d="M1800 1346 L1815 1434 L1367 1434 L1352 1346 L1527 1346 L1391 571 C1333 243 1139 68 858 68 C586 68 446 255 502 571 L638 1346 L815 1346 L830 1434 L382 1434 L367 1346 L542 1346 L406 571 C338 183 557 -20 843 -20 C855 -20 867 -19 880 -19 C818 -41 738 -85 725 -172 C699 -336 878 -365 945 -365 L962 -272 C962 -272 792 -278 813 -163 C833 -55 961 -14 1005 -3 C1232 45 1423 210 1487 571 L1623 1346 L1800 1346 Z " />
<glyph glyph-name="uogonek" unicode="&#x173;" horiz-adv-x="1408" d="M459 452 L554 990 L284 990 L270 912 L448 912 L367 452 C314 150 426 -20 700 -20 C862 -20 999 65 1062 195 L1028 0 L1232 0 C1213 -3 1025 -34 1003 -172 C977 -336 1156 -365 1223 -365 L1240 -272 C1240 -272 1070 -278 1091 -163 C1114 -36 1289 -1 1298 0 L1311 78 L1133 78 L1294 990 L1024 990 L1010 912 L1188 912 L1107 452 C1065 215 945 58 714 58 C483 58 417 215 459 452 L459 452 Z " />
<glyph glyph-name="Wcircumflex" unicode="&#x174;" horiz-adv-x="2252" d="M1494 0 L1590 0 L2244 1346 L2419 1346 L2434 1434 L1986 1434 L1971 1346 L2144 1346 L1568 148 L1437 1434 L1317 1434 L734 148 L580 1346 L755 1346 L770 1434 L322 1434 L307 1346 L482 1346 L662 0 L760 0 L1359 1317 L1494 0 Z M1465 1837 L1419 1837 L1122 1536 L1227 1536 L1431 1734 L1565 1536 L1656 1536 L1465 1837 Z " />
<glyph glyph-name="wcircumflex" unicode="&#x175;" horiz-adv-x="1906" d="M587 0 L690 0 L1102 845 L1224 0 L1325 0 L1786 912 L1956 912 L1970 990 L1522 990 L1508 912 L1685 912 L1295 117 L1171 990 L1079 990 L653 117 L543 912 L718 912 L732 990 L284 990 L270 912 L446 912 L587 0 Z M1220 1434 L1174 1434 L877 1133 L982 1133 L1186 1331 L1320 1133 L1411 1133 L1220 1434 Z " />
<glyph glyph-name="Ycircumflex" unicode="&#x176;" horiz-adv-x="1578" d="M580 88 L565 0 L1013 0 L1028 88 L852 88 L939 581 L1576 1346 L1745 1346 L1760 1434 L1312 1434 L1297 1346 L1451 1346 L900 681 L586 1346 L755 1346 L770 1434 L322 1434 L307 1346 L475 1346 L843 581 L756 88 L580 88 Z M1129 1837 L1083 1837 L786 1536 L891 1536 L1095 1734 L1229 1536 L1320 1536 L1129 1837 Z " />
<glyph glyph-name="ycircumflex" unicode="&#x177;" horiz-adv-x="1420" d="M1470 912 L1484 990 L1036 990 L1022 912 L1189 912 L725 111 L542 912 L718 912 L732 990 L284 990 L270 912 L442 912 L664 0 L513 -255 C446 -368 394 -454 260 -454 L168 -454 L155 -532 L247 -532 C430 -532 488 -450 582 -291 L1297 912 L1470 912 Z M978 1434 L932 1434 L635 1133 L740 1133 L944 1331 L1078 1133 L1169 1133 L978 1434 Z " />
<glyph glyph-name="Ydieresis" unicode="&#x178;" horiz-adv-x="1578" d="M580 88 L565 0 L1013 0 L1028 88 L852 88 L939 581 L1576 1346 L1745 1346 L1760 1434 L1312 1434 L1297 1346 L1451 1346 L900 681 L586 1346 L755 1346 L770 1434 L322 1434 L307 1346 L475 1346 L843 581 L756 88 L580 88 Z M839 1631 C832 1590 860 1556 901 1556 C948 1556 982 1590 989 1631 C997 1672 969 1706 928 1706 C881 1706 847 1672 839 1631 L839 1631 Z M1164 1631 C1157 1590 1185 1556 1226 1556 C1273 1556 1307 1590 1314 1631 C1322 1672 1294 1706 1253 1706 C1206 1706 1172 1672 1164 1631 L1164 1631 Z " />
<glyph glyph-name="Zacute" unicode="&#x179;" horiz-adv-x="1324" d="M879 1536 L983 1536 L1285 1807 L1149 1807 L879 1536 Z M130 0 L1194 0 L1240 264 L1144 264 L1113 88 L291 88 L1437 1380 L1446 1434 L430 1434 L384 1170 L480 1170 L511 1346 L1284 1346 L139 54 L130 0 Z " />
<glyph glyph-name="zacute" unicode="&#x17a;" horiz-adv-x="1030" d="M664 1163 L768 1163 L1069 1434 L933 1434 L664 1163 Z M110 0 L920 0 L964 254 L872 254 L841 78 L272 78 L1086 946 L1094 990 L318 990 L273 736 L365 736 L396 912 L932 912 L117 44 L110 0 Z " />
<glyph glyph-name="Zdotaccent" unicode="&#x17b;" horiz-adv-x="1324" d="M130 0 L1194 0 L1240 264 L1144 264 L1113 88 L291 88 L1437 1380 L1446 1434 L430 1434 L384 1170 L480 1170 L511 1346 L1284 1346 L139 54 L130 0 Z M875 1631 C868 1590 896 1556 937 1556 C984 1556 1018 1590 1025 1631 C1033 1672 1005 1706 964 1706 C917 1706 883 1672 875 1631 L875 1631 Z " />
<glyph glyph-name="zdotaccent" unicode="&#x17c;" horiz-adv-x="1030" d="M110 0 L920 0 L964 254 L872 254 L841 78 L272 78 L1086 946 L1094 990 L318 990 L273 736 L365 736 L396 912 L932 912 L117 44 L110 0 Z M664 1270 C657 1229 685 1195 726 1195 C773 1195 807 1229 814 1270 C822 1311 794 1345 753 1345 C706 1345 672 1311 664 1270 L664 1270 Z " />
<glyph glyph-name="Zcaron" unicode="&#x17d;" horiz-adv-x="1324" d="M130 0 L1194 0 L1240 264 L1144 264 L1113 88 L291 88 L1437 1380 L1446 1434 L430 1434 L384 1170 L480 1170 L511 1346 L1284 1346 L139 54 L130 0 Z M910 1536 L956 1536 L1253 1837 L1148 1837 L944 1639 L810 1837 L719 1837 L910 1536 Z " />
<glyph glyph-name="zcaron" unicode="&#x17e;" horiz-adv-x="1030" d="M110 0 L920 0 L964 254 L872 254 L841 78 L272 78 L1086 946 L1094 990 L318 990 L273 736 L365 736 L396 912 L932 912 L117 44 L110 0 Z M694 1133 L740 1133 L1037 1434 L932 1434 L728 1236 L594 1434 L503 1434 L694 1133 Z " />
<glyph glyph-name="longs" unicode="&#x17f;" horiz-adv-x="825" d="M322 78 L144 78 L131 0 L579 0 L592 78 L414 78 L590 1075 C632 1314 655 1458 885 1458 C927 1458 971 1451 1011 1437 L1050 1508 C1008 1526 955 1536 898 1536 C615 1536 553 1389 498 1075 L322 78 Z " />
<glyph glyph-name="florin" unicode="&#x192;" horiz-adv-x="1084" d="M254 -228 C231 -283 187 -444 -15 -444 L-141 -444 L-173 -532 L-39 -532 C261 -532 320 -314 348 -235 L749 902 L1045 902 L1077 990 L779 990 L829 1130 C852 1185 896 1346 1098 1346 L1224 1346 L1256 1434 L1122 1434 C822 1434 763 1216 735 1137 L683 990 L402 990 L370 902 L653 902 L254 -228 Z " />
<glyph glyph-name="Ohorn" unicode="&#x1a0;" horiz-adv-x="1615" d="M234 717 C165 304 392 -20 811 -20 C1260 -20 1580 294 1648 717 C1688 968 1621 1180 1475 1311 C1563 1344 1661 1414 1687 1565 L1591 1565 C1566 1420 1445 1380 1395 1371 C1306 1424 1196 1454 1071 1454 C632 1454 303 1130 234 717 L234 717 Z M336 717 C398 1069 687 1366 1055 1366 C1443 1366 1606 1069 1546 717 C1484 355 1214 68 826 68 C438 68 274 365 336 717 L336 717 Z " />
<glyph glyph-name="ohorn" unicode="&#x1a1;" horiz-adv-x="1215" d="M177 495 C124 193 290 -20 592 -20 C904 -20 1136 193 1189 495 C1213 631 1192 750 1134 838 C1227 868 1339 935 1368 1097 L1280 1097 C1256 961 1151 915 1084 899 C1011 969 905 1010 774 1010 C460 1010 230 796 177 495 L177 495 Z M271 495 C314 742 505 932 760 932 C1044 932 1138 742 1095 495 C1051 248 860 58 606 58 C331 58 227 248 271 495 L271 495 Z " />
<glyph glyph-name="Uhorn" unicode="&#x1af;" horiz-adv-x="1814" d="M1968 1620 L1872 1620 C1839 1430 1675 1434 1638 1434 L1367 1434 L1352 1346 L1527 1346 L1391 571 C1333 243 1139 68 858 68 C586 68 446 255 502 571 L638 1346 L815 1346 L830 1434 L382 1434 L367 1346 L542 1346 L406 571 C338 183 557 -20 843 -20 C1137 -20 1409 127 1487 571 L1623 1346 C1668 1346 1927 1343 1968 1620 L1968 1620 Z " />
<glyph glyph-name="uhorn" unicode="&#x1b0;" horiz-adv-x="1516" d="M459 452 L554 990 L284 990 L270 912 L448 912 L367 452 C314 150 426 -20 700 -20 C862 -20 999 65 1062 195 L1028 0 L1298 0 L1311 78 L1133 78 L1280 912 C1328 912 1564 901 1610 1157 L1518 1157 C1488 991 1341 990 1294 990 L1024 990 L1010 912 L1188 912 L1107 452 C1065 215 945 58 714 58 C483 58 417 215 459 452 L459 452 Z " />
<glyph glyph-name="uni01CD" unicode="&#x1cd;" horiz-adv-x="1700" d="M1197 88 L1182 0 L1630 0 L1645 88 L1472 88 L1145 1434 L843 1434 L828 1346 L1005 1346 L256 88 L85 88 L70 0 L518 0 L533 88 L367 88 L595 475 L1282 475 L1374 88 L1197 88 Z M1261 563 L647 563 L1085 1306 L1261 563 Z M1094 1536 L1140 1536 L1437 1837 L1332 1837 L1128 1639 L994 1837 L903 1837 L1094 1536 Z " />
<glyph glyph-name="uni01CE" unicode="&#x1ce;" horiz-adv-x="1308" d="M1102 990 L1062 761 C1027 899 906 1010 719 1010 C419 1010 197 809 145 495 C93 181 253 -20 537 -20 C754 -20 884 85 965 214 L928 0 L1198 0 L1211 78 L1033 78 L1180 912 L1358 912 L1372 990 L1102 990 Z M705 932 C981 932 1054 720 1015 495 C975 270 817 58 551 58 C275 58 201 270 241 495 C280 720 439 932 705 932 L705 932 Z M734 1133 L780 1133 L1077 1434 L972 1434 L768 1236 L634 1434 L543 1434 L734 1133 Z " />
<glyph glyph-name="uni01CF" unicode="&#x1cf;" horiz-adv-x="705" d="M133 0 L581 0 L596 88 L420 88 L642 1346 L818 1346 L833 1434 L385 1434 L370 1346 L546 1346 L324 88 L148 88 L133 0 Z M595 1536 L641 1536 L938 1837 L833 1837 L629 1639 L495 1837 L404 1837 L595 1536 Z " />
<glyph glyph-name="uni01D0" unicode="&#x1d0;" horiz-adv-x="660" d="M451 912 L304 78 L126 78 L113 0 L561 0 L574 78 L396 78 L557 990 L287 990 L273 912 L451 912 Z M499 1133 L545 1133 L842 1434 L737 1434 L533 1236 L399 1434 L308 1434 L499 1133 Z " />
<glyph glyph-name="uni01D1" unicode="&#x1d1;" horiz-adv-x="1629" d="M234 717 C165 304 392 -20 811 -20 C1260 -20 1580 294 1648 717 C1716 1140 1480 1454 1071 1454 C632 1454 303 1130 234 717 L234 717 Z M336 717 C398 1069 687 1366 1055 1366 C1443 1366 1606 1069 1546 717 C1484 355 1214 68 826 68 C438 68 274 365 336 717 L336 717 Z M1065 1536 L1111 1536 L1408 1837 L1303 1837 L1099 1639 L965 1837 L874 1837 L1065 1536 Z " />
<glyph glyph-name="uni01D2" unicode="&#x1d2;" horiz-adv-x="1192" d="M177 495 C124 193 290 -20 592 -20 C904 -20 1136 193 1189 495 C1242 797 1076 1010 774 1010 C460 1010 230 796 177 495 L177 495 Z M271 495 C314 742 505 932 760 932 C1044 932 1138 742 1095 495 C1051 248 860 58 606 58 C331 58 227 248 271 495 L271 495 Z M759 1133 L805 1133 L1102 1434 L997 1434 L793 1236 L659 1434 L568 1434 L759 1133 Z " />
<glyph glyph-name="uni01D3" unicode="&#x1d3;" horiz-adv-x="1693" d="M1800 1346 L1815 1434 L1367 1434 L1352 1346 L1527 1346 L1391 571 C1333 243 1139 68 858 68 C586 68 446 255 502 571 L638 1346 L815 1346 L830 1434 L382 1434 L367 1346 L542 1346 L406 571 C338 183 557 -20 843 -20 C1137 -20 1409 127 1487 571 L1623 1346 L1800 1346 Z M1086 1536 L1132 1536 L1429 1837 L1324 1837 L1120 1639 L986 1837 L895 1837 L1086 1536 Z " />
<glyph glyph-name="uni01D4" unicode="&#x1d4;" horiz-adv-x="1408" d="M459 452 L554 990 L284 990 L270 912 L448 912 L367 452 C314 150 426 -20 700 -20 C862 -20 999 65 1062 195 L1028 0 L1298 0 L1311 78 L1133 78 L1294 990 L1024 990 L1010 912 L1188 912 L1107 452 C1065 215 945 58 714 58 C483 58 417 215 459 452 L459 452 Z M874 1133 L920 1133 L1217 1434 L1112 1434 L908 1236 L774 1434 L683 1434 L874 1133 Z " />
<glyph glyph-name="uni01D5" unicode="&#x1d5;" horiz-adv-x="1693" d="M823 1789 L1499 1789 L1513 1867 L837 1867 L823 1789 Z M1800 1346 L1815 1434 L1367 1434 L1352 1346 L1527 1346 L1391 571 C1333 243 1139 68 858 68 C586 68 446 255 502 571 L638 1346 L815 1346 L830 1434 L382 1434 L367 1346 L542 1346 L406 571 C338 183 557 -20 843 -20 C1137 -20 1409 127 1487 571 L1623 1346 L1800 1346 Z M896 1631 C889 1590 917 1556 958 1556 C1005 1556 1039 1590 1046 1631 C1054 1672 1026 1706 985 1706 C938 1706 904 1672 896 1631 L896 1631 Z M1221 1631 C1214 1590 1242 1556 1283 1556 C1330 1556 1364 1590 1371 1631 C1379 1672 1351 1706 1310 1706 C1263 1706 1229 1672 1221 1631 L1221 1631 Z " />
<glyph glyph-name="uni01D6" unicode="&#x1d6;" horiz-adv-x="1408" d="M617 1428 L1293 1428 L1307 1506 L631 1506 L617 1428 Z M459 452 L554 990 L284 990 L270 912 L448 912 L367 452 C314 150 426 -20 700 -20 C862 -20 999 65 1062 195 L1028 0 L1298 0 L1311 78 L1133 78 L1294 990 L1024 990 L1010 912 L1188 912 L1107 452 C1065 215 945 58 714 58 C483 58 417 215 459 452 L459 452 Z M690 1270 C683 1229 711 1195 752 1195 C799 1195 833 1229 840 1270 C848 1311 820 1345 779 1345 C732 1345 698 1311 690 1270 L690 1270 Z M1015 1270 C1008 1229 1036 1195 1077 1195 C1124 1195 1158 1229 1165 1270 C1173 1311 1145 1345 1104 1345 C1057 1345 1023 1311 1015 1270 L1015 1270 Z " />
<glyph glyph-name="uni01D7" unicode="&#x1d7;" horiz-adv-x="1693" d="M1102 1796 L1206 1796 L1508 2067 L1372 2067 L1102 1796 Z M1800 1346 L1815 1434 L1367 1434 L1352 1346 L1527 1346 L1391 571 C1333 243 1139 68 858 68 C586 68 446 255 502 571 L638 1346 L815 1346 L830 1434 L382 1434 L367 1346 L542 1346 L406 571 C338 183 557 -20 843 -20 C1137 -20 1409 127 1487 571 L1623 1346 L1800 1346 Z M896 1631 C889 1590 917 1556 958 1556 C1005 1556 1039 1590 1046 1631 C1054 1672 1026 1706 985 1706 C938 1706 904 1672 896 1631 L896 1631 Z M1221 1631 C1214 1590 1242 1556 1283 1556 C1330 1556 1364 1590 1371 1631 C1379 1672 1351 1706 1310 1706 C1263 1706 1229 1672 1221 1631 L1221 1631 Z " />
<glyph glyph-name="uni01D8" unicode="&#x1d8;" horiz-adv-x="1408" d="M898 1435 L1002 1435 L1303 1706 L1167 1706 L898 1435 Z M459 452 L554 990 L284 990 L270 912 L448 912 L367 452 C314 150 426 -20 700 -20 C862 -20 999 65 1062 195 L1028 0 L1298 0 L1311 78 L1133 78 L1294 990 L1024 990 L1010 912 L1188 912 L1107 452 C1065 215 945 58 714 58 C483 58 417 215 459 452 L459 452 Z M690 1270 C683 1229 711 1195 752 1195 C799 1195 833 1229 840 1270 C848 1311 820 1345 779 1345 C732 1345 698 1311 690 1270 L690 1270 Z M1015 1270 C1008 1229 1036 1195 1077 1195 C1124 1195 1158 1229 1165 1270 C1173 1311 1145 1345 1104 1345 C1057 1345 1023 1311 1015 1270 L1015 1270 Z " />
<glyph glyph-name="uni01D9" unicode="&#x1d9;" horiz-adv-x="1693" d="M1800 1346 L1815 1434 L1367 1434 L1352 1346 L1527 1346 L1391 571 C1333 243 1139 68 858 68 C586 68 446 255 502 571 L638 1346 L815 1346 L830 1434 L382 1434 L367 1346 L542 1346 L406 571 C338 183 557 -20 843 -20 C1137 -20 1409 127 1487 571 L1623 1346 L1800 1346 Z M896 1631 C889 1590 917 1556 958 1556 C1005 1556 1039 1590 1046 1631 C1054 1672 1026 1706 985 1706 C938 1706 904 1672 896 1631 L896 1631 Z M1221 1631 C1214 1590 1242 1556 1283 1556 C1330 1556 1364 1590 1371 1631 C1379 1672 1351 1706 1310 1706 C1263 1706 1229 1672 1221 1631 L1221 1631 Z " />
<glyph glyph-name="uni01DA" unicode="&#x1da;" horiz-adv-x="1408" d="M459 452 L554 990 L284 990 L270 912 L448 912 L367 452 C314 150 426 -20 700 -20 C862 -20 999 65 1062 195 L1028 0 L1298 0 L1311 78 L1133 78 L1294 990 L1024 990 L1010 912 L1188 912 L1107 452 C1065 215 945 58 714 58 C483 58 417 215 459 452 L459 452 Z M690 1270 C683 1229 711 1195 752 1195 C799 1195 833 1229 840 1270 C848 1311 820 1345 779 1345 C732 1345 698 1311 690 1270 L690 1270 Z M1015 1270 C1008 1229 1036 1195 1077 1195 C1124 1195 1158 1229 1165 1270 C1173 1311 1145 1345 1104 1345 C1057 1345 1023 1311 1015 1270 L1015 1270 Z " />
<glyph glyph-name="uni01DB" unicode="&#x1db;" horiz-adv-x="1693" d="M1026 2067 L890 2067 L1096 1796 L1200 1796 L1026 2067 Z M1800 1346 L1815 1434 L1367 1434 L1352 1346 L1527 1346 L1391 571 C1333 243 1139 68 858 68 C586 68 446 255 502 571 L638 1346 L815 1346 L830 1434 L382 1434 L367 1346 L542 1346 L406 571 C338 183 557 -20 843 -20 C1137 -20 1409 127 1487 571 L1623 1346 L1800 1346 Z M896 1631 C889 1590 917 1556 958 1556 C1005 1556 1039 1590 1046 1631 C1054 1672 1026 1706 985 1706 C938 1706 904 1672 896 1631 L896 1631 Z M1221 1631 C1214 1590 1242 1556 1283 1556 C1330 1556 1364 1590 1371 1631 C1379 1672 1351 1706 1310 1706 C1263 1706 1229 1672 1221 1631 L1221 1631 Z " />
<glyph glyph-name="uni01DC" unicode="&#x1dc;" horiz-adv-x="1408" d="M821 1706 L685 1706 L892 1435 L996 1435 L821 1706 Z M459 452 L554 990 L284 990 L270 912 L448 912 L367 452 C314 150 426 -20 700 -20 C862 -20 999 65 1062 195 L1028 0 L1298 0 L1311 78 L1133 78 L1294 990 L1024 990 L1010 912 L1188 912 L1107 452 C1065 215 945 58 714 58 C483 58 417 215 459 452 L459 452 Z M690 1270 C683 1229 711 1195 752 1195 C799 1195 833 1229 840 1270 C848 1311 820 1345 779 1345 C732 1345 698 1311 690 1270 L690 1270 Z M1015 1270 C1008 1229 1036 1195 1077 1195 C1124 1195 1158 1229 1165 1270 C1173 1311 1145 1345 1104 1345 C1057 1345 1023 1311 1015 1270 L1015 1270 Z " />
<glyph glyph-name="uni01DE" unicode="&#x1de;" horiz-adv-x="1700" d="M823 1789 L1499 1789 L1513 1867 L837 1867 L823 1789 Z M1197 88 L1182 0 L1630 0 L1645 88 L1472 88 L1145 1434 L843 1434 L828 1346 L1005 1346 L256 88 L85 88 L70 0 L518 0 L533 88 L367 88 L595 475 L1282 475 L1374 88 L1197 88 Z M1261 563 L647 563 L1085 1306 L1261 563 Z M896 1631 C889 1590 917 1556 958 1556 C1005 1556 1039 1590 1046 1631 C1054 1672 1026 1706 985 1706 C938 1706 904 1672 896 1631 L896 1631 Z M1221 1631 C1214 1590 1242 1556 1283 1556 C1330 1556 1364 1590 1371 1631 C1379 1672 1351 1706 1310 1706 C1263 1706 1229 1672 1221 1631 L1221 1631 Z " />
<glyph glyph-name="uni01DF" unicode="&#x1df;" horiz-adv-x="1308" d="M482 1428 L1158 1428 L1172 1506 L496 1506 L482 1428 Z M1102 990 L1062 761 C1027 899 906 1010 719 1010 C419 1010 197 809 145 495 C93 181 253 -20 537 -20 C754 -20 884 85 965 214 L928 0 L1198 0 L1211 78 L1033 78 L1180 912 L1358 912 L1372 990 L1102 990 Z M705 932 C981 932 1054 720 1015 495 C975 270 817 58 551 58 C275 58 201 270 241 495 C280 720 439 932 705 932 L705 932 Z M554 1270 C547 1229 575 1195 616 1195 C663 1195 697 1229 704 1270 C712 1311 684 1345 643 1345 C596 1345 562 1311 554 1270 L554 1270 Z M879 1270 C872 1229 900 1195 941 1195 C988 1195 1022 1229 1029 1270 C1037 1311 1009 1345 968 1345 C921 1345 887 1311 879 1270 L879 1270 Z " />
<glyph glyph-name="uni01E0" unicode="&#x1e0;" horiz-adv-x="1700" d="M823 1789 L1499 1789 L1513 1867 L837 1867 L823 1789 Z M1197 88 L1182 0 L1630 0 L1645 88 L1472 88 L1145 1434 L843 1434 L828 1346 L1005 1346 L256 88 L85 88 L70 0 L518 0 L533 88 L367 88 L595 475 L1282 475 L1374 88 L1197 88 Z M1261 563 L647 563 L1085 1306 L1261 563 Z M1058 1631 C1051 1590 1079 1556 1120 1556 C1167 1556 1201 1590 1208 1631 C1216 1672 1188 1706 1147 1706 C1100 1706 1066 1672 1058 1631 L1058 1631 Z " />
<glyph glyph-name="uni01E1" unicode="&#x1e1;" horiz-adv-x="1308" d="M481 1428 L1157 1428 L1171 1506 L495 1506 L481 1428 Z M1102 990 L1062 761 C1027 899 906 1010 719 1010 C419 1010 197 809 145 495 C93 181 253 -20 537 -20 C754 -20 884 85 965 214 L928 0 L1198 0 L1211 78 L1033 78 L1180 912 L1358 912 L1372 990 L1102 990 Z M705 932 C981 932 1054 720 1015 495 C975 270 817 58 551 58 C275 58 201 270 241 495 C280 720 439 932 705 932 L705 932 Z M716 1270 C709 1229 737 1195 778 1195 C825 1195 859 1229 866 1270 C874 1311 846 1345 805 1345 C758 1345 724 1311 716 1270 L716 1270 Z " />
<glyph glyph-name="uni01E2" unicode="&#x1e2;" horiz-adv-x="2290" d="M1474 1536 L2150 1536 L2164 1614 L1488 1614 L1474 1536 Z M1222 0 L2160 0 L2206 264 L2110 264 L2079 88 L1333 88 L1439 690 L2153 690 L2169 778 L1455 778 L1555 1346 L2291 1346 L2260 1170 L2356 1170 L2402 1434 L1218 1434 L1203 1346 L1373 1346 L306 88 L145 88 L130 0 L578 0 L593 88 L426 88 L799 528 L1315 528 L1222 0 Z M1451 1299 L1330 616 L873 616 L1451 1299 Z " />
<glyph glyph-name="uni01E3" unicode="&#x1e3;" horiz-adv-x="1847" d="M803 1356 L1479 1356 L1492 1434 L816 1434 L803 1356 Z M1303 58 C1060 58 978 238 1006 455 L1837 455 C1905 840 1723 1010 1471 1010 C1288 1010 1141 930 1042 796 C1029 914 965 1010 734 1010 C594 1010 455 979 352 924 L379 852 C468 902 620 932 720 932 C990 932 964 770 940 630 C667 656 201 633 141 293 C105 87 236 -20 460 -20 C628 -20 791 53 921 237 C964 79 1089 -20 1289 -20 C1513 -20 1637 54 1708 115 L1654 174 C1576 108 1468 58 1303 58 L1303 58 Z M237 293 C282 548 676 577 927 557 L904 429 C875 262 719 68 475 68 C292 68 213 157 237 293 L237 293 Z M1019 533 C1069 752 1214 932 1457 932 C1700 932 1781 753 1753 533 L1019 533 Z " />
<glyph glyph-name="uni01E4" unicode="&#x1e4;" horiz-adv-x="1583" d="M826 68 C438 68 274 365 336 717 C398 1069 687 1366 1055 1366 C1332 1366 1462 1275 1462 1275 L1444 1170 L1540 1170 L1567 1327 C1567 1327 1396 1454 1071 1454 C632 1454 303 1130 234 717 C165 304 392 -20 811 -20 C984 -20 1206 20 1369 140 L1414 398 L1563 398 L1579 488 L1430 488 L1480 771 L991 771 L976 681 L1369 681 L1334 488 L942 488 L926 398 L1318 398 L1282 192 C1167 110 971 68 826 68 L826 68 Z " />
<glyph glyph-name="uni01E5" unicode="&#x1e5;" horiz-adv-x="1348" d="M1384 912 L1398 990 L1128 990 L1088 761 C1053 899 932 1010 745 1010 C445 1010 223 809 171 495 C119 181 299 -20 563 -20 C780 -20 910 85 991 214 L954 0 C943 -60 928 -114 909 -163 L616 -163 L602 -241 L873 -241 C792 -382 664 -452 480 -452 C366 -452 250 -417 165 -352 L116 -426 C209 -498 338 -532 466 -532 C680 -532 865 -467 973 -241 L1195 -241 L1209 -163 L1005 -163 C1021 -114 1035 -60 1046 0 L1206 912 L1384 912 Z M731 932 C1007 932 1080 720 1041 495 C1001 270 853 58 577 58 C321 58 227 270 267 495 C306 720 465 932 731 932 L731 932 Z " />
<glyph glyph-name="Gcaron" unicode="&#x1e6;" horiz-adv-x="1475" d="M1062 1536 L1108 1536 L1405 1837 L1300 1837 L1096 1639 L962 1837 L871 1837 L1062 1536 Z M826 68 C438 68 274 365 336 717 C398 1069 687 1366 1055 1366 C1332 1366 1462 1275 1462 1275 L1444 1170 L1540 1170 L1567 1327 C1567 1327 1396 1454 1071 1454 C632 1454 303 1130 234 717 C165 304 392 -20 811 -20 C984 -20 1206 20 1369 140 L1480 771 L991 771 L976 681 L1369 681 L1282 192 C1167 110 971 68 826 68 L826 68 Z " />
<glyph glyph-name="gcaron" unicode="&#x1e7;" horiz-adv-x="1334" d="M1384 912 L1398 990 L1128 990 L1088 761 C1053 899 932 1010 745 1010 C445 1010 223 809 171 495 C119 181 299 -20 563 -20 C780 -20 910 85 991 214 L954 0 C899 -304 749 -452 480 -452 C366 -452 250 -417 165 -352 L116 -426 C209 -498 338 -532 466 -532 C743 -532 971 -424 1046 0 L1206 912 L1384 912 Z M731 932 C1007 932 1080 720 1041 495 C1001 270 853 58 577 58 C321 58 227 270 267 495 C306 720 465 932 731 932 L731 932 Z M760 1133 L806 1133 L1103 1434 L998 1434 L794 1236 L660 1434 L569 1434 L760 1133 Z " />
<glyph glyph-name="uni01E8" unicode="&#x1e8;" horiz-adv-x="1536" d="M985 1536 L1031 1536 L1328 1837 L1223 1837 L1019 1639 L885 1837 L794 1837 L985 1536 Z M130 0 L578 0 L593 88 L417 88 L497 539 L753 752 L1198 0 L1406 0 L1421 88 L1257 88 L827 813 L1471 1346 L1633 1346 L1648 1434 L1200 1434 L1185 1346 L1338 1346 L519 670 L639 1346 L815 1346 L830 1434 L382 1434 L367 1346 L543 1346 L321 88 L145 88 L130 0 Z " />
<glyph glyph-name="uni01E9" unicode="&#x1e9;" horiz-adv-x="1305" d="M468 501 L647 1516 L377 1516 L363 1438 L541 1438 L301 78 L123 78 L110 0 L558 0 L571 78 L393 78 L446 376 L636 521 L996 0 L1195 0 L1208 78 L1049 78 L706 574 L1150 912 L1314 912 L1328 990 L880 990 L866 912 L1008 912 L468 501 Z M900 1536 L946 1536 L1243 1837 L1138 1837 L934 1639 L800 1837 L709 1837 L900 1536 Z " />
<glyph glyph-name="uni01EA" unicode="&#x1ea;" horiz-adv-x="1629" d="M234 717 C165 304 392 -20 811 -20 C828 -20 846 -19 863 -18 C801 -40 720 -84 706 -172 C680 -336 859 -365 926 -365 L943 -272 C943 -272 773 -278 794 -163 C814 -51 952 -11 990 -2 C1344 70 1589 353 1648 717 C1716 1140 1480 1454 1071 1454 C632 1454 303 1130 234 717 L234 717 Z M336 717 C398 1069 687 1366 1055 1366 C1443 1366 1606 1069 1546 717 C1484 355 1214 68 826 68 C438 68 274 365 336 717 L336 717 Z " />
<glyph glyph-name="uni01EB" unicode="&#x1eb;" horiz-adv-x="1192" d="M177 495 C124 193 290 -20 592 -20 C598 -20 604 -19 611 -19 C549 -41 470 -86 457 -172 C431 -336 610 -365 677 -365 L694 -272 C694 -272 524 -278 545 -163 C563 -63 674 -20 726 -6 C969 46 1144 238 1189 495 C1242 797 1076 1010 774 1010 C460 1010 230 796 177 495 L177 495 Z M271 495 C314 742 505 932 760 932 C1044 932 1138 742 1095 495 C1051 248 860 58 606 58 C331 58 227 248 271 495 L271 495 Z " />
<glyph glyph-name="uni01EC" unicode="&#x1ec;" horiz-adv-x="1629" d="M234 717 C165 304 392 -20 811 -20 C828 -20 846 -19 863 -18 C801 -40 720 -84 706 -172 C680 -336 859 -365 926 -365 L943 -272 C943 -272 773 -278 794 -163 C814 -51 952 -11 990 -2 C1344 70 1589 353 1648 717 C1716 1140 1480 1454 1071 1454 C632 1454 303 1130 234 717 L234 717 Z M336 717 C398 1069 687 1366 1055 1366 C1443 1366 1606 1069 1546 717 C1484 355 1214 68 826 68 C438 68 274 365 336 717 L336 717 Z M747 1536 L1423 1536 L1438 1624 L762 1624 L747 1536 Z " />
<glyph glyph-name="uni01ED" unicode="&#x1ed;" horiz-adv-x="1192" d="M177 495 C124 193 290 -20 592 -20 C598 -20 604 -19 611 -19 C549 -41 470 -86 457 -172 C431 -336 610 -365 677 -365 L694 -272 C694 -272 524 -278 545 -163 C563 -63 674 -20 726 -6 C969 46 1144 238 1189 495 C1242 797 1076 1010 774 1010 C460 1010 230 796 177 495 L177 495 Z M271 495 C314 742 505 932 760 932 C1044 932 1138 742 1095 495 C1051 248 860 58 606 58 C331 58 227 248 271 495 L271 495 Z M497 1356 L1173 1356 L1186 1434 L510 1434 L497 1356 Z " />
<glyph glyph-name="uni01F0" unicode="&#x1f0;" horiz-adv-x="531" d="M488 990 L218 990 L204 912 L382 912 L209 -72 C172 -281 129 -454 -35 -454 C-86 -454 -126 -446 -160 -431 L-198 -504 C-162 -523 -111 -532 -48 -532 C180 -532 249 -366 301 -72 L488 990 Z M430 1133 L476 1133 L773 1434 L668 1434 L464 1236 L330 1434 L239 1434 L430 1133 Z " />
<glyph glyph-name="uni01F4" unicode="&#x1f4;" horiz-adv-x="1475" d="M1029 1536 L1133 1536 L1435 1807 L1299 1807 L1029 1536 Z M826 68 C438 68 274 365 336 717 C398 1069 687 1366 1055 1366 C1332 1366 1462 1275 1462 1275 L1444 1170 L1540 1170 L1567 1327 C1567 1327 1396 1454 1071 1454 C632 1454 303 1130 234 717 C165 304 392 -20 811 -20 C984 -20 1206 20 1369 140 L1480 771 L991 771 L976 681 L1369 681 L1282 192 C1167 110 971 68 826 68 L826 68 Z " />
<glyph glyph-name="uni01F5" unicode="&#x1f5;" horiz-adv-x="1334" d="M717 1163 L821 1163 L1122 1434 L986 1434 L717 1163 Z M1384 912 L1398 990 L1128 990 L1088 761 C1053 899 932 1010 745 1010 C445 1010 223 809 171 495 C119 181 299 -20 563 -20 C780 -20 910 85 991 214 L954 0 C899 -304 749 -452 480 -452 C366 -452 250 -417 165 -352 L116 -426 C209 -498 338 -532 466 -532 C743 -532 971 -424 1046 0 L1206 912 L1384 912 Z M731 932 C1007 932 1080 720 1041 495 C1001 270 853 58 577 58 C321 58 227 270 267 495 C306 720 465 932 731 932 L731 932 Z " />
<glyph glyph-name="uni01F8" unicode="&#x1f8;" horiz-adv-x="1678" d="M969 1807 L833 1807 L1039 1536 L1143 1536 L969 1807 Z M145 88 L130 0 L578 0 L593 88 L418 88 L632 1302 L1263 0 L1373 0 L1609 1346 L1785 1346 L1800 1434 L1352 1434 L1337 1346 L1513 1346 L1300 132 L669 1434 L382 1434 L367 1346 L543 1346 L322 88 L145 88 Z " />
<glyph glyph-name="uni01F9" unicode="&#x1f9;" horiz-adv-x="1408" d="M778 1434 L642 1434 L849 1163 L953 1163 L778 1434 Z M474 538 C516 775 637 932 868 932 C1099 932 1164 775 1122 538 L1028 0 L1298 0 L1311 78 L1133 78 L1214 538 C1268 840 1156 1010 882 1010 C720 1010 583 925 520 795 L554 990 L284 990 L270 912 L448 912 L301 78 L123 78 L110 0 L558 0 L571 78 L393 78 L474 538 Z " />
<glyph glyph-name="Aringacute" unicode="&#x1fa;" horiz-adv-x="1700" d="M1197 88 L1182 0 L1630 0 L1645 88 L1472 88 L1145 1434 L843 1434 L828 1346 L1005 1346 L256 88 L85 88 L70 0 L518 0 L533 88 L367 88 L595 475 L1282 475 L1374 88 L1197 88 Z M1261 563 L647 563 L1085 1306 L1261 563 Z M984 1726 C968 1634 1022 1556 1124 1556 C1237 1556 1308 1634 1324 1726 C1338 1811 1304 1883 1211 1894 L1436 2097 L1300 2097 L1044 1839 C1013 1809 991 1769 984 1726 L984 1726 Z M1050 1726 C1060 1783 1105 1830 1172 1830 C1249 1830 1268 1783 1258 1726 C1248 1669 1203 1622 1136 1622 C1059 1622 1040 1669 1050 1726 L1050 1726 Z " />
<glyph glyph-name="aringacute" unicode="&#x1fb;" horiz-adv-x="1308" d="M1102 990 L1062 761 C1027 899 906 1010 719 1010 C419 1010 197 809 145 495 C93 181 253 -20 537 -20 C754 -20 884 85 965 214 L928 0 L1198 0 L1211 78 L1033 78 L1180 912 L1358 912 L1372 990 L1102 990 Z M705 932 C981 932 1054 720 1015 495 C975 270 817 58 551 58 C275 58 201 270 241 495 C280 720 439 932 705 932 L705 932 Z M614 1284 C598 1192 652 1114 754 1114 C867 1114 938 1192 954 1284 C968 1369 934 1441 841 1452 L1066 1655 L930 1655 L674 1397 C643 1367 621 1327 614 1284 L614 1284 Z M680 1284 C690 1341 735 1388 802 1388 C879 1388 898 1341 888 1284 C878 1227 833 1180 766 1180 C689 1180 670 1227 680 1284 L680 1284 Z " />
<glyph glyph-name="AEacute" unicode="&#x1fc;" horiz-adv-x="2290" d="M1517 1536 L1621 1536 L1923 1807 L1787 1807 L1517 1536 Z M1222 0 L2160 0 L2206 264 L2110 264 L2079 88 L1333 88 L1439 690 L2153 690 L2169 778 L1455 778 L1555 1346 L2291 1346 L2260 1170 L2356 1170 L2402 1434 L1218 1434 L1203 1346 L1373 1346 L306 88 L145 88 L130 0 L578 0 L593 88 L426 88 L799 528 L1315 528 L1222 0 Z M1451 1299 L1330 616 L873 616 L1451 1299 Z " />
<glyph glyph-name="aeacute" unicode="&#x1fd;" horiz-adv-x="1847" d="M1303 58 C1060 58 978 238 1006 455 L1837 455 C1905 840 1723 1010 1471 1010 C1288 1010 1141 930 1042 796 C1029 914 965 1010 734 1010 C594 1010 455 979 352 924 L379 852 C468 902 620 932 720 932 C990 932 964 770 940 630 C667 656 201 633 141 293 C105 87 236 -20 460 -20 C628 -20 791 53 921 237 C964 79 1089 -20 1289 -20 C1513 -20 1637 54 1708 115 L1654 174 C1576 108 1468 58 1303 58 L1303 58 Z M237 293 C282 548 676 577 927 557 L904 429 C875 262 719 68 475 68 C292 68 213 157 237 293 L237 293 Z M1019 533 C1069 752 1214 932 1457 932 C1700 932 1781 753 1753 533 L1019 533 Z M1076 1163 L1180 1163 L1481 1434 L1345 1434 L1076 1163 Z " />
<glyph glyph-name="Oslashacute" unicode="&#x1fe;" horiz-adv-x="1629" d="M1026 1536 L1130 1536 L1432 1807 L1296 1807 L1026 1536 Z M234 717 C188 442 273 206 459 80 L366 -61 L480 -61 L542 33 C620 -1 709 -20 811 -20 C1260 -20 1580 294 1648 717 C1693 997 1605 1229 1421 1354 L1515 1495 L1401 1495 L1338 1400 C1261 1435 1171 1454 1071 1454 C632 1454 303 1130 234 717 L234 717 Z M826 68 C737 68 660 83 594 112 L1369 1275 C1527 1161 1586 951 1546 717 C1484 355 1214 68 826 68 L826 68 Z M336 717 C398 1069 687 1366 1055 1366 C1143 1366 1221 1350 1286 1322 L512 159 C353 273 294 482 336 717 L336 717 Z " />
<glyph glyph-name="oslashacute" unicode="&#x1ff;" horiz-adv-x="1231" d="M772 1163 L876 1163 L1177 1434 L1041 1434 L772 1163 Z M196 495 C161 298 220 139 349 52 L274 -61 L381 -61 L429 11 C482 -9 543 -20 611 -20 C923 -20 1155 193 1208 495 C1243 695 1182 856 1048 942 L1121 1051 L1014 1051 L968 981 C916 1000 858 1010 793 1010 C479 1010 249 796 196 495 L196 495 Z M625 58 C568 58 518 66 476 81 L1002 873 C1110 798 1142 659 1114 495 C1070 248 879 58 625 58 L625 58 Z M290 495 C333 742 524 932 779 932 C833 932 880 925 921 912 L396 123 C295 199 261 335 290 495 L290 495 Z " />
<glyph glyph-name="uni0200" unicode="&#x200;" horiz-adv-x="1700" d="M845 1807 L709 1807 L915 1536 L1019 1536 L845 1807 Z M1080 1807 L944 1807 L1150 1536 L1254 1536 L1080 1807 Z M1197 88 L1182 0 L1630 0 L1645 88 L1472 88 L1145 1434 L843 1434 L828 1346 L1005 1346 L256 88 L85 88 L70 0 L518 0 L533 88 L367 88 L595 475 L1282 475 L1374 88 L1197 88 Z M1261 563 L647 563 L1085 1306 L1261 563 Z " />
<glyph glyph-name="uni0201" unicode="&#x201;" horiz-adv-x="1308" d="M496 1434 L360 1434 L567 1163 L671 1163 L496 1434 Z M731 1434 L595 1434 L802 1163 L906 1163 L731 1434 Z M1102 990 L1062 761 C1027 899 906 1010 719 1010 C419 1010 197 809 145 495 C93 181 253 -20 537 -20 C754 -20 884 85 965 214 L928 0 L1198 0 L1211 78 L1033 78 L1180 912 L1358 912 L1372 990 L1102 990 Z M705 932 C981 932 1054 720 1015 495 C975 270 817 58 551 58 C275 58 201 270 241 495 C280 720 439 932 705 932 L705 932 Z " />
<glyph glyph-name="uni0202" unicode="&#x202;" horiz-adv-x="1700" d="M1197 88 L1182 0 L1630 0 L1645 88 L1472 88 L1145 1434 L843 1434 L828 1346 L1005 1346 L256 88 L85 88 L70 0 L518 0 L533 88 L367 88 L595 475 L1282 475 L1374 88 L1197 88 Z M1261 563 L647 563 L1085 1306 L1261 563 Z M1140 1754 C910 1754 817 1602 792 1536 L888 1536 C949 1638 1035 1671 1134 1671 C1233 1671 1300 1638 1325 1536 L1412 1536 C1409 1602 1370 1754 1140 1754 L1140 1754 Z " />
<glyph glyph-name="uni0203" unicode="&#x203;" horiz-adv-x="1308" d="M1102 990 L1062 761 C1027 899 906 1010 719 1010 C419 1010 197 809 145 495 C93 181 253 -20 537 -20 C754 -20 884 85 965 214 L928 0 L1198 0 L1211 78 L1033 78 L1180 912 L1358 912 L1372 990 L1102 990 Z M705 932 C981 932 1054 720 1015 495 C975 270 817 58 551 58 C275 58 201 270 241 495 C280 720 439 932 705 932 L705 932 Z M818 1434 C588 1434 495 1282 470 1216 L566 1216 C627 1318 713 1351 812 1351 C911 1351 978 1318 1003 1216 L1090 1216 C1087 1282 1048 1434 818 1434 L818 1434 Z " />
<glyph glyph-name="uni0204" unicode="&#x204;" horiz-adv-x="1374" d="M1344 1170 L1440 1170 L1486 1434 L382 1434 L367 1346 L543 1346 L321 88 L145 88 L130 0 L1244 0 L1290 264 L1194 264 L1163 88 L417 88 L523 690 L1237 690 L1253 778 L539 778 L639 1346 L1375 1346 L1344 1170 Z M725 1807 L589 1807 L795 1536 L899 1536 L725 1807 Z M960 1807 L824 1807 L1030 1536 L1134 1536 L960 1807 Z " />
<glyph glyph-name="uni0205" unicode="&#x205;" horiz-adv-x="1107" d="M517 1434 L381 1434 L588 1163 L692 1163 L517 1434 Z M752 1434 L616 1434 L823 1163 L927 1163 L752 1434 Z M563 58 C330 58 238 238 266 455 L1097 455 C1165 840 979 1010 727 1010 C443 1010 229 796 176 495 C123 194 279 -20 553 -20 C757 -20 881 24 971 76 L930 150 C844 100 726 58 563 58 L563 58 Z M279 533 C329 752 500 932 717 932 C966 932 1041 753 1013 533 L279 533 Z " />
<glyph glyph-name="uni0206" unicode="&#x206;" horiz-adv-x="1374" d="M1344 1170 L1440 1170 L1486 1434 L382 1434 L367 1346 L543 1346 L321 88 L145 88 L130 0 L1244 0 L1290 264 L1194 264 L1163 88 L417 88 L523 690 L1237 690 L1253 778 L539 778 L639 1346 L1375 1346 L1344 1170 Z M996 1754 C766 1754 673 1602 648 1536 L744 1536 C805 1638 891 1671 990 1671 C1089 1671 1156 1638 1181 1536 L1268 1536 C1265 1602 1226 1754 996 1754 L996 1754 Z " />
<glyph glyph-name="uni0207" unicode="&#x207;" horiz-adv-x="1107" d="M563 58 C330 58 238 238 266 455 L1097 455 C1165 840 979 1010 727 1010 C443 1010 229 796 176 495 C123 194 279 -20 553 -20 C757 -20 881 24 971 76 L930 150 C844 100 726 58 563 58 L563 58 Z M279 533 C329 752 500 932 717 932 C966 932 1041 753 1013 533 L279 533 Z M805 1434 C575 1434 482 1282 457 1216 L553 1216 C614 1318 700 1351 799 1351 C898 1351 965 1318 990 1216 L1077 1216 C1074 1282 1035 1434 805 1434 L805 1434 Z " />
<glyph glyph-name="uni0208" unicode="&#x208;" horiz-adv-x="750" d="M128 0 L576 0 L591 88 L415 88 L637 1346 L813 1346 L828 1434 L380 1434 L365 1346 L541 1346 L319 88 L143 88 L128 0 Z M373 1807 L237 1807 L443 1536 L547 1536 L373 1807 Z M608 1807 L472 1807 L678 1536 L782 1536 L608 1807 Z " />
<glyph glyph-name="uni0209" unicode="&#x209;" horiz-adv-x="633" d="M435 912 L288 78 L110 78 L97 0 L545 0 L558 78 L380 78 L541 990 L271 990 L257 912 L435 912 Z M265 1434 L129 1434 L336 1163 L440 1163 L265 1434 Z M500 1434 L364 1434 L571 1163 L675 1163 L500 1434 Z " />
<glyph glyph-name="uni020A" unicode="&#x20a;" horiz-adv-x="797" d="M176 0 L624 0 L639 88 L463 88 L685 1346 L861 1346 L876 1434 L428 1434 L413 1346 L589 1346 L367 88 L191 88 L176 0 Z M705 1754 C475 1754 382 1602 357 1536 L453 1536 C514 1638 600 1671 699 1671 C798 1671 865 1638 890 1536 L977 1536 C974 1602 935 1754 705 1754 L705 1754 Z " />
<glyph glyph-name="uni020B" unicode="&#x20b;" horiz-adv-x="756" d="M494 912 L347 78 L169 78 L156 0 L604 0 L617 78 L439 78 L600 990 L330 990 L316 912 L494 912 Z M628 1434 C398 1434 305 1282 280 1216 L376 1216 C437 1318 523 1351 622 1351 C721 1351 788 1318 813 1216 L900 1216 C897 1282 858 1434 628 1434 L628 1434 Z " />
<glyph glyph-name="uni020C" unicode="&#x20c;" horiz-adv-x="1629" d="M851 1807 L715 1807 L921 1536 L1025 1536 L851 1807 Z M1086 1807 L950 1807 L1156 1536 L1260 1536 L1086 1807 Z M234 717 C165 304 392 -20 811 -20 C1260 -20 1580 294 1648 717 C1716 1140 1480 1454 1071 1454 C632 1454 303 1130 234 717 L234 717 Z M336 717 C398 1069 687 1366 1055 1366 C1443 1366 1606 1069 1546 717 C1484 355 1214 68 826 68 C438 68 274 365 336 717 L336 717 Z " />
<glyph glyph-name="uni020D" unicode="&#x20d;" horiz-adv-x="1192" d="M556 1434 L420 1434 L627 1163 L731 1163 L556 1434 Z M791 1434 L655 1434 L862 1163 L966 1163 L791 1434 Z M177 495 C124 193 290 -20 592 -20 C904 -20 1136 193 1189 495 C1242 797 1076 1010 774 1010 C460 1010 230 796 177 495 L177 495 Z M271 495 C314 742 505 932 760 932 C1044 932 1138 742 1095 495 C1051 248 860 58 606 58 C331 58 227 248 271 495 L271 495 Z " />
<glyph glyph-name="uni020E" unicode="&#x20e;" horiz-adv-x="1629" d="M234 717 C165 304 392 -20 811 -20 C1260 -20 1580 294 1648 717 C1716 1140 1480 1454 1071 1454 C632 1454 303 1130 234 717 L234 717 Z M336 717 C398 1069 687 1366 1055 1366 C1443 1366 1606 1069 1546 717 C1484 355 1214 68 826 68 C438 68 274 365 336 717 L336 717 Z M1121 1754 C891 1754 798 1602 773 1536 L869 1536 C930 1638 1016 1671 1115 1671 C1214 1671 1281 1638 1306 1536 L1393 1536 C1390 1602 1351 1754 1121 1754 L1121 1754 Z " />
<glyph glyph-name="uni020F" unicode="&#x20f;" horiz-adv-x="1192" d="M177 495 C124 193 290 -20 592 -20 C904 -20 1136 193 1189 495 C1242 797 1076 1010 774 1010 C460 1010 230 796 177 495 L177 495 Z M271 495 C314 742 505 932 760 932 C1044 932 1138 742 1095 495 C1051 248 860 58 606 58 C331 58 227 248 271 495 L271 495 Z M846 1434 C616 1434 523 1282 498 1216 L594 1216 C655 1318 741 1351 840 1351 C939 1351 1006 1318 1031 1216 L1118 1216 C1115 1282 1076 1434 846 1434 L846 1434 Z " />
<glyph glyph-name="uni0210" unicode="&#x210;" horiz-adv-x="1474" d="M713 1807 L577 1807 L783 1536 L887 1536 L713 1807 Z M948 1807 L812 1807 L1018 1536 L1122 1536 L948 1807 Z M130 0 L578 0 L593 88 L417 88 L513 630 L943 630 L1140 0 L1364 0 L1379 88 L1208 88 L1039 630 C1289 636 1468 790 1505 1032 C1538 1248 1445 1434 1190 1434 L382 1434 L367 1346 L543 1346 L321 88 L145 88 L130 0 Z M1175 1346 C1377 1346 1434 1194 1405 1032 C1377 870 1266 718 1064 718 L528 718 L639 1346 L1175 1346 Z " />
<glyph glyph-name="uni0211" unicode="&#x211;" horiz-adv-x="943" d="M1074 971 C1022 997 959 1010 882 1010 C720 1010 583 925 520 795 L554 990 L284 990 L270 912 L448 912 L301 78 L123 78 L110 0 L558 0 L571 78 L393 78 L474 538 C516 775 637 932 868 932 C929 932 978 919 1017 901 L1074 971 Z M516 1434 L380 1434 L587 1163 L691 1163 L516 1434 Z M751 1434 L615 1434 L822 1163 L926 1163 L751 1434 Z " />
<glyph glyph-name="uni0212" unicode="&#x212;" horiz-adv-x="1474" d="M986 1754 C756 1754 663 1602 638 1536 L734 1536 C795 1638 881 1671 980 1671 C1079 1671 1146 1638 1171 1536 L1258 1536 C1255 1602 1216 1754 986 1754 L986 1754 Z M130 0 L578 0 L593 88 L417 88 L513 630 L943 630 L1140 0 L1364 0 L1379 88 L1208 88 L1039 630 C1289 636 1468 790 1505 1032 C1538 1248 1445 1434 1190 1434 L382 1434 L367 1346 L543 1346 L321 88 L145 88 L130 0 Z M1175 1346 C1377 1346 1434 1194 1405 1032 C1377 870 1266 718 1064 718 L528 718 L639 1346 L1175 1346 Z " />
<glyph glyph-name="uni0213" unicode="&#x213;" horiz-adv-x="928" d="M1074 971 C1022 997 959 1010 882 1010 C720 1010 583 925 520 795 L554 990 L284 990 L270 912 L448 912 L301 78 L123 78 L110 0 L558 0 L571 78 L393 78 L474 538 C516 775 637 932 868 932 C929 932 978 919 1017 901 L1074 971 Z M826 1434 C596 1434 503 1282 478 1216 L574 1216 C635 1318 721 1351 820 1351 C919 1351 986 1318 1011 1216 L1098 1216 C1095 1282 1056 1434 826 1434 L826 1434 Z " />
<glyph glyph-name="uni0214" unicode="&#x214;" horiz-adv-x="1693" d="M874 1807 L738 1807 L944 1536 L1048 1536 L874 1807 Z M1109 1807 L973 1807 L1179 1536 L1283 1536 L1109 1807 Z M1800 1346 L1815 1434 L1367 1434 L1352 1346 L1527 1346 L1391 571 C1333 243 1139 68 858 68 C586 68 446 255 502 571 L638 1346 L815 1346 L830 1434 L382 1434 L367 1346 L542 1346 L406 571 C338 183 557 -20 843 -20 C1137 -20 1409 127 1487 571 L1623 1346 L1800 1346 Z " />
<glyph glyph-name="uni0215" unicode="&#x215;" horiz-adv-x="1408" d="M459 452 L554 990 L284 990 L270 912 L448 912 L367 452 C314 150 426 -20 700 -20 C862 -20 999 65 1062 195 L1028 0 L1298 0 L1311 78 L1133 78 L1294 990 L1024 990 L1010 912 L1188 912 L1107 452 C1065 215 945 58 714 58 C483 58 417 215 459 452 L459 452 Z M626 1434 L490 1434 L697 1163 L801 1163 L626 1434 Z M861 1434 L725 1434 L932 1163 L1036 1163 L861 1434 Z " />
<glyph glyph-name="uni0216" unicode="&#x216;" horiz-adv-x="1693" d="M1155 1754 C925 1754 832 1602 806 1536 L894 1536 C955 1638 1041 1671 1140 1671 C1239 1671 1313 1638 1338 1536 L1426 1536 C1424 1602 1385 1754 1155 1754 L1155 1754 Z M1800 1346 L1815 1434 L1367 1434 L1352 1346 L1527 1346 L1391 571 C1333 243 1139 68 858 68 C586 68 446 255 502 571 L638 1346 L815 1346 L830 1434 L382 1434 L367 1346 L542 1346 L406 571 C338 183 557 -20 843 -20 C1137 -20 1409 127 1487 571 L1623 1346 L1800 1346 Z " />
<glyph glyph-name="uni0217" unicode="&#x217;" horiz-adv-x="1408" d="M459 452 L554 990 L284 990 L270 912 L448 912 L367 452 C314 150 426 -20 700 -20 C862 -20 999 65 1062 195 L1028 0 L1298 0 L1311 78 L1133 78 L1294 990 L1024 990 L1010 912 L1188 912 L1107 452 C1065 215 945 58 714 58 C483 58 417 215 459 452 L459 452 Z M954 1434 C724 1434 631 1282 606 1216 L702 1216 C763 1318 849 1351 948 1351 C1047 1351 1114 1318 1139 1216 L1226 1216 C1223 1282 1184 1434 954 1434 L954 1434 Z " />
<glyph glyph-name="Scommaaccent" unicode="&#x218;" horiz-adv-x="1309" d="M370 -532 L454 -532 L705 -135 L592 -135 L370 -532 Z M1201 1170 L1297 1170 L1328 1349 C1328 1349 1148 1454 901 1454 C550 1454 394 1304 364 1098 C337 914 445 771 780 699 C1121 626 1166 523 1138 360 C1106 173 934 68 695 68 C450 68 278 169 278 169 L301 305 L205 305 L173 122 C173 122 348 -20 680 -20 C960 -20 1196 96 1238 360 C1274 587 1152 717 812 789 C513 852 443 957 468 1098 C501 1283 658 1366 885 1366 C1023 1366 1134 1341 1223 1296 L1201 1170 Z " />
<glyph glyph-name="scommaaccent" unicode="&#x219;" horiz-adv-x="992" d="M196 -532 L280 -532 L530 -134 L418 -134 L196 -532 Z M876 736 L968 736 L1003 935 C1003 935 854 1010 666 1010 C390 1010 282 886 260 753 C238 620 312 527 576 475 C796 432 855 374 835 258 C816 148 706 58 524 58 C424 58 314 80 224 128 L251 280 L159 280 L125 89 C225 12 374 -20 510 -20 C733 -20 894 73 927 258 C954 413 851 505 606 552 C387 594 335 653 352 753 C371 860 467 932 652 932 C766 932 840 912 902 884 L876 736 Z " />
<glyph glyph-name="uni021A" unicode="&#x21a;" horiz-adv-x="1436" d="M1003 1346 L1447 1346 L1416 1170 L1512 1170 L1558 1434 L382 1434 L336 1170 L432 1170 L463 1346 L907 1346 L685 88 L509 88 L494 0 L942 0 L957 88 L781 88 L1003 1346 Z M412 -532 L496 -532 L746 -134 L634 -134 L412 -532 Z " />
<glyph glyph-name="uni021B" unicode="&#x21b;" horiz-adv-x="786" d="M219 -532 L303 -532 L553 -134 L441 -134 L219 -532 Z M230 912 L444 912 L349 373 C305 123 339 -20 566 -20 C613 -20 675 -14 727 4 L707 80 C663 64 619 58 580 58 C381 58 413 215 453 441 L536 912 L849 912 L863 990 L550 990 L603 1288 L511 1288 L458 990 L244 990 L230 912 Z " />
<glyph glyph-name="uni021E" unicode="&#x21e;" horiz-adv-x="1668" d="M130 0 L578 0 L593 88 L417 88 L523 690 L1387 690 L1281 88 L1105 88 L1090 0 L1538 0 L1553 88 L1377 88 L1599 1346 L1775 1346 L1790 1434 L1342 1434 L1327 1346 L1503 1346 L1403 778 L539 778 L639 1346 L815 1346 L830 1434 L382 1434 L367 1346 L543 1346 L321 88 L145 88 L130 0 Z M1074 1536 L1120 1536 L1417 1837 L1312 1837 L1108 1639 L974 1837 L883 1837 L1074 1536 Z " />
<glyph glyph-name="uni021F" unicode="&#x21f;" horiz-adv-x="1408" d="M474 538 C516 775 637 932 868 932 C1099 932 1164 775 1122 538 L1028 0 L1298 0 L1311 78 L1133 78 L1214 538 C1268 840 1146 1010 882 1010 C720 1010 583 925 520 795 L647 1516 L377 1516 L363 1438 L541 1438 L301 78 L123 78 L110 0 L558 0 L571 78 L393 78 L474 538 Z M942 1536 L988 1536 L1285 1837 L1180 1837 L976 1639 L842 1837 L751 1837 L942 1536 Z " />
<glyph glyph-name="uni0224" unicode="&#x224;" horiz-adv-x="1324" d="M130 0 L1128 0 C1109 -3 921 -34 899 -172 C873 -336 1052 -365 1119 -365 L1136 -272 C1136 -272 966 -278 987 -163 C1011 -33 1194 0 1194 0 L1240 264 L1144 264 L1113 88 L291 88 L1437 1380 L1446 1434 L430 1434 L384 1170 L480 1170 L511 1346 L1284 1346 L139 54 L130 0 Z " />
<glyph glyph-name="uni0225" unicode="&#x225;" horiz-adv-x="1030" d="M110 0 L854 0 C835 -3 647 -34 625 -172 C599 -336 778 -365 845 -365 L862 -272 C862 -272 692 -278 713 -163 C736 -36 911 -1 920 0 L964 254 L872 254 L841 78 L272 78 L1086 946 L1094 990 L318 990 L273 736 L365 736 L396 912 L932 912 L117 44 L110 0 Z " />
<glyph glyph-name="uni0226" unicode="&#x226;" horiz-adv-x="1700" d="M1197 88 L1182 0 L1630 0 L1645 88 L1472 88 L1145 1434 L843 1434 L828 1346 L1005 1346 L256 88 L85 88 L70 0 L518 0 L533 88 L367 88 L595 475 L1282 475 L1374 88 L1197 88 Z M1261 563 L647 563 L1085 1306 L1261 563 Z M1058 1631 C1051 1590 1079 1556 1120 1556 C1167 1556 1201 1590 1208 1631 C1216 1672 1188 1706 1147 1706 C1100 1706 1066 1672 1058 1631 L1058 1631 Z " />
<glyph glyph-name="uni0227" unicode="&#x227;" horiz-adv-x="1308" d="M1102 990 L1062 761 C1027 899 906 1010 719 1010 C419 1010 197 809 145 495 C93 181 253 -20 537 -20 C754 -20 884 85 965 214 L928 0 L1198 0 L1211 78 L1033 78 L1180 912 L1358 912 L1372 990 L1102 990 Z M705 932 C981 932 1054 720 1015 495 C975 270 817 58 551 58 C275 58 201 270 241 495 C280 720 439 932 705 932 L705 932 Z M716 1270 C709 1229 737 1195 778 1195 C825 1195 859 1229 866 1270 C874 1311 846 1345 805 1345 C758 1345 724 1311 716 1270 L716 1270 Z " />
<glyph glyph-name="uni0228" unicode="&#x228;" horiz-adv-x="1374" d="M461 -404 C581 -480 824 -481 859 -285 C879 -176 791 -127 699 -125 L765 0 L1244 0 L1290 264 L1194 264 L1163 88 L417 88 L523 690 L1237 690 L1253 778 L539 778 L639 1346 L1375 1346 L1344 1170 L1440 1170 L1486 1434 L382 1434 L367 1346 L543 1346 L321 88 L145 88 L130 0 L679 0 L576 -196 C686 -186 795 -192 772 -281 C740 -400 603 -384 508 -342 L461 -404 Z " />
<glyph glyph-name="uni0229" unicode="&#x229;" horiz-adv-x="1107" d="M292 -404 C412 -480 655 -481 690 -285 C710 -176 622 -127 530 -125 L585 -19 C770 -15 886 27 971 76 L930 150 C844 100 726 58 563 58 C330 58 238 238 266 455 L1097 455 C1165 840 979 1010 727 1010 C443 1010 229 796 176 495 C126 213 259 8 501 -17 L407 -196 C517 -186 626 -192 603 -281 C571 -400 434 -384 339 -342 L292 -404 Z M279 533 C329 752 500 932 717 932 C966 932 1041 753 1013 533 L279 533 Z " />
<glyph glyph-name="uni022A" unicode="&#x22a;" horiz-adv-x="1629" d="M234 717 C165 304 392 -20 811 -20 C1260 -20 1580 294 1648 717 C1716 1140 1480 1454 1071 1454 C632 1454 303 1130 234 717 L234 717 Z M336 717 C398 1069 687 1366 1055 1366 C1443 1366 1606 1069 1546 717 C1484 355 1214 68 826 68 C438 68 274 365 336 717 L336 717 Z M864 1631 C857 1590 885 1556 926 1556 C973 1556 1007 1590 1014 1631 C1022 1672 994 1706 953 1706 C906 1706 872 1672 864 1631 L864 1631 Z M1189 1631 C1182 1590 1210 1556 1251 1556 C1298 1556 1332 1590 1339 1631 C1347 1672 1319 1706 1278 1706 C1231 1706 1197 1672 1189 1631 L1189 1631 Z M792 1789 L1468 1789 L1483 1877 L807 1877 L792 1789 Z " />
<glyph glyph-name="uni022B" unicode="&#x22b;" horiz-adv-x="1192" d="M509 1428 L1185 1428 L1199 1506 L523 1506 L509 1428 Z M177 495 C124 193 290 -20 592 -20 C904 -20 1136 193 1189 495 C1242 797 1076 1010 774 1010 C460 1010 230 796 177 495 L177 495 Z M271 495 C314 742 505 932 760 932 C1044 932 1138 742 1095 495 C1051 248 860 58 606 58 C331 58 227 248 271 495 L271 495 Z M583 1270 C576 1229 604 1195 645 1195 C692 1195 726 1229 733 1270 C741 1311 713 1345 672 1345 C625 1345 591 1311 583 1270 L583 1270 Z M908 1270 C901 1229 929 1195 970 1195 C1017 1195 1051 1229 1058 1270 C1066 1311 1038 1345 997 1345 C950 1345 916 1311 908 1270 L908 1270 Z " />
<glyph glyph-name="uni022C" unicode="&#x22c;" horiz-adv-x="1629" d="M793 1818 L1469 1818 L1483 1896 L807 1896 L793 1818 Z M234 717 C165 304 392 -20 811 -20 C1260 -20 1580 294 1648 717 C1716 1140 1480 1454 1071 1454 C632 1454 303 1130 234 717 L234 717 Z M336 717 C398 1069 687 1366 1055 1366 C1443 1366 1606 1069 1546 717 C1484 355 1214 68 826 68 C438 68 274 365 336 717 L336 717 Z M1071 1615 C1101 1579 1130 1536 1201 1536 C1371 1536 1386 1705 1386 1705 L1297 1705 C1297 1705 1290 1619 1216 1619 C1175 1619 1155 1650 1132 1679 C1102 1715 1072 1758 1001 1758 C831 1758 817 1589 817 1589 L906 1589 C906 1589 913 1675 987 1675 C1028 1675 1047 1644 1071 1615 L1071 1615 Z " />
<glyph glyph-name="uni022D" unicode="&#x22d;" horiz-adv-x="1192" d="M510 1428 L1186 1428 L1200 1506 L524 1506 L510 1428 Z M177 495 C124 193 290 -20 592 -20 C904 -20 1136 193 1189 495 C1242 797 1076 1010 774 1010 C460 1010 230 796 177 495 L177 495 Z M271 495 C314 742 505 932 760 932 C1044 932 1138 742 1095 495 C1051 248 860 58 606 58 C331 58 227 248 271 495 L271 495 Z M788 1225 C818 1189 847 1146 918 1146 C1088 1146 1103 1315 1103 1315 L1014 1315 C1014 1315 1007 1229 933 1229 C892 1229 872 1260 849 1289 C819 1325 789 1368 718 1368 C548 1368 534 1199 534 1199 L623 1199 C623 1199 630 1285 704 1285 C745 1285 764 1254 788 1225 L788 1225 Z " />
<glyph glyph-name="uni022E" unicode="&#x22e;" horiz-adv-x="1629" d="M234 717 C165 304 392 -20 811 -20 C1260 -20 1580 294 1648 717 C1716 1140 1480 1454 1071 1454 C632 1454 303 1130 234 717 L234 717 Z M336 717 C398 1069 687 1366 1055 1366 C1443 1366 1606 1069 1546 717 C1484 355 1214 68 826 68 C438 68 274 365 336 717 L336 717 Z M1026 1631 C1019 1590 1047 1556 1088 1556 C1135 1556 1169 1590 1176 1631 C1184 1672 1156 1706 1115 1706 C1068 1706 1034 1672 1026 1631 L1026 1631 Z " />
<glyph glyph-name="uni022F" unicode="&#x22f;" horiz-adv-x="1192" d="M177 495 C124 193 290 -20 592 -20 C904 -20 1136 193 1189 495 C1242 797 1076 1010 774 1010 C460 1010 230 796 177 495 L177 495 Z M271 495 C314 742 505 932 760 932 C1044 932 1138 742 1095 495 C1051 248 860 58 606 58 C331 58 227 248 271 495 L271 495 Z M744 1270 C737 1229 765 1195 806 1195 C853 1195 887 1229 894 1270 C902 1311 874 1345 833 1345 C786 1345 752 1311 744 1270 L744 1270 Z " />
<glyph glyph-name="uni0230" unicode="&#x230;" horiz-adv-x="1629" d="M1027 1631 C1020 1590 1048 1556 1089 1556 C1136 1556 1170 1590 1177 1631 C1185 1672 1157 1706 1116 1706 C1069 1706 1035 1672 1027 1631 L1027 1631 Z M793 1789 L1469 1789 L1484 1877 L808 1877 L793 1789 Z M234 717 C165 304 392 -20 811 -20 C1260 -20 1580 294 1648 717 C1716 1140 1480 1454 1071 1454 C632 1454 303 1130 234 717 L234 717 Z M336 717 C398 1069 687 1366 1055 1366 C1443 1366 1606 1069 1546 717 C1484 355 1214 68 826 68 C438 68 274 365 336 717 L336 717 Z " />
<glyph glyph-name="uni0231" unicode="&#x231;" horiz-adv-x="1192" d="M509 1428 L1185 1428 L1199 1506 L523 1506 L509 1428 Z M177 495 C124 193 290 -20 592 -20 C904 -20 1136 193 1189 495 C1242 797 1076 1010 774 1010 C460 1010 230 796 177 495 L177 495 Z M271 495 C314 742 505 932 760 932 C1044 932 1138 742 1095 495 C1051 248 860 58 606 58 C331 58 227 248 271 495 L271 495 Z M744 1270 C737 1229 765 1195 806 1195 C853 1195 887 1229 894 1270 C902 1311 874 1345 833 1345 C786 1345 752 1311 744 1270 L744 1270 Z " />
<glyph glyph-name="uni0232" unicode="&#x232;" horiz-adv-x="1578" d="M721 1536 L1397 1536 L1411 1614 L735 1614 L721 1536 Z M580 88 L565 0 L1013 0 L1028 88 L852 88 L939 581 L1576 1346 L1745 1346 L1760 1434 L1312 1434 L1297 1346 L1451 1346 L900 681 L586 1346 L755 1346 L770 1434 L322 1434 L307 1346 L475 1346 L843 581 L756 88 L580 88 Z " />
<glyph glyph-name="uni0233" unicode="&#x233;" horiz-adv-x="1420" d="M611 1356 L1287 1356 L1300 1434 L624 1434 L611 1356 Z M1470 912 L1484 990 L1036 990 L1022 912 L1189 912 L725 111 L542 912 L718 912 L732 990 L284 990 L270 912 L442 912 L664 0 L513 -255 C446 -368 394 -454 260 -454 L168 -454 L155 -532 L247 -532 C430 -532 488 -450 582 -291 L1297 912 L1470 912 Z " />
<glyph glyph-name="uni0238" unicode="&#x238;" horiz-adv-x="2009" d="M1050 0 L1090 229 C1125 91 1246 -20 1433 -20 C1757 -20 1955 191 2007 495 C2059 799 1905 1010 1615 1010 C1418 1010 1269 911 1188 783 L1303 1438 L1481 1438 L1495 1516 L1047 1516 L1033 1438 L1211 1438 L1092 761 C1057 899 936 1010 749 1010 C439 1010 227 809 175 495 C123 181 303 -20 567 -20 C784 -20 914 85 995 214 L958 0 L1050 0 Z M1601 932 C1877 932 1950 720 1911 495 C1871 270 1723 58 1447 58 C1191 58 1097 270 1137 495 C1176 720 1315 932 1601 932 L1601 932 Z M735 932 C1011 932 1084 720 1045 495 C1005 270 857 58 581 58 C325 58 231 270 271 495 C310 720 459 932 735 932 L735 932 Z " />
<glyph glyph-name="uni0239" unicode="&#x239;" horiz-adv-x="2009" d="M1132 990 L1092 761 C1057 899 936 1010 749 1010 C439 1010 227 809 175 495 C123 181 303 -20 567 -20 C784 -20 914 85 995 214 L877 -454 L699 -454 L686 -532 L1134 -532 L1147 -454 L970 -454 L1090 229 C1125 91 1246 -20 1433 -20 C1757 -20 1955 191 2007 495 C2059 799 1905 1010 1615 1010 C1418 1010 1269 911 1188 783 L1224 990 L1132 990 Z M1601 932 C1877 932 1950 720 1911 495 C1871 270 1723 58 1447 58 C1191 58 1097 270 1137 495 C1176 720 1315 932 1601 932 L1601 932 Z M735 932 C1011 932 1084 720 1045 495 C1005 270 857 58 581 58 C325 58 231 270 271 495 C310 720 459 932 735 932 L735 932 Z " />
<glyph glyph-name="uni024C" unicode="&#x24c;" horiz-adv-x="1547" d="M203 0 L651 0 L666 88 L490 88 L586 630 L1016 630 L1213 0 L1437 0 L1452 88 L1281 88 L1112 630 C1362 636 1541 790 1578 1032 C1611 1248 1518 1434 1263 1434 L455 1434 L440 1346 L616 1346 L505 718 L256 718 L241 630 L489 630 L394 88 L218 88 L203 0 Z M1248 1346 C1450 1346 1507 1194 1478 1032 C1450 870 1339 718 1137 718 L601 718 L712 1346 L1248 1346 Z " />
<glyph glyph-name="uni024D" unicode="&#x24d;" horiz-adv-x="991" d="M1122 971 C1070 997 1007 1010 930 1010 C768 1010 631 925 568 795 L602 990 L332 990 L318 912 L496 912 L418 470 L192 470 L179 392 L405 392 L349 78 L171 78 L158 0 L606 0 L619 78 L441 78 L497 392 L723 392 L736 470 L510 470 L522 538 C564 775 685 932 916 932 C977 932 1026 919 1065 901 L1122 971 Z " />
<glyph glyph-name="uni024E" unicode="&#x24e;" horiz-adv-x="1578" d="M580 88 L565 0 L1013 0 L1028 88 L852 88 L939 581 L1279 990 L1514 990 L1530 1078 L1353 1078 L1576 1346 L1745 1346 L1760 1434 L1312 1434 L1297 1346 L1451 1346 L1229 1078 L712 1078 L586 1346 L755 1346 L770 1434 L322 1434 L307 1346 L475 1346 L604 1078 L429 1078 L413 990 L646 990 L843 581 L756 88 L580 88 Z M754 990 L1156 990 L900 681 L754 990 Z " />
<glyph glyph-name="uni024F" unicode="&#x24f;" horiz-adv-x="1420" d="M1470 912 L1484 990 L1036 990 L1022 912 L1189 912 L999 584 L617 584 L542 912 L718 912 L732 990 L284 990 L270 912 L442 912 L522 584 L274 584 L261 506 L541 506 L664 0 L513 -255 C446 -368 394 -454 260 -454 L168 -454 L155 -532 L247 -532 C430 -532 488 -450 582 -291 L1055 506 L1335 506 L1348 584 L1102 584 L1297 912 L1470 912 Z M635 506 L954 506 L725 111 L635 506 Z " />
<glyph glyph-name="circumflex" unicode="&#x2c6;" horiz-adv-x="758" d="M656 1434 L586 1434 L309 1133 L421 1133 L615 1331 L749 1133 L847 1133 L656 1434 Z " />
<glyph glyph-name="caron" unicode="&#x2c7;" horiz-adv-x="714" d="M876 1434 L774 1434 L571 1236 L437 1434 L342 1434 L531 1133 L595 1133 L876 1434 Z " />
<glyph glyph-name="uni02C8" unicode="&#x2c8;" horiz-adv-x="312" d="M299 1075 L391 1075 L454 1434 L362 1434 L299 1075 Z " />
<glyph glyph-name="uni02C9" unicode="&#x2c9;" horiz-adv-x="938" d="M369 1346 L1045 1346 L1060 1434 L384 1434 L369 1346 Z " />
<glyph glyph-name="uni02CA" unicode="&#x2ca;" horiz-adv-x="634" d="M315 1133 L419 1133 L776 1434 L640 1434 L315 1133 Z " />
<glyph glyph-name="uni02CB" unicode="&#x2cb;" horiz-adv-x="622" d="M498 1434 L362 1434 L613 1133 L717 1133 L498 1434 Z " />
<glyph glyph-name="uni02CC" unicode="&#x2cc;" horiz-adv-x="312" d="M16 -532 L108 -532 L171 -173 L79 -173 L16 -532 Z " />
<glyph glyph-name="uni02CD" unicode="&#x2cd;" horiz-adv-x="956" d="M16 -532 L750 -532 L765 -444 L31 -444 L16 -532 Z " />
<glyph glyph-name="uni02CE" unicode="&#x2ce;" horiz-adv-x="623" d="M200 -232 L63 -232 L315 -532 L419 -532 L200 -232 Z " />
<glyph glyph-name="uni02CF" unicode="&#x2cf;" horiz-adv-x="635" d="M16 -532 L120 -532 L478 -232 L341 -232 L16 -532 Z " />
<glyph glyph-name="uni02D0" unicode="&#x2d0;" horiz-adv-x="498" d="M284 990 L379 745 L562 990 L284 990 Z M388 0 L291 245 L110 0 L388 0 Z " />
<glyph glyph-name="uni02D1" unicode="&#x2d1;" horiz-adv-x="498" d="M284 990 L379 745 L562 990 L284 990 Z " />
<glyph glyph-name="uni02D2" unicode="&#x2d2;" horiz-adv-x="458" d="M340 789 C353 863 414 911 508 911 L523 998 C370 998 272 925 249 789 C228 665 307 580 450 580 L465 667 C361 667 327 715 340 789 L340 789 Z " />
<glyph glyph-name="uni02D3" unicode="&#x2d3;" horiz-adv-x="457" d="M395 789 C382 715 321 667 227 667 L212 580 C365 580 463 653 486 789 C507 913 428 998 285 998 L270 911 C374 911 408 863 395 789 L395 789 Z " />
<glyph glyph-name="uni02D4" unicode="&#x2d4;" horiz-adv-x="860" d="M215 600 L855 600 L869 678 L595 678 L650 991 L558 991 L503 678 L229 678 L215 600 Z " />
<glyph glyph-name="uni02D5" unicode="&#x2d5;" horiz-adv-x="860" d="M165 313 L439 313 L384 0 L476 0 L531 313 L805 313 L818 391 L178 391 L165 313 Z " />
<glyph glyph-name="uni02D6" unicode="&#x2d6;" horiz-adv-x="1054" d="M284 595 L592 595 L538 287 L616 287 L670 595 L978 595 L992 673 L684 673 L738 981 L660 981 L606 673 L298 673 L284 595 Z " />
<glyph glyph-name="uni02D7" unicode="&#x2d7;" horiz-adv-x="860" d="M214 595 L854 595 L868 673 L228 673 L214 595 Z " />
<glyph glyph-name="breve" unicode="&#x2d8;" horiz-adv-x="800" d="M614 1216 C854 1216 941 1397 962 1434 L866 1434 C794 1325 708 1299 629 1299 C540 1299 469 1325 430 1434 L342 1434 C352 1398 388 1216 614 1216 L614 1216 Z " />
<glyph glyph-name="dotaccent" unicode="&#x2d9;" horiz-adv-x="290" d="M293 1270 C286 1229 314 1195 355 1195 C402 1195 436 1229 443 1270 C451 1311 423 1345 382 1345 C335 1345 301 1311 293 1270 L293 1270 Z " />
<glyph glyph-name="ring" unicode="&#x2da;" horiz-adv-x="561" d="M336 1284 C321 1192 376 1114 478 1114 C591 1114 660 1188 676 1284 C692 1377 647 1454 534 1454 C432 1454 352 1381 336 1284 L336 1284 Z M402 1284 C412 1341 457 1388 524 1388 C601 1388 620 1341 610 1284 C600 1227 555 1180 488 1180 C411 1180 392 1227 402 1284 L402 1284 Z " />
<glyph glyph-name="ogonek" unicode="&#x2db;" horiz-adv-x="440" d="M286 0 C286 0 78 -27 55 -172 C29 -336 208 -365 275 -365 L292 -272 C292 -272 122 -278 143 -163 C167 -33 350 0 350 0 L286 0 Z " />
<glyph glyph-name="tilde" unicode="&#x2dc;" horiz-adv-x="769" d="M587 1291 C617 1255 646 1212 717 1212 C887 1212 902 1381 902 1381 L813 1381 C813 1381 806 1295 732 1295 C691 1295 671 1326 648 1355 C618 1391 588 1434 517 1434 C347 1434 333 1265 333 1265 L422 1265 C422 1265 429 1351 503 1351 C544 1351 563 1320 587 1291 L587 1291 Z " />
<glyph glyph-name="hungarumlaut" unicode="&#x2dd;" horiz-adv-x="703" d="M535 1075 L617 1075 L845 1434 L732 1434 L535 1075 Z M299 1075 L383 1075 L610 1434 L497 1434 L299 1075 Z " />
<glyph glyph-name="gravecomb" unicode="&#x300;" horiz-adv-x="662" d="M518 1434 L382 1434 L633 1133 L737 1133 L518 1434 Z " />
<glyph glyph-name="acutecomb" unicode="&#x301;" horiz-adv-x="674" d="M335 1133 L439 1133 L796 1434 L660 1434 L335 1133 Z " />
<glyph glyph-name="uni0302" unicode="&#x302;" horiz-adv-x="758" d="M656 1434 L586 1434 L309 1133 L421 1133 L615 1331 L749 1133 L847 1133 L656 1434 Z " />
<glyph glyph-name="tildecomb" unicode="&#x303;" horiz-adv-x="809" d="M607 1291 C637 1255 666 1212 737 1212 C907 1212 922 1381 922 1381 L833 1381 C833 1381 826 1295 752 1295 C711 1295 691 1326 668 1355 C638 1391 608 1434 537 1434 C367 1434 353 1265 353 1265 L442 1265 C442 1265 449 1351 523 1351 C564 1351 583 1320 607 1291 L607 1291 Z " />
<glyph glyph-name="uni0304" unicode="&#x304;" horiz-adv-x="898" d="M349 1346 L1025 1346 L1040 1434 L364 1434 L349 1346 Z " />
<glyph glyph-name="uni0305" unicode="&#x305;" horiz-adv-x="1091" d="M349 1356 L1220 1356 L1233 1434 L362 1434 L349 1356 Z " />
<glyph glyph-name="uni0306" unicode="&#x306;" horiz-adv-x="840" d="M634 1216 C874 1216 961 1397 982 1434 L886 1434 C814 1325 728 1299 649 1299 C560 1299 489 1325 450 1434 L362 1434 C372 1398 408 1216 634 1216 L634 1216 Z " />
<glyph glyph-name="uni0307" unicode="&#x307;" horiz-adv-x="370" d="M333 1270 C326 1229 354 1195 395 1195 C442 1195 476 1229 483 1270 C491 1311 463 1345 422 1345 C375 1345 341 1311 333 1270 L333 1270 Z " />
<glyph glyph-name="uni0308" unicode="&#x308;" horiz-adv-x="695" d="M333 1270 C326 1229 354 1195 395 1195 C442 1195 476 1229 483 1270 C491 1311 463 1345 422 1345 C375 1345 341 1311 333 1270 L333 1270 Z M658 1270 C651 1229 679 1195 720 1195 C767 1195 801 1229 808 1270 C816 1311 788 1345 747 1345 C700 1345 666 1311 658 1270 L658 1270 Z " />
<glyph glyph-name="hookabovecomb" unicode="&#x309;" horiz-adv-x="566" d="M336 1173 C378 1173 638 1147 688 1434 L594 1434 C562 1251 394 1258 351 1258 L336 1173 Z " />
<glyph glyph-name="uni030A" unicode="&#x30a;" horiz-adv-x="561" d="M336 1284 C321 1192 376 1114 478 1114 C591 1114 660 1188 676 1284 C692 1377 647 1454 534 1454 C432 1454 352 1381 336 1284 L336 1284 Z M402 1284 C412 1341 457 1388 524 1388 C601 1388 620 1341 610 1284 C600 1227 555 1180 488 1180 C411 1180 392 1227 402 1284 L402 1284 Z " />
<glyph glyph-name="uni030B" unicode="&#x30b;" horiz-adv-x="703" d="M535 1075 L617 1075 L845 1434 L732 1434 L535 1075 Z M299 1075 L383 1075 L610 1434 L497 1434 L299 1075 Z " />
<glyph glyph-name="uni030C" unicode="&#x30c;" horiz-adv-x="754" d="M896 1434 L794 1434 L591 1236 L457 1434 L362 1434 L551 1133 L615 1133 L896 1434 Z " />
<glyph glyph-name="uni030D" unicode="&#x30d;" horiz-adv-x="312" d="M299 1075 L391 1075 L454 1434 L362 1434 L299 1075 Z " />
<glyph glyph-name="uni030E" unicode="&#x30e;" horiz-adv-x="508" d="M299 1075 L391 1075 L454 1434 L362 1434 L299 1075 Z M495 1075 L587 1075 L650 1434 L558 1434 L495 1075 Z " />
<glyph glyph-name="uni030F" unicode="&#x30f;" horiz-adv-x="712" d="M482 1434 L362 1434 L472 1036 L562 1036 L482 1434 Z M709 1434 L588 1434 L698 1036 L791 1036 L709 1434 Z " />
<glyph glyph-name="uni0310" unicode="&#x310;" horiz-adv-x="840" d="M634 1216 C874 1216 961 1397 982 1434 L886 1434 C814 1325 728 1299 649 1299 C560 1299 489 1325 450 1434 L362 1434 C372 1398 408 1216 634 1216 L634 1216 Z M608 1489 C601 1448 629 1414 670 1414 C717 1414 751 1448 758 1489 C766 1530 738 1564 697 1564 C650 1564 616 1530 608 1489 L608 1489 Z " />
<glyph glyph-name="uni0311" unicode="&#x311;" horiz-adv-x="840" d="M672 1434 C432 1434 345 1253 324 1216 L420 1216 C492 1325 578 1351 657 1351 C746 1351 817 1325 856 1216 L944 1216 C934 1252 898 1434 672 1434 L672 1434 Z " />
<glyph glyph-name="uni0312" unicode="&#x312;" horiz-adv-x="493" d="M635 1434 L542 1434 L292 1036 L413 1036 L635 1434 Z " />
<glyph glyph-name="uni0313" unicode="&#x313;" horiz-adv-x="493" d="M292 1036 L385 1036 L635 1434 L514 1434 L292 1036 Z " />
<glyph glyph-name="uni0314" unicode="&#x314;" horiz-adv-x="493" d="M483 1434 L362 1434 L472 1036 L565 1036 L483 1434 Z " />
<glyph glyph-name="uni0315" unicode="&#x315;" horiz-adv-x="493" d="M292 1036 L385 1036 L635 1434 L514 1434 L292 1036 Z " />
<glyph glyph-name="uni0316" unicode="&#x316;" horiz-adv-x="623" d="M200 -232 L63 -232 L315 -532 L419 -532 L200 -232 Z " />
<glyph glyph-name="uni0317" unicode="&#x317;" horiz-adv-x="635" d="M16 -532 L121 -532 L478 -232 L341 -232 L16 -532 Z " />
<glyph glyph-name="uni0318" unicode="&#x318;" horiz-adv-x="461" d="M229 -226 L209 -340 L50 -340 L36 -418 L195 -418 L175 -532 L257 -532 L311 -226 L229 -226 Z " />
<glyph glyph-name="uni0319" unicode="&#x319;" horiz-adv-x="461" d="M70 -226 L16 -532 L98 -532 L118 -418 L277 -418 L291 -340 L132 -340 L152 -226 L70 -226 Z " />
<glyph glyph-name="uni031A" unicode="&#x31a;" horiz-adv-x="524" d="M362 1434 L349 1356 L561 1356 L525 1155 L617 1155 L666 1434 L362 1434 Z " />
<glyph glyph-name="uni031B" unicode="&#x31b;" horiz-adv-x="501" d="M547 1434 C547 1434 516 1212 323 1212 L307 1118 C594 1118 642 1434 642 1434 L547 1434 Z " />
<glyph glyph-name="uni031C" unicode="&#x31c;" horiz-adv-x="458" d="M144 -323 C157 -249 218 -201 312 -201 L327 -114 C174 -114 76 -187 53 -323 C32 -447 111 -532 254 -532 L269 -445 C165 -445 131 -397 144 -323 L144 -323 Z " />
<glyph glyph-name="uni031D" unicode="&#x31d;" horiz-adv-x="603" d="M16 -532 L399 -532 L412 -454 L266 -454 L296 -286 L204 -286 L174 -454 L29 -454 L16 -532 Z " />
<glyph glyph-name="uni031E" unicode="&#x31e;" horiz-adv-x="603" d="M45 -364 L190 -364 L161 -532 L253 -532 L282 -364 L428 -364 L442 -286 L59 -286 L45 -364 Z " />
<glyph glyph-name="uni031F" unicode="&#x31f;" horiz-adv-x="602" d="M498 38 L346 38 L373 190 L295 190 L268 38 L116 38 L102 -40 L254 -40 L228 -192 L306 -192 L332 -40 L484 -40 L498 38 Z " />
<glyph glyph-name="uni0320" unicode="&#x320;" horiz-adv-x="544" d="M102 -40 L426 -40 L440 38 L116 38 L102 -40 Z " />
<glyph glyph-name="uni0321" unicode="&#x321;" horiz-adv-x="626" d="M434 46 C388 -214 301 -324 52 -324 L37 -410 C342 -410 467 -274 524 46 L434 46 Z " />
<glyph glyph-name="uni0322" unicode="&#x322;" horiz-adv-x="626" d="M118 46 C61 -274 138 -410 443 -410 L458 -324 C209 -324 162 -214 208 46 L118 46 Z " />
<glyph glyph-name="dotbelowcomb" unicode="&#x323;" horiz-adv-x="410" d="M81 -275 C74 -316 102 -350 143 -350 C190 -350 224 -316 231 -275 C239 -234 211 -200 170 -200 C123 -200 89 -234 81 -275 L81 -275 Z " />
<glyph glyph-name="uni0324" unicode="&#x324;" horiz-adv-x="695" d="M60 -279 C53 -320 81 -354 122 -354 C169 -354 203 -320 210 -279 C218 -238 190 -204 149 -204 C102 -204 68 -238 60 -279 L60 -279 Z M385 -279 C378 -320 406 -354 447 -354 C494 -354 528 -320 535 -279 C543 -238 515 -204 474 -204 C427 -204 393 -238 385 -279 L385 -279 Z " />
<glyph glyph-name="uni0325" unicode="&#x325;" horiz-adv-x="560" d="M45 -362 C30 -454 85 -532 187 -532 C300 -532 369 -458 385 -362 C401 -269 356 -192 243 -192 C141 -192 61 -265 45 -362 L45 -362 Z M111 -362 C121 -305 166 -258 233 -258 C310 -258 329 -305 319 -362 C309 -419 264 -466 197 -466 C120 -466 101 -419 111 -362 L111 -362 Z " />
<glyph glyph-name="commaaccent" unicode="&#x326;" horiz-adv-x="524" d="M36 -532 L120 -532 L370 -134 L258 -134 L36 -532 Z " />
<glyph glyph-name="uni0327" unicode="&#x327;" horiz-adv-x="595" d="M38 -404 C158 -480 401 -481 436 -285 C456 -176 368 -127 276 -125 L361 36 L275 36 L153 -196 C263 -186 372 -192 349 -281 C317 -400 180 -384 85 -342 L38 -404 Z " />
<glyph glyph-name="uni0328" unicode="&#x328;" horiz-adv-x="480" d="M306 0 C306 0 98 -27 75 -172 C49 -336 228 -365 295 -365 L312 -272 C312 -272 142 -278 163 -163 C187 -33 370 0 370 0 L306 0 Z " />
<glyph glyph-name="uni0329" unicode="&#x329;" horiz-adv-x="312" d="M16 -532 L108 -532 L171 -173 L79 -173 L16 -532 Z " />
<glyph glyph-name="uni032A" unicode="&#x32a;" horiz-adv-x="836" d="M16 -532 L98 -532 L122 -396 L574 -396 L550 -532 L632 -532 L669 -318 L53 -318 L16 -532 Z " />
<glyph glyph-name="uni032B" unicode="&#x32b;" horiz-adv-x="656" d="M248 -452 C249 -512 291 -532 326 -532 C418 -532 462 -471 478 -382 L507 -220 L434 -220 L405 -382 C399 -417 386 -461 338 -461 C280 -461 300 -351 311 -288 L243 -288 C232 -351 212 -461 154 -461 C106 -461 109 -417 115 -382 L144 -220 L71 -220 L42 -382 C26 -471 50 -532 142 -532 C177 -532 225 -512 248 -452 L248 -452 Z " />
<glyph glyph-name="uni032C" unicode="&#x32c;" horiz-adv-x="754" d="M603 -231 L501 -231 L298 -429 L164 -231 L69 -231 L258 -532 L322 -532 L603 -231 Z " />
<glyph glyph-name="uni032D" unicode="&#x32d;" horiz-adv-x="758" d="M363 -231 L293 -231 L16 -532 L128 -532 L322 -334 L456 -532 L554 -532 L363 -231 Z " />
<glyph glyph-name="uni032E" unicode="&#x32e;" horiz-adv-x="840" d="M326 -532 C566 -532 653 -351 674 -314 L578 -314 C506 -423 420 -449 341 -449 C252 -449 181 -423 142 -314 L54 -314 C64 -350 100 -532 326 -532 L326 -532 Z " />
<glyph glyph-name="uni032F" unicode="&#x32f;" horiz-adv-x="840" d="M364 -314 C124 -314 37 -495 16 -532 L112 -532 C184 -423 270 -397 349 -397 C438 -397 509 -423 548 -532 L636 -532 C626 -496 590 -314 364 -314 L364 -314 Z " />
<glyph glyph-name="uni0330" unicode="&#x330;" horiz-adv-x="768" d="M302 -322 C332 -358 361 -401 432 -401 C602 -401 617 -232 617 -232 L528 -232 C528 -232 521 -318 447 -318 C406 -318 386 -287 363 -258 C333 -222 303 -179 232 -179 C62 -179 48 -348 48 -348 L137 -348 C137 -348 144 -262 218 -262 C259 -262 278 -293 302 -322 L302 -322 Z " />
<glyph glyph-name="uni0331" unicode="&#x331;" horiz-adv-x="898" d="M16 -532 L692 -532 L707 -444 L31 -444 L16 -532 Z " />
<glyph glyph-name="uni0332" unicode="&#x332;" horiz-adv-x="1153" d="M89 -229 L982 -229 L998 -141 L105 -141 L89 -229 Z " />
<glyph glyph-name="uni0333" unicode="&#x333;" horiz-adv-x="1153" d="M62 -385 L955 -385 L970 -297 L77 -297 L62 -385 Z M89 -229 L982 -229 L998 -141 L105 -141 L89 -229 Z " />
<glyph glyph-name="uni0334" unicode="&#x334;" horiz-adv-x="768" d="M475 661 C505 625 534 582 605 582 C775 582 790 751 790 751 L701 751 C701 751 694 665 620 665 C579 665 559 696 536 725 C506 761 476 804 405 804 C235 804 221 635 221 635 L310 635 C310 635 317 721 391 721 C432 721 451 690 475 661 L475 661 Z " />
<glyph glyph-name="uni0335" unicode="&#x335;" horiz-adv-x="739" d="M230 684 L749 684 L763 762 L244 762 L230 684 Z " />
<glyph glyph-name="uni0336" unicode="&#x336;" horiz-adv-x="974" d="M230 684 L984 684 L998 762 L244 762 L230 684 Z " />
<glyph glyph-name="uni0337" unicode="&#x337;" horiz-adv-x="984" d="M928 983 L150 230 L269 230 L1047 983 L928 983 Z " />
<glyph glyph-name="uni0338" unicode="&#x338;" horiz-adv-x="1235" d="M110 0 L220 0 L1377 1434 L1267 1434 L110 0 Z " />
<glyph glyph-name="uni0339" unicode="&#x339;" horiz-adv-x="457" d="M199 -323 C186 -397 125 -445 31 -445 L16 -532 C169 -532 267 -459 290 -323 C311 -199 232 -114 89 -114 L74 -201 C178 -201 212 -249 199 -323 L199 -323 Z " />
<glyph glyph-name="uni033A" unicode="&#x33a;" horiz-adv-x="836" d="M16 -532 L632 -532 L669 -318 L587 -318 L563 -454 L111 -454 L135 -318 L53 -318 L16 -532 Z " />
<glyph glyph-name="uni033B" unicode="&#x33b;" horiz-adv-x="521" d="M16 -532 L317 -532 L370 -232 L69 -232 L16 -532 Z M133 -309 L278 -309 L252 -455 L107 -455 L133 -309 Z " />
<glyph glyph-name="uni033C" unicode="&#x33c;" horiz-adv-x="656" d="M269 -532 C282 -476 304 -419 346 -419 C394 -419 391 -463 385 -498 L382 -512 L455 -512 L458 -498 C473 -409 450 -348 358 -348 C323 -348 275 -368 252 -428 C251 -368 209 -348 174 -348 C82 -348 37 -409 22 -498 L19 -512 L92 -512 L95 -498 C101 -463 114 -419 162 -419 C204 -419 206 -476 199 -532 L269 -532 Z " />
<glyph glyph-name="uni033D" unicode="&#x33d;" horiz-adv-x="708" d="M525 1271 L303 1096 L416 1096 L573 1219 L687 1096 L782 1096 L627 1262 L845 1434 L732 1434 L580 1314 L469 1434 L374 1434 L525 1271 Z " />
<glyph glyph-name="uni033E" unicode="&#x33e;" horiz-adv-x="442" d="M501 1403 C543 1439 592 1477 604 1548 C629 1688 463 1703 463 1703 L447 1614 C447 1614 531 1602 521 1548 C514 1507 478 1483 444 1454 C402 1418 353 1380 340 1309 C316 1169 482 1154 482 1154 L498 1243 C498 1243 414 1255 423 1309 C431 1350 467 1374 501 1403 L501 1403 Z " />
<glyph glyph-name="uni033F" unicode="&#x33f;" horiz-adv-x="1153" d="M397 1516 L1290 1516 L1305 1604 L412 1604 L397 1516 Z M424 1672 L1317 1672 L1333 1760 L440 1760 L424 1672 Z " />
<glyph glyph-name="uni0340" unicode="&#x340;" horiz-adv-x="622" d="M498 1434 L362 1434 L613 1133 L717 1133 L498 1434 Z " />
<glyph glyph-name="uni0341" unicode="&#x341;" horiz-adv-x="634" d="M315 1133 L419 1133 L776 1434 L640 1434 L315 1133 Z " />
<glyph glyph-name="uni0342" unicode="&#x342;" horiz-adv-x="769" d="M587 1291 C617 1255 646 1212 717 1212 C887 1212 902 1381 902 1381 L813 1381 C813 1381 806 1295 732 1295 C691 1295 671 1326 648 1355 C618 1391 588 1434 517 1434 C347 1434 333 1265 333 1265 L422 1265 C422 1265 429 1351 503 1351 C544 1351 563 1320 587 1291 L587 1291 Z " />
<glyph glyph-name="uni0343" unicode="&#x343;" horiz-adv-x="492" d="M292 1036 L384 1036 L634 1434 L514 1434 L292 1036 Z " />
<glyph glyph-name="uni0344" unicode="&#x344;" horiz-adv-x="715" d="M553 1445 L641 1445 L837 1784 L716 1784 L553 1445 Z M333 1270 C326 1229 354 1195 395 1195 C442 1195 476 1229 483 1270 C491 1311 463 1345 422 1345 C375 1345 341 1311 333 1270 L333 1270 Z M658 1270 C651 1229 679 1195 720 1195 C767 1195 801 1229 808 1270 C816 1311 788 1345 747 1345 C700 1345 666 1311 658 1270 L658 1270 Z " />
<glyph glyph-name="uni0345" unicode="&#x345;" horiz-adv-x="589" d="M94 46 C45 -231 131 -314 230 -314 C313 -314 383 -275 429 -222 L382 -158 C336 -204 296 -227 250 -227 C186 -227 146 -150 181 46 L94 46 Z " />
<glyph glyph-name="uni0346" unicode="&#x346;" horiz-adv-x="836" d="M325 1220 L407 1220 L431 1356 L883 1356 L859 1220 L941 1220 L978 1434 L362 1434 L325 1220 Z " />
<glyph glyph-name="uni0347" unicode="&#x347;" horiz-adv-x="544" d="M90 -111 L414 -111 L428 -33 L104 -33 L90 -111 Z M115 33 L439 33 L453 111 L129 111 L115 33 Z " />
<glyph glyph-name="uni0348" unicode="&#x348;" horiz-adv-x="508" d="M16 -532 L108 -532 L171 -173 L79 -173 L16 -532 Z M212 -532 L304 -532 L367 -173 L275 -173 L212 -532 Z " />
<glyph glyph-name="uni0349" unicode="&#x349;" horiz-adv-x="524" d="M65 -253 L51 -331 L263 -331 L228 -532 L320 -532 L369 -253 L65 -253 Z " />
<glyph glyph-name="uni034A" unicode="&#x34a;" horiz-adv-x="769" d="M613 1260 C636 1234 666 1212 717 1212 C887 1212 902 1381 902 1381 L813 1381 C813 1381 806 1295 732 1295 C704 1295 687 1308 671 1326 L811 1488 L707 1488 L620 1388 C596 1413 566 1434 517 1434 C347 1434 333 1265 333 1265 L422 1265 C422 1265 429 1351 503 1351 C529 1351 546 1338 562 1321 L403 1138 L507 1138 L613 1260 Z " />
<glyph glyph-name="uni034B" unicode="&#x34b;" horiz-adv-x="769" d="M587 1291 C617 1255 646 1212 717 1212 C887 1212 902 1381 902 1381 L813 1381 C813 1381 806 1295 732 1295 C691 1295 671 1326 648 1355 C618 1391 588 1434 517 1434 C347 1434 333 1265 333 1265 L422 1265 C422 1265 429 1351 503 1351 C544 1351 563 1320 587 1291 L587 1291 Z M661 1496 C654 1455 682 1421 723 1421 C770 1421 804 1455 811 1496 C819 1537 791 1571 750 1571 C703 1571 669 1537 661 1496 L661 1496 Z M420 1150 C413 1109 441 1075 482 1075 C529 1075 563 1109 570 1150 C578 1191 550 1225 509 1225 C462 1225 428 1191 420 1150 L420 1150 Z " />
<glyph glyph-name="uni034C" unicode="&#x34c;" horiz-adv-x="919" d="M669 1288 C702 1257 758 1215 831 1215 C920 1215 995 1253 1042 1303 L1059 1415 C986 1333 929 1299 846 1299 C788 1299 757 1329 722 1361 C683 1396 633 1434 560 1434 C471 1434 396 1400 350 1340 L332 1230 C395 1312 462 1350 545 1350 C604 1350 626 1328 669 1288 L669 1288 Z M626 1042 C659 1011 715 969 788 969 C877 969 952 1007 998 1057 L1016 1169 C942 1087 886 1053 803 1053 C745 1053 714 1083 679 1115 C640 1150 589 1188 516 1188 C427 1188 353 1154 306 1094 L288 984 C352 1066 419 1104 502 1104 C561 1104 583 1082 626 1042 L626 1042 Z " />
<glyph glyph-name="uni034D" unicode="&#x34d;" horiz-adv-x="1840" d="M249 -219 L469 -77 L487 36 L63 -253 L385 -552 L403 -449 L233 -307 L1497 -307 L1277 -449 L1259 -562 L1683 -273 L1361 26 L1343 -77 L1513 -219 L249 -219 Z " />
<glyph glyph-name="uni034E" unicode="&#x34e;" horiz-adv-x="808" d="M359 -532 L425 -158 L532 -353 L635 -353 L402 20 L47 -353 L160 -353 L337 -158 L271 -532 L359 -532 Z " />
<glyph glyph-name="tonos" unicode="&#x384;" horiz-adv-x="446" d="M302 1094 L392 1094 L588 1434 L467 1434 L302 1094 Z " />
<glyph glyph-name="dieresistonos" unicode="&#x385;" horiz-adv-x="735" d="M573 1445 L661 1445 L857 1784 L736 1784 L573 1445 Z M353 1270 C346 1229 374 1195 415 1195 C462 1195 496 1229 503 1270 C511 1311 483 1345 442 1345 C395 1345 361 1311 353 1270 L353 1270 Z M678 1270 C671 1229 699 1195 740 1195 C787 1195 821 1229 828 1270 C836 1311 808 1345 767 1345 C720 1345 686 1311 678 1270 L678 1270 Z " />
<glyph glyph-name="Alphatonos" unicode="&#x386;" horiz-adv-x="1700" d="M497 1094 L587 1094 L783 1434 L662 1434 L497 1094 Z M1197 88 L1182 0 L1630 0 L1645 88 L1472 88 L1145 1434 L843 1434 L828 1346 L1005 1346 L256 88 L85 88 L70 0 L518 0 L533 88 L367 88 L595 475 L1282 475 L1374 88 L1197 88 Z M1261 563 L647 563 L1085 1306 L1261 563 Z " />
<glyph glyph-name="Epsilontonos" unicode="&#x388;" horiz-adv-x="1638" d="M322 1094 L412 1094 L608 1434 L487 1434 L322 1094 Z M1608 1170 L1704 1170 L1750 1434 L646 1434 L631 1346 L807 1346 L585 88 L409 88 L394 0 L1508 0 L1554 264 L1458 264 L1427 88 L681 88 L787 690 L1501 690 L1517 778 L803 778 L903 1346 L1639 1346 L1608 1170 Z " />
<glyph glyph-name="Etatonos" unicode="&#x389;" horiz-adv-x="1874" d="M252 1094 L342 1094 L538 1434 L417 1434 L252 1094 Z M336 0 L784 0 L799 88 L623 88 L729 690 L1593 690 L1487 88 L1311 88 L1296 0 L1744 0 L1759 88 L1583 88 L1805 1346 L1981 1346 L1996 1434 L1548 1434 L1533 1346 L1709 1346 L1609 778 L745 778 L845 1346 L1021 1346 L1036 1434 L588 1434 L573 1346 L749 1346 L527 88 L351 88 L336 0 Z " />
<glyph glyph-name="Iotatonos" unicode="&#x38a;" horiz-adv-x="914" d="M252 1094 L342 1094 L538 1434 L417 1434 L252 1094 Z M845 1346 L1021 1346 L1036 1434 L588 1434 L573 1346 L749 1346 L527 88 L351 88 L336 0 L784 0 L799 88 L623 88 L845 1346 Z " />
<glyph glyph-name="Omicrontonos" unicode="&#x38c;" horiz-adv-x="1723" d="M302 1094 L392 1094 L588 1434 L467 1434 L302 1094 Z M328 717 C259 304 486 -20 905 -20 C1354 -20 1674 294 1742 717 C1810 1140 1574 1454 1165 1454 C726 1454 397 1130 328 717 L328 717 Z M430 717 C492 1069 781 1366 1149 1366 C1537 1366 1700 1069 1640 717 C1578 355 1308 68 920 68 C532 68 368 365 430 717 L430 717 Z " />
<glyph glyph-name="Upsilontonos" unicode="&#x38e;" horiz-adv-x="1839" d="M262 1094 L352 1094 L548 1434 L427 1434 L262 1094 Z M841 88 L826 0 L1274 0 L1289 88 L1113 88 L1200 581 L1837 1346 L2006 1346 L2021 1434 L1573 1434 L1558 1346 L1712 1346 L1161 681 L847 1346 L1016 1346 L1031 1434 L583 1434 L568 1346 L736 1346 L1104 581 L1017 88 L841 88 Z " />
<glyph glyph-name="Omegatonos" unicode="&#x38f;" horiz-adv-x="1676" d="M302 1094 L392 1094 L588 1434 L467 1434 L302 1094 Z M1131 1366 C1468 1366 1664 1122 1604 780 C1541 422 1274 226 986 79 L973 0 L1563 0 L1609 264 L1513 264 L1482 88 L1141 88 C1288 169 1630 361 1704 780 C1772 1164 1537 1454 1137 1454 C737 1454 420 1164 352 780 C278 361 568 169 687 88 L330 88 L361 264 L265 264 L219 0 L809 0 L822 79 C586 226 389 422 452 780 C512 1122 794 1366 1131 1366 L1131 1366 Z " />
<glyph glyph-name="iotadieresistonos" unicode="&#x390;" horiz-adv-x="607" d="M505 1445 L593 1445 L789 1784 L668 1784 L505 1445 Z M294 191 C286 142 258 0 412 0 L454 0 L467 78 L425 78 C366 78 378 144 386 191 L527 990 L257 990 L243 912 L421 912 L294 191 Z M285 1270 C278 1229 306 1195 347 1195 C394 1195 428 1229 435 1270 C443 1311 415 1345 374 1345 C327 1345 293 1311 285 1270 L285 1270 Z M610 1270 C603 1229 631 1195 672 1195 C719 1195 753 1229 760 1270 C768 1311 740 1345 699 1345 C652 1345 618 1311 610 1270 L610 1270 Z " />
<glyph glyph-name="Alpha" unicode="&#x391;" horiz-adv-x="1700" d="M1197 88 L1182 0 L1630 0 L1645 88 L1472 88 L1145 1434 L843 1434 L828 1346 L1005 1346 L256 88 L85 88 L70 0 L518 0 L533 88 L367 88 L595 475 L1282 475 L1374 88 L1197 88 Z M1261 563 L647 563 L1085 1306 L1261 563 Z " />
<glyph glyph-name="Beta" unicode="&#x392;" horiz-adv-x="1475" d="M881 0 C1261 0 1403 201 1435 399 C1460 556 1411 695 1231 753 C1393 811 1473 940 1495 1072 C1523 1239 1441 1434 1113 1434 L382 1434 L367 1346 L542 1346 L321 88 L145 88 L130 0 L881 0 Z M417 88 L527 710 L1066 710 C1321 710 1361 558 1333 399 C1305 239 1181 88 896 88 L417 88 Z M542 798 L639 1346 L1098 1346 C1353 1346 1420 1230 1393 1072 C1368 924 1256 798 1081 798 L542 798 Z " />
<glyph glyph-name="Gamma" unicode="&#x393;" horiz-adv-x="1364" d="M130 0 L578 0 L593 88 L417 88 L639 1346 L1375 1346 L1344 1170 L1440 1170 L1486 1434 L382 1434 L367 1346 L543 1346 L321 88 L145 88 L130 0 Z " />
<glyph glyph-name="uni0394" unicode="&#x394;" horiz-adv-x="1700" d="M1630 0 L1645 88 L1472 88 L1145 1434 L843 1434 L828 1346 L1005 1346 L256 88 L85 88 L70 0 L1630 0 Z M1085 1306 L1374 88 L367 88 L1085 1306 Z " />
<glyph glyph-name="Epsilon" unicode="&#x395;" horiz-adv-x="1374" d="M1344 1170 L1440 1170 L1486 1434 L382 1434 L367 1346 L543 1346 L321 88 L145 88 L130 0 L1244 0 L1290 264 L1194 264 L1163 88 L417 88 L523 690 L1237 690 L1253 778 L539 778 L639 1346 L1375 1346 L1344 1170 Z " />
<glyph glyph-name="Zeta" unicode="&#x396;" horiz-adv-x="1324" d="M130 0 L1194 0 L1240 264 L1144 264 L1113 88 L291 88 L1437 1380 L1446 1434 L430 1434 L384 1170 L480 1170 L511 1346 L1284 1346 L139 54 L130 0 Z " />
<glyph glyph-name="Eta" unicode="&#x397;" horiz-adv-x="1668" d="M130 0 L578 0 L593 88 L417 88 L523 690 L1387 690 L1281 88 L1105 88 L1090 0 L1538 0 L1553 88 L1377 88 L1599 1346 L1775 1346 L1790 1434 L1342 1434 L1327 1346 L1503 1346 L1403 778 L539 778 L639 1346 L815 1346 L830 1434 L382 1434 L367 1346 L543 1346 L321 88 L145 88 L130 0 Z " />
<glyph glyph-name="Theta" unicode="&#x398;" horiz-adv-x="1629" d="M601 674 L1266 674 L1282 762 L617 762 L601 674 Z M234 717 C165 304 392 -20 811 -20 C1260 -20 1580 294 1648 717 C1716 1140 1480 1454 1071 1454 C632 1454 303 1130 234 717 L234 717 Z M336 717 C398 1069 687 1366 1055 1366 C1443 1366 1606 1069 1546 717 C1484 355 1214 68 826 68 C438 68 274 365 336 717 L336 717 Z " />
<glyph glyph-name="Iota" unicode="&#x399;" horiz-adv-x="708" d="M639 1346 L815 1346 L830 1434 L382 1434 L367 1346 L543 1346 L321 88 L145 88 L130 0 L578 0 L593 88 L417 88 L639 1346 Z " />
<glyph glyph-name="Kappa" unicode="&#x39a;" horiz-adv-x="1536" d="M130 0 L578 0 L593 88 L417 88 L497 539 L753 752 L1198 0 L1406 0 L1421 88 L1257 88 L827 813 L1471 1346 L1633 1346 L1648 1434 L1200 1434 L1185 1346 L1338 1346 L519 670 L639 1346 L815 1346 L830 1434 L382 1434 L367 1346 L543 1346 L321 88 L145 88 L130 0 Z " />
<glyph glyph-name="Lambda" unicode="&#x39b;" horiz-adv-x="1700" d="M1085 1306 L1374 88 L1197 88 L1182 0 L1630 0 L1645 88 L1472 88 L1145 1434 L843 1434 L828 1346 L1005 1346 L256 88 L85 88 L70 0 L518 0 L533 88 L367 88 L1085 1306 Z " />
<glyph glyph-name="Mu" unicode="&#x39c;" horiz-adv-x="1990" d="M130 0 L578 0 L593 88 L417 88 L631 1302 L950 0 L1040 0 L1817 1302 L1603 88 L1427 88 L1412 0 L1860 0 L1875 88 L1699 88 L1921 1346 L2097 1346 L2112 1434 L1790 1434 L1013 132 L694 1434 L382 1434 L367 1346 L543 1346 L321 88 L145 88 L130 0 Z " />
<glyph glyph-name="Nu" unicode="&#x39d;" horiz-adv-x="1678" d="M145 88 L130 0 L578 0 L593 88 L418 88 L632 1302 L1263 0 L1373 0 L1609 1346 L1785 1346 L1800 1434 L1352 1434 L1337 1346 L1513 1346 L1300 132 L669 1434 L382 1434 L367 1346 L543 1346 L322 88 L145 88 Z " />
<glyph glyph-name="Xi" unicode="&#x39e;" horiz-adv-x="1183" d="M347 1346 L1310 1346 L1325 1434 L362 1434 L347 1346 Z M110 0 L1073 0 L1088 88 L125 88 L110 0 Z M350 690 L1075 690 L1091 778 L366 778 L350 690 Z " />
<glyph glyph-name="Omicron" unicode="&#x39f;" horiz-adv-x="1629" d="M234 717 C165 304 392 -20 811 -20 C1260 -20 1580 294 1648 717 C1716 1140 1480 1454 1071 1454 C632 1454 303 1130 234 717 L234 717 Z M336 717 C398 1069 687 1366 1055 1366 C1443 1366 1606 1069 1546 717 C1484 355 1214 68 826 68 C438 68 274 365 336 717 L336 717 Z " />
<glyph glyph-name="Pi" unicode="&#x3a0;" horiz-adv-x="1668" d="M1503 1346 L1281 88 L1105 88 L1090 0 L1538 0 L1553 88 L1377 88 L1599 1346 L1775 1346 L1790 1434 L382 1434 L367 1346 L543 1346 L321 88 L145 88 L130 0 L578 0 L593 88 L417 88 L639 1346 L1503 1346 Z " />
<glyph glyph-name="Rho" unicode="&#x3a1;" horiz-adv-x="1442" d="M145 88 L130 0 L578 0 L593 88 L417 88 L506 590 L1002 590 C1238 590 1465 731 1512 1012 C1557 1281 1366 1434 1150 1434 L382 1434 L367 1346 L542 1346 L321 88 L145 88 Z M1135 1346 C1337 1346 1449 1221 1412 1012 C1375 803 1219 678 1017 678 L521 678 L639 1346 L1135 1346 Z " />
<glyph glyph-name="Sigma" unicode="&#x3a3;" horiz-adv-x="1257" d="M130 0 L1127 0 L1173 264 L1077 264 L1046 88 L310 88 L883 710 L526 1346 L1268 1346 L1237 1170 L1333 1170 L1379 1434 L391 1434 L383 1386 L762 725 L138 49 L130 0 Z " />
<glyph glyph-name="Tau" unicode="&#x3a4;" horiz-adv-x="1436" d="M1003 1346 L1447 1346 L1416 1170 L1512 1170 L1558 1434 L382 1434 L336 1170 L432 1170 L463 1346 L907 1346 L685 88 L509 88 L494 0 L942 0 L957 88 L781 88 L1003 1346 Z " />
<glyph glyph-name="Upsilon" unicode="&#x3a5;" horiz-adv-x="1578" d="M580 88 L565 0 L1013 0 L1028 88 L852 88 L939 581 L1576 1346 L1745 1346 L1760 1434 L1312 1434 L1297 1346 L1451 1346 L900 681 L586 1346 L755 1346 L770 1434 L322 1434 L307 1346 L475 1346 L843 581 L756 88 L580 88 Z " />
<glyph glyph-name="Phi" unicode="&#x3a6;" horiz-adv-x="1500" d="M917 1224 C566 1222 286 1068 234 717 C184 382 392 212 738 210 L717 88 L541 88 L526 0 L974 0 L989 88 L813 88 L835 210 C1186 212 1466 366 1518 717 C1568 1052 1360 1222 1013 1224 L1035 1346 L1211 1346 L1226 1434 L778 1434 L763 1346 L939 1346 L917 1224 Z M334 717 C388 1020 622 1127 902 1136 L754 298 C478 307 281 414 334 717 L334 717 Z M1418 717 C1364 414 1130 307 850 298 L998 1136 C1274 1127 1471 1020 1418 717 L1418 717 Z " />
<glyph glyph-name="Chi" unicode="&#x3a7;" horiz-adv-x="1574" d="M925 822 L587 1434 L375 1434 L360 1346 L526 1346 L860 752 L251 88 L85 88 L70 0 L518 0 L533 88 L373 88 L913 683 L1292 0 L1504 0 L1519 88 L1353 88 L978 752 L1522 1346 L1688 1346 L1703 1434 L1255 1434 L1240 1346 L1400 1346 L925 822 Z " />
<glyph glyph-name="Psi" unicode="&#x3a8;" horiz-adv-x="1712" d="M994 515 C1322 524 1575 719 1705 1346 L1879 1346 L1894 1434 L1621 1434 C1529 911 1359 616 1010 603 L1141 1346 L1317 1346 L1332 1434 L884 1434 L869 1346 L1045 1346 L914 603 C569 616 503 911 595 1434 L322 1434 L307 1346 L480 1346 C389 719 608 538 898 515 L823 88 L647 88 L632 0 L1080 0 L1095 88 L919 88 L994 515 Z " />
<glyph glyph-name="uni03A9" unicode="&#x3a9;" horiz-adv-x="1571" d="M1026 1366 C1363 1366 1559 1122 1499 780 C1436 422 1169 226 881 79 L868 0 L1458 0 L1504 264 L1408 264 L1377 88 L1036 88 C1183 169 1525 361 1599 780 C1667 1164 1432 1454 1032 1454 C632 1454 315 1164 247 780 C173 361 463 169 582 88 L225 88 L256 264 L160 264 L114 0 L704 0 L717 79 C481 226 284 422 347 780 C407 1122 689 1366 1026 1366 L1026 1366 Z " />
<glyph glyph-name="Iotadieresis" unicode="&#x3aa;" horiz-adv-x="652" d="M103 0 L551 0 L566 88 L390 88 L612 1346 L788 1346 L803 1434 L355 1434 L340 1346 L516 1346 L294 88 L118 88 L103 0 Z M374 1631 C367 1590 395 1556 436 1556 C483 1556 517 1590 524 1631 C532 1672 504 1706 463 1706 C416 1706 382 1672 374 1631 L374 1631 Z M699 1631 C692 1590 720 1556 761 1556 C808 1556 842 1590 849 1631 C857 1672 829 1706 788 1706 C741 1706 707 1672 699 1631 L699 1631 Z " />
<glyph glyph-name="Upsilondieresis" unicode="&#x3ab;" horiz-adv-x="1578" d="M580 88 L565 0 L1013 0 L1028 88 L852 88 L939 581 L1576 1346 L1745 1346 L1760 1434 L1312 1434 L1297 1346 L1451 1346 L900 681 L586 1346 L755 1346 L770 1434 L322 1434 L307 1346 L475 1346 L843 581 L756 88 L580 88 Z M839 1631 C832 1590 860 1556 901 1556 C948 1556 982 1590 989 1631 C997 1672 969 1706 928 1706 C881 1706 847 1672 839 1631 L839 1631 Z M1164 1631 C1157 1590 1185 1556 1226 1556 C1273 1556 1307 1590 1314 1631 C1322 1672 1294 1706 1253 1706 C1206 1706 1172 1672 1164 1631 L1164 1631 Z " />
</font>
</svg>
