<?xml version="1.0" encoding="UTF-8"?>
<svg xmlns="http://www.w3.org/2000/svg" xmlns:xlink="http://www.w3.org/1999/xlink" version="1.2" >
<font id="Artegra Slab ExtraLight">
<font-face  font-family="Artegra Slab" units-per-em="2048" ascent="1516" descent="-532" font-style="normal" font-weight="100" font-stretch="normal" cap-height="1434" x-height="990" underline-position="-154" underline-thickness="102" />
<missing-glyph  horiz-adv-x="922" d="" />
<glyph glyph-name="NULL" d="" />
<glyph glyph-name="CR" unicode="&#xd;" horiz-adv-x="922" d="" />
<glyph glyph-name="space" unicode="&#x20;" horiz-adv-x="573" d="" />
<glyph glyph-name="exclam" unicode="&#x21;" horiz-adv-x="494" d="M204 300 L290 300 L295 1434 L199 1434 L204 300 Z M170 67 C170 24 204 -10 247 -10 C290 -10 324 24 324 67 C324 110 290 144 247 144 C204 144 170 110 170 67 L170 67 Z " />
<glyph glyph-name="quotedbl" unicode="&#x22;" horiz-adv-x="470" d="M76 1036 L160 1036 L176 1434 L60 1434 L76 1036 Z M310 1036 L395 1036 L410 1434 L294 1434 L310 1036 Z " />
<glyph glyph-name="numbersign" unicode="&#x23;" horiz-adv-x="1292" d="M695 0 L791 0 L861 444 L1109 444 L1109 529 L875 529 L935 905 L1182 905 L1182 990 L948 990 L1019 1434 L924 1434 L853 990 L527 990 L598 1434 L503 1434 L432 990 L185 990 L185 905 L418 905 L358 529 L110 529 L110 444 L345 444 L274 0 L370 0 L440 444 L766 444 L695 0 Z M514 905 L839 905 L779 529 L454 529 L514 905 Z " />
<glyph glyph-name="dollar" unicode="&#x24;" horiz-adv-x="1307" d="M1089 1355 C1089 1355 936 1439 698 1452 L698 1650 L608 1650 L608 1453 C298 1444 173 1284 173 1098 C173 914 292 777 649 698 C972 627 1057 519 1057 360 C1057 173 929 68 656 68 C406 68 246 157 246 157 L246 294 L150 294 L150 108 C150 108 312 -7 608 -19 L608 -216 L698 -216 L698 -19 C966 -8 1157 109 1157 360 C1157 587 1005 711 665 790 C354 862 273 957 273 1098 C273 1283 440 1366 637 1366 C856 1366 993 1303 993 1303 L993 1170 L1089 1170 L1089 1355 Z " />
<glyph glyph-name="ampersand" unicode="&#x26;" horiz-adv-x="1476" d="M1366 0 L1366 88 L1351 88 C1230 88 1078 175 1016 226 C1070 323 1110 480 1129 620 L1305 620 L1305 708 L1044 708 C1028 554 986 377 941 287 C792 407 633 587 519 738 L690 858 C822 951 863 1069 863 1167 C863 1342 760 1454 566 1454 C382 1454 258 1340 258 1120 C258 1004 308 883 389 762 C283 675 110 571 110 330 C110 88 310 -20 539 -20 C691 -20 850 34 962 148 C1068 66 1203 0 1352 0 L1366 0 Z M210 330 C210 540 384 638 443 684 C567 523 740 337 889 210 C805 121 677 68 539 68 C365 68 210 149 210 330 L210 330 Z M467 814 C402 914 352 1029 352 1120 C352 1304 459 1365 566 1365 C705 1365 771 1286 771 1167 C771 1093 733 999 631 928 L467 814 Z " />
<glyph glyph-name="quotesingle" unicode="&#x27;" horiz-adv-x="236" d="M76 1036 L161 1036 L176 1434 L60 1434 L76 1036 Z " />
<glyph glyph-name="parenleft" unicode="&#x28;" horiz-adv-x="748" d="M658 -233 C658 -233 226 -139 226 590 C226 1318 658 1413 658 1413 L628 1495 C628 1495 130 1392 130 590 C130 -213 628 -315 628 -315 L658 -233 Z " />
<glyph glyph-name="parenright" unicode="&#x29;" horiz-adv-x="748" d="M120 -315 C120 -315 618 -213 618 590 C618 1392 120 1495 120 1495 L90 1413 C90 1413 522 1318 522 590 C522 -139 90 -233 90 -233 L120 -315 Z " />
<glyph glyph-name="asterisk" unicode="&#x2a;" horiz-adv-x="884" d="M611 761 L685 817 L502 1052 L794 1146 L765 1230 L484 1140 L485 1434 L399 1434 L400 1140 L119 1230 L90 1146 L382 1052 L199 817 L273 761 L442 995 L611 761 Z " />
<glyph glyph-name="plus" unicode="&#x2b;" horiz-adv-x="1150" d="M1040 753 L622 753 L622 1173 L528 1173 L528 753 L110 753 L110 663 L528 663 L528 243 L622 243 L622 663 L1040 663 L1040 753 Z " />
<glyph glyph-name="comma" unicode="&#x2c;" horiz-adv-x="465" d="M90 -211 L174 -211 L355 186 L242 186 L90 -211 Z " />
<glyph glyph-name="hyphen" unicode="&#x2d;" horiz-adv-x="836" d="M110 499 L726 499 L726 589 L110 589 L110 499 Z " />
<glyph glyph-name="period" unicode="&#x2e;" horiz-adv-x="374" d="M110 67 C110 24 144 -10 187 -10 C230 -10 264 24 264 67 C264 110 230 144 187 144 C144 144 110 110 110 67 L110 67 Z " />
<glyph glyph-name="slash" unicode="&#x2f;" horiz-adv-x="1019" d="M130 0 L230 0 L889 1434 L789 1434 L130 0 Z " />
<glyph glyph-name="zero" unicode="0" horiz-adv-x="1304" d="M652 -20 C1032 -20 1194 319 1194 717 C1194 1114 1032 1454 652 1454 C272 1454 110 1114 110 717 C110 319 272 -20 652 -20 L652 -20 Z M652 68 C338 68 209 370 209 717 C209 1064 338 1366 652 1366 C966 1366 1095 1064 1095 717 C1095 370 966 68 652 68 L652 68 Z " />
<glyph glyph-name="one" unicode="1" horiz-adv-x="752" d="M370 1285 L370 88 L194 88 L194 0 L642 0 L642 88 L466 88 L466 1434 L391 1434 L60 1131 L126 1060 L370 1285 Z " />
<glyph glyph-name="two" unicode="2" horiz-adv-x="1176" d="M246 1127 C273 1194 357 1366 598 1366 C825 1366 922 1254 922 1091 C922 954 847 863 732 732 C672 665 130 76 130 76 L130 0 L1046 0 L1046 264 L950 264 L950 88 L268 88 C268 88 749 611 796 664 C921 806 1019 918 1019 1091 C1019 1323 857 1454 598 1454 C278 1454 181 1224 157 1159 L246 1127 Z " />
<glyph glyph-name="three" unicode="3" horiz-adv-x="1142" d="M140 1235 L140 1085 L236 1085 L236 1211 C251 1241 328 1366 556 1366 C782 1366 899 1248 899 1082 C899 835 648 782 461 782 L461 696 C702 696 934 641 934 390 C934 168 795 68 556 68 C303 68 221 194 206 223 L206 349 L110 349 L110 199 C110 199 177 -20 556 -20 C826 -20 1032 105 1032 390 C1032 640 833 722 712 746 C783 763 997 834 997 1082 C997 1313 818 1454 556 1454 C216 1454 140 1235 140 1235 L140 1235 Z " />
<glyph glyph-name="four" unicode="4" horiz-adv-x="1286" d="M856 401 L856 88 L680 88 L680 0 L1128 0 L1128 88 L952 88 L952 401 L1176 401 L1176 489 L952 489 L952 1434 L856 1434 L130 480 L130 401 L856 401 Z M257 489 L856 1276 L856 489 L257 489 Z " />
<glyph glyph-name="five" unicode="5" horiz-adv-x="1178" d="M960 1434 L194 1434 L153 689 C153 689 315 823 582 823 C858 823 948 642 948 444 C948 248 858 68 582 68 C405 68 288 131 226 177 L226 320 L130 320 L130 139 C173 96 313 -20 582 -20 C905 -20 1048 191 1048 444 C1048 699 905 911 582 911 C408 911 299 862 256 839 L281 1346 L960 1346 L960 1434 Z " />
<glyph glyph-name="six" unicode="6" horiz-adv-x="1226" d="M966 1416 C391 1596 72 1141 139 457 C152 328 215 -20 618 -20 C994 -20 1096 262 1096 459 C1096 655 994 938 618 938 C446 938 281 860 219 679 C238 1168 491 1446 870 1350 L870 1235 L966 1235 L966 1416 Z M1000 459 C1000 259 894 68 618 68 C340 68 235 259 235 459 C235 658 340 850 618 850 C894 850 1000 658 1000 459 L1000 459 Z " />
<glyph glyph-name="seven" unicode="7" horiz-adv-x="1172" d="M258 88 L258 0 L706 0 L706 88 L529 88 L1042 1364 L1042 1434 L130 1434 L130 1170 L226 1170 L226 1346 L931 1346 L425 88 L258 88 Z " />
<glyph glyph-name="eight" unicode="8" horiz-adv-x="1212" d="M606 1454 C358 1454 149 1314 149 1075 C149 910 251 802 382 750 C233 704 110 577 110 389 C110 106 360 -20 606 -20 C852 -20 1102 106 1102 389 C1102 577 979 704 830 750 C961 802 1063 910 1063 1075 C1063 1314 854 1454 606 1454 L606 1454 Z M1002 389 C1002 180 822 68 606 68 C390 68 210 180 210 389 C210 592 384 707 606 707 C828 707 1002 592 1002 389 L1002 389 Z M606 1366 C790 1366 963 1265 963 1075 C963 885 790 787 606 787 C422 787 249 885 249 1075 C249 1265 422 1366 606 1366 L606 1366 Z " />
<glyph glyph-name="nine" unicode="9" horiz-adv-x="1226" d="M260 18 C835 -162 1154 293 1087 977 C1074 1106 1011 1454 608 1454 C232 1454 130 1172 130 975 C130 779 232 496 608 496 C780 496 945 574 1007 755 C988 266 735 -12 356 84 L356 199 L260 199 L260 18 Z M226 975 C226 1175 332 1366 608 1366 C886 1366 991 1175 991 975 C991 776 886 584 608 584 C332 584 226 776 226 975 L226 975 Z " />
<glyph glyph-name="colon" unicode="&#x3a;" horiz-adv-x="374" d="M110 67 C110 24 144 -10 187 -10 C230 -10 264 24 264 67 C264 110 230 144 187 144 C144 144 110 110 110 67 L110 67 Z M110 923 C110 880 144 846 187 846 C230 846 264 880 264 923 C264 966 230 1000 187 1000 C144 1000 110 966 110 923 L110 923 Z " />
<glyph glyph-name="semicolon" unicode="&#x3b;" horiz-adv-x="396" d="M10 -211 L94 -211 L275 186 L162 186 L10 -211 Z M132 923 C132 880 166 846 209 846 C252 846 286 880 286 923 C286 966 252 1000 209 1000 C166 1000 132 966 132 923 L132 923 Z " />
<glyph glyph-name="less" unicode="&#x3c;" horiz-adv-x="1146" d="M110 639 L110 579 L1016 113 L1016 212 L250 609 L1016 1006 L1016 1105 L110 639 Z " />
<glyph glyph-name="equal" unicode="&#x3d;" horiz-adv-x="993" d="M110 518 L883 518 L883 606 L110 606 L110 518 Z M110 808 L883 808 L883 896 L110 896 L110 808 Z " />
<glyph glyph-name="greater" unicode="&#x3e;" horiz-adv-x="1146" d="M130 1105 L130 1006 L896 609 L130 212 L130 113 L1036 579 L1036 639 L130 1105 Z " />
<glyph glyph-name="question" unicode="&#x3f;" horiz-adv-x="1070" d="M412 67 C412 24 446 -10 489 -10 C532 -10 566 24 566 67 C566 110 532 144 489 144 C446 144 412 110 412 67 L412 67 Z M168 1162 C215 1252 326 1366 524 1366 C766 1366 884 1242 884 1069 C884 830 684 739 442 734 L442 300 L536 300 L536 666 C907 705 980 919 980 1069 C980 1239 866 1454 524 1454 C270 1454 134 1307 90 1209 L168 1162 Z " />
<glyph glyph-name="at" unicode="&#x40;" horiz-adv-x="1646" d="M1290 27 C1167 -81 985 -132 823 -132 C449 -132 210 132 210 517 C210 902 449 1166 823 1166 C1197 1166 1436 902 1436 517 C1436 379 1391 289 1269 289 C1161 289 1112 388 1116 522 C1119 625 1127 729 1133 837 C1053 880 965 904 866 904 C733 904 482 834 440 517 C413 321 519 123 749 123 C937 123 1035 306 1055 415 C1058 356 1104 200 1269 201 C1452 202 1536 332 1536 517 C1536 954 1237 1254 823 1254 C409 1254 110 954 110 517 C110 79 409 -220 823 -220 C1013 -220 1212 -174 1357 -42 L1290 27 Z M867 816 C927 816 1010 804 1041 789 C1041 789 1033 656 1020 561 C994 332 886 209 751 209 C588 209 520 354 538 517 C570 759 753 820 867 816 L867 816 Z " />
<glyph glyph-name="A" unicode="A" horiz-adv-x="1700" d="M591 1434 L591 1346 L768 1346 L242 88 L70 88 L70 0 L518 0 L518 88 L346 88 L506 475 L1193 475 L1353 88 L1182 88 L1182 0 L1630 0 L1630 88 L1458 88 L895 1434 L591 1434 Z M850 1306 L1157 563 L543 563 L850 1306 Z " />
<glyph glyph-name="B" unicode="B" horiz-adv-x="1475" d="M130 0 L881 0 C1251 0 1365 201 1365 399 C1365 596 1258 709 1098 757 C1240 805 1306 920 1306 1072 C1306 1251 1189 1434 861 1434 L130 1434 L130 1346 L306 1346 L306 88 L130 88 L130 0 Z M402 88 L402 710 L941 710 C1156 710 1263 578 1263 399 C1263 219 1156 88 881 88 L402 88 Z M402 798 L402 1346 L861 1346 C1096 1346 1204 1240 1204 1072 C1204 904 1116 798 941 798 L402 798 Z " />
<glyph glyph-name="C" unicode="C" horiz-adv-x="1378" d="M212 717 C212 1079 419 1366 817 1366 C1028 1366 1152 1307 1152 1307 L1152 1170 L1248 1170 L1248 1363 C1248 1363 1092 1454 817 1454 C358 1454 110 1120 110 717 C110 314 358 -20 817 -20 C1040 -20 1166 30 1248 90 L1196 160 C1130 118 1023 68 817 68 C419 68 212 355 212 717 L212 717 Z " />
<glyph glyph-name="D" unicode="D" horiz-adv-x="1506" d="M130 0 L713 0 C1212 0 1416 303 1416 717 C1416 1130 1212 1434 713 1434 L130 1434 L130 1346 L306 1346 L306 88 L130 88 L130 0 Z M713 1346 C1171 1346 1314 1068 1314 717 C1314 366 1171 88 713 88 L402 88 L402 1346 L713 1346 Z " />
<glyph glyph-name="E" unicode="E" horiz-adv-x="1374" d="M1138 1170 L1234 1170 L1234 1434 L130 1434 L130 1346 L306 1346 L306 88 L130 88 L130 0 L1244 0 L1244 264 L1148 264 L1148 88 L402 88 L402 690 L1116 690 L1116 778 L402 778 L402 1346 L1138 1346 L1138 1170 Z " />
<glyph glyph-name="F" unicode="F" horiz-adv-x="1364" d="M578 88 L402 88 L402 690 L1116 690 L1116 778 L402 778 L402 1346 L1138 1346 L1138 1170 L1234 1170 L1234 1434 L130 1434 L130 1346 L306 1346 L306 88 L130 88 L130 0 L578 0 L578 88 Z " />
<glyph glyph-name="G" unicode="G" horiz-adv-x="1477" d="M817 68 C409 68 212 365 212 717 C212 1069 409 1366 817 1366 C1088 1366 1240 1291 1240 1291 L1240 1170 L1336 1170 L1336 1341 C1336 1341 1156 1454 817 1454 C358 1454 110 1120 110 717 C110 314 358 -20 817 -20 C990 -20 1200 20 1347 146 L1347 771 L858 771 L858 681 L1251 681 L1251 192 C1150 110 962 68 817 68 L817 68 Z " />
<glyph glyph-name="H" unicode="H" horiz-adv-x="1668" d="M130 0 L578 0 L578 88 L402 88 L402 690 L1266 690 L1266 88 L1090 88 L1090 0 L1538 0 L1538 88 L1362 88 L1362 1346 L1538 1346 L1538 1434 L1090 1434 L1090 1346 L1266 1346 L1266 778 L402 778 L402 1346 L578 1346 L578 1434 L130 1434 L130 1346 L306 1346 L306 88 L130 88 L130 0 Z " />
<glyph glyph-name="I" unicode="I" horiz-adv-x="708" d="M130 0 L578 0 L578 88 L402 88 L402 1346 L578 1346 L578 1434 L130 1434 L130 1346 L306 1346 L306 88 L130 88 L130 0 Z " />
<glyph glyph-name="J" unicode="J" horiz-adv-x="1167" d="M90 192 C148 60 266 -20 456 -20 C722 -20 861 123 861 432 L861 1346 L1037 1346 L1037 1434 L589 1434 L589 1346 L765 1346 L765 432 C765 212 707 68 456 68 C292 68 222 147 176 226 L90 192 Z " />
<glyph glyph-name="K" unicode="K" horiz-adv-x="1536" d="M130 0 L578 0 L578 88 L402 88 L402 539 L619 750 L1194 0 L1406 0 L1406 88 L1242 88 L684 813 L1234 1346 L1396 1346 L1396 1434 L948 1434 L948 1346 L1108 1346 L402 668 L402 1346 L578 1346 L578 1434 L130 1434 L130 1346 L306 1346 L306 88 L130 88 L130 0 Z " />
<glyph glyph-name="L" unicode="L" horiz-adv-x="1285" d="M130 0 L1155 0 L1155 264 L1059 264 L1059 88 L402 88 L402 1346 L578 1346 L578 1434 L130 1434 L130 1346 L306 1346 L306 88 L130 88 L130 0 Z " />
<glyph glyph-name="M" unicode="M" horiz-adv-x="1990" d="M130 0 L578 0 L578 88 L402 88 L402 1302 L950 0 L1040 0 L1588 1302 L1588 88 L1412 88 L1412 0 L1860 0 L1860 88 L1684 88 L1684 1346 L1860 1346 L1860 1434 L1543 1434 L995 132 L447 1434 L130 1434 L130 1346 L306 1346 L306 88 L130 88 L130 0 Z " />
<glyph glyph-name="N" unicode="N" horiz-adv-x="1678" d="M130 0 L578 0 L578 88 L402 88 L402 1302 L1254 0 L1372 0 L1372 1346 L1548 1346 L1548 1434 L1100 1434 L1100 1346 L1276 1346 L1276 132 L424 1434 L130 1434 L130 1346 L306 1346 L306 88 L130 88 L130 0 Z " />
<glyph glyph-name="O" unicode="O" horiz-adv-x="1634" d="M110 717 C110 314 358 -20 817 -20 C1276 -20 1524 314 1524 717 C1524 1120 1276 1454 817 1454 C358 1454 110 1120 110 717 L110 717 Z M212 717 C212 1069 409 1366 817 1366 C1225 1366 1422 1069 1422 717 C1422 365 1225 68 817 68 C409 68 212 365 212 717 L212 717 Z " />
<glyph glyph-name="P" unicode="P" horiz-adv-x="1444" d="M130 0 L578 0 L578 88 L402 88 L402 590 L898 590 C1154 590 1334 743 1334 1012 C1334 1281 1154 1434 898 1434 L130 1434 L130 1346 L306 1346 L306 88 L130 88 L130 0 Z M898 1346 C1110 1346 1234 1221 1234 1012 C1234 803 1110 678 898 678 L402 678 L402 1346 L898 1346 Z " />
<glyph glyph-name="Q" unicode="Q" horiz-adv-x="1634" d="M110 717 C110 314 358 -20 817 -20 C958 -20 1079 11 1179 67 L1296 -70 L1420 -70 L1255 117 C1431 251 1524 471 1524 717 C1524 1120 1276 1454 817 1454 C358 1454 110 1120 110 717 L110 717 Z M212 717 C212 1069 409 1366 817 1366 C1225 1366 1422 1069 1422 717 C1422 500 1347 304 1194 186 L1053 346 L943 346 L1120 137 C1036 93 936 68 817 68 C409 68 212 365 212 717 L212 717 Z " />
<glyph glyph-name="R" unicode="R" horiz-adv-x="1474" d="M130 0 L578 0 L578 88 L402 88 L402 630 L826 630 L1134 0 L1364 0 L1364 88 L1193 88 L928 630 C1177 636 1324 816 1324 1032 C1324 1248 1195 1434 938 1434 L130 1434 L130 1346 L306 1346 L306 88 L130 88 L130 0 Z M938 1346 C1140 1346 1224 1194 1224 1032 C1224 870 1140 718 938 718 L402 718 L402 1346 L938 1346 Z " />
<glyph glyph-name="S" unicode="S" horiz-adv-x="1307" d="M1089 1355 C1089 1355 910 1454 637 1454 C306 1454 173 1290 173 1098 C173 914 292 777 649 698 C972 627 1057 519 1057 360 C1057 173 929 68 656 68 C406 68 246 157 246 157 L246 294 L150 294 L150 108 C150 108 330 -20 656 -20 C946 -20 1157 96 1157 360 C1157 587 1005 711 665 790 C354 862 273 957 273 1098 C273 1283 440 1366 637 1366 C856 1366 993 1303 993 1303 L993 1170 L1089 1170 L1089 1355 Z " />
<glyph glyph-name="T" unicode="T" horiz-adv-x="1436" d="M766 1346 L1210 1346 L1210 1170 L1306 1170 L1306 1434 L130 1434 L130 1170 L226 1170 L226 1346 L670 1346 L670 88 L494 88 L494 0 L942 0 L942 88 L766 88 L766 1346 Z " />
<glyph glyph-name="U" unicode="U" horiz-adv-x="1692" d="M1386 571 L1386 1346 L1562 1346 L1562 1434 L1114 1434 L1114 1346 L1290 1346 L1290 571 C1290 255 1129 68 846 68 C563 68 402 255 402 571 L402 1346 L578 1346 L578 1434 L130 1434 L130 1346 L306 1346 L306 571 C306 183 520 -20 846 -20 C1172 -20 1386 183 1386 571 L1386 571 Z " />
<glyph glyph-name="V" unicode="V" horiz-adv-x="1662" d="M786 0 L876 0 L1420 1346 L1592 1346 L1592 1434 L1144 1434 L1144 1346 L1316 1346 L831 128 L346 1346 L518 1346 L518 1434 L70 1434 L70 1346 L241 1346 L786 0 Z " />
<glyph glyph-name="W" unicode="W" horiz-adv-x="2252" d="M1493 0 L1590 0 L2007 1346 L2182 1346 L2182 1434 L1734 1434 L1734 1346 L1908 1346 L1543 148 L1186 1434 L1066 1434 L709 148 L344 1346 L518 1346 L518 1434 L70 1434 L70 1346 L245 1346 L662 0 L759 0 L1126 1317 L1493 0 Z " />
<glyph glyph-name="X" unicode="X" horiz-adv-x="1574" d="M787 822 L341 1434 L123 1434 L123 1346 L289 1346 L728 752 L236 88 L70 88 L70 0 L518 0 L518 88 L352 88 L787 683 L1286 0 L1504 0 L1504 88 L1338 88 L846 752 L1285 1346 L1451 1346 L1451 1434 L1003 1434 L1003 1346 L1169 1346 L787 822 Z " />
<glyph glyph-name="Y" unicode="Y" horiz-adv-x="1578" d="M741 581 L741 88 L565 88 L565 0 L1013 0 L1013 88 L837 88 L837 581 L1339 1346 L1508 1346 L1508 1434 L1060 1434 L1060 1346 L1228 1346 L789 681 L350 1346 L518 1346 L518 1434 L70 1434 L70 1346 L239 1346 L741 581 Z " />
<glyph glyph-name="Z" unicode="Z" horiz-adv-x="1322" d="M1192 1434 L176 1434 L176 1170 L272 1170 L272 1346 L1052 1346 L130 54 L130 0 L1192 0 L1192 264 L1096 264 L1096 88 L269 88 L1192 1380 L1192 1434 Z " />
<glyph glyph-name="bracketleft" unicode="&#x5b;" horiz-adv-x="698" d="M256 1346 L578 1346 L578 1434 L160 1434 L160 -323 L578 -323 L578 -235 L256 -235 L256 1346 Z " />
<glyph glyph-name="backslash" unicode="&#x5c;" horiz-adv-x="1019" d="M230 1434 L130 1434 L789 0 L889 0 L230 1434 Z " />
<glyph glyph-name="bracketright" unicode="&#x5d;" horiz-adv-x="698" d="M442 -235 L120 -235 L120 -323 L538 -323 L538 1434 L120 1434 L120 1346 L442 1346 L442 -235 Z " />
<glyph glyph-name="asciicircum" unicode="&#x5e;" horiz-adv-x="948" d="M504 1434 L444 1434 L110 880 L209 880 L474 1299 L739 880 L838 880 L504 1434 Z " />
<glyph glyph-name="underscore" unicode="&#x5f;" horiz-adv-x="1153" d="M130 -229 L1023 -229 L1023 -141 L130 -141 L130 -229 Z " />
<glyph glyph-name="grave" unicode="&#x60;" horiz-adv-x="538" d="M226 1434 L90 1434 L344 1163 L448 1163 L226 1434 Z " />
<glyph glyph-name="a" unicode="a" horiz-adv-x="1209" d="M556 932 C826 932 829 770 829 630 C552 656 90 633 90 293 C90 87 240 -20 464 -20 C658 -20 772 78 829 218 L829 0 L1099 0 L1099 78 L921 78 L921 592 C921 770 916 1010 556 1010 C416 1010 283 979 190 924 L229 852 C309 902 456 932 556 932 L556 932 Z M186 293 C186 548 575 577 829 557 L829 429 C829 262 708 68 464 68 C281 68 186 157 186 293 L186 293 Z " />
<glyph glyph-name="b" unicode="b" horiz-adv-x="1340" d="M380 0 L380 229 C439 91 580 -20 767 -20 C1057 -20 1250 191 1250 495 C1250 799 1057 1010 767 1010 C580 1010 439 899 380 761 L380 1516 L110 1516 L110 1438 L288 1438 L288 0 L380 0 Z M767 932 C1023 932 1154 720 1154 495 C1154 270 1023 58 767 58 C511 58 380 270 380 495 C380 720 511 932 767 932 L767 932 Z " />
<glyph glyph-name="c" unicode="c" horiz-adv-x="1063" d="M953 736 L953 918 C953 918 818 1010 596 1010 C294 1010 90 797 90 495 C90 193 294 -20 596 -20 C742 -20 855 6 953 85 L902 149 C816 84 717 58 596 58 C341 58 184 248 184 495 C184 742 341 932 596 932 C766 932 861 872 861 872 L861 736 L953 736 Z " />
<glyph glyph-name="d" unicode="d" horiz-adv-x="1340" d="M1052 78 L1052 1516 L782 1516 L782 1438 L960 1438 L960 761 C901 899 760 1010 573 1010 C283 1010 90 799 90 495 C90 191 283 -20 573 -20 C760 -20 901 91 960 229 L960 0 L1230 0 L1230 78 L1052 78 Z M573 932 C829 932 960 720 960 495 C960 270 829 58 573 58 C317 58 186 270 186 495 C186 720 317 932 573 932 L573 932 Z " />
<glyph glyph-name="e" unicode="e" horiz-adv-x="1108" d="M554 58 C311 58 198 238 187 455 L1018 455 C1018 840 806 1010 554 1010 C260 1010 90 796 90 495 C90 194 260 -20 554 -20 C778 -20 889 54 949 115 L885 174 C818 108 719 58 554 58 L554 58 Z M187 533 C198 752 311 932 554 932 C797 932 910 753 921 533 L187 533 Z " />
<glyph glyph-name="f" unicode="f" horiz-adv-x="820" d="M304 912 L304 78 L126 78 L126 0 L574 0 L574 78 L396 78 L396 912 L709 912 L709 990 L396 990 L396 1075 C396 1314 393 1458 623 1458 C665 1458 711 1451 753 1437 L780 1508 C734 1526 680 1536 623 1536 C340 1536 304 1389 304 1075 L304 990 L90 990 L90 912 L304 912 Z " />
<glyph glyph-name="g" unicode="g" horiz-adv-x="1340" d="M960 761 C901 899 760 1010 573 1010 C283 1010 90 799 90 495 C90 191 283 -20 573 -20 C760 -20 901 91 960 229 L960 0 C960 -339 805 -452 566 -452 C432 -452 320 -410 245 -358 L192 -428 C279 -498 418 -532 566 -532 C813 -532 1052 -424 1052 0 L1052 912 L1230 912 L1230 990 L960 990 L960 761 Z M573 932 C829 932 960 720 960 495 C960 270 829 58 573 58 C317 58 186 270 186 495 C186 720 317 932 573 932 L573 932 Z " />
<glyph glyph-name="h" unicode="h" horiz-adv-x="1408" d="M288 1438 L288 78 L110 78 L110 0 L558 0 L558 78 L380 78 L380 538 C380 775 473 932 704 932 C935 932 1028 775 1028 538 L1028 0 L1298 0 L1298 78 L1120 78 L1120 538 C1120 840 978 1010 704 1010 C542 1010 420 925 380 795 L380 1516 L110 1516 L110 1438 L288 1438 Z " />
<glyph glyph-name="i" unicode="i" horiz-adv-x="668" d="M288 912 L288 78 L110 78 L110 0 L558 0 L558 78 L380 78 L380 990 L110 990 L110 912 L288 912 Z M259 1270 C259 1229 293 1195 334 1195 C375 1195 409 1229 409 1270 C409 1311 375 1345 334 1345 C293 1345 259 1311 259 1270 L259 1270 Z " />
<glyph glyph-name="j" unicode="j" horiz-adv-x="473" d="M222 912 L222 -72 C222 -281 210 -454 45 -454 C-6 -454 -48 -446 -85 -431 L-110 -504 C-70 -523 -18 -532 45 -532 C264 -532 314 -366 314 -72 L314 990 L44 990 L44 912 L222 912 Z M193 1270 C193 1229 227 1195 268 1195 C309 1195 343 1229 343 1270 C343 1311 309 1345 268 1345 C227 1345 193 1311 193 1270 L193 1270 Z " />
<glyph glyph-name="k" unicode="k" horiz-adv-x="1275" d="M380 498 L380 1516 L110 1516 L110 1438 L288 1438 L288 78 L110 78 L110 0 L558 0 L558 78 L380 78 L380 388 L561 543 L967 0 L1165 0 L1165 78 L1018 78 L627 599 L993 912 L1154 912 L1154 990 L706 990 L706 912 L864 912 L380 498 Z " />
<glyph glyph-name="l" unicode="l" horiz-adv-x="668" d="M288 1438 L288 78 L110 78 L110 0 L558 0 L558 78 L380 78 L380 1516 L110 1516 L110 1438 L288 1438 Z " />
<glyph glyph-name="m" unicode="m" horiz-adv-x="2022" d="M965 512 L965 0 L1235 0 L1235 78 L1057 78 L1057 512 C1057 742 1125 932 1349 932 C1576 932 1642 742 1642 512 L1642 0 L1912 0 L1912 78 L1734 78 L1734 512 C1734 825 1610 1010 1349 1010 C1135 1010 1048 863 1023 751 C996 828 933 1010 672 1010 C511 1010 417 930 380 810 L380 990 L110 990 L110 912 L288 912 L288 78 L110 78 L110 0 L558 0 L558 78 L380 78 L380 512 C380 742 448 932 672 932 C899 932 965 742 965 512 L965 512 Z " />
<glyph glyph-name="n" unicode="n" horiz-adv-x="1408" d="M380 538 C380 775 473 932 704 932 C935 932 1028 775 1028 538 L1028 0 L1298 0 L1298 78 L1120 78 L1120 538 C1120 840 978 1010 704 1010 C542 1010 420 925 380 795 L380 990 L110 990 L110 912 L288 912 L288 78 L110 78 L110 0 L558 0 L558 78 L380 78 L380 538 Z " />
<glyph glyph-name="o" unicode="o" horiz-adv-x="1192" d="M90 495 C90 193 294 -20 596 -20 C898 -20 1102 193 1102 495 C1102 797 898 1010 596 1010 C292 1010 90 796 90 495 L90 495 Z M184 495 C184 742 341 932 596 932 C850 932 1008 742 1008 495 C1008 248 850 58 596 58 C341 58 184 248 184 495 L184 495 Z " />
<glyph glyph-name="p" unicode="p" horiz-adv-x="1340" d="M288 912 L288 -454 L110 -454 L110 -532 L558 -532 L558 -454 L380 -454 L380 229 C439 91 580 -20 767 -20 C1057 -20 1250 191 1250 495 C1250 799 1057 1010 767 1010 C580 1010 439 899 380 761 L380 990 L110 990 L110 912 L288 912 Z M767 58 C511 58 380 270 380 495 C380 720 511 932 767 932 C1023 932 1154 720 1154 495 C1154 270 1023 58 767 58 L767 58 Z " />
<glyph glyph-name="q" unicode="q" horiz-adv-x="1340" d="M1230 912 L1230 990 L960 990 L960 761 C901 899 760 1010 573 1010 C283 1010 90 799 90 495 C90 191 283 -20 573 -20 C760 -20 901 91 960 229 L960 -454 L782 -454 L782 -532 L1230 -532 L1230 -454 L1052 -454 L1052 912 L1230 912 Z M573 58 C317 58 186 270 186 495 C186 720 317 932 573 932 C829 932 960 720 960 495 C960 270 829 58 573 58 L573 58 Z " />
<glyph glyph-name="r" unicode="r" horiz-adv-x="943" d="M903 971 C847 997 781 1010 704 1010 C542 1010 420 925 380 795 L380 990 L110 990 L110 912 L288 912 L288 78 L110 78 L110 0 L558 0 L558 78 L380 78 L380 538 C380 775 473 932 704 932 C765 932 816 919 859 901 L903 971 Z " />
<glyph glyph-name="s" unicode="s" horiz-adv-x="992" d="M839 937 C839 937 704 1010 488 1010 C222 1010 128 882 128 753 C128 620 218 529 493 475 C710 432 790 374 790 258 C790 128 692 58 494 58 C297 58 202 124 202 124 L202 254 L110 254 L110 83 C110 83 222 -20 494 -20 C727 -20 882 73 882 258 C882 420 763 502 509 552 C295 594 220 653 220 753 C220 860 313 932 488 932 C644 932 747 887 747 887 L747 736 L839 736 L839 937 Z " />
<glyph glyph-name="t" unicode="t" horiz-adv-x="786" d="M70 912 L284 912 L284 441 C284 147 318 -20 570 -20 C617 -20 670 -12 716 3 L693 78 C654 67 609 58 570 58 C365 58 376 246 376 441 L376 912 L689 912 L689 990 L376 990 L376 1288 L284 1288 L284 990 L70 990 L70 912 Z " />
<glyph glyph-name="u" unicode="u" horiz-adv-x="1408" d="M380 452 L380 990 L110 990 L110 912 L288 912 L288 452 C288 150 430 -20 704 -20 C866 -20 988 65 1028 195 L1028 0 L1298 0 L1298 78 L1120 78 L1120 990 L850 990 L850 912 L1028 912 L1028 452 C1028 215 935 58 704 58 C473 58 380 215 380 452 L380 452 Z " />
<glyph glyph-name="v" unicode="v" horiz-adv-x="1418" d="M663 0 L755 0 L1136 912 L1308 912 L1308 990 L860 990 L860 912 L1032 912 L709 111 L385 912 L558 912 L558 990 L110 990 L110 912 L281 912 L663 0 Z " />
<glyph glyph-name="w" unicode="w" horiz-adv-x="1906" d="M585 0 L681 0 L953 845 L1225 0 L1321 0 L1620 912 L1796 912 L1796 990 L1348 990 L1348 912 L1524 912 L1274 117 L994 990 L912 990 L632 117 L381 912 L558 912 L558 990 L110 990 L110 912 L285 912 L585 0 Z " />
<glyph glyph-name="x" unicode="x" horiz-adv-x="1390" d="M695 589 L377 990 L156 990 L156 912 L323 912 L636 524 L276 78 L110 78 L110 0 L558 0 L558 78 L392 78 L695 459 L1060 0 L1280 0 L1280 78 L1114 78 L754 524 L1067 912 L1234 912 L1234 990 L786 990 L786 912 L951 912 L695 589 Z " />
<glyph glyph-name="y" unicode="y" horiz-adv-x="1420" d="M1310 912 L1310 990 L862 990 L862 912 L1033 912 L710 111 L386 912 L558 912 L558 990 L110 990 L110 912 L282 912 L664 0 L558 -255 C511 -368 475 -454 341 -454 L249 -454 L249 -532 L341 -532 C516 -532 568 -450 634 -291 L1137 912 L1310 912 Z " />
<glyph glyph-name="z" unicode="z" horiz-adv-x="1026" d="M916 0 L916 254 L824 254 L824 78 L246 78 L916 946 L916 990 L140 990 L140 736 L232 736 L232 912 L781 912 L110 44 L110 0 L916 0 Z " />
<glyph glyph-name="braceleft" unicode="&#x7b;" horiz-adv-x="819" d="M110 558 C276 529 383 451 383 165 C383 -113 513 -274 709 -274 L709 -187 C562 -187 478 -53 478 172 C478 478 363 565 267 600 C363 635 478 722 478 1028 C478 1253 562 1387 709 1387 L709 1474 C513 1474 383 1313 383 1035 C383 749 276 671 110 642 L110 558 Z " />
<glyph glyph-name="bar" unicode="&#x7c;" horiz-adv-x="356" d="M130 -532 L226 -532 L226 1434 L130 1434 L130 -532 Z " />
<glyph glyph-name="braceright" unicode="&#x7d;" horiz-adv-x="819" d="M709 642 C543 671 436 749 436 1035 C436 1313 306 1474 110 1474 L110 1387 C257 1387 341 1253 341 1028 C341 722 456 635 552 600 C456 565 341 478 341 172 C341 -53 257 -187 110 -187 L110 -274 C306 -274 436 -113 436 165 C436 451 543 529 709 558 L709 642 Z " />
<glyph glyph-name="asciitilde" unicode="&#x7e;" horiz-adv-x="1024" d="M493 700 C543 643 596 594 698 594 C900 594 914 813 914 813 L818 813 C818 813 805 681 698 681 C611 681 590 724 531 789 C479 846 428 895 326 895 C124 895 110 676 110 676 L206 676 C206 676 219 808 326 808 C413 808 435 766 493 700 L493 700 Z " />
<glyph glyph-name="uni00A0" unicode="&#xa0;" horiz-adv-x="573" d="" />
<glyph glyph-name="exclamdown" unicode="&#xa1;" horiz-adv-x="414" d="M250 602 L164 602 L159 -532 L255 -532 L250 602 Z M284 835 C284 878 250 912 207 912 C164 912 130 878 130 835 C130 792 164 758 207 758 C250 758 284 792 284 835 L284 835 Z " />
<glyph glyph-name="cent" unicode="&#xa2;" horiz-adv-x="1023" d="M953 736 L953 918 C953 918 833 999 635 1009 L635 1204 L545 1204 L545 1008 C271 985 90 779 90 495 C90 210 271 4 545 -18 L545 -206 L635 -206 L635 -19 C762 -14 864 13 953 85 L902 149 C816 84 717 58 596 58 C341 58 184 248 184 495 C184 742 341 932 596 932 C766 932 861 872 861 872 L861 736 L953 736 Z " />
<glyph glyph-name="sterling" unicode="&#xa3;" horiz-adv-x="1290" d="M130 671 L291 671 C319 535 336 463 336 393 C336 224 208 74 208 74 L208 0 L1125 0 L1125 88 L332 88 C332 88 431 207 431 386 C431 475 410 569 389 671 L875 671 L875 759 L371 759 C371 759 344 890 344 975 C344 1188 450 1366 723 1366 C959 1366 1044 1242 1084 1170 L1160 1213 C1125 1286 1013 1454 723 1454 C337 1454 247 1185 247 975 C247 896 268 796 274 759 L130 759 L130 671 Z " />
<glyph glyph-name="currency" unicode="&#xa4;" horiz-adv-x="1048" d="M154 1082 C154 998 182 921 229 859 L110 740 L183 668 L301 786 C363 739 440 712 524 712 C607 712 684 739 746 786 L865 668 L938 740 L819 859 C866 921 894 998 894 1082 C894 1165 866 1243 819 1305 L937 1423 L864 1496 L746 1378 C684 1424 607 1452 524 1452 C440 1452 363 1424 301 1377 L183 1496 L111 1423 L228 1304 C181 1242 154 1165 154 1082 L154 1082 Z M237 1080 C237 1238 366 1367 524 1367 C682 1367 811 1238 811 1080 C811 922 682 793 524 793 C366 793 237 922 237 1080 L237 1080 Z " />
<glyph glyph-name="yen" unicode="&#xa5;" horiz-adv-x="1658" d="M443 369 L443 281 L781 281 L781 88 L605 88 L605 0 L1053 0 L1053 88 L877 88 L877 281 L1215 281 L1215 369 L877 369 L877 493 L1215 493 L1215 581 L877 581 L1379 1346 L1548 1346 L1548 1434 L1100 1434 L1100 1346 L1268 1346 L829 681 L390 1346 L558 1346 L558 1434 L110 1434 L110 1346 L279 1346 L781 581 L443 581 L443 493 L781 493 L781 369 L443 369 Z " />
<glyph glyph-name="brokenbar" unicode="&#xa6;" horiz-adv-x="356" d="M130 665 L226 665 L226 1434 L130 1434 L130 665 Z M130 -532 L226 -532 L226 238 L130 238 L130 -532 Z " />
<glyph glyph-name="section" unicode="&#xa7;" horiz-adv-x="1307" d="M1157 360 C1157 587 1005 711 665 790 C354 862 273 957 273 1098 C273 1283 440 1366 637 1366 C856 1366 993 1303 993 1303 L993 1170 L1089 1170 L1089 1355 C1089 1355 910 1454 637 1454 C306 1454 173 1290 173 1098 C173 1001 205 918 288 849 C201 787 150 692 150 562 C150 335 302 211 642 132 C953 60 1034 -35 1034 -176 C1034 -361 867 -444 670 -444 C451 -444 314 -381 314 -381 L314 -248 L218 -248 L218 -433 C218 -433 397 -532 670 -532 C1001 -532 1134 -368 1134 -176 C1134 -79 1101 4 1019 73 C1106 135 1157 229 1157 360 L1157 360 Z M649 698 C972 627 1057 519 1057 360 C1057 256 1017 177 936 128 C866 166 775 198 658 224 C335 295 250 403 250 562 C250 666 289 744 371 794 C441 756 532 724 649 698 L649 698 Z " />
<glyph glyph-name="dieresis" unicode="&#xa8;" horiz-adv-x="695" d="M110 1270 C110 1229 144 1195 185 1195 C226 1195 260 1229 260 1270 C260 1311 226 1345 185 1345 C144 1345 110 1311 110 1270 L110 1270 Z M435 1270 C435 1229 469 1195 510 1195 C551 1195 585 1229 585 1270 C585 1311 551 1345 510 1345 C469 1345 435 1311 435 1270 L435 1270 Z " />
<glyph glyph-name="copyright" unicode="&#xa9;" horiz-adv-x="1694" d="M528 716 C528 911 644 1055 840 1055 C929 1055 985 1046 1075 981 L1124 1058 C1031 1127 947 1153 840 1153 C579 1153 424 956 424 716 C424 476 579 279 840 279 C947 279 1031 305 1124 374 L1075 451 C985 386 928 377 840 377 C644 377 528 521 528 716 L528 716 Z M110 717 C110 310 440 -20 847 -20 C1254 -20 1584 310 1584 717 C1584 1124 1254 1454 847 1454 C440 1454 110 1124 110 717 L110 717 Z M198 717 C198 1075 489 1366 847 1366 C1205 1366 1496 1075 1496 717 C1496 359 1205 68 847 68 C489 68 198 359 198 717 L198 717 Z " />
<glyph glyph-name="ordfeminine" unicode="&#xaa;" horiz-adv-x="786" d="M358 1361 C513 1361 535 1295 535 1177 C336 1190 60 1164 60 935 C60 774 181 704 312 704 C437 704 510 765 537 852 L537 714 L726 714 L726 797 L622 797 L622 1142 C622 1339 563 1444 358 1444 C209 1444 116 1385 116 1385 L150 1310 C150 1310 238 1361 358 1361 L358 1361 Z M149 935 C149 1094 347 1114 537 1104 L537 1039 C537 879 457 787 312 787 C212 787 149 829 149 935 L149 935 Z " />
<glyph glyph-name="guillemotleft" unicode="&#xab;" horiz-adv-x="1325" d="M110 638 L110 586 L722 109 L722 232 L234 612 L722 992 L722 1115 L110 638 Z M583 638 L583 586 L1195 109 L1195 232 L707 612 L1195 992 L1195 1115 L583 638 Z " />
<glyph glyph-name="logicalnot" unicode="&#xac;" horiz-adv-x="1168" d="M110 711 L962 711 L962 300 L1058 300 L1058 799 L110 799 L110 711 Z " />
<glyph glyph-name="uni00AD" unicode="&#xad;" horiz-adv-x="974" d="M110 591 L864 591 L864 679 L110 679 L110 591 Z " />
<glyph glyph-name="registered" unicode="&#xae;" horiz-adv-x="1064" d="M431 752 L431 979 L545 979 L680 752 L734 752 L596 985 C654 990 717 1038 717 1126 C717 1215 664 1272 574 1272 L380 1272 L380 752 L431 752 Z M574 1223 C634 1223 664 1185 664 1126 C664 1066 634 1028 574 1028 L431 1028 L431 1223 L574 1223 Z M90 1012 C90 768 288 570 532 570 C776 570 974 768 974 1012 C974 1256 776 1454 532 1454 C288 1454 90 1256 90 1012 L90 1012 Z M142 1012 C142 1227 317 1402 532 1402 C747 1402 922 1227 922 1012 C922 797 747 622 532 622 C317 622 142 797 142 1012 L142 1012 Z " />
<glyph glyph-name="macron" unicode="&#xaf;" horiz-adv-x="896" d="M110 1356 L786 1356 L786 1434 L110 1434 L110 1356 Z " />
<glyph glyph-name="degree" unicode="&#xb0;" horiz-adv-x="520" d="M40 1214 C40 1093 139 994 260 994 C381 994 480 1093 480 1214 C480 1335 381 1434 260 1434 C139 1434 40 1335 40 1214 L40 1214 Z M111 1214 C111 1296 178 1363 260 1363 C342 1363 409 1296 409 1214 C409 1132 342 1065 260 1065 C178 1065 111 1132 111 1214 L111 1214 Z " />
<glyph glyph-name="plusminus" unicode="&#xb1;" horiz-adv-x="1150" d="M1040 252 L110 252 L110 162 L1040 162 L1040 252 Z M1040 887 L622 887 L622 1307 L528 1307 L528 887 L110 887 L110 797 L528 797 L528 377 L622 377 L622 797 L1040 797 L1040 887 Z " />
<glyph glyph-name="twosuperior" unicode="&#xb2;" horiz-adv-x="579" d="M149 1252 C162 1282 199 1361 297 1361 C386 1361 419 1317 419 1262 C419 1191 373 1130 327 1077 C314 1062 60 774 60 774 L60 714 L519 714 L519 886 L432 886 L432 797 L193 797 C193 797 362 991 391 1024 C450 1091 506 1170 506 1262 C506 1373 426 1444 297 1444 C141 1444 85 1323 72 1282 L149 1252 Z " />
<glyph glyph-name="threesuperior" unicode="&#xb3;" horiz-adv-x="580" d="M80 1235 L167 1235 L167 1312 C184 1335 222 1361 290 1361 C381 1361 416 1320 416 1258 C416 1167 342 1132 217 1132 L217 1050 C345 1050 434 1030 434 917 C434 833 386 787 290 787 C209 787 166 811 147 830 L147 903 L60 903 L60 794 C60 794 114 704 290 704 C417 704 520 762 520 917 C520 1022 455 1074 391 1095 C438 1114 502 1162 502 1258 C502 1369 428 1444 290 1444 C131 1444 80 1336 80 1336 L80 1235 Z " />
<glyph glyph-name="acute" unicode="&#xb4;" horiz-adv-x="538" d="M90 1163 L194 1163 L448 1434 L312 1434 L90 1163 Z " />
<glyph glyph-name="mu" unicode="&#xb5;" horiz-adv-x="1408" d="M288 912 L288 -454 L110 -454 L110 -532 L558 -532 L558 -454 L380 -454 L380 205 C420 75 542 -20 704 -20 C866 -20 988 75 1028 205 L1028 0 L1298 0 L1298 78 L1120 78 L1120 990 L850 990 L850 912 L1028 912 L1028 452 C1028 215 915 58 704 58 C493 58 380 215 380 452 L380 990 L110 990 L110 912 L288 912 Z " />
<glyph glyph-name="paragraph" unicode="&#xb6;" horiz-adv-x="1170" d="M481 1434 C237 1434 110 1249 110 1046 C110 842 237 657 481 657 L638 657 L638 0 L734 0 L734 1346 L854 1346 L854 0 L950 0 L950 1346 L1060 1346 L1060 1434 L481 1434 Z M638 1346 L638 745 L481 745 C283 745 208 896 208 1046 C208 1195 283 1346 481 1346 L638 1346 Z " />
<glyph glyph-name="periodcentered" unicode="&#xb7;" horiz-adv-x="374" d="M110 664 C110 621 144 587 187 587 C230 587 264 621 264 664 C264 707 230 741 187 741 C144 741 110 707 110 664 L110 664 Z " />
<glyph glyph-name="cedilla" unicode="&#xb8;" horiz-adv-x="552" d="M90 -404 C207 -478 448 -473 461 -285 C468 -176 386 -126 263 -125 L319 36 L239 36 L158 -196 C296 -186 380 -192 373 -281 C362 -405 210 -381 126 -340 L90 -404 Z " />
<glyph glyph-name="onesuperior" unicode="&#xb9;" horiz-adv-x="438" d="M186 1282 L186 796 L81 796 L81 714 L378 714 L378 796 L273 796 L273 1434 L212 1434 L30 1261 L93 1194 L186 1282 Z " />
<glyph glyph-name="ordmasculine" unicode="&#xba;" horiz-adv-x="760" d="M700 1074 C700 1285 591 1444 380 1444 C169 1444 60 1285 60 1074 C60 863 169 704 380 704 C591 704 700 863 700 1074 L700 1074 Z M613 1074 C613 899 542 787 380 787 C218 787 147 899 147 1074 C147 1249 218 1361 380 1361 C542 1361 613 1249 613 1074 L613 1074 Z " />
<glyph glyph-name="guillemotright" unicode="&#xbb;" horiz-adv-x="1325" d="M603 1115 L603 992 L1091 612 L603 232 L603 109 L1215 586 L1215 638 L603 1115 Z M130 1115 L130 992 L618 612 L130 232 L130 109 L742 586 L742 638 L130 1115 Z " />
<glyph glyph-name="onequarter" unicode="&#xbc;" horiz-adv-x="1313" d="M180 0 L282 0 L1106 1434 L1004 1434 L180 0 Z M886 0 L1183 0 L1183 82 L1078 82 L1078 182 L1183 182 L1183 264 L1078 264 L1078 720 L997 720 L652 246 L652 182 L991 182 L991 82 L886 82 L886 0 Z M767 264 L991 571 L991 264 L767 264 Z M286 1282 L286 796 L181 796 L181 714 L478 714 L478 796 L373 796 L373 1434 L312 1434 L130 1261 L193 1194 L286 1282 Z " />
<glyph glyph-name="onehalf" unicode="&#xbd;" horiz-adv-x="1398" d="M180 0 L282 0 L1106 1434 L1004 1434 L180 0 Z M898 538 C911 568 948 647 1046 647 C1135 647 1168 603 1168 548 C1168 477 1122 416 1076 363 C1063 348 809 60 809 60 L809 0 L1268 0 L1268 172 L1181 172 L1181 83 L942 83 C942 83 1111 277 1140 310 C1199 377 1255 456 1255 548 C1255 659 1175 730 1046 730 C890 730 834 609 821 568 L898 538 Z M286 1282 L286 796 L181 796 L181 714 L478 714 L478 796 L373 796 L373 1434 L312 1434 L130 1261 L193 1194 L286 1282 Z " />
<glyph glyph-name="threequarters" unicode="&#xbe;" horiz-adv-x="1408" d="M275 0 L377 0 L1201 1434 L1099 1434 L275 0 Z M150 1235 L237 1235 L237 1312 C254 1335 292 1361 360 1361 C451 1361 486 1320 486 1258 C486 1167 412 1132 287 1132 L287 1050 C415 1050 504 1030 504 917 C504 833 456 787 360 787 C279 787 236 811 217 830 L217 903 L130 903 L130 794 C130 794 184 704 360 704 C487 704 590 762 590 917 C590 1022 525 1074 461 1095 C508 1114 572 1162 572 1258 C572 1369 498 1444 360 1444 C201 1444 150 1336 150 1336 L150 1235 Z M981 0 L1278 0 L1278 82 L1173 82 L1173 182 L1278 182 L1278 264 L1173 264 L1173 720 L1092 720 L747 246 L747 182 L1086 182 L1086 82 L981 82 L981 0 Z M862 264 L1086 571 L1086 264 L862 264 Z " />
<glyph glyph-name="questiondown" unicode="&#xbf;" horiz-adv-x="910" d="M578 835 C578 878 544 912 501 912 C458 912 424 878 424 835 C424 792 458 758 501 758 C544 758 578 792 578 835 L578 835 Z M822 -260 C775 -350 664 -464 466 -464 C224 -464 106 -340 106 -167 C106 72 306 163 548 168 L548 602 L454 602 L454 236 C83 197 10 -17 10 -167 C10 -337 124 -552 466 -552 C720 -552 856 -405 900 -307 L822 -260 Z " />
<glyph glyph-name="Agrave" unicode="&#xc0;" horiz-adv-x="1700" d="M655 1807 L519 1807 L773 1536 L877 1536 L655 1807 Z M591 1434 L591 1346 L768 1346 L242 88 L70 88 L70 0 L518 0 L518 88 L346 88 L506 475 L1193 475 L1353 88 L1182 88 L1182 0 L1630 0 L1630 88 L1458 88 L895 1434 L591 1434 Z M850 1306 L1157 563 L543 563 L850 1306 Z " />
<glyph glyph-name="Aacute" unicode="&#xc1;" horiz-adv-x="1700" d="M801 1536 L905 1536 L1159 1807 L1023 1807 L801 1536 Z M591 1434 L591 1346 L768 1346 L242 88 L70 88 L70 0 L518 0 L518 88 L346 88 L506 475 L1193 475 L1353 88 L1182 88 L1182 0 L1630 0 L1630 88 L1458 88 L895 1434 L591 1434 Z M850 1306 L1157 563 L543 563 L850 1306 Z " />
<glyph glyph-name="Acircumflex" unicode="&#xc2;" horiz-adv-x="1700" d="M873 1837 L827 1837 L583 1536 L681 1536 L850 1734 L1019 1536 L1117 1536 L873 1837 Z M591 1434 L591 1346 L768 1346 L242 88 L70 88 L70 0 L518 0 L518 88 L346 88 L506 475 L1193 475 L1353 88 L1182 88 L1182 0 L1630 0 L1630 88 L1458 88 L895 1434 L591 1434 Z M850 1306 L1157 563 L543 563 L850 1306 Z " />
<glyph glyph-name="Atilde" unicode="&#xc3;" horiz-adv-x="1700" d="M825 1614 C861 1578 899 1536 970 1536 C1110 1536 1125 1705 1125 1705 L1036 1705 C1036 1705 1024 1619 970 1619 C929 1619 905 1651 876 1680 C840 1716 802 1758 731 1758 C591 1758 576 1589 576 1589 L665 1589 C665 1589 677 1675 731 1675 C772 1675 796 1643 825 1614 L825 1614 Z M591 1434 L591 1346 L768 1346 L242 88 L70 88 L70 0 L518 0 L518 88 L346 88 L506 475 L1193 475 L1353 88 L1182 88 L1182 0 L1630 0 L1630 88 L1458 88 L895 1434 L591 1434 Z M850 1306 L1157 563 L543 563 L850 1306 Z " />
<glyph glyph-name="Adieresis" unicode="&#xc4;" horiz-adv-x="1700" d="M613 1631 C613 1590 647 1556 688 1556 C729 1556 763 1590 763 1631 C763 1672 729 1706 688 1706 C647 1706 613 1672 613 1631 L613 1631 Z M938 1631 C938 1590 972 1556 1013 1556 C1054 1556 1088 1590 1088 1631 C1088 1672 1054 1706 1013 1706 C972 1706 938 1672 938 1631 L938 1631 Z M591 1434 L591 1346 L768 1346 L242 88 L70 88 L70 0 L518 0 L518 88 L346 88 L506 475 L1193 475 L1353 88 L1182 88 L1182 0 L1630 0 L1630 88 L1458 88 L895 1434 L591 1434 Z M850 1306 L1157 563 L543 563 L850 1306 Z " />
<glyph glyph-name="Aring" unicode="&#xc5;" horiz-adv-x="1700" d="M680 1706 C680 1614 748 1536 850 1536 C953 1536 1020 1614 1020 1706 C1020 1799 953 1876 850 1876 C748 1876 680 1799 680 1706 L680 1706 Z M746 1706 C746 1763 783 1810 850 1810 C917 1810 954 1763 954 1706 C954 1649 917 1602 850 1602 C783 1602 746 1649 746 1706 L746 1706 Z M591 1434 L591 1346 L768 1346 L242 88 L70 88 L70 0 L518 0 L518 88 L346 88 L506 475 L1193 475 L1353 88 L1182 88 L1182 0 L1630 0 L1630 88 L1458 88 L895 1434 L591 1434 Z M850 1306 L1157 563 L543 563 L850 1306 Z " />
<glyph glyph-name="AE" unicode="&#xc6;" horiz-adv-x="2290" d="M1222 0 L2160 0 L2160 264 L2064 264 L2064 88 L1318 88 L1318 690 L2032 690 L2032 778 L1318 778 L1318 1346 L2054 1346 L2054 1170 L2150 1170 L2150 1434 L966 1434 L966 1346 L1143 1346 L298 88 L130 88 L130 0 L578 0 L578 88 L411 88 L706 528 L1222 528 L1222 0 Z M1222 1299 L1222 616 L765 616 L1222 1299 Z " />
<glyph glyph-name="Ccedilla" unicode="&#xc7;" horiz-adv-x="1378" d="M212 717 C212 1079 419 1366 817 1366 C1028 1366 1152 1307 1152 1307 L1152 1170 L1248 1170 L1248 1363 C1248 1363 1092 1454 817 1454 C358 1454 110 1120 110 717 C110 338 329 19 738 -16 L676 -196 C814 -186 898 -192 891 -281 C880 -405 728 -381 644 -340 L608 -404 C725 -478 966 -473 979 -285 C986 -176 904 -126 781 -125 L817 -20 C1040 -20 1166 30 1248 90 L1196 160 C1130 118 1023 68 817 68 C419 68 212 355 212 717 L212 717 Z " />
<glyph glyph-name="Egrave" unicode="&#xc8;" horiz-adv-x="1374" d="M533 1807 L397 1807 L651 1536 L755 1536 L533 1807 Z M1138 1170 L1234 1170 L1234 1434 L130 1434 L130 1346 L306 1346 L306 88 L130 88 L130 0 L1244 0 L1244 264 L1148 264 L1148 88 L402 88 L402 690 L1116 690 L1116 778 L402 778 L402 1346 L1138 1346 L1138 1170 Z " />
<glyph glyph-name="Eacute" unicode="&#xc9;" horiz-adv-x="1374" d="M622 1536 L726 1536 L980 1807 L844 1807 L622 1536 Z M1138 1170 L1234 1170 L1234 1434 L130 1434 L130 1346 L306 1346 L306 88 L130 88 L130 0 L1244 0 L1244 264 L1148 264 L1148 88 L402 88 L402 690 L1116 690 L1116 778 L402 778 L402 1346 L1138 1346 L1138 1170 Z " />
<glyph glyph-name="Ecircumflex" unicode="&#xca;" horiz-adv-x="1374" d="M718 1857 L672 1857 L428 1556 L526 1556 L695 1754 L864 1556 L962 1556 L718 1857 Z M1138 1170 L1234 1170 L1234 1434 L130 1434 L130 1346 L306 1346 L306 88 L130 88 L130 0 L1244 0 L1244 264 L1148 264 L1148 88 L402 88 L402 690 L1116 690 L1116 778 L402 778 L402 1346 L1138 1346 L1138 1170 Z " />
<glyph glyph-name="Edieresis" unicode="&#xcb;" horiz-adv-x="1374" d="M458 1631 C458 1590 492 1556 533 1556 C574 1556 608 1590 608 1631 C608 1672 574 1706 533 1706 C492 1706 458 1672 458 1631 L458 1631 Z M783 1631 C783 1590 817 1556 858 1556 C899 1556 933 1590 933 1631 C933 1672 899 1706 858 1706 C817 1706 783 1672 783 1631 L783 1631 Z M1138 1170 L1234 1170 L1234 1434 L130 1434 L130 1346 L306 1346 L306 88 L130 88 L130 0 L1244 0 L1244 264 L1148 264 L1148 88 L402 88 L402 690 L1116 690 L1116 778 L402 778 L402 1346 L1138 1346 L1138 1170 Z " />
<glyph glyph-name="Igrave" unicode="&#xcc;" horiz-adv-x="711" d="M226 1807 L90 1807 L344 1536 L448 1536 L226 1807 Z M173 0 L621 0 L621 88 L445 88 L445 1346 L621 1346 L621 1434 L173 1434 L173 1346 L349 1346 L349 88 L173 88 L173 0 Z " />
<glyph glyph-name="Iacute" unicode="&#xcd;" horiz-adv-x="752" d="M304 1536 L408 1536 L662 1807 L526 1807 L304 1536 Z M130 0 L578 0 L578 88 L402 88 L402 1346 L578 1346 L578 1434 L130 1434 L130 1346 L306 1346 L306 88 L130 88 L130 0 Z " />
<glyph glyph-name="Icircumflex" unicode="&#xce;" horiz-adv-x="714" d="M380 1837 L334 1837 L90 1536 L188 1536 L357 1734 L526 1536 L624 1536 L380 1837 Z M133 0 L581 0 L581 88 L405 88 L405 1346 L581 1346 L581 1434 L133 1434 L133 1346 L309 1346 L309 88 L133 88 L133 0 Z " />
<glyph glyph-name="Idieresis" unicode="&#xcf;" horiz-adv-x="655" d="M90 1631 C90 1590 124 1556 165 1556 C206 1556 240 1590 240 1631 C240 1672 206 1706 165 1706 C124 1706 90 1672 90 1631 L90 1631 Z M415 1631 C415 1590 449 1556 490 1556 C531 1556 565 1590 565 1631 C565 1672 531 1706 490 1706 C449 1706 415 1672 415 1631 L415 1631 Z M103 0 L551 0 L551 88 L375 88 L375 1346 L551 1346 L551 1434 L103 1434 L103 1346 L279 1346 L279 88 L103 88 L103 0 Z " />
<glyph glyph-name="Eth" unicode="&#xd0;" horiz-adv-x="1561" d="M185 0 L768 0 C1267 0 1471 303 1471 717 C1471 1130 1267 1434 768 1434 L185 1434 L185 1346 L361 1346 L361 760 L130 760 L130 672 L361 672 L361 88 L185 88 L185 0 Z M768 1346 C1226 1346 1369 1068 1369 717 C1369 366 1226 88 768 88 L457 88 L457 672 L795 672 L795 760 L457 760 L457 1346 L768 1346 Z " />
<glyph glyph-name="Ntilde" unicode="&#xd1;" horiz-adv-x="1678" d="M814 1614 C850 1578 888 1536 959 1536 C1099 1536 1114 1705 1114 1705 L1025 1705 C1025 1705 1013 1619 959 1619 C918 1619 894 1651 865 1680 C829 1716 791 1758 720 1758 C580 1758 565 1589 565 1589 L654 1589 C654 1589 666 1675 720 1675 C761 1675 785 1643 814 1614 L814 1614 Z M130 0 L578 0 L578 88 L402 88 L402 1302 L1254 0 L1372 0 L1372 1346 L1548 1346 L1548 1434 L1100 1434 L1100 1346 L1276 1346 L1276 132 L424 1434 L130 1434 L130 1346 L306 1346 L306 88 L130 88 L130 0 Z " />
<glyph glyph-name="Ograve" unicode="&#xd2;" horiz-adv-x="1634" d="M110 717 C110 314 358 -20 817 -20 C1276 -20 1524 314 1524 717 C1524 1120 1276 1454 817 1454 C358 1454 110 1120 110 717 L110 717 Z M212 717 C212 1069 409 1366 817 1366 C1225 1366 1422 1069 1422 717 C1422 365 1225 68 817 68 C409 68 212 365 212 717 L212 717 Z M663 1807 L527 1807 L781 1536 L885 1536 L663 1807 Z " />
<glyph glyph-name="Oacute" unicode="&#xd3;" horiz-adv-x="1634" d="M783 1536 L887 1536 L1141 1807 L1005 1807 L783 1536 Z M110 717 C110 314 358 -20 817 -20 C1276 -20 1524 314 1524 717 C1524 1120 1276 1454 817 1454 C358 1454 110 1120 110 717 L110 717 Z M212 717 C212 1069 409 1366 817 1366 C1225 1366 1422 1069 1422 717 C1422 365 1225 68 817 68 C409 68 212 365 212 717 L212 717 Z " />
<glyph glyph-name="Ocircumflex" unicode="&#xd4;" horiz-adv-x="1634" d="M110 717 C110 314 358 -20 817 -20 C1276 -20 1524 314 1524 717 C1524 1120 1276 1454 817 1454 C358 1454 110 1120 110 717 L110 717 Z M212 717 C212 1069 409 1366 817 1366 C1225 1366 1422 1069 1422 717 C1422 365 1225 68 817 68 C409 68 212 365 212 717 L212 717 Z M840 1837 L794 1837 L550 1536 L648 1536 L817 1734 L986 1536 L1084 1536 L840 1837 Z " />
<glyph glyph-name="Otilde" unicode="&#xd5;" horiz-adv-x="1634" d="M110 717 C110 314 358 -20 817 -20 C1276 -20 1524 314 1524 717 C1524 1120 1276 1454 817 1454 C358 1454 110 1120 110 717 L110 717 Z M212 717 C212 1069 409 1366 817 1366 C1225 1366 1422 1069 1422 717 C1422 365 1225 68 817 68 C409 68 212 365 212 717 L212 717 Z M792 1614 C828 1578 866 1536 937 1536 C1077 1536 1092 1705 1092 1705 L1003 1705 C1003 1705 991 1619 937 1619 C896 1619 872 1651 843 1680 C807 1716 769 1758 698 1758 C558 1758 543 1589 543 1589 L632 1589 C632 1589 644 1675 698 1675 C739 1675 763 1643 792 1614 L792 1614 Z " />
<glyph glyph-name="Odieresis" unicode="&#xd6;" horiz-adv-x="1634" d="M110 717 C110 314 358 -20 817 -20 C1276 -20 1524 314 1524 717 C1524 1120 1276 1454 817 1454 C358 1454 110 1120 110 717 L110 717 Z M212 717 C212 1069 409 1366 817 1366 C1225 1366 1422 1069 1422 717 C1422 365 1225 68 817 68 C409 68 212 365 212 717 L212 717 Z M580 1631 C580 1590 614 1556 655 1556 C696 1556 730 1590 730 1631 C730 1672 696 1706 655 1706 C614 1706 580 1672 580 1631 L580 1631 Z M905 1631 C905 1590 939 1556 980 1556 C1021 1556 1055 1590 1055 1631 C1055 1672 1021 1706 980 1706 C939 1706 905 1672 905 1631 L905 1631 Z " />
<glyph glyph-name="multiply" unicode="&#xd7;" horiz-adv-x="1035" d="M517 733 L175 1076 L110 1011 L452 668 L111 327 L176 262 L517 603 L859 262 L924 327 L582 668 L925 1011 L860 1076 L517 733 Z " />
<glyph glyph-name="Oslash" unicode="&#xd8;" horiz-adv-x="1634" d="M110 717 C110 441 226 197 447 71 L382 -61 L490 -61 L534 29 C617 -2 711 -20 817 -20 C1276 -20 1524 314 1524 717 C1524 993 1407 1237 1186 1363 L1251 1495 L1143 1495 L1099 1404 C1016 1436 922 1454 817 1454 C358 1454 110 1120 110 717 L110 717 Z M817 68 C725 68 644 83 574 110 L1146 1281 C1331 1168 1422 955 1422 717 C1422 365 1225 68 817 68 L817 68 Z M212 717 C212 1069 409 1366 817 1366 C908 1366 989 1351 1059 1324 L487 153 C302 266 212 479 212 717 L212 717 Z " />
<glyph glyph-name="Ugrave" unicode="&#xd9;" horiz-adv-x="1692" d="M672 1807 L536 1807 L790 1536 L894 1536 L672 1807 Z M1386 571 L1386 1346 L1562 1346 L1562 1434 L1114 1434 L1114 1346 L1290 1346 L1290 571 C1290 255 1129 68 846 68 C563 68 402 255 402 571 L402 1346 L578 1346 L578 1434 L130 1434 L130 1346 L306 1346 L306 571 C306 183 520 -20 846 -20 C1172 -20 1386 183 1386 571 L1386 571 Z " />
<glyph glyph-name="Uacute" unicode="&#xda;" horiz-adv-x="1692" d="M781 1536 L885 1536 L1139 1807 L1003 1807 L781 1536 Z M1386 571 L1386 1346 L1562 1346 L1562 1434 L1114 1434 L1114 1346 L1290 1346 L1290 571 C1290 255 1129 68 846 68 C563 68 402 255 402 571 L402 1346 L578 1346 L578 1434 L130 1434 L130 1346 L306 1346 L306 571 C306 183 520 -20 846 -20 C1172 -20 1386 183 1386 571 L1386 571 Z " />
<glyph glyph-name="Ucircumflex" unicode="&#xdb;" horiz-adv-x="1692" d="M867 1837 L821 1837 L577 1536 L675 1536 L844 1734 L1013 1536 L1111 1536 L867 1837 Z M1386 571 L1386 1346 L1562 1346 L1562 1434 L1114 1434 L1114 1346 L1290 1346 L1290 571 C1290 255 1129 68 846 68 C563 68 402 255 402 571 L402 1346 L578 1346 L578 1434 L130 1434 L130 1346 L306 1346 L306 571 C306 183 520 -20 846 -20 C1172 -20 1386 183 1386 571 L1386 571 Z " />
<glyph glyph-name="Udieresis" unicode="&#xdc;" horiz-adv-x="1692" d="M608 1631 C608 1590 642 1556 683 1556 C724 1556 758 1590 758 1631 C758 1672 724 1706 683 1706 C642 1706 608 1672 608 1631 L608 1631 Z M933 1631 C933 1590 967 1556 1008 1556 C1049 1556 1083 1590 1083 1631 C1083 1672 1049 1706 1008 1706 C967 1706 933 1672 933 1631 L933 1631 Z M1386 571 L1386 1346 L1562 1346 L1562 1434 L1114 1434 L1114 1346 L1290 1346 L1290 571 C1290 255 1129 68 846 68 C563 68 402 255 402 571 L402 1346 L578 1346 L578 1434 L130 1434 L130 1346 L306 1346 L306 571 C306 183 520 -20 846 -20 C1172 -20 1386 183 1386 571 L1386 571 Z " />
<glyph glyph-name="Yacute" unicode="&#xdd;" horiz-adv-x="1578" d="M722 1535 L826 1535 L1080 1806 L944 1806 L722 1535 Z M741 581 L741 88 L565 88 L565 0 L1013 0 L1013 88 L837 88 L837 581 L1339 1346 L1508 1346 L1508 1434 L1060 1434 L1060 1346 L1228 1346 L789 681 L350 1346 L518 1346 L518 1434 L70 1434 L70 1346 L239 1346 L741 581 Z " />
<glyph glyph-name="Thorn" unicode="&#xde;" horiz-adv-x="1126" d="M286 1346 L286 88 L110 88 L110 0 L558 0 L558 88 L382 88 L382 331 L660 331 C927 331 1036 496 1036 721 C1036 948 927 1113 660 1113 L382 1113 L382 1346 L558 1346 L558 1434 L110 1434 L110 1346 L286 1346 Z M660 1025 C881 1025 940 894 940 721 C940 550 881 419 660 419 L382 419 L382 1025 L660 1025 Z " />
<glyph glyph-name="germandbls" unicode="&#xdf;" horiz-adv-x="1382" d="M306 893 L306 88 L130 88 L130 0 L402 0 L402 893 C402 1324 605 1366 764 1366 C1005 1366 1117 1266 1117 1079 C1117 905 1001 809 813 800 L649 800 L649 712 L814 712 C1046 712 1176 590 1176 391 C1176 182 1045 68 842 68 C757 68 666 80 568 141 L568 41 C648 -8 745 -20 842 -20 C1094 -20 1272 128 1272 391 C1272 567 1166 716 978 762 C1114 804 1213 919 1213 1079 C1213 1306 1054 1454 764 1454 C585 1454 306 1409 306 893 L306 893 Z " />
<glyph glyph-name="agrave" unicode="&#xe0;" horiz-adv-x="1209" d="M385 1434 L249 1434 L503 1163 L607 1163 L385 1434 Z M556 932 C826 932 829 770 829 630 C552 656 90 633 90 293 C90 87 240 -20 464 -20 C658 -20 772 78 829 218 L829 0 L1099 0 L1099 78 L921 78 L921 592 C921 770 916 1010 556 1010 C416 1010 283 979 190 924 L229 852 C309 902 456 932 556 932 L556 932 Z M186 293 C186 548 575 577 829 557 L829 429 C829 262 708 68 464 68 C281 68 186 157 186 293 L186 293 Z " />
<glyph glyph-name="aacute" unicode="&#xe1;" horiz-adv-x="1209" d="M489 1163 L593 1163 L847 1434 L711 1434 L489 1163 Z M556 932 C826 932 829 770 829 630 C552 656 90 633 90 293 C90 87 240 -20 464 -20 C658 -20 772 78 829 218 L829 0 L1099 0 L1099 78 L921 78 L921 592 C921 770 916 1010 556 1010 C416 1010 283 979 190 924 L229 852 C309 902 456 932 556 932 L556 932 Z M186 293 C186 548 575 577 829 557 L829 429 C829 262 708 68 464 68 C281 68 186 157 186 293 L186 293 Z " />
<glyph glyph-name="acircumflex" unicode="&#xe2;" horiz-adv-x="1209" d="M583 1434 L537 1434 L293 1133 L391 1133 L560 1331 L729 1133 L827 1133 L583 1434 Z M556 932 C826 932 829 770 829 630 C552 656 90 633 90 293 C90 87 240 -20 464 -20 C658 -20 772 78 829 218 L829 0 L1099 0 L1099 78 L921 78 L921 592 C921 770 916 1010 556 1010 C416 1010 283 979 190 924 L229 852 C309 902 456 932 556 932 L556 932 Z M186 293 C186 548 575 577 829 557 L829 429 C829 262 708 68 464 68 C281 68 186 157 186 293 L186 293 Z " />
<glyph glyph-name="atilde" unicode="&#xe3;" horiz-adv-x="1209" d="M535 1290 C571 1254 609 1212 680 1212 C820 1212 835 1381 835 1381 L746 1381 C746 1381 734 1295 680 1295 C639 1295 615 1327 586 1356 C550 1392 512 1434 441 1434 C301 1434 286 1265 286 1265 L375 1265 C375 1265 387 1351 441 1351 C482 1351 506 1319 535 1290 L535 1290 Z M556 932 C826 932 829 770 829 630 C552 656 90 633 90 293 C90 87 240 -20 464 -20 C658 -20 772 78 829 218 L829 0 L1099 0 L1099 78 L921 78 L921 592 C921 770 916 1010 556 1010 C416 1010 283 979 190 924 L229 852 C309 902 456 932 556 932 L556 932 Z M186 293 C186 548 575 577 829 557 L829 429 C829 262 708 68 464 68 C281 68 186 157 186 293 L186 293 Z " />
<glyph glyph-name="adieresis" unicode="&#xe4;" horiz-adv-x="1209" d="M323 1270 C323 1229 357 1195 398 1195 C439 1195 473 1229 473 1270 C473 1311 439 1345 398 1345 C357 1345 323 1311 323 1270 L323 1270 Z M648 1270 C648 1229 682 1195 723 1195 C764 1195 798 1229 798 1270 C798 1311 764 1345 723 1345 C682 1345 648 1311 648 1270 L648 1270 Z M556 932 C826 932 829 770 829 630 C552 656 90 633 90 293 C90 87 240 -20 464 -20 C658 -20 772 78 829 218 L829 0 L1099 0 L1099 78 L921 78 L921 592 C921 770 916 1010 556 1010 C416 1010 283 979 190 924 L229 852 C309 902 456 932 556 932 L556 932 Z M186 293 C186 548 575 577 829 557 L829 429 C829 262 708 68 464 68 C281 68 186 157 186 293 L186 293 Z " />
<glyph glyph-name="aring" unicode="&#xe5;" horiz-adv-x="1209" d="M390 1284 C390 1192 458 1114 560 1114 C663 1114 730 1192 730 1284 C730 1377 663 1454 560 1454 C458 1454 390 1377 390 1284 L390 1284 Z M456 1284 C456 1341 493 1388 560 1388 C627 1388 664 1341 664 1284 C664 1227 627 1180 560 1180 C493 1180 456 1227 456 1284 L456 1284 Z M556 932 C826 932 829 770 829 630 C552 656 90 633 90 293 C90 87 240 -20 464 -20 C658 -20 772 78 829 218 L829 0 L1099 0 L1099 78 L921 78 L921 592 C921 770 916 1010 556 1010 C416 1010 283 979 190 924 L229 852 C309 902 456 932 556 932 L556 932 Z M186 293 C186 548 575 577 829 557 L829 429 C829 262 708 68 464 68 C281 68 186 157 186 293 L186 293 Z " />
<glyph glyph-name="ae" unicode="&#xe6;" horiz-adv-x="1847" d="M1293 58 C1050 58 937 238 926 455 L1757 455 C1757 840 1545 1010 1293 1010 C1110 1010 978 930 902 796 C868 914 787 1010 556 1010 C416 1010 283 979 190 924 L229 852 C309 902 456 932 556 932 C826 932 829 770 829 630 C552 656 90 633 90 293 C90 87 240 -20 464 -20 C632 -20 782 53 880 237 C951 79 1093 -20 1293 -20 C1517 -20 1628 54 1688 115 L1624 174 C1557 108 1458 58 1293 58 L1293 58 Z M186 293 C186 548 575 577 829 557 L829 429 C829 262 708 68 464 68 C281 68 186 157 186 293 L186 293 Z M926 533 C937 752 1050 932 1293 932 C1536 932 1649 753 1660 533 L926 533 Z " />
<glyph glyph-name="ccedilla" unicode="&#xe7;" horiz-adv-x="1083" d="M953 736 L953 918 C953 918 818 1010 596 1010 C294 1010 90 797 90 495 C90 214 267 9 535 -17 L473 -196 C611 -186 695 -192 688 -281 C677 -405 525 -381 441 -340 L405 -404 C522 -478 763 -473 776 -285 C783 -176 701 -126 578 -125 L614 -20 C751 -18 859 9 953 85 L902 149 C816 84 717 58 596 58 C341 58 184 248 184 495 C184 742 341 932 596 932 C766 932 861 872 861 872 L861 736 L953 736 Z " />
<glyph glyph-name="egrave" unicode="&#xe8;" horiz-adv-x="1108" d="M390 1434 L254 1434 L508 1163 L612 1163 L390 1434 Z M554 58 C311 58 198 238 187 455 L1018 455 C1018 840 806 1010 554 1010 C260 1010 90 796 90 495 C90 194 260 -20 554 -20 C778 -20 889 54 949 115 L885 174 C818 108 719 58 554 58 L554 58 Z M187 533 C198 752 311 932 554 932 C797 932 910 753 921 533 L187 533 Z " />
<glyph glyph-name="eacute" unicode="&#xe9;" horiz-adv-x="1108" d="M478 1163 L582 1163 L836 1434 L700 1434 L478 1163 Z M554 58 C311 58 198 238 187 455 L1018 455 C1018 840 806 1010 554 1010 C260 1010 90 796 90 495 C90 194 260 -20 554 -20 C778 -20 889 54 949 115 L885 174 C818 108 719 58 554 58 L554 58 Z M187 533 C198 752 311 932 554 932 C797 932 910 753 921 533 L187 533 Z " />
<glyph glyph-name="ecircumflex" unicode="&#xea;" horiz-adv-x="1108" d="M577 1434 L531 1434 L287 1133 L385 1133 L554 1331 L723 1133 L821 1133 L577 1434 Z M554 58 C311 58 198 238 187 455 L1018 455 C1018 840 806 1010 554 1010 C260 1010 90 796 90 495 C90 194 260 -20 554 -20 C778 -20 889 54 949 115 L885 174 C818 108 719 58 554 58 L554 58 Z M187 533 C198 752 311 932 554 932 C797 932 910 753 921 533 L187 533 Z " />
<glyph glyph-name="edieresis" unicode="&#xeb;" horiz-adv-x="1108" d="M554 58 C311 58 198 238 187 455 L1018 455 C1018 840 806 1010 554 1010 C260 1010 90 796 90 495 C90 194 260 -20 554 -20 C778 -20 889 54 949 115 L885 174 C818 108 719 58 554 58 L554 58 Z M187 533 C198 752 311 932 554 932 C797 932 910 753 921 533 L187 533 Z M317 1270 C317 1229 351 1195 392 1195 C433 1195 467 1229 467 1270 C467 1311 433 1345 392 1345 C351 1345 317 1311 317 1270 L317 1270 Z M642 1270 C642 1229 676 1195 717 1195 C758 1195 792 1229 792 1270 C792 1311 758 1345 717 1345 C676 1345 642 1311 642 1270 L642 1270 Z " />
<glyph glyph-name="igrave" unicode="&#xec;" horiz-adv-x="726" d="M206 1434 L70 1434 L324 1163 L428 1163 L206 1434 Z M346 912 L346 78 L168 78 L168 0 L616 0 L616 78 L438 78 L438 990 L168 990 L168 912 L346 912 Z " />
<glyph glyph-name="iacute" unicode="&#xed;" horiz-adv-x="707" d="M279 1163 L383 1163 L637 1434 L501 1434 L279 1163 Z M288 912 L288 78 L110 78 L110 0 L558 0 L558 78 L380 78 L380 990 L110 990 L110 912 L288 912 Z " />
<glyph glyph-name="icircumflex" unicode="&#xee;" horiz-adv-x="674" d="M360 1434 L314 1434 L70 1133 L168 1133 L337 1331 L506 1133 L604 1133 L360 1434 Z M291 912 L291 78 L113 78 L113 0 L561 0 L561 78 L383 78 L383 990 L113 990 L113 912 L291 912 Z " />
<glyph glyph-name="idieresis" unicode="&#xef;" horiz-adv-x="615" d="M70 1270 C70 1229 104 1195 145 1195 C186 1195 220 1229 220 1270 C220 1311 186 1345 145 1345 C104 1345 70 1311 70 1270 L70 1270 Z M395 1270 C395 1229 429 1195 470 1195 C511 1195 545 1229 545 1270 C545 1311 511 1345 470 1345 C429 1345 395 1311 395 1270 L395 1270 Z M261 912 L261 78 L83 78 L83 0 L531 0 L531 78 L353 78 L353 990 L83 990 L83 912 L261 912 Z " />
<glyph glyph-name="eth" unicode="&#xf0;" horiz-adv-x="1171" d="M608 1153 L777 1279 C891 1156 969 973 988 713 C923 895 764 1010 577 1010 C287 1010 90 799 90 495 C90 191 287 -20 577 -20 C794 -20 1030 133 1056 495 C1080 814 1013 1125 842 1327 L997 1443 L949 1506 L787 1384 C699 1467 589 1525 455 1548 L433 1468 C538 1446 635 1402 718 1333 L561 1216 L608 1153 Z M577 932 C833 932 964 720 964 495 C964 270 833 58 577 58 C321 58 190 270 190 495 C190 720 321 932 577 932 L577 932 Z " />
<glyph glyph-name="ntilde" unicode="&#xf1;" horiz-adv-x="1408" d="M679 1290 C715 1254 753 1212 824 1212 C964 1212 979 1381 979 1381 L890 1381 C890 1381 878 1295 824 1295 C783 1295 759 1327 730 1356 C694 1392 656 1434 585 1434 C445 1434 430 1265 430 1265 L519 1265 C519 1265 531 1351 585 1351 C626 1351 650 1319 679 1290 L679 1290 Z M380 538 C380 775 473 932 704 932 C935 932 1028 775 1028 538 L1028 0 L1298 0 L1298 78 L1120 78 L1120 538 C1120 840 978 1010 704 1010 C542 1010 420 925 380 795 L380 990 L110 990 L110 912 L288 912 L288 78 L110 78 L110 0 L558 0 L558 78 L380 78 L380 538 Z " />
<glyph glyph-name="ograve" unicode="&#xf2;" horiz-adv-x="1192" d="M438 1434 L302 1434 L556 1163 L660 1163 L438 1434 Z M90 495 C90 193 294 -20 596 -20 C898 -20 1102 193 1102 495 C1102 797 898 1010 596 1010 C292 1010 90 796 90 495 L90 495 Z M184 495 C184 742 341 932 596 932 C850 932 1008 742 1008 495 C1008 248 850 58 596 58 C341 58 184 248 184 495 L184 495 Z " />
<glyph glyph-name="oacute" unicode="&#xf3;" horiz-adv-x="1192" d="M90 495 C90 193 294 -20 596 -20 C898 -20 1102 193 1102 495 C1102 797 898 1010 596 1010 C292 1010 90 796 90 495 L90 495 Z M184 495 C184 742 341 932 596 932 C850 932 1008 742 1008 495 C1008 248 850 58 596 58 C341 58 184 248 184 495 L184 495 Z M531 1163 L635 1163 L889 1434 L753 1434 L531 1163 Z " />
<glyph glyph-name="ocircumflex" unicode="&#xf4;" horiz-adv-x="1192" d="M90 495 C90 193 294 -20 596 -20 C898 -20 1102 193 1102 495 C1102 797 898 1010 596 1010 C292 1010 90 796 90 495 L90 495 Z M184 495 C184 742 341 932 596 932 C850 932 1008 742 1008 495 C1008 248 850 58 596 58 C341 58 184 248 184 495 L184 495 Z M619 1434 L573 1434 L329 1133 L427 1133 L596 1331 L765 1133 L863 1133 L619 1434 Z " />
<glyph glyph-name="otilde" unicode="&#xf5;" horiz-adv-x="1192" d="M571 1290 C607 1254 645 1212 716 1212 C856 1212 871 1381 871 1381 L782 1381 C782 1381 770 1295 716 1295 C675 1295 651 1327 622 1356 C586 1392 548 1434 477 1434 C337 1434 322 1265 322 1265 L411 1265 C411 1265 423 1351 477 1351 C518 1351 542 1319 571 1290 L571 1290 Z M90 495 C90 193 294 -20 596 -20 C898 -20 1102 193 1102 495 C1102 797 898 1010 596 1010 C292 1010 90 796 90 495 L90 495 Z M184 495 C184 742 341 932 596 932 C850 932 1008 742 1008 495 C1008 248 850 58 596 58 C341 58 184 248 184 495 L184 495 Z " />
<glyph glyph-name="odieresis" unicode="&#xf6;" horiz-adv-x="1192" d="M90 495 C90 193 294 -20 596 -20 C898 -20 1102 193 1102 495 C1102 797 898 1010 596 1010 C292 1010 90 796 90 495 L90 495 Z M184 495 C184 742 341 932 596 932 C850 932 1008 742 1008 495 C1008 248 850 58 596 58 C341 58 184 248 184 495 L184 495 Z M360 1270 C360 1229 394 1195 435 1195 C476 1195 510 1229 510 1270 C510 1311 476 1345 435 1345 C394 1345 360 1311 360 1270 L360 1270 Z M685 1270 C685 1229 719 1195 760 1195 C801 1195 835 1229 835 1270 C835 1311 801 1345 760 1345 C719 1345 685 1311 685 1270 L685 1270 Z " />
<glyph glyph-name="divide" unicode="&#xf7;" horiz-adv-x="922" d="M110 621 L812 621 L812 713 L110 713 L110 621 Z M384 893 C384 850 418 816 461 816 C504 816 538 850 538 893 C538 936 504 970 461 970 C418 970 384 936 384 893 L384 893 Z M384 441 C384 398 418 364 461 364 C504 364 538 398 538 441 C538 484 504 518 461 518 C418 518 384 484 384 441 L384 441 Z " />
<glyph glyph-name="oslash" unicode="&#xf8;" horiz-adv-x="1232" d="M110 495 C110 300 195 142 337 54 L281 -61 L384 -61 L420 14 C479 -8 545 -20 616 -20 C918 -20 1122 193 1122 495 C1122 700 1028 865 872 949 L919 1045 L816 1045 L787 984 C734 1001 677 1010 616 1010 C312 1010 110 796 110 495 L110 495 Z M616 58 C557 58 503 68 455 87 L836 873 C958 799 1028 659 1028 495 C1028 248 870 58 616 58 L616 58 Z M204 495 C204 742 361 932 616 932 C665 932 710 925 751 912 L374 131 C265 208 204 340 204 495 L204 495 Z " />
<glyph glyph-name="ugrave" unicode="&#xf9;" horiz-adv-x="1408" d="M526 1434 L390 1434 L644 1163 L748 1163 L526 1434 Z M380 452 L380 990 L110 990 L110 912 L288 912 L288 452 C288 150 430 -20 704 -20 C866 -20 988 65 1028 195 L1028 0 L1298 0 L1298 78 L1120 78 L1120 990 L850 990 L850 912 L1028 912 L1028 452 C1028 215 935 58 704 58 C473 58 380 215 380 452 L380 452 Z " />
<glyph glyph-name="uacute" unicode="&#xfa;" horiz-adv-x="1408" d="M630 1163 L734 1163 L988 1434 L852 1434 L630 1163 Z M380 452 L380 990 L110 990 L110 912 L288 912 L288 452 C288 150 430 -20 704 -20 C866 -20 988 65 1028 195 L1028 0 L1298 0 L1298 78 L1120 78 L1120 990 L850 990 L850 912 L1028 912 L1028 452 C1028 215 935 58 704 58 C473 58 380 215 380 452 L380 452 Z " />
<glyph glyph-name="ucircumflex" unicode="&#xfb;" horiz-adv-x="1408" d="M727 1434 L681 1434 L437 1133 L535 1133 L704 1331 L873 1133 L971 1133 L727 1434 Z M380 452 L380 990 L110 990 L110 912 L288 912 L288 452 C288 150 430 -20 704 -20 C866 -20 988 65 1028 195 L1028 0 L1298 0 L1298 78 L1120 78 L1120 990 L850 990 L850 912 L1028 912 L1028 452 C1028 215 935 58 704 58 C473 58 380 215 380 452 L380 452 Z " />
<glyph glyph-name="udieresis" unicode="&#xfc;" horiz-adv-x="1408" d="M467 1270 C467 1229 501 1195 542 1195 C583 1195 617 1229 617 1270 C617 1311 583 1345 542 1345 C501 1345 467 1311 467 1270 L467 1270 Z M792 1270 C792 1229 826 1195 867 1195 C908 1195 942 1229 942 1270 C942 1311 908 1345 867 1345 C826 1345 792 1311 792 1270 L792 1270 Z M380 452 L380 990 L110 990 L110 912 L288 912 L288 452 C288 150 430 -20 704 -20 C866 -20 988 65 1028 195 L1028 0 L1298 0 L1298 78 L1120 78 L1120 990 L850 990 L850 912 L1028 912 L1028 452 C1028 215 935 58 704 58 C473 58 380 215 380 452 L380 452 Z " />
<glyph glyph-name="yacute" unicode="&#xfd;" horiz-adv-x="1420" d="M653 1163 L757 1163 L1011 1434 L875 1434 L653 1163 Z M1310 912 L1310 990 L862 990 L862 912 L1033 912 L710 111 L386 912 L558 912 L558 990 L110 990 L110 912 L282 912 L664 0 L558 -255 C511 -368 475 -454 341 -454 L249 -454 L249 -532 L341 -532 C516 -532 568 -450 634 -291 L1137 912 L1310 912 Z " />
<glyph glyph-name="thorn" unicode="&#xfe;" horiz-adv-x="1340" d="M288 1438 L288 -454 L110 -454 L110 -532 L558 -532 L558 -454 L380 -454 L380 229 C439 91 580 -20 767 -20 C1057 -20 1250 191 1250 495 C1250 799 1057 1010 767 1010 C580 1010 439 899 380 761 L380 1516 L110 1516 L110 1438 L288 1438 Z M767 932 C1023 932 1154 720 1154 495 C1154 270 1023 58 767 58 C511 58 380 270 380 495 C380 720 511 932 767 932 L767 932 Z " />
<glyph glyph-name="ydieresis" unicode="&#xff;" horiz-adv-x="1420" d="M473 1270 C473 1229 507 1195 548 1195 C589 1195 623 1229 623 1270 C623 1311 589 1345 548 1345 C507 1345 473 1311 473 1270 L473 1270 Z M798 1270 C798 1229 832 1195 873 1195 C914 1195 948 1229 948 1270 C948 1311 914 1345 873 1345 C832 1345 798 1311 798 1270 L798 1270 Z M1310 912 L1310 990 L862 990 L862 912 L1033 912 L710 111 L386 912 L558 912 L558 990 L110 990 L110 912 L282 912 L664 0 L558 -255 C511 -368 475 -454 341 -454 L249 -454 L249 -532 L341 -532 C516 -532 568 -450 634 -291 L1137 912 L1310 912 Z " />
<glyph glyph-name="Amacron" unicode="&#x100;" horiz-adv-x="1700" d="M512 1536 L1188 1536 L1188 1614 L512 1614 L512 1536 Z M591 1434 L591 1346 L768 1346 L242 88 L70 88 L70 0 L518 0 L518 88 L346 88 L506 475 L1193 475 L1353 88 L1182 88 L1182 0 L1630 0 L1630 88 L1458 88 L895 1434 L591 1434 Z M850 1306 L1157 563 L543 563 L850 1306 Z " />
<glyph glyph-name="amacron" unicode="&#x101;" horiz-adv-x="1209" d="M212 1356 L888 1356 L888 1434 L212 1434 L212 1356 Z M556 932 C826 932 829 770 829 630 C552 656 90 633 90 293 C90 87 240 -20 464 -20 C658 -20 772 78 829 218 L829 0 L1099 0 L1099 78 L921 78 L921 592 C921 770 916 1010 556 1010 C416 1010 283 979 190 924 L229 852 C309 902 456 932 556 932 L556 932 Z M186 293 C186 548 575 577 829 557 L829 429 C829 262 708 68 464 68 C281 68 186 157 186 293 L186 293 Z " />
<glyph glyph-name="Abreve" unicode="&#x102;" horiz-adv-x="1700" d="M850 1536 C1080 1536 1146 1688 1160 1754 L1072 1754 C1029 1652 949 1619 850 1619 C751 1619 671 1652 628 1754 L540 1754 C554 1688 620 1536 850 1536 L850 1536 Z M591 1434 L591 1346 L768 1346 L242 88 L70 88 L70 0 L518 0 L518 88 L346 88 L506 475 L1193 475 L1353 88 L1182 88 L1182 0 L1630 0 L1630 88 L1458 88 L895 1434 L591 1434 Z M850 1306 L1157 563 L543 563 L850 1306 Z " />
<glyph glyph-name="abreve" unicode="&#x103;" horiz-adv-x="1209" d="M560 1216 C790 1216 856 1368 870 1434 L782 1434 C739 1332 659 1299 560 1299 C461 1299 381 1332 338 1434 L250 1434 C264 1368 330 1216 560 1216 L560 1216 Z M556 932 C826 932 829 770 829 630 C552 656 90 633 90 293 C90 87 240 -20 464 -20 C658 -20 772 78 829 218 L829 0 L1099 0 L1099 78 L921 78 L921 592 C921 770 916 1010 556 1010 C416 1010 283 979 190 924 L229 852 C309 902 456 932 556 932 L556 932 Z M186 293 C186 548 575 577 829 557 L829 429 C829 262 708 68 464 68 C281 68 186 157 186 293 L186 293 Z " />
<glyph glyph-name="Aogonek" unicode="&#x104;" horiz-adv-x="1700" d="M591 1434 L591 1346 L768 1346 L242 88 L70 88 L70 0 L518 0 L518 88 L346 88 L506 475 L1193 475 L1353 88 L1182 88 L1182 0 L1562 0 C1540 -3 1381 -30 1366 -172 C1348 -336 1516 -372 1600 -365 L1600 -272 C1600 -272 1454 -278 1454 -173 C1454 -30 1612 -2 1630 0 L1630 88 L1458 88 L895 1434 L591 1434 Z M850 1306 L1157 563 L543 563 L850 1306 Z " />
<glyph glyph-name="aogonek" unicode="&#x105;" horiz-adv-x="1209" d="M556 932 C826 932 829 770 829 630 C552 656 90 633 90 293 C90 87 240 -20 464 -20 C658 -20 772 78 829 218 L829 0 L1031 0 C1009 -3 850 -30 835 -172 C817 -336 985 -372 1069 -365 L1069 -272 C1069 -272 923 -278 923 -173 C923 -30 1081 -2 1099 0 L1099 78 L921 78 L921 592 C921 770 916 1010 556 1010 C416 1010 283 979 190 924 L229 852 C309 902 456 932 556 932 L556 932 Z M186 293 C186 548 575 577 829 557 L829 429 C829 262 708 68 464 68 C281 68 186 157 186 293 L186 293 Z " />
<glyph glyph-name="Cacute" unicode="&#x106;" horiz-adv-x="1378" d="M761 1536 L865 1536 L1119 1807 L983 1807 L761 1536 Z M212 717 C212 1079 419 1366 817 1366 C1028 1366 1152 1307 1152 1307 L1152 1170 L1248 1170 L1248 1363 C1248 1363 1092 1454 817 1454 C358 1454 110 1120 110 717 C110 314 358 -20 817 -20 C1040 -20 1166 30 1248 90 L1196 160 C1130 118 1023 68 817 68 C419 68 212 355 212 717 L212 717 Z " />
<glyph glyph-name="cacute" unicode="&#x107;" horiz-adv-x="1083" d="M536 1163 L640 1163 L894 1434 L758 1434 L536 1163 Z M953 736 L953 918 C953 918 818 1010 596 1010 C294 1010 90 797 90 495 C90 193 294 -20 596 -20 C742 -20 855 6 953 85 L902 149 C816 84 717 58 596 58 C341 58 184 248 184 495 C184 742 341 932 596 932 C766 932 861 872 861 872 L861 736 L953 736 Z " />
<glyph glyph-name="Ccircumflex" unicode="&#x108;" horiz-adv-x="1378" d="M840 1837 L794 1837 L550 1536 L648 1536 L817 1734 L986 1536 L1084 1536 L840 1837 Z M212 717 C212 1079 419 1366 817 1366 C1028 1366 1152 1307 1152 1307 L1152 1170 L1248 1170 L1248 1363 C1248 1363 1092 1454 817 1454 C358 1454 110 1120 110 717 C110 314 358 -20 817 -20 C1040 -20 1166 30 1248 90 L1196 160 C1130 118 1023 68 817 68 C419 68 212 355 212 717 L212 717 Z " />
<glyph glyph-name="ccircumflex" unicode="&#x109;" horiz-adv-x="1083" d="M619 1434 L573 1434 L329 1133 L427 1133 L596 1331 L765 1133 L863 1133 L619 1434 Z M953 736 L953 918 C953 918 818 1010 596 1010 C294 1010 90 797 90 495 C90 193 294 -20 596 -20 C742 -20 855 6 953 85 L902 149 C816 84 717 58 596 58 C341 58 184 248 184 495 C184 742 341 932 596 932 C766 932 861 872 861 872 L861 736 L953 736 Z " />
<glyph glyph-name="Cdotaccent" unicode="&#x10a;" horiz-adv-x="1378" d="M742 1631 C742 1590 776 1556 817 1556 C858 1556 892 1590 892 1631 C892 1672 858 1706 817 1706 C776 1706 742 1672 742 1631 L742 1631 Z M212 717 C212 1079 419 1366 817 1366 C1028 1366 1152 1307 1152 1307 L1152 1170 L1248 1170 L1248 1363 C1248 1363 1092 1454 817 1454 C358 1454 110 1120 110 717 C110 314 358 -20 817 -20 C1040 -20 1166 30 1248 90 L1196 160 C1130 118 1023 68 817 68 C419 68 212 355 212 717 L212 717 Z " />
<glyph glyph-name="cdotaccent" unicode="&#x10b;" horiz-adv-x="1083" d="M521 1270 C521 1229 555 1195 596 1195 C637 1195 671 1229 671 1270 C671 1311 637 1345 596 1345 C555 1345 521 1311 521 1270 L521 1270 Z M953 736 L953 918 C953 918 818 1010 596 1010 C294 1010 90 797 90 495 C90 193 294 -20 596 -20 C742 -20 855 6 953 85 L902 149 C816 84 717 58 596 58 C341 58 184 248 184 495 C184 742 341 932 596 932 C766 932 861 872 861 872 L861 736 L953 736 Z " />
<glyph glyph-name="Ccaron" unicode="&#x10c;" horiz-adv-x="1378" d="M1070 1837 L972 1837 L803 1639 L634 1837 L536 1837 L780 1536 L826 1536 L1070 1837 Z M212 717 C212 1079 419 1366 817 1366 C1028 1366 1152 1307 1152 1307 L1152 1170 L1248 1170 L1248 1363 C1248 1363 1092 1454 817 1454 C358 1454 110 1120 110 717 C110 314 358 -20 817 -20 C1040 -20 1166 30 1248 90 L1196 160 C1130 118 1023 68 817 68 C419 68 212 355 212 717 L212 717 Z " />
<glyph glyph-name="ccaron" unicode="&#x10d;" horiz-adv-x="1083" d="M858 1434 L760 1434 L591 1236 L422 1434 L324 1434 L568 1133 L614 1133 L858 1434 Z M953 736 L953 918 C953 918 818 1010 596 1010 C294 1010 90 797 90 495 C90 193 294 -20 596 -20 C742 -20 855 6 953 85 L902 149 C816 84 717 58 596 58 C341 58 184 248 184 495 C184 742 341 932 596 932 C766 932 861 872 861 872 L861 736 L953 736 Z " />
<glyph glyph-name="Dcaron" unicode="&#x10e;" horiz-adv-x="1506" d="M938 1837 L840 1837 L671 1639 L502 1837 L404 1837 L648 1536 L694 1536 L938 1837 Z M130 0 L713 0 C1212 0 1416 303 1416 717 C1416 1130 1212 1434 713 1434 L130 1434 L130 1346 L306 1346 L306 88 L130 88 L130 0 Z M713 1346 C1171 1346 1314 1068 1314 717 C1314 366 1171 88 713 88 L402 88 L402 1346 L713 1346 Z " />
<glyph glyph-name="dcaron" unicode="&#x10f;" horiz-adv-x="1241" d="M1052 78 L1052 1516 L782 1516 L782 1438 L960 1438 L960 761 C901 899 760 1010 573 1010 C283 1010 90 799 90 495 C90 191 283 -20 573 -20 C760 -20 901 91 960 229 L960 0 L1230 0 L1230 78 L1052 78 Z M573 932 C829 932 960 720 960 495 C960 270 829 58 573 58 C317 58 186 270 186 495 C186 720 317 932 573 932 L573 932 Z M1127 1119 L1211 1119 L1332 1516 L1219 1516 L1127 1119 Z " />
<glyph glyph-name="Dcroat" unicode="&#x110;" horiz-adv-x="1561" d="M185 0 L768 0 C1267 0 1471 303 1471 717 C1471 1130 1267 1434 768 1434 L185 1434 L185 1346 L361 1346 L361 760 L130 760 L130 672 L361 672 L361 88 L185 88 L185 0 Z M768 1346 C1226 1346 1369 1068 1369 717 C1369 366 1226 88 768 88 L457 88 L457 672 L795 672 L795 760 L457 760 L457 1346 L768 1346 Z " />
<glyph glyph-name="dcroat" unicode="&#x111;" horiz-adv-x="1310" d="M1052 78 L1052 1177 L1240 1177 L1240 1255 L1052 1255 L1052 1516 L782 1516 L782 1438 L960 1438 L960 1255 L663 1255 L663 1177 L960 1177 L960 761 C901 899 760 1010 573 1010 C283 1010 90 799 90 495 C90 191 283 -20 573 -20 C760 -20 901 91 960 229 L960 0 L1230 0 L1230 78 L1052 78 Z M573 932 C829 932 960 720 960 495 C960 270 829 58 573 58 C317 58 186 270 186 495 C186 720 317 932 573 932 L573 932 Z " />
<glyph glyph-name="Emacron" unicode="&#x112;" horiz-adv-x="1374" d="M357 1536 L1033 1536 L1033 1614 L357 1614 L357 1536 Z M1138 1170 L1234 1170 L1234 1434 L130 1434 L130 1346 L306 1346 L306 88 L130 88 L130 0 L1244 0 L1244 264 L1148 264 L1148 88 L402 88 L402 690 L1116 690 L1116 778 L402 778 L402 1346 L1138 1346 L1138 1170 Z " />
<glyph glyph-name="emacron" unicode="&#x113;" horiz-adv-x="1108" d="M554 58 C311 58 198 238 187 455 L1018 455 C1018 840 806 1010 554 1010 C260 1010 90 796 90 495 C90 194 260 -20 554 -20 C778 -20 889 54 949 115 L885 174 C818 108 719 58 554 58 L554 58 Z M187 533 C198 752 311 932 554 932 C797 932 910 753 921 533 L187 533 Z M216 1356 L892 1356 L892 1434 L216 1434 L216 1356 Z " />
<glyph glyph-name="Ebreve" unicode="&#x114;" horiz-adv-x="1374" d="M685 1536 C915 1536 981 1688 995 1754 L907 1754 C864 1652 784 1619 685 1619 C586 1619 506 1652 463 1754 L375 1754 C389 1688 455 1536 685 1536 L685 1536 Z M1138 1170 L1234 1170 L1234 1434 L130 1434 L130 1346 L306 1346 L306 88 L130 88 L130 0 L1244 0 L1244 264 L1148 264 L1148 88 L402 88 L402 690 L1116 690 L1116 778 L402 778 L402 1346 L1138 1346 L1138 1170 Z " />
<glyph glyph-name="ebreve" unicode="&#x115;" horiz-adv-x="1108" d="M554 58 C311 58 198 238 187 455 L1018 455 C1018 840 806 1010 554 1010 C260 1010 90 796 90 495 C90 194 260 -20 554 -20 C778 -20 889 54 949 115 L885 174 C818 108 719 58 554 58 L554 58 Z M187 533 C198 752 311 932 554 932 C797 932 910 753 921 533 L187 533 Z M553 1216 C783 1216 849 1368 863 1434 L775 1434 C732 1332 652 1299 553 1299 C454 1299 374 1332 331 1434 L243 1434 C257 1368 323 1216 553 1216 L553 1216 Z " />
<glyph glyph-name="Edotaccent" unicode="&#x116;" horiz-adv-x="1374" d="M630 1631 C630 1590 664 1556 705 1556 C746 1556 780 1590 780 1631 C780 1672 746 1706 705 1706 C664 1706 630 1672 630 1631 L630 1631 Z M1138 1170 L1234 1170 L1234 1434 L130 1434 L130 1346 L306 1346 L306 88 L130 88 L130 0 L1244 0 L1244 264 L1148 264 L1148 88 L402 88 L402 690 L1116 690 L1116 778 L402 778 L402 1346 L1138 1346 L1138 1170 Z " />
<glyph glyph-name="edotaccent" unicode="&#x117;" horiz-adv-x="1108" d="M479 1270 C479 1229 513 1195 554 1195 C595 1195 629 1229 629 1270 C629 1311 595 1345 554 1345 C513 1345 479 1311 479 1270 L479 1270 Z M554 58 C311 58 198 238 187 455 L1018 455 C1018 840 806 1010 554 1010 C260 1010 90 796 90 495 C90 194 260 -20 554 -20 C778 -20 889 54 949 115 L885 174 C818 108 719 58 554 58 L554 58 Z M187 533 C198 752 311 932 554 932 C797 932 910 753 921 533 L187 533 Z " />
<glyph glyph-name="Eogonek" unicode="&#x118;" horiz-adv-x="1374" d="M1138 1170 L1234 1170 L1234 1434 L130 1434 L130 1346 L306 1346 L306 88 L130 88 L130 0 L1176 0 C1154 -3 995 -30 980 -172 C962 -336 1130 -372 1214 -365 L1214 -272 C1214 -272 1068 -278 1068 -173 C1068 -33 1218 -3 1244 0 L1244 264 L1148 264 L1148 88 L402 88 L402 690 L1116 690 L1116 778 L402 778 L402 1346 L1138 1346 L1138 1170 Z " />
<glyph glyph-name="eogonek" unicode="&#x119;" horiz-adv-x="1108" d="M554 58 C311 58 198 238 187 455 L1018 455 C1018 840 806 1010 554 1010 C260 1010 90 796 90 495 C90 194 260 -20 554 -20 C570 -20 585 -19 600 -19 C547 -40 482 -84 472 -172 C454 -336 622 -372 706 -365 L706 -272 C706 -272 560 -278 560 -173 C560 -62 656 -21 706 -7 C832 17 904 69 949 115 L885 174 C818 108 719 58 554 58 L554 58 Z M187 533 C198 752 311 932 554 932 C797 932 910 753 921 533 L187 533 Z " />
<glyph glyph-name="Ecaron" unicode="&#x11a;" horiz-adv-x="1374" d="M962 1857 L864 1857 L695 1659 L526 1857 L428 1857 L672 1556 L718 1556 L962 1857 Z M1138 1170 L1234 1170 L1234 1434 L130 1434 L130 1346 L306 1346 L306 88 L130 88 L130 0 L1244 0 L1244 264 L1148 264 L1148 88 L402 88 L402 690 L1116 690 L1116 778 L402 778 L402 1346 L1138 1346 L1138 1170 Z " />
<glyph glyph-name="ecaron" unicode="&#x11b;" horiz-adv-x="1108" d="M821 1434 L723 1434 L554 1236 L385 1434 L287 1434 L531 1133 L577 1133 L821 1434 Z M554 58 C311 58 198 238 187 455 L1018 455 C1018 840 806 1010 554 1010 C260 1010 90 796 90 495 C90 194 260 -20 554 -20 C778 -20 889 54 949 115 L885 174 C818 108 719 58 554 58 L554 58 Z M187 533 C198 752 311 932 554 932 C797 932 910 753 921 533 L187 533 Z " />
<glyph glyph-name="Gcircumflex" unicode="&#x11c;" horiz-adv-x="1477" d="M840 1837 L794 1837 L550 1536 L648 1536 L817 1734 L986 1536 L1084 1536 L840 1837 Z M817 68 C409 68 212 365 212 717 C212 1069 409 1366 817 1366 C1088 1366 1240 1291 1240 1291 L1240 1170 L1336 1170 L1336 1341 C1336 1341 1156 1454 817 1454 C358 1454 110 1120 110 717 C110 314 358 -20 817 -20 C990 -20 1200 20 1347 146 L1347 771 L858 771 L858 681 L1251 681 L1251 192 C1150 110 962 68 817 68 L817 68 Z " />
<glyph glyph-name="gcircumflex" unicode="&#x11d;" horiz-adv-x="1340" d="M592 1434 L546 1434 L302 1133 L400 1133 L569 1331 L738 1133 L836 1133 L592 1434 Z M960 761 C901 899 760 1010 573 1010 C283 1010 90 799 90 495 C90 191 283 -20 573 -20 C760 -20 901 91 960 229 L960 0 C960 -339 805 -452 566 -452 C432 -452 320 -410 245 -358 L192 -428 C279 -498 418 -532 566 -532 C813 -532 1052 -424 1052 0 L1052 912 L1230 912 L1230 990 L960 990 L960 761 Z M573 932 C829 932 960 720 960 495 C960 270 829 58 573 58 C317 58 186 270 186 495 C186 720 317 932 573 932 L573 932 Z " />
<glyph glyph-name="Gbreve" unicode="&#x11e;" horiz-adv-x="1477" d="M817 1536 C1047 1536 1113 1688 1127 1754 L1039 1754 C996 1652 916 1619 817 1619 C718 1619 638 1652 595 1754 L507 1754 C521 1688 587 1536 817 1536 L817 1536 Z M817 68 C409 68 212 365 212 717 C212 1069 409 1366 817 1366 C1088 1366 1240 1291 1240 1291 L1240 1170 L1336 1170 L1336 1341 C1336 1341 1156 1454 817 1454 C358 1454 110 1120 110 717 C110 314 358 -20 817 -20 C990 -20 1200 20 1347 146 L1347 771 L858 771 L858 681 L1251 681 L1251 192 C1150 110 962 68 817 68 L817 68 Z " />
<glyph glyph-name="gbreve" unicode="&#x11f;" horiz-adv-x="1340" d="M568 1216 C798 1216 864 1368 878 1434 L790 1434 C747 1332 667 1299 568 1299 C469 1299 389 1332 346 1434 L258 1434 C272 1368 338 1216 568 1216 L568 1216 Z M960 761 C901 899 760 1010 573 1010 C283 1010 90 799 90 495 C90 191 283 -20 573 -20 C760 -20 901 91 960 229 L960 0 C960 -339 805 -452 566 -452 C432 -452 320 -410 245 -358 L192 -428 C279 -498 418 -532 566 -532 C813 -532 1052 -424 1052 0 L1052 912 L1230 912 L1230 990 L960 990 L960 761 Z M573 932 C829 932 960 720 960 495 C960 270 829 58 573 58 C317 58 186 270 186 495 C186 720 317 932 573 932 L573 932 Z " />
<glyph glyph-name="Gdotaccent" unicode="&#x120;" horiz-adv-x="1477" d="M742 1631 C742 1590 776 1556 817 1556 C858 1556 892 1590 892 1631 C892 1672 858 1706 817 1706 C776 1706 742 1672 742 1631 L742 1631 Z M817 68 C409 68 212 365 212 717 C212 1069 409 1366 817 1366 C1088 1366 1240 1291 1240 1291 L1240 1170 L1336 1170 L1336 1341 C1336 1341 1156 1454 817 1454 C358 1454 110 1120 110 717 C110 314 358 -20 817 -20 C990 -20 1200 20 1347 146 L1347 771 L858 771 L858 681 L1251 681 L1251 192 C1150 110 962 68 817 68 L817 68 Z " />
<glyph glyph-name="gdotaccent" unicode="&#x121;" horiz-adv-x="1340" d="M494 1270 C494 1229 528 1195 569 1195 C610 1195 644 1229 644 1270 C644 1311 610 1345 569 1345 C528 1345 494 1311 494 1270 L494 1270 Z M960 761 C901 899 760 1010 573 1010 C283 1010 90 799 90 495 C90 191 283 -20 573 -20 C760 -20 901 91 960 229 L960 0 C960 -339 805 -452 566 -452 C432 -452 320 -410 245 -358 L192 -428 C279 -498 418 -532 566 -532 C813 -532 1052 -424 1052 0 L1052 912 L1230 912 L1230 990 L960 990 L960 761 Z M573 932 C829 932 960 720 960 495 C960 270 829 58 573 58 C317 58 186 270 186 495 C186 720 317 932 573 932 L573 932 Z " />
<glyph glyph-name="Gcommaaccent" unicode="&#x122;" horiz-adv-x="1477" d="M616 -532 L700 -532 L880 -134 L768 -134 L616 -532 Z M817 68 C409 68 212 365 212 717 C212 1069 409 1366 817 1366 C1088 1366 1240 1291 1240 1291 L1240 1170 L1336 1170 L1336 1341 C1336 1341 1156 1454 817 1454 C358 1454 110 1120 110 717 C110 314 358 -20 817 -20 C990 -20 1200 20 1347 146 L1347 771 L858 771 L858 681 L1251 681 L1251 192 C1150 110 962 68 817 68 L817 68 Z " />
<glyph glyph-name="gcommaaccent" unicode="&#x123;" horiz-adv-x="1340" d="M775 1516 L691 1516 L511 1118 L623 1118 L775 1516 Z M960 761 C901 899 760 1010 573 1010 C283 1010 90 799 90 495 C90 191 283 -20 573 -20 C760 -20 901 91 960 229 L960 0 C960 -339 805 -452 566 -452 C432 -452 320 -410 245 -358 L192 -428 C279 -498 418 -532 566 -532 C813 -532 1052 -424 1052 0 L1052 912 L1230 912 L1230 990 L960 990 L960 761 Z M573 932 C829 932 960 720 960 495 C960 270 829 58 573 58 C317 58 186 270 186 495 C186 720 317 932 573 932 L573 932 Z " />
<glyph glyph-name="Hcircumflex" unicode="&#x124;" horiz-adv-x="1668" d="M857 1837 L811 1837 L567 1536 L665 1536 L834 1734 L1003 1536 L1101 1536 L857 1837 Z M130 0 L578 0 L578 88 L402 88 L402 690 L1266 690 L1266 88 L1090 88 L1090 0 L1538 0 L1538 88 L1362 88 L1362 1346 L1538 1346 L1538 1434 L1090 1434 L1090 1346 L1266 1346 L1266 778 L402 778 L402 1346 L578 1346 L578 1434 L130 1434 L130 1346 L306 1346 L306 88 L130 88 L130 0 Z " />
<glyph glyph-name="hcircumflex" unicode="&#x125;" horiz-adv-x="1408" d="M727 1837 L681 1837 L437 1536 L535 1536 L704 1734 L873 1536 L971 1536 L727 1837 Z M288 1438 L288 78 L110 78 L110 0 L558 0 L558 78 L380 78 L380 538 C380 775 473 932 704 932 C935 932 1028 775 1028 538 L1028 0 L1298 0 L1298 78 L1120 78 L1120 538 C1120 840 978 1010 704 1010 C542 1010 420 925 380 795 L380 1516 L110 1516 L110 1438 L288 1438 Z " />
<glyph glyph-name="Hbar" unicode="&#x126;" horiz-adv-x="1734" d="M163 0 L611 0 L611 88 L435 88 L435 690 L1299 690 L1299 88 L1123 88 L1123 0 L1571 0 L1571 88 L1395 88 L1395 1026 L1604 1026 L1604 1110 L1395 1110 L1395 1346 L1571 1346 L1571 1434 L1123 1434 L1123 1346 L1299 1346 L1299 1110 L435 1110 L435 1346 L611 1346 L611 1434 L163 1434 L163 1346 L339 1346 L339 1110 L130 1110 L130 1026 L339 1026 L339 88 L163 88 L163 0 Z M1299 1026 L1299 778 L435 778 L435 1026 L1299 1026 Z " />
<glyph glyph-name="hbar" unicode="&#x127;" horiz-adv-x="1439" d="M411 795 L411 1196 L713 1196 L713 1274 L411 1274 L411 1516 L141 1516 L141 1438 L319 1438 L319 1274 L110 1274 L110 1196 L319 1196 L319 78 L141 78 L141 0 L589 0 L589 78 L411 78 L411 538 C411 775 504 932 735 932 C966 932 1059 775 1059 538 L1059 0 L1329 0 L1329 78 L1151 78 L1151 538 C1151 840 1009 1010 735 1010 C573 1010 451 925 411 795 L411 795 Z " />
<glyph glyph-name="Itilde" unicode="&#x128;" horiz-adv-x="729" d="M339 1614 C375 1578 413 1536 484 1536 C624 1536 639 1705 639 1705 L550 1705 C550 1705 538 1619 484 1619 C443 1619 419 1651 390 1680 C354 1716 316 1758 245 1758 C105 1758 90 1589 90 1589 L179 1589 C179 1589 191 1675 245 1675 C286 1675 310 1643 339 1614 L339 1614 Z M140 0 L588 0 L588 88 L412 88 L412 1346 L588 1346 L588 1434 L140 1434 L140 1346 L316 1346 L316 88 L140 88 L140 0 Z " />
<glyph glyph-name="itilde" unicode="&#x129;" horiz-adv-x="689" d="M319 1290 C355 1254 393 1212 464 1212 C604 1212 619 1381 619 1381 L530 1381 C530 1381 518 1295 464 1295 C423 1295 399 1327 370 1356 C334 1392 296 1434 225 1434 C85 1434 70 1265 70 1265 L159 1265 C159 1265 171 1351 225 1351 C266 1351 290 1319 319 1290 L319 1290 Z M298 912 L298 78 L120 78 L120 0 L568 0 L568 78 L390 78 L390 990 L120 990 L120 912 L298 912 Z " />
<glyph glyph-name="uni012A" unicode="&#x12a;" horiz-adv-x="856" d="M90 1536 L766 1536 L766 1614 L90 1614 L90 1536 Z M204 0 L652 0 L652 88 L476 88 L476 1346 L652 1346 L652 1434 L204 1434 L204 1346 L380 1346 L380 88 L204 88 L204 0 Z " />
<glyph glyph-name="imacron" unicode="&#x12b;" horiz-adv-x="756" d="M40 1356 L716 1356 L716 1434 L40 1434 L40 1356 Z M332 912 L332 78 L154 78 L154 0 L602 0 L602 78 L424 78 L424 990 L154 990 L154 912 L332 912 Z " />
<glyph glyph-name="Ibreve" unicode="&#x12c;" horiz-adv-x="800" d="M400 1556 C630 1556 696 1708 710 1774 L622 1774 C579 1672 499 1639 400 1639 C301 1639 221 1672 178 1774 L90 1774 C104 1708 170 1556 400 1556 L400 1556 Z M176 0 L624 0 L624 88 L448 88 L448 1346 L624 1346 L624 1434 L176 1434 L176 1346 L352 1346 L352 88 L176 88 L176 0 Z " />
<glyph glyph-name="uni012D" unicode="&#x12d;" horiz-adv-x="700" d="M350 1216 C580 1216 646 1368 660 1434 L572 1434 C529 1332 449 1299 350 1299 C251 1299 171 1332 128 1434 L40 1434 C54 1368 120 1216 350 1216 L350 1216 Z M304 912 L304 78 L126 78 L126 0 L574 0 L574 78 L396 78 L396 990 L126 990 L126 912 L304 912 Z " />
<glyph glyph-name="Iogonek" unicode="&#x12e;" horiz-adv-x="628" d="M90 0 L470 0 C448 -3 289 -30 274 -172 C256 -336 424 -372 508 -365 L508 -272 C508 -272 362 -278 362 -173 C362 -33 512 -3 538 0 L538 88 L362 88 L362 1346 L538 1346 L538 1434 L90 1434 L90 1346 L266 1346 L266 88 L90 88 L90 0 Z " />
<glyph glyph-name="iogonek" unicode="&#x12f;" horiz-adv-x="628" d="M288 912 L288 78 L110 78 L110 0 L490 0 C468 -3 309 -30 294 -172 C276 -336 444 -372 528 -365 L528 -272 C528 -272 382 -278 382 -173 C382 -23 558 0 558 0 L558 78 L380 78 L380 990 L110 990 L110 912 L288 912 Z M259 1270 C259 1229 293 1195 334 1195 C375 1195 409 1229 409 1270 C409 1311 375 1345 334 1345 C293 1345 259 1311 259 1270 L259 1270 Z " />
<glyph glyph-name="Idotaccent" unicode="&#x130;" horiz-adv-x="708" d="M279 1631 C279 1590 313 1556 354 1556 C395 1556 429 1590 429 1631 C429 1672 395 1706 354 1706 C313 1706 279 1672 279 1631 L279 1631 Z M130 0 L578 0 L578 88 L402 88 L402 1346 L578 1346 L578 1434 L130 1434 L130 1346 L306 1346 L306 88 L130 88 L130 0 Z " />
<glyph glyph-name="dotlessi" unicode="&#x131;" horiz-adv-x="668" d="M288 912 L288 78 L110 78 L110 0 L558 0 L558 78 L380 78 L380 990 L110 990 L110 912 L288 912 Z " />
<glyph glyph-name="IJ" unicode="&#x132;" horiz-adv-x="1784" d="M707 192 C765 60 883 -20 1073 -20 C1339 -20 1478 123 1478 432 L1478 1346 L1654 1346 L1654 1434 L1206 1434 L1206 1346 L1382 1346 L1382 432 C1382 212 1324 68 1073 68 C909 68 839 147 793 226 L707 192 Z M130 0 L578 0 L578 88 L402 88 L402 1346 L578 1346 L578 1434 L130 1434 L130 1346 L306 1346 L306 88 L130 88 L130 0 Z " />
<glyph glyph-name="ij" unicode="&#x133;" horiz-adv-x="1044" d="M885 -72 L885 990 L615 990 L615 912 L793 912 L793 -72 C793 -281 781 -454 616 -454 C565 -454 523 -446 486 -431 L461 -504 C501 -523 553 -532 616 -532 C835 -532 885 -366 885 -72 L885 -72 Z M288 912 L288 78 L110 78 L110 0 L558 0 L558 78 L380 78 L380 990 L110 990 L110 912 L288 912 Z M259 1270 C259 1229 293 1195 334 1195 C375 1195 409 1229 409 1270 C409 1311 375 1345 334 1345 C293 1345 259 1311 259 1270 L259 1270 Z M764 1270 C764 1229 798 1195 839 1195 C880 1195 914 1229 914 1270 C914 1311 880 1345 839 1345 C798 1345 764 1311 764 1270 L764 1270 Z " />
<glyph glyph-name="Jcircumflex" unicode="&#x134;" horiz-adv-x="1210" d="M836 1837 L790 1837 L546 1536 L644 1536 L813 1734 L982 1536 L1080 1536 L836 1837 Z M90 192 C148 60 266 -20 456 -20 C722 -20 861 123 861 432 L861 1346 L1037 1346 L1037 1434 L589 1434 L589 1346 L765 1346 L765 432 C765 212 707 68 456 68 C292 68 222 147 176 226 L90 192 Z " />
<glyph glyph-name="jcircumflex" unicode="&#x135;" horiz-adv-x="537" d="M293 1434 L247 1434 L3 1133 L101 1133 L270 1331 L439 1133 L537 1133 L293 1434 Z M222 912 L222 -72 C222 -281 210 -454 45 -454 C-6 -454 -48 -446 -85 -431 L-110 -504 C-70 -523 -18 -532 45 -532 C264 -532 314 -366 314 -72 L314 990 L44 990 L44 912 L222 912 Z " />
<glyph glyph-name="Kcommaaccent" unicode="&#x136;" horiz-adv-x="1536" d="M571 -532 L655 -532 L835 -134 L723 -134 L571 -532 Z M130 0 L578 0 L578 88 L402 88 L402 539 L619 750 L1194 0 L1406 0 L1406 88 L1242 88 L684 813 L1234 1346 L1396 1346 L1396 1434 L948 1434 L948 1346 L1108 1346 L402 668 L402 1346 L578 1346 L578 1434 L130 1434 L130 1346 L306 1346 L306 88 L130 88 L130 0 Z " />
<glyph glyph-name="kcommaaccent" unicode="&#x137;" horiz-adv-x="1275" d="M448 -532 L532 -532 L712 -134 L600 -134 L448 -532 Z M380 498 L380 1516 L110 1516 L110 1438 L288 1438 L288 78 L110 78 L110 0 L558 0 L558 78 L380 78 L380 388 L561 543 L967 0 L1165 0 L1165 78 L1018 78 L627 599 L993 912 L1154 912 L1154 990 L706 990 L706 912 L864 912 L380 498 Z " />
<glyph glyph-name="kgreenlandic" unicode="&#x138;" horiz-adv-x="1481" d="M306 1346 L306 88 L130 88 L130 0 L578 0 L578 88 L402 88 L402 650 L516 749 C687 659 916 456 1112 0 L1351 0 L1351 88 L1180 88 C1011 485 758 714 584 810 C788 988 1009 1329 1263 1344 L1263 1434 C968 1443 731 1037 402 763 L402 1346 L578 1346 L578 1434 L130 1434 L130 1346 L306 1346 Z " />
<glyph glyph-name="Lacute" unicode="&#x139;" horiz-adv-x="1285" d="M301 1536 L405 1536 L659 1807 L523 1807 L301 1536 Z M130 0 L1155 0 L1155 264 L1059 264 L1059 88 L402 88 L402 1346 L578 1346 L578 1434 L130 1434 L130 1346 L306 1346 L306 88 L130 88 L130 0 Z " />
<glyph glyph-name="lacute" unicode="&#x13a;" horiz-adv-x="670" d="M242 1576 L346 1576 L600 1847 L464 1847 L242 1576 Z M248 1438 L248 78 L70 78 L70 0 L518 0 L518 78 L340 78 L340 1516 L70 1516 L70 1438 L248 1438 Z " />
<glyph glyph-name="Lcommaaccent" unicode="&#x13b;" horiz-adv-x="1285" d="M452 -532 L536 -532 L716 -134 L604 -134 L452 -532 Z M130 0 L1155 0 L1155 264 L1059 264 L1059 88 L402 88 L402 1346 L578 1346 L578 1434 L130 1434 L130 1346 L306 1346 L306 88 L130 88 L130 0 Z " />
<glyph glyph-name="lcommaaccent" unicode="&#x13c;" horiz-adv-x="588" d="M89 -532 L173 -532 L353 -134 L241 -134 L89 -532 Z M248 1438 L248 78 L70 78 L70 0 L518 0 L518 78 L340 78 L340 1516 L70 1516 L70 1438 L248 1438 Z " />
<glyph glyph-name="Lcaron" unicode="&#x13d;" horiz-adv-x="1285" d="M130 0 L1155 0 L1155 264 L1059 264 L1059 88 L402 88 L402 1346 L578 1346 L578 1434 L130 1434 L130 1346 L306 1346 L306 88 L130 88 L130 0 Z M619 1037 L703 1037 L824 1434 L711 1434 L619 1037 Z " />
<glyph glyph-name="lcaron" unicode="&#x13e;" horiz-adv-x="698" d="M248 1438 L248 78 L70 78 L70 0 L518 0 L518 78 L340 78 L340 1516 L70 1516 L70 1438 L248 1438 Z M415 1119 L499 1119 L620 1516 L507 1516 L415 1119 Z " />
<glyph glyph-name="Ldot" unicode="&#x13f;" horiz-adv-x="1285" d="M917 734 C917 693 951 659 992 659 C1033 659 1067 693 1067 734 C1067 775 1033 809 992 809 C951 809 917 775 917 734 L917 734 Z M130 0 L1155 0 L1155 264 L1059 264 L1059 88 L402 88 L402 1346 L578 1346 L578 1434 L130 1434 L130 1346 L306 1346 L306 88 L130 88 L130 0 Z " />
<glyph glyph-name="ldot" unicode="&#x140;" horiz-adv-x="688" d="M288 1438 L288 78 L110 78 L110 0 L558 0 L558 78 L380 78 L380 1516 L110 1516 L110 1438 L288 1438 Z M588 794 C588 753 622 719 663 719 C704 719 738 753 738 794 C738 835 704 869 663 869 C622 869 588 835 588 794 L588 794 Z " />
<glyph glyph-name="Lslash" unicode="&#x141;" horiz-adv-x="1331" d="M176 0 L1201 0 L1201 264 L1105 264 L1105 88 L448 88 L448 701 L670 861 L670 976 L448 816 L448 1346 L624 1346 L624 1434 L176 1434 L176 1346 L352 1346 L352 747 L130 588 L130 473 L352 632 L352 88 L176 88 L176 0 Z " />
<glyph glyph-name="lslash" unicode="&#x142;" horiz-adv-x="674" d="M291 1438 L291 816 L110 679 L110 568 L291 705 L291 78 L113 78 L113 0 L561 0 L561 78 L383 78 L383 775 L564 913 L564 1024 L383 886 L383 1516 L113 1516 L113 1438 L291 1438 Z " />
<glyph glyph-name="Nacute" unicode="&#x143;" horiz-adv-x="1678" d="M756 1536 L860 1536 L1114 1807 L978 1807 L756 1536 Z M130 0 L578 0 L578 88 L402 88 L402 1302 L1254 0 L1372 0 L1372 1346 L1548 1346 L1548 1434 L1100 1434 L1100 1346 L1276 1346 L1276 132 L424 1434 L130 1434 L130 1346 L306 1346 L306 88 L130 88 L130 0 Z " />
<glyph glyph-name="nacute" unicode="&#x144;" horiz-adv-x="1408" d="M637 1163 L741 1163 L995 1434 L859 1434 L637 1163 Z M380 538 C380 775 473 932 704 932 C935 932 1028 775 1028 538 L1028 0 L1298 0 L1298 78 L1120 78 L1120 538 C1120 840 978 1010 704 1010 C542 1010 420 925 380 795 L380 990 L110 990 L110 912 L288 912 L288 78 L110 78 L110 0 L558 0 L558 78 L380 78 L380 538 Z " />
<glyph glyph-name="Ncommaaccent" unicode="&#x145;" horiz-adv-x="1678" d="M634 -532 L718 -532 L898 -134 L786 -134 L634 -532 Z M130 0 L578 0 L578 88 L402 88 L402 1302 L1254 0 L1372 0 L1372 1346 L1548 1346 L1548 1434 L1100 1434 L1100 1346 L1276 1346 L1276 132 L424 1434 L130 1434 L130 1346 L306 1346 L306 88 L130 88 L130 0 Z " />
<glyph glyph-name="ncommaaccent" unicode="&#x146;" horiz-adv-x="1408" d="M499 -532 L583 -532 L763 -134 L651 -134 L499 -532 Z M380 538 C380 775 473 932 704 932 C935 932 1028 775 1028 538 L1028 0 L1298 0 L1298 78 L1120 78 L1120 538 C1120 840 978 1010 704 1010 C542 1010 420 925 380 795 L380 990 L110 990 L110 912 L288 912 L288 78 L110 78 L110 0 L558 0 L558 78 L380 78 L380 538 Z " />
<glyph glyph-name="Ncaron" unicode="&#x147;" horiz-adv-x="1678" d="M1106 1837 L1008 1837 L839 1639 L670 1837 L572 1837 L816 1536 L862 1536 L1106 1837 Z M130 0 L578 0 L578 88 L402 88 L402 1302 L1254 0 L1372 0 L1372 1346 L1548 1346 L1548 1434 L1100 1434 L1100 1346 L1276 1346 L1276 132 L424 1434 L130 1434 L130 1346 L306 1346 L306 88 L130 88 L130 0 Z " />
<glyph glyph-name="ncaron" unicode="&#x148;" horiz-adv-x="1408" d="M971 1434 L873 1434 L704 1236 L535 1434 L437 1434 L681 1133 L727 1133 L971 1434 Z M380 538 C380 775 473 932 704 932 C935 932 1028 775 1028 538 L1028 0 L1298 0 L1298 78 L1120 78 L1120 538 C1120 840 978 1010 704 1010 C542 1010 420 925 380 795 L380 990 L110 990 L110 912 L288 912 L288 78 L110 78 L110 0 L558 0 L558 78 L380 78 L380 538 Z " />
<glyph glyph-name="napostrophe" unicode="&#x149;" horiz-adv-x="1460" d="M10 1036 L94 1036 L274 1434 L162 1434 L10 1036 Z M432 538 C432 775 525 932 756 932 C987 932 1080 775 1080 538 L1080 0 L1350 0 L1350 78 L1172 78 L1172 538 C1172 840 1030 1010 756 1010 C594 1010 472 925 432 795 L432 990 L162 990 L162 912 L340 912 L340 78 L162 78 L162 0 L610 0 L610 78 L432 78 L432 538 Z " />
<glyph glyph-name="Eng" unicode="&#x14a;" horiz-adv-x="1678" d="M130 0 L578 0 L578 88 L402 88 L402 1302 L1254 0 L1276 0 L1276 -80 C1276 -298 1218 -444 997 -444 C883 -444 808 -393 747 -316 L673 -369 C739 -472 847 -532 997 -532 C1243 -532 1372 -389 1372 -80 L1372 1346 L1548 1346 L1548 1434 L1100 1434 L1100 1346 L1276 1346 L1276 132 L424 1434 L130 1434 L130 1346 L306 1346 L306 88 L130 88 L130 0 Z " />
<glyph glyph-name="eng" unicode="&#x14b;" horiz-adv-x="1250" d="M380 538 C380 775 473 932 704 932 C935 932 1028 775 1028 538 L1028 -72 C1028 -281 1016 -454 851 -454 C800 -454 758 -446 721 -431 L696 -504 C736 -523 788 -532 851 -532 C1070 -532 1120 -366 1120 -72 L1120 538 C1120 840 978 1010 704 1010 C542 1010 420 925 380 795 L380 990 L110 990 L110 912 L288 912 L288 78 L110 78 L110 0 L558 0 L558 78 L380 78 L380 538 Z " />
<glyph glyph-name="Omacron" unicode="&#x14c;" horiz-adv-x="1634" d="M110 717 C110 314 358 -20 817 -20 C1276 -20 1524 314 1524 717 C1524 1120 1276 1454 817 1454 C358 1454 110 1120 110 717 L110 717 Z M212 717 C212 1069 409 1366 817 1366 C1225 1366 1422 1069 1422 717 C1422 365 1225 68 817 68 C409 68 212 365 212 717 L212 717 Z M479 1536 L1155 1536 L1155 1614 L479 1614 L479 1536 Z " />
<glyph glyph-name="omacron" unicode="&#x14d;" horiz-adv-x="1192" d="M90 495 C90 193 294 -20 596 -20 C898 -20 1102 193 1102 495 C1102 797 898 1010 596 1010 C292 1010 90 796 90 495 L90 495 Z M184 495 C184 742 341 932 596 932 C850 932 1008 742 1008 495 C1008 248 850 58 596 58 C341 58 184 248 184 495 L184 495 Z M258 1356 L934 1356 L934 1434 L258 1434 L258 1356 Z " />
<glyph glyph-name="Obreve" unicode="&#x14e;" horiz-adv-x="1634" d="M817 1536 C1047 1536 1113 1688 1127 1754 L1039 1754 C996 1652 916 1619 817 1619 C718 1619 638 1652 595 1754 L507 1754 C521 1688 587 1536 817 1536 L817 1536 Z M110 717 C110 314 358 -20 817 -20 C1276 -20 1524 314 1524 717 C1524 1120 1276 1454 817 1454 C358 1454 110 1120 110 717 L110 717 Z M212 717 C212 1069 409 1366 817 1366 C1225 1366 1422 1069 1422 717 C1422 365 1225 68 817 68 C409 68 212 365 212 717 L212 717 Z " />
<glyph glyph-name="obreve" unicode="&#x14f;" horiz-adv-x="1192" d="M90 495 C90 193 294 -20 596 -20 C898 -20 1102 193 1102 495 C1102 797 898 1010 596 1010 C292 1010 90 796 90 495 L90 495 Z M184 495 C184 742 341 932 596 932 C850 932 1008 742 1008 495 C1008 248 850 58 596 58 C341 58 184 248 184 495 L184 495 Z M596 1216 C826 1216 892 1368 906 1434 L818 1434 C775 1332 695 1299 596 1299 C497 1299 417 1332 374 1434 L286 1434 C300 1368 366 1216 596 1216 L596 1216 Z " />
<glyph glyph-name="Ohungarumlaut" unicode="&#x150;" horiz-adv-x="1634" d="M110 717 C110 314 358 -20 817 -20 C1276 -20 1524 314 1524 717 C1524 1120 1276 1454 817 1454 C358 1454 110 1120 110 717 L110 717 Z M212 717 C212 1069 409 1366 817 1366 C1225 1366 1422 1069 1422 717 C1422 365 1225 68 817 68 C409 68 212 365 212 717 L212 717 Z M897 1536 L979 1536 L1150 1895 L1037 1895 L897 1536 Z M661 1536 L745 1536 L915 1895 L802 1895 L661 1536 Z " />
<glyph glyph-name="ohungarumlaut" unicode="&#x151;" horiz-adv-x="1192" d="M90 495 C90 193 294 -20 596 -20 C898 -20 1102 193 1102 495 C1102 797 898 1010 596 1010 C292 1010 90 796 90 495 L90 495 Z M184 495 C184 742 341 932 596 932 C850 932 1008 742 1008 495 C1008 248 850 58 596 58 C341 58 184 248 184 495 L184 495 Z M664 1156 L746 1156 L917 1515 L804 1515 L664 1156 Z M428 1156 L512 1156 L682 1515 L569 1515 L428 1156 Z " />
<glyph glyph-name="OE" unicode="&#x152;" horiz-adv-x="2163" d="M1115 0 L2053 0 L2053 264 L1957 264 L1957 88 L1211 88 L1211 690 L1925 690 L1925 778 L1211 778 L1211 1346 L1947 1346 L1947 1170 L2043 1170 L2043 1434 L1115 1434 L1115 1389 C1024 1430 918 1454 797 1454 C338 1454 90 1120 90 717 C90 314 338 -20 797 -20 C917 -20 1024 4 1115 45 L1115 0 Z M797 1366 C923 1366 1029 1338 1115 1289 L1115 145 C1028 96 923 68 797 68 C389 68 192 365 192 717 C192 1069 389 1366 797 1366 L797 1366 Z " />
<glyph glyph-name="oe" unicode="&#x153;" horiz-adv-x="2026" d="M1472 58 C1229 58 1116 238 1105 455 L1936 455 C1936 840 1724 1010 1472 1010 C1265 1010 1119 904 1051 736 C973 904 808 1010 596 1010 C292 1010 90 796 90 495 C90 193 294 -20 596 -20 C808 -20 973 85 1051 253 C1119 86 1265 -20 1472 -20 C1696 -20 1807 54 1867 115 L1803 174 C1736 108 1637 58 1472 58 L1472 58 Z M184 495 C184 742 341 932 596 932 C850 932 1008 742 1008 495 C1008 248 850 58 596 58 C341 58 184 248 184 495 L184 495 Z M1105 533 C1116 752 1229 932 1472 932 C1715 932 1828 753 1839 533 L1105 533 Z " />
<glyph glyph-name="Racute" unicode="&#x154;" horiz-adv-x="1474" d="M626 1536 L730 1536 L984 1807 L848 1807 L626 1536 Z M130 0 L578 0 L578 88 L402 88 L402 630 L826 630 L1134 0 L1364 0 L1364 88 L1193 88 L928 630 C1177 636 1324 816 1324 1032 C1324 1248 1195 1434 938 1434 L130 1434 L130 1346 L306 1346 L306 88 L130 88 L130 0 Z M938 1346 C1140 1346 1224 1194 1224 1032 C1224 870 1140 718 938 718 L402 718 L402 1346 L938 1346 Z " />
<glyph glyph-name="racute" unicode="&#x155;" horiz-adv-x="943" d="M529 1163 L633 1163 L887 1434 L751 1434 L529 1163 Z M903 971 C847 997 781 1010 704 1010 C542 1010 420 925 380 795 L380 990 L110 990 L110 912 L288 912 L288 78 L110 78 L110 0 L558 0 L558 78 L380 78 L380 538 C380 775 473 932 704 932 C765 932 816 919 859 901 L903 971 Z " />
<glyph glyph-name="Rcommaaccent" unicode="&#x156;" horiz-adv-x="1474" d="M533 -532 L617 -532 L797 -134 L685 -134 L533 -532 Z M130 0 L578 0 L578 88 L402 88 L402 630 L826 630 L1134 0 L1364 0 L1364 88 L1193 88 L928 630 C1177 636 1324 816 1324 1032 C1324 1248 1195 1434 938 1434 L130 1434 L130 1346 L306 1346 L306 88 L130 88 L130 0 Z M938 1346 C1140 1346 1224 1194 1224 1032 C1224 870 1140 718 938 718 L402 718 L402 1346 L938 1346 Z " />
<glyph glyph-name="rcommaaccent" unicode="&#x157;" horiz-adv-x="943" d="M123 -532 L207 -532 L387 -134 L275 -134 L123 -532 Z M903 971 C847 997 781 1010 704 1010 C542 1010 420 925 380 795 L380 990 L110 990 L110 912 L288 912 L288 78 L110 78 L110 0 L558 0 L558 78 L380 78 L380 538 C380 775 473 932 704 932 C765 932 816 919 859 901 L903 971 Z " />
<glyph glyph-name="Rcaron" unicode="&#x158;" horiz-adv-x="1474" d="M951 1837 L853 1837 L684 1639 L515 1837 L417 1837 L661 1536 L707 1536 L951 1837 Z M130 0 L578 0 L578 88 L402 88 L402 630 L826 630 L1134 0 L1364 0 L1364 88 L1193 88 L928 630 C1177 636 1324 816 1324 1032 C1324 1248 1195 1434 938 1434 L130 1434 L130 1346 L306 1346 L306 88 L130 88 L130 0 Z M938 1346 C1140 1346 1224 1194 1224 1032 C1224 870 1140 718 938 718 L402 718 L402 1346 L938 1346 Z " />
<glyph glyph-name="rcaron" unicode="&#x159;" horiz-adv-x="943" d="M862 1434 L764 1434 L595 1236 L426 1434 L328 1434 L572 1133 L618 1133 L862 1434 Z M903 971 C847 997 781 1010 704 1010 C542 1010 420 925 380 795 L380 990 L110 990 L110 912 L288 912 L288 78 L110 78 L110 0 L558 0 L558 78 L380 78 L380 538 C380 775 473 932 704 932 C765 932 816 919 859 901 L903 971 Z " />
<glyph glyph-name="Sacute" unicode="&#x15a;" horiz-adv-x="1307" d="M581 1536 L685 1536 L939 1807 L803 1807 L581 1536 Z M1089 1355 C1089 1355 910 1454 637 1454 C306 1454 173 1290 173 1098 C173 914 292 777 649 698 C972 627 1057 519 1057 360 C1057 173 929 68 656 68 C406 68 246 157 246 157 L246 294 L150 294 L150 108 C150 108 330 -20 656 -20 C946 -20 1157 96 1157 360 C1157 587 1005 711 665 790 C354 862 273 957 273 1098 C273 1283 440 1366 637 1366 C856 1366 993 1303 993 1303 L993 1170 L1089 1170 L1089 1355 Z " />
<glyph glyph-name="sacute" unicode="&#x15b;" horiz-adv-x="992" d="M431 1163 L535 1163 L789 1434 L653 1434 L431 1163 Z M839 937 C839 937 704 1010 488 1010 C222 1010 128 882 128 753 C128 620 218 529 493 475 C710 432 790 374 790 258 C790 128 692 58 494 58 C297 58 202 124 202 124 L202 254 L110 254 L110 83 C110 83 222 -20 494 -20 C727 -20 882 73 882 258 C882 420 763 502 509 552 C295 594 220 653 220 753 C220 860 313 932 488 932 C644 932 747 887 747 887 L747 736 L839 736 L839 937 Z " />
<glyph glyph-name="Scircumflex" unicode="&#x15c;" horiz-adv-x="1307" d="M676 1837 L630 1837 L386 1536 L484 1536 L653 1734 L822 1536 L920 1536 L676 1837 Z M1089 1355 C1089 1355 910 1454 637 1454 C306 1454 173 1290 173 1098 C173 914 292 777 649 698 C972 627 1057 519 1057 360 C1057 173 929 68 656 68 C406 68 246 157 246 157 L246 294 L150 294 L150 108 C150 108 330 -20 656 -20 C946 -20 1157 96 1157 360 C1157 587 1005 711 665 790 C354 862 273 957 273 1098 C273 1283 440 1366 637 1366 C856 1366 993 1303 993 1303 L993 1170 L1089 1170 L1089 1355 Z " />
<glyph glyph-name="scircumflex" unicode="&#x15d;" horiz-adv-x="992" d="M518 1434 L472 1434 L228 1133 L326 1133 L495 1331 L664 1133 L762 1133 L518 1434 Z M839 937 C839 937 704 1010 488 1010 C222 1010 128 882 128 753 C128 620 218 529 493 475 C710 432 790 374 790 258 C790 128 692 58 494 58 C297 58 202 124 202 124 L202 254 L110 254 L110 83 C110 83 222 -20 494 -20 C727 -20 882 73 882 258 C882 420 763 502 509 552 C295 594 220 653 220 753 C220 860 313 932 488 932 C644 932 747 887 747 887 L747 736 L839 736 L839 937 Z " />
<glyph glyph-name="Scedilla" unicode="&#x15e;" horiz-adv-x="1307" d="M1089 1355 C1089 1355 910 1454 637 1454 C306 1454 173 1290 173 1098 C173 914 292 777 649 698 C972 627 1057 519 1057 360 C1057 173 929 68 656 68 C406 68 246 157 246 157 L246 294 L150 294 L150 108 C150 108 311 -7 605 -19 L544 -196 C682 -186 766 -192 759 -281 C748 -405 596 -381 512 -340 L476 -404 C593 -478 834 -473 847 -285 C854 -176 772 -126 649 -125 L685 -19 C960 -12 1157 105 1157 360 C1157 587 1005 711 665 790 C354 862 273 957 273 1098 C273 1283 440 1366 637 1366 C856 1366 993 1303 993 1303 L993 1170 L1089 1170 L1089 1355 Z " />
<glyph glyph-name="scedilla" unicode="&#x15f;" horiz-adv-x="992" d="M839 937 C839 937 704 1010 488 1010 C222 1010 128 882 128 753 C128 620 218 529 493 475 C710 432 790 374 790 258 C790 128 692 58 494 58 C297 58 202 124 202 124 L202 254 L110 254 L110 83 C110 83 207 -7 441 -19 L380 -196 C518 -186 602 -192 595 -281 C584 -405 432 -381 348 -340 L312 -404 C429 -478 670 -473 683 -285 C690 -176 608 -126 485 -125 L521 -19 C739 -12 882 80 882 258 C882 420 763 502 509 552 C295 594 220 653 220 753 C220 860 313 932 488 932 C644 932 747 887 747 887 L747 736 L839 736 L839 937 Z " />
<glyph glyph-name="Scaron" unicode="&#x160;" horiz-adv-x="1307" d="M920 1837 L822 1837 L653 1639 L484 1837 L386 1837 L630 1536 L676 1536 L920 1837 Z M1089 1355 C1089 1355 910 1454 637 1454 C306 1454 173 1290 173 1098 C173 914 292 777 649 698 C972 627 1057 519 1057 360 C1057 173 929 68 656 68 C406 68 246 157 246 157 L246 294 L150 294 L150 108 C150 108 330 -20 656 -20 C946 -20 1157 96 1157 360 C1157 587 1005 711 665 790 C354 862 273 957 273 1098 C273 1283 440 1366 637 1366 C856 1366 993 1303 993 1303 L993 1170 L1089 1170 L1089 1355 Z " />
<glyph glyph-name="scaron" unicode="&#x161;" horiz-adv-x="992" d="M762 1434 L664 1434 L495 1236 L326 1434 L228 1434 L472 1133 L518 1133 L762 1434 Z M839 937 C839 937 704 1010 488 1010 C222 1010 128 882 128 753 C128 620 218 529 493 475 C710 432 790 374 790 258 C790 128 692 58 494 58 C297 58 202 124 202 124 L202 254 L110 254 L110 83 C110 83 222 -20 494 -20 C727 -20 882 73 882 258 C882 420 763 502 509 552 C295 594 220 653 220 753 C220 860 313 932 488 932 C644 932 747 887 747 887 L747 736 L839 736 L839 937 Z " />
<glyph glyph-name="Tcommaaccent" unicode="&#x162;" horiz-adv-x="1436" d="M513 -532 L597 -532 L778 -135 L665 -135 L513 -532 Z M766 1346 L1210 1346 L1210 1170 L1306 1170 L1306 1434 L130 1434 L130 1170 L226 1170 L226 1346 L670 1346 L670 88 L494 88 L494 0 L942 0 L942 88 L766 88 L766 1346 Z " />
<glyph glyph-name="tcommaaccent" unicode="&#x163;" horiz-adv-x="786" d="M327 -532 L411 -532 L592 -135 L479 -135 L327 -532 Z M70 912 L284 912 L284 441 C284 147 318 -20 570 -20 C617 -20 670 -12 716 3 L693 78 C654 67 609 58 570 58 C365 58 376 246 376 441 L376 912 L689 912 L689 990 L376 990 L376 1288 L284 1288 L284 990 L70 990 L70 912 Z " />
<glyph glyph-name="Tcaron" unicode="&#x164;" horiz-adv-x="1436" d="M985 1837 L887 1837 L718 1639 L549 1837 L451 1837 L695 1536 L741 1536 L985 1837 Z M766 1346 L1210 1346 L1210 1170 L1306 1170 L1306 1434 L130 1434 L130 1170 L226 1170 L226 1346 L670 1346 L670 88 L494 88 L494 0 L942 0 L942 88 L766 88 L766 1346 Z " />
<glyph glyph-name="tcaron" unicode="&#x165;" horiz-adv-x="1036" d="M70 912 L284 912 L284 441 C284 147 318 -20 570 -20 C617 -20 670 -12 716 3 L693 78 C654 67 609 58 570 58 C365 58 376 246 376 441 L376 912 L689 912 L689 990 L376 990 L376 1288 L284 1288 L284 990 L70 990 L70 912 Z M689 1119 L773 1119 L894 1516 L781 1516 L689 1119 Z " />
<glyph glyph-name="Tbar" unicode="&#x166;" horiz-adv-x="1436" d="M344 870 L670 870 L670 88 L494 88 L494 0 L942 0 L942 88 L766 88 L766 870 L1092 870 L1092 958 L766 958 L766 1346 L1210 1346 L1210 1170 L1306 1170 L1306 1434 L130 1434 L130 1170 L226 1170 L226 1346 L670 1346 L670 958 L344 958 L344 870 Z " />
<glyph glyph-name="tbar" unicode="&#x167;" horiz-adv-x="786" d="M70 563 L284 563 L284 441 C284 147 318 -20 570 -20 C617 -20 670 -12 716 3 L693 78 C654 67 609 58 570 58 C365 58 376 246 376 441 L376 563 L689 563 L689 641 L376 641 L376 912 L689 912 L689 990 L376 990 L376 1288 L284 1288 L284 990 L70 990 L70 912 L284 912 L284 641 L70 641 L70 563 Z " />
<glyph glyph-name="Utilde" unicode="&#x168;" horiz-adv-x="1692" d="M820 1624 C856 1588 894 1546 965 1546 C1105 1546 1120 1715 1120 1715 L1031 1715 C1031 1715 1019 1629 965 1629 C924 1629 900 1661 871 1690 C835 1726 797 1768 726 1768 C586 1768 571 1599 571 1599 L660 1599 C660 1599 672 1685 726 1685 C767 1685 791 1653 820 1624 L820 1624 Z M1386 571 L1386 1346 L1562 1346 L1562 1434 L1114 1434 L1114 1346 L1290 1346 L1290 571 C1290 255 1129 68 846 68 C563 68 402 255 402 571 L402 1346 L578 1346 L578 1434 L130 1434 L130 1346 L306 1346 L306 571 C306 183 520 -20 846 -20 C1172 -20 1386 183 1386 571 L1386 571 Z " />
<glyph glyph-name="utilde" unicode="&#x169;" horiz-adv-x="1408" d="M679 1290 C715 1254 753 1212 824 1212 C964 1212 979 1381 979 1381 L890 1381 C890 1381 878 1295 824 1295 C783 1295 759 1327 730 1356 C694 1392 656 1434 585 1434 C445 1434 430 1265 430 1265 L519 1265 C519 1265 531 1351 585 1351 C626 1351 650 1319 679 1290 L679 1290 Z M380 452 L380 990 L110 990 L110 912 L288 912 L288 452 C288 150 430 -20 704 -20 C866 -20 988 65 1028 195 L1028 0 L1298 0 L1298 78 L1120 78 L1120 990 L850 990 L850 912 L1028 912 L1028 452 C1028 215 935 58 704 58 C473 58 380 215 380 452 L380 452 Z " />
<glyph glyph-name="Umacron" unicode="&#x16a;" horiz-adv-x="1692" d="M507 1536 L1183 1536 L1183 1614 L507 1614 L507 1536 Z M1386 571 L1386 1346 L1562 1346 L1562 1434 L1114 1434 L1114 1346 L1290 1346 L1290 571 C1290 255 1129 68 846 68 C563 68 402 255 402 571 L402 1346 L578 1346 L578 1434 L130 1434 L130 1346 L306 1346 L306 571 C306 183 520 -20 846 -20 C1172 -20 1386 183 1386 571 L1386 571 Z " />
<glyph glyph-name="umacron" unicode="&#x16b;" horiz-adv-x="1408" d="M366 1356 L1042 1356 L1042 1434 L366 1434 L366 1356 Z M380 452 L380 990 L110 990 L110 912 L288 912 L288 452 C288 150 430 -20 704 -20 C866 -20 988 65 1028 195 L1028 0 L1298 0 L1298 78 L1120 78 L1120 990 L850 990 L850 912 L1028 912 L1028 452 C1028 215 935 58 704 58 C473 58 380 215 380 452 L380 452 Z " />
<glyph glyph-name="Ubreve" unicode="&#x16c;" horiz-adv-x="1692" d="M845 1536 C1075 1536 1141 1688 1155 1754 L1067 1754 C1024 1652 944 1619 845 1619 C746 1619 666 1652 623 1754 L535 1754 C549 1688 615 1536 845 1536 L845 1536 Z M1386 571 L1386 1346 L1562 1346 L1562 1434 L1114 1434 L1114 1346 L1290 1346 L1290 571 C1290 255 1129 68 846 68 C563 68 402 255 402 571 L402 1346 L578 1346 L578 1434 L130 1434 L130 1346 L306 1346 L306 571 C306 183 520 -20 846 -20 C1172 -20 1386 183 1386 571 L1386 571 Z " />
<glyph glyph-name="ubreve" unicode="&#x16d;" horiz-adv-x="1408" d="M704 1216 C934 1216 1000 1368 1014 1434 L926 1434 C883 1332 803 1299 704 1299 C605 1299 525 1332 482 1434 L394 1434 C408 1368 474 1216 704 1216 L704 1216 Z M380 452 L380 990 L110 990 L110 912 L288 912 L288 452 C288 150 430 -20 704 -20 C866 -20 988 65 1028 195 L1028 0 L1298 0 L1298 78 L1120 78 L1120 990 L850 990 L850 912 L1028 912 L1028 452 C1028 215 935 58 704 58 C473 58 380 215 380 452 L380 452 Z " />
<glyph glyph-name="Uring" unicode="&#x16e;" horiz-adv-x="1692" d="M675 1706 C675 1614 743 1536 845 1536 C948 1536 1015 1614 1015 1706 C1015 1799 948 1876 845 1876 C743 1876 675 1799 675 1706 L675 1706 Z M741 1706 C741 1763 778 1810 845 1810 C912 1810 949 1763 949 1706 C949 1649 912 1602 845 1602 C778 1602 741 1649 741 1706 L741 1706 Z M1386 571 L1386 1346 L1562 1346 L1562 1434 L1114 1434 L1114 1346 L1290 1346 L1290 571 C1290 255 1129 68 846 68 C563 68 402 255 402 571 L402 1346 L578 1346 L578 1434 L130 1434 L130 1346 L306 1346 L306 571 C306 183 520 -20 846 -20 C1172 -20 1386 183 1386 571 L1386 571 Z " />
<glyph glyph-name="uring" unicode="&#x16f;" horiz-adv-x="1408" d="M534 1284 C534 1192 602 1114 704 1114 C807 1114 874 1192 874 1284 C874 1377 807 1454 704 1454 C602 1454 534 1377 534 1284 L534 1284 Z M600 1284 C600 1341 637 1388 704 1388 C771 1388 808 1341 808 1284 C808 1227 771 1180 704 1180 C637 1180 600 1227 600 1284 L600 1284 Z M380 452 L380 990 L110 990 L110 912 L288 912 L288 452 C288 150 430 -20 704 -20 C866 -20 988 65 1028 195 L1028 0 L1298 0 L1298 78 L1120 78 L1120 990 L850 990 L850 912 L1028 912 L1028 452 C1028 215 935 58 704 58 C473 58 380 215 380 452 L380 452 Z " />
<glyph glyph-name="Uhungarumlaut" unicode="&#x170;" horiz-adv-x="1692" d="M918 1536 L1000 1536 L1171 1895 L1058 1895 L918 1536 Z M682 1536 L766 1536 L936 1895 L823 1895 L682 1536 Z M1386 571 L1386 1346 L1562 1346 L1562 1434 L1114 1434 L1114 1346 L1290 1346 L1290 571 C1290 255 1129 68 846 68 C563 68 402 255 402 571 L402 1346 L578 1346 L578 1434 L130 1434 L130 1346 L306 1346 L306 571 C306 183 520 -20 846 -20 C1172 -20 1386 183 1386 571 L1386 571 Z " />
<glyph glyph-name="uhungarumlaut" unicode="&#x171;" horiz-adv-x="1408" d="M764 1157 L846 1157 L1017 1516 L904 1516 L764 1157 Z M528 1157 L612 1157 L782 1516 L669 1516 L528 1157 Z M380 452 L380 990 L110 990 L110 912 L288 912 L288 452 C288 150 430 -20 704 -20 C866 -20 988 65 1028 195 L1028 0 L1298 0 L1298 78 L1120 78 L1120 990 L850 990 L850 912 L1028 912 L1028 452 C1028 215 935 58 704 58 C473 58 380 215 380 452 L380 452 Z " />
<glyph glyph-name="Uogonek" unicode="&#x172;" horiz-adv-x="1692" d="M1386 571 L1386 1346 L1562 1346 L1562 1434 L1114 1434 L1114 1346 L1290 1346 L1290 571 C1290 255 1129 68 846 68 C563 68 402 255 402 571 L402 1346 L578 1346 L578 1434 L130 1434 L130 1346 L306 1346 L306 571 C306 183 520 -20 846 -20 C855 -20 864 -20 874 -19 C820 -41 757 -84 747 -172 C729 -336 897 -372 981 -365 L981 -272 C981 -272 835 -278 835 -173 C835 -67 922 -24 974 -8 C1227 39 1386 236 1386 571 L1386 571 Z " />
<glyph glyph-name="uogonek" unicode="&#x173;" horiz-adv-x="1408" d="M380 452 L380 990 L110 990 L110 912 L288 912 L288 452 C288 150 430 -20 704 -20 C866 -20 988 65 1028 195 L1028 0 L1230 0 C1208 -3 1049 -30 1034 -172 C1016 -336 1184 -372 1268 -365 L1268 -272 C1268 -272 1122 -278 1122 -173 C1122 -23 1298 0 1298 0 L1298 78 L1120 78 L1120 990 L850 990 L850 912 L1028 912 L1028 452 C1028 215 935 58 704 58 C473 58 380 215 380 452 L380 452 Z " />
<glyph glyph-name="Wcircumflex" unicode="&#x174;" horiz-adv-x="2252" d="M1149 1837 L1103 1837 L859 1536 L957 1536 L1126 1734 L1295 1536 L1393 1536 L1149 1837 Z M1493 0 L1590 0 L2007 1346 L2182 1346 L2182 1434 L1734 1434 L1734 1346 L1908 1346 L1543 148 L1186 1434 L1066 1434 L709 148 L344 1346 L518 1346 L518 1434 L70 1434 L70 1346 L245 1346 L662 0 L759 0 L1126 1317 L1493 0 Z " />
<glyph glyph-name="wcircumflex" unicode="&#x175;" horiz-adv-x="1906" d="M976 1434 L930 1434 L686 1133 L784 1133 L953 1331 L1122 1133 L1220 1133 L976 1434 Z M585 0 L681 0 L953 845 L1225 0 L1321 0 L1620 912 L1796 912 L1796 990 L1348 990 L1348 912 L1524 912 L1274 117 L994 990 L912 990 L632 117 L381 912 L558 912 L558 990 L110 990 L110 912 L285 912 L585 0 Z " />
<glyph glyph-name="Ycircumflex" unicode="&#x176;" horiz-adv-x="1578" d="M812 1837 L766 1837 L522 1536 L620 1536 L789 1734 L958 1536 L1056 1536 L812 1837 Z M741 581 L741 88 L565 88 L565 0 L1013 0 L1013 88 L837 88 L837 581 L1339 1346 L1508 1346 L1508 1434 L1060 1434 L1060 1346 L1228 1346 L789 681 L350 1346 L518 1346 L518 1434 L70 1434 L70 1346 L239 1346 L741 581 Z " />
<glyph glyph-name="ycircumflex" unicode="&#x177;" horiz-adv-x="1420" d="M733 1434 L687 1434 L443 1133 L541 1133 L710 1331 L879 1133 L977 1133 L733 1434 Z M1310 912 L1310 990 L862 990 L862 912 L1033 912 L710 111 L386 912 L558 912 L558 990 L110 990 L110 912 L282 912 L664 0 L558 -255 C511 -368 475 -454 341 -454 L249 -454 L249 -532 L341 -532 C516 -532 568 -450 634 -291 L1137 912 L1310 912 Z " />
<glyph glyph-name="Ydieresis" unicode="&#x178;" horiz-adv-x="1578" d="M552 1631 C552 1590 586 1556 627 1556 C668 1556 702 1590 702 1631 C702 1672 668 1706 627 1706 C586 1706 552 1672 552 1631 L552 1631 Z M877 1631 C877 1590 911 1556 952 1556 C993 1556 1027 1590 1027 1631 C1027 1672 993 1706 952 1706 C911 1706 877 1672 877 1631 L877 1631 Z M741 581 L741 88 L565 88 L565 0 L1013 0 L1013 88 L837 88 L837 581 L1339 1346 L1508 1346 L1508 1434 L1060 1434 L1060 1346 L1228 1346 L789 681 L350 1346 L518 1346 L518 1434 L70 1434 L70 1346 L239 1346 L741 581 Z " />
<glyph glyph-name="Zacute" unicode="&#x179;" horiz-adv-x="1322" d="M607 1536 L711 1536 L965 1807 L829 1807 L607 1536 Z M1192 1434 L176 1434 L176 1170 L272 1170 L272 1346 L1052 1346 L130 54 L130 0 L1192 0 L1192 264 L1096 264 L1096 88 L269 88 L1192 1380 L1192 1434 Z " />
<glyph glyph-name="zacute" unicode="&#x17a;" horiz-adv-x="1026" d="M455 1163 L559 1163 L813 1434 L677 1434 L455 1163 Z M916 0 L916 254 L824 254 L824 78 L246 78 L916 946 L916 990 L140 990 L140 736 L232 736 L232 912 L781 912 L110 44 L110 0 L916 0 Z " />
<glyph glyph-name="Zdotaccent" unicode="&#x17b;" horiz-adv-x="1322" d="M586 1631 C586 1590 620 1556 661 1556 C702 1556 736 1590 736 1631 C736 1672 702 1706 661 1706 C620 1706 586 1672 586 1631 L586 1631 Z M1192 1434 L176 1434 L176 1170 L272 1170 L272 1346 L1052 1346 L130 54 L130 0 L1192 0 L1192 264 L1096 264 L1096 88 L269 88 L1192 1380 L1192 1434 Z " />
<glyph glyph-name="zdotaccent" unicode="&#x17c;" horiz-adv-x="1026" d="M438 1252 C438 1211 472 1177 513 1177 C554 1177 588 1211 588 1252 C588 1293 554 1327 513 1327 C472 1327 438 1293 438 1252 L438 1252 Z M916 0 L916 264 L824 264 L824 78 L246 78 L916 946 L916 990 L140 990 L140 726 L232 726 L232 912 L781 912 L110 44 L110 0 L916 0 Z " />
<glyph glyph-name="Zcaron" unicode="&#x17d;" horiz-adv-x="1322" d="M928 1837 L830 1837 L661 1639 L492 1837 L394 1837 L638 1536 L684 1536 L928 1837 Z M1192 1434 L176 1434 L176 1170 L272 1170 L272 1346 L1052 1346 L130 54 L130 0 L1192 0 L1192 264 L1096 264 L1096 88 L269 88 L1192 1380 L1192 1434 Z " />
<glyph glyph-name="zcaron" unicode="&#x17e;" horiz-adv-x="1026" d="M781 1434 L683 1434 L514 1236 L345 1434 L247 1434 L491 1133 L537 1133 L781 1434 Z M916 0 L916 254 L824 254 L824 78 L246 78 L916 946 L916 990 L140 990 L140 736 L232 736 L232 912 L781 912 L110 44 L110 0 L916 0 Z " />
<glyph glyph-name="longs" unicode="&#x17f;" horiz-adv-x="825" d="M309 78 L131 78 L131 0 L579 0 L579 78 L401 78 L401 1075 C401 1314 398 1458 628 1458 C670 1458 716 1451 758 1437 L785 1508 C739 1526 685 1536 628 1536 C345 1536 309 1389 309 1075 L309 78 Z " />
<glyph glyph-name="florin" unicode="&#x192;" horiz-adv-x="1083" d="M604 990 L629 1130 C629 1130 658 1346 860 1346 L986 1346 L1003 1434 L869 1434 C569 1434 537 1151 534 1137 L508 990 L227 990 L210 902 L493 902 L294 -228 C294 -228 265 -444 63 -444 L-63 -444 L-80 -532 L54 -532 C354 -532 386 -249 389 -235 L589 902 L885 902 L902 990 L604 990 Z " />
<glyph glyph-name="Ohorn" unicode="&#x1a0;" horiz-adv-x="1634" d="M110 717 C110 314 358 -20 817 -20 C1276 -20 1524 314 1524 717 C1524 959 1434 1176 1262 1311 C1345 1344 1431 1413 1431 1565 L1335 1565 C1335 1419 1220 1380 1172 1371 C1073 1424 954 1454 817 1454 C358 1454 110 1120 110 717 L110 717 Z M212 717 C212 1069 409 1366 817 1366 C1225 1366 1422 1069 1422 717 C1422 365 1225 68 817 68 C409 68 212 365 212 717 L212 717 Z " />
<glyph glyph-name="ohorn" unicode="&#x1a1;" horiz-adv-x="1215" d="M90 495 C90 193 294 -20 596 -20 C898 -20 1102 193 1102 495 C1102 631 1060 750 986 838 C1074 867 1175 934 1175 1097 L1087 1097 C1087 961 990 915 926 899 C841 969 727 1010 596 1010 C292 1010 90 796 90 495 L90 495 Z M184 495 C184 742 341 932 596 932 C850 932 1008 742 1008 495 C1008 248 850 58 596 58 C341 58 184 248 184 495 L184 495 Z " />
<glyph glyph-name="Uhorn" unicode="&#x1af;" horiz-adv-x="1814" d="M1386 571 L1386 1346 C1431 1346 1691 1343 1683 1620 L1587 1620 C1587 1430 1423 1434 1386 1434 L1114 1434 L1114 1346 L1290 1346 L1290 571 C1290 255 1129 68 846 68 C563 68 402 255 402 571 L402 1346 L578 1346 L578 1434 L130 1434 L130 1346 L306 1346 L306 571 C306 183 520 -20 846 -20 C1172 -20 1386 183 1386 571 L1386 571 Z " />
<glyph glyph-name="uhorn" unicode="&#x1b0;" horiz-adv-x="1516" d="M380 452 L380 990 L110 990 L110 912 L288 912 L288 452 C288 150 430 -20 704 -20 C866 -20 988 65 1028 195 L1028 0 L1298 0 L1298 78 L1120 78 L1120 912 C1168 912 1406 901 1406 1157 L1314 1157 C1314 991 1167 990 1120 990 L850 990 L850 912 L1028 912 L1028 452 C1028 215 935 58 704 58 C473 58 380 215 380 452 L380 452 Z " />
<glyph glyph-name="uni01CD" unicode="&#x1cd;" horiz-adv-x="1700" d="M1117 1837 L1019 1837 L850 1639 L681 1837 L583 1837 L827 1536 L873 1536 L1117 1837 Z M591 1434 L591 1346 L768 1346 L242 88 L70 88 L70 0 L518 0 L518 88 L346 88 L506 475 L1193 475 L1353 88 L1182 88 L1182 0 L1630 0 L1630 88 L1458 88 L895 1434 L591 1434 Z M850 1306 L1157 563 L543 563 L850 1306 Z " />
<glyph glyph-name="uni01CE" unicode="&#x1ce;" horiz-adv-x="1209" d="M827 1434 L729 1434 L560 1236 L391 1434 L293 1434 L537 1133 L583 1133 L827 1434 Z M556 932 C826 932 829 770 829 630 C552 656 90 633 90 293 C90 87 240 -20 464 -20 C658 -20 772 78 829 218 L829 0 L1099 0 L1099 78 L921 78 L921 592 C921 770 916 1010 556 1010 C416 1010 283 979 190 924 L229 852 C309 902 456 932 556 932 L556 932 Z M186 293 C186 548 575 577 829 557 L829 429 C829 262 708 68 464 68 C281 68 186 157 186 293 L186 293 Z " />
<glyph glyph-name="uni01CF" unicode="&#x1cf;" horiz-adv-x="714" d="M624 1837 L526 1837 L357 1639 L188 1837 L90 1837 L334 1536 L380 1536 L624 1837 Z M133 0 L581 0 L581 88 L405 88 L405 1346 L581 1346 L581 1434 L133 1434 L133 1346 L309 1346 L309 88 L133 88 L133 0 Z " />
<glyph glyph-name="uni01D0" unicode="&#x1d0;" horiz-adv-x="674" d="M604 1434 L506 1434 L337 1236 L168 1434 L70 1434 L314 1133 L360 1133 L604 1434 Z M291 912 L291 78 L113 78 L113 0 L561 0 L561 78 L383 78 L383 990 L113 990 L113 912 L291 912 Z " />
<glyph glyph-name="uni01D1" unicode="&#x1d1;" horiz-adv-x="1634" d="M1084 1837 L986 1837 L817 1639 L648 1837 L550 1837 L794 1536 L840 1536 L1084 1837 Z M110 717 C110 314 358 -20 817 -20 C1276 -20 1524 314 1524 717 C1524 1120 1276 1454 817 1454 C358 1454 110 1120 110 717 L110 717 Z M212 717 C212 1069 409 1366 817 1366 C1225 1366 1422 1069 1422 717 C1422 365 1225 68 817 68 C409 68 212 365 212 717 L212 717 Z " />
<glyph glyph-name="uni01D2" unicode="&#x1d2;" horiz-adv-x="1192" d="M863 1434 L765 1434 L596 1236 L427 1434 L329 1434 L573 1133 L619 1133 L863 1434 Z M90 495 C90 193 294 -20 596 -20 C898 -20 1102 193 1102 495 C1102 797 898 1010 596 1010 C292 1010 90 796 90 495 L90 495 Z M184 495 C184 742 341 932 596 932 C850 932 1008 742 1008 495 C1008 248 850 58 596 58 C341 58 184 248 184 495 L184 495 Z " />
<glyph glyph-name="uni01D3" unicode="&#x1d3;" horiz-adv-x="1692" d="M1112 1837 L1014 1837 L845 1639 L676 1837 L578 1837 L822 1536 L868 1536 L1112 1837 Z M1386 571 L1386 1346 L1562 1346 L1562 1434 L1114 1434 L1114 1346 L1290 1346 L1290 571 C1290 255 1129 68 846 68 C563 68 402 255 402 571 L402 1346 L578 1346 L578 1434 L130 1434 L130 1346 L306 1346 L306 571 C306 183 520 -20 846 -20 C1172 -20 1386 183 1386 571 L1386 571 Z " />
<glyph glyph-name="uni01D4" unicode="&#x1d4;" horiz-adv-x="1408" d="M971 1434 L873 1434 L704 1236 L535 1434 L437 1434 L681 1133 L727 1133 L971 1434 Z M380 452 L380 990 L110 990 L110 912 L288 912 L288 452 C288 150 430 -20 704 -20 C866 -20 988 65 1028 195 L1028 0 L1298 0 L1298 78 L1120 78 L1120 990 L850 990 L850 912 L1028 912 L1028 452 C1028 215 935 58 704 58 C473 58 380 215 380 452 L380 452 Z " />
<glyph glyph-name="uni01D5" unicode="&#x1d5;" horiz-adv-x="1692" d="M608 1631 C608 1590 642 1556 683 1556 C724 1556 758 1590 758 1631 C758 1672 724 1706 683 1706 C642 1706 608 1672 608 1631 L608 1631 Z M933 1631 C933 1590 967 1556 1008 1556 C1049 1556 1083 1590 1083 1631 C1083 1672 1049 1706 1008 1706 C967 1706 933 1672 933 1631 L933 1631 Z M507 1789 L1183 1789 L1183 1867 L507 1867 L507 1789 Z M1386 571 L1386 1346 L1562 1346 L1562 1434 L1114 1434 L1114 1346 L1290 1346 L1290 571 C1290 255 1129 68 846 68 C563 68 402 255 402 571 L402 1346 L578 1346 L578 1434 L130 1434 L130 1346 L306 1346 L306 571 C306 183 520 -20 846 -20 C1172 -20 1386 183 1386 571 L1386 571 Z " />
<glyph glyph-name="uni01D6" unicode="&#x1d6;" horiz-adv-x="1408" d="M366 1428 L1042 1428 L1042 1506 L366 1506 L366 1428 Z M467 1270 C467 1229 501 1195 542 1195 C583 1195 617 1229 617 1270 C617 1311 583 1345 542 1345 C501 1345 467 1311 467 1270 L467 1270 Z M792 1270 C792 1229 826 1195 867 1195 C908 1195 942 1229 942 1270 C942 1311 908 1345 867 1345 C826 1345 792 1311 792 1270 L792 1270 Z M380 452 L380 990 L110 990 L110 912 L288 912 L288 452 C288 150 430 -20 704 -20 C866 -20 988 65 1028 195 L1028 0 L1298 0 L1298 78 L1120 78 L1120 990 L850 990 L850 912 L1028 912 L1028 452 C1028 215 935 58 704 58 C473 58 380 215 380 452 L380 452 Z " />
<glyph glyph-name="uni01D7" unicode="&#x1d7;" horiz-adv-x="1692" d="M608 1631 C608 1590 642 1556 683 1556 C724 1556 758 1590 758 1631 C758 1672 724 1706 683 1706 C642 1706 608 1672 608 1631 L608 1631 Z M933 1631 C933 1590 967 1556 1008 1556 C1049 1556 1083 1590 1083 1631 C1083 1672 1049 1706 1008 1706 C967 1706 933 1672 933 1631 L933 1631 Z M785 1796 L889 1796 L1143 2067 L1007 2067 L785 1796 Z M1386 571 L1386 1346 L1562 1346 L1562 1434 L1114 1434 L1114 1346 L1290 1346 L1290 571 C1290 255 1129 68 846 68 C563 68 402 255 402 571 L402 1346 L578 1346 L578 1434 L130 1434 L130 1346 L306 1346 L306 571 C306 183 520 -20 846 -20 C1172 -20 1386 183 1386 571 L1386 571 Z " />
<glyph glyph-name="uni01D8" unicode="&#x1d8;" horiz-adv-x="1408" d="M468 1270 C468 1229 502 1195 543 1195 C584 1195 618 1229 618 1270 C618 1311 584 1345 543 1345 C502 1345 468 1311 468 1270 L468 1270 Z M793 1270 C793 1229 827 1195 868 1195 C909 1195 943 1229 943 1270 C943 1311 909 1345 868 1345 C827 1345 793 1311 793 1270 L793 1270 Z M645 1435 L749 1435 L1003 1706 L867 1706 L645 1435 Z M380 452 L380 990 L110 990 L110 912 L288 912 L288 452 C288 150 430 -20 704 -20 C866 -20 988 65 1028 195 L1028 0 L1298 0 L1298 78 L1120 78 L1120 990 L850 990 L850 912 L1028 912 L1028 452 C1028 215 935 58 704 58 C473 58 380 215 380 452 L380 452 Z " />
<glyph glyph-name="uni01D9" unicode="&#x1d9;" horiz-adv-x="1692" d="M608 1631 C608 1590 642 1556 683 1556 C724 1556 758 1590 758 1631 C758 1672 724 1706 683 1706 C642 1706 608 1672 608 1631 L608 1631 Z M933 1631 C933 1590 967 1556 1008 1556 C1049 1556 1083 1590 1083 1631 C1083 1672 1049 1706 1008 1706 C967 1706 933 1672 933 1631 L933 1631 Z M1386 571 L1386 1346 L1562 1346 L1562 1434 L1114 1434 L1114 1346 L1290 1346 L1290 571 C1290 255 1129 68 846 68 C563 68 402 255 402 571 L402 1346 L578 1346 L578 1434 L130 1434 L130 1346 L306 1346 L306 571 C306 183 520 -20 846 -20 C1172 -20 1386 183 1386 571 L1386 571 Z " />
<glyph glyph-name="uni01DA" unicode="&#x1da;" horiz-adv-x="1408" d="M467 1270 C467 1229 501 1195 542 1195 C583 1195 617 1229 617 1270 C617 1311 583 1345 542 1345 C501 1345 467 1311 467 1270 L467 1270 Z M792 1270 C792 1229 826 1195 867 1195 C908 1195 942 1229 942 1270 C942 1311 908 1345 867 1345 C826 1345 792 1311 792 1270 L792 1270 Z M380 452 L380 990 L110 990 L110 912 L288 912 L288 452 C288 150 430 -20 704 -20 C866 -20 988 65 1028 195 L1028 0 L1298 0 L1298 78 L1120 78 L1120 990 L850 990 L850 912 L1028 912 L1028 452 C1028 215 935 58 704 58 C473 58 380 215 380 452 L380 452 Z " />
<glyph glyph-name="uni01DB" unicode="&#x1db;" horiz-adv-x="1692" d="M686 2067 L550 2067 L804 1796 L908 1796 L686 2067 Z M613 1631 C613 1590 647 1556 688 1556 C729 1556 763 1590 763 1631 C763 1672 729 1706 688 1706 C647 1706 613 1672 613 1631 L613 1631 Z M938 1631 C938 1590 972 1556 1013 1556 C1054 1556 1088 1590 1088 1631 C1088 1672 1054 1706 1013 1706 C972 1706 938 1672 938 1631 L938 1631 Z M1386 571 L1386 1346 L1562 1346 L1562 1434 L1114 1434 L1114 1346 L1290 1346 L1290 571 C1290 255 1129 68 846 68 C563 68 402 255 402 571 L402 1346 L578 1346 L578 1434 L130 1434 L130 1346 L306 1346 L306 571 C306 183 520 -20 846 -20 C1172 -20 1386 183 1386 571 L1386 571 Z " />
<glyph glyph-name="uni01DC" unicode="&#x1dc;" horiz-adv-x="1408" d="M541 1706 L405 1706 L659 1435 L763 1435 L541 1706 Z M468 1270 C468 1229 502 1195 543 1195 C584 1195 618 1229 618 1270 C618 1311 584 1345 543 1345 C502 1345 468 1311 468 1270 L468 1270 Z M793 1270 C793 1229 827 1195 868 1195 C909 1195 943 1229 943 1270 C943 1311 909 1345 868 1345 C827 1345 793 1311 793 1270 L793 1270 Z M380 452 L380 990 L110 990 L110 912 L288 912 L288 452 C288 150 430 -20 704 -20 C866 -20 988 65 1028 195 L1028 0 L1298 0 L1298 78 L1120 78 L1120 990 L850 990 L850 912 L1028 912 L1028 452 C1028 215 935 58 704 58 C473 58 380 215 380 452 L380 452 Z " />
<glyph glyph-name="uni01DE" unicode="&#x1de;" horiz-adv-x="1700" d="M613 1631 C613 1590 647 1556 688 1556 C729 1556 763 1590 763 1631 C763 1672 729 1706 688 1706 C647 1706 613 1672 613 1631 L613 1631 Z M938 1631 C938 1590 972 1556 1013 1556 C1054 1556 1088 1590 1088 1631 C1088 1672 1054 1706 1013 1706 C972 1706 938 1672 938 1631 L938 1631 Z M512 1789 L1188 1789 L1188 1867 L512 1867 L512 1789 Z M591 1434 L591 1346 L768 1346 L242 88 L70 88 L70 0 L518 0 L518 88 L346 88 L506 475 L1193 475 L1353 88 L1182 88 L1182 0 L1630 0 L1630 88 L1458 88 L895 1434 L591 1434 Z M850 1306 L1157 563 L543 563 L850 1306 Z " />
<glyph glyph-name="uni01DF" unicode="&#x1df;" horiz-adv-x="1209" d="M324 1270 C324 1229 358 1195 399 1195 C440 1195 474 1229 474 1270 C474 1311 440 1345 399 1345 C358 1345 324 1311 324 1270 L324 1270 Z M649 1270 C649 1229 683 1195 724 1195 C765 1195 799 1229 799 1270 C799 1311 765 1345 724 1345 C683 1345 649 1311 649 1270 L649 1270 Z M223 1428 L899 1428 L899 1506 L223 1506 L223 1428 Z M556 932 C826 932 829 770 829 630 C552 656 90 633 90 293 C90 87 240 -20 464 -20 C658 -20 772 78 829 218 L829 0 L1099 0 L1099 78 L921 78 L921 592 C921 770 916 1010 556 1010 C416 1010 283 979 190 924 L229 852 C309 902 456 932 556 932 L556 932 Z M186 293 C186 548 575 577 829 557 L829 429 C829 262 708 68 464 68 C281 68 186 157 186 293 L186 293 Z " />
<glyph glyph-name="uni01E0" unicode="&#x1e0;" horiz-adv-x="1700" d="M775 1631 C775 1590 809 1556 850 1556 C891 1556 925 1590 925 1631 C925 1672 891 1706 850 1706 C809 1706 775 1672 775 1631 L775 1631 Z M512 1789 L1188 1789 L1188 1867 L512 1867 L512 1789 Z M591 1434 L591 1346 L768 1346 L242 88 L70 88 L70 0 L518 0 L518 88 L346 88 L506 475 L1193 475 L1353 88 L1182 88 L1182 0 L1630 0 L1630 88 L1458 88 L895 1434 L591 1434 Z M850 1306 L1157 563 L543 563 L850 1306 Z " />
<glyph glyph-name="uni01E1" unicode="&#x1e1;" horiz-adv-x="1209" d="M222 1428 L898 1428 L898 1506 L222 1506 L222 1428 Z M485 1270 C485 1229 519 1195 560 1195 C601 1195 635 1229 635 1270 C635 1311 601 1345 560 1345 C519 1345 485 1311 485 1270 L485 1270 Z M556 932 C826 932 829 770 829 630 C552 656 90 633 90 293 C90 87 240 -20 464 -20 C658 -20 772 78 829 218 L829 0 L1099 0 L1099 78 L921 78 L921 592 C921 770 916 1010 556 1010 C416 1010 283 979 190 924 L229 852 C309 902 456 932 556 932 L556 932 Z M186 293 C186 548 575 577 829 557 L829 429 C829 262 708 68 464 68 C281 68 186 157 186 293 L186 293 Z " />
<glyph glyph-name="uni01E2" unicode="&#x1e2;" horiz-adv-x="2290" d="M1204 1536 L1880 1536 L1880 1614 L1204 1614 L1204 1536 Z M1222 0 L2160 0 L2160 264 L2064 264 L2064 88 L1318 88 L1318 690 L2032 690 L2032 778 L1318 778 L1318 1346 L2054 1346 L2054 1170 L2150 1170 L2150 1434 L966 1434 L966 1346 L1143 1346 L298 88 L130 88 L130 0 L578 0 L578 88 L411 88 L706 528 L1222 528 L1222 0 Z M1222 1299 L1222 616 L765 616 L1222 1299 Z " />
<glyph glyph-name="uni01E3" unicode="&#x1e3;" horiz-adv-x="1847" d="M564 1356 L1240 1356 L1240 1434 L564 1434 L564 1356 Z M1293 58 C1050 58 937 238 926 455 L1757 455 C1757 840 1545 1010 1293 1010 C1110 1010 978 930 902 796 C868 914 787 1010 556 1010 C416 1010 283 979 190 924 L229 852 C309 902 456 932 556 932 C826 932 829 770 829 630 C552 656 90 633 90 293 C90 87 240 -20 464 -20 C632 -20 782 53 880 237 C951 79 1093 -20 1293 -20 C1517 -20 1628 54 1688 115 L1624 174 C1557 108 1458 58 1293 58 L1293 58 Z M186 293 C186 548 575 577 829 557 L829 429 C829 262 708 68 464 68 C281 68 186 157 186 293 L186 293 Z M926 533 C937 752 1050 932 1293 932 C1536 932 1649 753 1660 533 L926 533 Z " />
<glyph glyph-name="uni01E4" unicode="&#x1e4;" horiz-adv-x="1585" d="M817 68 C409 68 212 365 212 717 C212 1069 409 1366 817 1366 C1088 1366 1240 1291 1240 1291 L1240 1170 L1336 1170 L1336 1341 C1336 1341 1156 1454 817 1454 C358 1454 110 1120 110 717 C110 314 358 -20 817 -20 C990 -20 1200 20 1347 146 L1347 398 L1495 398 L1495 488 L1347 488 L1347 771 L858 771 L858 681 L1251 681 L1251 488 L858 488 L858 398 L1251 398 L1251 192 C1150 110 962 68 817 68 L817 68 Z " />
<glyph glyph-name="uni01E5" unicode="&#x1e5;" horiz-adv-x="1354" d="M960 761 C901 899 760 1010 573 1010 C283 1010 90 799 90 495 C90 191 283 -20 573 -20 C760 -20 901 91 960 229 L960 0 C960 -61 955 -115 945 -163 L651 -163 L651 -241 L922 -241 C863 -395 735 -452 566 -452 C432 -452 320 -410 245 -358 L192 -428 C279 -498 418 -532 566 -532 C757 -532 944 -467 1018 -241 L1244 -241 L1244 -163 L1037 -163 C1046 -114 1052 -60 1052 0 L1052 912 L1230 912 L1230 990 L960 990 L960 761 Z M573 932 C829 932 960 720 960 495 C960 270 829 58 573 58 C317 58 186 270 186 495 C186 720 317 932 573 932 L573 932 Z " />
<glyph glyph-name="Gcaron" unicode="&#x1e6;" horiz-adv-x="1477" d="M1084 1837 L986 1837 L817 1639 L648 1837 L550 1837 L794 1536 L840 1536 L1084 1837 Z M817 68 C409 68 212 365 212 717 C212 1069 409 1366 817 1366 C1088 1366 1240 1291 1240 1291 L1240 1170 L1336 1170 L1336 1341 C1336 1341 1156 1454 817 1454 C358 1454 110 1120 110 717 C110 314 358 -20 817 -20 C990 -20 1200 20 1347 146 L1347 771 L858 771 L858 681 L1251 681 L1251 192 C1150 110 962 68 817 68 L817 68 Z " />
<glyph glyph-name="gcaron" unicode="&#x1e7;" horiz-adv-x="1340" d="M836 1434 L738 1434 L569 1236 L400 1434 L302 1434 L546 1133 L592 1133 L836 1434 Z M960 761 C901 899 760 1010 573 1010 C283 1010 90 799 90 495 C90 191 283 -20 573 -20 C760 -20 901 91 960 229 L960 0 C960 -339 805 -452 566 -452 C432 -452 320 -410 245 -358 L192 -428 C279 -498 418 -532 566 -532 C813 -532 1052 -424 1052 0 L1052 912 L1230 912 L1230 990 L960 990 L960 761 Z M573 932 C829 932 960 720 960 495 C960 270 829 58 573 58 C317 58 186 270 186 495 C186 720 317 932 573 932 L573 932 Z " />
<glyph glyph-name="uni01E8" unicode="&#x1e8;" horiz-adv-x="1536" d="M1002 1837 L904 1837 L735 1639 L566 1837 L468 1837 L712 1536 L758 1536 L1002 1837 Z M130 0 L578 0 L578 88 L402 88 L402 539 L619 750 L1194 0 L1406 0 L1406 88 L1242 88 L684 813 L1234 1346 L1396 1346 L1396 1434 L948 1434 L948 1346 L1108 1346 L402 668 L402 1346 L578 1346 L578 1434 L130 1434 L130 1346 L306 1346 L306 88 L130 88 L130 0 Z " />
<glyph glyph-name="uni01E9" unicode="&#x1e9;" horiz-adv-x="1275" d="M928 1837 L830 1837 L661 1639 L492 1837 L394 1837 L638 1536 L684 1536 L928 1837 Z M380 498 L380 1516 L110 1516 L110 1438 L288 1438 L288 78 L110 78 L110 0 L558 0 L558 78 L380 78 L380 388 L561 543 L967 0 L1165 0 L1165 78 L1018 78 L627 599 L993 912 L1154 912 L1154 990 L706 990 L706 912 L864 912 L380 498 Z " />
<glyph glyph-name="uni01EA" unicode="&#x1ea;" horiz-adv-x="1634" d="M110 717 C110 314 358 -20 817 -20 C833 -20 850 -19 866 -18 C812 -39 746 -83 736 -172 C718 -336 886 -372 970 -365 L970 -272 C970 -272 824 -278 824 -173 C824 -61 922 -19 971 -6 C1331 60 1524 362 1524 717 C1524 1120 1276 1454 817 1454 C358 1454 110 1120 110 717 L110 717 Z M212 717 C212 1069 409 1366 817 1366 C1225 1366 1422 1069 1422 717 C1422 365 1225 68 817 68 C409 68 212 365 212 717 L212 717 Z " />
<glyph glyph-name="uni01EB" unicode="&#x1eb;" horiz-adv-x="1192" d="M90 495 C90 193 294 -20 596 -20 C601 -20 606 -19 611 -19 C558 -41 493 -85 484 -172 C466 -336 634 -372 718 -365 L718 -272 C718 -272 572 -278 572 -173 C572 -69 655 -27 707 -10 C947 36 1102 232 1102 495 C1102 797 898 1010 596 1010 C292 1010 90 796 90 495 L90 495 Z M184 495 C184 742 341 932 596 932 C850 932 1008 742 1008 495 C1008 248 850 58 596 58 C341 58 184 248 184 495 L184 495 Z " />
<glyph glyph-name="uni01EC" unicode="&#x1ec;" horiz-adv-x="1634" d="M110 717 C110 314 358 -20 817 -20 C833 -20 850 -19 866 -18 C812 -39 746 -83 736 -172 C718 -336 886 -372 970 -365 L970 -272 C970 -272 824 -278 824 -173 C824 -61 922 -19 971 -6 C1331 60 1524 362 1524 717 C1524 1120 1276 1454 817 1454 C358 1454 110 1120 110 717 L110 717 Z M212 717 C212 1069 409 1366 817 1366 C1225 1366 1422 1069 1422 717 C1422 365 1225 68 817 68 C409 68 212 365 212 717 L212 717 Z M479 1536 L1155 1536 L1155 1614 L479 1614 L479 1536 Z " />
<glyph glyph-name="uni01ED" unicode="&#x1ed;" horiz-adv-x="1192" d="M90 495 C90 193 294 -20 596 -20 C601 -20 606 -19 611 -19 C558 -41 493 -85 484 -172 C466 -336 634 -372 718 -365 L718 -272 C718 -272 572 -278 572 -173 C572 -69 655 -27 707 -10 C947 36 1102 232 1102 495 C1102 797 898 1010 596 1010 C292 1010 90 796 90 495 L90 495 Z M184 495 C184 742 341 932 596 932 C850 932 1008 742 1008 495 C1008 248 850 58 596 58 C341 58 184 248 184 495 L184 495 Z M258 1356 L934 1356 L934 1434 L258 1434 L258 1356 Z " />
<glyph glyph-name="uni01F0" unicode="&#x1f0;" horiz-adv-x="545" d="M535 1434 L437 1434 L268 1236 L99 1434 L1 1434 L245 1133 L291 1133 L535 1434 Z M222 912 L222 -72 C222 -281 210 -454 45 -454 C-6 -454 -48 -446 -85 -431 L-110 -504 C-70 -523 -18 -532 45 -532 C264 -532 314 -366 314 -72 L314 990 L44 990 L44 912 L222 912 Z " />
<glyph glyph-name="uni01F4" unicode="&#x1f4;" horiz-adv-x="1477" d="M761 1536 L865 1536 L1119 1807 L983 1807 L761 1536 Z M817 68 C409 68 212 365 212 717 C212 1069 409 1366 817 1366 C1088 1366 1240 1291 1240 1291 L1240 1170 L1336 1170 L1336 1341 C1336 1341 1156 1454 817 1454 C358 1454 110 1120 110 717 C110 314 358 -20 817 -20 C990 -20 1200 20 1347 146 L1347 771 L858 771 L858 681 L1251 681 L1251 192 C1150 110 962 68 817 68 L817 68 Z " />
<glyph glyph-name="uni01F5" unicode="&#x1f5;" horiz-adv-x="1340" d="M508 1163 L612 1163 L866 1434 L730 1434 L508 1163 Z M960 761 C901 899 760 1010 573 1010 C283 1010 90 799 90 495 C90 191 283 -20 573 -20 C760 -20 901 91 960 229 L960 0 C960 -339 805 -452 566 -452 C432 -452 320 -410 245 -358 L192 -428 C279 -498 418 -532 566 -532 C813 -532 1052 -424 1052 0 L1052 912 L1230 912 L1230 990 L960 990 L960 761 Z M573 932 C829 932 960 720 960 495 C960 270 829 58 573 58 C317 58 186 270 186 495 C186 720 317 932 573 932 L573 932 Z " />
<glyph glyph-name="uni01F8" unicode="&#x1f8;" horiz-adv-x="1678" d="M651 1807 L515 1807 L769 1536 L873 1536 L651 1807 Z M130 0 L578 0 L578 88 L402 88 L402 1302 L1254 0 L1372 0 L1372 1346 L1548 1346 L1548 1434 L1100 1434 L1100 1346 L1276 1346 L1276 132 L424 1434 L130 1434 L130 1346 L306 1346 L306 88 L130 88 L130 0 Z " />
<glyph glyph-name="uni01F9" unicode="&#x1f9;" horiz-adv-x="1408" d="M526 1434 L390 1434 L644 1163 L748 1163 L526 1434 Z M380 538 C380 775 473 932 704 932 C935 932 1028 775 1028 538 L1028 0 L1298 0 L1298 78 L1120 78 L1120 538 C1120 840 978 1010 704 1010 C542 1010 420 925 380 795 L380 990 L110 990 L110 912 L288 912 L288 78 L110 78 L110 0 L558 0 L558 78 L380 78 L380 538 Z " />
<glyph glyph-name="Aringacute" unicode="&#x1fa;" horiz-adv-x="1700" d="M680 1726 C680 1634 748 1556 850 1556 C953 1556 1020 1634 1020 1726 C1020 1810 964 1882 877 1894 L1073 2103 L937 2103 L723 1842 C696 1812 680 1770 680 1726 L680 1726 Z M746 1726 C746 1783 783 1830 850 1830 C917 1830 954 1783 954 1726 C954 1669 917 1622 850 1622 C783 1622 746 1669 746 1726 L746 1726 Z M591 1434 L591 1346 L768 1346 L242 88 L70 88 L70 0 L518 0 L518 88 L346 88 L506 475 L1193 475 L1353 88 L1182 88 L1182 0 L1630 0 L1630 88 L1458 88 L895 1434 L591 1434 Z M850 1306 L1157 563 L543 563 L850 1306 Z " />
<glyph glyph-name="aringacute" unicode="&#x1fb;" horiz-adv-x="1209" d="M390 1284 C390 1192 458 1114 560 1114 C663 1114 730 1192 730 1284 C730 1368 674 1440 587 1452 L783 1661 L647 1661 L433 1400 C406 1370 390 1328 390 1284 L390 1284 Z M456 1284 C456 1341 493 1388 560 1388 C627 1388 664 1341 664 1284 C664 1227 627 1180 560 1180 C493 1180 456 1227 456 1284 L456 1284 Z M556 932 C826 932 829 770 829 630 C552 656 90 633 90 293 C90 87 240 -20 464 -20 C658 -20 772 78 829 218 L829 0 L1099 0 L1099 78 L921 78 L921 592 C921 770 916 1010 556 1010 C416 1010 283 979 190 924 L229 852 C309 902 456 932 556 932 L556 932 Z M186 293 C186 548 575 577 829 557 L829 429 C829 262 708 68 464 68 C281 68 186 157 186 293 L186 293 Z " />
<glyph glyph-name="AEacute" unicode="&#x1fc;" horiz-adv-x="2290" d="M1247 1536 L1351 1536 L1605 1807 L1469 1807 L1247 1536 Z M1222 0 L2160 0 L2160 264 L2064 264 L2064 88 L1318 88 L1318 690 L2032 690 L2032 778 L1318 778 L1318 1346 L2054 1346 L2054 1170 L2150 1170 L2150 1434 L966 1434 L966 1346 L1143 1346 L298 88 L130 88 L130 0 L578 0 L578 88 L411 88 L706 528 L1222 528 L1222 0 Z M1222 1299 L1222 616 L765 616 L1222 1299 Z " />
<glyph glyph-name="aeacute" unicode="&#x1fd;" horiz-adv-x="1847" d="M1293 58 C1050 58 937 238 926 455 L1757 455 C1757 840 1545 1010 1293 1010 C1110 1010 978 930 902 796 C868 914 787 1010 556 1010 C416 1010 283 979 190 924 L229 852 C309 902 456 932 556 932 C826 932 829 770 829 630 C552 656 90 633 90 293 C90 87 240 -20 464 -20 C632 -20 782 53 880 237 C951 79 1093 -20 1293 -20 C1517 -20 1628 54 1688 115 L1624 174 C1557 108 1458 58 1293 58 L1293 58 Z M186 293 C186 548 575 577 829 557 L829 429 C829 262 708 68 464 68 C281 68 186 157 186 293 L186 293 Z M926 533 C937 752 1050 932 1293 932 C1536 932 1649 753 1660 533 L926 533 Z M871 1163 L975 1163 L1229 1434 L1093 1434 L871 1163 Z " />
<glyph glyph-name="Oslashacute" unicode="&#x1fe;" horiz-adv-x="1634" d="M110 717 C110 441 226 197 447 71 L382 -61 L490 -61 L534 29 C617 -2 711 -20 817 -20 C1276 -20 1524 314 1524 717 C1524 993 1407 1237 1186 1363 L1251 1495 L1143 1495 L1099 1404 C1016 1436 922 1454 817 1454 C358 1454 110 1120 110 717 L110 717 Z M817 68 C725 68 644 83 574 110 L1146 1281 C1331 1168 1422 955 1422 717 C1422 365 1225 68 817 68 L817 68 Z M212 717 C212 1069 409 1366 817 1366 C908 1366 989 1351 1059 1324 L487 153 C302 266 212 479 212 717 L212 717 Z M758 1536 L862 1536 L1116 1807 L980 1807 L758 1536 Z " />
<glyph glyph-name="oslashacute" unicode="&#x1ff;" horiz-adv-x="1232" d="M110 495 C110 300 195 142 337 54 L281 -61 L384 -61 L420 14 C479 -8 545 -20 616 -20 C918 -20 1122 193 1122 495 C1122 700 1028 865 872 949 L919 1045 L816 1045 L787 984 C734 1001 677 1010 616 1010 C312 1010 110 796 110 495 L110 495 Z M616 58 C557 58 503 68 455 87 L836 873 C958 799 1028 659 1028 495 C1028 248 870 58 616 58 L616 58 Z M204 495 C204 742 361 932 616 932 C665 932 710 925 751 912 L374 131 C265 208 204 340 204 495 L204 495 Z M558 1163 L662 1163 L916 1434 L780 1434 L558 1163 Z " />
<glyph glyph-name="uni0200" unicode="&#x200;" horiz-adv-x="1700" d="M591 1434 L591 1346 L768 1346 L242 88 L70 88 L70 0 L518 0 L518 88 L346 88 L506 475 L1193 475 L1353 88 L1182 88 L1182 0 L1630 0 L1630 88 L1458 88 L895 1434 L591 1434 Z M850 1306 L1157 563 L543 563 L850 1306 Z M527 1807 L391 1807 L645 1536 L749 1536 L527 1807 Z M762 1807 L626 1807 L880 1536 L984 1536 L762 1807 Z " />
<glyph glyph-name="uni0201" unicode="&#x201;" horiz-adv-x="1209" d="M556 932 C826 932 829 770 829 630 C552 656 90 633 90 293 C90 87 240 -20 464 -20 C658 -20 772 78 829 218 L829 0 L1099 0 L1099 78 L921 78 L921 592 C921 770 916 1010 556 1010 C416 1010 283 979 190 924 L229 852 C309 902 456 932 556 932 L556 932 Z M186 293 C186 548 575 577 829 557 L829 429 C829 262 708 68 464 68 C281 68 186 157 186 293 L186 293 Z M256 1434 L120 1434 L374 1163 L478 1163 L256 1434 Z M491 1434 L355 1434 L609 1163 L713 1163 L491 1434 Z " />
<glyph glyph-name="uni0202" unicode="&#x202;" horiz-adv-x="1700" d="M850 1754 C620 1754 554 1602 540 1536 L628 1536 C671 1638 751 1671 850 1671 C949 1671 1029 1638 1072 1536 L1160 1536 C1146 1602 1080 1754 850 1754 L850 1754 Z M591 1434 L591 1346 L768 1346 L242 88 L70 88 L70 0 L518 0 L518 88 L346 88 L506 475 L1193 475 L1353 88 L1182 88 L1182 0 L1630 0 L1630 88 L1458 88 L895 1434 L591 1434 Z M850 1306 L1157 563 L543 563 L850 1306 Z " />
<glyph glyph-name="uni0203" unicode="&#x203;" horiz-adv-x="1209" d="M550 1434 C320 1434 254 1282 240 1216 L328 1216 C371 1318 451 1351 550 1351 C649 1351 729 1318 772 1216 L860 1216 C846 1282 780 1434 550 1434 L550 1434 Z M556 932 C826 932 829 770 829 630 C552 656 90 633 90 293 C90 87 240 -20 464 -20 C658 -20 772 78 829 218 L829 0 L1099 0 L1099 78 L921 78 L921 592 C921 770 916 1010 556 1010 C416 1010 283 979 190 924 L229 852 C309 902 456 932 556 932 L556 932 Z M186 293 C186 548 575 577 829 557 L829 429 C829 262 708 68 464 68 C281 68 186 157 186 293 L186 293 Z " />
<glyph glyph-name="uni0204" unicode="&#x204;" horiz-adv-x="1374" d="M1138 1170 L1234 1170 L1234 1434 L130 1434 L130 1346 L306 1346 L306 88 L130 88 L130 0 L1244 0 L1244 264 L1148 264 L1148 88 L402 88 L402 690 L1116 690 L1116 778 L402 778 L402 1346 L1138 1346 L1138 1170 Z M407 1807 L271 1807 L525 1536 L629 1536 L407 1807 Z M642 1807 L506 1807 L760 1536 L864 1536 L642 1807 Z " />
<glyph glyph-name="uni0205" unicode="&#x205;" horiz-adv-x="1108" d="M554 58 C311 58 198 238 187 455 L1018 455 C1018 840 806 1010 554 1010 C260 1010 90 796 90 495 C90 194 260 -20 554 -20 C778 -20 889 54 949 115 L885 174 C818 108 719 58 554 58 L554 58 Z M187 533 C198 752 311 932 554 932 C797 932 910 753 921 533 L187 533 Z M266 1434 L130 1434 L384 1163 L488 1163 L266 1434 Z M501 1434 L365 1434 L619 1163 L723 1163 L501 1434 Z " />
<glyph glyph-name="uni0206" unicode="&#x206;" horiz-adv-x="1374" d="M685 1754 C455 1754 389 1602 375 1536 L463 1536 C506 1638 586 1671 685 1671 C784 1671 864 1638 907 1536 L995 1536 C981 1602 915 1754 685 1754 L685 1754 Z M1138 1170 L1234 1170 L1234 1434 L130 1434 L130 1346 L306 1346 L306 88 L130 88 L130 0 L1244 0 L1244 264 L1148 264 L1148 88 L402 88 L402 690 L1116 690 L1116 778 L402 778 L402 1346 L1138 1346 L1138 1170 Z " />
<glyph glyph-name="uni0207" unicode="&#x207;" horiz-adv-x="1108" d="M554 58 C311 58 198 238 187 455 L1018 455 C1018 840 806 1010 554 1010 C260 1010 90 796 90 495 C90 194 260 -20 554 -20 C778 -20 889 54 949 115 L885 174 C818 108 719 58 554 58 L554 58 Z M187 533 C198 752 311 932 554 932 C797 932 910 753 921 533 L187 533 Z M554 1434 C324 1434 258 1282 244 1216 L332 1216 C375 1318 455 1351 554 1351 C653 1351 733 1318 776 1216 L864 1216 C850 1282 784 1434 554 1434 L554 1434 Z " />
<glyph glyph-name="uni0208" unicode="&#x208;" horiz-adv-x="750" d="M128 0 L576 0 L576 88 L400 88 L400 1346 L576 1346 L576 1434 L128 1434 L128 1346 L304 1346 L304 88 L128 88 L128 0 Z M55 1807 L-81 1807 L173 1536 L277 1536 L55 1807 Z M290 1807 L154 1807 L408 1536 L512 1536 L290 1807 Z " />
<glyph glyph-name="uni0209" unicode="&#x209;" horiz-adv-x="633" d="M275 912 L275 78 L97 78 L97 0 L545 0 L545 78 L367 78 L367 990 L97 990 L97 912 L275 912 Z M13 1434 L-123 1434 L131 1163 L235 1163 L13 1434 Z M248 1434 L112 1434 L366 1163 L470 1163 L248 1434 Z " />
<glyph glyph-name="uni020A" unicode="&#x20a;" horiz-adv-x="800" d="M400 1754 C170 1754 104 1602 90 1536 L178 1536 C221 1638 301 1671 400 1671 C499 1671 579 1638 622 1536 L710 1536 C696 1602 630 1754 400 1754 L400 1754 Z M176 0 L624 0 L624 88 L448 88 L448 1346 L624 1346 L624 1434 L176 1434 L176 1346 L352 1346 L352 88 L176 88 L176 0 Z " />
<glyph glyph-name="uni020B" unicode="&#x20b;" horiz-adv-x="760" d="M380 1434 C150 1434 84 1282 70 1216 L158 1216 C201 1318 281 1351 380 1351 C479 1351 559 1318 602 1216 L690 1216 C676 1282 610 1434 380 1434 L380 1434 Z M334 912 L334 78 L156 78 L156 0 L604 0 L604 78 L426 78 L426 990 L156 990 L156 912 L334 912 Z " />
<glyph glyph-name="uni020C" unicode="&#x20c;" horiz-adv-x="1634" d="M110 717 C110 314 358 -20 817 -20 C1276 -20 1524 314 1524 717 C1524 1120 1276 1454 817 1454 C358 1454 110 1120 110 717 L110 717 Z M212 717 C212 1069 409 1366 817 1366 C1225 1366 1422 1069 1422 717 C1422 365 1225 68 817 68 C409 68 212 365 212 717 L212 717 Z M535 1807 L399 1807 L653 1536 L757 1536 L535 1807 Z M770 1807 L634 1807 L888 1536 L992 1536 L770 1807 Z " />
<glyph glyph-name="uni020D" unicode="&#x20d;" horiz-adv-x="1192" d="M90 495 C90 193 294 -20 596 -20 C898 -20 1102 193 1102 495 C1102 797 898 1010 596 1010 C292 1010 90 796 90 495 L90 495 Z M184 495 C184 742 341 932 596 932 C850 932 1008 742 1008 495 C1008 248 850 58 596 58 C341 58 184 248 184 495 L184 495 Z M304 1434 L168 1434 L422 1163 L526 1163 L304 1434 Z M539 1434 L403 1434 L657 1163 L761 1163 L539 1434 Z " />
<glyph glyph-name="uni020E" unicode="&#x20e;" horiz-adv-x="1634" d="M110 717 C110 314 358 -20 817 -20 C1276 -20 1524 314 1524 717 C1524 1120 1276 1454 817 1454 C358 1454 110 1120 110 717 L110 717 Z M212 717 C212 1069 409 1366 817 1366 C1225 1366 1422 1069 1422 717 C1422 365 1225 68 817 68 C409 68 212 365 212 717 L212 717 Z M817 1754 C587 1754 521 1602 507 1536 L595 1536 C638 1638 718 1671 817 1671 C916 1671 996 1638 1039 1536 L1127 1536 C1113 1602 1047 1754 817 1754 L817 1754 Z " />
<glyph glyph-name="uni020F" unicode="&#x20f;" horiz-adv-x="1192" d="M90 495 C90 193 294 -20 596 -20 C898 -20 1102 193 1102 495 C1102 797 898 1010 596 1010 C292 1010 90 796 90 495 L90 495 Z M184 495 C184 742 341 932 596 932 C850 932 1008 742 1008 495 C1008 248 850 58 596 58 C341 58 184 248 184 495 L184 495 Z M596 1434 C366 1434 300 1282 286 1216 L374 1216 C417 1318 497 1351 596 1351 C695 1351 775 1318 818 1216 L906 1216 C892 1282 826 1434 596 1434 L596 1434 Z " />
<glyph glyph-name="uni0210" unicode="&#x210;" horiz-adv-x="1474" d="M395 1807 L259 1807 L513 1536 L617 1536 L395 1807 Z M630 1807 L494 1807 L748 1536 L852 1536 L630 1807 Z M130 0 L578 0 L578 88 L402 88 L402 630 L826 630 L1134 0 L1364 0 L1364 88 L1193 88 L928 630 C1177 636 1324 816 1324 1032 C1324 1248 1195 1434 938 1434 L130 1434 L130 1346 L306 1346 L306 88 L130 88 L130 0 Z M938 1346 C1140 1346 1224 1194 1224 1032 C1224 870 1140 718 938 718 L402 718 L402 1346 L938 1346 Z " />
<glyph glyph-name="uni0211" unicode="&#x211;" horiz-adv-x="943" d="M903 971 C847 997 781 1010 704 1010 C542 1010 420 925 380 795 L380 990 L110 990 L110 912 L288 912 L288 78 L110 78 L110 0 L558 0 L558 78 L380 78 L380 538 C380 775 473 932 704 932 C765 932 816 919 859 901 L903 971 Z M264 1434 L128 1434 L382 1163 L486 1163 L264 1434 Z M499 1434 L363 1434 L617 1163 L721 1163 L499 1434 Z " />
<glyph glyph-name="uni0212" unicode="&#x212;" horiz-adv-x="1474" d="M685 1754 C455 1754 389 1602 375 1536 L463 1536 C506 1638 586 1671 685 1671 C784 1671 864 1638 907 1536 L995 1536 C981 1602 915 1754 685 1754 L685 1754 Z M130 0 L578 0 L578 88 L402 88 L402 630 L826 630 L1134 0 L1364 0 L1364 88 L1193 88 L928 630 C1177 636 1324 816 1324 1032 C1324 1248 1195 1434 938 1434 L130 1434 L130 1346 L306 1346 L306 88 L130 88 L130 0 Z M938 1346 C1140 1346 1224 1194 1224 1032 C1224 870 1140 718 938 718 L402 718 L402 1346 L938 1346 Z " />
<glyph glyph-name="uni0213" unicode="&#x213;" horiz-adv-x="943" d="M589 1434 C359 1434 293 1282 279 1216 L367 1216 C410 1318 490 1351 589 1351 C688 1351 768 1318 811 1216 L899 1216 C885 1282 819 1434 589 1434 L589 1434 Z M903 971 C847 997 781 1010 704 1010 C542 1010 420 925 380 795 L380 990 L110 990 L110 912 L288 912 L288 78 L110 78 L110 0 L558 0 L558 78 L380 78 L380 538 C380 775 473 932 704 932 C765 932 816 919 859 901 L903 971 Z " />
<glyph glyph-name="uni0214" unicode="&#x214;" horiz-adv-x="1692" d="M1386 571 L1386 1346 L1562 1346 L1562 1434 L1114 1434 L1114 1346 L1290 1346 L1290 571 C1290 255 1129 68 846 68 C563 68 402 255 402 571 L402 1346 L578 1346 L578 1434 L130 1434 L130 1346 L306 1346 L306 571 C306 183 520 -20 846 -20 C1172 -20 1386 183 1386 571 L1386 571 Z M555 1807 L419 1807 L673 1536 L777 1536 L555 1807 Z M790 1807 L654 1807 L908 1536 L1012 1536 L790 1807 Z " />
<glyph glyph-name="uni0215" unicode="&#x215;" horiz-adv-x="1408" d="M380 452 L380 990 L110 990 L110 912 L288 912 L288 452 C288 150 430 -20 704 -20 C866 -20 988 65 1028 195 L1028 0 L1298 0 L1298 78 L1120 78 L1120 990 L850 990 L850 912 L1028 912 L1028 452 C1028 215 935 58 704 58 C473 58 380 215 380 452 L380 452 Z M374 1434 L238 1434 L492 1163 L596 1163 L374 1434 Z M609 1434 L473 1434 L727 1163 L831 1163 L609 1434 Z " />
<glyph glyph-name="uni0216" unicode="&#x216;" horiz-adv-x="1692" d="M845 1754 C615 1754 549 1602 535 1536 L623 1536 C666 1638 746 1671 845 1671 C944 1671 1024 1638 1067 1536 L1155 1536 C1141 1602 1075 1754 845 1754 L845 1754 Z M1386 571 L1386 1346 L1562 1346 L1562 1434 L1114 1434 L1114 1346 L1290 1346 L1290 571 C1290 255 1129 68 846 68 C563 68 402 255 402 571 L402 1346 L578 1346 L578 1434 L130 1434 L130 1346 L306 1346 L306 571 C306 183 520 -20 846 -20 C1172 -20 1386 183 1386 571 L1386 571 Z " />
<glyph glyph-name="uni0217" unicode="&#x217;" horiz-adv-x="1408" d="M704 1434 C474 1434 408 1282 394 1216 L482 1216 C525 1318 605 1351 704 1351 C803 1351 883 1318 926 1216 L1014 1216 C1000 1282 934 1434 704 1434 L704 1434 Z M380 452 L380 990 L110 990 L110 912 L288 912 L288 452 C288 150 430 -20 704 -20 C866 -20 988 65 1028 195 L1028 0 L1298 0 L1298 78 L1120 78 L1120 990 L850 990 L850 912 L1028 912 L1028 452 C1028 215 935 58 704 58 C473 58 380 215 380 452 L380 452 Z " />
<glyph glyph-name="Scommaaccent" unicode="&#x218;" horiz-adv-x="1307" d="M462 -532 L546 -532 L727 -135 L614 -135 L462 -532 Z M1089 1355 C1089 1355 910 1454 637 1454 C306 1454 173 1290 173 1098 C173 914 292 777 649 698 C972 627 1057 519 1057 360 C1057 173 929 68 656 68 C406 68 246 157 246 157 L246 294 L150 294 L150 108 C150 108 330 -20 656 -20 C946 -20 1157 96 1157 360 C1157 587 1005 711 665 790 C354 862 273 957 273 1098 C273 1283 440 1366 637 1366 C856 1366 993 1303 993 1303 L993 1170 L1089 1170 L1089 1355 Z " />
<glyph glyph-name="scommaaccent" unicode="&#x219;" horiz-adv-x="992" d="M290 -532 L374 -532 L554 -134 L442 -134 L290 -532 Z M839 937 C839 937 704 1010 488 1010 C222 1010 128 882 128 753 C128 620 218 529 493 475 C710 432 790 374 790 258 C790 128 692 58 494 58 C297 58 202 124 202 124 L202 254 L110 254 L110 83 C110 83 222 -20 494 -20 C727 -20 882 73 882 258 C882 420 763 502 509 552 C295 594 220 653 220 753 C220 860 313 932 488 932 C644 932 747 887 747 887 L747 736 L839 736 L839 937 Z " />
<glyph glyph-name="uni021A" unicode="&#x21a;" horiz-adv-x="1436" d="M766 1346 L1210 1346 L1210 1170 L1306 1170 L1306 1434 L130 1434 L130 1170 L226 1170 L226 1346 L670 1346 L670 88 L494 88 L494 0 L942 0 L942 88 L766 88 L766 1346 Z M506 -532 L590 -532 L770 -134 L658 -134 L506 -532 Z " />
<glyph glyph-name="uni021B" unicode="&#x21b;" horiz-adv-x="786" d="M70 912 L284 912 L284 441 C284 147 318 -20 570 -20 C617 -20 670 -12 716 3 L693 78 C654 67 609 58 570 58 C365 58 376 246 376 441 L376 912 L689 912 L689 990 L376 990 L376 1288 L284 1288 L284 990 L70 990 L70 912 Z M313 -532 L397 -532 L577 -134 L465 -134 L313 -532 Z " />
<glyph glyph-name="uni021E" unicode="&#x21e;" horiz-adv-x="1668" d="M130 0 L578 0 L578 88 L402 88 L402 690 L1266 690 L1266 88 L1090 88 L1090 0 L1538 0 L1538 88 L1362 88 L1362 1346 L1538 1346 L1538 1434 L1090 1434 L1090 1346 L1266 1346 L1266 778 L402 778 L402 1346 L578 1346 L578 1434 L130 1434 L130 1346 L306 1346 L306 88 L130 88 L130 0 Z M1101 1837 L1003 1837 L834 1639 L665 1837 L567 1837 L811 1536 L857 1536 L1101 1837 Z " />
<glyph glyph-name="uni021F" unicode="&#x21f;" horiz-adv-x="1408" d="M971 1837 L873 1837 L704 1639 L535 1837 L437 1837 L681 1536 L727 1536 L971 1837 Z M288 1438 L288 78 L110 78 L110 0 L558 0 L558 78 L380 78 L380 538 C380 775 473 932 704 932 C935 932 1028 775 1028 538 L1028 0 L1298 0 L1298 78 L1120 78 L1120 538 C1120 840 978 1010 704 1010 C542 1010 420 925 380 795 L380 1516 L110 1516 L110 1438 L288 1438 Z " />
<glyph glyph-name="uni0224" unicode="&#x224;" horiz-adv-x="1322" d="M1192 1434 L176 1434 L176 1170 L272 1170 L272 1346 L1052 1346 L130 54 L130 0 L1124 0 C1102 -3 943 -30 928 -172 C910 -336 1078 -372 1162 -365 L1162 -272 C1162 -272 1016 -278 1016 -173 C1016 -30 1174 -2 1192 0 L1192 264 L1096 264 L1096 88 L269 88 L1192 1380 L1192 1434 Z " />
<glyph glyph-name="uni0225" unicode="&#x225;" horiz-adv-x="1026" d="M110 0 L848 0 C826 -3 667 -30 652 -172 C634 -336 802 -372 886 -365 L886 -272 C886 -272 740 -278 740 -173 C740 -33 890 -3 916 0 L916 254 L824 254 L824 78 L246 78 L916 946 L916 990 L140 990 L140 736 L232 736 L232 912 L781 912 L110 44 L110 0 Z " />
<glyph glyph-name="uni0226" unicode="&#x226;" horiz-adv-x="1700" d="M775 1631 C775 1590 809 1556 850 1556 C891 1556 925 1590 925 1631 C925 1672 891 1706 850 1706 C809 1706 775 1672 775 1631 L775 1631 Z M591 1434 L591 1346 L768 1346 L242 88 L70 88 L70 0 L518 0 L518 88 L346 88 L506 475 L1193 475 L1353 88 L1182 88 L1182 0 L1630 0 L1630 88 L1458 88 L895 1434 L591 1434 Z M850 1306 L1157 563 L543 563 L850 1306 Z " />
<glyph glyph-name="uni0227" unicode="&#x227;" horiz-adv-x="1209" d="M475 1270 C475 1229 509 1195 550 1195 C591 1195 625 1229 625 1270 C625 1311 591 1345 550 1345 C509 1345 475 1311 475 1270 L475 1270 Z M556 932 C826 932 829 770 829 630 C552 656 90 633 90 293 C90 87 240 -20 464 -20 C658 -20 772 78 829 218 L829 0 L1099 0 L1099 78 L921 78 L921 592 C921 770 916 1010 556 1010 C416 1010 283 979 190 924 L229 852 C309 902 456 932 556 932 L556 932 Z M186 293 C186 548 575 577 829 557 L829 429 C829 262 708 68 464 68 C281 68 186 157 186 293 L186 293 Z " />
<glyph glyph-name="uni0228" unicode="&#x228;" horiz-adv-x="1374" d="M1138 1170 L1234 1170 L1234 1434 L130 1434 L130 1346 L306 1346 L306 88 L130 88 L130 0 L681 0 L613 -196 C751 -186 835 -192 828 -281 C817 -405 665 -381 581 -340 L545 -404 C662 -478 903 -473 916 -285 C923 -176 841 -126 718 -125 L761 0 L1244 0 L1244 264 L1148 264 L1148 88 L402 88 L402 690 L1116 690 L1116 778 L402 778 L402 1346 L1138 1346 L1138 1170 Z " />
<glyph glyph-name="uni0229" unicode="&#x229;" horiz-adv-x="1108" d="M380 -404 C497 -478 738 -473 751 -285 C758 -176 676 -126 553 -125 L589 -19 C790 -12 892 57 949 115 L885 174 C818 108 719 58 554 58 C311 58 198 238 187 455 L1018 455 C1018 840 806 1010 554 1010 C260 1010 90 796 90 495 C90 209 243 2 510 -18 L448 -196 C586 -186 670 -192 663 -281 C652 -405 500 -381 416 -340 L380 -404 Z M187 533 C198 752 311 932 554 932 C797 932 910 753 921 533 L187 533 Z " />
<glyph glyph-name="uni022A" unicode="&#x22a;" horiz-adv-x="1634" d="M110 717 C110 314 358 -20 817 -20 C1276 -20 1524 314 1524 717 C1524 1120 1276 1454 817 1454 C358 1454 110 1120 110 717 L110 717 Z M212 717 C212 1069 409 1366 817 1366 C1225 1366 1422 1069 1422 717 C1422 365 1225 68 817 68 C409 68 212 365 212 717 L212 717 Z M580 1631 C580 1590 614 1556 655 1556 C696 1556 730 1590 730 1631 C730 1672 696 1706 655 1706 C614 1706 580 1672 580 1631 L580 1631 Z M905 1631 C905 1590 939 1556 980 1556 C1021 1556 1055 1590 1055 1631 C1055 1672 1021 1706 980 1706 C939 1706 905 1672 905 1631 L905 1631 Z M479 1789 L1155 1789 L1155 1867 L479 1867 L479 1789 Z " />
<glyph glyph-name="uni022B" unicode="&#x22b;" horiz-adv-x="1192" d="M90 495 C90 193 294 -20 596 -20 C898 -20 1102 193 1102 495 C1102 797 898 1010 596 1010 C292 1010 90 796 90 495 L90 495 Z M184 495 C184 742 341 932 596 932 C850 932 1008 742 1008 495 C1008 248 850 58 596 58 C341 58 184 248 184 495 L184 495 Z M359 1270 C359 1229 393 1195 434 1195 C475 1195 509 1229 509 1270 C509 1311 475 1345 434 1345 C393 1345 359 1311 359 1270 L359 1270 Z M684 1270 C684 1229 718 1195 759 1195 C800 1195 834 1229 834 1270 C834 1311 800 1345 759 1345 C718 1345 684 1311 684 1270 L684 1270 Z M258 1428 L934 1428 L934 1506 L258 1506 L258 1428 Z " />
<glyph glyph-name="uni022C" unicode="&#x22c;" horiz-adv-x="1634" d="M792 1614 C828 1578 866 1536 937 1536 C1077 1536 1092 1705 1092 1705 L1003 1705 C1003 1705 991 1619 937 1619 C896 1619 872 1651 843 1680 C807 1716 769 1758 698 1758 C558 1758 543 1589 543 1589 L632 1589 C632 1589 644 1675 698 1675 C739 1675 763 1643 792 1614 L792 1614 Z M110 717 C110 314 358 -20 817 -20 C1276 -20 1524 314 1524 717 C1524 1120 1276 1454 817 1454 C358 1454 110 1120 110 717 L110 717 Z M212 717 C212 1069 409 1366 817 1366 C1225 1366 1422 1069 1422 717 C1422 365 1225 68 817 68 C409 68 212 365 212 717 L212 717 Z M479 1818 L1155 1818 L1155 1896 L479 1896 L479 1818 Z " />
<glyph glyph-name="uni022D" unicode="&#x22d;" horiz-adv-x="1192" d="M90 495 C90 193 294 -20 596 -20 C898 -20 1102 193 1102 495 C1102 797 898 1010 596 1010 C292 1010 90 796 90 495 L90 495 Z M184 495 C184 742 341 932 596 932 C850 932 1008 742 1008 495 C1008 248 850 58 596 58 C341 58 184 248 184 495 L184 495 Z M572 1224 C608 1188 646 1146 717 1146 C857 1146 872 1315 872 1315 L783 1315 C783 1315 771 1229 717 1229 C676 1229 652 1261 623 1290 C587 1326 549 1368 478 1368 C338 1368 323 1199 323 1199 L412 1199 C412 1199 424 1285 478 1285 C519 1285 543 1253 572 1224 L572 1224 Z M259 1428 L935 1428 L935 1506 L259 1506 L259 1428 Z " />
<glyph glyph-name="uni022E" unicode="&#x22e;" horiz-adv-x="1634" d="M742 1611 C742 1570 776 1536 817 1536 C858 1536 892 1570 892 1611 C892 1652 858 1686 817 1686 C776 1686 742 1652 742 1611 L742 1611 Z M110 717 C110 314 358 -20 817 -20 C1276 -20 1524 314 1524 717 C1524 1120 1276 1454 817 1454 C358 1454 110 1120 110 717 L110 717 Z M212 717 C212 1069 409 1366 817 1366 C1225 1366 1422 1069 1422 717 C1422 365 1225 68 817 68 C409 68 212 365 212 717 L212 717 Z " />
<glyph glyph-name="uni022F" unicode="&#x22f;" horiz-adv-x="1192" d="M90 495 C90 193 294 -20 596 -20 C898 -20 1102 193 1102 495 C1102 797 898 1010 596 1010 C292 1010 90 796 90 495 L90 495 Z M184 495 C184 742 341 932 596 932 C850 932 1008 742 1008 495 C1008 248 850 58 596 58 C341 58 184 248 184 495 L184 495 Z M521 1270 C521 1229 555 1195 596 1195 C637 1195 671 1229 671 1270 C671 1311 637 1345 596 1345 C555 1345 521 1311 521 1270 L521 1270 Z " />
<glyph glyph-name="uni0230" unicode="&#x230;" horiz-adv-x="1634" d="M742 1631 C742 1590 776 1556 817 1556 C858 1556 892 1590 892 1631 C892 1672 858 1706 817 1706 C776 1706 742 1672 742 1631 L742 1631 Z M110 717 C110 314 358 -20 817 -20 C1276 -20 1524 314 1524 717 C1524 1120 1276 1454 817 1454 C358 1454 110 1120 110 717 L110 717 Z M212 717 C212 1069 409 1366 817 1366 C1225 1366 1422 1069 1422 717 C1422 365 1225 68 817 68 C409 68 212 365 212 717 L212 717 Z M479 1789 L1155 1789 L1155 1867 L479 1867 L479 1789 Z " />
<glyph glyph-name="uni0231" unicode="&#x231;" horiz-adv-x="1192" d="M90 495 C90 193 294 -20 596 -20 C898 -20 1102 193 1102 495 C1102 797 898 1010 596 1010 C292 1010 90 796 90 495 L90 495 Z M184 495 C184 742 341 932 596 932 C850 932 1008 742 1008 495 C1008 248 850 58 596 58 C341 58 184 248 184 495 L184 495 Z M258 1428 L934 1428 L934 1506 L258 1506 L258 1428 Z M521 1270 C521 1229 555 1195 596 1195 C637 1195 671 1229 671 1270 C671 1311 637 1345 596 1345 C555 1345 521 1311 521 1270 L521 1270 Z " />
<glyph glyph-name="uni0232" unicode="&#x232;" horiz-adv-x="1578" d="M451 1536 L1127 1536 L1127 1614 L451 1614 L451 1536 Z M741 581 L741 88 L565 88 L565 0 L1013 0 L1013 88 L837 88 L837 581 L1339 1346 L1508 1346 L1508 1434 L1060 1434 L1060 1346 L1228 1346 L789 681 L350 1346 L518 1346 L518 1434 L70 1434 L70 1346 L239 1346 L741 581 Z " />
<glyph glyph-name="uni0233" unicode="&#x233;" horiz-adv-x="1420" d="M372 1356 L1048 1356 L1048 1434 L372 1434 L372 1356 Z M1310 912 L1310 990 L862 990 L862 912 L1033 912 L710 111 L386 912 L558 912 L558 990 L110 990 L110 912 L282 912 L664 0 L558 -255 C511 -368 475 -454 341 -454 L249 -454 L249 -532 L341 -532 C516 -532 568 -450 634 -291 L1137 912 L1310 912 Z " />
<glyph glyph-name="uni0238" unicode="&#x238;" horiz-adv-x="2012" d="M1052 761 L1052 1438 L1230 1438 L1230 1516 L782 1516 L782 1438 L960 1438 L960 761 C901 899 760 1010 573 1010 C283 1010 90 799 90 495 C90 191 283 -20 573 -20 C760 -20 901 91 960 229 L960 0 L1052 0 L1052 229 C1111 91 1252 -20 1439 -20 C1729 -20 1922 191 1922 495 C1922 799 1729 1010 1439 1010 C1252 1010 1111 899 1052 761 L1052 761 Z M573 932 C829 932 960 720 960 495 C960 270 829 58 573 58 C317 58 186 270 186 495 C186 720 317 932 573 932 L573 932 Z M1439 932 C1695 932 1826 720 1826 495 C1826 270 1695 58 1439 58 C1183 58 1052 270 1052 495 C1052 720 1183 932 1439 932 L1439 932 Z " />
<glyph glyph-name="uni0239" unicode="&#x239;" horiz-adv-x="2012" d="M960 990 L960 761 C901 899 760 1010 573 1010 C283 1010 90 799 90 495 C90 191 283 -20 573 -20 C760 -20 901 91 960 229 L960 -454 L782 -454 L782 -532 L1230 -532 L1230 -454 L1052 -454 L1052 229 C1111 91 1252 -20 1439 -20 C1729 -20 1922 191 1922 495 C1922 799 1729 1010 1439 1010 C1252 1010 1111 899 1052 761 L1052 990 L960 990 Z M573 58 C317 58 186 270 186 495 C186 720 317 932 573 932 C829 932 960 720 960 495 C960 270 829 58 573 58 L573 58 Z M1439 58 C1183 58 1052 270 1052 495 C1052 720 1183 932 1439 932 C1695 932 1826 720 1826 495 C1826 270 1695 58 1439 58 L1439 58 Z " />
<glyph glyph-name="uni024C" unicode="&#x24c;" horiz-adv-x="1547" d="M203 0 L651 0 L651 88 L475 88 L475 630 L899 630 L1207 0 L1437 0 L1437 88 L1266 88 L1001 630 C1250 636 1397 816 1397 1032 C1397 1248 1268 1434 1011 1434 L203 1434 L203 1346 L379 1346 L379 718 L130 718 L130 630 L379 630 L379 88 L203 88 L203 0 Z M1011 1346 C1213 1346 1297 1194 1297 1032 C1297 870 1213 718 1011 718 L475 718 L475 1346 L1011 1346 Z " />
<glyph glyph-name="uni024D" unicode="&#x24d;" horiz-adv-x="991" d="M951 971 C895 997 829 1010 752 1010 C590 1010 468 925 428 795 L428 990 L158 990 L158 912 L336 912 L336 470 L110 470 L110 392 L336 392 L336 78 L158 78 L158 0 L606 0 L606 78 L428 78 L428 392 L654 392 L654 470 L428 470 L428 538 C428 775 521 932 752 932 C813 932 864 919 907 901 L951 971 Z " />
<glyph glyph-name="uni024E" unicode="&#x24e;" horiz-adv-x="1578" d="M741 581 L741 88 L565 88 L565 0 L1013 0 L1013 88 L837 88 L837 581 L1105 990 L1340 990 L1340 1078 L1163 1078 L1339 1346 L1508 1346 L1508 1434 L1060 1434 L1060 1346 L1228 1346 L1051 1078 L527 1078 L350 1346 L518 1346 L518 1434 L70 1434 L70 1346 L239 1346 L415 1078 L239 1078 L239 990 L472 990 L741 581 Z M585 990 L993 990 L789 681 L585 990 Z " />
<glyph glyph-name="uni024F" unicode="&#x24f;" horiz-adv-x="1420" d="M1310 912 L1310 990 L862 990 L862 912 L1033 912 L901 584 L518 584 L386 912 L558 912 L558 990 L110 990 L110 912 L282 912 L419 584 L172 584 L172 506 L452 506 L664 0 L558 -255 C511 -368 475 -454 341 -454 L249 -454 L249 -532 L341 -532 C516 -532 568 -450 634 -291 L967 506 L1246 506 L1246 584 L999 584 L1137 912 L1310 912 Z M550 506 L869 506 L710 111 L550 506 Z " />
<glyph glyph-name="circumflex" unicode="&#x2c6;" horiz-adv-x="754" d="M400 1434 L354 1434 L110 1133 L208 1133 L377 1331 L546 1133 L644 1133 L400 1434 Z " />
<glyph glyph-name="caron" unicode="&#x2c7;" horiz-adv-x="714" d="M624 1434 L526 1434 L357 1236 L188 1434 L90 1434 L334 1133 L380 1133 L624 1434 Z " />
<glyph glyph-name="uni02C8" unicode="&#x2c8;" horiz-adv-x="312" d="M110 1075 L202 1075 L202 1434 L110 1434 L110 1075 Z " />
<glyph glyph-name="uni02C9" unicode="&#x2c9;" horiz-adv-x="936" d="M130 1356 L806 1356 L806 1434 L130 1434 L130 1356 Z " />
<glyph glyph-name="uni02CA" unicode="&#x2ca;" horiz-adv-x="578" d="M110 1163 L214 1163 L468 1434 L332 1434 L110 1163 Z " />
<glyph glyph-name="uni02CB" unicode="&#x2cb;" horiz-adv-x="578" d="M246 1434 L110 1434 L364 1163 L468 1163 L246 1434 Z " />
<glyph glyph-name="uni02CC" unicode="&#x2cc;" horiz-adv-x="312" d="M110 -532 L202 -532 L202 -173 L110 -173 L110 -532 Z " />
<glyph glyph-name="uni02CD" unicode="&#x2cd;" horiz-adv-x="896" d="M110 -532 L786 -532 L786 -454 L110 -454 L110 -532 Z " />
<glyph glyph-name="uni02CE" unicode="&#x2ce;" horiz-adv-x="578" d="M246 -262 L110 -262 L364 -533 L468 -533 L246 -262 Z " />
<glyph glyph-name="uni02CF" unicode="&#x2cf;" horiz-adv-x="578" d="M110 -533 L214 -533 L468 -262 L332 -262 L110 -533 Z " />
<glyph glyph-name="uni02D0" unicode="&#x2d0;" horiz-adv-x="498" d="M110 990 L248 745 L388 990 L110 990 Z M388 0 L248 245 L110 0 L388 0 Z " />
<glyph glyph-name="uni02D1" unicode="&#x2d1;" horiz-adv-x="498" d="M110 990 L248 745 L388 990 L110 990 Z " />
<glyph glyph-name="uni02D2" unicode="&#x2d2;" horiz-adv-x="458" d="M201 789 C201 863 254 911 348 911 L348 998 C205 998 110 913 110 789 C110 665 205 580 348 580 L348 667 C254 667 201 715 201 789 L201 789 Z " />
<glyph glyph-name="uni02D3" unicode="&#x2d3;" horiz-adv-x="458" d="M257 789 C257 715 204 667 110 667 L110 580 C253 580 348 665 348 789 C348 913 253 998 110 998 L110 911 C204 911 257 863 257 789 L257 789 Z " />
<glyph glyph-name="uni02D4" unicode="&#x2d4;" horiz-adv-x="860" d="M110 600 L750 600 L750 678 L476 678 L476 991 L384 991 L384 678 L110 678 L110 600 Z " />
<glyph glyph-name="uni02D5" unicode="&#x2d5;" horiz-adv-x="860" d="M110 313 L384 313 L384 0 L476 0 L476 313 L750 313 L750 391 L110 391 L110 313 Z " />
<glyph glyph-name="uni02D6" unicode="&#x2d6;" horiz-adv-x="1054" d="M180 595 L488 595 L488 287 L566 287 L566 595 L874 595 L874 673 L566 673 L566 981 L488 981 L488 673 L180 673 L180 595 Z " />
<glyph glyph-name="uni02D7" unicode="&#x2d7;" horiz-adv-x="860" d="M110 595 L750 595 L750 673 L110 673 L110 595 Z " />
<glyph glyph-name="breve" unicode="&#x2d8;" horiz-adv-x="800" d="M400 1216 C630 1216 696 1368 710 1434 L622 1434 C579 1332 499 1299 400 1299 C301 1299 221 1332 178 1434 L90 1434 C104 1368 170 1216 400 1216 L400 1216 Z " />
<glyph glyph-name="dotaccent" unicode="&#x2d9;" horiz-adv-x="290" d="M70 1270 C70 1229 104 1195 145 1195 C186 1195 220 1229 220 1270 C220 1311 186 1345 145 1345 C104 1345 70 1311 70 1270 L70 1270 Z " />
<glyph glyph-name="ring" unicode="&#x2da;" horiz-adv-x="560" d="M110 1284 C110 1192 178 1114 280 1114 C383 1114 450 1192 450 1284 C450 1377 383 1454 280 1454 C178 1454 110 1377 110 1284 L110 1284 Z M176 1284 C176 1341 213 1388 280 1388 C347 1388 384 1341 384 1284 C384 1227 347 1180 280 1180 C213 1180 176 1227 176 1284 L176 1284 Z " />
<glyph glyph-name="ogonek" unicode="&#x2db;" horiz-adv-x="446" d="M292 0 C292 0 109 -20 92 -172 C74 -336 242 -372 326 -365 L326 -272 C326 -272 180 -278 180 -173 C180 -23 356 0 356 0 L292 0 Z " />
<glyph glyph-name="tilde" unicode="&#x2dc;" horiz-adv-x="769" d="M359 1290 C395 1254 433 1212 504 1212 C644 1212 659 1381 659 1381 L570 1381 C570 1381 558 1295 504 1295 C463 1295 439 1327 410 1356 C374 1392 336 1434 265 1434 C125 1434 110 1265 110 1265 L199 1265 C199 1265 211 1351 265 1351 C306 1351 330 1319 359 1290 L359 1290 Z " />
<glyph glyph-name="hungarumlaut" unicode="&#x2dd;" horiz-adv-x="709" d="M346 1075 L428 1075 L599 1434 L486 1434 L346 1075 Z M110 1075 L194 1075 L364 1434 L251 1434 L110 1075 Z " />
<glyph glyph-name="gravecomb" unicode="&#x300;" horiz-adv-x="618" d="M266 1434 L130 1434 L384 1163 L488 1163 L266 1434 Z " />
<glyph glyph-name="acutecomb" unicode="&#x301;" horiz-adv-x="618" d="M130 1163 L234 1163 L488 1434 L352 1434 L130 1163 Z " />
<glyph glyph-name="uni0302" unicode="&#x302;" horiz-adv-x="754" d="M400 1434 L354 1434 L110 1133 L208 1133 L377 1321 L546 1133 L644 1133 L400 1434 Z " />
<glyph glyph-name="tildecomb" unicode="&#x303;" horiz-adv-x="809" d="M379 1290 C415 1254 453 1212 524 1212 C664 1212 679 1381 679 1381 L590 1381 C590 1381 578 1295 524 1295 C483 1295 459 1327 430 1356 C394 1392 356 1434 285 1434 C145 1434 130 1265 130 1265 L219 1265 C219 1265 231 1351 285 1351 C326 1351 350 1319 379 1290 L379 1290 Z " />
<glyph glyph-name="uni0304" unicode="&#x304;" horiz-adv-x="896" d="M110 1356 L786 1356 L786 1434 L110 1434 L110 1356 Z " />
<glyph glyph-name="uni0305" unicode="&#x305;" horiz-adv-x="896" d="M110 1356 L786 1356 L786 1434 L110 1434 L110 1356 Z " />
<glyph glyph-name="uni0306" unicode="&#x306;" horiz-adv-x="840" d="M420 1216 C650 1216 716 1368 730 1434 L642 1434 C599 1332 519 1299 420 1299 C321 1299 241 1332 198 1434 L110 1434 C124 1368 190 1216 420 1216 L420 1216 Z " />
<glyph glyph-name="uni0307" unicode="&#x307;" horiz-adv-x="370" d="M110 1270 C110 1229 144 1195 185 1195 C226 1195 260 1229 260 1270 C260 1311 226 1345 185 1345 C144 1345 110 1311 110 1270 L110 1270 Z " />
<glyph glyph-name="uni0308" unicode="&#x308;" horiz-adv-x="695" d="M110 1270 C110 1229 144 1195 185 1195 C226 1195 260 1229 260 1270 C260 1311 226 1345 185 1345 C144 1345 110 1311 110 1270 L110 1270 Z M435 1270 C435 1229 469 1195 510 1195 C551 1195 585 1229 585 1270 C585 1311 551 1345 510 1345 C469 1345 435 1311 435 1270 L435 1270 Z " />
<glyph glyph-name="hookabovecomb" unicode="&#x309;" horiz-adv-x="566" d="M130 1173 C172 1173 436 1147 436 1434 L342 1434 C342 1251 173 1258 130 1258 L130 1173 Z " />
<glyph glyph-name="uni030A" unicode="&#x30a;" horiz-adv-x="560" d="M110 1284 C110 1192 178 1114 280 1114 C383 1114 450 1192 450 1284 C450 1377 383 1454 280 1454 C178 1454 110 1377 110 1284 L110 1284 Z M176 1284 C176 1341 213 1388 280 1388 C347 1388 384 1341 384 1284 C384 1227 347 1180 280 1180 C213 1180 176 1227 176 1284 L176 1284 Z " />
<glyph glyph-name="uni030B" unicode="&#x30b;" horiz-adv-x="709" d="M346 1075 L428 1075 L599 1434 L486 1434 L346 1075 Z M110 1075 L194 1075 L364 1434 L251 1434 L110 1075 Z " />
<glyph glyph-name="uni030C" unicode="&#x30c;" horiz-adv-x="754" d="M644 1434 L546 1434 L377 1236 L208 1434 L110 1434 L354 1133 L400 1133 L644 1434 Z " />
<glyph glyph-name="uni030D" unicode="&#x30d;" horiz-adv-x="312" d="M110 1075 L202 1075 L202 1434 L110 1434 L110 1075 Z " />
<glyph glyph-name="uni030E" unicode="&#x30e;" horiz-adv-x="508" d="M110 1075 L202 1075 L202 1434 L110 1434 L110 1075 Z M306 1075 L398 1075 L398 1434 L306 1434 L306 1075 Z " />
<glyph glyph-name="uni030F" unicode="&#x30f;" horiz-adv-x="709" d="M223 1434 L110 1434 L281 1075 L363 1075 L223 1434 Z M458 1434 L345 1434 L515 1075 L599 1075 L458 1434 Z " />
<glyph glyph-name="uni0310" unicode="&#x310;" horiz-adv-x="840" d="M345 1489 C345 1448 379 1414 420 1414 C461 1414 495 1448 495 1489 C495 1530 461 1564 420 1564 C379 1564 345 1530 345 1489 L345 1489 Z M420 1216 C650 1216 716 1368 730 1434 L642 1434 C599 1332 519 1299 420 1299 C321 1299 241 1332 198 1434 L110 1434 C124 1368 190 1216 420 1216 L420 1216 Z " />
<glyph glyph-name="uni0311" unicode="&#x311;" horiz-adv-x="840" d="M420 1434 C190 1434 124 1282 110 1216 L198 1216 C241 1318 321 1351 420 1351 C519 1351 599 1318 642 1216 L730 1216 C716 1282 650 1434 420 1434 L420 1434 Z " />
<glyph glyph-name="uni0312" unicode="&#x312;" horiz-adv-x="493" d="M383 1434 L290 1434 L110 1036 L231 1036 L383 1434 Z " />
<glyph glyph-name="uni0313" unicode="&#x313;" horiz-adv-x="493" d="M110 1036 L203 1036 L383 1434 L262 1434 L110 1036 Z " />
<glyph glyph-name="uni0314" unicode="&#x314;" horiz-adv-x="493" d="M231 1434 L110 1434 L290 1036 L383 1036 L231 1434 Z " />
<glyph glyph-name="uni0315" unicode="&#x315;" horiz-adv-x="493" d="M110 1036 L203 1036 L383 1434 L262 1434 L110 1036 Z " />
<glyph glyph-name="uni0316" unicode="&#x316;" horiz-adv-x="578" d="M246 -262 L110 -262 L364 -533 L468 -533 L246 -262 Z " />
<glyph glyph-name="uni0317" unicode="&#x317;" horiz-adv-x="578" d="M110 -533 L214 -533 L468 -262 L332 -262 L110 -533 Z " />
<glyph glyph-name="uni0318" unicode="&#x318;" horiz-adv-x="461" d="M269 -226 L269 -340 L110 -340 L110 -418 L269 -418 L269 -532 L351 -532 L351 -226 L269 -226 Z " />
<glyph glyph-name="uni0319" unicode="&#x319;" horiz-adv-x="461" d="M110 -226 L110 -532 L192 -532 L192 -418 L351 -418 L351 -340 L192 -340 L192 -226 L110 -226 Z " />
<glyph glyph-name="uni031A" unicode="&#x31a;" horiz-adv-x="524" d="M110 1434 L110 1356 L322 1356 L322 1155 L414 1155 L414 1434 L110 1434 Z " />
<glyph glyph-name="uni031B" unicode="&#x31b;" horiz-adv-x="501" d="M295 1434 C295 1434 303 1212 110 1212 L110 1118 C397 1118 390 1434 390 1434 L295 1434 Z " />
<glyph glyph-name="uni031C" unicode="&#x31c;" horiz-adv-x="458" d="M201 -323 C201 -249 254 -201 348 -201 L348 -114 C205 -114 110 -199 110 -323 C110 -447 205 -532 348 -532 L348 -445 C254 -445 201 -397 201 -323 L201 -323 Z " />
<glyph glyph-name="uni031D" unicode="&#x31d;" horiz-adv-x="603" d="M110 -532 L493 -532 L493 -454 L347 -454 L347 -286 L255 -286 L255 -454 L110 -454 L110 -532 Z " />
<glyph glyph-name="uni031E" unicode="&#x31e;" horiz-adv-x="603" d="M110 -364 L255 -364 L255 -532 L347 -532 L347 -364 L493 -364 L493 -286 L110 -286 L110 -364 Z " />
<glyph glyph-name="uni031F" unicode="&#x31f;" horiz-adv-x="602" d="M492 38 L340 38 L340 190 L262 190 L262 38 L110 38 L110 -40 L262 -40 L262 -192 L340 -192 L340 -40 L492 -40 L492 38 Z " />
<glyph glyph-name="uni0320" unicode="&#x320;" horiz-adv-x="544" d="M110 -40 L434 -40 L434 38 L110 38 L110 -40 Z " />
<glyph glyph-name="uni0321" unicode="&#x321;" horiz-adv-x="626" d="M426 46 C426 -214 359 -324 110 -324 L110 -410 C415 -410 516 -274 516 46 L426 46 Z " />
<glyph glyph-name="uni0322" unicode="&#x322;" horiz-adv-x="626" d="M110 46 C110 -274 211 -410 516 -410 L516 -324 C267 -324 200 -214 200 46 L110 46 Z " />
<glyph glyph-name="dotbelowcomb" unicode="&#x323;" horiz-adv-x="410" d="M130 -273 C130 -314 164 -348 205 -348 C246 -348 280 -314 280 -273 C280 -232 246 -198 205 -198 C164 -198 130 -232 130 -273 L130 -273 Z " />
<glyph glyph-name="uni0324" unicode="&#x324;" horiz-adv-x="695" d="M110 -279 C110 -320 144 -354 185 -354 C226 -354 260 -320 260 -279 C260 -238 226 -204 185 -204 C144 -204 110 -238 110 -279 L110 -279 Z M435 -279 C435 -320 469 -354 510 -354 C551 -354 585 -320 585 -279 C585 -238 551 -204 510 -204 C469 -204 435 -238 435 -279 L435 -279 Z " />
<glyph glyph-name="uni0325" unicode="&#x325;" horiz-adv-x="560" d="M110 -362 C110 -454 178 -532 280 -532 C383 -532 450 -454 450 -362 C450 -269 383 -192 280 -192 C178 -192 110 -269 110 -362 L110 -362 Z M176 -362 C176 -305 213 -258 280 -258 C347 -258 384 -305 384 -362 C384 -419 347 -466 280 -466 C213 -466 176 -419 176 -362 L176 -362 Z " />
<glyph glyph-name="commaaccent" unicode="&#x326;" horiz-adv-x="524" d="M130 -532 L214 -532 L394 -134 L282 -134 L130 -532 Z " />
<glyph glyph-name="uni0327" unicode="&#x327;" horiz-adv-x="592" d="M110 -404 C227 -478 468 -473 481 -285 C488 -176 406 -126 283 -125 L339 36 L259 36 L178 -196 C316 -186 400 -192 393 -281 C382 -405 230 -381 146 -340 L110 -404 Z " />
<glyph glyph-name="uni0328" unicode="&#x328;" horiz-adv-x="486" d="M312 0 C312 0 129 -20 112 -172 C94 -336 262 -372 346 -365 L346 -272 C346 -272 200 -278 200 -173 C200 -23 376 0 376 0 L312 0 Z " />
<glyph glyph-name="uni0329" unicode="&#x329;" horiz-adv-x="312" d="M110 -532 L202 -532 L202 -173 L110 -173 L110 -532 Z " />
<glyph glyph-name="uni032A" unicode="&#x32a;" horiz-adv-x="836" d="M110 -532 L192 -532 L192 -396 L644 -396 L644 -532 L726 -532 L726 -318 L110 -318 L110 -532 Z " />
<glyph glyph-name="uni032B" unicode="&#x32b;" horiz-adv-x="656" d="M328 -452 C340 -512 385 -532 420 -532 C512 -532 546 -471 546 -382 L546 -220 L473 -220 L473 -382 C473 -417 468 -461 420 -461 C362 -461 362 -351 362 -288 L294 -288 C294 -351 294 -461 236 -461 C188 -461 183 -417 183 -382 L183 -220 L110 -220 L110 -382 C110 -471 144 -532 236 -532 C271 -532 316 -512 328 -452 L328 -452 Z " />
<glyph glyph-name="uni032C" unicode="&#x32c;" horiz-adv-x="754" d="M644 -231 L546 -231 L377 -429 L208 -231 L110 -231 L354 -532 L400 -532 L644 -231 Z " />
<glyph glyph-name="uni032D" unicode="&#x32d;" horiz-adv-x="754" d="M400 -231 L354 -231 L110 -532 L208 -532 L377 -334 L546 -532 L644 -532 L400 -231 Z " />
<glyph glyph-name="uni032E" unicode="&#x32e;" horiz-adv-x="840" d="M420 -532 C650 -532 716 -380 730 -314 L642 -314 C599 -416 519 -449 420 -449 C321 -449 241 -416 198 -314 L110 -314 C124 -380 190 -532 420 -532 L420 -532 Z " />
<glyph glyph-name="uni032F" unicode="&#x32f;" horiz-adv-x="840" d="M420 -314 C190 -314 124 -466 110 -532 L198 -532 C241 -430 321 -397 420 -397 C519 -397 599 -430 642 -532 L730 -532 C716 -466 650 -314 420 -314 L420 -314 Z " />
<glyph glyph-name="uni0330" unicode="&#x330;" horiz-adv-x="769" d="M359 -323 C395 -359 433 -401 504 -401 C644 -401 659 -232 659 -232 L570 -232 C570 -232 558 -318 504 -318 C463 -318 439 -286 410 -257 C374 -221 336 -179 265 -179 C125 -179 110 -348 110 -348 L199 -348 C199 -348 211 -262 265 -262 C306 -262 330 -294 359 -323 L359 -323 Z " />
<glyph glyph-name="uni0331" unicode="&#x331;" horiz-adv-x="896" d="M110 -532 L786 -532 L786 -454 L110 -454 L110 -532 Z " />
<glyph glyph-name="uni0332" unicode="&#x332;" horiz-adv-x="1153" d="M130 -229 L1023 -229 L1023 -141 L130 -141 L130 -229 Z " />
<glyph glyph-name="uni0333" unicode="&#x333;" horiz-adv-x="1153" d="M130 -385 L1023 -385 L1023 -297 L130 -297 L130 -385 Z M130 -229 L1023 -229 L1023 -141 L130 -141 L130 -229 Z " />
<glyph glyph-name="uni0334" unicode="&#x334;" horiz-adv-x="769" d="M359 660 C395 624 433 582 504 582 C644 582 659 751 659 751 L570 751 C570 751 558 665 504 665 C463 665 439 697 410 726 C374 762 336 804 265 804 C125 804 110 635 110 635 L199 635 C199 635 211 721 265 721 C306 721 330 689 359 660 L359 660 Z " />
<glyph glyph-name="uni0335" unicode="&#x335;" horiz-adv-x="739" d="M110 684 L629 684 L629 762 L110 762 L110 684 Z " />
<glyph glyph-name="uni0336" unicode="&#x336;" horiz-adv-x="974" d="M110 684 L864 684 L864 762 L110 762 L110 684 Z " />
<glyph glyph-name="uni0337" unicode="&#x337;" horiz-adv-x="984" d="M755 983 L110 230 L229 230 L874 983 L755 983 Z " />
<glyph glyph-name="uni0338" unicode="&#x338;" horiz-adv-x="1235" d="M110 0 L220 0 L1125 1434 L1015 1434 L110 0 Z " />
<glyph glyph-name="uni0339" unicode="&#x339;" horiz-adv-x="458" d="M257 -323 C257 -397 204 -445 110 -445 L110 -532 C253 -532 348 -447 348 -323 C348 -199 253 -114 110 -114 L110 -201 C204 -201 257 -249 257 -323 L257 -323 Z " />
<glyph glyph-name="uni033A" unicode="&#x33a;" horiz-adv-x="836" d="M110 -532 L726 -532 L726 -318 L644 -318 L644 -454 L192 -454 L192 -318 L110 -318 L110 -532 Z " />
<glyph glyph-name="uni033B" unicode="&#x33b;" horiz-adv-x="521" d="M110 -532 L411 -532 L411 -232 L110 -232 L110 -532 Z M188 -309 L333 -309 L333 -455 L188 -455 L188 -309 Z " />
<glyph glyph-name="uni033C" unicode="&#x33c;" horiz-adv-x="656" d="M363 -532 C366 -476 378 -419 420 -419 C468 -419 473 -463 473 -498 L473 -512 L546 -512 L546 -498 C546 -409 512 -348 420 -348 C385 -348 340 -368 328 -428 C316 -368 271 -348 236 -348 C144 -348 110 -409 110 -498 L110 -512 L183 -512 L183 -498 C183 -463 188 -419 236 -419 C278 -419 290 -476 293 -532 L363 -532 Z " />
<glyph glyph-name="uni033D" unicode="&#x33d;" horiz-adv-x="700" d="M350 1222 L491 1096 L590 1096 L399 1267 L585 1434 L486 1434 L350 1311 L214 1434 L115 1434 L300 1267 L110 1096 L209 1096 L350 1222 Z " />
<glyph glyph-name="uni033E" unicode="&#x33e;" horiz-adv-x="442" d="M254 1403 C290 1439 332 1477 332 1548 C332 1688 163 1703 163 1703 L163 1614 C163 1614 249 1602 249 1548 C249 1507 217 1483 188 1454 C152 1418 110 1380 110 1309 C110 1169 279 1154 279 1154 L279 1243 C279 1243 193 1255 193 1309 C193 1350 225 1374 254 1403 L254 1403 Z " />
<glyph glyph-name="uni033F" unicode="&#x33f;" horiz-adv-x="1153" d="M130 1516 L1023 1516 L1023 1604 L130 1604 L130 1516 Z M130 1672 L1023 1672 L1023 1760 L130 1760 L130 1672 Z " />
<glyph glyph-name="uni0340" unicode="&#x340;" horiz-adv-x="578" d="M246 1434 L110 1434 L364 1163 L468 1163 L246 1434 Z " />
<glyph glyph-name="uni0341" unicode="&#x341;" horiz-adv-x="578" d="M110 1163 L214 1163 L468 1434 L332 1434 L110 1163 Z " />
<glyph glyph-name="uni0342" unicode="&#x342;" horiz-adv-x="769" d="M359 1290 C395 1254 433 1212 504 1212 C644 1212 659 1381 659 1381 L570 1381 C570 1381 558 1295 504 1295 C463 1295 439 1327 410 1356 C374 1392 336 1434 265 1434 C125 1434 110 1265 110 1265 L199 1265 C199 1265 211 1351 265 1351 C306 1351 330 1319 359 1290 L359 1290 Z " />
<glyph glyph-name="uni0343" unicode="&#x343;" horiz-adv-x="492" d="M110 1036 L202 1036 L382 1434 L262 1434 L110 1036 Z " />
<glyph glyph-name="uni0344" unicode="&#x344;" horiz-adv-x="695" d="M279 1445 L367 1445 L503 1784 L382 1784 L279 1445 Z M110 1270 C110 1229 144 1195 185 1195 C226 1195 260 1229 260 1270 C260 1311 226 1345 185 1345 C144 1345 110 1311 110 1270 L110 1270 Z M435 1270 C435 1229 469 1195 510 1195 C551 1195 585 1229 585 1270 C585 1311 551 1345 510 1345 C469 1345 435 1311 435 1270 L435 1270 Z " />
<glyph glyph-name="uni0345" unicode="&#x345;" horiz-adv-x="592" d="M110 32 L110 -136 C110 -303 192 -345 295 -345 C358 -345 439 -320 482 -280 L440 -210 C407 -236 356 -259 296 -259 C236 -259 201 -229 201 -136 L201 32 L110 32 Z " />
<glyph glyph-name="uni0346" unicode="&#x346;" horiz-adv-x="836" d="M110 1220 L192 1220 L192 1356 L644 1356 L644 1220 L726 1220 L726 1434 L110 1434 L110 1220 Z " />
<glyph glyph-name="uni0347" unicode="&#x347;" horiz-adv-x="544" d="M110 -111 L434 -111 L434 -33 L110 -33 L110 -111 Z M110 33 L434 33 L434 111 L110 111 L110 33 Z " />
<glyph glyph-name="uni0348" unicode="&#x348;" horiz-adv-x="508" d="M110 -532 L202 -532 L202 -173 L110 -173 L110 -532 Z M306 -532 L398 -532 L398 -173 L306 -173 L306 -532 Z " />
<glyph glyph-name="uni0349" unicode="&#x349;" horiz-adv-x="524" d="M110 -253 L110 -331 L322 -331 L322 -532 L414 -532 L414 -253 L110 -253 Z " />
<glyph glyph-name="uni034A" unicode="&#x34a;" horiz-adv-x="769" d="M377 1388 C349 1413 315 1434 265 1434 C125 1434 110 1265 110 1265 L199 1265 C199 1265 211 1351 265 1351 C291 1351 311 1337 330 1320 L204 1138 L308 1138 L391 1258 C420 1233 453 1212 504 1212 C644 1212 659 1381 659 1381 L570 1381 C570 1381 558 1295 504 1295 C477 1295 457 1308 438 1326 L550 1488 L446 1488 L377 1388 Z " />
<glyph glyph-name="uni034B" unicode="&#x34b;" horiz-adv-x="769" d="M400 1496 C400 1455 434 1421 475 1421 C516 1421 550 1455 550 1496 C550 1537 516 1571 475 1571 C434 1571 400 1537 400 1496 L400 1496 Z M219 1150 C219 1109 253 1075 294 1075 C335 1075 369 1109 369 1150 C369 1191 335 1225 294 1225 C253 1225 219 1191 219 1150 L219 1150 Z M359 1290 C395 1254 433 1212 504 1212 C644 1212 659 1381 659 1381 L570 1381 C570 1381 558 1295 504 1295 C463 1295 439 1327 410 1356 C374 1392 336 1434 265 1434 C125 1434 110 1265 110 1265 L199 1265 C199 1265 211 1351 265 1351 C306 1351 330 1319 359 1290 L359 1290 Z " />
<glyph glyph-name="uni034C" unicode="&#x34c;" horiz-adv-x="914" d="M437 1288 C472 1253 539 1215 612 1215 C701 1215 768 1259 804 1319 L804 1419 C745 1337 695 1299 612 1299 C554 1299 514 1324 477 1361 C442 1396 375 1434 302 1434 C213 1434 146 1390 110 1330 L110 1230 C169 1312 219 1350 302 1350 C361 1350 397 1328 437 1288 L437 1288 Z M437 1073 C472 1038 539 1000 612 1000 C701 1000 768 1044 804 1104 L804 1204 C745 1122 695 1084 612 1084 C554 1084 514 1109 477 1146 C442 1181 375 1219 302 1219 C213 1219 146 1175 110 1115 L110 1015 C169 1097 219 1135 302 1135 C361 1135 397 1113 437 1073 L437 1073 Z " />
<glyph glyph-name="uni034D" unicode="&#x34d;" horiz-adv-x="1840" d="M288 -219 L483 -77 L483 26 L110 -263 L483 -552 L483 -449 L288 -307 L1552 -307 L1357 -449 L1357 -552 L1730 -263 L1357 26 L1357 -77 L1552 -219 L288 -219 Z " />
<glyph glyph-name="uni034E" unicode="&#x34e;" horiz-adv-x="798" d="M443 -532 L443 -158 L585 -353 L688 -353 L399 20 L110 -353 L213 -353 L355 -158 L355 -532 L443 -532 Z " />
<glyph glyph-name="tonos" unicode="&#x384;" horiz-adv-x="446" d="M110 1094 L200 1094 L336 1434 L215 1434 L110 1094 Z " />
<glyph glyph-name="dieresistonos" unicode="&#x385;" horiz-adv-x="735" d="M319 1445 L407 1445 L543 1784 L422 1784 L319 1445 Z M130 1270 C130 1229 164 1195 205 1195 C246 1195 280 1229 280 1270 C280 1311 246 1345 205 1345 C164 1345 130 1311 130 1270 L130 1270 Z M455 1270 C455 1229 489 1195 530 1195 C571 1195 605 1229 605 1270 C605 1311 571 1345 530 1345 C489 1345 455 1311 455 1270 L455 1270 Z " />
<glyph glyph-name="Alphatonos" unicode="&#x386;" horiz-adv-x="1700" d="M305 1094 L395 1094 L531 1434 L410 1434 L305 1094 Z M591 1434 L591 1346 L768 1346 L242 88 L70 88 L70 0 L518 0 L518 88 L346 88 L506 475 L1193 475 L1353 88 L1182 88 L1182 0 L1630 0 L1630 88 L1458 88 L895 1434 L591 1434 Z M850 1306 L1157 563 L543 563 L850 1306 Z " />
<glyph glyph-name="Epsilontonos" unicode="&#x388;" horiz-adv-x="1638" d="M130 1094 L220 1094 L356 1434 L235 1434 L130 1094 Z M1402 1170 L1498 1170 L1498 1434 L394 1434 L394 1346 L570 1346 L570 88 L394 88 L394 0 L1508 0 L1508 264 L1412 264 L1412 88 L666 88 L666 690 L1380 690 L1380 778 L666 778 L666 1346 L1402 1346 L1402 1170 Z " />
<glyph glyph-name="Etatonos" unicode="&#x389;" horiz-adv-x="1874" d="M60 1094 L150 1094 L286 1434 L165 1434 L60 1094 Z M336 0 L784 0 L784 88 L608 88 L608 690 L1472 690 L1472 88 L1296 88 L1296 0 L1744 0 L1744 88 L1568 88 L1568 1346 L1744 1346 L1744 1434 L1296 1434 L1296 1346 L1472 1346 L1472 778 L608 778 L608 1346 L784 1346 L784 1434 L336 1434 L336 1346 L512 1346 L512 88 L336 88 L336 0 Z " />
<glyph glyph-name="Iotatonos" unicode="&#x38a;" horiz-adv-x="914" d="M60 1094 L150 1094 L286 1434 L165 1434 L60 1094 Z M608 1346 L784 1346 L784 1434 L336 1434 L336 1346 L512 1346 L512 88 L336 88 L336 0 L784 0 L784 88 L608 88 L608 1346 Z " />
<glyph glyph-name="Omicrontonos" unicode="&#x38c;" horiz-adv-x="1726" d="M202 717 C202 314 450 -20 909 -20 C1368 -20 1616 314 1616 717 C1616 1120 1368 1454 909 1454 C450 1454 202 1120 202 717 L202 717 Z M304 717 C304 1069 501 1366 909 1366 C1317 1366 1514 1069 1514 717 C1514 365 1317 68 909 68 C501 68 304 365 304 717 L304 717 Z M110 1094 L200 1094 L336 1434 L215 1434 L110 1094 Z " />
<glyph glyph-name="Upsilontonos" unicode="&#x38e;" horiz-adv-x="1839" d="M70 1094 L160 1094 L296 1434 L175 1434 L70 1094 Z M1002 581 L1002 88 L826 88 L826 0 L1274 0 L1274 88 L1098 88 L1098 581 L1600 1346 L1769 1346 L1769 1434 L1321 1434 L1321 1346 L1489 1346 L1050 681 L611 1346 L779 1346 L779 1434 L331 1434 L331 1346 L500 1346 L1002 581 Z " />
<glyph glyph-name="Omegatonos" unicode="&#x38f;" horiz-adv-x="1677" d="M110 1094 L200 1094 L336 1434 L215 1434 L110 1094 Z M891 1366 C1228 1366 1467 1122 1467 780 C1467 422 1235 226 973 79 L973 0 L1563 0 L1563 264 L1467 264 L1467 88 L1118 88 C1251 169 1567 361 1567 780 C1567 1164 1291 1454 891 1454 C491 1454 215 1164 215 780 C215 361 531 169 664 88 L315 88 L315 264 L219 264 L219 0 L809 0 L809 79 C547 226 315 422 315 780 C315 1122 554 1366 891 1366 L891 1366 Z " />
<glyph glyph-name="iotadieresistonos" unicode="&#x390;" horiz-adv-x="615" d="M259 1445 L347 1445 L483 1784 L362 1784 L259 1445 Z M70 1270 C70 1229 104 1195 145 1195 C186 1195 220 1229 220 1270 C220 1311 186 1345 145 1345 C104 1345 70 1311 70 1270 L70 1270 Z M395 1270 C395 1229 429 1195 470 1195 C511 1195 545 1229 545 1270 C545 1311 511 1345 470 1345 C429 1345 395 1311 395 1270 L395 1270 Z M261 191 C261 142 252 0 412 0 L454 0 L454 78 L412 78 C353 78 353 144 353 191 L353 990 L83 990 L83 912 L261 912 L261 191 Z " />
<glyph glyph-name="Alpha" unicode="&#x391;" horiz-adv-x="1700" d="M591 1434 L591 1346 L768 1346 L242 88 L70 88 L70 0 L518 0 L518 88 L346 88 L506 475 L1193 475 L1353 88 L1182 88 L1182 0 L1630 0 L1630 88 L1458 88 L895 1434 L591 1434 Z M850 1306 L1157 563 L543 563 L850 1306 Z " />
<glyph glyph-name="Beta" unicode="&#x392;" horiz-adv-x="1475" d="M881 0 C1251 0 1365 201 1365 399 C1365 596 1258 709 1098 757 C1240 805 1306 920 1306 1072 C1306 1251 1189 1434 861 1434 L130 1434 L130 1346 L306 1346 L306 88 L130 88 L130 0 L881 0 Z M941 710 C1156 710 1263 578 1263 399 C1263 219 1156 88 881 88 L402 88 L402 710 L941 710 Z M402 798 L402 1346 L861 1346 C1096 1346 1204 1240 1204 1072 C1204 904 1116 798 941 798 L402 798 Z " />
<glyph glyph-name="Gamma" unicode="&#x393;" horiz-adv-x="1364" d="M130 0 L578 0 L578 88 L402 88 L402 1346 L1138 1346 L1138 1170 L1234 1170 L1234 1434 L130 1434 L130 1346 L306 1346 L306 88 L130 88 L130 0 Z " />
<glyph glyph-name="uni0394" unicode="&#x394;" horiz-adv-x="1700" d="M1630 0 L1630 88 L1458 88 L895 1434 L591 1434 L591 1346 L768 1346 L242 88 L70 88 L70 0 L1630 0 Z M850 1306 L1353 88 L346 88 L850 1306 Z " />
<glyph glyph-name="Epsilon" unicode="&#x395;" horiz-adv-x="1374" d="M1138 1170 L1234 1170 L1234 1434 L130 1434 L130 1346 L306 1346 L306 88 L130 88 L130 0 L1244 0 L1244 264 L1148 264 L1148 88 L402 88 L402 690 L1116 690 L1116 778 L402 778 L402 1346 L1138 1346 L1138 1170 Z " />
<glyph glyph-name="Zeta" unicode="&#x396;" horiz-adv-x="1322" d="M1192 1434 L176 1434 L176 1170 L272 1170 L272 1346 L1052 1346 L130 54 L130 0 L1192 0 L1192 264 L1096 264 L1096 88 L269 88 L1192 1380 L1192 1434 Z " />
<glyph glyph-name="Eta" unicode="&#x397;" horiz-adv-x="1668" d="M130 0 L578 0 L578 88 L402 88 L402 690 L1266 690 L1266 88 L1090 88 L1090 0 L1538 0 L1538 88 L1362 88 L1362 1346 L1538 1346 L1538 1434 L1090 1434 L1090 1346 L1266 1346 L1266 778 L402 778 L402 1346 L578 1346 L578 1434 L130 1434 L130 1346 L306 1346 L306 88 L130 88 L130 0 Z " />
<glyph glyph-name="Theta" unicode="&#x398;" horiz-adv-x="1634" d="M485 674 L1150 674 L1150 762 L485 762 L485 674 Z M110 717 C110 314 358 -20 817 -20 C1276 -20 1524 314 1524 717 C1524 1120 1276 1454 817 1454 C358 1454 110 1120 110 717 L110 717 Z M212 717 C212 1069 409 1366 817 1366 C1225 1366 1422 1069 1422 717 C1422 365 1225 68 817 68 C409 68 212 365 212 717 L212 717 Z " />
<glyph glyph-name="Iota" unicode="&#x399;" horiz-adv-x="708" d="M402 1346 L578 1346 L578 1434 L130 1434 L130 1346 L306 1346 L306 88 L130 88 L130 0 L578 0 L578 88 L402 88 L402 1346 Z " />
<glyph glyph-name="Kappa" unicode="&#x39a;" horiz-adv-x="1536" d="M130 0 L578 0 L578 88 L402 88 L402 539 L619 750 L1194 0 L1406 0 L1406 88 L1242 88 L684 813 L1234 1346 L1396 1346 L1396 1434 L948 1434 L948 1346 L1108 1346 L402 668 L402 1346 L578 1346 L578 1434 L130 1434 L130 1346 L306 1346 L306 88 L130 88 L130 0 Z " />
<glyph glyph-name="Lambda" unicode="&#x39b;" horiz-adv-x="1700" d="M850 1306 L1353 88 L1182 88 L1182 0 L1630 0 L1630 88 L1458 88 L895 1434 L591 1434 L591 1346 L768 1346 L242 88 L70 88 L70 0 L518 0 L518 88 L346 88 L850 1306 Z " />
<glyph glyph-name="Mu" unicode="&#x39c;" horiz-adv-x="1990" d="M130 0 L578 0 L578 88 L402 88 L402 1302 L950 0 L1040 0 L1588 1302 L1588 88 L1412 88 L1412 0 L1860 0 L1860 88 L1684 88 L1684 1346 L1860 1346 L1860 1434 L1543 1434 L995 132 L447 1434 L130 1434 L130 1346 L306 1346 L306 88 L130 88 L130 0 Z " />
<glyph glyph-name="Nu" unicode="&#x39d;" horiz-adv-x="1678" d="M130 0 L578 0 L578 88 L402 88 L402 1302 L1254 0 L1372 0 L1372 1346 L1548 1346 L1548 1434 L1100 1434 L1100 1346 L1276 1346 L1276 132 L424 1434 L130 1434 L130 1346 L306 1346 L306 88 L130 88 L130 0 Z " />
<glyph glyph-name="Xi" unicode="&#x39e;" horiz-adv-x="1183" d="M110 1346 L1073 1346 L1073 1434 L110 1434 L110 1346 Z M110 0 L1073 0 L1073 88 L110 88 L110 0 Z M229 690 L954 690 L954 778 L229 778 L229 690 Z " />
<glyph glyph-name="Omicron" unicode="&#x39f;" horiz-adv-x="1634" d="M110 717 C110 314 358 -20 817 -20 C1276 -20 1524 314 1524 717 C1524 1120 1276 1454 817 1454 C358 1454 110 1120 110 717 L110 717 Z M212 717 C212 1069 409 1366 817 1366 C1225 1366 1422 1069 1422 717 C1422 365 1225 68 817 68 C409 68 212 365 212 717 L212 717 Z " />
<glyph glyph-name="Pi" unicode="&#x3a0;" horiz-adv-x="1668" d="M1266 1346 L1266 88 L1090 88 L1090 0 L1538 0 L1538 88 L1362 88 L1362 1346 L1538 1346 L1538 1434 L130 1434 L130 1346 L306 1346 L306 88 L130 88 L130 0 L578 0 L578 88 L402 88 L402 1346 L1266 1346 Z " />
<glyph glyph-name="Rho" unicode="&#x3a1;" horiz-adv-x="1444" d="M130 0 L578 0 L578 88 L402 88 L402 590 L898 590 C1154 590 1334 743 1334 1012 C1334 1281 1154 1434 898 1434 L130 1434 L130 1346 L306 1346 L306 88 L130 88 L130 0 Z M898 1346 C1110 1346 1234 1221 1234 1012 C1234 803 1110 678 898 678 L402 678 L402 1346 L898 1346 Z " />
<glyph glyph-name="Sigma" unicode="&#x3a3;" horiz-adv-x="1257" d="M130 0 L1127 0 L1127 264 L1031 264 L1031 88 L291 88 L754 717 L292 1346 L1031 1346 L1031 1170 L1127 1170 L1127 1434 L139 1434 L139 1386 L630 717 L130 49 L130 0 Z " />
<glyph glyph-name="Tau" unicode="&#x3a4;" horiz-adv-x="1436" d="M766 1346 L1210 1346 L1210 1170 L1306 1170 L1306 1434 L130 1434 L130 1170 L226 1170 L226 1346 L670 1346 L670 88 L494 88 L494 0 L942 0 L942 88 L766 88 L766 1346 Z " />
<glyph glyph-name="Upsilon" unicode="&#x3a5;" horiz-adv-x="1578" d="M741 581 L741 88 L565 88 L565 0 L1013 0 L1013 88 L837 88 L837 581 L1339 1346 L1508 1346 L1508 1434 L1060 1434 L1060 1346 L1228 1346 L789 681 L350 1346 L518 1346 L518 1434 L70 1434 L70 1346 L239 1346 L741 581 Z " />
<glyph glyph-name="Phi" unicode="&#x3a6;" horiz-adv-x="1504" d="M800 1224 L800 1346 L976 1346 L976 1434 L528 1434 L528 1346 L704 1346 L704 1224 C353 1222 110 1054 110 717 C110 380 353 212 704 210 L704 88 L528 88 L528 0 L976 0 L976 88 L800 88 L800 210 C1151 212 1394 380 1394 717 C1394 1054 1151 1222 800 1224 L800 1224 Z M1294 717 C1294 414 1078 307 800 298 L800 1136 C1078 1127 1294 1020 1294 717 L1294 717 Z M210 717 C210 1020 426 1127 704 1136 L704 298 C426 307 210 414 210 717 L210 717 Z " />
<glyph glyph-name="Chi" unicode="&#x3a7;" horiz-adv-x="1574" d="M787 822 L341 1434 L123 1434 L123 1346 L289 1346 L728 752 L236 88 L70 88 L70 0 L518 0 L518 88 L352 88 L787 683 L1286 0 L1504 0 L1504 88 L1338 88 L846 752 L1285 1346 L1451 1346 L1451 1434 L1003 1434 L1003 1346 L1169 1346 L787 822 Z " />
<glyph glyph-name="Psi" unicode="&#x3a8;" horiz-adv-x="1712" d="M904 515 C1218 523 1449 719 1468 1346 L1642 1346 L1642 1434 L1369 1434 C1369 911 1251 616 904 603 L904 1346 L1080 1346 L1080 1434 L632 1434 L632 1346 L808 1346 L808 603 C461 616 343 911 343 1434 L70 1434 L70 1346 L243 1346 C263 719 494 523 808 515 L808 88 L632 88 L632 0 L1080 0 L1080 88 L904 88 L904 515 Z " />
<glyph glyph-name="uni03A9" unicode="&#x3a9;" horiz-adv-x="1572" d="M786 1366 C1123 1366 1362 1122 1362 780 C1362 422 1130 226 868 79 L868 0 L1458 0 L1458 264 L1362 264 L1362 88 L1013 88 C1146 169 1462 361 1462 780 C1462 1164 1186 1454 786 1454 C386 1454 110 1164 110 780 C110 361 426 169 559 88 L210 88 L210 264 L114 264 L114 0 L704 0 L704 79 C442 226 210 422 210 780 C210 1122 449 1366 786 1366 L786 1366 Z " />
<glyph glyph-name="Iotadieresis" unicode="&#x3aa;" horiz-adv-x="655" d="M90 1631 C90 1590 124 1556 165 1556 C206 1556 240 1590 240 1631 C240 1672 206 1706 165 1706 C124 1706 90 1672 90 1631 L90 1631 Z M415 1631 C415 1590 449 1556 490 1556 C531 1556 565 1590 565 1631 C565 1672 531 1706 490 1706 C449 1706 415 1672 415 1631 L415 1631 Z M375 1346 L551 1346 L551 1434 L103 1434 L103 1346 L279 1346 L279 88 L103 88 L103 0 L551 0 L551 88 L375 88 L375 1346 Z " />
<glyph glyph-name="Upsilondieresis" unicode="&#x3ab;" horiz-adv-x="1578" d="M552 1631 C552 1590 586 1556 627 1556 C668 1556 702 1590 702 1631 C702 1672 668 1706 627 1706 C586 1706 552 1672 552 1631 L552 1631 Z M877 1631 C877 1590 911 1556 952 1556 C993 1556 1027 1590 1027 1631 C1027 1672 993 1706 952 1706 C911 1706 877 1672 877 1631 L877 1631 Z M741 581 L741 88 L565 88 L565 0 L1013 0 L1013 88 L837 88 L837 581 L1339 1346 L1508 1346 L1508 1434 L1060 1434 L1060 1346 L1228 1346 L789 681 L350 1346 L518 1346 L518 1434 L70 1434 L70 1346 L239 1346 L741 581 Z " />
<glyph glyph-name="alphatonos" unicode="&#x3ac;" horiz-adv-x="1295" d="M985 739 C905 919 760 1010 573 1010 C283 1010 90 799 90 495 C90 191 283 -20 573 -20 C760 -20 905 71 985 251 C1020 109 1093 0 1093 0 L1205 0 C1205 0 1052 206 1052 495 C1052 784 1205 990 1205 990 L1093 990 C1093 990 1020 881 985 739 L985 739 Z M573 932 C829 932 960 720 960 495 C960 270 829 58 573 58 C317 58 186 270 186 495 C186 720 317 932 573 932 L573 932 Z M534 1094 L624 1094 L760 1434 L639 1434 L534 1094 Z " />
<glyph glyph-name="epsilontonos" unicode="&#x3ad;" horiz-adv-x="967" d="M432 1094 L522 1094 L658 1434 L537 1434 L432 1094 Z M741 736 L833 736 L833 897 C833 897 687 1010 473 1010 C244 1010 124 903 124 762 C124 631 224 558 324 531 C208 504 90 430 90 283 C90 76 254 -20 483 -20 C758 -20 857 85 857 85 L798 146 C798 146 696 58 483 58 C286 58 184 150 184 283 C184 455 379 485 574 487 L574 565 C437 567 218 596 218 762 C218 845 275 932 473 932 C604 932 696 882 741 852 L741 736 Z " />
<glyph glyph-name="etatonos" unicode="&#x3ae;" horiz-adv-x="1308" d="M671 1094 L761 1094 L897 1434 L776 1434 L671 1094 Z M380 538 C380 775 473 932 704 932 C935 932 1028 775 1028 538 L1028 -454 L850 -454 L850 -532 L1298 -532 L1298 -454 L1120 -454 L1120 538 C1120 840 978 1010 704 1010 C542 1010 420 925 380 795 L380 990 L110 990 L110 912 L288 912 L288 78 L110 78 L110 0 L558 0 L558 78 L380 78 L380 538 Z " />
</font>
</svg>
